G04 Layer_Color=8388736*
%FSLAX25Y25*%
%MOIN*%
G70*
G01*
G75*
%ADD52R,0.27559X0.22638*%
%ADD53R,0.10236X0.04724*%
%ADD54R,0.03150X0.02362*%
%ADD55R,0.04331X0.03937*%
%ADD56O,0.07284X0.03347*%
%ADD57R,0.04331X0.04724*%
%ADD58R,0.23622X0.25984*%
%ADD59R,0.03937X0.09449*%
%ADD60R,0.04134X0.14764*%
%ADD61R,0.40748X0.35039*%
%ADD62R,0.05236X0.06575*%
%ADD63R,0.11024X0.13386*%
%ADD64R,0.07480X0.12205*%
%ADD65R,0.09449X0.07874*%
%ADD66R,0.11693X0.10039*%
%ADD67R,0.06890X0.06102*%
%ADD68R,0.05118X0.05118*%
%ADD69R,0.02953X0.06693*%
%ADD70R,0.06693X0.02953*%
%ADD71R,0.05118X0.05118*%
%ADD72R,0.04724X0.04331*%
%ADD73C,0.16535*%
%ADD74C,0.31102*%
%ADD75C,0.07087*%
%ADD76C,0.00787*%
%ADD77C,0.12598*%
%ADD78C,0.05787*%
%ADD79C,0.03150*%
D52*
X271260Y283465D02*
D03*
D53*
X296457Y292441D02*
D03*
Y274488D02*
D03*
D54*
X55315Y63583D02*
D03*
Y61024D02*
D03*
Y58465D02*
D03*
X62795D02*
D03*
Y61024D02*
D03*
Y63583D02*
D03*
D55*
X334646Y122047D02*
D03*
X342520Y125787D02*
D03*
Y118307D02*
D03*
X59055Y90551D02*
D03*
X51181Y86811D02*
D03*
Y94291D02*
D03*
X334646Y90551D02*
D03*
X342520Y94291D02*
D03*
Y86811D02*
D03*
X59055Y122047D02*
D03*
X51181Y118307D02*
D03*
Y125787D02*
D03*
X59055Y106299D02*
D03*
X51181Y102559D02*
D03*
Y110039D02*
D03*
X334646Y106299D02*
D03*
X342520Y110039D02*
D03*
Y102559D02*
D03*
D56*
X297933Y54744D02*
D03*
Y49744D02*
D03*
Y44744D02*
D03*
Y39744D02*
D03*
X320177Y54744D02*
D03*
Y49744D02*
D03*
Y44744D02*
D03*
Y39744D02*
D03*
D57*
X107087Y312992D02*
D03*
X113386D02*
D03*
X241732Y305906D02*
D03*
X235433D02*
D03*
X107087Y297244D02*
D03*
X113386D02*
D03*
X107087Y305118D02*
D03*
X113386D02*
D03*
D58*
X314961Y167126D02*
D03*
X78740Y167126D02*
D03*
X114173Y167126D02*
D03*
X279528D02*
D03*
D59*
X323937Y139567D02*
D03*
X319449D02*
D03*
X310472D02*
D03*
X305984D02*
D03*
X69764Y139567D02*
D03*
X74252D02*
D03*
X83228D02*
D03*
X87717D02*
D03*
X123150Y139567D02*
D03*
X118661D02*
D03*
X109685D02*
D03*
X105197D02*
D03*
X270551D02*
D03*
X275039D02*
D03*
X284016D02*
D03*
X288504D02*
D03*
D60*
X213347Y142126D02*
D03*
X218347D02*
D03*
X223346D02*
D03*
X228346D02*
D03*
X233347D02*
D03*
X238347D02*
D03*
X243347D02*
D03*
X150354D02*
D03*
X155354D02*
D03*
X160354D02*
D03*
X165354D02*
D03*
X170354D02*
D03*
X175354D02*
D03*
X180354D02*
D03*
D61*
X228346Y178347D02*
D03*
X165354D02*
D03*
D62*
X177618Y265748D02*
D03*
X184587D02*
D03*
D63*
X264173Y118110D02*
D03*
X235827D02*
D03*
X129528D02*
D03*
X157874D02*
D03*
D64*
X338583Y274311D02*
D03*
Y261122D02*
D03*
D65*
X322835Y262598D02*
D03*
Y249213D02*
D03*
Y290158D02*
D03*
Y276772D02*
D03*
X291339Y249213D02*
D03*
Y262598D02*
D03*
D66*
X277284Y311024D02*
D03*
X297520D02*
D03*
D67*
X311024Y299213D02*
D03*
Y291339D02*
D03*
X307087Y255906D02*
D03*
Y248031D02*
D03*
D68*
X75197Y51181D02*
D03*
X82284D02*
D03*
X194095Y338583D02*
D03*
X201181D02*
D03*
X194095Y328740D02*
D03*
X201181D02*
D03*
X201969Y266142D02*
D03*
X194882D02*
D03*
X201969Y275984D02*
D03*
X194882D02*
D03*
X75197Y70866D02*
D03*
X82284D02*
D03*
X75197Y61024D02*
D03*
X82284D02*
D03*
D69*
X210630Y319291D02*
D03*
X207480D02*
D03*
X204331D02*
D03*
X201181D02*
D03*
X198031D02*
D03*
X194882D02*
D03*
X191732D02*
D03*
X188583D02*
D03*
Y286221D02*
D03*
X191732D02*
D03*
X194882D02*
D03*
X198031D02*
D03*
X201181D02*
D03*
X204331D02*
D03*
X207480D02*
D03*
X210630D02*
D03*
D70*
X183071Y313779D02*
D03*
Y310630D02*
D03*
Y307480D02*
D03*
Y304331D02*
D03*
Y301181D02*
D03*
Y298031D02*
D03*
Y294882D02*
D03*
Y291732D02*
D03*
X216142D02*
D03*
Y294882D02*
D03*
Y298031D02*
D03*
Y301181D02*
D03*
Y304331D02*
D03*
Y307480D02*
D03*
Y310630D02*
D03*
Y313779D02*
D03*
D71*
X318898Y70472D02*
D03*
Y63386D02*
D03*
D72*
X53150Y209449D02*
D03*
Y215748D02*
D03*
X37402Y174016D02*
D03*
Y180315D02*
D03*
Y164567D02*
D03*
Y158268D02*
D03*
X45276Y209449D02*
D03*
Y215748D02*
D03*
Y174016D02*
D03*
Y180315D02*
D03*
Y164567D02*
D03*
Y158268D02*
D03*
X37402Y209449D02*
D03*
Y215748D02*
D03*
X53150Y174016D02*
D03*
Y180315D02*
D03*
Y164567D02*
D03*
Y158268D02*
D03*
X356299Y209449D02*
D03*
Y215748D02*
D03*
X340551Y174016D02*
D03*
Y180315D02*
D03*
Y164567D02*
D03*
Y158268D02*
D03*
X340551Y209449D02*
D03*
Y215748D02*
D03*
X356299Y174016D02*
D03*
Y180315D02*
D03*
Y164567D02*
D03*
Y158268D02*
D03*
X348425Y209449D02*
D03*
Y215748D02*
D03*
Y174016D02*
D03*
Y180315D02*
D03*
Y164567D02*
D03*
Y158268D02*
D03*
X149213Y327165D02*
D03*
Y320866D02*
D03*
X157087Y327165D02*
D03*
Y320866D02*
D03*
X164961Y327165D02*
D03*
Y320866D02*
D03*
D73*
X181850Y239409D02*
D03*
X191850D02*
D03*
X181850Y229410D02*
D03*
Y219409D02*
D03*
Y209409D02*
D03*
X191850D02*
D03*
Y219409D02*
D03*
Y229410D02*
D03*
X201850D02*
D03*
Y219409D02*
D03*
Y209409D02*
D03*
Y239409D02*
D03*
X211850Y229410D02*
D03*
Y219409D02*
D03*
Y209409D02*
D03*
Y239409D02*
D03*
D74*
X354331Y314961D02*
D03*
X39370D02*
D03*
Y39370D02*
D03*
X354331D02*
D03*
D75*
X233307Y327165D02*
D03*
X253307D02*
D03*
X243307D02*
D03*
Y317165D02*
D03*
X253307D02*
D03*
X233307D02*
D03*
D76*
X265900Y64685D02*
D03*
X127800D02*
D03*
X196850Y19685D02*
D03*
D77*
X153056Y43685D02*
D03*
X205556D02*
D03*
X170556D02*
D03*
X188056D02*
D03*
Y68685D02*
D03*
X170556D02*
D03*
X205556D02*
D03*
X153056D02*
D03*
X240556D02*
D03*
X223056D02*
D03*
Y43685D02*
D03*
X240556D02*
D03*
D78*
X314961Y167126D02*
D03*
X309055Y174016D02*
D03*
Y160236D02*
D03*
X320866D02*
D03*
Y174016D02*
D03*
X240158Y172244D02*
D03*
Y186024D02*
D03*
X234252Y179134D02*
D03*
X222441D02*
D03*
X216535Y186024D02*
D03*
Y172244D02*
D03*
X228346D02*
D03*
Y186024D02*
D03*
X177165Y172244D02*
D03*
Y186024D02*
D03*
X171260Y179134D02*
D03*
X159449D02*
D03*
X153543Y186024D02*
D03*
Y172244D02*
D03*
X165354D02*
D03*
Y186024D02*
D03*
X84646Y174016D02*
D03*
Y160236D02*
D03*
X72835D02*
D03*
Y174016D02*
D03*
X78740Y167126D02*
D03*
X114173Y167126D02*
D03*
X108268Y174016D02*
D03*
Y160236D02*
D03*
X120079D02*
D03*
Y174016D02*
D03*
X285433D02*
D03*
Y160236D02*
D03*
X273622D02*
D03*
Y174016D02*
D03*
X279528Y167126D02*
D03*
D79*
X364961Y314961D02*
D03*
X354331Y304331D02*
D03*
Y325590D02*
D03*
X343701Y314961D02*
D03*
X346850Y322441D02*
D03*
Y307480D02*
D03*
X361811D02*
D03*
Y322441D02*
D03*
X50000Y314961D02*
D03*
X39370Y304331D02*
D03*
Y325590D02*
D03*
X28740Y314961D02*
D03*
X31890Y322441D02*
D03*
Y307480D02*
D03*
X46850D02*
D03*
Y322441D02*
D03*
X50000Y39370D02*
D03*
X39370Y28740D02*
D03*
Y50000D02*
D03*
X28740Y39370D02*
D03*
X31890Y46850D02*
D03*
Y31890D02*
D03*
X46850D02*
D03*
Y46850D02*
D03*
X364961Y39370D02*
D03*
X354331Y28740D02*
D03*
Y50000D02*
D03*
X343701Y39370D02*
D03*
X346850Y46850D02*
D03*
Y31890D02*
D03*
X361811D02*
D03*
Y46850D02*
D03*
M02*
