G04 Layer_Color=2752767*
%FSLAX25Y25*%
%MOIN*%
G70*
G01*
G75*
%ADD81C,0.00200*%
%ADD82C,0.00267*%
D81*
X196050Y223609D02*
Y225209D01*
X197650D01*
Y223609D01*
X196050D01*
X153056Y42885D02*
X152256Y44485D01*
X153856D01*
X153056Y42885D01*
X205556D02*
X204756Y44485D01*
X206356D01*
X205556Y42885D01*
X170556D02*
X169756Y44485D01*
X171356D01*
X170556Y42885D01*
X188056D02*
X187256Y44485D01*
X188856D01*
X188056Y42885D01*
Y67885D02*
X187256Y69485D01*
X188856D01*
X188056Y67885D01*
X170556D02*
X169756Y69485D01*
X171356D01*
X170556Y67885D01*
X205556D02*
X204756Y69485D01*
X206356D01*
X205556Y67885D01*
X153056D02*
X152256Y69485D01*
X153856D01*
X153056Y67885D01*
X240556D02*
X239756Y69485D01*
X241356D01*
X240556Y67885D01*
X223056D02*
X222256Y69485D01*
X223856D01*
X223056Y67885D01*
Y42885D02*
X222256Y44485D01*
X223856D01*
X223056Y42885D01*
X240556D02*
X239756Y44485D01*
X241356D01*
X240556Y42885D01*
X354331Y314161D02*
X354731Y314561D01*
X355131D01*
X354731Y314961D01*
X355131Y315361D01*
X354731D01*
X354331Y315761D01*
X353931Y315361D01*
X353531D01*
X353931Y314961D01*
X353531Y314561D01*
X353931D01*
X354331Y314161D01*
Y38570D02*
X354731Y38970D01*
X355131D01*
X354731Y39370D01*
X355131Y39770D01*
X354731D01*
X354331Y40170D01*
X353931Y39770D01*
X353531D01*
X353931Y39370D01*
X353531Y38970D01*
X353931D01*
X354331Y38570D01*
X39370D02*
X39770Y38970D01*
X40170D01*
X39770Y39370D01*
X40170Y39770D01*
X39770D01*
X39370Y40170D01*
X38970Y39770D01*
X38570D01*
X38970Y39370D01*
X38570Y38970D01*
X38970D01*
X39370Y38570D01*
Y314161D02*
X39770Y314561D01*
X40170D01*
X39770Y314961D01*
X40170Y315361D01*
X39770D01*
X39370Y315761D01*
X38970Y315361D01*
X38570D01*
X38970Y314961D01*
X38570Y314561D01*
X38970D01*
X39370Y314161D01*
X232507Y316365D02*
X232907Y317165D01*
X232507Y317965D01*
X233307Y317565D01*
X234107Y317965D01*
X233707Y317165D01*
X234107Y316365D01*
X233307Y316765D01*
X232507Y316365D01*
X252507D02*
X252907Y317165D01*
X252507Y317965D01*
X253307Y317565D01*
X254107Y317965D01*
X253707Y317165D01*
X254107Y316365D01*
X253307Y316765D01*
X252507Y316365D01*
X242507D02*
X242907Y317165D01*
X242507Y317965D01*
X243307Y317565D01*
X244107Y317965D01*
X243707Y317165D01*
X244107Y316365D01*
X243307Y316765D01*
X242507Y316365D01*
Y326365D02*
X242907Y327165D01*
X242507Y327965D01*
X243307Y327565D01*
X244107Y327965D01*
X243707Y327165D01*
X244107Y326365D01*
X243307Y326765D01*
X242507Y326365D01*
X252507D02*
X252907Y327165D01*
X252507Y327965D01*
X253307Y327565D01*
X254107Y327965D01*
X253707Y327165D01*
X254107Y326365D01*
X253307Y326765D01*
X252507Y326365D01*
X232507D02*
X232907Y327165D01*
X232507Y327965D01*
X233307Y327565D01*
X234107Y327965D01*
X233707Y327165D01*
X234107Y326365D01*
X233307Y326765D01*
X232507Y326365D01*
X209442Y237002D02*
Y236602D01*
X210243D01*
Y237002D01*
X210643D01*
Y237802D01*
X210243D01*
Y238202D01*
X209442D01*
Y237802D01*
X209043D01*
Y237002D01*
X209442D01*
X215151Y224009D02*
Y223609D01*
X215951D01*
Y224009D01*
X216351D01*
Y224810D01*
X215951D01*
Y225209D01*
X215151D01*
Y224810D01*
X214751D01*
Y224009D01*
X215151D01*
X196450Y205309D02*
Y204909D01*
X197250D01*
Y205309D01*
X197650D01*
Y206109D01*
X197250D01*
Y206509D01*
X196450D01*
Y206109D01*
X196050D01*
Y205309D01*
X196450D01*
X177750Y224009D02*
Y223609D01*
X178550D01*
Y224009D01*
X178950D01*
Y224810D01*
X178550D01*
Y225209D01*
X177750D01*
Y224810D01*
X177350D01*
Y224009D01*
X177750D01*
X196450Y242710D02*
Y242310D01*
X197250D01*
Y242710D01*
X197650D01*
Y243510D01*
X197250D01*
Y243910D01*
X196450D01*
Y243510D01*
X196050D01*
Y242710D01*
X196450D01*
X183458Y237002D02*
Y236602D01*
X184258D01*
Y237002D01*
X184658D01*
Y237802D01*
X184258D01*
Y238202D01*
X183458D01*
Y237802D01*
X183058D01*
Y237002D01*
X183458D01*
Y211017D02*
Y210617D01*
X184258D01*
Y211017D01*
X184658D01*
Y211817D01*
X184258D01*
Y212217D01*
X183458D01*
Y211817D01*
X183058D01*
Y211017D01*
X183458D01*
X209442D02*
Y210617D01*
X210243D01*
Y211017D01*
X210643D01*
Y211817D01*
X210243D01*
Y212217D01*
X209442D01*
Y211817D01*
X209043D01*
Y211017D01*
X209442D01*
X253924Y110224D02*
X254324D01*
X254724Y110624D01*
X255124Y110224D01*
X255524D01*
Y110624D01*
X255124Y111024D01*
X255524Y111424D01*
Y111824D01*
X255124D01*
X254724Y111424D01*
X254324Y111824D01*
X253924D01*
Y111424D01*
X254324Y111024D01*
X253924Y110624D01*
Y110224D01*
X260224Y127940D02*
X260624D01*
X261024Y128340D01*
X261424Y127940D01*
X261824D01*
Y128340D01*
X261424Y128740D01*
X261824Y129140D01*
Y129540D01*
X261424D01*
X261024Y129140D01*
X260624Y129540D01*
X260224D01*
Y129140D01*
X260624Y128740D01*
X260224Y128340D01*
Y127940D01*
X131877D02*
X132277D01*
X132677Y128340D01*
X133077Y127940D01*
X133477D01*
Y128340D01*
X133077Y128740D01*
X133477Y129140D01*
Y129540D01*
X133077D01*
X132677Y129140D01*
X132277Y129540D01*
X131877D01*
Y129140D01*
X132277Y128740D01*
X131877Y128340D01*
Y127940D01*
X138176Y110224D02*
X138576D01*
X138976Y110624D01*
X139376Y110224D01*
X139776D01*
Y110624D01*
X139376Y111024D01*
X139776Y111424D01*
Y111824D01*
X139376D01*
X138976Y111424D01*
X138576Y111824D01*
X138176D01*
Y111424D01*
X138576Y111024D01*
X138176Y110624D01*
Y110224D01*
X52350Y153543D02*
X53150Y154343D01*
X53950Y153543D01*
X53150Y152743D01*
X52350Y153543D01*
X44476D02*
X45276Y154343D01*
X46076Y153543D01*
X45276Y152743D01*
X44476Y153543D01*
X36602D02*
X37402Y154343D01*
X38202Y153543D01*
X37402Y152743D01*
X36602Y153543D01*
X222547Y151614D02*
X223346Y152414D01*
X224147Y151614D01*
X223346Y150814D01*
X222547Y151614D01*
X232665Y155512D02*
X233465Y156312D01*
X234265Y155512D01*
X233465Y154712D01*
X232665Y155512D01*
X339751Y153543D02*
X340551Y154343D01*
X341351Y153543D01*
X340551Y152743D01*
X339751Y153543D01*
X347625D02*
X348425Y154343D01*
X349225Y153543D01*
X348425Y152743D01*
X347625Y153543D01*
X355499D02*
X356299Y154343D01*
X357099Y153543D01*
X356299Y152743D01*
X355499Y153543D01*
X142901Y138964D02*
X143301D01*
X143701Y139364D01*
X144101Y138964D01*
X144501D01*
Y139364D01*
X144101Y139764D01*
X144501Y140164D01*
Y140564D01*
X144101D01*
X143701Y140164D01*
X143301Y140564D01*
X142901D01*
Y140164D01*
X143301Y139764D01*
X142901Y139364D01*
Y138964D01*
Y131090D02*
X143301D01*
X143701Y131490D01*
X144101Y131090D01*
X144501D01*
Y131490D01*
X144101Y131890D01*
X144501Y132290D01*
Y132690D01*
X144101D01*
X143701Y132290D01*
X143301Y132690D01*
X142901D01*
Y132290D01*
X143301Y131890D01*
X142901Y131490D01*
Y131090D01*
X152743Y129121D02*
X153143D01*
X153543Y129521D01*
X153943Y129121D01*
X154343D01*
Y129521D01*
X153943Y129921D01*
X154343Y130321D01*
Y130721D01*
X153943D01*
X153543Y130321D01*
X153143Y130721D01*
X152743D01*
Y130321D01*
X153143Y129921D01*
X152743Y129521D01*
Y129121D01*
X176365D02*
X176765D01*
X177165Y129521D01*
X177565Y129121D01*
X177965D01*
Y129521D01*
X177565Y129921D01*
X177965Y130321D01*
Y130721D01*
X177565D01*
X177165Y130321D01*
X176765Y130721D01*
X176365D01*
Y130321D01*
X176765Y129921D01*
X176365Y129521D01*
Y129121D01*
X186208Y138964D02*
X186608D01*
X187008Y139364D01*
X187408Y138964D01*
X187808D01*
Y139364D01*
X187408Y139764D01*
X187808Y140164D01*
Y140564D01*
X187408D01*
X187008Y140164D01*
X186608Y140564D01*
X186208D01*
Y140164D01*
X186608Y139764D01*
X186208Y139364D01*
Y138964D01*
Y131090D02*
X186608D01*
X187008Y131490D01*
X187408Y131090D01*
X187808D01*
Y131490D01*
X187408Y131890D01*
X187808Y132290D01*
Y132690D01*
X187408D01*
X187008Y132290D01*
X186608Y132690D01*
X186208D01*
Y132290D01*
X186608Y131890D01*
X186208Y131490D01*
Y131090D01*
X205893D02*
X206293D01*
X206693Y131490D01*
X207093Y131090D01*
X207493D01*
Y131490D01*
X207093Y131890D01*
X207493Y132290D01*
Y132690D01*
X207093D01*
X206693Y132290D01*
X206293Y132690D01*
X205893D01*
Y132290D01*
X206293Y131890D01*
X205893Y131490D01*
Y131090D01*
Y138964D02*
X206293D01*
X206693Y139364D01*
X207093Y138964D01*
X207493D01*
Y139364D01*
X207093Y139764D01*
X207493Y140164D01*
Y140564D01*
X207093D01*
X206693Y140164D01*
X206293Y140564D01*
X205893D01*
Y140164D01*
X206293Y139764D01*
X205893Y139364D01*
Y138964D01*
X215735Y129121D02*
X216135D01*
X216535Y129521D01*
X216935Y129121D01*
X217335D01*
Y129521D01*
X216935Y129921D01*
X217335Y130321D01*
Y130721D01*
X216935D01*
X216535Y130321D01*
X216135Y130721D01*
X215735D01*
Y130321D01*
X216135Y129921D01*
X215735Y129521D01*
Y129121D01*
X239357D02*
X239757D01*
X240158Y129521D01*
X240558Y129121D01*
X240957D01*
Y129521D01*
X240558Y129921D01*
X240957Y130321D01*
Y130721D01*
X240558D01*
X240158Y130321D01*
X239757Y130721D01*
X239357D01*
Y130321D01*
X239757Y129921D01*
X239357Y129521D01*
Y129121D01*
X249200Y131090D02*
X249600D01*
X250000Y131490D01*
X250400Y131090D01*
X250800D01*
Y131490D01*
X250400Y131890D01*
X250800Y132290D01*
Y132690D01*
X250400D01*
X250000Y132290D01*
X249600Y132690D01*
X249200D01*
Y132290D01*
X249600Y131890D01*
X249200Y131490D01*
Y131090D01*
Y138964D02*
X249600D01*
X250000Y139364D01*
X250400Y138964D01*
X250800D01*
Y139364D01*
X250400Y139764D01*
X250800Y140164D01*
Y140564D01*
X250400D01*
X250000Y140164D01*
X249600Y140564D01*
X249200D01*
Y140164D01*
X249600Y139764D01*
X249200Y139364D01*
Y138964D01*
X154712Y155512D02*
X155512Y156312D01*
X156312Y155512D01*
X155512Y154712D01*
X154712Y155512D01*
X169279D02*
X170079Y156312D01*
X170879Y155512D01*
X170079Y154712D01*
X169279Y155512D01*
X159554Y151614D02*
X160354Y152414D01*
X161154Y151614D01*
X160354Y150814D01*
X159554Y151614D01*
X77743Y139567D02*
X78543Y140367D01*
X79343Y139567D01*
X78543Y138767D01*
X77743Y139567D01*
X113176Y139567D02*
X113976Y140367D01*
X114776Y139567D01*
X113976Y138767D01*
X113176Y139567D01*
X278531D02*
X279331Y140367D01*
X280131Y139567D01*
X279331Y138767D01*
X278531Y139567D01*
X313964D02*
X314764Y140367D01*
X315564Y139567D01*
X314764Y138767D01*
X313964Y139567D01*
X64161Y122047D02*
X64961Y122847D01*
X65761Y122047D01*
X64961Y121247D01*
X64161Y122047D01*
X64161Y106299D02*
X64961Y107099D01*
X65761Y106299D01*
X64961Y105499D01*
X64161Y106299D01*
X64161Y90551D02*
X64961Y91351D01*
X65761Y90551D01*
X64961Y89751D01*
X64161Y90551D01*
X327940Y122047D02*
X328740Y122847D01*
X329540Y122047D01*
X328740Y121247D01*
X327940Y122047D01*
Y106299D02*
X328740Y107099D01*
X329540Y106299D01*
X328740Y105499D01*
X327940Y106299D01*
Y90551D02*
X328740Y91351D01*
X329540Y90551D01*
X328740Y89751D01*
X327940Y90551D01*
X222822Y313779D02*
X223622Y314580D01*
X224422Y313779D01*
X223622Y312980D01*
X222822Y313779D01*
X188570Y304331D02*
X189370Y305131D01*
X190170Y304331D01*
X189370Y303531D01*
X188570Y304331D01*
X235420Y299213D02*
X236221Y300013D01*
X237020Y299213D01*
X236221Y298413D01*
X235420Y299213D01*
X174397Y287402D02*
X175197Y288202D01*
X175997Y287402D01*
X175197Y286602D01*
X174397Y287402D01*
X277547Y248413D02*
X277946D01*
X278346Y248813D01*
X278747Y248413D01*
X279147D01*
Y248813D01*
X278747Y249213D01*
X279147Y249613D01*
Y250013D01*
X278747D01*
X278346Y249613D01*
X277946Y250013D01*
X277547D01*
Y249613D01*
X277946Y249213D01*
X277547Y248813D01*
Y248413D01*
X207074Y295276D02*
X207874Y296076D01*
X208674Y295276D01*
X207874Y294476D01*
X207074Y295276D01*
X304318Y328740D02*
X305118Y329540D01*
X305918Y328740D01*
X305118Y327940D01*
X304318Y328740D01*
Y334646D02*
X305118Y335446D01*
X305918Y334646D01*
X305118Y333846D01*
X304318Y334646D01*
X190145Y311024D02*
X190945Y311824D01*
X191745Y311024D01*
X190945Y310224D01*
X190145Y311024D01*
X194082Y312992D02*
X194882Y313792D01*
X195682Y312992D01*
X194882Y312192D01*
X194082Y312992D01*
X48413Y64161D02*
X48813D01*
X49213Y64561D01*
X49613Y64161D01*
X50013D01*
Y64561D01*
X49613Y64961D01*
X50013Y65361D01*
Y65761D01*
X49613D01*
X49213Y65361D01*
X48813Y65761D01*
X48413D01*
Y65361D01*
X48813Y64961D01*
X48413Y64561D01*
Y64161D01*
X68098Y54318D02*
X68498D01*
X68898Y54718D01*
X69298Y54318D01*
X69698D01*
Y54718D01*
X69298Y55118D01*
X69698Y55518D01*
Y55918D01*
X69298D01*
X68898Y55518D01*
X68498Y55918D01*
X68098D01*
Y55518D01*
X68498Y55118D01*
X68098Y54718D01*
Y54318D01*
X308255Y173216D02*
X308655D01*
X309055Y173616D01*
X309455Y173216D01*
X309855D01*
Y173616D01*
X309455Y174016D01*
X309855Y174416D01*
Y174816D01*
X309455D01*
X309055Y174416D01*
X308655Y174816D01*
X308255D01*
Y174416D01*
X308655Y174016D01*
X308255Y173616D01*
Y173216D01*
X314161Y166326D02*
X314561D01*
X314961Y166726D01*
X315361Y166326D01*
X315761D01*
Y166726D01*
X315361Y167126D01*
X315761Y167526D01*
Y167926D01*
X315361D01*
X314961Y167526D01*
X314561Y167926D01*
X314161D01*
Y167526D01*
X314561Y167126D01*
X314161Y166726D01*
Y166326D01*
X308255Y159436D02*
X308655D01*
X309055Y159836D01*
X309455Y159436D01*
X309855D01*
Y159836D01*
X309455Y160236D01*
X309855Y160636D01*
Y161036D01*
X309455D01*
X309055Y160636D01*
X308655Y161036D01*
X308255D01*
Y160636D01*
X308655Y160236D01*
X308255Y159836D01*
Y159436D01*
X320066D02*
X320466D01*
X320866Y159836D01*
X321266Y159436D01*
X321666D01*
Y159836D01*
X321266Y160236D01*
X321666Y160636D01*
Y161036D01*
X321266D01*
X320866Y160636D01*
X320466Y161036D01*
X320066D01*
Y160636D01*
X320466Y160236D01*
X320066Y159836D01*
Y159436D01*
Y173216D02*
X320466D01*
X320866Y173616D01*
X321266Y173216D01*
X321666D01*
Y173616D01*
X321266Y174016D01*
X321666Y174416D01*
Y174816D01*
X321266D01*
X320866Y174416D01*
X320466Y174816D01*
X320066D01*
Y174416D01*
X320466Y174016D01*
X320066Y173616D01*
Y173216D01*
X272822D02*
X273222D01*
X273622Y173616D01*
X274022Y173216D01*
X274422D01*
Y173616D01*
X274022Y174016D01*
X274422Y174416D01*
Y174816D01*
X274022D01*
X273622Y174416D01*
X273222Y174816D01*
X272822D01*
Y174416D01*
X273222Y174016D01*
X272822Y173616D01*
Y173216D01*
X278728Y166326D02*
X279128D01*
X279528Y166726D01*
X279928Y166326D01*
X280328D01*
Y166726D01*
X279928Y167126D01*
X280328Y167526D01*
Y167926D01*
X279928D01*
X279528Y167526D01*
X279128Y167926D01*
X278728D01*
Y167526D01*
X279128Y167126D01*
X278728Y166726D01*
Y166326D01*
X272822Y159436D02*
X273222D01*
X273622Y159836D01*
X274022Y159436D01*
X274422D01*
Y159836D01*
X274022Y160236D01*
X274422Y160636D01*
Y161036D01*
X274022D01*
X273622Y160636D01*
X273222Y161036D01*
X272822D01*
Y160636D01*
X273222Y160236D01*
X272822Y159836D01*
Y159436D01*
X284633D02*
X285033D01*
X285433Y159836D01*
X285833Y159436D01*
X286233D01*
Y159836D01*
X285833Y160236D01*
X286233Y160636D01*
Y161036D01*
X285833D01*
X285433Y160636D01*
X285033Y161036D01*
X284633D01*
Y160636D01*
X285033Y160236D01*
X284633Y159836D01*
Y159436D01*
Y173216D02*
X285033D01*
X285433Y173616D01*
X285833Y173216D01*
X286233D01*
Y173616D01*
X285833Y174016D01*
X286233Y174416D01*
Y174816D01*
X285833D01*
X285433Y174416D01*
X285033Y174816D01*
X284633D01*
Y174416D01*
X285033Y174016D01*
X284633Y173616D01*
Y173216D01*
X107468D02*
X107868D01*
X108268Y173616D01*
X108668Y173216D01*
X109068D01*
Y173616D01*
X108668Y174016D01*
X109068Y174416D01*
Y174816D01*
X108668D01*
X108268Y174416D01*
X107868Y174816D01*
X107468D01*
Y174416D01*
X107868Y174016D01*
X107468Y173616D01*
Y173216D01*
X113373Y166326D02*
X113773D01*
X114173Y166726D01*
X114573Y166326D01*
X114973D01*
Y166726D01*
X114573Y167126D01*
X114973Y167526D01*
Y167926D01*
X114573D01*
X114173Y167526D01*
X113773Y167926D01*
X113373D01*
Y167526D01*
X113773Y167126D01*
X113373Y166726D01*
Y166326D01*
X107468Y159436D02*
X107868D01*
X108268Y159836D01*
X108668Y159436D01*
X109068D01*
Y159836D01*
X108668Y160236D01*
X109068Y160636D01*
Y161036D01*
X108668D01*
X108268Y160636D01*
X107868Y161036D01*
X107468D01*
Y160636D01*
X107868Y160236D01*
X107468Y159836D01*
Y159436D01*
X119279D02*
X119679D01*
X120079Y159836D01*
X120479Y159436D01*
X120879D01*
Y159836D01*
X120479Y160236D01*
X120879Y160636D01*
Y161036D01*
X120479D01*
X120079Y160636D01*
X119679Y161036D01*
X119279D01*
Y160636D01*
X119679Y160236D01*
X119279Y159836D01*
Y159436D01*
Y173216D02*
X119679D01*
X120079Y173616D01*
X120479Y173216D01*
X120879D01*
Y173616D01*
X120479Y174016D01*
X120879Y174416D01*
Y174816D01*
X120479D01*
X120079Y174416D01*
X119679Y174816D01*
X119279D01*
Y174416D01*
X119679Y174016D01*
X119279Y173616D01*
Y173216D01*
X72035Y173216D02*
X72435D01*
X72835Y173616D01*
X73235Y173216D01*
X73635D01*
Y173616D01*
X73235Y174016D01*
X73635Y174416D01*
Y174816D01*
X73235D01*
X72835Y174416D01*
X72435Y174816D01*
X72035D01*
Y174416D01*
X72435Y174016D01*
X72035Y173616D01*
Y173216D01*
X77940Y166326D02*
X78340D01*
X78740Y166726D01*
X79140Y166326D01*
X79540D01*
Y166726D01*
X79140Y167126D01*
X79540Y167526D01*
Y167926D01*
X79140D01*
X78740Y167526D01*
X78340Y167926D01*
X77940D01*
Y167526D01*
X78340Y167126D01*
X77940Y166726D01*
Y166326D01*
X72035Y159436D02*
X72435D01*
X72835Y159836D01*
X73235Y159436D01*
X73635D01*
Y159836D01*
X73235Y160236D01*
X73635Y160636D01*
Y161036D01*
X73235D01*
X72835Y160636D01*
X72435Y161036D01*
X72035D01*
Y160636D01*
X72435Y160236D01*
X72035Y159836D01*
Y159436D01*
X83846D02*
X84246D01*
X84646Y159836D01*
X85046Y159436D01*
X85446D01*
Y159836D01*
X85046Y160236D01*
X85446Y160636D01*
Y161036D01*
X85046D01*
X84646Y160636D01*
X84246Y161036D01*
X83846D01*
Y160636D01*
X84246Y160236D01*
X83846Y159836D01*
Y159436D01*
Y173216D02*
X84246D01*
X84646Y173616D01*
X85046Y173216D01*
X85446D01*
Y173616D01*
X85046Y174016D01*
X85446Y174416D01*
Y174816D01*
X85046D01*
X84646Y174416D01*
X84246Y174816D01*
X83846D01*
Y174416D01*
X84246Y174016D01*
X83846Y173616D01*
Y173216D01*
X239357Y171444D02*
X239757D01*
X240158Y171844D01*
X240558Y171444D01*
X240957D01*
Y171844D01*
X240558Y172244D01*
X240957Y172644D01*
Y173044D01*
X240558D01*
X240158Y172644D01*
X239757Y173044D01*
X239357D01*
Y172644D01*
X239757Y172244D01*
X239357Y171844D01*
Y171444D01*
Y185224D02*
X239757D01*
X240158Y185624D01*
X240558Y185224D01*
X240957D01*
Y185624D01*
X240558Y186024D01*
X240957Y186424D01*
Y186824D01*
X240558D01*
X240158Y186424D01*
X239757Y186824D01*
X239357D01*
Y186424D01*
X239757Y186024D01*
X239357Y185624D01*
Y185224D01*
X233452Y178334D02*
X233852D01*
X234252Y178734D01*
X234652Y178334D01*
X235052D01*
Y178734D01*
X234652Y179134D01*
X235052Y179534D01*
Y179934D01*
X234652D01*
X234252Y179534D01*
X233852Y179934D01*
X233452D01*
Y179534D01*
X233852Y179134D01*
X233452Y178734D01*
Y178334D01*
X221641D02*
X222041D01*
X222441Y178734D01*
X222841Y178334D01*
X223241D01*
Y178734D01*
X222841Y179134D01*
X223241Y179534D01*
Y179934D01*
X222841D01*
X222441Y179534D01*
X222041Y179934D01*
X221641D01*
Y179534D01*
X222041Y179134D01*
X221641Y178734D01*
Y178334D01*
X215735Y185224D02*
X216135D01*
X216535Y185624D01*
X216935Y185224D01*
X217335D01*
Y185624D01*
X216935Y186024D01*
X217335Y186424D01*
Y186824D01*
X216935D01*
X216535Y186424D01*
X216135Y186824D01*
X215735D01*
Y186424D01*
X216135Y186024D01*
X215735Y185624D01*
Y185224D01*
Y171444D02*
X216135D01*
X216535Y171844D01*
X216935Y171444D01*
X217335D01*
Y171844D01*
X216935Y172244D01*
X217335Y172644D01*
Y173044D01*
X216935D01*
X216535Y172644D01*
X216135Y173044D01*
X215735D01*
Y172644D01*
X216135Y172244D01*
X215735Y171844D01*
Y171444D01*
X227547D02*
X227946D01*
X228346Y171844D01*
X228747Y171444D01*
X229147D01*
Y171844D01*
X228747Y172244D01*
X229147Y172644D01*
Y173044D01*
X228747D01*
X228346Y172644D01*
X227946Y173044D01*
X227547D01*
Y172644D01*
X227946Y172244D01*
X227547Y171844D01*
Y171444D01*
Y185224D02*
X227946D01*
X228346Y185624D01*
X228747Y185224D01*
X229147D01*
Y185624D01*
X228747Y186024D01*
X229147Y186424D01*
Y186824D01*
X228747D01*
X228346Y186424D01*
X227946Y186824D01*
X227547D01*
Y186424D01*
X227946Y186024D01*
X227547Y185624D01*
Y185224D01*
X176365Y171444D02*
X176765D01*
X177165Y171844D01*
X177565Y171444D01*
X177965D01*
Y171844D01*
X177565Y172244D01*
X177965Y172644D01*
Y173044D01*
X177565D01*
X177165Y172644D01*
X176765Y173044D01*
X176365D01*
Y172644D01*
X176765Y172244D01*
X176365Y171844D01*
Y171444D01*
Y185224D02*
X176765D01*
X177165Y185624D01*
X177565Y185224D01*
X177965D01*
Y185624D01*
X177565Y186024D01*
X177965Y186424D01*
Y186824D01*
X177565D01*
X177165Y186424D01*
X176765Y186824D01*
X176365D01*
Y186424D01*
X176765Y186024D01*
X176365Y185624D01*
Y185224D01*
X170460Y178334D02*
X170860D01*
X171260Y178734D01*
X171660Y178334D01*
X172060D01*
Y178734D01*
X171660Y179134D01*
X172060Y179534D01*
Y179934D01*
X171660D01*
X171260Y179534D01*
X170860Y179934D01*
X170460D01*
Y179534D01*
X170860Y179134D01*
X170460Y178734D01*
Y178334D01*
X158649D02*
X159049D01*
X159449Y178734D01*
X159849Y178334D01*
X160249D01*
Y178734D01*
X159849Y179134D01*
X160249Y179534D01*
Y179934D01*
X159849D01*
X159449Y179534D01*
X159049Y179934D01*
X158649D01*
Y179534D01*
X159049Y179134D01*
X158649Y178734D01*
Y178334D01*
X152743Y185224D02*
X153143D01*
X153543Y185624D01*
X153943Y185224D01*
X154343D01*
Y185624D01*
X153943Y186024D01*
X154343Y186424D01*
Y186824D01*
X153943D01*
X153543Y186424D01*
X153143Y186824D01*
X152743D01*
Y186424D01*
X153143Y186024D01*
X152743Y185624D01*
Y185224D01*
Y171444D02*
X153143D01*
X153543Y171844D01*
X153943Y171444D01*
X154343D01*
Y171844D01*
X153943Y172244D01*
X154343Y172644D01*
Y173044D01*
X153943D01*
X153543Y172644D01*
X153143Y173044D01*
X152743D01*
Y172644D01*
X153143Y172244D01*
X152743Y171844D01*
Y171444D01*
X164554D02*
X164954D01*
X165354Y171844D01*
X165754Y171444D01*
X166154D01*
Y171844D01*
X165754Y172244D01*
X166154Y172644D01*
Y173044D01*
X165754D01*
X165354Y172644D01*
X164954Y173044D01*
X164554D01*
Y172644D01*
X164954Y172244D01*
X164554Y171844D01*
Y171444D01*
Y185224D02*
X164954D01*
X165354Y185624D01*
X165754Y185224D01*
X166154D01*
Y185624D01*
X165754Y186024D01*
X166154Y186424D01*
Y186824D01*
X165754D01*
X165354Y186424D01*
X164954Y186824D01*
X164554D01*
Y186424D01*
X164954Y186024D01*
X164554Y185624D01*
Y185224D01*
X286602Y300381D02*
X287002D01*
X287402Y300781D01*
X287802Y300381D01*
X288202D01*
Y300781D01*
X287802Y301181D01*
X288202Y301581D01*
Y301981D01*
X287802D01*
X287402Y301581D01*
X287002Y301981D01*
X286602D01*
Y301581D01*
X287002Y301181D01*
X286602Y300781D01*
Y300381D01*
X211798Y257074D02*
X212198D01*
X212598Y257474D01*
X212998Y257074D01*
X213398D01*
Y257474D01*
X212998Y257874D01*
X213398Y258274D01*
Y258674D01*
X212998D01*
X212598Y258274D01*
X212198Y258674D01*
X211798D01*
Y258274D01*
X212198Y257874D01*
X211798Y257474D01*
Y257074D01*
X133058Y324003D02*
X133458D01*
X133858Y324403D01*
X134258Y324003D01*
X134658D01*
Y324403D01*
X134258Y324803D01*
X134658Y325203D01*
Y325603D01*
X134258D01*
X133858Y325203D01*
X133458Y325603D01*
X133058D01*
Y325203D01*
X133458Y324803D01*
X133058Y324403D01*
Y324003D01*
Y292507D02*
X133458D01*
X133858Y292907D01*
X134258Y292507D01*
X134658D01*
Y292907D01*
X134258Y293307D01*
X134658Y293707D01*
Y294107D01*
X134258D01*
X133858Y293707D01*
X133458Y294107D01*
X133058D01*
Y293707D01*
X133458Y293307D01*
X133058Y292907D01*
Y292507D01*
D82*
X266700Y64685D02*
G03*
X266700Y64685I-800J0D01*
G01*
X128600D02*
G03*
X128600Y64685I-800J0D01*
G01*
X197650Y19685D02*
G03*
X197650Y19685I-800J0D01*
G01*
M02*
