G04 Layer_Color=128*
%FSLAX25Y25*%
%MOIN*%
G70*
G01*
G75*
%ADD81C,0.00200*%
D81*
X186024Y224410D02*
X207677D01*
X196850Y213583D02*
Y235236D01*
X260192Y64685D02*
X271609D01*
X265900Y58976D02*
Y70394D01*
X122092Y64685D02*
X133509D01*
X127800Y58976D02*
Y70394D01*
X149513Y43685D02*
X156600D01*
X153056Y40142D02*
Y47228D01*
X202013Y43685D02*
X209100D01*
X205556Y40142D02*
Y47228D01*
X167013Y43685D02*
X174100D01*
X170556Y40142D02*
Y47228D01*
X184513Y43685D02*
X191600D01*
X188056Y40142D02*
Y47228D01*
X184513Y68685D02*
X191600D01*
X188056Y65142D02*
Y72228D01*
X167013Y68685D02*
X174100D01*
X170556Y65142D02*
Y72228D01*
X202013Y68685D02*
X209100D01*
X205556Y65142D02*
Y72228D01*
X149513Y68685D02*
X156600D01*
X153056Y65142D02*
Y72228D01*
X191142Y19685D02*
X202559D01*
X196850Y13976D02*
Y25394D01*
X237013Y68685D02*
X244100D01*
X240556Y65142D02*
Y72228D01*
X219513Y68685D02*
X226600D01*
X223056Y65142D02*
Y72228D01*
X219513Y43685D02*
X226600D01*
X223056Y40142D02*
Y47228D01*
X237013Y43685D02*
X244100D01*
X240556Y40142D02*
Y47228D01*
X347441Y314961D02*
X361221D01*
X354331Y308071D02*
Y321850D01*
X347441Y39370D02*
X361221D01*
X354331Y32480D02*
Y46260D01*
X32480Y39370D02*
X46260D01*
X39370Y32480D02*
Y46260D01*
X32480Y314961D02*
X46260D01*
X39370Y308071D02*
Y321850D01*
X231142Y317165D02*
X235472D01*
X233307Y315000D02*
Y319331D01*
X251142Y317165D02*
X255472D01*
X253307Y315000D02*
Y319331D01*
X241142Y317165D02*
X245472D01*
X243307Y315000D02*
Y319331D01*
X241142Y327165D02*
X245472D01*
X243307Y325000D02*
Y329331D01*
X251142Y327165D02*
X255472D01*
X253307Y325000D02*
Y329331D01*
X231142Y327165D02*
X235472D01*
X233307Y325000D02*
Y329331D01*
X208366Y237402D02*
X211319D01*
X209842Y235925D02*
Y238878D01*
X214075Y224410D02*
X217028D01*
X215551Y222933D02*
Y225886D01*
X195374Y205709D02*
X198327D01*
X196850Y204232D02*
Y207185D01*
X176673Y224410D02*
X179626D01*
X178150Y222933D02*
Y225886D01*
X195374Y243110D02*
X198327D01*
X196850Y241634D02*
Y244587D01*
X182382Y237402D02*
X185335D01*
X183858Y235925D02*
Y238878D01*
X182382Y211417D02*
X185335D01*
X183858Y209941D02*
Y212894D01*
X208366Y211417D02*
X211319D01*
X209842Y209941D02*
Y212894D01*
X253324Y111024D02*
X256124D01*
X254724Y109624D02*
Y112424D01*
X259624Y128740D02*
X262424D01*
X261024Y127340D02*
Y130140D01*
X131277Y128740D02*
X134077D01*
X132677Y127340D02*
Y130140D01*
X137576Y111024D02*
X140376D01*
X138976Y109624D02*
Y112424D01*
X52362Y153543D02*
X53937D01*
X53150Y152756D02*
Y154331D01*
X44488Y153543D02*
X46063D01*
X45276Y152756D02*
Y154331D01*
X36614Y153543D02*
X38189D01*
X37402Y152756D02*
Y154331D01*
X222559Y151614D02*
X224134D01*
X223346Y150827D02*
Y152402D01*
X232677Y155512D02*
X234252D01*
X233465Y154724D02*
Y156299D01*
X339764Y153543D02*
X341339D01*
X340551Y152756D02*
Y154331D01*
X347638Y153543D02*
X349213D01*
X348425Y152756D02*
Y154331D01*
X355512Y153543D02*
X357087D01*
X356299Y152756D02*
Y154331D01*
X142301Y139764D02*
X145101D01*
X143701Y138364D02*
Y141164D01*
X142301Y131890D02*
X145101D01*
X143701Y130490D02*
Y133290D01*
X152143Y129921D02*
X154943D01*
X153543Y128521D02*
Y131321D01*
X175765Y129921D02*
X178565D01*
X177165Y128521D02*
Y131321D01*
X185608Y139764D02*
X188408D01*
X187008Y138364D02*
Y141164D01*
X185608Y131890D02*
X188408D01*
X187008Y130490D02*
Y133290D01*
X205293Y131890D02*
X208093D01*
X206693Y130490D02*
Y133290D01*
X205293Y139764D02*
X208093D01*
X206693Y138364D02*
Y141164D01*
X215135Y129921D02*
X217935D01*
X216535Y128521D02*
Y131321D01*
X238757Y129921D02*
X241558D01*
X240158Y128521D02*
Y131321D01*
X248600Y131890D02*
X251400D01*
X250000Y130490D02*
Y133290D01*
X248600Y139764D02*
X251400D01*
X250000Y138364D02*
Y141164D01*
X154724Y155512D02*
X156299D01*
X155512Y154724D02*
Y156299D01*
X169291Y155512D02*
X170866D01*
X170079Y154724D02*
Y156299D01*
X159567Y151614D02*
X161142D01*
X160354Y150827D02*
Y152402D01*
X77756Y139567D02*
X79331D01*
X78543Y138779D02*
Y140354D01*
X113189Y139567D02*
X114764D01*
X113976Y138779D02*
Y140354D01*
X278543Y139567D02*
X280118D01*
X279331Y138779D02*
Y140354D01*
X313976Y139567D02*
X315551D01*
X314764Y138779D02*
Y140354D01*
X64173Y122047D02*
X65748D01*
X64961Y121260D02*
Y122835D01*
X64173Y106299D02*
X65748D01*
X64961Y105512D02*
Y107087D01*
X64173Y90551D02*
X65748D01*
X64961Y89764D02*
Y91339D01*
X327953Y122047D02*
X329528D01*
X328740Y121260D02*
Y122835D01*
X327953Y106299D02*
X329528D01*
X328740Y105512D02*
Y107087D01*
X327953Y90551D02*
X329528D01*
X328740Y89764D02*
Y91339D01*
X222835Y313779D02*
X224409D01*
X223622Y312992D02*
Y314567D01*
X188583Y304331D02*
X190157D01*
X189370Y303543D02*
Y305118D01*
X235433Y299213D02*
X237008D01*
X236221Y298425D02*
Y300000D01*
X174409Y287402D02*
X175984D01*
X175197Y286614D02*
Y288189D01*
X276946Y249213D02*
X279747D01*
X278346Y247813D02*
Y250613D01*
X207087Y295276D02*
X208661D01*
X207874Y294488D02*
Y296063D01*
X304331Y328740D02*
X305906D01*
X305118Y327953D02*
Y329528D01*
X304331Y334646D02*
X305906D01*
X305118Y333858D02*
Y335433D01*
X190157Y311024D02*
X191732D01*
X190945Y310236D02*
Y311811D01*
X194095Y312992D02*
X195669D01*
X194882Y312205D02*
Y313779D01*
X47813Y64961D02*
X50613D01*
X49213Y63561D02*
Y66361D01*
X67498Y55118D02*
X70298D01*
X68898Y53718D02*
Y56518D01*
X307655Y174016D02*
X310455D01*
X309055Y172616D02*
Y175416D01*
X313561Y167126D02*
X316361D01*
X314961Y165726D02*
Y168526D01*
X307655Y160236D02*
X310455D01*
X309055Y158836D02*
Y161636D01*
X319466Y160236D02*
X322266D01*
X320866Y158836D02*
Y161636D01*
X319466Y174016D02*
X322266D01*
X320866Y172616D02*
Y175416D01*
X272222Y174016D02*
X275022D01*
X273622Y172616D02*
Y175416D01*
X278128Y167126D02*
X280928D01*
X279528Y165726D02*
Y168526D01*
X272222Y160236D02*
X275022D01*
X273622Y158836D02*
Y161636D01*
X284033Y160236D02*
X286833D01*
X285433Y158836D02*
Y161636D01*
X284033Y174016D02*
X286833D01*
X285433Y172616D02*
Y175416D01*
X106868Y174016D02*
X109668D01*
X108268Y172616D02*
Y175416D01*
X112773Y167126D02*
X115573D01*
X114173Y165726D02*
Y168526D01*
X106868Y160236D02*
X109668D01*
X108268Y158836D02*
Y161636D01*
X118679Y160236D02*
X121479D01*
X120079Y158836D02*
Y161636D01*
X118679Y174016D02*
X121479D01*
X120079Y172616D02*
Y175416D01*
X71435Y174016D02*
X74235D01*
X72835Y172616D02*
Y175416D01*
X77340Y167126D02*
X80140D01*
X78740Y165726D02*
Y168526D01*
X71435Y160236D02*
X74235D01*
X72835Y158836D02*
Y161636D01*
X83246Y160236D02*
X86046D01*
X84646Y158836D02*
Y161636D01*
X83246Y174016D02*
X86046D01*
X84646Y172616D02*
Y175416D01*
X238757Y172244D02*
X241558D01*
X240158Y170844D02*
Y173644D01*
X238757Y186024D02*
X241558D01*
X240158Y184624D02*
Y187424D01*
X232852Y179134D02*
X235652D01*
X234252Y177734D02*
Y180534D01*
X221041Y179134D02*
X223841D01*
X222441Y177734D02*
Y180534D01*
X215135Y186024D02*
X217935D01*
X216535Y184624D02*
Y187424D01*
X215135Y172244D02*
X217935D01*
X216535Y170844D02*
Y173644D01*
X226946Y172244D02*
X229747D01*
X228346Y170844D02*
Y173644D01*
X226946Y186024D02*
X229747D01*
X228346Y184624D02*
Y187424D01*
X175765Y172244D02*
X178565D01*
X177165Y170844D02*
Y173644D01*
X175765Y186024D02*
X178565D01*
X177165Y184624D02*
Y187424D01*
X169860Y179134D02*
X172660D01*
X171260Y177734D02*
Y180534D01*
X158049Y179134D02*
X160849D01*
X159449Y177734D02*
Y180534D01*
X152143Y186024D02*
X154943D01*
X153543Y184624D02*
Y187424D01*
X152143Y172244D02*
X154943D01*
X153543Y170844D02*
Y173644D01*
X163954Y172244D02*
X166754D01*
X165354Y170844D02*
Y173644D01*
X163954Y186024D02*
X166754D01*
X165354Y184624D02*
Y187424D01*
X286002Y301181D02*
X288802D01*
X287402Y299781D02*
Y302581D01*
X211198Y257874D02*
X213998D01*
X212598Y256474D02*
Y259274D01*
X132458Y324803D02*
X135258D01*
X133858Y323403D02*
Y326203D01*
X132458Y293307D02*
X135258D01*
X133858Y291907D02*
Y294707D01*
M02*
