G04 Layer_Color=2752767*
%FSLAX25Y25*%
%MOIN*%
G70*
G01*
G75*
%ADD81C,0.00200*%
%ADD82C,0.00267*%
D81*
X181050Y238610D02*
Y240210D01*
X182650D01*
Y238610D01*
X181050D01*
X191050D02*
Y240210D01*
X192650D01*
Y238610D01*
X191050D01*
X181050Y228609D02*
Y230209D01*
X182650D01*
Y228609D01*
X181050D01*
Y218609D02*
Y220210D01*
X182650D01*
Y218609D01*
X181050D01*
Y208610D02*
Y210209D01*
X182650D01*
Y208610D01*
X181050D01*
X191050D02*
Y210209D01*
X192650D01*
Y208610D01*
X191050D01*
Y218609D02*
Y220210D01*
X192650D01*
Y218609D01*
X191050D01*
Y228609D02*
Y230209D01*
X192650D01*
Y228609D01*
X191050D01*
X201050D02*
Y230209D01*
X202650D01*
Y228609D01*
X201050D01*
Y218609D02*
Y220210D01*
X202650D01*
Y218609D01*
X201050D01*
Y208610D02*
Y210209D01*
X202650D01*
Y208610D01*
X201050D01*
Y238610D02*
Y240210D01*
X202650D01*
Y238610D01*
X201050D01*
X211050Y228609D02*
Y230209D01*
X212650D01*
Y228609D01*
X211050D01*
Y218609D02*
Y220210D01*
X212650D01*
Y218609D01*
X211050D01*
Y208610D02*
Y210209D01*
X212650D01*
Y208610D01*
X211050D01*
Y238610D02*
Y240210D01*
X212650D01*
Y238610D01*
X211050D01*
X233307Y326365D02*
X232507Y327965D01*
X234107D01*
X233307Y326365D01*
X253307D02*
X252507Y327965D01*
X254107D01*
X253307Y326365D01*
X243307D02*
X242507Y327965D01*
X244107D01*
X243307Y326365D01*
Y316365D02*
X242507Y317965D01*
X244107D01*
X243307Y316365D01*
X253307D02*
X252507Y317965D01*
X254107D01*
X253307Y316365D01*
X233307D02*
X232507Y317965D01*
X234107D01*
X233307Y316365D01*
X265900Y63885D02*
X266300Y64285D01*
X266700D01*
X266300Y64685D01*
X266700Y65085D01*
X266300D01*
X265900Y65485D01*
X265500Y65085D01*
X265100D01*
X265500Y64685D01*
X265100Y64285D01*
X265500D01*
X265900Y63885D01*
X127800D02*
X128200Y64285D01*
X128600D01*
X128200Y64685D01*
X128600Y65085D01*
X128200D01*
X127800Y65485D01*
X127400Y65085D01*
X127000D01*
X127400Y64685D01*
X127000Y64285D01*
X127400D01*
X127800Y63885D01*
X152256Y42885D02*
X152656Y43685D01*
X152256Y44485D01*
X153056Y44085D01*
X153856Y44485D01*
X153456Y43685D01*
X153856Y42885D01*
X153056Y43285D01*
X152256Y42885D01*
X204756D02*
X205156Y43685D01*
X204756Y44485D01*
X205556Y44085D01*
X206356Y44485D01*
X205956Y43685D01*
X206356Y42885D01*
X205556Y43285D01*
X204756Y42885D01*
X169756D02*
X170156Y43685D01*
X169756Y44485D01*
X170556Y44085D01*
X171356Y44485D01*
X170956Y43685D01*
X171356Y42885D01*
X170556Y43285D01*
X169756Y42885D01*
X187256D02*
X187656Y43685D01*
X187256Y44485D01*
X188056Y44085D01*
X188856Y44485D01*
X188456Y43685D01*
X188856Y42885D01*
X188056Y43285D01*
X187256Y42885D01*
Y67885D02*
X187656Y68685D01*
X187256Y69485D01*
X188056Y69085D01*
X188856Y69485D01*
X188456Y68685D01*
X188856Y67885D01*
X188056Y68285D01*
X187256Y67885D01*
X169756D02*
X170156Y68685D01*
X169756Y69485D01*
X170556Y69085D01*
X171356Y69485D01*
X170956Y68685D01*
X171356Y67885D01*
X170556Y68285D01*
X169756Y67885D01*
X204756D02*
X205156Y68685D01*
X204756Y69485D01*
X205556Y69085D01*
X206356Y69485D01*
X205956Y68685D01*
X206356Y67885D01*
X205556Y68285D01*
X204756Y67885D01*
X152256D02*
X152656Y68685D01*
X152256Y69485D01*
X153056Y69085D01*
X153856Y69485D01*
X153456Y68685D01*
X153856Y67885D01*
X153056Y68285D01*
X152256Y67885D01*
X196850Y18885D02*
X197250Y19285D01*
X197650D01*
X197250Y19685D01*
X197650Y20085D01*
X197250D01*
X196850Y20485D01*
X196450Y20085D01*
X196050D01*
X196450Y19685D01*
X196050Y19285D01*
X196450D01*
X196850Y18885D01*
X239756Y67885D02*
X240156Y68685D01*
X239756Y69485D01*
X240556Y69085D01*
X241356Y69485D01*
X240956Y68685D01*
X241356Y67885D01*
X240556Y68285D01*
X239756Y67885D01*
X222256D02*
X222656Y68685D01*
X222256Y69485D01*
X223056Y69085D01*
X223856Y69485D01*
X223456Y68685D01*
X223856Y67885D01*
X223056Y68285D01*
X222256Y67885D01*
Y42885D02*
X222656Y43685D01*
X222256Y44485D01*
X223056Y44085D01*
X223856Y44485D01*
X223456Y43685D01*
X223856Y42885D01*
X223056Y43285D01*
X222256Y42885D01*
X239756D02*
X240156Y43685D01*
X239756Y44485D01*
X240556Y44085D01*
X241356Y44485D01*
X240956Y43685D01*
X241356Y42885D01*
X240556Y43285D01*
X239756Y42885D01*
X314561Y166726D02*
Y166326D01*
X315361D01*
Y166726D01*
X315761D01*
Y167526D01*
X315361D01*
Y167926D01*
X314561D01*
Y167526D01*
X314161D01*
Y166726D01*
X314561D01*
X308655Y173616D02*
Y173216D01*
X309455D01*
Y173616D01*
X309855D01*
Y174416D01*
X309455D01*
Y174816D01*
X308655D01*
Y174416D01*
X308255D01*
Y173616D01*
X308655D01*
Y159836D02*
Y159436D01*
X309455D01*
Y159836D01*
X309855D01*
Y160636D01*
X309455D01*
Y161036D01*
X308655D01*
Y160636D01*
X308255D01*
Y159836D01*
X308655D01*
X320466D02*
Y159436D01*
X321266D01*
Y159836D01*
X321666D01*
Y160636D01*
X321266D01*
Y161036D01*
X320466D01*
Y160636D01*
X320066D01*
Y159836D01*
X320466D01*
Y173616D02*
Y173216D01*
X321266D01*
Y173616D01*
X321666D01*
Y174416D01*
X321266D01*
Y174816D01*
X320466D01*
Y174416D01*
X320066D01*
Y173616D01*
X320466D01*
X239757Y171844D02*
Y171444D01*
X240558D01*
Y171844D01*
X240957D01*
Y172644D01*
X240558D01*
Y173044D01*
X239757D01*
Y172644D01*
X239357D01*
Y171844D01*
X239757D01*
Y185624D02*
Y185224D01*
X240558D01*
Y185624D01*
X240957D01*
Y186424D01*
X240558D01*
Y186824D01*
X239757D01*
Y186424D01*
X239357D01*
Y185624D01*
X239757D01*
X233852Y178734D02*
Y178334D01*
X234652D01*
Y178734D01*
X235052D01*
Y179534D01*
X234652D01*
Y179934D01*
X233852D01*
Y179534D01*
X233452D01*
Y178734D01*
X233852D01*
X222041D02*
Y178334D01*
X222841D01*
Y178734D01*
X223241D01*
Y179534D01*
X222841D01*
Y179934D01*
X222041D01*
Y179534D01*
X221641D01*
Y178734D01*
X222041D01*
X216135Y185624D02*
Y185224D01*
X216935D01*
Y185624D01*
X217335D01*
Y186424D01*
X216935D01*
Y186824D01*
X216135D01*
Y186424D01*
X215735D01*
Y185624D01*
X216135D01*
Y171844D02*
Y171444D01*
X216935D01*
Y171844D01*
X217335D01*
Y172644D01*
X216935D01*
Y173044D01*
X216135D01*
Y172644D01*
X215735D01*
Y171844D01*
X216135D01*
X227946D02*
Y171444D01*
X228747D01*
Y171844D01*
X229147D01*
Y172644D01*
X228747D01*
Y173044D01*
X227946D01*
Y172644D01*
X227547D01*
Y171844D01*
X227946D01*
Y185624D02*
Y185224D01*
X228747D01*
Y185624D01*
X229147D01*
Y186424D01*
X228747D01*
Y186824D01*
X227946D01*
Y186424D01*
X227547D01*
Y185624D01*
X227946D01*
X364161Y314161D02*
X364561D01*
X364961Y314561D01*
X365361Y314161D01*
X365761D01*
Y314561D01*
X365361Y314961D01*
X365761Y315361D01*
Y315761D01*
X365361D01*
X364961Y315361D01*
X364561Y315761D01*
X364161D01*
Y315361D01*
X364561Y314961D01*
X364161Y314561D01*
Y314161D01*
X353531Y303531D02*
X353931D01*
X354331Y303931D01*
X354731Y303531D01*
X355131D01*
Y303931D01*
X354731Y304331D01*
X355131Y304731D01*
Y305131D01*
X354731D01*
X354331Y304731D01*
X353931Y305131D01*
X353531D01*
Y304731D01*
X353931Y304331D01*
X353531Y303931D01*
Y303531D01*
Y324791D02*
X353931D01*
X354331Y325190D01*
X354731Y324791D01*
X355131D01*
Y325190D01*
X354731Y325590D01*
X355131Y325991D01*
Y326391D01*
X354731D01*
X354331Y325991D01*
X353931Y326391D01*
X353531D01*
Y325991D01*
X353931Y325590D01*
X353531Y325190D01*
Y324791D01*
X342901Y314161D02*
X343301D01*
X343701Y314561D01*
X344101Y314161D01*
X344501D01*
Y314561D01*
X344101Y314961D01*
X344501Y315361D01*
Y315761D01*
X344101D01*
X343701Y315361D01*
X343301Y315761D01*
X342901D01*
Y315361D01*
X343301Y314961D01*
X342901Y314561D01*
Y314161D01*
X346050Y321641D02*
X346450D01*
X346850Y322041D01*
X347250Y321641D01*
X347650D01*
Y322041D01*
X347250Y322441D01*
X347650Y322841D01*
Y323241D01*
X347250D01*
X346850Y322841D01*
X346450Y323241D01*
X346050D01*
Y322841D01*
X346450Y322441D01*
X346050Y322041D01*
Y321641D01*
Y306680D02*
X346450D01*
X346850Y307080D01*
X347250Y306680D01*
X347650D01*
Y307080D01*
X347250Y307480D01*
X347650Y307880D01*
Y308280D01*
X347250D01*
X346850Y307880D01*
X346450Y308280D01*
X346050D01*
Y307880D01*
X346450Y307480D01*
X346050Y307080D01*
Y306680D01*
X361011D02*
X361411D01*
X361811Y307080D01*
X362211Y306680D01*
X362611D01*
Y307080D01*
X362211Y307480D01*
X362611Y307880D01*
Y308280D01*
X362211D01*
X361811Y307880D01*
X361411Y308280D01*
X361011D01*
Y307880D01*
X361411Y307480D01*
X361011Y307080D01*
Y306680D01*
Y321641D02*
X361411D01*
X361811Y322041D01*
X362211Y321641D01*
X362611D01*
Y322041D01*
X362211Y322441D01*
X362611Y322841D01*
Y323241D01*
X362211D01*
X361811Y322841D01*
X361411Y323241D01*
X361011D01*
Y322841D01*
X361411Y322441D01*
X361011Y322041D01*
Y321641D01*
X176765Y171844D02*
Y171444D01*
X177565D01*
Y171844D01*
X177965D01*
Y172644D01*
X177565D01*
Y173044D01*
X176765D01*
Y172644D01*
X176365D01*
Y171844D01*
X176765D01*
Y185624D02*
Y185224D01*
X177565D01*
Y185624D01*
X177965D01*
Y186424D01*
X177565D01*
Y186824D01*
X176765D01*
Y186424D01*
X176365D01*
Y185624D01*
X176765D01*
X170860Y178734D02*
Y178334D01*
X171660D01*
Y178734D01*
X172060D01*
Y179534D01*
X171660D01*
Y179934D01*
X170860D01*
Y179534D01*
X170460D01*
Y178734D01*
X170860D01*
X159049D02*
Y178334D01*
X159849D01*
Y178734D01*
X160249D01*
Y179534D01*
X159849D01*
Y179934D01*
X159049D01*
Y179534D01*
X158649D01*
Y178734D01*
X159049D01*
X153143Y185624D02*
Y185224D01*
X153943D01*
Y185624D01*
X154343D01*
Y186424D01*
X153943D01*
Y186824D01*
X153143D01*
Y186424D01*
X152743D01*
Y185624D01*
X153143D01*
Y171844D02*
Y171444D01*
X153943D01*
Y171844D01*
X154343D01*
Y172644D01*
X153943D01*
Y173044D01*
X153143D01*
Y172644D01*
X152743D01*
Y171844D01*
X153143D01*
X164954D02*
Y171444D01*
X165754D01*
Y171844D01*
X166154D01*
Y172644D01*
X165754D01*
Y173044D01*
X164954D01*
Y172644D01*
X164554D01*
Y171844D01*
X164954D01*
Y185624D02*
Y185224D01*
X165754D01*
Y185624D01*
X166154D01*
Y186424D01*
X165754D01*
Y186824D01*
X164954D01*
Y186424D01*
X164554D01*
Y185624D01*
X164954D01*
X84246Y173616D02*
Y173216D01*
X85046D01*
Y173616D01*
X85446D01*
Y174416D01*
X85046D01*
Y174816D01*
X84246D01*
Y174416D01*
X83846D01*
Y173616D01*
X84246D01*
Y159836D02*
Y159436D01*
X85046D01*
Y159836D01*
X85446D01*
Y160636D01*
X85046D01*
Y161036D01*
X84246D01*
Y160636D01*
X83846D01*
Y159836D01*
X84246D01*
X72435D02*
Y159436D01*
X73235D01*
Y159836D01*
X73635D01*
Y160636D01*
X73235D01*
Y161036D01*
X72435D01*
Y160636D01*
X72035D01*
Y159836D01*
X72435D01*
Y173616D02*
Y173216D01*
X73235D01*
Y173616D01*
X73635D01*
Y174416D01*
X73235D01*
Y174816D01*
X72435D01*
Y174416D01*
X72035D01*
Y173616D01*
X72435D01*
X78340Y166726D02*
Y166326D01*
X79140D01*
Y166726D01*
X79540D01*
Y167526D01*
X79140D01*
Y167926D01*
X78340D01*
Y167526D01*
X77940D01*
Y166726D01*
X78340D01*
X113773Y166726D02*
Y166326D01*
X114573D01*
Y166726D01*
X114973D01*
Y167526D01*
X114573D01*
Y167926D01*
X113773D01*
Y167526D01*
X113373D01*
Y166726D01*
X113773D01*
X107868Y173616D02*
Y173216D01*
X108668D01*
Y173616D01*
X109068D01*
Y174416D01*
X108668D01*
Y174816D01*
X107868D01*
Y174416D01*
X107468D01*
Y173616D01*
X107868D01*
Y159836D02*
Y159436D01*
X108668D01*
Y159836D01*
X109068D01*
Y160636D01*
X108668D01*
Y161036D01*
X107868D01*
Y160636D01*
X107468D01*
Y159836D01*
X107868D01*
X119679D02*
Y159436D01*
X120479D01*
Y159836D01*
X120879D01*
Y160636D01*
X120479D01*
Y161036D01*
X119679D01*
Y160636D01*
X119279D01*
Y159836D01*
X119679D01*
Y173616D02*
Y173216D01*
X120479D01*
Y173616D01*
X120879D01*
Y174416D01*
X120479D01*
Y174816D01*
X119679D01*
Y174416D01*
X119279D01*
Y173616D01*
X119679D01*
X285033D02*
Y173216D01*
X285833D01*
Y173616D01*
X286233D01*
Y174416D01*
X285833D01*
Y174816D01*
X285033D01*
Y174416D01*
X284633D01*
Y173616D01*
X285033D01*
Y159836D02*
Y159436D01*
X285833D01*
Y159836D01*
X286233D01*
Y160636D01*
X285833D01*
Y161036D01*
X285033D01*
Y160636D01*
X284633D01*
Y159836D01*
X285033D01*
X273222D02*
Y159436D01*
X274022D01*
Y159836D01*
X274422D01*
Y160636D01*
X274022D01*
Y161036D01*
X273222D01*
Y160636D01*
X272822D01*
Y159836D01*
X273222D01*
Y173616D02*
Y173216D01*
X274022D01*
Y173616D01*
X274422D01*
Y174416D01*
X274022D01*
Y174816D01*
X273222D01*
Y174416D01*
X272822D01*
Y173616D01*
X273222D01*
X279128Y166726D02*
Y166326D01*
X279928D01*
Y166726D01*
X280328D01*
Y167526D01*
X279928D01*
Y167926D01*
X279128D01*
Y167526D01*
X278728D01*
Y166726D01*
X279128D01*
X49200Y314161D02*
X49600D01*
X50000Y314561D01*
X50400Y314161D01*
X50800D01*
Y314561D01*
X50400Y314961D01*
X50800Y315361D01*
Y315761D01*
X50400D01*
X50000Y315361D01*
X49600Y315761D01*
X49200D01*
Y315361D01*
X49600Y314961D01*
X49200Y314561D01*
Y314161D01*
X38570Y303531D02*
X38970D01*
X39370Y303931D01*
X39770Y303531D01*
X40170D01*
Y303931D01*
X39770Y304331D01*
X40170Y304731D01*
Y305131D01*
X39770D01*
X39370Y304731D01*
X38970Y305131D01*
X38570D01*
Y304731D01*
X38970Y304331D01*
X38570Y303931D01*
Y303531D01*
Y324791D02*
X38970D01*
X39370Y325190D01*
X39770Y324791D01*
X40170D01*
Y325190D01*
X39770Y325590D01*
X40170Y325991D01*
Y326391D01*
X39770D01*
X39370Y325991D01*
X38970Y326391D01*
X38570D01*
Y325991D01*
X38970Y325590D01*
X38570Y325190D01*
Y324791D01*
X27940Y314161D02*
X28340D01*
X28740Y314561D01*
X29140Y314161D01*
X29540D01*
Y314561D01*
X29140Y314961D01*
X29540Y315361D01*
Y315761D01*
X29140D01*
X28740Y315361D01*
X28340Y315761D01*
X27940D01*
Y315361D01*
X28340Y314961D01*
X27940Y314561D01*
Y314161D01*
X31090Y321641D02*
X31490D01*
X31890Y322041D01*
X32290Y321641D01*
X32690D01*
Y322041D01*
X32290Y322441D01*
X32690Y322841D01*
Y323241D01*
X32290D01*
X31890Y322841D01*
X31490Y323241D01*
X31090D01*
Y322841D01*
X31490Y322441D01*
X31090Y322041D01*
Y321641D01*
Y306680D02*
X31490D01*
X31890Y307080D01*
X32290Y306680D01*
X32690D01*
Y307080D01*
X32290Y307480D01*
X32690Y307880D01*
Y308280D01*
X32290D01*
X31890Y307880D01*
X31490Y308280D01*
X31090D01*
Y307880D01*
X31490Y307480D01*
X31090Y307080D01*
Y306680D01*
X46050D02*
X46450D01*
X46850Y307080D01*
X47250Y306680D01*
X47650D01*
Y307080D01*
X47250Y307480D01*
X47650Y307880D01*
Y308280D01*
X47250D01*
X46850Y307880D01*
X46450Y308280D01*
X46050D01*
Y307880D01*
X46450Y307480D01*
X46050Y307080D01*
Y306680D01*
Y321641D02*
X46450D01*
X46850Y322041D01*
X47250Y321641D01*
X47650D01*
Y322041D01*
X47250Y322441D01*
X47650Y322841D01*
Y323241D01*
X47250D01*
X46850Y322841D01*
X46450Y323241D01*
X46050D01*
Y322841D01*
X46450Y322441D01*
X46050Y322041D01*
Y321641D01*
X49200Y38570D02*
X49600D01*
X50000Y38970D01*
X50400Y38570D01*
X50800D01*
Y38970D01*
X50400Y39370D01*
X50800Y39770D01*
Y40170D01*
X50400D01*
X50000Y39770D01*
X49600Y40170D01*
X49200D01*
Y39770D01*
X49600Y39370D01*
X49200Y38970D01*
Y38570D01*
X38570Y27940D02*
X38970D01*
X39370Y28340D01*
X39770Y27940D01*
X40170D01*
Y28340D01*
X39770Y28740D01*
X40170Y29140D01*
Y29540D01*
X39770D01*
X39370Y29140D01*
X38970Y29540D01*
X38570D01*
Y29140D01*
X38970Y28740D01*
X38570Y28340D01*
Y27940D01*
Y49200D02*
X38970D01*
X39370Y49600D01*
X39770Y49200D01*
X40170D01*
Y49600D01*
X39770Y50000D01*
X40170Y50400D01*
Y50800D01*
X39770D01*
X39370Y50400D01*
X38970Y50800D01*
X38570D01*
Y50400D01*
X38970Y50000D01*
X38570Y49600D01*
Y49200D01*
X27940Y38570D02*
X28340D01*
X28740Y38970D01*
X29140Y38570D01*
X29540D01*
Y38970D01*
X29140Y39370D01*
X29540Y39770D01*
Y40170D01*
X29140D01*
X28740Y39770D01*
X28340Y40170D01*
X27940D01*
Y39770D01*
X28340Y39370D01*
X27940Y38970D01*
Y38570D01*
X31090Y46050D02*
X31490D01*
X31890Y46450D01*
X32290Y46050D01*
X32690D01*
Y46450D01*
X32290Y46850D01*
X32690Y47250D01*
Y47650D01*
X32290D01*
X31890Y47250D01*
X31490Y47650D01*
X31090D01*
Y47250D01*
X31490Y46850D01*
X31090Y46450D01*
Y46050D01*
Y31090D02*
X31490D01*
X31890Y31490D01*
X32290Y31090D01*
X32690D01*
Y31490D01*
X32290Y31890D01*
X32690Y32290D01*
Y32690D01*
X32290D01*
X31890Y32290D01*
X31490Y32690D01*
X31090D01*
Y32290D01*
X31490Y31890D01*
X31090Y31490D01*
Y31090D01*
X46050D02*
X46450D01*
X46850Y31490D01*
X47250Y31090D01*
X47650D01*
Y31490D01*
X47250Y31890D01*
X47650Y32290D01*
Y32690D01*
X47250D01*
X46850Y32290D01*
X46450Y32690D01*
X46050D01*
Y32290D01*
X46450Y31890D01*
X46050Y31490D01*
Y31090D01*
Y46050D02*
X46450D01*
X46850Y46450D01*
X47250Y46050D01*
X47650D01*
Y46450D01*
X47250Y46850D01*
X47650Y47250D01*
Y47650D01*
X47250D01*
X46850Y47250D01*
X46450Y47650D01*
X46050D01*
Y47250D01*
X46450Y46850D01*
X46050Y46450D01*
Y46050D01*
X364161Y38570D02*
X364561D01*
X364961Y38970D01*
X365361Y38570D01*
X365761D01*
Y38970D01*
X365361Y39370D01*
X365761Y39770D01*
Y40170D01*
X365361D01*
X364961Y39770D01*
X364561Y40170D01*
X364161D01*
Y39770D01*
X364561Y39370D01*
X364161Y38970D01*
Y38570D01*
X353531Y27940D02*
X353931D01*
X354331Y28340D01*
X354731Y27940D01*
X355131D01*
Y28340D01*
X354731Y28740D01*
X355131Y29140D01*
Y29540D01*
X354731D01*
X354331Y29140D01*
X353931Y29540D01*
X353531D01*
Y29140D01*
X353931Y28740D01*
X353531Y28340D01*
Y27940D01*
Y49200D02*
X353931D01*
X354331Y49600D01*
X354731Y49200D01*
X355131D01*
Y49600D01*
X354731Y50000D01*
X355131Y50400D01*
Y50800D01*
X354731D01*
X354331Y50400D01*
X353931Y50800D01*
X353531D01*
Y50400D01*
X353931Y50000D01*
X353531Y49600D01*
Y49200D01*
X342901Y38570D02*
X343301D01*
X343701Y38970D01*
X344101Y38570D01*
X344501D01*
Y38970D01*
X344101Y39370D01*
X344501Y39770D01*
Y40170D01*
X344101D01*
X343701Y39770D01*
X343301Y40170D01*
X342901D01*
Y39770D01*
X343301Y39370D01*
X342901Y38970D01*
Y38570D01*
X346050Y46050D02*
X346450D01*
X346850Y46450D01*
X347250Y46050D01*
X347650D01*
Y46450D01*
X347250Y46850D01*
X347650Y47250D01*
Y47650D01*
X347250D01*
X346850Y47250D01*
X346450Y47650D01*
X346050D01*
Y47250D01*
X346450Y46850D01*
X346050Y46450D01*
Y46050D01*
Y31090D02*
X346450D01*
X346850Y31490D01*
X347250Y31090D01*
X347650D01*
Y31490D01*
X347250Y31890D01*
X347650Y32290D01*
Y32690D01*
X347250D01*
X346850Y32290D01*
X346450Y32690D01*
X346050D01*
Y32290D01*
X346450Y31890D01*
X346050Y31490D01*
Y31090D01*
X361011D02*
X361411D01*
X361811Y31490D01*
X362211Y31090D01*
X362611D01*
Y31490D01*
X362211Y31890D01*
X362611Y32290D01*
Y32690D01*
X362211D01*
X361811Y32290D01*
X361411Y32690D01*
X361011D01*
Y32290D01*
X361411Y31890D01*
X361011Y31490D01*
Y31090D01*
Y46050D02*
X361411D01*
X361811Y46450D01*
X362211Y46050D01*
X362611D01*
Y46450D01*
X362211Y46850D01*
X362611Y47250D01*
Y47650D01*
X362211D01*
X361811Y47250D01*
X361411Y47650D01*
X361011D01*
Y47250D01*
X361411Y46850D01*
X361011Y46450D01*
Y46050D01*
X68498Y54718D02*
Y54318D01*
X69298D01*
Y54718D01*
X69698D01*
Y55518D01*
X69298D01*
Y55918D01*
X68498D01*
Y55518D01*
X68098D01*
Y54718D01*
X68498D01*
X48813Y64561D02*
Y64161D01*
X49613D01*
Y64561D01*
X50013D01*
Y65361D01*
X49613D01*
Y65761D01*
X48813D01*
Y65361D01*
X48413D01*
Y64561D01*
X48813D01*
X164161Y314567D02*
X164961Y315367D01*
X165761Y314567D01*
X164961Y313767D01*
X164161Y314567D01*
X175972Y301181D02*
X176772Y301981D01*
X177572Y301181D01*
X176772Y300381D01*
X175972Y301181D01*
X137395Y326372D02*
Y325972D01*
X138195D01*
Y326372D01*
X138595D01*
Y327172D01*
X138195D01*
Y327572D01*
X137395D01*
Y327172D01*
X136995D01*
Y326372D01*
X137395D01*
X194082Y312992D02*
X194882Y313792D01*
X195682Y312992D01*
X194882Y312192D01*
X194082Y312992D01*
X190145Y311024D02*
X190945Y311824D01*
X191745Y311024D01*
X190945Y310224D01*
X190145Y311024D01*
X304318Y334646D02*
X305118Y335446D01*
X305918Y334646D01*
X305118Y333846D01*
X304318Y334646D01*
Y328740D02*
X305118Y329540D01*
X305918Y328740D01*
X305118Y327940D01*
X304318Y328740D01*
X207074Y295276D02*
X207874Y296076D01*
X208674Y295276D01*
X207874Y294476D01*
X207074Y295276D01*
X172428Y298031D02*
X173228Y298832D01*
X174028Y298031D01*
X173228Y297232D01*
X172428Y298031D01*
X175972Y294882D02*
X176772Y295682D01*
X177572Y294882D01*
X176772Y294082D01*
X175972Y294882D01*
X148413Y314567D02*
X149213Y315367D01*
X150013Y314567D01*
X149213Y313767D01*
X148413Y314567D01*
X156287D02*
X157087Y315367D01*
X157887Y314567D01*
X157087Y313767D01*
X156287Y314567D01*
X277946Y248813D02*
Y248413D01*
X278747D01*
Y248813D01*
X279147D01*
Y249613D01*
X278747D01*
Y250013D01*
X277946D01*
Y249613D01*
X277547D01*
Y248813D01*
X277946D01*
X203531Y312992D02*
X204331Y313792D01*
X205131Y312992D01*
X204331Y312192D01*
X203531Y312992D01*
X174397Y287402D02*
X175197Y288202D01*
X175997Y287402D01*
X175197Y286602D01*
X174397Y287402D01*
Y307087D02*
X175197Y307887D01*
X175997Y307087D01*
X175197Y306287D01*
X174397Y307087D01*
X235420Y299213D02*
X236221Y300013D01*
X237020Y299213D01*
X236221Y298413D01*
X235420Y299213D01*
X188570Y304331D02*
X189370Y305131D01*
X190170Y304331D01*
X189370Y303531D01*
X188570Y304331D01*
X222822Y313779D02*
X223622Y314580D01*
X224422Y313779D01*
X223622Y312980D01*
X222822Y313779D01*
X327940Y90551D02*
X328740Y91351D01*
X329540Y90551D01*
X328740Y89751D01*
X327940Y90551D01*
Y106299D02*
X328740Y107099D01*
X329540Y106299D01*
X328740Y105499D01*
X327940Y106299D01*
Y122047D02*
X328740Y122847D01*
X329540Y122047D01*
X328740Y121247D01*
X327940Y122047D01*
X64161Y90551D02*
X64961Y91351D01*
X65761Y90551D01*
X64961Y89751D01*
X64161Y90551D01*
X64161Y106299D02*
X64961Y107099D01*
X65761Y106299D01*
X64961Y105499D01*
X64161Y106299D01*
X64161Y122047D02*
X64961Y122847D01*
X65761Y122047D01*
X64961Y121247D01*
X64161Y122047D01*
X313964Y139567D02*
X314764Y140367D01*
X315564Y139567D01*
X314764Y138767D01*
X313964Y139567D01*
X278531D02*
X279331Y140367D01*
X280131Y139567D01*
X279331Y138767D01*
X278531Y139567D01*
X113176D02*
X113976Y140367D01*
X114776Y139567D01*
X113976Y138767D01*
X113176Y139567D01*
X77743Y139567D02*
X78543Y140367D01*
X79343Y139567D01*
X78543Y138767D01*
X77743Y139567D01*
X159554Y151614D02*
X160354Y152414D01*
X161154Y151614D01*
X160354Y150814D01*
X159554Y151614D01*
X169279Y155512D02*
X170079Y156312D01*
X170879Y155512D01*
X170079Y154712D01*
X169279Y155512D01*
X154712D02*
X155512Y156312D01*
X156312Y155512D01*
X155512Y154712D01*
X154712Y155512D01*
X249600Y139364D02*
Y138964D01*
X250400D01*
Y139364D01*
X250800D01*
Y140164D01*
X250400D01*
Y140564D01*
X249600D01*
Y140164D01*
X249200D01*
Y139364D01*
X249600D01*
Y131490D02*
Y131090D01*
X250400D01*
Y131490D01*
X250800D01*
Y132290D01*
X250400D01*
Y132690D01*
X249600D01*
Y132290D01*
X249200D01*
Y131490D01*
X249600D01*
X239757Y129521D02*
Y129121D01*
X240558D01*
Y129521D01*
X240957D01*
Y130321D01*
X240558D01*
Y130721D01*
X239757D01*
Y130321D01*
X239357D01*
Y129521D01*
X239757D01*
X216135D02*
Y129121D01*
X216935D01*
Y129521D01*
X217335D01*
Y130321D01*
X216935D01*
Y130721D01*
X216135D01*
Y130321D01*
X215735D01*
Y129521D01*
X216135D01*
X206293Y139364D02*
Y138964D01*
X207093D01*
Y139364D01*
X207493D01*
Y140164D01*
X207093D01*
Y140564D01*
X206293D01*
Y140164D01*
X205893D01*
Y139364D01*
X206293D01*
Y131490D02*
Y131090D01*
X207093D01*
Y131490D01*
X207493D01*
Y132290D01*
X207093D01*
Y132690D01*
X206293D01*
Y132290D01*
X205893D01*
Y131490D01*
X206293D01*
X186608D02*
Y131090D01*
X187408D01*
Y131490D01*
X187808D01*
Y132290D01*
X187408D01*
Y132690D01*
X186608D01*
Y132290D01*
X186208D01*
Y131490D01*
X186608D01*
Y139364D02*
Y138964D01*
X187408D01*
Y139364D01*
X187808D01*
Y140164D01*
X187408D01*
Y140564D01*
X186608D01*
Y140164D01*
X186208D01*
Y139364D01*
X186608D01*
X176765Y129521D02*
Y129121D01*
X177565D01*
Y129521D01*
X177965D01*
Y130321D01*
X177565D01*
Y130721D01*
X176765D01*
Y130321D01*
X176365D01*
Y129521D01*
X176765D01*
X153143D02*
Y129121D01*
X153943D01*
Y129521D01*
X154343D01*
Y130321D01*
X153943D01*
Y130721D01*
X153143D01*
Y130321D01*
X152743D01*
Y129521D01*
X153143D01*
X143301Y131490D02*
Y131090D01*
X144101D01*
Y131490D01*
X144501D01*
Y132290D01*
X144101D01*
Y132690D01*
X143301D01*
Y132290D01*
X142901D01*
Y131490D01*
X143301D01*
Y139364D02*
Y138964D01*
X144101D01*
Y139364D01*
X144501D01*
Y140164D01*
X144101D01*
Y140564D01*
X143301D01*
Y140164D01*
X142901D01*
Y139364D01*
X143301D01*
X355499Y153543D02*
X356299Y154343D01*
X357099Y153543D01*
X356299Y152743D01*
X355499Y153543D01*
X347625D02*
X348425Y154343D01*
X349225Y153543D01*
X348425Y152743D01*
X347625Y153543D01*
X339751D02*
X340551Y154343D01*
X341351Y153543D01*
X340551Y152743D01*
X339751Y153543D01*
X232665Y155512D02*
X233465Y156312D01*
X234265Y155512D01*
X233465Y154712D01*
X232665Y155512D01*
X222547Y151614D02*
X223346Y152414D01*
X224147Y151614D01*
X223346Y150814D01*
X222547Y151614D01*
X36602Y153543D02*
X37402Y154343D01*
X38202Y153543D01*
X37402Y152743D01*
X36602Y153543D01*
X44476D02*
X45276Y154343D01*
X46076Y153543D01*
X45276Y152743D01*
X44476Y153543D01*
X52350D02*
X53150Y154343D01*
X53950Y153543D01*
X53150Y152743D01*
X52350Y153543D01*
X138576Y110624D02*
Y110224D01*
X139376D01*
Y110624D01*
X139776D01*
Y111424D01*
X139376D01*
Y111824D01*
X138576D01*
Y111424D01*
X138176D01*
Y110624D01*
X138576D01*
X132277Y128340D02*
Y127940D01*
X133077D01*
Y128340D01*
X133477D01*
Y129140D01*
X133077D01*
Y129540D01*
X132277D01*
Y129140D01*
X131877D01*
Y128340D01*
X132277D01*
X260624D02*
Y127940D01*
X261424D01*
Y128340D01*
X261824D01*
Y129140D01*
X261424D01*
Y129540D01*
X260624D01*
Y129140D01*
X260224D01*
Y128340D01*
X260624D01*
X254324Y110624D02*
Y110224D01*
X255124D01*
Y110624D01*
X255524D01*
Y111424D01*
X255124D01*
Y111824D01*
X254324D01*
Y111424D01*
X253924D01*
Y110624D01*
X254324D01*
X170860Y265348D02*
Y264948D01*
X171660D01*
Y265348D01*
X172060D01*
Y266148D01*
X171660D01*
Y266548D01*
X170860D01*
Y266148D01*
X170460D01*
Y265348D01*
X170860D01*
D82*
X355131Y314961D02*
G03*
X355131Y314961I-800J0D01*
G01*
X40170D02*
G03*
X40170Y314961I-800J0D01*
G01*
Y39370D02*
G03*
X40170Y39370I-800J0D01*
G01*
X355131D02*
G03*
X355131Y39370I-800J0D01*
G01*
M02*
