M48
;Layer_Color=9474304
;FILE_FORMAT=2:5
INCH,LZ
;TYPE=PLATED
T1F00S00C0.01300
T2F00S00C0.02362
T3F00S00C0.02800
T4F00S00C0.03150
T5F00S00C0.03543
T6F00S00C0.06299
T7F00S00C0.07087
T8F00S00C0.13780
;TYPE=NON_PLATED
T9F00S00C0.11417
%
T01
X0279528Y003937
X0285433
X0291339
X028937Y0057087
X0285433Y0062992
X028937Y0070866
X0295276Y0066929
X0301181Y0090551
X0305118Y0045276
X0242126Y0051181
X0232283Y005315
X0184055Y0034449
T02
X0327165Y0012205
X0334646Y0009055
X0342126Y0012205
X0345276Y0019685
X0342126Y0027165
X0334646Y0030315
X0327165Y0027165
X0324016Y0019685
X0030315
X0027165Y0027165
X0019685Y0030315
X0012205Y0027165
X0009055Y0019685
X0012205Y0012205
X0019685Y0009055
X0027165Y0012205
X0059055Y0255906
X007874
X0098425
X011811
X0137795
X0147638Y0236221
X0127953
X0206693
X0226378
X0236221Y0255906
X0255906
X0216535
X0275591
X0295276
X0285433Y0275591
X0295276Y0295276
X0275591
X0324016Y0295276
X0327165Y0287795
X0334646Y0284646
X0342126Y0287795
X0345276Y0295276
X0342126Y0302756
X0334646Y0305906
X0327165Y0302756
X0255906Y0295276
X0236221
X0216535
X0226378Y0275591
X0246063
X0265748
X0206693
X0147638
X0127953
X0137795Y0295276
X011811
X0098425
X007874
X0059055
X0030315Y0295276
X0027165Y0287795
X0019685Y0284646
X0012205Y0287795
X0009055Y0295276
X0012205Y0302756
X0019685Y0305906
X0027165Y0302756
X0068898Y0275591
X0088583
X0108268
T03
X0314961Y0070866
X0208661Y0101378
X0102362Y0215551
X0090551
X007874
X0084646Y0222441
X0096457
X0090551Y0229331
X007874
X0102362
X0059055Y0173228
X0145866
Y0161417
X0169291Y0147638
X0177165
X0185039
X0216535Y0135827
X023248Y0161417
Y0173228
X0255906Y0147638
X0263779
X0271654
X0263779Y0215551
X0251969
X0257874Y0222441
X0269685
X0263779Y0229331
X0251969
X0188976
X0177165
X0165354
X017126Y0222441
X0183071
X0188976Y0215551
X0177165
X0165354
X0207677Y0202756
X027559Y0215551
Y0229331
X0299213Y0181102
T04
X0072441Y0114961
X0100787
X0107874Y0129134
X0093701
X0079528
X0072441Y0143307
X0086614
X0100787
X0107874Y015748
X0093701
X0079528
X0086614Y0171654
X0100787
T05
X0035433Y0054134
X0045433
X0055433
Y0064134
X0045433
X0035433
T06
X002437Y0118858
X003437
X004437
X005437
Y0128858
Y0138858
Y0148858
X004437
Y0138858
Y0128858
X003437
Y0138858
X002437
Y0128858
Y0148858
X003437
X0162165Y024878
X0172165
X0182165
X0192165
Y025878
Y0268779
X0182165
Y025878
X0172165
Y0268779
X0162165
Y025878
Y027878
X0172165
X0182165
X0192165
T07
X0148917Y0043701
X0166417
X0187913
X0205413
Y0068701
X0187913
X0166417
X0148917
T08
X0334646Y0019685
X0019685
X0334646Y0295276
X0019685
T09
X0123661Y0064685
X0177165Y0019685
X0230669Y0064685
M30
