G04 Layer_Color=128*
%FSLAX25Y25*%
%MOIN*%
G70*
G01*
G75*
%ADD75C,0.00200*%
D75*
X224961Y64685D02*
X236378D01*
X230669Y58976D02*
Y70394D01*
X117953Y64685D02*
X129370D01*
X123661Y58976D02*
Y70394D01*
X145374Y43701D02*
X152461D01*
X148917Y40157D02*
Y47244D01*
X201870Y43701D02*
X208957D01*
X205413Y40157D02*
Y47244D01*
X162874Y43701D02*
X169961D01*
X166417Y40157D02*
Y47244D01*
X184370Y43701D02*
X191457D01*
X187913Y40157D02*
Y47244D01*
X184370Y68701D02*
X191457D01*
X187913Y65158D02*
Y72244D01*
X162874Y68701D02*
X169961D01*
X166417Y65158D02*
Y72244D01*
X201870Y68701D02*
X208957D01*
X205413Y65158D02*
Y72244D01*
X145374Y68701D02*
X152461D01*
X148917Y65158D02*
Y72244D01*
X171457Y19685D02*
X182874D01*
X177165Y13976D02*
Y25394D01*
X51221Y148858D02*
X57520D01*
X54370Y145709D02*
Y152008D01*
X51221Y118858D02*
X57520D01*
X54370Y115709D02*
Y122008D01*
X51221Y128858D02*
X57520D01*
X54370Y125709D02*
Y132008D01*
X51221Y138858D02*
X57520D01*
X54370Y135709D02*
Y142008D01*
X41221Y148858D02*
X47520D01*
X44370Y145709D02*
Y152008D01*
X41221Y118858D02*
X47520D01*
X44370Y115709D02*
Y122008D01*
X41221Y128858D02*
X47520D01*
X44370Y125709D02*
Y132008D01*
X41221Y138858D02*
X47520D01*
X44370Y135709D02*
Y142008D01*
X31220Y138858D02*
X37520D01*
X34370Y135709D02*
Y142008D01*
X31220Y128858D02*
X37520D01*
X34370Y125709D02*
Y132008D01*
X31220Y118858D02*
X37520D01*
X34370Y115709D02*
Y122008D01*
X21220Y118858D02*
X27520D01*
X24370Y115709D02*
Y122008D01*
X21220Y128858D02*
X27520D01*
X24370Y125709D02*
Y132008D01*
X21220Y138858D02*
X27520D01*
X24370Y135709D02*
Y142008D01*
X31220Y148858D02*
X37520D01*
X34370Y145709D02*
Y152008D01*
X21220Y148858D02*
X27520D01*
X24370Y145709D02*
Y152008D01*
X189016Y278780D02*
X195315D01*
X192165Y275630D02*
Y281929D01*
X189016Y248780D02*
X195315D01*
X192165Y245630D02*
Y251929D01*
X189016Y258780D02*
X195315D01*
X192165Y255630D02*
Y261929D01*
X189016Y268779D02*
X195315D01*
X192165Y265630D02*
Y271929D01*
X179016Y278780D02*
X185315D01*
X182165Y275630D02*
Y281929D01*
X179016Y248780D02*
X185315D01*
X182165Y245630D02*
Y251929D01*
X179016Y258780D02*
X185315D01*
X182165Y255630D02*
Y261929D01*
X179016Y268779D02*
X185315D01*
X182165Y265630D02*
Y271929D01*
X169016Y268779D02*
X175315D01*
X172165Y265630D02*
Y271929D01*
X169016Y258780D02*
X175315D01*
X172165Y255630D02*
Y261929D01*
X169016Y248780D02*
X175315D01*
X172165Y245630D02*
Y251929D01*
X159016Y248780D02*
X165315D01*
X162165Y245630D02*
Y251929D01*
X159016Y258780D02*
X165315D01*
X162165Y255630D02*
Y261929D01*
X159016Y268779D02*
X165315D01*
X162165Y265630D02*
Y271929D01*
X169016Y278780D02*
X175315D01*
X172165Y275630D02*
Y281929D01*
X159016Y278780D02*
X165315D01*
X162165Y275630D02*
Y281929D01*
X12795Y295276D02*
X26575D01*
X19685Y288386D02*
Y302165D01*
X327756Y295276D02*
X341535D01*
X334646Y288386D02*
Y302165D01*
X327756Y19685D02*
X341535D01*
X334646Y12795D02*
Y26575D01*
X12795Y19685D02*
X26575D01*
X19685Y12795D02*
Y26575D01*
X53661Y64134D02*
X57205D01*
X55433Y62362D02*
Y65905D01*
X53661Y54134D02*
X57205D01*
X55433Y52362D02*
Y55905D01*
X43661Y64134D02*
X47205D01*
X45433Y62362D02*
Y65905D01*
X43661Y54134D02*
X47205D01*
X45433Y52362D02*
Y55905D01*
X33661Y64134D02*
X37205D01*
X35433Y62362D02*
Y65905D01*
X33661Y54134D02*
X37205D01*
X35433Y52362D02*
Y55905D01*
X294094Y295276D02*
X296457D01*
X295276Y294094D02*
Y296457D01*
X294094Y255906D02*
X296457D01*
X295276Y254724D02*
Y257087D01*
X274410Y295276D02*
X276772D01*
X275591Y294094D02*
Y296457D01*
X284252Y275591D02*
X286614D01*
X285433Y274410D02*
Y276772D01*
X274410Y255906D02*
X276772D01*
X275591Y254724D02*
Y257087D01*
X254724Y295276D02*
X257087D01*
X255906Y294094D02*
Y296457D01*
X264567Y275591D02*
X266929D01*
X265748Y274410D02*
Y276772D01*
X254724Y255906D02*
X257087D01*
X255906Y254724D02*
Y257087D01*
X235039Y295276D02*
X237402D01*
X236221Y294094D02*
Y296457D01*
X244882Y275591D02*
X247244D01*
X246063Y274410D02*
Y276772D01*
X235039Y255906D02*
X237402D01*
X236221Y254724D02*
Y257087D01*
X215354Y295276D02*
X217717D01*
X216535Y294094D02*
Y296457D01*
X225197Y275591D02*
X227559D01*
X226378Y274410D02*
Y276772D01*
X215354Y255906D02*
X217717D01*
X216535Y254724D02*
Y257087D01*
X225197Y236221D02*
X227559D01*
X226378Y235039D02*
Y237402D01*
X205512Y275591D02*
X207874D01*
X206693Y274410D02*
Y276772D01*
X205512Y236221D02*
X207874D01*
X206693Y235039D02*
Y237402D01*
X136614Y295276D02*
X138976D01*
X137795Y294094D02*
Y296457D01*
X146457Y275591D02*
X148819D01*
X147638Y274410D02*
Y276772D01*
X136614Y255906D02*
X138976D01*
X137795Y254724D02*
Y257087D01*
X146457Y236221D02*
X148819D01*
X147638Y235039D02*
Y237402D01*
X116929Y295276D02*
X119291D01*
X118110Y294094D02*
Y296457D01*
X126772Y275591D02*
X129134D01*
X127953Y274410D02*
Y276772D01*
X116929Y255906D02*
X119291D01*
X118110Y254724D02*
Y257087D01*
X126772Y236221D02*
X129134D01*
X127953Y235039D02*
Y237402D01*
X97244Y295276D02*
X99606D01*
X98425Y294094D02*
Y296457D01*
X107087Y275591D02*
X109449D01*
X108268Y274410D02*
Y276772D01*
X97244Y255906D02*
X99606D01*
X98425Y254724D02*
Y257087D01*
X77559Y295276D02*
X79921D01*
X78740Y294094D02*
Y296457D01*
X87402Y275591D02*
X89764D01*
X88583Y274410D02*
Y276772D01*
X77559Y255906D02*
X79921D01*
X78740Y254724D02*
Y257087D01*
X57874Y295276D02*
X60236D01*
X59055Y294094D02*
Y296457D01*
X67716Y275591D02*
X70079D01*
X68898Y274410D02*
Y276772D01*
X57874Y255906D02*
X60236D01*
X59055Y254724D02*
Y257087D01*
X297813Y181102D02*
X300613D01*
X299213Y179702D02*
Y182502D01*
X262380Y147638D02*
X265179D01*
X263779Y146238D02*
Y149038D01*
X254505Y147638D02*
X257306D01*
X255906Y146238D02*
Y149038D01*
X270253Y147638D02*
X273054D01*
X271654Y146238D02*
Y149038D01*
X175765Y147638D02*
X178565D01*
X177165Y146238D02*
Y149038D01*
X167891Y147638D02*
X170691D01*
X169291Y146238D02*
Y149038D01*
X183639Y147638D02*
X186439D01*
X185039Y146238D02*
Y149038D01*
X89151Y229331D02*
X91951D01*
X90551Y227931D02*
Y230731D01*
X89151Y215551D02*
X91951D01*
X90551Y214151D02*
Y216951D01*
X77340Y215551D02*
X80140D01*
X78740Y214151D02*
Y216951D01*
X77340Y229331D02*
X80140D01*
X78740Y227931D02*
Y230731D01*
X83246Y222441D02*
X86046D01*
X84646Y221041D02*
Y223841D01*
X95057Y222441D02*
X97857D01*
X96457Y221041D02*
Y223841D01*
X100962Y229331D02*
X103762D01*
X102362Y227931D02*
Y230731D01*
X100962Y215551D02*
X103762D01*
X102362Y214151D02*
Y216951D01*
X187576Y215551D02*
X190376D01*
X188976Y214151D02*
Y216951D01*
X187576Y229331D02*
X190376D01*
X188976Y227931D02*
Y230731D01*
X181671Y222441D02*
X184471D01*
X183071Y221041D02*
Y223841D01*
X169860Y222441D02*
X172660D01*
X171260Y221041D02*
Y223841D01*
X163954Y229331D02*
X166754D01*
X165354Y227931D02*
Y230731D01*
X163954Y215551D02*
X166754D01*
X165354Y214151D02*
Y216951D01*
X175765Y215551D02*
X178565D01*
X177165Y214151D02*
Y216951D01*
X175765Y229331D02*
X178565D01*
X177165Y227931D02*
Y230731D01*
X262380Y229331D02*
X265179D01*
X263779Y227931D02*
Y230731D01*
X262380Y215551D02*
X265179D01*
X263779Y214151D02*
Y216951D01*
X250569Y215551D02*
X253368D01*
X251969Y214151D02*
Y216951D01*
X250569Y229331D02*
X253368D01*
X251969Y227931D02*
Y230731D01*
X256474Y222441D02*
X259274D01*
X257874Y221041D02*
Y223841D01*
X268285Y222441D02*
X271085D01*
X269685Y221041D02*
Y223841D01*
X274190Y229331D02*
X276991D01*
X275590Y227931D02*
Y230731D01*
X274190Y215551D02*
X276991D01*
X275590Y214151D02*
Y216951D01*
X18504Y305906D02*
X20866D01*
X19685Y304724D02*
Y307087D01*
X7874Y295276D02*
X10236D01*
X9055Y294094D02*
Y296457D01*
X29134Y295276D02*
X31496D01*
X30315Y294094D02*
Y296457D01*
X18504Y284646D02*
X20866D01*
X19685Y283465D02*
Y285827D01*
X25984Y287795D02*
X28346D01*
X27165Y286614D02*
Y288976D01*
X11024Y287795D02*
X13386D01*
X12205Y286614D02*
Y288976D01*
X11024Y302756D02*
X13386D01*
X12205Y301575D02*
Y303937D01*
X25984Y302756D02*
X28346D01*
X27165Y301575D02*
Y303937D01*
X340945Y302756D02*
X343307D01*
X342126Y301575D02*
Y303937D01*
X340945Y287795D02*
X343307D01*
X342126Y286614D02*
Y288976D01*
X325984Y287795D02*
X328346D01*
X327165Y286614D02*
Y288976D01*
X325984Y302756D02*
X328346D01*
X327165Y301575D02*
Y303937D01*
X322835Y295276D02*
X325197D01*
X324016Y294094D02*
Y296457D01*
X333465Y305906D02*
X335827D01*
X334646Y304724D02*
Y307087D01*
X333465Y284646D02*
X335827D01*
X334646Y283465D02*
Y285827D01*
X344094Y295276D02*
X346457D01*
X345276Y294094D02*
Y296457D01*
X344094Y19685D02*
X346457D01*
X345276Y18504D02*
Y20866D01*
X333465Y9055D02*
X335827D01*
X334646Y7874D02*
Y10236D01*
X333465Y30315D02*
X335827D01*
X334646Y29134D02*
Y31496D01*
X322835Y19685D02*
X325197D01*
X324016Y18504D02*
Y20866D01*
X325984Y27165D02*
X328346D01*
X327165Y25984D02*
Y28346D01*
X325984Y12205D02*
X328346D01*
X327165Y11024D02*
Y13386D01*
X340945Y12205D02*
X343307D01*
X342126Y11024D02*
Y13386D01*
X340945Y27165D02*
X343307D01*
X342126Y25984D02*
Y28346D01*
X25984Y27165D02*
X28346D01*
X27165Y25984D02*
Y28346D01*
X25984Y12205D02*
X28346D01*
X27165Y11024D02*
Y13386D01*
X11024Y12205D02*
X13386D01*
X12205Y11024D02*
Y13386D01*
X11024Y27165D02*
X13386D01*
X12205Y25984D02*
Y28346D01*
X7874Y19685D02*
X10236D01*
X9055Y18504D02*
Y20866D01*
X18504Y30315D02*
X20866D01*
X19685Y29134D02*
Y31496D01*
X18504Y9055D02*
X20866D01*
X19685Y7874D02*
Y10236D01*
X29134Y19685D02*
X31496D01*
X30315Y18504D02*
Y20866D01*
X57655Y173228D02*
X60455D01*
X59055Y171828D02*
Y174628D01*
X231080Y161417D02*
X233880D01*
X232480Y160017D02*
Y162817D01*
X144466Y161417D02*
X147266D01*
X145866Y160017D02*
Y162817D01*
X144466Y173228D02*
X147266D01*
X145866Y171828D02*
Y174628D01*
X231080Y173228D02*
X233880D01*
X232480Y171828D02*
Y174628D01*
X215135Y135827D02*
X217935D01*
X216535Y134427D02*
Y137227D01*
X288720Y57087D02*
X290020D01*
X289370Y56437D02*
Y57737D01*
X284783Y62992D02*
X286083D01*
X285433Y62342D02*
Y63642D01*
X313561Y70866D02*
X316361D01*
X314961Y69466D02*
Y72266D01*
X304468Y45276D02*
X305768D01*
X305118Y44626D02*
Y45926D01*
X278878Y39370D02*
X280178D01*
X279528Y38720D02*
Y40020D01*
X284783Y39370D02*
X286083D01*
X285433Y38720D02*
Y40020D01*
X300531Y90551D02*
X301831D01*
X301181Y89901D02*
Y91201D01*
X290689Y39370D02*
X291989D01*
X291339Y38720D02*
Y40020D01*
X183405Y34449D02*
X184705D01*
X184055Y33799D02*
Y35099D01*
X288720Y70866D02*
X290020D01*
X289370Y70216D02*
Y71516D01*
X294626Y66929D02*
X295926D01*
X295276Y66279D02*
Y67579D01*
X241476Y51181D02*
X242776D01*
X242126Y50531D02*
Y51831D01*
X231633Y53150D02*
X232933D01*
X232283Y52500D02*
Y53800D01*
X207261Y101378D02*
X210061D01*
X208661Y99978D02*
Y102778D01*
X206277Y202756D02*
X209077D01*
X207677Y201356D02*
Y204156D01*
X99213Y171654D02*
X102362D01*
X100787Y170079D02*
Y173228D01*
X106299Y157480D02*
X109449D01*
X107874Y155906D02*
Y159055D01*
X99213Y143307D02*
X102362D01*
X100787Y141732D02*
Y144882D01*
X106299Y129134D02*
X109449D01*
X107874Y127559D02*
Y130709D01*
X99213Y114961D02*
X102362D01*
X100787Y113386D02*
Y116535D01*
X85039Y171654D02*
X88189D01*
X86614Y170079D02*
Y173228D01*
X92126Y157480D02*
X95276D01*
X93701Y155906D02*
Y159055D01*
X85039Y143307D02*
X88189D01*
X86614Y141732D02*
Y144882D01*
X92126Y129134D02*
X95276D01*
X93701Y127559D02*
Y130709D01*
X77953Y157480D02*
X81102D01*
X79528Y155906D02*
Y159055D01*
X70866Y143307D02*
X74016D01*
X72441Y141732D02*
Y144882D01*
X77953Y129134D02*
X81102D01*
X79528Y127559D02*
Y130709D01*
X70866Y114961D02*
X74016D01*
X72441Y113386D02*
Y116535D01*
M02*
