G04 Layer_Color=65535*
%FSLAX25Y25*%
%MOIN*%
G70*
G01*
G75*
%ADD31C,0.00984*%
%ADD33C,0.02362*%
%ADD48C,0.01969*%
%ADD49C,0.00787*%
%ADD50C,0.01000*%
%ADD51R,0.66929X0.19685*%
D31*
X296949Y270354D02*
G03*
X296949Y270354I-492J0D01*
G01*
X55807Y66575D02*
G03*
X55807Y66575I-492J0D01*
G01*
X343012Y114567D02*
G03*
X343012Y114567I-492J0D01*
G01*
X320669Y36299D02*
G03*
X320669Y36299I-492J0D01*
G01*
X302736Y139567D02*
G03*
X302736Y139567I-492J0D01*
G01*
X210000Y142126D02*
G03*
X210000Y142126I-492J0D01*
G01*
X232185Y126575D02*
G03*
X232185Y126575I-492J0D01*
G01*
X344587Y284055D02*
G03*
X344587Y284055I-492J0D01*
G01*
X316831Y241535D02*
G03*
X316831Y241535I-492J0D01*
G01*
X214370Y319291D02*
G03*
X214370Y319291I-492J0D01*
G01*
X162500Y109646D02*
G03*
X162500Y109646I-492J0D01*
G01*
X316831Y269094D02*
G03*
X316831Y269094I-492J0D01*
G01*
X298327Y270276D02*
G03*
X298327Y270276I-492J0D01*
G01*
X51673Y98032D02*
G03*
X51673Y98032I-492J0D01*
G01*
X343012Y83071D02*
G03*
X343012Y83071I-492J0D01*
G01*
X51673Y129528D02*
G03*
X51673Y129528I-492J0D01*
G01*
Y113779D02*
G03*
X51673Y113779I-492J0D01*
G01*
X343012Y98819D02*
G03*
X343012Y98819I-492J0D01*
G01*
X147008Y142126D02*
G03*
X147008Y142126I-492J0D01*
G01*
X66516Y139567D02*
G03*
X66516Y139567I-492J0D01*
G01*
X101949Y139567D02*
G03*
X101949Y139567I-492J0D01*
G01*
X267303D02*
G03*
X267303Y139567I-492J0D01*
G01*
D33*
X312598Y41339D02*
G03*
X312598Y41339I-1181J0D01*
G01*
X209055Y311024D02*
G03*
X209055Y311024I-1181J0D01*
G01*
D48*
X143903Y74787D02*
G03*
X143903Y74787I-984J0D01*
G01*
X45276Y265371D02*
X52023D01*
X54273Y266121D01*
X55022Y266871D01*
X55772Y268370D01*
Y270620D01*
X55022Y272119D01*
X54273Y272869D01*
X52023Y273619D01*
X45276D01*
Y257874D01*
X59296Y273619D02*
Y257874D01*
Y273619D02*
X64544D01*
X66793Y272869D01*
X68293Y271369D01*
X69042Y269870D01*
X69792Y267621D01*
Y263872D01*
X69042Y261623D01*
X68293Y260123D01*
X66793Y258624D01*
X64544Y257874D01*
X59296D01*
X73316Y273619D02*
Y262372D01*
X74066Y260123D01*
X75565Y258624D01*
X77815Y257874D01*
X79314D01*
X81563Y258624D01*
X83063Y260123D01*
X83812Y262372D01*
Y273619D01*
D49*
X287205Y270472D02*
Y296457D01*
X286221D02*
X287205D01*
X286221Y270472D02*
X287205D01*
X57874Y65354D02*
X60236D01*
X57874Y56693D02*
X60236D01*
X57874D02*
Y65354D01*
X60236Y56693D02*
Y65354D01*
X336024Y125197D02*
Y127795D01*
X339232D01*
X336024Y116299D02*
Y118898D01*
Y116299D02*
X339232D01*
X302756Y57087D02*
X315354D01*
X302756Y37402D02*
X315354D01*
X302756D02*
Y57087D01*
X315354Y37402D02*
Y57087D01*
X116535Y309842D02*
Y316142D01*
X103937D02*
X116535D01*
X103937Y309842D02*
Y316142D01*
Y309842D02*
X110236D01*
X116142D02*
X116535D01*
X110236D02*
X116142D01*
X328150Y148622D02*
Y152953D01*
X301772Y148622D02*
X328150D01*
X301772D02*
Y152953D01*
X208268Y153150D02*
Y159646D01*
Y153150D02*
X248425D01*
Y159646D01*
X111796Y80654D02*
X281816D01*
X80709Y-15843D02*
X312992D01*
X264173Y105709D02*
Y110236D01*
X235827Y105709D02*
Y110236D01*
X264173Y125984D02*
Y130512D01*
X235827Y125984D02*
Y130512D01*
Y105709D02*
X264173D01*
X235827Y130512D02*
X264173D01*
X346457Y253937D02*
Y281496D01*
X330709Y253937D02*
Y281496D01*
X343504D02*
X346457D01*
X343504Y253937D02*
X346457D01*
X330709Y281496D02*
X333661D01*
X330709Y253937D02*
X333661D01*
X328740Y244094D02*
Y267717D01*
X316929Y244094D02*
Y267717D01*
X269685Y303150D02*
Y318898D01*
X301969D02*
X305118Y315748D01*
X269685Y318898D02*
X301969D01*
X305118Y306299D02*
Y315748D01*
X301969Y303150D02*
X305118Y306299D01*
X269685Y303150D02*
X301969D01*
X306693Y303150D02*
X315354D01*
X306693Y287402D02*
Y303150D01*
Y287402D02*
X315354D01*
Y303150D01*
X71653Y47638D02*
Y54724D01*
Y47638D02*
X85827D01*
Y54724D01*
X71653D02*
X85827D01*
X187402Y314961D02*
X211811D01*
X187402Y290551D02*
X211811D01*
Y314961D01*
X187402Y290551D02*
Y314961D01*
X302756Y259842D02*
X311417D01*
X302756Y244094D02*
Y259842D01*
Y244094D02*
X311417D01*
Y259842D01*
X315354Y74016D02*
X322441D01*
X315354Y59842D02*
Y74016D01*
Y59842D02*
X322441D01*
Y74016D01*
X190551Y335039D02*
Y342126D01*
Y335039D02*
X204724D01*
Y342126D01*
X190551D02*
X204724D01*
X190551Y325197D02*
Y332283D01*
Y325197D02*
X204724D01*
Y332283D01*
X190551D02*
X204724D01*
X205512Y262598D02*
Y269685D01*
X191339D02*
X205512D01*
X191339Y262598D02*
Y269685D01*
Y262598D02*
X205512D01*
Y272441D02*
Y279528D01*
X191339D02*
X205512D01*
X191339Y272441D02*
Y279528D01*
Y272441D02*
X205512D01*
X129528Y125984D02*
Y130512D01*
X157874Y125984D02*
Y130512D01*
X129528Y105709D02*
Y110236D01*
X157874Y105709D02*
Y110236D01*
X129528Y130512D02*
X157874D01*
X129528Y105709D02*
X157874D01*
X328740Y271654D02*
Y295276D01*
X316929Y271654D02*
Y295276D01*
X285433Y244094D02*
Y267717D01*
X297244Y244094D02*
Y267717D01*
X57677Y84803D02*
Y87402D01*
X54469Y84803D02*
X57677D01*
Y93701D02*
Y96299D01*
X54469D02*
X57677D01*
X336024Y93701D02*
Y96299D01*
X339232D01*
X336024Y84803D02*
Y87402D01*
Y84803D02*
X339232D01*
X57677Y116299D02*
Y118898D01*
X54469Y116299D02*
X57677D01*
Y125197D02*
Y127795D01*
X54469D02*
X57677D01*
Y100551D02*
Y103150D01*
X54469Y100551D02*
X57677D01*
Y109449D02*
Y112047D01*
X54469D02*
X57677D01*
X336024Y109449D02*
Y112047D01*
X339232D01*
X336024Y100551D02*
Y103150D01*
Y100551D02*
X339232D01*
X50000Y218898D02*
X56299D01*
X50000Y206299D02*
Y218898D01*
Y206299D02*
X56299D01*
Y212598D01*
Y218504D02*
Y218898D01*
Y212598D02*
Y218504D01*
X34252Y183465D02*
X40551D01*
X34252Y170866D02*
Y183465D01*
Y170866D02*
X40551D01*
Y177165D01*
Y183071D02*
Y183465D01*
Y177165D02*
Y183071D01*
X34252Y155118D02*
X40551D01*
Y167717D01*
X34252D02*
X40551D01*
X34252Y161417D02*
Y167717D01*
Y155118D02*
Y155512D01*
Y161417D01*
X42126Y218898D02*
X48425D01*
X42126Y206299D02*
Y218898D01*
Y206299D02*
X48425D01*
Y212598D01*
Y218504D02*
Y218898D01*
Y212598D02*
Y218504D01*
X42126Y183465D02*
X48425D01*
X42126Y170866D02*
Y183465D01*
Y170866D02*
X48425D01*
Y177165D01*
Y183071D02*
Y183465D01*
Y177165D02*
Y183071D01*
X42126Y155118D02*
X48425D01*
Y167717D01*
X42126D02*
X48425D01*
X42126Y161417D02*
Y167717D01*
Y155118D02*
Y155512D01*
Y161417D01*
X34252Y218898D02*
X40551D01*
X34252Y206299D02*
Y218898D01*
Y206299D02*
X40551D01*
Y212598D01*
Y218504D02*
Y218898D01*
Y212598D02*
Y218504D01*
X50000Y183465D02*
X56299D01*
X50000Y170866D02*
Y183465D01*
Y170866D02*
X56299D01*
Y177165D01*
Y183071D02*
Y183465D01*
Y177165D02*
Y183071D01*
X50000Y155118D02*
X56299D01*
Y167717D01*
X50000D02*
X56299D01*
X50000Y161417D02*
Y167717D01*
Y155118D02*
Y155512D01*
Y161417D01*
X353150Y218898D02*
X359449D01*
X353150Y206299D02*
Y218898D01*
Y206299D02*
X359449D01*
Y212598D01*
Y218504D02*
Y218898D01*
Y212598D02*
Y218504D01*
X337402Y183465D02*
X343701D01*
X337402Y170866D02*
Y183465D01*
Y170866D02*
X343701D01*
Y177165D01*
Y183071D02*
Y183465D01*
Y177165D02*
Y183071D01*
X337402Y155118D02*
X343701D01*
Y167717D01*
X337402D02*
X343701D01*
X337402Y161417D02*
Y167717D01*
Y155118D02*
Y155512D01*
Y161417D01*
X337402Y218898D02*
X343701D01*
X337402Y206299D02*
Y218898D01*
Y206299D02*
X343701D01*
Y212598D01*
Y218504D02*
Y218898D01*
Y212598D02*
Y218504D01*
X353150Y183465D02*
X359449D01*
X353150Y170866D02*
Y183465D01*
Y170866D02*
X359449D01*
Y177165D01*
Y183071D02*
Y183465D01*
Y177165D02*
Y183071D01*
X353150Y155118D02*
X359449D01*
Y167717D01*
X353150D02*
X359449D01*
X353150Y161417D02*
Y167717D01*
Y155118D02*
Y155512D01*
Y161417D01*
X345276Y218898D02*
X351575D01*
X345276Y206299D02*
Y218898D01*
Y206299D02*
X351575D01*
Y212598D01*
Y218504D02*
Y218898D01*
Y212598D02*
Y218504D01*
X345276Y183465D02*
X351575D01*
X345276Y170866D02*
Y183465D01*
Y170866D02*
X351575D01*
Y177165D01*
Y183071D02*
Y183465D01*
Y177165D02*
Y183071D01*
X345276Y155118D02*
X351575D01*
Y167717D01*
X345276D02*
X351575D01*
X345276Y161417D02*
Y167717D01*
Y155118D02*
Y155512D01*
Y161417D01*
X232283Y302756D02*
Y309055D01*
Y302756D02*
X244882D01*
Y309055D01*
X238583D02*
X244882D01*
X232283D02*
X232677D01*
X238583D01*
X146063Y317717D02*
X152362D01*
Y330315D01*
X146063D02*
X152362D01*
X146063Y324016D02*
Y330315D01*
Y317717D02*
Y318110D01*
Y324016D01*
X153937Y317717D02*
X160236D01*
Y330315D01*
X153937D02*
X160236D01*
X153937Y324016D02*
Y330315D01*
Y317717D02*
Y318110D01*
Y324016D01*
X161811Y317717D02*
X168110D01*
Y330315D01*
X161811D02*
X168110D01*
X161811Y324016D02*
Y330315D01*
Y317717D02*
Y318110D01*
Y324016D01*
X145276Y153150D02*
Y159646D01*
Y153150D02*
X185433D01*
Y159646D01*
X65551Y148622D02*
Y152953D01*
Y148622D02*
X91929D01*
Y152953D01*
X127362Y148622D02*
Y152953D01*
X100984Y148622D02*
X127362D01*
X100984D02*
Y152953D01*
X266339Y148622D02*
Y152953D01*
Y148622D02*
X292717D01*
Y152953D01*
X116535Y294094D02*
Y300394D01*
X103937D02*
X116535D01*
X103937Y294094D02*
Y300394D01*
Y294094D02*
X110236D01*
X116142D02*
X116535D01*
X110236D02*
X116142D01*
X116535Y301969D02*
Y308268D01*
X103937D02*
X116535D01*
X103937Y301969D02*
Y308268D01*
Y301969D02*
X110236D01*
X116142D02*
X116535D01*
X110236D02*
X116142D01*
X71653Y67323D02*
Y74410D01*
Y67323D02*
X85827D01*
Y74410D01*
X71653D02*
X85827D01*
X71653Y57480D02*
Y64567D01*
Y57480D02*
X85827D01*
Y64567D01*
X71653D02*
X85827D01*
X45276Y251377D02*
Y246063D01*
Y251377D02*
X47553D01*
X48312Y251124D01*
X48565Y250871D01*
X48818Y250365D01*
Y249859D01*
X48565Y249353D01*
X48312Y249099D01*
X47553Y248846D01*
X45276D01*
X47047D02*
X48818Y246063D01*
X53297Y251377D02*
X50007D01*
Y246063D01*
X53297D01*
X50007Y248846D02*
X52032D01*
X54183Y251377D02*
X56207Y246063D01*
X58231Y251377D02*
X56207Y246063D01*
X64608Y251377D02*
X63849Y251124D01*
X63343Y250365D01*
X63090Y249099D01*
Y248340D01*
X63343Y247075D01*
X63849Y246316D01*
X64608Y246063D01*
X65114D01*
X65873Y246316D01*
X66379Y247075D01*
X66632Y248340D01*
Y249099D01*
X66379Y250365D01*
X65873Y251124D01*
X65114Y251377D01*
X64608D01*
X76172D02*
Y246063D01*
Y251377D02*
X78449D01*
X79208Y251124D01*
X79461Y250871D01*
X79714Y250365D01*
Y249859D01*
X79461Y249353D01*
X79208Y249099D01*
X78449Y248846D01*
X76172D01*
X77943D02*
X79714Y246063D01*
X80904Y251377D02*
Y247581D01*
X81157Y246822D01*
X81663Y246316D01*
X82422Y246063D01*
X82928D01*
X83687Y246316D01*
X84193Y246822D01*
X84446Y247581D01*
Y251377D01*
X85914D02*
Y246063D01*
Y251377D02*
X89456Y246063D01*
Y251377D02*
Y246063D01*
X95099Y250365D02*
X95605Y250618D01*
X96364Y251377D01*
Y246063D01*
X107599Y250112D02*
Y250365D01*
X107852Y250871D01*
X108105Y251124D01*
X108611Y251377D01*
X109624D01*
X110129Y251124D01*
X110383Y250871D01*
X110636Y250365D01*
Y249859D01*
X110383Y249353D01*
X109877Y248593D01*
X107346Y246063D01*
X110889D01*
X113596Y251377D02*
X112837Y251124D01*
X112331Y250365D01*
X112078Y249099D01*
Y248340D01*
X112331Y247075D01*
X112837Y246316D01*
X113596Y246063D01*
X114102D01*
X114861Y246316D01*
X115367Y247075D01*
X115621Y248340D01*
Y249099D01*
X115367Y250365D01*
X114861Y251124D01*
X114102Y251377D01*
X113596D01*
X116810Y250365D02*
X117316Y250618D01*
X118075Y251377D01*
Y246063D01*
X123743Y251377D02*
X121213D01*
X120960Y249099D01*
X121213Y249353D01*
X121972Y249605D01*
X122731D01*
X123490Y249353D01*
X123996Y248846D01*
X124249Y248087D01*
Y247581D01*
X123996Y246822D01*
X123490Y246316D01*
X122731Y246063D01*
X121972D01*
X121213Y246316D01*
X120960Y246569D01*
X120707Y247075D01*
X125438Y248340D02*
X129993D01*
X131562Y250365D02*
X132068Y250618D01*
X132827Y251377D01*
Y246063D01*
X135712Y250112D02*
Y250365D01*
X135965Y250871D01*
X136218Y251124D01*
X136724Y251377D01*
X137736D01*
X138242Y251124D01*
X138495Y250871D01*
X138748Y250365D01*
Y249859D01*
X138495Y249353D01*
X137989Y248593D01*
X135459Y246063D01*
X139001D01*
X140191Y248340D02*
X144745D01*
X146314Y250365D02*
X146820Y250618D01*
X147579Y251377D01*
Y246063D01*
X150211Y250365D02*
X150717Y250618D01*
X151476Y251377D01*
Y246063D01*
X45276Y285078D02*
Y281113D01*
X45540Y280320D01*
X46069Y279792D01*
X46861Y279528D01*
X47390D01*
X48183Y279792D01*
X48711Y280320D01*
X48976Y281113D01*
Y285078D01*
X50508D02*
X52623Y279528D01*
X54737Y285078D02*
X52623Y279528D01*
X55451Y285078D02*
Y279528D01*
X60578Y283756D02*
X60313Y284285D01*
X59785Y284813D01*
X59256Y285078D01*
X58199D01*
X57671Y284813D01*
X57142Y284285D01*
X56878Y283756D01*
X56613Y282963D01*
Y281642D01*
X56878Y280849D01*
X57142Y280320D01*
X57671Y279792D01*
X58199Y279528D01*
X59256D01*
X59785Y279792D01*
X60313Y280320D01*
X60578Y280849D01*
X66498Y285078D02*
Y279528D01*
Y285078D02*
X69933D01*
X66498Y282435D02*
X68612D01*
X72153Y285078D02*
X71625Y284813D01*
X71096Y284285D01*
X70832Y283756D01*
X70568Y282963D01*
Y281642D01*
X70832Y280849D01*
X71096Y280320D01*
X71625Y279792D01*
X72153Y279528D01*
X73211D01*
X73739Y279792D01*
X74268Y280320D01*
X74532Y280849D01*
X74796Y281642D01*
Y282963D01*
X74532Y283756D01*
X74268Y284285D01*
X73739Y284813D01*
X73211Y285078D01*
X72153D01*
X76091D02*
Y279528D01*
Y285078D02*
X78470D01*
X79263Y284813D01*
X79527Y284549D01*
X79791Y284020D01*
Y283492D01*
X79527Y282963D01*
X79263Y282699D01*
X78470Y282435D01*
X76091D01*
X77941D02*
X79791Y279528D01*
X81033Y285078D02*
Y279528D01*
Y285078D02*
X83148Y279528D01*
X85262Y285078D02*
X83148Y279528D01*
X85262Y285078D02*
Y279528D01*
X86848Y285078D02*
Y281113D01*
X87112Y280320D01*
X87641Y279792D01*
X88433Y279528D01*
X88962D01*
X89755Y279792D01*
X90283Y280320D01*
X90548Y281113D01*
Y285078D01*
X92080D02*
Y279528D01*
X95252D01*
X100088D02*
X97974Y285078D01*
X95860Y279528D01*
X96653Y281378D02*
X99296D01*
X105744Y285078D02*
Y279528D01*
Y285078D02*
X107858Y279528D01*
X109973Y285078D02*
X107858Y279528D01*
X109973Y285078D02*
Y279528D01*
X113144Y285078D02*
X112616Y284813D01*
X112087Y284285D01*
X111823Y283756D01*
X111558Y282963D01*
Y281642D01*
X111823Y280849D01*
X112087Y280320D01*
X112616Y279792D01*
X113144Y279528D01*
X114201D01*
X114730Y279792D01*
X115258Y280320D01*
X115523Y280849D01*
X115787Y281642D01*
Y282963D01*
X115523Y283756D01*
X115258Y284285D01*
X114730Y284813D01*
X114201Y285078D01*
X113144D01*
X118932D02*
Y279528D01*
X117082Y285078D02*
X120782D01*
X123028D02*
X122500Y284813D01*
X121971Y284285D01*
X121707Y283756D01*
X121443Y282963D01*
Y281642D01*
X121707Y280849D01*
X121971Y280320D01*
X122500Y279792D01*
X123028Y279528D01*
X124085D01*
X124614Y279792D01*
X125143Y280320D01*
X125407Y280849D01*
X125671Y281642D01*
Y282963D01*
X125407Y283756D01*
X125143Y284285D01*
X124614Y284813D01*
X124085Y285078D01*
X123028D01*
X126966D02*
Y279528D01*
Y285078D02*
X129345D01*
X130138Y284813D01*
X130402Y284549D01*
X130666Y284020D01*
Y283492D01*
X130402Y282963D01*
X130138Y282699D01*
X129345Y282435D01*
X126966D01*
X128816D02*
X130666Y279528D01*
X135608Y284285D02*
X135080Y284813D01*
X134287Y285078D01*
X133230D01*
X132437Y284813D01*
X131908Y284285D01*
Y283756D01*
X132173Y283227D01*
X132437Y282963D01*
X132965Y282699D01*
X134551Y282170D01*
X135080Y281906D01*
X135344Y281642D01*
X135608Y281113D01*
Y280320D01*
X135080Y279792D01*
X134287Y279528D01*
X133230D01*
X132437Y279792D01*
X131908Y280320D01*
X136850Y282170D02*
X139229D01*
X140022Y282435D01*
X140286Y282699D01*
X140550Y283227D01*
Y284020D01*
X140286Y284549D01*
X140022Y284813D01*
X139229Y285078D01*
X136850D01*
Y279528D01*
X143378Y285078D02*
X142850Y284813D01*
X142321Y284285D01*
X142057Y283756D01*
X141793Y282963D01*
Y281642D01*
X142057Y280849D01*
X142321Y280320D01*
X142850Y279792D01*
X143378Y279528D01*
X144435D01*
X144964Y279792D01*
X145493Y280320D01*
X145757Y280849D01*
X146021Y281642D01*
Y282963D01*
X145757Y283756D01*
X145493Y284285D01*
X144964Y284813D01*
X144435Y285078D01*
X143378D01*
X147316D02*
Y279528D01*
Y285078D02*
X149695D01*
X150487Y284813D01*
X150752Y284549D01*
X151016Y284020D01*
Y283492D01*
X150752Y282963D01*
X150487Y282699D01*
X149695Y282435D01*
X147316D01*
X149166D02*
X151016Y279528D01*
X154108Y285078D02*
Y279528D01*
X152258Y285078D02*
X155958D01*
D50*
X80709Y-15843D02*
Y27543D01*
X111796D02*
Y80654D01*
X80709Y27543D02*
X111796D01*
X281816D02*
X312992D01*
X281816D02*
Y80654D01*
X312992Y-15843D02*
Y27543D01*
X178548Y256707D02*
X176549D01*
X177549D01*
Y251708D01*
X176549Y250709D01*
X175549D01*
X174550Y251708D01*
X184546Y250709D02*
X180548D01*
X184546Y254707D01*
Y255707D01*
X183547Y256707D01*
X181547D01*
X180548Y255707D01*
X265748Y267415D02*
Y262417D01*
X266748Y261417D01*
X268747D01*
X269747Y262417D01*
Y267415D01*
X271746Y266416D02*
X272746Y267415D01*
X274745D01*
X275745Y266416D01*
Y265416D01*
X274745Y264416D01*
X275745Y263417D01*
Y262417D01*
X274745Y261417D01*
X272746D01*
X271746Y262417D01*
Y263417D01*
X272746Y264416D01*
X271746Y265416D01*
Y266416D01*
X272746Y264416D02*
X274745D01*
X55118Y76864D02*
Y70866D01*
X58117D01*
X59117Y71866D01*
Y75864D01*
X58117Y76864D01*
X55118D01*
X61116D02*
X65115D01*
Y75864D01*
X61116Y71866D01*
Y70866D01*
X354392Y119110D02*
Y123109D01*
X353393Y124108D01*
X351393D01*
X350394Y123109D01*
Y119110D01*
X351393Y118110D01*
X353393D01*
X352393Y120110D02*
X354392Y118110D01*
X353393D02*
X354392Y119110D01*
X360390Y124108D02*
X358391Y123109D01*
X356392Y121109D01*
Y119110D01*
X357391Y118110D01*
X359391D01*
X360390Y119110D01*
Y120110D01*
X359391Y121109D01*
X356392D01*
X293944Y68416D02*
Y63418D01*
X294944Y62418D01*
X296943D01*
X297943Y63418D01*
Y68416D01*
X299942Y62418D02*
X301941D01*
X300942D01*
Y68416D01*
X299942Y67417D01*
X304941D02*
X305940Y68416D01*
X307940D01*
X308939Y67417D01*
Y63418D01*
X307940Y62418D01*
X305940D01*
X304941Y63418D01*
Y67417D01*
X120079Y309055D02*
Y315053D01*
X123078D01*
X124077Y314054D01*
Y312054D01*
X123078Y311054D01*
X120079D01*
X122078D02*
X124077Y309055D01*
X130076D02*
X126077D01*
X130076Y313054D01*
Y314054D01*
X129076Y315053D01*
X127076D01*
X126077Y314054D01*
X136074Y315053D02*
X132075D01*
Y312054D01*
X134074Y313054D01*
X135074D01*
X136074Y312054D01*
Y310055D01*
X135074Y309055D01*
X133074D01*
X132075Y310055D01*
X301802Y189648D02*
Y184649D01*
X302801Y183650D01*
X304801D01*
X305800Y184649D01*
Y189648D01*
X311798D02*
X309799Y188648D01*
X307800Y186649D01*
Y184649D01*
X308799Y183650D01*
X310799D01*
X311798Y184649D01*
Y185649D01*
X310799Y186649D01*
X307800D01*
X236221Y206785D02*
Y201787D01*
X237220Y200787D01*
X239219D01*
X240219Y201787D01*
Y206785D01*
X245218Y200787D02*
Y206785D01*
X242218Y203786D01*
X246217D01*
X265810Y332376D02*
X263810D01*
X264810D01*
Y327378D01*
X263810Y326378D01*
X262811D01*
X261811Y327378D01*
X270808Y326378D02*
Y332376D01*
X267809Y329377D01*
X271808D01*
X171321Y277652D02*
X167323D01*
Y274653D01*
X169322D01*
X167323D01*
Y271654D01*
X173321Y277652D02*
Y271654D01*
X176320D01*
X177320Y272653D01*
Y273653D01*
X176320Y274653D01*
X173321D01*
X176320D01*
X177320Y275652D01*
Y276652D01*
X176320Y277652D01*
X173321D01*
X179319Y271654D02*
X181318D01*
X180319D01*
Y277652D01*
X179319Y276652D01*
X72896Y25683D02*
X70897D01*
X71897D01*
Y20685D01*
X70897Y19685D01*
X69897D01*
X68898Y20685D01*
X74896Y19685D02*
X76895D01*
X75895D01*
Y25683D01*
X74896Y24683D01*
X222835Y105604D02*
Y99606D01*
X225834D01*
X226833Y100606D01*
Y104605D01*
X225834Y105604D01*
X222835D01*
X232831Y99606D02*
X228833D01*
X232831Y103605D01*
Y104605D01*
X231832Y105604D01*
X229832D01*
X228833Y104605D01*
X348425Y259935D02*
Y253937D01*
X351424D01*
X352424Y254937D01*
Y258935D01*
X351424Y259935D01*
X348425D01*
X358422D02*
X356423Y258935D01*
X354423Y256936D01*
Y254937D01*
X355423Y253937D01*
X357422D01*
X358422Y254937D01*
Y255936D01*
X357422Y256936D01*
X354423D01*
X320866Y240250D02*
Y234252D01*
X323865D01*
X324865Y235252D01*
Y239250D01*
X323865Y240250D01*
X320866D01*
X330863D02*
X326864D01*
Y237251D01*
X328864Y238251D01*
X329863D01*
X330863Y237251D01*
Y235252D01*
X329863Y234252D01*
X327864D01*
X326864Y235252D01*
X299668Y326258D02*
X298668Y327258D01*
X296669D01*
X295669Y326258D01*
Y322259D01*
X296669Y321260D01*
X298668D01*
X299668Y322259D01*
X305666Y321260D02*
X301667D01*
X305666Y325259D01*
Y326258D01*
X304666Y327258D01*
X302667D01*
X301667Y326258D01*
X322896Y306179D02*
X321897Y307179D01*
X319897D01*
X318898Y306179D01*
Y302181D01*
X319897Y301181D01*
X321897D01*
X322896Y302181D01*
X324896Y306179D02*
X325895Y307179D01*
X327895D01*
X328894Y306179D01*
Y305180D01*
X327895Y304180D01*
X326895D01*
X327895D01*
X328894Y303181D01*
Y302181D01*
X327895Y301181D01*
X325895D01*
X324896Y302181D01*
X92581Y52242D02*
X91582Y53242D01*
X89582D01*
X88583Y52242D01*
Y48244D01*
X89582Y47244D01*
X91582D01*
X92581Y48244D01*
X94581Y47244D02*
X96580D01*
X95580D01*
Y53242D01*
X94581Y52242D01*
X99579Y47244D02*
X101578D01*
X100579D01*
Y53242D01*
X99579Y52242D01*
X173228Y324896D02*
Y319897D01*
X174228Y318898D01*
X176227D01*
X177227Y319897D01*
Y324896D01*
X179226Y319897D02*
X180226Y318898D01*
X182225D01*
X183225Y319897D01*
Y323896D01*
X182225Y324896D01*
X180226D01*
X179226Y323896D01*
Y322896D01*
X180226Y321897D01*
X183225D01*
X307148Y239250D02*
X306149Y240250D01*
X304149D01*
X303150Y239250D01*
Y235252D01*
X304149Y234252D01*
X306149D01*
X307148Y235252D01*
X309148Y234252D02*
X311147D01*
X310147D01*
Y240250D01*
X309148Y239250D01*
X319648Y82685D02*
X318649Y83685D01*
X316649D01*
X315650Y82685D01*
Y78686D01*
X316649Y77687D01*
X318649D01*
X319648Y78686D01*
X324647Y77687D02*
Y83685D01*
X321648Y80686D01*
X325646D01*
X213447Y339644D02*
X212448Y340644D01*
X210449D01*
X209449Y339644D01*
Y335645D01*
X210449Y334646D01*
X212448D01*
X213447Y335645D01*
X219446Y340644D02*
X215447D01*
Y337645D01*
X217446Y338644D01*
X218446D01*
X219446Y337645D01*
Y335645D01*
X218446Y334646D01*
X216447D01*
X215447Y335645D01*
X213447Y329802D02*
X212448Y330801D01*
X210449D01*
X209449Y329802D01*
Y325803D01*
X210449Y324803D01*
X212448D01*
X213447Y325803D01*
X219446Y330801D02*
X217446Y329802D01*
X215447Y327802D01*
Y325803D01*
X216447Y324803D01*
X218446D01*
X219446Y325803D01*
Y326802D01*
X218446Y327802D01*
X215447D01*
X214235Y267203D02*
X213235Y268203D01*
X211236D01*
X210236Y267203D01*
Y263204D01*
X211236Y262205D01*
X213235D01*
X214235Y263204D01*
X216234Y268203D02*
X220233D01*
Y267203D01*
X216234Y263204D01*
Y262205D01*
X214235Y277046D02*
X213235Y278045D01*
X211236D01*
X210236Y277046D01*
Y273047D01*
X211236Y272047D01*
X213235D01*
X214235Y273047D01*
X216234Y277046D02*
X217234Y278045D01*
X219233D01*
X220233Y277046D01*
Y276046D01*
X219233Y275046D01*
X220233Y274047D01*
Y273047D01*
X219233Y272047D01*
X217234D01*
X216234Y273047D01*
Y274047D01*
X217234Y275046D01*
X216234Y276046D01*
Y277046D01*
X217234Y275046D02*
X219233D01*
X161417Y105998D02*
Y100000D01*
X164416D01*
X165416Y101000D01*
Y104998D01*
X164416Y105998D01*
X161417D01*
X167415Y100000D02*
X169415D01*
X168415D01*
Y105998D01*
X167415Y104998D01*
X330709Y293400D02*
Y287402D01*
X333708D01*
X334707Y288401D01*
Y292400D01*
X333708Y293400D01*
X330709D01*
X336707Y292400D02*
X337706Y293400D01*
X339706D01*
X340705Y292400D01*
Y291400D01*
X339706Y290401D01*
X338706D01*
X339706D01*
X340705Y289401D01*
Y288401D01*
X339706Y287402D01*
X337706D01*
X336707Y288401D01*
X285433Y240250D02*
Y234252D01*
X288432D01*
X289432Y235252D01*
Y239250D01*
X288432Y240250D01*
X285433D01*
X294430Y234252D02*
Y240250D01*
X291431Y237251D01*
X295430D01*
X39432Y87614D02*
Y91612D01*
X38432Y92612D01*
X36433D01*
X35433Y91612D01*
Y87614D01*
X36433Y86614D01*
X38432D01*
X37432Y88613D02*
X39432Y86614D01*
X38432D02*
X39432Y87614D01*
X41431Y91612D02*
X42431Y92612D01*
X44430D01*
X45430Y91612D01*
Y90613D01*
X44430Y89613D01*
X43431D01*
X44430D01*
X45430Y88613D01*
Y87614D01*
X44430Y86614D01*
X42431D01*
X41431Y87614D01*
X354392D02*
Y91612D01*
X353393Y92612D01*
X351393D01*
X350394Y91612D01*
Y87614D01*
X351393Y86614D01*
X353393D01*
X352393Y88613D02*
X354392Y86614D01*
X353393D02*
X354392Y87614D01*
X359391Y86614D02*
Y92612D01*
X356392Y89613D01*
X360390D01*
X39432Y119110D02*
Y123109D01*
X38432Y124108D01*
X36433D01*
X35433Y123109D01*
Y119110D01*
X36433Y118110D01*
X38432D01*
X37432Y120110D02*
X39432Y118110D01*
X38432D02*
X39432Y119110D01*
X41431Y118110D02*
X43431D01*
X42431D01*
Y124108D01*
X41431Y123109D01*
X39432Y103362D02*
Y107361D01*
X38432Y108360D01*
X36433D01*
X35433Y107361D01*
Y103362D01*
X36433Y102362D01*
X38432D01*
X37432Y104362D02*
X39432Y102362D01*
X38432D02*
X39432Y103362D01*
X45430Y102362D02*
X41431D01*
X45430Y106361D01*
Y107361D01*
X44430Y108360D01*
X42431D01*
X41431Y107361D01*
X354392Y103559D02*
Y107557D01*
X353393Y108557D01*
X351393D01*
X350394Y107557D01*
Y103559D01*
X351393Y102559D01*
X353393D01*
X352393Y104558D02*
X354392Y102559D01*
X353393D02*
X354392Y103559D01*
X360390Y108557D02*
X356392D01*
Y105558D01*
X358391Y106558D01*
X359391D01*
X360390Y105558D01*
Y103559D01*
X359391Y102559D01*
X357391D01*
X356392Y103559D01*
X57087Y224410D02*
X51089D01*
Y227409D01*
X52088Y228408D01*
X54088D01*
X55087Y227409D01*
Y224410D01*
Y226409D02*
X57087Y228408D01*
Y230408D02*
Y232407D01*
Y231407D01*
X51089D01*
X52088Y230408D01*
X41339Y188976D02*
X35340D01*
Y191975D01*
X36340Y192975D01*
X38339D01*
X39339Y191975D01*
Y188976D01*
Y190976D02*
X41339Y192975D01*
Y198973D02*
Y194974D01*
X37340Y198973D01*
X36340D01*
X35340Y197974D01*
Y195974D01*
X36340Y194974D01*
X41339Y141732D02*
X35340D01*
Y144731D01*
X36340Y145731D01*
X38339D01*
X39339Y144731D01*
Y141732D01*
Y143732D02*
X41339Y145731D01*
X36340Y147730D02*
X35340Y148730D01*
Y150729D01*
X36340Y151729D01*
X37340D01*
X38339Y150729D01*
Y149730D01*
Y150729D01*
X39339Y151729D01*
X40339D01*
X41339Y150729D01*
Y148730D01*
X40339Y147730D01*
X49213Y224410D02*
X43214D01*
Y227409D01*
X44214Y228408D01*
X46214D01*
X47213Y227409D01*
Y224410D01*
Y226409D02*
X49213Y228408D01*
Y233406D02*
X43214D01*
X46214Y230408D01*
Y234406D01*
X49213Y188976D02*
X43214D01*
Y191975D01*
X44214Y192975D01*
X46214D01*
X47213Y191975D01*
Y188976D01*
Y190976D02*
X49213Y192975D01*
X43214Y198973D02*
Y194974D01*
X46214D01*
X45214Y196974D01*
Y197974D01*
X46214Y198973D01*
X48213D01*
X49213Y197974D01*
Y195974D01*
X48213Y194974D01*
X49213Y141732D02*
X43214D01*
Y144731D01*
X44214Y145731D01*
X46214D01*
X47213Y144731D01*
Y141732D01*
Y143732D02*
X49213Y145731D01*
X43214Y151729D02*
X44214Y149730D01*
X46214Y147730D01*
X48213D01*
X49213Y148730D01*
Y150729D01*
X48213Y151729D01*
X47213D01*
X46214Y150729D01*
Y147730D01*
X41339Y224410D02*
X35340D01*
Y227409D01*
X36340Y228408D01*
X38340D01*
X39339Y227409D01*
Y224410D01*
Y226409D02*
X41339Y228408D01*
X35340Y230408D02*
Y234406D01*
X36340D01*
X40339Y230408D01*
X41339D01*
X57087Y188976D02*
X51089D01*
Y191975D01*
X52088Y192975D01*
X54088D01*
X55087Y191975D01*
Y188976D01*
Y190976D02*
X57087Y192975D01*
X52088Y194974D02*
X51089Y195974D01*
Y197974D01*
X52088Y198973D01*
X53088D01*
X54088Y197974D01*
X55087Y198973D01*
X56087D01*
X57087Y197974D01*
Y195974D01*
X56087Y194974D01*
X55087D01*
X54088Y195974D01*
X53088Y194974D01*
X52088D01*
X54088Y195974D02*
Y197974D01*
X57087Y141732D02*
X51089D01*
Y144731D01*
X52088Y145731D01*
X54088D01*
X55087Y144731D01*
Y141732D01*
Y143732D02*
X57087Y145731D01*
X56087Y147730D02*
X57087Y148730D01*
Y150729D01*
X56087Y151729D01*
X52088D01*
X51089Y150729D01*
Y148730D01*
X52088Y147730D01*
X53088D01*
X54088Y148730D01*
Y151729D01*
X360236Y222441D02*
X354238D01*
Y225440D01*
X355238Y226440D01*
X357237D01*
X358237Y225440D01*
Y222441D01*
Y224440D02*
X360236Y226440D01*
Y228439D02*
Y230438D01*
Y229439D01*
X354238D01*
X355238Y228439D01*
Y233437D02*
X354238Y234437D01*
Y236436D01*
X355238Y237436D01*
X359237D01*
X360236Y236436D01*
Y234437D01*
X359237Y233437D01*
X355238D01*
X344488Y188976D02*
X338490D01*
Y191975D01*
X339490Y192975D01*
X341489D01*
X342489Y191975D01*
Y188976D01*
Y190976D02*
X344488Y192975D01*
Y194974D02*
Y196974D01*
Y195974D01*
X338490D01*
X339490Y194974D01*
X344488Y199973D02*
Y201972D01*
Y200973D01*
X338490D01*
X339490Y199973D01*
X344488Y137795D02*
X338490D01*
Y140794D01*
X339490Y141794D01*
X341489D01*
X342489Y140794D01*
Y137795D01*
Y139795D02*
X344488Y141794D01*
Y143793D02*
Y145793D01*
Y144793D01*
X338490D01*
X339490Y143793D01*
X344488Y152790D02*
Y148792D01*
X340490Y152790D01*
X339490D01*
X338490Y151791D01*
Y149791D01*
X339490Y148792D01*
X344488Y222441D02*
X338490D01*
Y225440D01*
X339490Y226440D01*
X341489D01*
X342489Y225440D01*
Y222441D01*
Y224440D02*
X344488Y226440D01*
Y228439D02*
Y230438D01*
Y229439D01*
X338490D01*
X339490Y228439D01*
X338490Y237436D02*
X339490Y235437D01*
X341489Y233437D01*
X343489D01*
X344488Y234437D01*
Y236436D01*
X343489Y237436D01*
X342489D01*
X341489Y236436D01*
Y233437D01*
X360236Y188976D02*
X354238D01*
Y191975D01*
X355238Y192975D01*
X357237D01*
X358237Y191975D01*
Y188976D01*
Y190976D02*
X360236Y192975D01*
Y194974D02*
Y196974D01*
Y195974D01*
X354238D01*
X355238Y194974D01*
X354238Y199973D02*
Y203972D01*
X355238D01*
X359237Y199973D01*
X360236D01*
Y137795D02*
X354238D01*
Y140794D01*
X355238Y141794D01*
X357237D01*
X358237Y140794D01*
Y137795D01*
Y139795D02*
X360236Y141794D01*
Y143793D02*
Y145793D01*
Y144793D01*
X354238D01*
X355238Y143793D01*
Y148792D02*
X354238Y149791D01*
Y151791D01*
X355238Y152790D01*
X356238D01*
X357237Y151791D01*
X358237Y152790D01*
X359237D01*
X360236Y151791D01*
Y149791D01*
X359237Y148792D01*
X358237D01*
X357237Y149791D01*
X356238Y148792D01*
X355238D01*
X357237Y149791D02*
Y151791D01*
X352362Y222441D02*
X346364D01*
Y225440D01*
X347364Y226440D01*
X349363D01*
X350363Y225440D01*
Y222441D01*
Y224440D02*
X352362Y226440D01*
Y228439D02*
Y230438D01*
Y229439D01*
X346364D01*
X347364Y228439D01*
Y233437D02*
X346364Y234437D01*
Y236436D01*
X347364Y237436D01*
X348363D01*
X349363Y236436D01*
Y235437D01*
Y236436D01*
X350363Y237436D01*
X351362D01*
X352362Y236436D01*
Y234437D01*
X351362Y233437D01*
X352362Y188976D02*
X346364D01*
Y191975D01*
X347364Y192975D01*
X349363D01*
X350363Y191975D01*
Y188976D01*
Y190976D02*
X352362Y192975D01*
Y194974D02*
Y196974D01*
Y195974D01*
X346364D01*
X347364Y194974D01*
X352362Y202972D02*
X346364D01*
X349363Y199973D01*
Y203972D01*
X352362Y137795D02*
X346364D01*
Y140794D01*
X347364Y141794D01*
X349363D01*
X350363Y140794D01*
Y137795D01*
Y139795D02*
X352362Y141794D01*
Y143793D02*
Y145793D01*
Y144793D01*
X346364D01*
X347364Y143793D01*
X346364Y152790D02*
Y148792D01*
X349363D01*
X348363Y150791D01*
Y151791D01*
X349363Y152790D01*
X351362D01*
X352362Y151791D01*
Y149791D01*
X351362Y148792D01*
X232677Y294094D02*
Y300093D01*
X235676D01*
X236676Y299093D01*
Y297094D01*
X235676Y296094D01*
X232677D01*
X234677D02*
X236676Y294094D01*
X238675D02*
X240675D01*
X239675D01*
Y300093D01*
X238675Y299093D01*
X243674Y295094D02*
X244673Y294094D01*
X246673D01*
X247672Y295094D01*
Y299093D01*
X246673Y300093D01*
X244673D01*
X243674Y299093D01*
Y298093D01*
X244673Y297094D01*
X247672D01*
X151575Y299213D02*
X145577D01*
Y302212D01*
X146576Y303211D01*
X148576D01*
X149575Y302212D01*
Y299213D01*
Y301212D02*
X151575Y303211D01*
Y309209D02*
Y305211D01*
X147576Y309209D01*
X146576D01*
X145577Y308210D01*
Y306210D01*
X146576Y305211D01*
Y311209D02*
X145577Y312208D01*
Y314208D01*
X146576Y315207D01*
X150575D01*
X151575Y314208D01*
Y312208D01*
X150575Y311209D01*
X146576D01*
X159449Y299213D02*
X153451D01*
Y302212D01*
X154450Y303211D01*
X156450D01*
X157449Y302212D01*
Y299213D01*
Y301212D02*
X159449Y303211D01*
Y309209D02*
Y305211D01*
X155450Y309209D01*
X154450D01*
X153451Y308210D01*
Y306210D01*
X154450Y305211D01*
X159449Y311209D02*
Y313208D01*
Y312208D01*
X153451D01*
X154450Y311209D01*
X167323Y299213D02*
X161325D01*
Y302212D01*
X162325Y303211D01*
X164324D01*
X165323Y302212D01*
Y299213D01*
Y301212D02*
X167323Y303211D01*
Y309209D02*
Y305211D01*
X163324Y309209D01*
X162325D01*
X161325Y308210D01*
Y306210D01*
X162325Y305211D01*
X167323Y315207D02*
Y311209D01*
X163324Y315207D01*
X162325D01*
X161325Y314208D01*
Y312208D01*
X162325Y311209D01*
X144250Y206448D02*
Y201449D01*
X145249Y200450D01*
X147249D01*
X148248Y201449D01*
Y206448D01*
X150248Y205448D02*
X151247Y206448D01*
X153247D01*
X154246Y205448D01*
Y204448D01*
X153247Y203449D01*
X152247D01*
X153247D01*
X154246Y202449D01*
Y201449D01*
X153247Y200450D01*
X151247D01*
X150248Y201449D01*
X65598Y189648D02*
Y184649D01*
X66597Y183650D01*
X68597D01*
X69596Y184649D01*
Y189648D01*
X71596Y183650D02*
X73595D01*
X72595D01*
Y189648D01*
X71596Y188648D01*
X101024Y189648D02*
Y184649D01*
X102023Y183650D01*
X104023D01*
X105022Y184649D01*
Y189648D01*
X111020Y183650D02*
X107022D01*
X111020Y187648D01*
Y188648D01*
X110021Y189648D01*
X108021D01*
X107022Y188648D01*
X266376Y189648D02*
Y184649D01*
X267375Y183650D01*
X269375D01*
X270374Y184649D01*
Y189648D01*
X276372D02*
X272374D01*
Y186649D01*
X274373Y187648D01*
X275373D01*
X276372Y186649D01*
Y184649D01*
X275373Y183650D01*
X273373D01*
X272374Y184649D01*
X120079Y293307D02*
Y299305D01*
X123078D01*
X124077Y298306D01*
Y296306D01*
X123078Y295306D01*
X120079D01*
X122078D02*
X124077Y293307D01*
X130076D02*
X126077D01*
X130076Y297306D01*
Y298306D01*
X129076Y299305D01*
X127076D01*
X126077Y298306D01*
X132075D02*
X133074Y299305D01*
X135074D01*
X136074Y298306D01*
Y297306D01*
X135074Y296306D01*
X134074D01*
X135074D01*
X136074Y295306D01*
Y294307D01*
X135074Y293307D01*
X133074D01*
X132075Y294307D01*
X120079Y301181D02*
Y307179D01*
X123078D01*
X124077Y306179D01*
Y304180D01*
X123078Y303181D01*
X120079D01*
X122078D02*
X124077Y301181D01*
X130076D02*
X126077D01*
X130076Y305180D01*
Y306179D01*
X129076Y307179D01*
X127076D01*
X126077Y306179D01*
X135074Y301181D02*
Y307179D01*
X132075Y304180D01*
X136074D01*
X92581Y71927D02*
X91582Y72927D01*
X89582D01*
X88583Y71927D01*
Y67929D01*
X89582Y66929D01*
X91582D01*
X92581Y67929D01*
X94581D02*
X95580Y66929D01*
X97580D01*
X98579Y67929D01*
Y71927D01*
X97580Y72927D01*
X95580D01*
X94581Y71927D01*
Y70928D01*
X95580Y69928D01*
X98579D01*
X92581Y62085D02*
X91582Y63085D01*
X89582D01*
X88583Y62085D01*
Y58086D01*
X89582Y57087D01*
X91582D01*
X92581Y58086D01*
X94581Y57087D02*
X96580D01*
X95580D01*
Y63085D01*
X94581Y62085D01*
X99579D02*
X100579Y63085D01*
X102578D01*
X103578Y62085D01*
Y58086D01*
X102578Y57087D01*
X100579D01*
X99579Y58086D01*
Y62085D01*
D51*
X122047Y265748D02*
D03*
M02*
