G04 Layer_Color=16711935*
%FSLAX25Y25*%
%MOIN*%
G70*
G01*
G75*
%ADD74C,0.48031*%
%ADD75C,0.00787*%
%ADD76C,0.12598*%
%ADD77C,0.28346*%
%ADD78C,0.07087*%
%ADD79C,0.05787*%
D74*
X196850Y224410D02*
D03*
D75*
X265900Y64685D02*
D03*
X127800D02*
D03*
X196850Y19685D02*
D03*
D76*
X153056Y43685D02*
D03*
X205556D02*
D03*
X170556D02*
D03*
X188056D02*
D03*
Y68685D02*
D03*
X170556D02*
D03*
X205556D02*
D03*
X153056D02*
D03*
X240556D02*
D03*
X223056D02*
D03*
Y43685D02*
D03*
X240556D02*
D03*
D77*
X354331Y314961D02*
D03*
Y39370D02*
D03*
X39370D02*
D03*
Y314961D02*
D03*
D78*
X233307Y317165D02*
D03*
X253307D02*
D03*
X243307D02*
D03*
Y327165D02*
D03*
X253307D02*
D03*
X233307D02*
D03*
D79*
X209842Y237402D02*
D03*
X215551Y224410D02*
D03*
X196850Y205709D02*
D03*
X178150Y224410D02*
D03*
X196850Y243110D02*
D03*
X183858Y237402D02*
D03*
Y211417D02*
D03*
X209842D02*
D03*
X309055Y174016D02*
D03*
X314961Y167126D02*
D03*
X309055Y160236D02*
D03*
X320866D02*
D03*
Y174016D02*
D03*
X273622D02*
D03*
X279528Y167126D02*
D03*
X273622Y160236D02*
D03*
X285433D02*
D03*
Y174016D02*
D03*
X108268D02*
D03*
X114173Y167126D02*
D03*
X108268Y160236D02*
D03*
X120079D02*
D03*
Y174016D02*
D03*
X72835Y174016D02*
D03*
X78740Y167126D02*
D03*
X72835Y160236D02*
D03*
X84646D02*
D03*
Y174016D02*
D03*
X240158Y172244D02*
D03*
Y186024D02*
D03*
X234252Y179134D02*
D03*
X222441D02*
D03*
X216535Y186024D02*
D03*
Y172244D02*
D03*
X228346D02*
D03*
Y186024D02*
D03*
X177165Y172244D02*
D03*
Y186024D02*
D03*
X171260Y179134D02*
D03*
X159449D02*
D03*
X153543Y186024D02*
D03*
Y172244D02*
D03*
X165354D02*
D03*
Y186024D02*
D03*
X133858Y324803D02*
D03*
Y293307D02*
D03*
M02*
