G04 Layer_Physical_Order=2*
G04 Layer_Color=16711680*
%FSLAX25Y25*%
%MOIN*%
G70*
G01*
G75*
%ADD18C,0.01000*%
%ADD19C,0.11811*%
%ADD20C,0.15748*%
%ADD21C,0.30315*%
%ADD22C,0.05906*%
%ADD23R,0.05906X0.05906*%
%ADD24C,0.03937*%
%ADD25C,0.05000*%
%ADD26C,0.02362*%
%ADD27C,0.02700*%
%ADD28R,0.04331X0.04331*%
%ADD29O,0.02165X0.06496*%
%ADD30O,0.06496X0.02165*%
%ADD31R,0.11221X0.09646*%
%ADD32R,0.26772X0.21850*%
%ADD33R,0.09449X0.03937*%
%ADD34R,0.11417X0.06693*%
%ADD35R,0.08661X0.07087*%
%ADD36R,0.07087X0.08661*%
%ADD37R,0.06102X0.05315*%
%ADD38R,0.05315X0.06102*%
%ADD39C,0.03937*%
%ADD40R,0.39370X0.34449*%
G36*
X311024Y212598D02*
X43307D01*
Y311024D01*
X311024D01*
Y212598D01*
D02*
G37*
G36*
X350394Y3937D02*
X3937D01*
Y311024D01*
X42504D01*
Y212598D01*
X42565Y212291D01*
X42739Y212031D01*
X43000Y211857D01*
X43307Y211796D01*
X70063D01*
Y204724D01*
X70124Y204416D01*
X70298Y204156D01*
X70559Y203982D01*
X70866Y203921D01*
X110236D01*
X110544Y203982D01*
X110804Y204156D01*
X110978Y204416D01*
X111039Y204724D01*
Y211796D01*
X156677D01*
Y204725D01*
X156739Y204417D01*
X156913Y204157D01*
X157173Y203983D01*
X157480Y203922D01*
X196850D01*
X197158Y203983D01*
X197418Y204157D01*
X197592Y204417D01*
X197653Y204725D01*
Y211796D01*
X243292D01*
Y204725D01*
X243353Y204417D01*
X243527Y204157D01*
X243787Y203983D01*
X244094Y203922D01*
X283465D01*
X283772Y203983D01*
X284032Y204157D01*
X284206Y204417D01*
X284267Y204725D01*
Y211796D01*
X307895D01*
X314149Y205541D01*
Y204626D01*
X313484D01*
Y196949D01*
X314149D01*
Y192126D01*
X313779D01*
Y181890D01*
X315331D01*
Y176378D01*
X313779D01*
Y166142D01*
X322441D01*
Y176378D01*
X320890D01*
Y181890D01*
X322441D01*
Y192126D01*
X319709D01*
Y196949D01*
X320374D01*
Y204626D01*
X319709D01*
Y206693D01*
X319614Y207412D01*
X319336Y208083D01*
X318895Y208658D01*
X311826Y215727D01*
Y311024D01*
X350394D01*
X350394Y3937D01*
D02*
G37*
%LPC*%
G36*
X110236Y200132D02*
X68898D01*
X68395Y200032D01*
X67970Y199747D01*
X58127Y189904D01*
X57842Y189479D01*
X57743Y188976D01*
Y176243D01*
X57397Y176100D01*
X56710Y175573D01*
X56184Y174886D01*
X55852Y174086D01*
X55739Y173228D01*
X55852Y172370D01*
X56184Y171571D01*
X56710Y170884D01*
X57397Y170357D01*
X58197Y170026D01*
X59055Y169913D01*
X59913Y170026D01*
X60713Y170357D01*
X61400Y170884D01*
X61927Y171571D01*
X62258Y172370D01*
X62371Y173228D01*
X62258Y174086D01*
X61927Y174886D01*
X61400Y175573D01*
X60713Y176100D01*
X60368Y176243D01*
Y188433D01*
X69441Y197506D01*
X109693D01*
X118766Y188433D01*
Y137795D01*
X118866Y137293D01*
X119151Y136867D01*
X148678Y107340D01*
X149104Y107055D01*
X149606Y106955D01*
X223866D01*
X264033Y66788D01*
X264458Y66504D01*
X264961Y66404D01*
X266990D01*
X267301Y65952D01*
X267284Y65813D01*
X266939Y65297D01*
X266794Y64567D01*
X266939Y63837D01*
X267353Y63219D01*
X267971Y62805D01*
X268701Y62660D01*
X273031D01*
X273761Y62805D01*
X274380Y63219D01*
X274793Y63837D01*
X274938Y64567D01*
X274793Y65297D01*
X274448Y65813D01*
X274408Y66142D01*
X274448Y66471D01*
X274793Y66987D01*
X274938Y67716D01*
X274793Y68446D01*
X274380Y69065D01*
Y69518D01*
X274793Y70136D01*
X274938Y70866D01*
X274793Y71596D01*
X274448Y72112D01*
X274408Y72441D01*
X274448Y72770D01*
X274793Y73286D01*
X274938Y74016D01*
X274793Y74745D01*
X274380Y75364D01*
X273761Y75777D01*
X273031Y75923D01*
X268701D01*
X267971Y75777D01*
X267353Y75364D01*
X266895Y75513D01*
X223754Y118654D01*
Y162645D01*
X231277Y170169D01*
X231622Y170026D01*
X232480Y169913D01*
X233338Y170026D01*
X234138Y170357D01*
X234825Y170884D01*
X235352Y171571D01*
X235683Y172370D01*
X235796Y173228D01*
X235683Y174086D01*
X235352Y174886D01*
X234825Y175573D01*
X234138Y176100D01*
X233338Y176431D01*
X232480Y176544D01*
X231622Y176431D01*
X230822Y176100D01*
X230136Y175573D01*
X229609Y174886D01*
X229277Y174086D01*
X229165Y173228D01*
X229277Y172370D01*
X229421Y172025D01*
X221513Y164117D01*
X221228Y163691D01*
X221128Y163189D01*
Y118110D01*
X221144Y118034D01*
X220683Y117788D01*
X207621Y130849D01*
X207195Y131134D01*
X206693Y131234D01*
X146213D01*
X133202Y144245D01*
Y158708D01*
X144663Y170169D01*
X145008Y170026D01*
X145866Y169913D01*
X146724Y170026D01*
X147524Y170357D01*
X148211Y170884D01*
X148738Y171571D01*
X149069Y172370D01*
X149182Y173228D01*
X149069Y174086D01*
X148738Y174886D01*
X148211Y175573D01*
X147524Y176100D01*
X146724Y176431D01*
X145866Y176544D01*
X145008Y176431D01*
X144208Y176100D01*
X143522Y175573D01*
X142995Y174886D01*
X142663Y174086D01*
X142550Y173228D01*
X142663Y172370D01*
X142806Y172025D01*
X130962Y160180D01*
X130677Y159754D01*
X130577Y159252D01*
Y143701D01*
X130677Y143199D01*
X130962Y142773D01*
X144741Y128993D01*
X145167Y128709D01*
X145669Y128609D01*
X206149D01*
X224732Y110026D01*
X224485Y109565D01*
X224410Y109580D01*
X150150D01*
X121391Y138339D01*
Y188976D01*
X121291Y189479D01*
X121007Y189904D01*
X111164Y199747D01*
X110739Y200032D01*
X110236Y200132D01*
D02*
G37*
G36*
X335827Y176378D02*
X327165D01*
Y166142D01*
X328618D01*
Y159646D01*
X324902D01*
Y151378D01*
X325960D01*
Y142913D01*
X323622D01*
Y141547D01*
X323122Y141439D01*
X321729Y142832D01*
X321154Y143273D01*
X320483Y143551D01*
X319764Y143646D01*
X319583Y143622D01*
X308661D01*
Y138110D01*
X318589D01*
X320082Y136617D01*
X320657Y136175D01*
X321328Y135898D01*
X322047Y135803D01*
X323622D01*
Y134252D01*
X333858D01*
Y142913D01*
X331520D01*
Y151378D01*
X337894D01*
Y159646D01*
X334177D01*
Y166142D01*
X335827D01*
Y176378D01*
D02*
G37*
G36*
X108268Y193716D02*
X72835D01*
X72527Y193655D01*
X72267Y193481D01*
X72093Y193221D01*
X72032Y192913D01*
Y169624D01*
X66597Y164189D01*
X9843D01*
X9535Y164128D01*
X9275Y163953D01*
X9101Y163693D01*
X9040Y163386D01*
Y104331D01*
X9101Y104024D01*
X9275Y103763D01*
X9535Y103589D01*
X9843Y103528D01*
X96457D01*
X96457Y103528D01*
X96764Y103589D01*
X97024Y103763D01*
X97024Y103763D01*
X114741Y121479D01*
X114741Y121479D01*
X114915Y121740D01*
X114976Y122047D01*
Y157480D01*
X114915Y157788D01*
X114741Y158048D01*
X114741Y158048D01*
X109071Y163718D01*
Y192913D01*
X109009Y193221D01*
X108835Y193481D01*
X108575Y193655D01*
X108268Y193716D01*
D02*
G37*
G36*
X299213Y184418D02*
X298354Y184305D01*
X297555Y183974D01*
X296868Y183447D01*
X296341Y182760D01*
X296198Y182415D01*
X265748D01*
X265246Y182315D01*
X264820Y182030D01*
X243166Y160377D01*
X242882Y159951D01*
X242782Y159449D01*
Y124016D01*
X242882Y123513D01*
X243166Y123088D01*
X274662Y91592D01*
X275088Y91307D01*
X275590Y91207D01*
X280952D01*
X284514Y87645D01*
Y83768D01*
X284252Y83617D01*
X283990Y83768D01*
Y85433D01*
X283890Y85935D01*
X283605Y86361D01*
X280456Y89511D01*
X280030Y89795D01*
X279528Y89895D01*
X274166D01*
X233793Y130268D01*
Y158403D01*
X234138Y158546D01*
X234825Y159073D01*
X235352Y159759D01*
X235683Y160559D01*
X235796Y161417D01*
X235683Y162276D01*
X235352Y163075D01*
X234825Y163762D01*
X234138Y164289D01*
X233338Y164620D01*
X232480Y164733D01*
X232223Y164699D01*
X231990Y165173D01*
X232827Y166010D01*
X236221D01*
X236723Y166110D01*
X237149Y166395D01*
X241086Y170332D01*
X241370Y170757D01*
X241470Y171260D01*
Y177165D01*
X241370Y177668D01*
X241086Y178094D01*
X237149Y182030D01*
X236723Y182315D01*
X236221Y182415D01*
X165551D01*
X165049Y182315D01*
X164623Y182030D01*
X147070Y164477D01*
X146724Y164620D01*
X145866Y164733D01*
X145008Y164620D01*
X144208Y164289D01*
X143522Y163762D01*
X142995Y163075D01*
X142663Y162276D01*
X142550Y161417D01*
X142663Y160559D01*
X142995Y159759D01*
X143522Y159073D01*
X144208Y158546D01*
X145008Y158214D01*
X145866Y158102D01*
X146724Y158214D01*
X147524Y158546D01*
X148211Y159073D01*
X148738Y159759D01*
X149069Y160559D01*
X149182Y161417D01*
X149069Y162276D01*
X148926Y162621D01*
X166095Y179790D01*
X235677D01*
X238845Y176622D01*
Y171803D01*
X235677Y168635D01*
X232283D01*
X231781Y168535D01*
X231355Y168251D01*
X225450Y162346D01*
X225165Y161920D01*
X225065Y161417D01*
Y129921D01*
X225165Y129419D01*
X225450Y128993D01*
X270725Y83718D01*
X271151Y83433D01*
X271654Y83333D01*
X274635D01*
X274891Y82833D01*
X274616Y82423D01*
X274471Y81693D01*
Y77362D01*
X274616Y76632D01*
X275030Y76014D01*
X275648Y75601D01*
X276378Y75455D01*
X277108Y75601D01*
X277624Y75946D01*
X277953Y75986D01*
X278282Y75946D01*
X278798Y75601D01*
X279528Y75455D01*
X280257Y75601D01*
X280773Y75946D01*
X281102Y75986D01*
X281431Y75946D01*
X281947Y75601D01*
X282677Y75455D01*
X283407Y75601D01*
X283923Y75946D01*
X284252Y75986D01*
X284581Y75946D01*
X285097Y75601D01*
X285827Y75455D01*
X286556Y75601D01*
X287072Y75946D01*
X287402Y75986D01*
X287731Y75946D01*
X288247Y75601D01*
X288976Y75455D01*
X289706Y75601D01*
X290222Y75946D01*
X290551Y75986D01*
X290880Y75946D01*
X291396Y75601D01*
X291611Y75558D01*
X291716Y75027D01*
X291592Y74944D01*
X289639Y72992D01*
X289370Y73045D01*
X288536Y72879D01*
X287829Y72407D01*
X287357Y71700D01*
X287191Y70866D01*
X287357Y70032D01*
X287829Y69325D01*
X288536Y68853D01*
X289370Y68687D01*
X290204Y68853D01*
X290911Y69325D01*
X291384Y70032D01*
X291549Y70866D01*
X291496Y71135D01*
X293063Y72703D01*
X299696D01*
X299848Y72441D01*
X299696Y72179D01*
X299213D01*
X298710Y72079D01*
X298285Y71794D01*
X295545Y69055D01*
X295276Y69108D01*
X294442Y68942D01*
X293735Y68470D01*
X293262Y67763D01*
X293096Y66929D01*
X293262Y66095D01*
X293735Y65388D01*
X294442Y64916D01*
X295276Y64750D01*
X296110Y64916D01*
X296817Y65388D01*
X297289Y66095D01*
X297455Y66929D01*
X297401Y67198D01*
X299756Y69554D01*
X300255D01*
X300419Y69077D01*
X300422Y69063D01*
X300010Y68446D01*
X299865Y67716D01*
X300010Y66987D01*
X300355Y66471D01*
X300395Y66142D01*
X300355Y65813D01*
X300010Y65297D01*
X299865Y64567D01*
X300010Y63837D01*
X300423Y63219D01*
X301042Y62805D01*
X301772Y62660D01*
X306102D01*
X306832Y62805D01*
X307451Y63219D01*
X307474Y63254D01*
X312402D01*
Y62008D01*
X312575D01*
Y60039D01*
X312402D01*
Y54134D01*
X312575D01*
Y46821D01*
X300030Y34276D01*
X272805D01*
X260260Y46821D01*
Y54134D01*
X260433D01*
Y55774D01*
X263779D01*
X264282Y55874D01*
X264708Y56158D01*
X265504Y56955D01*
X266990D01*
X267301Y56504D01*
X267284Y56364D01*
X266939Y55848D01*
X266794Y55118D01*
X266939Y54388D01*
X267284Y53872D01*
X267325Y53543D01*
X267284Y53214D01*
X266939Y52698D01*
X266794Y51968D01*
X266939Y51239D01*
X267353Y50620D01*
X267971Y50207D01*
X268701Y50062D01*
X273031D01*
X273761Y50207D01*
X274380Y50620D01*
X274793Y51239D01*
X274938Y51968D01*
X274793Y52698D01*
X274448Y53214D01*
X274408Y53543D01*
X274448Y53872D01*
X274793Y54388D01*
X274938Y55118D01*
X274793Y55848D01*
X274448Y56364D01*
X274408Y56693D01*
X274448Y57022D01*
X274793Y57538D01*
X274938Y58268D01*
X274793Y58997D01*
X274380Y59616D01*
X273761Y60029D01*
X273031Y60174D01*
X268701D01*
X267971Y60029D01*
X267353Y59616D01*
X267329Y59580D01*
X264961D01*
X264458Y59480D01*
X264033Y59196D01*
X263236Y58399D01*
X260433D01*
Y60039D01*
X260260D01*
Y62008D01*
X260433D01*
Y67913D01*
X256384D01*
X244629Y79668D01*
X244203Y79953D01*
X243701Y80053D01*
X50039D01*
X49537Y79953D01*
X49111Y79668D01*
X36983Y67540D01*
X36409Y67778D01*
X35433Y67906D01*
X34457Y67778D01*
X33547Y67401D01*
X32766Y66801D01*
X32166Y66020D01*
X31789Y65110D01*
X31661Y64134D01*
X31789Y63157D01*
X32166Y62248D01*
X32766Y61466D01*
X33547Y60867D01*
X34457Y60490D01*
X35433Y60361D01*
X36409Y60490D01*
X37319Y60867D01*
X38101Y61466D01*
X38700Y62248D01*
X39077Y63157D01*
X39206Y64134D01*
X39077Y65110D01*
X38839Y65684D01*
X50583Y77428D01*
X243157D01*
X254528Y66057D01*
Y62008D01*
X254701D01*
Y60039D01*
X254528D01*
Y54134D01*
X254701D01*
Y45669D01*
X254795Y44950D01*
X255073Y44280D01*
X255515Y43704D01*
X269688Y29531D01*
X270264Y29089D01*
X270934Y28811D01*
X271654Y28716D01*
X301181D01*
X301901Y28811D01*
X302571Y29089D01*
X303147Y29531D01*
X317320Y43704D01*
X317762Y44280D01*
X318039Y44950D01*
X318134Y45669D01*
Y54134D01*
X318307D01*
Y60039D01*
X318134D01*
Y62008D01*
X318307D01*
Y67913D01*
X318134D01*
Y69937D01*
X318163Y70008D01*
X318276Y70866D01*
X318163Y71724D01*
X318134Y71795D01*
Y97933D01*
X318039Y98652D01*
X317762Y99323D01*
X317320Y99899D01*
X311417Y105801D01*
Y106699D01*
X316112Y111394D01*
X318996D01*
Y110728D01*
X326673D01*
Y117618D01*
X318996D01*
Y116953D01*
X316953D01*
Y120134D01*
X319764D01*
X320483Y120228D01*
X321154Y120506D01*
X321729Y120948D01*
X323122Y122341D01*
X323622Y122232D01*
Y120866D01*
X333858D01*
Y129527D01*
X323622D01*
Y127977D01*
X322047D01*
X321328Y127882D01*
X320657Y127604D01*
X320082Y127162D01*
X318612Y125693D01*
X314173D01*
X313993Y125669D01*
X308661D01*
Y120158D01*
X311394D01*
Y114961D01*
X311443Y114586D01*
X310734Y113878D01*
X298622D01*
Y102657D01*
X306699D01*
X312575Y96782D01*
Y73157D01*
X312089Y72524D01*
X311758Y71724D01*
X311645Y70866D01*
X311758Y70008D01*
X312089Y69208D01*
X312575Y68576D01*
Y67913D01*
X312402D01*
Y65880D01*
X307813D01*
X307502Y66331D01*
X307519Y66471D01*
X307864Y66987D01*
X308009Y67716D01*
X307864Y68446D01*
X307451Y69065D01*
Y69518D01*
X307864Y70136D01*
X308009Y70866D01*
X307864Y71596D01*
X307519Y72112D01*
X307478Y72441D01*
X307519Y72770D01*
X307864Y73286D01*
X308009Y74016D01*
X307864Y74745D01*
X307451Y75364D01*
X306832Y75777D01*
X306102Y75923D01*
X301772D01*
X301042Y75777D01*
X300423Y75364D01*
X300400Y75328D01*
X299647D01*
X299496Y75828D01*
X299773Y76014D01*
X300187Y76632D01*
X300332Y77362D01*
Y81693D01*
X300187Y82423D01*
X299773Y83041D01*
X299155Y83455D01*
X298425Y83600D01*
X297695Y83455D01*
X297179Y83110D01*
X297040Y83092D01*
X296588Y83404D01*
Y86071D01*
X299538Y89020D01*
X299640Y89010D01*
X300347Y88538D01*
X301181Y88372D01*
X302015Y88538D01*
X302722Y89010D01*
X303194Y89717D01*
X303360Y90551D01*
X303194Y91385D01*
X302722Y92092D01*
X302015Y92565D01*
X301181Y92730D01*
X300347Y92565D01*
X299640Y92092D01*
X299487Y91864D01*
X299213D01*
X298710Y91764D01*
X298284Y91479D01*
X294347Y87542D01*
X294063Y87116D01*
X293963Y86614D01*
Y83404D01*
X293512Y83092D01*
X293372Y83110D01*
X292856Y83455D01*
X292126Y83600D01*
X291396Y83455D01*
X290880Y83110D01*
X290551Y83069D01*
X290222Y83110D01*
X289706Y83455D01*
X288976Y83600D01*
X288247Y83455D01*
X287731Y83110D01*
X287591Y83092D01*
X287139Y83404D01*
Y88189D01*
X287039Y88691D01*
X286755Y89117D01*
X282424Y93448D01*
X281998Y93732D01*
X281496Y93832D01*
X276134D01*
X245407Y124559D01*
Y158905D01*
X266292Y179790D01*
X296198D01*
X296341Y179445D01*
X296868Y178758D01*
X297555Y178231D01*
X298354Y177900D01*
X299213Y177787D01*
X300071Y177900D01*
X300870Y178231D01*
X301557Y178758D01*
X302084Y179445D01*
X302415Y180244D01*
X302528Y181102D01*
X302415Y181960D01*
X302084Y182760D01*
X301557Y183447D01*
X300870Y183974D01*
X300071Y184305D01*
X299213Y184418D01*
D02*
G37*
G36*
X90551Y73163D02*
X53150D01*
X52647Y73063D01*
X52221Y72778D01*
X46983Y67540D01*
X46409Y67778D01*
X45433Y67906D01*
X44457Y67778D01*
X43547Y67401D01*
X42766Y66801D01*
X42166Y66020D01*
X41789Y65110D01*
X41661Y64134D01*
X41789Y63157D01*
X42166Y62248D01*
X42766Y61466D01*
X43547Y60867D01*
X43445Y60368D01*
X40354D01*
X39852Y60268D01*
X39426Y59983D01*
X37317Y57874D01*
X31693D01*
Y50394D01*
X39173D01*
Y56018D01*
X40898Y57743D01*
X43171D01*
X43341Y57243D01*
X42766Y56801D01*
X42166Y56020D01*
X41789Y55110D01*
X41661Y54134D01*
X41789Y53158D01*
X42166Y52248D01*
X42766Y51466D01*
X43547Y50867D01*
X44457Y50490D01*
X45433Y50361D01*
X46409Y50490D01*
X46983Y50728D01*
X64190Y33521D01*
X64616Y33236D01*
X65118Y33136D01*
X182362D01*
X182514Y32908D01*
X183221Y32435D01*
X184055Y32269D01*
X184889Y32435D01*
X185596Y32908D01*
X186068Y33615D01*
X186234Y34449D01*
X186068Y35283D01*
X185596Y35990D01*
X184889Y36462D01*
X184055Y36628D01*
X183221Y36462D01*
X182514Y35990D01*
X182362Y35761D01*
X65662D01*
X48839Y52584D01*
X49077Y53158D01*
X49205Y54134D01*
X49077Y55110D01*
X48700Y56020D01*
X48101Y56801D01*
X47526Y57243D01*
X47695Y57743D01*
X53171D01*
X53341Y57243D01*
X52766Y56801D01*
X52166Y56020D01*
X51789Y55110D01*
X51661Y54134D01*
X51789Y53158D01*
X52166Y52248D01*
X52766Y51466D01*
X53547Y50867D01*
X54457Y50490D01*
X55433Y50361D01*
X56409Y50490D01*
X57319Y50867D01*
X58101Y51466D01*
X58700Y52248D01*
X59077Y53158D01*
X59206Y54134D01*
X59077Y55110D01*
X58700Y56020D01*
X58101Y56801D01*
X57526Y57243D01*
X57695Y57743D01*
X60480D01*
X66001Y52222D01*
X66427Y51937D01*
X66929Y51837D01*
X230590D01*
X230743Y51609D01*
X231450Y51136D01*
X232283Y50970D01*
X233117Y51136D01*
X233824Y51609D01*
X234297Y52316D01*
X234463Y53150D01*
X234297Y53984D01*
X233824Y54691D01*
X233117Y55163D01*
X232559Y55274D01*
X232609Y55774D01*
X235677D01*
X240000Y51451D01*
X239947Y51181D01*
X240113Y50347D01*
X240585Y49640D01*
X241292Y49168D01*
X242126Y49002D01*
X242960Y49168D01*
X243667Y49640D01*
X244139Y50347D01*
X244305Y51181D01*
X244139Y52015D01*
X243667Y52722D01*
X242960Y53194D01*
X242126Y53360D01*
X241857Y53307D01*
X237149Y58015D01*
X236723Y58299D01*
X236221Y58399D01*
X233751D01*
X233625Y58899D01*
X234296Y59258D01*
X235285Y60069D01*
X236097Y61059D01*
X236700Y62187D01*
X237071Y63412D01*
X237197Y64685D01*
X237071Y65958D01*
X236700Y67183D01*
X236097Y68312D01*
X235285Y69301D01*
X234296Y70113D01*
X233167Y70716D01*
X231943Y71087D01*
X230669Y71213D01*
X229396Y71087D01*
X228171Y70716D01*
X227043Y70113D01*
X226054Y69301D01*
X225242Y68312D01*
X224639Y67183D01*
X224267Y65958D01*
X224142Y64685D01*
X224267Y63412D01*
X224639Y62187D01*
X225242Y61059D01*
X226054Y60069D01*
X227043Y59258D01*
X227713Y58899D01*
X227588Y58399D01*
X126743D01*
X126617Y58899D01*
X127288Y59258D01*
X128277Y60069D01*
X129089Y61059D01*
X129692Y62187D01*
X130063Y63412D01*
X130189Y64685D01*
X130063Y65958D01*
X129692Y67183D01*
X129089Y68312D01*
X128277Y69301D01*
X127288Y70113D01*
X126159Y70716D01*
X124935Y71087D01*
X123661Y71213D01*
X122388Y71087D01*
X121163Y70716D01*
X120035Y70113D01*
X119046Y69301D01*
X118234Y68312D01*
X117631Y67183D01*
X117259Y65958D01*
X117134Y64685D01*
X117259Y63412D01*
X117631Y62187D01*
X118234Y61059D01*
X119046Y60069D01*
X120035Y59258D01*
X120705Y58899D01*
X120580Y58399D01*
X105859D01*
X91479Y72778D01*
X91053Y73063D01*
X90551Y73163D01*
D02*
G37*
G36*
X205413Y75426D02*
X204101Y75297D01*
X202840Y74914D01*
X201677Y74293D01*
X200658Y73456D01*
X199821Y72437D01*
X199200Y71275D01*
X198817Y70013D01*
X198688Y68701D01*
X198817Y67389D01*
X199200Y66127D01*
X199821Y64964D01*
X200658Y63945D01*
X201677Y63109D01*
X202840Y62487D01*
X204101Y62105D01*
X205413Y61976D01*
X206725Y62105D01*
X207987Y62487D01*
X209150Y63109D01*
X210169Y63945D01*
X211005Y64964D01*
X211627Y66127D01*
X212010Y67389D01*
X212139Y68701D01*
X212010Y70013D01*
X211627Y71275D01*
X211005Y72437D01*
X210169Y73456D01*
X209150Y74293D01*
X207987Y74914D01*
X206725Y75297D01*
X205413Y75426D01*
D02*
G37*
G36*
X187913D02*
X186601Y75297D01*
X185340Y74914D01*
X184177Y74293D01*
X183158Y73456D01*
X182322Y72437D01*
X181700Y71275D01*
X181317Y70013D01*
X181188Y68701D01*
X181317Y67389D01*
X181700Y66127D01*
X182322Y64964D01*
X183158Y63945D01*
X184177Y63109D01*
X185340Y62487D01*
X186601Y62105D01*
X187913Y61976D01*
X189225Y62105D01*
X190487Y62487D01*
X191650Y63109D01*
X192669Y63945D01*
X193505Y64964D01*
X194127Y66127D01*
X194509Y67389D01*
X194639Y68701D01*
X194509Y70013D01*
X194127Y71275D01*
X193505Y72437D01*
X192669Y73456D01*
X191650Y74293D01*
X190487Y74914D01*
X189225Y75297D01*
X187913Y75426D01*
D02*
G37*
G36*
X148917D02*
X147605Y75297D01*
X146344Y74914D01*
X145181Y74293D01*
X144162Y73456D01*
X143325Y72437D01*
X142704Y71275D01*
X142321Y70013D01*
X142192Y68701D01*
X142321Y67389D01*
X142704Y66127D01*
X143325Y64964D01*
X144162Y63945D01*
X145181Y63109D01*
X146344Y62487D01*
X147605Y62105D01*
X148917Y61976D01*
X150229Y62105D01*
X151491Y62487D01*
X152654Y63109D01*
X153673Y63945D01*
X154509Y64964D01*
X155131Y66127D01*
X155513Y67389D01*
X155643Y68701D01*
X155513Y70013D01*
X155131Y71275D01*
X154509Y72437D01*
X153673Y73456D01*
X152654Y74293D01*
X151491Y74914D01*
X150229Y75297D01*
X148917Y75426D01*
D02*
G37*
G36*
X285433Y65171D02*
X284599Y65005D01*
X283892Y64533D01*
X283420Y63826D01*
X283254Y62992D01*
X283420Y62158D01*
X283892Y61451D01*
X284599Y60979D01*
X285433Y60813D01*
X286267Y60979D01*
X286974Y61451D01*
X287127Y61680D01*
X292763D01*
X297103Y57340D01*
X297529Y57055D01*
X298031Y56955D01*
X299696D01*
X299848Y56693D01*
X299696Y56431D01*
X291882D01*
X291496Y56817D01*
X291549Y57087D01*
X291384Y57921D01*
X290911Y58628D01*
X290204Y59100D01*
X289370Y59266D01*
X288536Y59100D01*
X287829Y58628D01*
X287357Y57921D01*
X287191Y57087D01*
X287357Y56253D01*
X287829Y55546D01*
X288536Y55073D01*
X289370Y54907D01*
X289639Y54961D01*
X290410Y54190D01*
X290836Y53905D01*
X291339Y53806D01*
X300061D01*
X300372Y53354D01*
X300355Y53214D01*
X300010Y52698D01*
X299865Y51968D01*
X300010Y51239D01*
X300423Y50620D01*
X301042Y50207D01*
X301772Y50062D01*
X302624D01*
Y46457D01*
X302724Y45954D01*
X302994Y45551D01*
X302939Y45276D01*
X303105Y44442D01*
X303577Y43735D01*
X304284Y43262D01*
X305118Y43096D01*
X305952Y43262D01*
X306659Y43735D01*
X307132Y44442D01*
X307297Y45276D01*
X307132Y46110D01*
X306659Y46817D01*
X305952Y47289D01*
X305250Y47429D01*
Y50062D01*
X306102D01*
X306832Y50207D01*
X307451Y50620D01*
X307864Y51239D01*
X308009Y51968D01*
X307864Y52698D01*
X307519Y53214D01*
X307478Y53543D01*
X307519Y53872D01*
X307864Y54388D01*
X308009Y55118D01*
X307864Y55848D01*
X307519Y56364D01*
X307478Y56693D01*
X307519Y57022D01*
X307864Y57538D01*
X308009Y58268D01*
X307864Y58997D01*
X307451Y59616D01*
X306832Y60029D01*
X306102Y60174D01*
X301772D01*
X301042Y60029D01*
X300423Y59616D01*
X300400Y59580D01*
X298575D01*
X294235Y63920D01*
X293809Y64205D01*
X293307Y64305D01*
X287127D01*
X286974Y64533D01*
X286267Y65005D01*
X285433Y65171D01*
D02*
G37*
G36*
X298425Y50529D02*
X297695Y50384D01*
X297179Y50039D01*
X296850Y49998D01*
X296521Y50039D01*
X296005Y50384D01*
X295276Y50529D01*
X294546Y50384D01*
X294030Y50039D01*
X293701Y49998D01*
X293372Y50039D01*
X292856Y50384D01*
X292126Y50529D01*
X291396Y50384D01*
X290880Y50039D01*
X290551Y49998D01*
X290222Y50039D01*
X289706Y50384D01*
X288976Y50529D01*
X288247Y50384D01*
X287731Y50039D01*
X287402Y49998D01*
X287072Y50039D01*
X286556Y50384D01*
X285827Y50529D01*
X285097Y50384D01*
X284581Y50039D01*
X284252Y49998D01*
X283923Y50039D01*
X283407Y50384D01*
X282677Y50529D01*
X281947Y50384D01*
X281431Y50039D01*
X281102Y49998D01*
X280773Y50039D01*
X280257Y50384D01*
X279528Y50529D01*
X278798Y50384D01*
X278282Y50039D01*
X277953Y49998D01*
X277624Y50039D01*
X277108Y50384D01*
X276378Y50529D01*
X275648Y50384D01*
X275030Y49970D01*
X274616Y49352D01*
X274471Y48622D01*
Y44291D01*
X274616Y43562D01*
X275030Y42943D01*
X275648Y42530D01*
X276378Y42385D01*
X277108Y42530D01*
X277624Y42875D01*
X277953Y42915D01*
X278282Y42875D01*
X278798Y42530D01*
X279528Y42385D01*
X280091Y42497D01*
X280337Y42036D01*
X279797Y41496D01*
X279528Y41549D01*
X278694Y41383D01*
X277987Y40911D01*
X277514Y40204D01*
X277348Y39370D01*
X277514Y38536D01*
X277987Y37829D01*
X278694Y37357D01*
X279528Y37191D01*
X280362Y37357D01*
X281068Y37829D01*
X281541Y38536D01*
X281707Y39370D01*
X281653Y39639D01*
X283605Y41592D01*
X283890Y42017D01*
X283940Y42271D01*
X284261Y42429D01*
X284514Y42262D01*
Y41327D01*
X283892Y40911D01*
X283420Y40204D01*
X283254Y39370D01*
X283420Y38536D01*
X283892Y37829D01*
X284599Y37357D01*
X285433Y37191D01*
X286267Y37357D01*
X286974Y37829D01*
X287446Y38536D01*
X287612Y39370D01*
X287446Y40204D01*
X287139Y40664D01*
Y42216D01*
X287402Y42367D01*
X287664Y42216D01*
Y41732D01*
X287764Y41230D01*
X288048Y40804D01*
X289213Y39639D01*
X289159Y39370D01*
X289325Y38536D01*
X289798Y37829D01*
X290505Y37357D01*
X291339Y37191D01*
X292173Y37357D01*
X292880Y37829D01*
X293352Y38536D01*
X293518Y39370D01*
X293352Y40204D01*
X292880Y40911D01*
X292173Y41383D01*
X291339Y41549D01*
X291069Y41496D01*
X290427Y42138D01*
X290466Y42703D01*
X290740Y42892D01*
X290880Y42875D01*
X291396Y42530D01*
X292126Y42385D01*
X292856Y42530D01*
X293372Y42875D01*
X293701Y42915D01*
X294030Y42875D01*
X294546Y42530D01*
X295276Y42385D01*
X296005Y42530D01*
X296521Y42875D01*
X296850Y42915D01*
X297179Y42875D01*
X297695Y42530D01*
X298425Y42385D01*
X299155Y42530D01*
X299773Y42943D01*
X300187Y43562D01*
X300332Y44291D01*
Y48622D01*
X300187Y49352D01*
X299773Y49970D01*
X299155Y50384D01*
X298425Y50529D01*
D02*
G37*
G36*
X205413Y50426D02*
X204101Y50297D01*
X202840Y49914D01*
X201677Y49293D01*
X200658Y48456D01*
X199821Y47437D01*
X199200Y46275D01*
X198817Y45013D01*
X198688Y43701D01*
X198817Y42389D01*
X199200Y41127D01*
X199821Y39964D01*
X200658Y38945D01*
X201677Y38109D01*
X202840Y37487D01*
X204101Y37105D01*
X205413Y36975D01*
X206725Y37105D01*
X207987Y37487D01*
X209150Y38109D01*
X210169Y38945D01*
X211005Y39964D01*
X211627Y41127D01*
X212010Y42389D01*
X212139Y43701D01*
X212010Y45013D01*
X211627Y46275D01*
X211005Y47437D01*
X210169Y48456D01*
X209150Y49293D01*
X207987Y49914D01*
X206725Y50297D01*
X205413Y50426D01*
D02*
G37*
G36*
X187913D02*
X186601Y50297D01*
X185340Y49914D01*
X184177Y49293D01*
X183158Y48456D01*
X182322Y47437D01*
X181700Y46275D01*
X181317Y45013D01*
X181188Y43701D01*
X181317Y42389D01*
X181700Y41127D01*
X182322Y39964D01*
X183158Y38945D01*
X184177Y38109D01*
X185340Y37487D01*
X186601Y37105D01*
X187913Y36975D01*
X189225Y37105D01*
X190487Y37487D01*
X191650Y38109D01*
X192669Y38945D01*
X193505Y39964D01*
X194127Y41127D01*
X194509Y42389D01*
X194639Y43701D01*
X194509Y45013D01*
X194127Y46275D01*
X193505Y47437D01*
X192669Y48456D01*
X191650Y49293D01*
X190487Y49914D01*
X189225Y50297D01*
X187913Y50426D01*
D02*
G37*
G36*
X166417D02*
X165105Y50297D01*
X163844Y49914D01*
X162681Y49293D01*
X161662Y48456D01*
X160826Y47437D01*
X160204Y46275D01*
X159821Y45013D01*
X159692Y43701D01*
X159821Y42389D01*
X160204Y41127D01*
X160826Y39964D01*
X161662Y38945D01*
X162681Y38109D01*
X163844Y37487D01*
X165105Y37105D01*
X166417Y36975D01*
X167729Y37105D01*
X168991Y37487D01*
X170154Y38109D01*
X171173Y38945D01*
X172009Y39964D01*
X172631Y41127D01*
X173013Y42389D01*
X173143Y43701D01*
X173013Y45013D01*
X172631Y46275D01*
X172009Y47437D01*
X171173Y48456D01*
X170154Y49293D01*
X168991Y49914D01*
X167729Y50297D01*
X166417Y50426D01*
D02*
G37*
G36*
X148917D02*
X147605Y50297D01*
X146344Y49914D01*
X145181Y49293D01*
X144162Y48456D01*
X143325Y47437D01*
X142704Y46275D01*
X142321Y45013D01*
X142192Y43701D01*
X142321Y42389D01*
X142704Y41127D01*
X143325Y39964D01*
X144162Y38945D01*
X145181Y38109D01*
X146344Y37487D01*
X147605Y37105D01*
X148917Y36975D01*
X150229Y37105D01*
X151491Y37487D01*
X152654Y38109D01*
X153673Y38945D01*
X154509Y39964D01*
X155131Y41127D01*
X155513Y42389D01*
X155643Y43701D01*
X155513Y45013D01*
X155131Y46275D01*
X154509Y47437D01*
X153673Y48456D01*
X152654Y49293D01*
X151491Y49914D01*
X150229Y50297D01*
X148917Y50426D01*
D02*
G37*
G36*
X177165Y26212D02*
X175892Y26087D01*
X174667Y25716D01*
X173539Y25113D01*
X172550Y24301D01*
X171738Y23312D01*
X171135Y22183D01*
X170763Y20958D01*
X170638Y19685D01*
X170763Y18412D01*
X171135Y17187D01*
X171738Y16059D01*
X172550Y15069D01*
X173539Y14258D01*
X174667Y13654D01*
X175892Y13283D01*
X177165Y13158D01*
X178439Y13283D01*
X179663Y13654D01*
X180792Y14258D01*
X181781Y15069D01*
X182593Y16059D01*
X183196Y17187D01*
X183567Y18412D01*
X183693Y19685D01*
X183567Y20958D01*
X183196Y22183D01*
X182593Y23312D01*
X181781Y24301D01*
X180792Y25113D01*
X179663Y25716D01*
X178439Y26087D01*
X177165Y26212D01*
D02*
G37*
%LPD*%
G36*
X108268Y163386D02*
Y163386D01*
X114173Y157480D01*
Y122047D01*
X114173D01*
X96457Y104331D01*
X9843D01*
Y163386D01*
X66929D01*
X72835Y169291D01*
Y192913D01*
X108268D01*
Y163386D01*
D02*
G37*
G36*
X229198Y161674D02*
X229165Y161417D01*
X229277Y160559D01*
X229609Y159759D01*
X230136Y159073D01*
X230822Y158546D01*
X231168Y158403D01*
Y129724D01*
X231268Y129222D01*
X231552Y128796D01*
X272694Y87655D01*
X273120Y87370D01*
X273622Y87270D01*
X278984D01*
X281364Y84889D01*
Y83524D01*
X281105Y83297D01*
X280609Y83376D01*
X280456Y83605D01*
X278487Y85574D01*
X278061Y85858D01*
X277559Y85958D01*
X272197D01*
X227691Y130465D01*
Y160874D01*
X228725Y161908D01*
X229198Y161674D01*
D02*
G37*
G36*
X104387Y56159D02*
X104813Y55874D01*
X105315Y55774D01*
X231958D01*
X232008Y55274D01*
X231450Y55163D01*
X230743Y54691D01*
X230590Y54462D01*
X67473D01*
X61952Y59983D01*
X61526Y60268D01*
X61024Y60368D01*
X47421D01*
X47319Y60867D01*
X48101Y61466D01*
X48700Y62248D01*
X49077Y63157D01*
X49205Y64134D01*
X49077Y65110D01*
X48839Y65684D01*
X53693Y70538D01*
X90008D01*
X104387Y56159D01*
D02*
G37*
D18*
X110236Y198819D02*
X120079Y188976D01*
Y137795D02*
Y188976D01*
Y137795D02*
X149606Y108268D01*
X68898Y198819D02*
X110236D01*
X59055Y188976D02*
X68898Y198819D01*
X59055Y173228D02*
Y188976D01*
X149606Y108268D02*
X224410D01*
X264961Y67716D01*
X206693Y129921D02*
X265748Y70866D01*
X145669Y129921D02*
X206693D01*
X264961Y67716D02*
X270866D01*
X271654Y84646D02*
X277559D01*
X226378Y129921D02*
X271654Y84646D01*
X226378Y129921D02*
Y161417D01*
X273622Y88583D02*
X279528D01*
X232480Y129724D02*
X273622Y88583D01*
X232480Y129724D02*
Y161417D01*
X275590Y92520D02*
X281496D01*
X244094Y124016D02*
X275590Y92520D01*
X244094Y124016D02*
Y159449D01*
X145866Y161417D02*
X165551Y181102D01*
X236221D01*
X240158Y177165D01*
Y171260D02*
Y177165D01*
X236221Y167323D02*
X240158Y171260D01*
X232283Y167323D02*
X236221D01*
X226378Y161417D02*
X232283Y167323D01*
X277559Y84646D02*
X279528Y82677D01*
Y79528D02*
Y82677D01*
X285827Y79528D02*
Y88189D01*
X281496Y92520D02*
X285827Y88189D01*
X244094Y159449D02*
X265748Y181102D01*
X299213D01*
X282677Y79528D02*
Y85433D01*
X279528Y88583D02*
X282677Y85433D01*
X222441Y163189D02*
X232480Y173228D01*
X222441Y118110D02*
Y163189D01*
X131890Y159252D02*
X145866Y173228D01*
X131890Y143701D02*
Y159252D01*
Y143701D02*
X145669Y129921D01*
X222441Y118110D02*
X266535Y74016D01*
X270866D01*
X265748Y70866D02*
X270866D01*
X257480Y57087D02*
X263779D01*
X264961Y58268D01*
X270866D01*
X303937Y64567D02*
X314961D01*
X289370Y57087D02*
X291339Y55118D01*
X303937D01*
X303937Y55118D01*
X298031Y58268D02*
X303937D01*
X285433Y62992D02*
X293307D01*
X298031Y58268D01*
X303937Y46457D02*
Y51968D01*
Y46457D02*
X305118Y45276D01*
X279528Y39370D02*
X282677Y42520D01*
Y46457D01*
X285827Y39764D02*
Y46457D01*
X285433Y39370D02*
X285827Y39764D01*
X295276Y79528D02*
Y86614D01*
X299213Y90551D01*
X301181D01*
X288976Y41732D02*
Y46457D01*
Y41732D02*
X291339Y39370D01*
X65118Y34449D02*
X184055D01*
X243701Y78740D02*
X257480Y64961D01*
X299213Y70866D02*
X303937D01*
X295276Y66929D02*
X299213Y70866D01*
X292520Y74016D02*
X303937D01*
X289370Y70866D02*
X292520Y74016D01*
X236221Y57087D02*
X242126Y51181D01*
X105315Y57087D02*
X236221D01*
X90551Y71850D02*
X105315Y57087D01*
X50039Y78740D02*
X243701D01*
X35433Y64134D02*
X50039Y78740D01*
X53150Y71850D02*
X90551D01*
X45433Y64134D02*
X53150Y71850D01*
X45433Y54134D02*
X65118Y34449D01*
X66929Y53150D02*
X232283D01*
X40354Y59055D02*
X61024D01*
X35433Y54134D02*
X40354Y59055D01*
X61024D02*
X66929Y53150D01*
D19*
X148917Y43701D02*
D03*
X205413D02*
D03*
X166417D02*
D03*
X187913D02*
D03*
Y68701D02*
D03*
X166417D02*
D03*
X205413D02*
D03*
X148917D02*
D03*
D20*
X54370Y148858D02*
D03*
Y118858D02*
D03*
Y128858D02*
D03*
Y138858D02*
D03*
X44370Y148858D02*
D03*
Y118858D02*
D03*
Y128858D02*
D03*
Y138858D02*
D03*
X34370D02*
D03*
Y128858D02*
D03*
Y118858D02*
D03*
X24370D02*
D03*
Y128858D02*
D03*
Y138858D02*
D03*
X34370Y148858D02*
D03*
X24370D02*
D03*
X192165Y278780D02*
D03*
Y248780D02*
D03*
Y258780D02*
D03*
Y268779D02*
D03*
X182165Y278780D02*
D03*
Y248780D02*
D03*
Y258780D02*
D03*
Y268779D02*
D03*
X172165D02*
D03*
Y258780D02*
D03*
Y248780D02*
D03*
X162165D02*
D03*
Y258780D02*
D03*
Y268779D02*
D03*
X172165Y278780D02*
D03*
X162165D02*
D03*
D21*
X19685Y295276D02*
D03*
X334646D02*
D03*
Y19685D02*
D03*
X19685D02*
D03*
D22*
X55433Y64134D02*
D03*
Y54134D02*
D03*
X45433Y64134D02*
D03*
Y54134D02*
D03*
X35433Y64134D02*
D03*
D23*
Y54134D02*
D03*
D24*
X295276Y295276D02*
D03*
Y255906D02*
D03*
X275591Y295276D02*
D03*
X285433Y275591D02*
D03*
X275591Y255906D02*
D03*
X255906Y295276D02*
D03*
X265748Y275591D02*
D03*
X255906Y255906D02*
D03*
X236221Y295276D02*
D03*
X246063Y275591D02*
D03*
X236221Y255906D02*
D03*
X216535Y295276D02*
D03*
X226378Y275591D02*
D03*
X216535Y255906D02*
D03*
X226378Y236221D02*
D03*
X206693Y275591D02*
D03*
Y236221D02*
D03*
X137795Y295276D02*
D03*
X147638Y275591D02*
D03*
X137795Y255906D02*
D03*
X147638Y236221D02*
D03*
X118110Y295276D02*
D03*
X127953Y275591D02*
D03*
X118110Y255906D02*
D03*
X127953Y236221D02*
D03*
X98425Y295276D02*
D03*
X108268Y275591D02*
D03*
X98425Y255906D02*
D03*
X78740Y295276D02*
D03*
X88583Y275591D02*
D03*
X78740Y255906D02*
D03*
X59055Y295276D02*
D03*
X68898Y275591D02*
D03*
X59055Y255906D02*
D03*
X100787Y171654D02*
D03*
X107874Y157480D02*
D03*
X100787Y143307D02*
D03*
X107874Y129134D02*
D03*
X100787Y114961D02*
D03*
X86614Y171654D02*
D03*
X93701Y157480D02*
D03*
X86614Y143307D02*
D03*
X93701Y129134D02*
D03*
X79528Y157480D02*
D03*
X72441Y143307D02*
D03*
X79528Y129134D02*
D03*
X72441Y114961D02*
D03*
D25*
X299213Y181102D02*
D03*
X263779Y147638D02*
D03*
X255906D02*
D03*
X271654D02*
D03*
X177165D02*
D03*
X169291D02*
D03*
X185039D02*
D03*
X90551Y229331D02*
D03*
Y215551D02*
D03*
X78740D02*
D03*
Y229331D02*
D03*
X84646Y222441D02*
D03*
X96457D02*
D03*
X102362Y229331D02*
D03*
Y215551D02*
D03*
X188976D02*
D03*
Y229331D02*
D03*
X183071Y222441D02*
D03*
X171260D02*
D03*
X165354Y229331D02*
D03*
Y215551D02*
D03*
X177165D02*
D03*
Y229331D02*
D03*
X263779D02*
D03*
Y215551D02*
D03*
X251969D02*
D03*
Y229331D02*
D03*
X257874Y222441D02*
D03*
X269685D02*
D03*
X275590Y229331D02*
D03*
Y215551D02*
D03*
X59055Y173228D02*
D03*
X232480Y161417D02*
D03*
X145866D02*
D03*
Y173228D02*
D03*
X232480D02*
D03*
X216535Y135827D02*
D03*
X314961Y70866D02*
D03*
X208661Y101378D02*
D03*
X207677Y202756D02*
D03*
D26*
X19685Y305906D02*
D03*
X9055Y295276D02*
D03*
X30315D02*
D03*
X19685Y284646D02*
D03*
X27165Y287795D02*
D03*
X12205D02*
D03*
Y302756D02*
D03*
X27165D02*
D03*
X342126D02*
D03*
Y287795D02*
D03*
X327165D02*
D03*
Y302756D02*
D03*
X324016Y295276D02*
D03*
X334646Y305906D02*
D03*
Y284646D02*
D03*
X345276Y295276D02*
D03*
Y19685D02*
D03*
X334646Y9055D02*
D03*
Y30315D02*
D03*
X324016Y19685D02*
D03*
X327165Y27165D02*
D03*
Y12205D02*
D03*
X342126D02*
D03*
Y27165D02*
D03*
X27165D02*
D03*
Y12205D02*
D03*
X12205D02*
D03*
Y27165D02*
D03*
X9055Y19685D02*
D03*
X19685Y30315D02*
D03*
Y9055D02*
D03*
X30315Y19685D02*
D03*
D27*
X289370Y57087D02*
D03*
X285433Y62992D02*
D03*
X305118Y45276D02*
D03*
X279528Y39370D02*
D03*
X285433D02*
D03*
X301181Y90551D02*
D03*
X291339Y39370D02*
D03*
X184055Y34449D02*
D03*
X289370Y70866D02*
D03*
X295276Y66929D02*
D03*
X242126Y51181D02*
D03*
X232283Y53150D02*
D03*
D28*
X250394Y57087D02*
D03*
X257480D02*
D03*
X250394Y64961D02*
D03*
X257480D02*
D03*
X322441Y64961D02*
D03*
X315354D02*
D03*
X322441Y57087D02*
D03*
X315354D02*
D03*
D29*
X298425Y79528D02*
D03*
X295276D02*
D03*
X292126D02*
D03*
X288976D02*
D03*
X285827D02*
D03*
X282677D02*
D03*
X279528D02*
D03*
X276378D02*
D03*
Y46457D02*
D03*
X279528D02*
D03*
X282677D02*
D03*
X285827D02*
D03*
X288976D02*
D03*
X292126D02*
D03*
X295276D02*
D03*
X298425D02*
D03*
D30*
X270866Y74016D02*
D03*
Y70866D02*
D03*
Y67716D02*
D03*
Y64567D02*
D03*
Y61417D02*
D03*
Y58268D02*
D03*
Y55118D02*
D03*
Y51968D02*
D03*
X303937D02*
D03*
Y55118D02*
D03*
Y58268D02*
D03*
Y61417D02*
D03*
Y64567D02*
D03*
Y67716D02*
D03*
Y70866D02*
D03*
Y74016D02*
D03*
D31*
X305020Y108268D02*
D03*
X285531D02*
D03*
D32*
X288976Y131890D02*
D03*
D33*
X314173Y122913D02*
D03*
Y140866D02*
D03*
D34*
X331398Y155512D02*
D03*
X318209D02*
D03*
D35*
X328740Y125197D02*
D03*
Y138583D02*
D03*
D36*
X318110Y171260D02*
D03*
X331496D02*
D03*
X331496Y187008D02*
D03*
X318110D02*
D03*
D37*
X322835Y114173D02*
D03*
Y106299D02*
D03*
D38*
X316929Y200787D02*
D03*
X324803D02*
D03*
D39*
X315354Y57087D02*
Y64961D01*
Y45669D02*
Y57087D01*
X305020Y108268D02*
X315354Y97933D01*
X318110Y171260D02*
Y187795D01*
X316929Y188976D02*
X318110Y187795D01*
X328740Y153543D02*
X331398Y156201D01*
Y155512D02*
Y171161D01*
X328740Y138583D02*
Y153543D01*
X316929Y188976D02*
Y200787D01*
X319764Y140866D02*
X322047Y138583D01*
X328740D01*
X314173Y122913D02*
X319764D01*
X322047Y125197D01*
X328740D01*
X305020Y108268D02*
X309055D01*
X314961Y114173D02*
X322835D01*
X314173Y114961D02*
Y122913D01*
X309055Y108268D02*
X314961Y114173D01*
X316929Y200787D02*
Y206693D01*
X307087Y216535D02*
X316929Y206693D01*
X257480Y57087D02*
Y64961D01*
Y45669D02*
Y57087D01*
X315354Y64961D02*
Y97933D01*
X301181Y31496D02*
X315354Y45669D01*
X257480D02*
X271654Y31496D01*
X301181D01*
D40*
X90551Y221948D02*
D03*
X177165Y221949D02*
D03*
X263779D02*
D03*
M02*
