M48
;Layer_Color=9474304
;FILE_FORMAT=2:5
INCH,LZ
;TYPE=PLATED
T1F00S00C0.01575
T2F00S00C0.02362
T3F00S00C0.02800
T4F00S00C0.04331
T5F00S00C0.06299
T6F00S00C0.07087
T7F00S00C0.13780
;TYPE=NON_PLATED
T8F00S00C0.11417
%
T01
X032874Y0090551
Y0106299
X0064961Y0106299
X0064961Y0090551
Y0122047
X0078543Y0139567
X0113976Y0139567
X005315Y0153543
X0045276
X0037402
X0155512Y0155512
X0160354Y0151614
X0170079Y0155512
X0223346Y0151614
X0233465Y0155512
X0279331Y0139567
X0314764
X032874Y0122047
X0340551Y0153543
X0348425
X0356299
X0305118Y032874
Y0334646
X0223622Y0313779
X0204331Y0312992
X0194882Y0312992
X0190945Y0311024
X018937Y0304331
X0176772Y0301181
Y0294882
X0173228Y0298031
X0175197Y0307087
X0164961Y0314567
X0157087
X0149213
X0175197Y0287402
X0207874Y0295276
X0236221Y0299213
T02
X034685Y003189
X0354331Y002874
X0361811Y003189
X0364961Y003937
X0361811Y004685
X0354331Y005
X034685Y004685
X0343701Y003937
X005
X004685Y003189
X003937Y002874
X003189Y003189
X002874Y003937
X003189Y004685
X003937Y005
X004685Y004685
X034685Y030748
X0354331Y0304331
X0361811Y030748
X0364961Y0314961
X0361811Y0322441
X0354331Y032559
X034685Y0322441
X0343701Y0314961
X005
X004685Y030748
X003937Y0304331
X003189Y030748
X002874Y0314961
X003189Y0322441
X003937Y032559
X004685Y0322441
T03
X0138976Y0111024
X0254724
X0068898Y0055118
X0049213Y0064961
X0072835Y0160236
X0084646
X007874Y0167126
X0084646Y0174016
X0072835
X0108268Y0174016
X0114173Y0167126
X0108268Y0160236
X0120079
Y0174016
X0153543Y0172244
X0165354
X0177165
X017126Y0179134
X0159449
X0153543Y0186024
X0165354
X0177165
X0216535
X0228346
X0240158
X0234252Y0179134
X0222441
X0216535Y0172244
X0228346
X0240158
X025Y0139764
Y013189
X0240158Y0129921
X0261024Y012874
X0216535Y0129921
X0206693Y013189
Y0139764
X0187008
Y013189
X0177165Y0129921
X0153543
X0143701Y013189
Y0139764
X0132677Y012874
X017126Y0265748
X0278346Y0249213
X0273622Y0174016
X0285433
X0279528Y0167126
X0285433Y0160236
X0273622
X0309055
X0320866
X0314961Y0167126
X0309055Y0174016
X0320866
X0137795Y0326772
T04
X0233307Y0317165
Y0327165
X0243307
X0253307
Y0317165
X0243307
T05
X018185Y0209409
Y0219409
Y022941
Y0239409
X019185
Y022941
Y0219409
Y0209409
X020185
Y0219409
Y022941
Y0239409
X021185
Y022941
Y0219409
Y0209409
T06
X0153056Y0043685
X0170556
X0188056
X0205556
X0223056
X0240556
Y0068685
X0223056
X0205556
X0188056
X0170556
X0153056
T07
X0354331Y003937
X003937
X0354331Y0314961
X003937
T08
X01278Y0064685
X019685Y0019685
X02659Y0064685
M30
