G04 Layer_Color=65535*
%FSLAX25Y25*%
%MOIN*%
G70*
G01*
G75*
%ADD17C,0.01000*%
%ADD18C,0.01969*%
%ADD41C,0.01575*%
%ADD42C,0.00984*%
%ADD43C,0.00787*%
%ADD44C,0.00800*%
%ADD45C,0.01181*%
G36*
X191849Y295276D02*
X163386D01*
Y306811D01*
X191849D01*
Y295276D01*
D02*
G37*
G36*
X58253Y94342D02*
X19685D01*
Y106113D01*
X58253D01*
Y94342D01*
D02*
G37*
G36*
X65287Y70742D02*
X24606D01*
Y82491D01*
X65287D01*
Y70742D01*
D02*
G37*
G36*
X27559Y272642D02*
Y246063D01*
X462Y218966D01*
X0Y219157D01*
Y245736D01*
X27097Y272833D01*
X27559Y272642D01*
D02*
G37*
G36*
Y239178D02*
Y212598D01*
X462Y185501D01*
X0Y185693D01*
Y212272D01*
X27097Y239369D01*
X27559Y239178D01*
D02*
G37*
G36*
Y205713D02*
Y179134D01*
X462Y152037D01*
X0Y152228D01*
Y178807D01*
X27097Y205904D01*
X27559Y205713D01*
D02*
G37*
%LPC*%
G36*
X180023Y304842D02*
X179719D01*
X179539Y304820D01*
X179202Y304764D01*
X178910Y304674D01*
X178786Y304629D01*
X178663Y304584D01*
X178561Y304528D01*
X178460Y304483D01*
X178382Y304438D01*
X178314Y304393D01*
X178258Y304359D01*
X178224Y304337D01*
X178202Y304325D01*
X178190Y304314D01*
X178067Y304213D01*
X177966Y304089D01*
X177865Y303966D01*
X177786Y303831D01*
X177640Y303538D01*
X177539Y303257D01*
X177505Y303123D01*
X177471Y302999D01*
X177437Y302887D01*
X177426Y302785D01*
X177404Y302707D01*
Y302650D01*
X177392Y302606D01*
Y302594D01*
X178842Y302460D01*
X178865Y302684D01*
X178910Y302864D01*
X178955Y303022D01*
X179011Y303145D01*
X179056Y303235D01*
X179101Y303302D01*
X179135Y303347D01*
X179146Y303359D01*
X179258Y303449D01*
X179371Y303516D01*
X179494Y303572D01*
X179618Y303606D01*
X179719Y303628D01*
X179798Y303640D01*
X179876D01*
X180045Y303628D01*
X180180Y303595D01*
X180304Y303550D01*
X180405Y303505D01*
X180495Y303460D01*
X180551Y303415D01*
X180585Y303381D01*
X180596Y303370D01*
X180686Y303269D01*
X180753Y303145D01*
X180798Y303022D01*
X180832Y302898D01*
X180854Y302797D01*
X180866Y302707D01*
Y302650D01*
Y302639D01*
Y302628D01*
X180854Y302460D01*
X180821Y302302D01*
X180764Y302156D01*
X180719Y302021D01*
X180663Y301909D01*
X180607Y301819D01*
X180573Y301763D01*
X180562Y301740D01*
X180517Y301673D01*
X180450Y301594D01*
X180371Y301504D01*
X180281Y301414D01*
X180079Y301201D01*
X179876Y300998D01*
X179674Y300807D01*
X179584Y300729D01*
X179506Y300650D01*
X179438Y300594D01*
X179393Y300549D01*
X179359Y300515D01*
X179348Y300504D01*
X179135Y300301D01*
X178932Y300099D01*
X178752Y299919D01*
X178584Y299739D01*
X178438Y299582D01*
X178303Y299425D01*
X178179Y299290D01*
X178078Y299166D01*
X177988Y299054D01*
X177909Y298964D01*
X177853Y298874D01*
X177808Y298806D01*
X177763Y298750D01*
X177741Y298716D01*
X177718Y298694D01*
Y298683D01*
X177583Y298424D01*
X177471Y298166D01*
X177381Y297930D01*
X177314Y297705D01*
X177269Y297514D01*
X177258Y297435D01*
X177246Y297368D01*
X177235Y297323D01*
X177224Y297278D01*
Y297255D01*
Y297244D01*
X182316D01*
Y298593D01*
X179416D01*
X179506Y298739D01*
X179607Y298863D01*
X179640Y298908D01*
X179674Y298953D01*
X179697Y298975D01*
X179708Y298986D01*
X179753Y299031D01*
X179798Y299087D01*
X179921Y299211D01*
X180068Y299346D01*
X180214Y299492D01*
X180360Y299616D01*
X180472Y299728D01*
X180517Y299773D01*
X180551Y299807D01*
X180573Y299818D01*
X180585Y299829D01*
X180821Y300054D01*
X181023Y300245D01*
X181192Y300414D01*
X181326Y300549D01*
X181416Y300661D01*
X181484Y300729D01*
X181529Y300785D01*
X181540Y300796D01*
X181686Y300987D01*
X181799Y301156D01*
X181900Y301324D01*
X181990Y301470D01*
X182046Y301594D01*
X182091Y301684D01*
X182113Y301740D01*
X182124Y301763D01*
X182192Y301931D01*
X182237Y302111D01*
X182271Y302268D01*
X182293Y302414D01*
X182304Y302549D01*
X182316Y302639D01*
Y302707D01*
Y302729D01*
X182304Y302898D01*
X182293Y303055D01*
X182259Y303201D01*
X182214Y303347D01*
X182113Y303606D01*
X181990Y303819D01*
X181933Y303909D01*
X181866Y303999D01*
X181810Y304067D01*
X181765Y304123D01*
X181720Y304179D01*
X181697Y304213D01*
X181675Y304224D01*
X181664Y304235D01*
X181540Y304348D01*
X181405Y304438D01*
X181259Y304516D01*
X181124Y304584D01*
X180832Y304696D01*
X180551Y304764D01*
X180416Y304797D01*
X180292Y304809D01*
X180191Y304820D01*
X180090Y304831D01*
X180023Y304842D01*
D02*
G37*
G36*
X175245D02*
X174065D01*
X173953Y304595D01*
X173818Y304359D01*
X173661Y304157D01*
X173515Y303977D01*
X173369Y303831D01*
X173256Y303718D01*
X173211Y303685D01*
X173177Y303651D01*
X173155Y303640D01*
X173144Y303628D01*
X172896Y303449D01*
X172672Y303302D01*
X172469Y303179D01*
X172278Y303089D01*
X172132Y303022D01*
X172020Y302965D01*
X171975Y302954D01*
X171941Y302943D01*
X171930Y302931D01*
X171918D01*
Y301616D01*
X172312Y301763D01*
X172672Y301931D01*
X172986Y302111D01*
X173132Y302201D01*
X173267Y302291D01*
X173380Y302381D01*
X173492Y302460D01*
X173582Y302527D01*
X173650Y302583D01*
X173717Y302639D01*
X173762Y302673D01*
X173784Y302695D01*
X173796Y302707D01*
Y297244D01*
X175245D01*
Y304842D01*
D02*
G37*
G36*
X189880Y304809D02*
X188250D01*
X186407Y299211D01*
X184496Y304809D01*
X182844D01*
X185541Y297244D01*
X187194D01*
X189880Y304809D01*
D02*
G37*
G36*
X168659Y303606D02*
X167333D01*
Y301650D01*
X165354D01*
Y300290D01*
X167333D01*
Y298334D01*
X168659D01*
Y300290D01*
X170648D01*
Y301650D01*
X168659D01*
Y303606D01*
D02*
G37*
G36*
X39323Y104021D02*
X37716D01*
X34782Y96457D01*
X36400D01*
X37019Y98176D01*
X40076D01*
X40728Y96457D01*
X42380D01*
X39323Y104021D01*
D02*
G37*
G36*
X56284D02*
X50282D01*
Y102740D01*
X52530D01*
Y96457D01*
X54058D01*
Y102740D01*
X56284D01*
Y104021D01*
D02*
G37*
G36*
X46595D02*
X43189D01*
Y96457D01*
X44718D01*
Y99615D01*
X45201D01*
X45359Y99604D01*
X45494Y99593D01*
X45606Y99570D01*
X45685Y99559D01*
X45741Y99536D01*
X45775Y99525D01*
X45786D01*
X45876Y99492D01*
X45966Y99435D01*
X46044Y99390D01*
X46112Y99334D01*
X46168Y99289D01*
X46213Y99244D01*
X46235Y99222D01*
X46247Y99211D01*
X46292Y99165D01*
X46348Y99098D01*
X46472Y98941D01*
X46606Y98761D01*
X46741Y98570D01*
X46865Y98390D01*
X46910Y98311D01*
X46966Y98244D01*
X47000Y98176D01*
X47034Y98131D01*
X47045Y98109D01*
X47056Y98098D01*
X48158Y96457D01*
X49990D01*
X49057Y97929D01*
X48956Y98087D01*
X48866Y98233D01*
X48776Y98368D01*
X48697Y98491D01*
X48618Y98603D01*
X48551Y98705D01*
X48427Y98873D01*
X48326Y98997D01*
X48247Y99087D01*
X48202Y99143D01*
X48191Y99154D01*
X48068Y99278D01*
X47933Y99402D01*
X47798Y99514D01*
X47674Y99604D01*
X47550Y99683D01*
X47461Y99739D01*
X47404Y99784D01*
X47393Y99795D01*
X47382D01*
X47562Y99829D01*
X47730Y99862D01*
X47888Y99907D01*
X48034Y99964D01*
X48169Y100008D01*
X48281Y100076D01*
X48393Y100132D01*
X48495Y100188D01*
X48585Y100245D01*
X48652Y100301D01*
X48719Y100346D01*
X48776Y100391D01*
X48809Y100424D01*
X48843Y100458D01*
X48866Y100469D01*
Y100481D01*
X48956Y100593D01*
X49034Y100705D01*
X49158Y100941D01*
X49248Y101178D01*
X49304Y101402D01*
X49349Y101593D01*
X49360Y101683D01*
Y101751D01*
X49371Y101818D01*
Y101863D01*
Y101886D01*
Y101897D01*
X49360Y102144D01*
X49315Y102369D01*
X49270Y102571D01*
X49203Y102751D01*
X49147Y102886D01*
X49090Y102998D01*
X49045Y103066D01*
X49034Y103088D01*
X48899Y103268D01*
X48764Y103414D01*
X48618Y103538D01*
X48472Y103639D01*
X48349Y103718D01*
X48247Y103774D01*
X48180Y103796D01*
X48169Y103808D01*
X48158D01*
X48045Y103841D01*
X47921Y103875D01*
X47652Y103931D01*
X47359Y103965D01*
X47067Y103999D01*
X46932D01*
X46809Y104010D01*
X46696D01*
X46595Y104021D01*
D02*
G37*
G36*
X34568D02*
X28566D01*
Y102740D01*
X30814D01*
Y96457D01*
X32343D01*
Y102740D01*
X34568D01*
Y104021D01*
D02*
G37*
G36*
X24823Y104145D02*
X24688D01*
X24374Y104134D01*
X24081Y104100D01*
X23834Y104055D01*
X23609Y104010D01*
X23519Y103988D01*
X23441Y103965D01*
X23362Y103943D01*
X23306Y103920D01*
X23261Y103898D01*
X23227Y103886D01*
X23205Y103875D01*
X23193D01*
X22980Y103774D01*
X22789Y103650D01*
X22631Y103515D01*
X22497Y103392D01*
X22395Y103279D01*
X22317Y103189D01*
X22272Y103133D01*
X22261Y103122D01*
Y103111D01*
X22148Y102920D01*
X22069Y102729D01*
X22013Y102549D01*
X21980Y102380D01*
X21957Y102245D01*
X21935Y102133D01*
Y102088D01*
Y102054D01*
Y102043D01*
Y102032D01*
X21946Y101863D01*
X21968Y101706D01*
X22002Y101560D01*
X22047Y101414D01*
X22148Y101155D01*
X22283Y100930D01*
X22339Y100840D01*
X22407Y100750D01*
X22463Y100672D01*
X22519Y100616D01*
X22553Y100570D01*
X22587Y100537D01*
X22609Y100514D01*
X22620Y100503D01*
X22721Y100424D01*
X22834Y100346D01*
X22957Y100267D01*
X23103Y100200D01*
X23384Y100076D01*
X23665Y99964D01*
X23800Y99919D01*
X23924Y99885D01*
X24036Y99840D01*
X24138Y99817D01*
X24227Y99795D01*
X24284Y99773D01*
X24329Y99761D01*
X24340D01*
X24509Y99716D01*
X24666Y99671D01*
X24812Y99638D01*
X24936Y99604D01*
X25048Y99570D01*
X25149Y99548D01*
X25239Y99525D01*
X25306Y99503D01*
X25430Y99469D01*
X25509Y99446D01*
X25554Y99424D01*
X25565D01*
X25700Y99368D01*
X25812Y99312D01*
X25914Y99267D01*
X25992Y99211D01*
X26048Y99165D01*
X26082Y99132D01*
X26105Y99109D01*
X26116Y99098D01*
X26172Y99019D01*
X26206Y98941D01*
X26251Y98795D01*
X26262Y98738D01*
X26273Y98682D01*
Y98649D01*
Y98637D01*
X26262Y98491D01*
X26217Y98345D01*
X26149Y98221D01*
X26082Y98120D01*
X26015Y98030D01*
X25947Y97963D01*
X25902Y97918D01*
X25891Y97907D01*
X25734Y97806D01*
X25565Y97727D01*
X25374Y97682D01*
X25194Y97637D01*
X25037Y97614D01*
X24902Y97603D01*
X24778D01*
X24531Y97614D01*
X24306Y97659D01*
X24115Y97716D01*
X23958Y97783D01*
X23834Y97839D01*
X23744Y97895D01*
X23688Y97940D01*
X23665Y97952D01*
X23531Y98098D01*
X23418Y98266D01*
X23317Y98457D01*
X23250Y98637D01*
X23193Y98795D01*
X23160Y98930D01*
X23148Y98986D01*
Y99019D01*
X23137Y99042D01*
Y99053D01*
X21654Y98907D01*
X21687Y98671D01*
X21732Y98457D01*
X21788Y98255D01*
X21856Y98064D01*
X21935Y97895D01*
X22002Y97738D01*
X22081Y97592D01*
X22159Y97468D01*
X22238Y97345D01*
X22317Y97255D01*
X22384Y97165D01*
X22440Y97097D01*
X22497Y97041D01*
X22530Y97007D01*
X22553Y96985D01*
X22564Y96974D01*
X22721Y96861D01*
X22879Y96760D01*
X23058Y96670D01*
X23238Y96592D01*
X23418Y96524D01*
X23598Y96468D01*
X23958Y96389D01*
X24126Y96367D01*
X24272Y96344D01*
X24407Y96333D01*
X24531Y96322D01*
X24632Y96311D01*
X24767D01*
X25127Y96322D01*
X25441Y96355D01*
X25722Y96400D01*
X25846Y96423D01*
X25958Y96445D01*
X26060Y96468D01*
X26149Y96490D01*
X26228Y96513D01*
X26296Y96535D01*
X26341Y96558D01*
X26374Y96569D01*
X26397Y96580D01*
X26408D01*
X26644Y96693D01*
X26846Y96828D01*
X27026Y96974D01*
X27172Y97109D01*
X27285Y97232D01*
X27363Y97333D01*
X27420Y97401D01*
X27431Y97412D01*
Y97423D01*
X27555Y97637D01*
X27645Y97862D01*
X27712Y98064D01*
X27757Y98255D01*
X27779Y98412D01*
X27802Y98536D01*
Y98581D01*
Y98615D01*
Y98637D01*
Y98649D01*
X27791Y98907D01*
X27757Y99143D01*
X27701Y99345D01*
X27656Y99525D01*
X27599Y99660D01*
X27543Y99761D01*
X27510Y99829D01*
X27498Y99851D01*
X27375Y100031D01*
X27240Y100177D01*
X27094Y100312D01*
X26959Y100424D01*
X26846Y100514D01*
X26745Y100570D01*
X26678Y100616D01*
X26667Y100627D01*
X26655D01*
X26554Y100683D01*
X26430Y100728D01*
X26172Y100829D01*
X25902Y100919D01*
X25633Y100998D01*
X25396Y101065D01*
X25284Y101099D01*
X25194Y101121D01*
X25115Y101144D01*
X25059Y101155D01*
X25026Y101166D01*
X25014D01*
X24812Y101222D01*
X24632Y101267D01*
X24475Y101312D01*
X24329Y101357D01*
X24194Y101402D01*
X24081Y101447D01*
X23980Y101492D01*
X23902Y101526D01*
X23823Y101560D01*
X23767Y101593D01*
X23722Y101616D01*
X23677Y101638D01*
X23632Y101672D01*
X23621Y101683D01*
X23542Y101762D01*
X23486Y101829D01*
X23452Y101908D01*
X23429Y101976D01*
X23407Y102043D01*
X23396Y102088D01*
Y102122D01*
Y102133D01*
X23407Y102245D01*
X23429Y102335D01*
X23474Y102414D01*
X23519Y102481D01*
X23553Y102538D01*
X23598Y102571D01*
X23621Y102594D01*
X23632Y102605D01*
X23778Y102695D01*
X23946Y102762D01*
X24126Y102819D01*
X24284Y102852D01*
X24441Y102875D01*
X24554Y102886D01*
X24666D01*
X24891Y102875D01*
X25093Y102841D01*
X25262Y102807D01*
X25396Y102762D01*
X25498Y102706D01*
X25576Y102672D01*
X25621Y102639D01*
X25633Y102627D01*
X25745Y102515D01*
X25835Y102391D01*
X25914Y102257D01*
X25970Y102110D01*
X26015Y101987D01*
X26037Y101886D01*
X26060Y101818D01*
Y101807D01*
Y101796D01*
X27588Y101852D01*
X27577Y102043D01*
X27543Y102223D01*
X27498Y102391D01*
X27453Y102549D01*
X27386Y102695D01*
X27330Y102830D01*
X27262Y102953D01*
X27195Y103077D01*
X27116Y103178D01*
X27049Y103257D01*
X26992Y103336D01*
X26936Y103403D01*
X26891Y103448D01*
X26858Y103482D01*
X26835Y103504D01*
X26824Y103515D01*
X26678Y103628D01*
X26520Y103729D01*
X26363Y103808D01*
X26183Y103875D01*
X25835Y103988D01*
X25486Y104066D01*
X25329Y104089D01*
X25172Y104111D01*
X25037Y104122D01*
X24924Y104134D01*
X24823Y104145D01*
D02*
G37*
%LPD*%
G36*
X39570Y99458D02*
X37491D01*
X38513Y102257D01*
X39570Y99458D01*
D02*
G37*
G36*
X46573Y102729D02*
X46809D01*
X46910Y102717D01*
X46966D01*
X47000Y102706D01*
X47011D01*
X47146Y102672D01*
X47258Y102639D01*
X47359Y102594D01*
X47438Y102538D01*
X47506Y102493D01*
X47550Y102448D01*
X47573Y102425D01*
X47584Y102414D01*
X47652Y102324D01*
X47708Y102223D01*
X47742Y102110D01*
X47775Y102021D01*
X47787Y101931D01*
X47798Y101863D01*
Y101818D01*
Y101796D01*
X47787Y101672D01*
X47775Y101560D01*
X47753Y101470D01*
X47719Y101380D01*
X47685Y101312D01*
X47663Y101267D01*
X47652Y101234D01*
X47640Y101222D01*
X47573Y101144D01*
X47506Y101076D01*
X47438Y101020D01*
X47359Y100986D01*
X47303Y100953D01*
X47247Y100930D01*
X47213Y100908D01*
X47202D01*
X47146Y100897D01*
X47067Y100874D01*
X46977Y100863D01*
X46876Y100852D01*
X46651Y100840D01*
X46426Y100829D01*
X46202Y100818D01*
X44718D01*
Y102740D01*
X46472D01*
X46573Y102729D01*
D02*
G37*
%LPC*%
G36*
X44581Y80399D02*
X41254D01*
Y72835D01*
X44536D01*
X44739Y72846D01*
X45053D01*
X45188Y72857D01*
X45391D01*
X45469Y72868D01*
X45593D01*
X45627Y72880D01*
X45672D01*
X45885Y72913D01*
X46087Y72970D01*
X46267Y73026D01*
X46413Y73082D01*
X46526Y73138D01*
X46616Y73194D01*
X46672Y73228D01*
X46694Y73239D01*
X46841Y73352D01*
X46975Y73487D01*
X47088Y73610D01*
X47178Y73734D01*
X47245Y73846D01*
X47301Y73936D01*
X47335Y73992D01*
X47346Y74015D01*
X47425Y74206D01*
X47492Y74386D01*
X47537Y74554D01*
X47560Y74712D01*
X47582Y74835D01*
X47594Y74936D01*
Y75004D01*
Y75026D01*
X47582Y75262D01*
X47537Y75476D01*
X47481Y75667D01*
X47414Y75836D01*
X47335Y75971D01*
X47279Y76072D01*
X47234Y76139D01*
X47223Y76162D01*
X47065Y76330D01*
X46897Y76476D01*
X46717Y76600D01*
X46548Y76701D01*
X46391Y76769D01*
X46267Y76825D01*
X46222Y76836D01*
X46189Y76847D01*
X46166Y76859D01*
X46155D01*
X46335Y76948D01*
X46481Y77050D01*
X46616Y77162D01*
X46728Y77263D01*
X46818Y77364D01*
X46874Y77443D01*
X46919Y77488D01*
X46930Y77510D01*
X47032Y77679D01*
X47099Y77859D01*
X47155Y78016D01*
X47189Y78174D01*
X47211Y78297D01*
X47223Y78399D01*
Y78466D01*
Y78477D01*
Y78488D01*
X47211Y78668D01*
X47189Y78837D01*
X47144Y78983D01*
X47110Y79118D01*
X47065Y79230D01*
X47020Y79309D01*
X46998Y79354D01*
X46987Y79376D01*
X46897Y79511D01*
X46796Y79646D01*
X46694Y79747D01*
X46604Y79837D01*
X46526Y79916D01*
X46458Y79961D01*
X46413Y79994D01*
X46402Y80006D01*
X46267Y80085D01*
X46132Y80152D01*
X45998Y80208D01*
X45874Y80253D01*
X45773Y80287D01*
X45694Y80309D01*
X45638Y80321D01*
X45615D01*
X45436Y80343D01*
X45222Y80365D01*
X44997Y80377D01*
X44784Y80388D01*
X44581Y80399D01*
D02*
G37*
G36*
X39804D02*
X34207D01*
Y72835D01*
X39950D01*
Y74116D01*
X35735D01*
Y76162D01*
X39523D01*
Y77443D01*
X35735D01*
Y79118D01*
X39804D01*
Y80399D01*
D02*
G37*
G36*
X60126Y80523D02*
X59991D01*
X59609Y80512D01*
X59250Y80467D01*
X59092Y80433D01*
X58946Y80399D01*
X58811Y80365D01*
X58688Y80332D01*
X58575Y80298D01*
X58474Y80264D01*
X58384Y80231D01*
X58317Y80197D01*
X58260Y80174D01*
X58215Y80152D01*
X58193Y80141D01*
X58182D01*
X57845Y79938D01*
X57564Y79713D01*
X57316Y79478D01*
X57114Y79253D01*
X56945Y79039D01*
X56889Y78949D01*
X56833Y78882D01*
X56799Y78814D01*
X56765Y78769D01*
X56754Y78736D01*
X56743Y78724D01*
X56653Y78556D01*
X56586Y78376D01*
X56462Y78016D01*
X56372Y77668D01*
X56316Y77342D01*
X56293Y77196D01*
X56271Y77061D01*
X56260Y76937D01*
Y76836D01*
X56248Y76746D01*
Y76690D01*
Y76645D01*
Y76634D01*
X56271Y76240D01*
X56316Y75869D01*
X56383Y75521D01*
X56428Y75364D01*
X56473Y75229D01*
X56507Y75094D01*
X56552Y74970D01*
X56586Y74869D01*
X56619Y74790D01*
X56642Y74712D01*
X56664Y74667D01*
X56687Y74633D01*
Y74622D01*
X56867Y74296D01*
X57080Y74015D01*
X57294Y73768D01*
X57507Y73565D01*
X57698Y73408D01*
X57788Y73352D01*
X57856Y73295D01*
X57923Y73262D01*
X57968Y73228D01*
X57991Y73217D01*
X58002Y73206D01*
X58170Y73116D01*
X58350Y73048D01*
X58699Y72925D01*
X59047Y72835D01*
X59373Y72778D01*
X59519Y72756D01*
X59654Y72733D01*
X59778Y72722D01*
X59879D01*
X59969Y72711D01*
X60081D01*
X60430Y72722D01*
X60767Y72767D01*
X61070Y72823D01*
X61351Y72891D01*
X61475Y72913D01*
X61587Y72947D01*
X61689Y72981D01*
X61767Y73003D01*
X61835Y73026D01*
X61880Y73048D01*
X61913Y73059D01*
X61925D01*
X62251Y73194D01*
X62532Y73340D01*
X62768Y73475D01*
X62959Y73599D01*
X63116Y73711D01*
X63228Y73801D01*
X63296Y73857D01*
X63318Y73880D01*
Y76892D01*
X60025D01*
Y75611D01*
X61778D01*
Y74655D01*
X61644Y74554D01*
X61497Y74476D01*
X61363Y74397D01*
X61228Y74330D01*
X61115Y74273D01*
X61025Y74228D01*
X60969Y74206D01*
X60958Y74195D01*
X60947D01*
X60767Y74138D01*
X60587Y74094D01*
X60430Y74060D01*
X60284Y74037D01*
X60160Y74026D01*
X60059Y74015D01*
X59980D01*
X59800Y74026D01*
X59632Y74049D01*
X59474Y74071D01*
X59328Y74116D01*
X59058Y74228D01*
X58946Y74285D01*
X58834Y74352D01*
X58744Y74408D01*
X58654Y74464D01*
X58586Y74521D01*
X58530Y74577D01*
X58474Y74622D01*
X58440Y74644D01*
X58429Y74667D01*
X58418Y74678D01*
X58317Y74813D01*
X58227Y74959D01*
X58137Y75116D01*
X58069Y75274D01*
X57968Y75611D01*
X57901Y75948D01*
X57867Y76094D01*
X57856Y76240D01*
X57845Y76364D01*
X57833Y76476D01*
X57822Y76578D01*
Y76645D01*
Y76690D01*
Y76701D01*
X57833Y76926D01*
X57845Y77140D01*
X57878Y77342D01*
X57912Y77522D01*
X57957Y77690D01*
X58002Y77848D01*
X58058Y77983D01*
X58114Y78106D01*
X58170Y78219D01*
X58227Y78308D01*
X58272Y78399D01*
X58317Y78466D01*
X58350Y78511D01*
X58384Y78545D01*
X58395Y78567D01*
X58407Y78578D01*
X58519Y78691D01*
X58643Y78792D01*
X58766Y78870D01*
X58901Y78949D01*
X59036Y79017D01*
X59160Y79062D01*
X59418Y79140D01*
X59643Y79185D01*
X59744Y79197D01*
X59823Y79208D01*
X59890Y79219D01*
X59991D01*
X60227Y79208D01*
X60441Y79174D01*
X60632Y79118D01*
X60789Y79062D01*
X60924Y78994D01*
X61014Y78949D01*
X61070Y78904D01*
X61093Y78893D01*
X61250Y78758D01*
X61374Y78623D01*
X61475Y78477D01*
X61565Y78331D01*
X61621Y78207D01*
X61666Y78106D01*
X61689Y78039D01*
X61700Y78027D01*
Y78016D01*
X63217Y78297D01*
X63172Y78488D01*
X63105Y78668D01*
X62959Y78994D01*
X62880Y79129D01*
X62790Y79264D01*
X62700Y79388D01*
X62621Y79500D01*
X62532Y79601D01*
X62453Y79680D01*
X62385Y79759D01*
X62318Y79815D01*
X62273Y79871D01*
X62228Y79905D01*
X62206Y79916D01*
X62194Y79927D01*
X62037Y80028D01*
X61880Y80129D01*
X61700Y80208D01*
X61520Y80275D01*
X61149Y80377D01*
X60801Y80444D01*
X60632Y80478D01*
X60486Y80489D01*
X60340Y80500D01*
X60227Y80512D01*
X60126Y80523D01*
D02*
G37*
G36*
X54900Y80399D02*
X53371D01*
Y76207D01*
Y76049D01*
Y75892D01*
X53360Y75757D01*
Y75633D01*
X53348Y75409D01*
X53337Y75229D01*
X53326Y75094D01*
X53315Y75004D01*
X53303Y74948D01*
Y74925D01*
X53270Y74790D01*
X53214Y74667D01*
X53146Y74554D01*
X53079Y74453D01*
X53011Y74375D01*
X52955Y74318D01*
X52910Y74285D01*
X52899Y74273D01*
X52764Y74183D01*
X52607Y74127D01*
X52449Y74082D01*
X52292Y74049D01*
X52146Y74026D01*
X52033Y74015D01*
X51921D01*
X51696Y74026D01*
X51494Y74060D01*
X51325Y74105D01*
X51179Y74161D01*
X51056Y74206D01*
X50977Y74251D01*
X50932Y74285D01*
X50909Y74296D01*
X50786Y74408D01*
X50685Y74532D01*
X50606Y74655D01*
X50538Y74768D01*
X50494Y74880D01*
X50471Y74959D01*
X50449Y75015D01*
Y75038D01*
X50437Y75105D01*
X50426Y75173D01*
X50415Y75364D01*
X50404Y75566D01*
Y75779D01*
X50392Y75971D01*
Y76060D01*
Y76139D01*
Y76207D01*
Y76252D01*
Y76285D01*
Y76297D01*
Y80399D01*
X48864D01*
Y76364D01*
Y76128D01*
X48875Y75914D01*
Y75712D01*
X48886Y75532D01*
X48897Y75352D01*
X48909Y75195D01*
X48920Y75060D01*
X48942Y74925D01*
X48954Y74813D01*
X48965Y74712D01*
X48976Y74633D01*
X48987Y74566D01*
X48999Y74509D01*
Y74476D01*
X49010Y74453D01*
Y74442D01*
X49055Y74285D01*
X49122Y74127D01*
X49190Y73981D01*
X49257Y73857D01*
X49325Y73745D01*
X49381Y73666D01*
X49426Y73621D01*
X49437Y73599D01*
X49572Y73464D01*
X49718Y73329D01*
X49864Y73228D01*
X49999Y73127D01*
X50134Y73059D01*
X50235Y73003D01*
X50302Y72970D01*
X50314Y72958D01*
X50325D01*
X50437Y72913D01*
X50561Y72880D01*
X50819Y72812D01*
X51089Y72767D01*
X51359Y72745D01*
X51483Y72733D01*
X51595Y72722D01*
X51696D01*
X51786Y72711D01*
X51966D01*
X52292Y72722D01*
X52573Y72745D01*
X52820Y72778D01*
X53034Y72823D01*
X53191Y72868D01*
X53259Y72880D01*
X53315Y72902D01*
X53360Y72913D01*
X53393Y72925D01*
X53405Y72936D01*
X53416D01*
X53618Y73026D01*
X53787Y73127D01*
X53944Y73228D01*
X54068Y73329D01*
X54169Y73408D01*
X54248Y73475D01*
X54293Y73532D01*
X54304Y73543D01*
X54416Y73700D01*
X54517Y73857D01*
X54596Y74015D01*
X54664Y74172D01*
X54708Y74296D01*
X54742Y74408D01*
X54765Y74476D01*
Y74487D01*
Y74498D01*
X54787Y74611D01*
X54810Y74746D01*
X54832Y74880D01*
X54843Y75038D01*
X54866Y75352D01*
X54888Y75667D01*
Y75824D01*
Y75959D01*
X54900Y76083D01*
Y76195D01*
Y76297D01*
Y76364D01*
Y76409D01*
Y76420D01*
Y80399D01*
D02*
G37*
G36*
X29587D02*
X26575D01*
Y72835D01*
X29441D01*
X29744Y72846D01*
X30003Y72857D01*
X30239Y72880D01*
X30430Y72913D01*
X30588Y72947D01*
X30700Y72970D01*
X30734Y72981D01*
X30767D01*
X30790Y72992D01*
X31026Y73082D01*
X31239Y73172D01*
X31419Y73273D01*
X31577Y73374D01*
X31700Y73453D01*
X31790Y73520D01*
X31835Y73576D01*
X31858Y73588D01*
X32049Y73790D01*
X32206Y74015D01*
X32341Y74240D01*
X32465Y74453D01*
X32555Y74644D01*
X32588Y74723D01*
X32611Y74790D01*
X32633Y74847D01*
X32656Y74892D01*
X32667Y74914D01*
Y74925D01*
X32746Y75184D01*
X32802Y75465D01*
X32847Y75735D01*
X32869Y75993D01*
X32880Y76105D01*
X32892Y76207D01*
Y76308D01*
X32903Y76386D01*
Y76454D01*
Y76499D01*
Y76533D01*
Y76544D01*
X32892Y76926D01*
X32869Y77263D01*
X32847Y77421D01*
X32824Y77567D01*
X32802Y77702D01*
X32779Y77825D01*
X32757Y77938D01*
X32734Y78039D01*
X32712Y78117D01*
X32689Y78196D01*
X32678Y78252D01*
X32667Y78286D01*
X32656Y78308D01*
Y78320D01*
X32555Y78578D01*
X32442Y78814D01*
X32318Y79028D01*
X32195Y79208D01*
X32094Y79354D01*
X32004Y79455D01*
X31947Y79523D01*
X31936Y79545D01*
X31925D01*
X31745Y79725D01*
X31554Y79871D01*
X31363Y79994D01*
X31183Y80085D01*
X31026Y80163D01*
X30902Y80219D01*
X30857Y80231D01*
X30823Y80242D01*
X30801Y80253D01*
X30790D01*
X30588Y80298D01*
X30351Y80343D01*
X30115Y80365D01*
X29891Y80377D01*
X29677Y80388D01*
X29587Y80399D01*
D02*
G37*
%LPD*%
G36*
X44435Y79129D02*
X44716D01*
X44784Y79118D01*
X44907D01*
X44952Y79107D01*
X44963D01*
X45098Y79084D01*
X45211Y79050D01*
X45312Y79005D01*
X45391Y78961D01*
X45458Y78916D01*
X45503Y78870D01*
X45525Y78848D01*
X45537Y78837D01*
X45604Y78747D01*
X45649Y78657D01*
X45694Y78567D01*
X45717Y78477D01*
X45728Y78399D01*
X45739Y78331D01*
Y78286D01*
Y78275D01*
X45728Y78151D01*
X45705Y78027D01*
X45672Y77938D01*
X45627Y77848D01*
X45582Y77780D01*
X45548Y77735D01*
X45525Y77702D01*
X45514Y77690D01*
X45424Y77612D01*
X45323Y77555D01*
X45222Y77510D01*
X45121Y77477D01*
X45031Y77443D01*
X44963Y77432D01*
X44919Y77421D01*
X44851D01*
X44784Y77409D01*
X44446D01*
X44255Y77398D01*
X42783D01*
Y79140D01*
X44323D01*
X44435Y79129D01*
D02*
G37*
G36*
X44525Y76128D02*
X44660Y76117D01*
X44784D01*
X44896Y76105D01*
X44997Y76094D01*
X45076Y76083D01*
X45155Y76072D01*
X45211Y76060D01*
X45301Y76049D01*
X45357Y76027D01*
X45368D01*
X45480Y75982D01*
X45582Y75926D01*
X45660Y75869D01*
X45728Y75813D01*
X45784Y75757D01*
X45818Y75712D01*
X45840Y75690D01*
X45851Y75678D01*
X45908Y75589D01*
X45953Y75487D01*
X45975Y75397D01*
X45998Y75307D01*
X46009Y75229D01*
X46020Y75161D01*
Y75116D01*
Y75105D01*
X46009Y74959D01*
X45986Y74835D01*
X45953Y74723D01*
X45908Y74633D01*
X45863Y74554D01*
X45829Y74498D01*
X45806Y74464D01*
X45795Y74453D01*
X45705Y74375D01*
X45615Y74307D01*
X45525Y74262D01*
X45436Y74217D01*
X45368Y74195D01*
X45301Y74172D01*
X45256Y74161D01*
X45244D01*
X45199Y74150D01*
X45132D01*
X44986Y74138D01*
X44817Y74127D01*
X44638D01*
X44469Y74116D01*
X42783D01*
Y76139D01*
X44368D01*
X44525Y76128D01*
D02*
G37*
G36*
X29239Y79107D02*
X29374D01*
X29486Y79095D01*
X29587D01*
X29677Y79084D01*
X29756D01*
X29879Y79062D01*
X29969Y79050D01*
X30026Y79039D01*
X30037D01*
X30194Y78994D01*
X30329Y78949D01*
X30441Y78882D01*
X30542Y78826D01*
X30621Y78769D01*
X30689Y78724D01*
X30722Y78691D01*
X30734Y78679D01*
X30835Y78578D01*
X30925Y78455D01*
X30992Y78331D01*
X31060Y78219D01*
X31104Y78117D01*
X31138Y78027D01*
X31161Y77971D01*
X31172Y77949D01*
X31228Y77758D01*
X31262Y77544D01*
X31296Y77319D01*
X31307Y77106D01*
X31318Y76915D01*
X31329Y76825D01*
Y76757D01*
Y76690D01*
Y76645D01*
Y76622D01*
Y76611D01*
X31318Y76297D01*
X31307Y76027D01*
X31284Y75791D01*
X31251Y75589D01*
X31217Y75431D01*
X31194Y75319D01*
X31183Y75285D01*
Y75251D01*
X31172Y75240D01*
Y75229D01*
X31104Y75049D01*
X31048Y74903D01*
X30970Y74779D01*
X30913Y74678D01*
X30857Y74599D01*
X30812Y74543D01*
X30779Y74509D01*
X30767Y74498D01*
X30677Y74419D01*
X30576Y74352D01*
X30475Y74296D01*
X30374Y74262D01*
X30295Y74228D01*
X30228Y74206D01*
X30172Y74183D01*
X30160D01*
X30037Y74161D01*
X29891Y74150D01*
X29744Y74127D01*
X29587D01*
X29452Y74116D01*
X28103D01*
Y79118D01*
X29104D01*
X29239Y79107D01*
D02*
G37*
D17*
X68661Y27559D02*
X107658D01*
X285669Y3937D02*
Y27559D01*
X246673D02*
Y80669D01*
Y27559D02*
X285669D01*
X107658D02*
Y80669D01*
X68661Y3937D02*
Y27559D01*
X272250Y76342D02*
Y71344D01*
X273249Y70344D01*
X275249D01*
X276248Y71344D01*
Y76342D01*
X282246D02*
X280247Y75343D01*
X278248Y73343D01*
Y71344D01*
X279247Y70344D01*
X281247D01*
X282246Y71344D01*
Y72343D01*
X281247Y73343D01*
X278248D01*
X309817Y70848D02*
X308817Y71848D01*
X306818D01*
X305818Y70848D01*
Y66849D01*
X306818Y65850D01*
X308817D01*
X309817Y66849D01*
X311816Y70848D02*
X312816Y71848D01*
X314815D01*
X315815Y70848D01*
Y69848D01*
X314815Y68849D01*
X315815Y67849D01*
Y66849D01*
X314815Y65850D01*
X312816D01*
X311816Y66849D01*
Y67849D01*
X312816Y68849D01*
X311816Y69848D01*
Y70848D01*
X312816Y68849D02*
X314815D01*
X106299Y106392D02*
Y100394D01*
X109298D01*
X110298Y101393D01*
Y105392D01*
X109298Y106392D01*
X106299D01*
X112297D02*
X116296D01*
Y105392D01*
X112297Y101393D01*
Y100394D01*
X192913Y151667D02*
Y145669D01*
X195912D01*
X196912Y146669D01*
Y150668D01*
X195912Y151667D01*
X192913D01*
X202910D02*
X200911Y150668D01*
X198911Y148668D01*
Y146669D01*
X199911Y145669D01*
X201910D01*
X202910Y146669D01*
Y147669D01*
X201910Y148668D01*
X198911D01*
X279528Y151667D02*
Y145669D01*
X282527D01*
X283526Y146669D01*
Y150668D01*
X282527Y151667D01*
X279528D01*
X289524D02*
X285526D01*
Y148668D01*
X287525Y149668D01*
X288525D01*
X289524Y148668D01*
Y146669D01*
X288525Y145669D01*
X286525D01*
X285526Y146669D01*
X43369Y195882D02*
Y199880D01*
X42369Y200880D01*
X40370D01*
X39370Y199880D01*
Y195882D01*
X40370Y194882D01*
X42369D01*
X41369Y196881D02*
X43369Y194882D01*
X42369D02*
X43369Y195882D01*
X45368Y199880D02*
X46368Y200880D01*
X48367D01*
X49367Y199880D01*
Y198881D01*
X48367Y197881D01*
X47368D01*
X48367D01*
X49367Y196881D01*
Y195882D01*
X48367Y194882D01*
X46368D01*
X45368Y195882D01*
X129983D02*
Y199880D01*
X128983Y200880D01*
X126984D01*
X125984Y199880D01*
Y195882D01*
X126984Y194882D01*
X128983D01*
X127984Y196881D02*
X129983Y194882D01*
X128983D02*
X129983Y195882D01*
X135981Y194882D02*
X131982D01*
X135981Y198881D01*
Y199880D01*
X134981Y200880D01*
X132982D01*
X131982Y199880D01*
X220534Y195882D02*
Y199880D01*
X219534Y200880D01*
X217535D01*
X216535Y199880D01*
Y195882D01*
X217535Y194882D01*
X219534D01*
X218535Y196881D02*
X220534Y194882D01*
X219534D02*
X220534Y195882D01*
X222533Y194882D02*
X224533D01*
X223533D01*
Y200880D01*
X222533Y199880D01*
X59055Y169291D02*
Y175289D01*
X62054D01*
X63054Y174290D01*
Y172290D01*
X62054Y171291D01*
X59055D01*
X61054D02*
X63054Y169291D01*
X65053Y170291D02*
X66053Y169291D01*
X68052D01*
X69052Y170291D01*
Y174290D01*
X68052Y175289D01*
X66053D01*
X65053Y174290D01*
Y173290D01*
X66053Y172290D01*
X69052D01*
X145669Y169291D02*
Y175289D01*
X148668D01*
X149668Y174290D01*
Y172290D01*
X148668Y171291D01*
X145669D01*
X147669D02*
X149668Y169291D01*
X155666Y175289D02*
X153667Y174290D01*
X151667Y172290D01*
Y170291D01*
X152667Y169291D01*
X154666D01*
X155666Y170291D01*
Y171291D01*
X154666Y172290D01*
X151667D01*
X232283Y169291D02*
Y175289D01*
X235282D01*
X236282Y174290D01*
Y172290D01*
X235282Y171291D01*
X232283D01*
X234283D02*
X236282Y169291D01*
X238281Y174290D02*
X239281Y175289D01*
X241281D01*
X242280Y174290D01*
Y173290D01*
X241281Y172290D01*
X240281D01*
X241281D01*
X242280Y171291D01*
Y170291D01*
X241281Y169291D01*
X239281D01*
X238281Y170291D01*
X145669Y157480D02*
Y163478D01*
X148668D01*
X149668Y162479D01*
Y160479D01*
X148668Y159480D01*
X145669D01*
X147669D02*
X149668Y157480D01*
X151667Y163478D02*
X155666D01*
Y162479D01*
X151667Y158480D01*
Y157480D01*
X145669Y145669D02*
Y151667D01*
X148668D01*
X149668Y150668D01*
Y148668D01*
X148668Y147669D01*
X145669D01*
X147669D02*
X149668Y145669D01*
X151667Y150668D02*
X152667Y151667D01*
X154666D01*
X155666Y150668D01*
Y149668D01*
X154666Y148668D01*
X155666Y147669D01*
Y146669D01*
X154666Y145669D01*
X152667D01*
X151667Y146669D01*
Y147669D01*
X152667Y148668D01*
X151667Y149668D01*
Y150668D01*
X152667Y148668D02*
X154666D01*
X232283Y157480D02*
Y163478D01*
X235282D01*
X236282Y162479D01*
Y160479D01*
X235282Y159480D01*
X232283D01*
X234283D02*
X236282Y157480D01*
X241281D02*
Y163478D01*
X238281Y160479D01*
X242280D01*
X232283Y145669D02*
Y151667D01*
X235282D01*
X236282Y150668D01*
Y148668D01*
X235282Y147669D01*
X232283D01*
X234283D02*
X236282Y145669D01*
X242280Y151667D02*
X238281D01*
Y148668D01*
X240281Y149668D01*
X241281D01*
X242280Y148668D01*
Y146669D01*
X241281Y145669D01*
X239281D01*
X238281Y146669D01*
X318898Y157480D02*
Y163478D01*
X321897D01*
X322896Y162479D01*
Y160479D01*
X321897Y159480D01*
X318898D01*
X320897D02*
X322896Y157480D01*
X324896D02*
X326895D01*
X325895D01*
Y163478D01*
X324896Y162479D01*
X318898Y145669D02*
Y151667D01*
X321897D01*
X322896Y150668D01*
Y148668D01*
X321897Y147669D01*
X318898D01*
X320897D02*
X322896Y145669D01*
X328894D02*
X324896D01*
X328894Y149668D01*
Y150668D01*
X327895Y151667D01*
X325895D01*
X324896Y150668D01*
X114173Y210722D02*
Y205724D01*
X115173Y204724D01*
X117172D01*
X118172Y205724D01*
Y210722D01*
X120171Y209723D02*
X121171Y210722D01*
X123170D01*
X124170Y209723D01*
Y208723D01*
X123170Y207723D01*
X122171D01*
X123170D01*
X124170Y206724D01*
Y205724D01*
X123170Y204724D01*
X121171D01*
X120171Y205724D01*
X200787Y210722D02*
Y205724D01*
X201787Y204724D01*
X203786D01*
X204786Y205724D01*
Y210722D01*
X210784Y204724D02*
X206785D01*
X210784Y208723D01*
Y209723D01*
X209785Y210722D01*
X207785D01*
X206785Y209723D01*
X287402Y210722D02*
Y205724D01*
X288401Y204724D01*
X290401D01*
X291400Y205724D01*
Y210722D01*
X293400Y204724D02*
X295399D01*
X294399D01*
Y210722D01*
X293400Y209723D01*
X126046Y45368D02*
X124047D01*
X125046D01*
Y40370D01*
X124047Y39370D01*
X123047D01*
X122047Y40370D01*
X128045Y44368D02*
X129045Y45368D01*
X131044D01*
X132044Y44368D01*
Y43369D01*
X131044Y42369D01*
X130045D01*
X131044D01*
X132044Y41369D01*
Y40370D01*
X131044Y39370D01*
X129045D01*
X128045Y40370D01*
D18*
X139764Y74803D02*
G03*
X139764Y74803I-984J0D01*
G01*
X133858Y120076D02*
Y111642D01*
X134421Y109955D01*
X135545Y108830D01*
X137232Y108268D01*
X138357D01*
X140044Y108830D01*
X141168Y109955D01*
X141731Y111642D01*
Y120076D01*
X144992D02*
X149490Y108268D01*
X153989Y120076D02*
X149490Y108268D01*
X156632Y120076D02*
X157194Y119514D01*
X157756Y120076D01*
X157194Y120639D01*
X156632Y120076D01*
X157194Y116140D02*
Y108268D01*
X166585Y114453D02*
X165460Y115578D01*
X164335Y116140D01*
X162648D01*
X161524Y115578D01*
X160399Y114453D01*
X159837Y112766D01*
Y111642D01*
X160399Y109955D01*
X161524Y108830D01*
X162648Y108268D01*
X164335D01*
X165460Y108830D01*
X166585Y109955D01*
X178393Y120076D02*
Y108268D01*
Y120076D02*
X185703D01*
X178393Y114453D02*
X182892D01*
X189864Y116140D02*
X188740Y115578D01*
X187615Y114453D01*
X187053Y112766D01*
Y111642D01*
X187615Y109955D01*
X188740Y108830D01*
X189864Y108268D01*
X191551D01*
X192676Y108830D01*
X193800Y109955D01*
X194363Y111642D01*
Y112766D01*
X193800Y114453D01*
X192676Y115578D01*
X191551Y116140D01*
X189864D01*
X196949D02*
Y108268D01*
Y112766D02*
X197512Y114453D01*
X198636Y115578D01*
X199761Y116140D01*
X201448D01*
X202516D02*
Y108268D01*
Y113891D02*
X204203Y115578D01*
X205328Y116140D01*
X207015D01*
X208139Y115578D01*
X208702Y113891D01*
Y108268D01*
Y113891D02*
X210388Y115578D01*
X211513Y116140D01*
X213200D01*
X214325Y115578D01*
X214887Y113891D01*
Y108268D01*
X218598Y116140D02*
Y110517D01*
X219161Y108830D01*
X220285Y108268D01*
X221972D01*
X223097Y108830D01*
X224784Y110517D01*
Y116140D02*
Y108268D01*
X227876Y120076D02*
Y108268D01*
X237098Y116140D02*
Y108268D01*
Y114453D02*
X235974Y115578D01*
X234849Y116140D01*
X233162D01*
X232037Y115578D01*
X230913Y114453D01*
X230350Y112766D01*
Y111642D01*
X230913Y109955D01*
X232037Y108830D01*
X233162Y108268D01*
X234849D01*
X235974Y108830D01*
X237098Y109955D01*
X249525Y120076D02*
Y108268D01*
Y120076D02*
X254024Y108268D01*
X258522Y120076D02*
X254024Y108268D01*
X258522Y120076D02*
Y108268D01*
X264708Y116140D02*
X263583Y115578D01*
X262458Y114453D01*
X261896Y112766D01*
Y111642D01*
X262458Y109955D01*
X263583Y108830D01*
X264708Y108268D01*
X266394D01*
X267519Y108830D01*
X268644Y109955D01*
X269206Y111642D01*
Y112766D01*
X268644Y114453D01*
X267519Y115578D01*
X266394Y116140D01*
X264708D01*
X273480Y120076D02*
Y110517D01*
X274042Y108830D01*
X275167Y108268D01*
X276291D01*
X271793Y116140D02*
X275729D01*
X280790D02*
X279665Y115578D01*
X278540Y114453D01*
X277978Y112766D01*
Y111642D01*
X278540Y109955D01*
X279665Y108830D01*
X280790Y108268D01*
X282477D01*
X283601Y108830D01*
X284726Y109955D01*
X285288Y111642D01*
Y112766D01*
X284726Y114453D01*
X283601Y115578D01*
X282477Y116140D01*
X280790D01*
X287875D02*
Y108268D01*
Y112766D02*
X288437Y114453D01*
X289562Y115578D01*
X290686Y116140D01*
X292373D01*
X299627Y114453D02*
X299065Y115578D01*
X297378Y116140D01*
X295691D01*
X294004Y115578D01*
X293442Y114453D01*
X294004Y113329D01*
X295128Y112766D01*
X297940Y112204D01*
X299065Y111642D01*
X299627Y110517D01*
Y109955D01*
X299065Y108830D01*
X297378Y108268D01*
X295691D01*
X294004Y108830D01*
X293442Y109955D01*
X302101Y116140D02*
Y104332D01*
Y114453D02*
X303226Y115578D01*
X304350Y116140D01*
X306037D01*
X307162Y115578D01*
X308286Y114453D01*
X308849Y112766D01*
Y111642D01*
X308286Y109955D01*
X307162Y108830D01*
X306037Y108268D01*
X304350D01*
X303226Y108830D01*
X302101Y109955D01*
X314191Y116140D02*
X313066Y115578D01*
X311942Y114453D01*
X311379Y112766D01*
Y111642D01*
X311942Y109955D01*
X313066Y108830D01*
X314191Y108268D01*
X315878D01*
X317002Y108830D01*
X318127Y109955D01*
X318689Y111642D01*
Y112766D01*
X318127Y114453D01*
X317002Y115578D01*
X315878Y116140D01*
X314191D01*
X321276D02*
Y108268D01*
Y112766D02*
X321838Y114453D01*
X322963Y115578D01*
X324087Y116140D01*
X325774D01*
X328530Y120076D02*
Y110517D01*
X329092Y108830D01*
X330217Y108268D01*
X331341D01*
X326843Y116140D02*
X330779D01*
D41*
X288583Y48425D02*
G03*
X288583Y48425I-787J0D01*
G01*
D42*
X297342Y44272D02*
G03*
X297342Y44272I-492J0D01*
G01*
X99508Y122638D02*
G03*
X99508Y122638I-492J0D01*
G01*
X186122Y167913D02*
G03*
X186122Y167913I-492J0D01*
G01*
X272736D02*
G03*
X272736Y167913I-492J0D01*
G01*
X245433Y185433D02*
G03*
X245433Y185433I-492J0D01*
G01*
X158819D02*
G03*
X158819Y185433I-492J0D01*
G01*
X72205D02*
G03*
X72205Y185433I-492J0D01*
G01*
X228839Y206299D02*
G03*
X228839Y206299I-492J0D01*
G01*
X142224D02*
G03*
X142224Y206299I-492J0D01*
G01*
X55610D02*
G03*
X55610Y206299I-492J0D01*
G01*
D43*
X60433Y49134D02*
Y69134D01*
X30433Y49134D02*
Y69134D01*
X60433D01*
X30433Y49134D02*
X60433D01*
X41267D02*
X60433D01*
X283858Y64961D02*
X290945D01*
X283858Y45276D02*
X290945D01*
X283858D02*
Y64961D01*
X290945Y45276D02*
Y64961D01*
X312598Y48031D02*
Y62205D01*
X305512Y48031D02*
X312598D01*
X305512D02*
Y62205D01*
X312598D01*
X125984Y145276D02*
Y153937D01*
Y145276D02*
X141732D01*
Y153937D01*
X125984D02*
X141732D01*
Y157087D02*
Y165748D01*
X125984D02*
X141732D01*
X125984Y157087D02*
Y165748D01*
Y157087D02*
X141732D01*
X55118Y168898D02*
Y177559D01*
X39370D02*
X55118D01*
X39370Y168898D02*
Y177559D01*
Y168898D02*
X55118D01*
X212598Y145276D02*
Y153937D01*
Y145276D02*
X228346D01*
Y153937D01*
X212598D02*
X228346D01*
Y157087D02*
Y165748D01*
X212598D02*
X228346D01*
X212598Y157087D02*
Y165748D01*
Y157087D02*
X228346D01*
X141732Y168898D02*
Y177559D01*
X125984D02*
X141732D01*
X125984Y168898D02*
Y177559D01*
Y168898D02*
X141732D01*
X299213Y145276D02*
Y153937D01*
Y145276D02*
X314961D01*
Y153937D01*
X299213D02*
X314961D01*
X102953Y90158D02*
Y118504D01*
X78150Y90158D02*
Y118504D01*
X98425D02*
X102953D01*
X98425Y90158D02*
X102953D01*
X78150Y118504D02*
X82677D01*
X78150Y90158D02*
X82677D01*
X189567Y135433D02*
Y163779D01*
X164764Y135433D02*
Y163779D01*
X185039D02*
X189567D01*
X185039Y135433D02*
X189567D01*
X164764Y163779D02*
X169291D01*
X164764Y135433D02*
X169291D01*
X276181D02*
Y163779D01*
X251378Y135433D02*
Y163779D01*
X271654D02*
X276181D01*
X271654Y135433D02*
X276181D01*
X251378Y163779D02*
X255906D01*
X251378Y135433D02*
X255906D01*
X228346Y168898D02*
Y177559D01*
X212598D02*
X228346D01*
X212598Y168898D02*
Y177559D01*
Y168898D02*
X228346D01*
X314961Y157087D02*
Y165748D01*
X299213D02*
X314961D01*
X299213Y157087D02*
Y165748D01*
Y157087D02*
X314961D01*
X243701Y196457D02*
Y202953D01*
Y196457D02*
X283858D01*
Y202953D01*
X197244Y196457D02*
Y202953D01*
X157087Y196457D02*
X197244D01*
X157087D02*
Y202953D01*
X70472Y196457D02*
Y202953D01*
Y196457D02*
X110630D01*
Y202953D01*
X234842Y193071D02*
Y195669D01*
X231634Y193071D02*
X234842D01*
Y201969D02*
Y204567D01*
X231634D02*
X234842D01*
X148228Y193071D02*
Y195669D01*
X145020Y193071D02*
X148228D01*
Y201969D02*
Y204567D01*
X145020D02*
X148228D01*
X61614Y193071D02*
Y195669D01*
X58406Y193071D02*
X61614D01*
Y201969D02*
Y204567D01*
X58406D02*
X61614D01*
X107658Y80669D02*
X246673D01*
D44*
X27433Y52134D02*
X29099D01*
X28266D01*
Y57132D01*
X27433Y56299D01*
D45*
X133858Y98237D02*
X137232D01*
X138357Y98612D01*
X138732Y98987D01*
X139107Y99736D01*
Y100861D01*
X138732Y101611D01*
X138357Y101986D01*
X137232Y102360D01*
X133858D01*
Y94488D01*
X140868Y102360D02*
Y94488D01*
Y102360D02*
X143492D01*
X144617Y101986D01*
X145367Y101236D01*
X145742Y100486D01*
X146117Y99361D01*
Y97487D01*
X145742Y96363D01*
X145367Y95613D01*
X144617Y94863D01*
X143492Y94488D01*
X140868D01*
X147879Y102360D02*
Y96737D01*
X148253Y95613D01*
X149003Y94863D01*
X150128Y94488D01*
X150877D01*
X152002Y94863D01*
X152752Y95613D01*
X153127Y96737D01*
Y102360D01*
X167672D02*
Y94488D01*
Y102360D02*
X171046D01*
X172170Y101986D01*
X172545Y101611D01*
X172920Y100861D01*
Y100111D01*
X172545Y99361D01*
X172170Y98987D01*
X171046Y98612D01*
X167672D01*
X170296D02*
X172920Y94488D01*
X174682Y97487D02*
X179180D01*
Y98237D01*
X178805Y98987D01*
X178431Y99361D01*
X177681Y99736D01*
X176556D01*
X175807Y99361D01*
X175057Y98612D01*
X174682Y97487D01*
Y96737D01*
X175057Y95613D01*
X175807Y94863D01*
X176556Y94488D01*
X177681D01*
X178431Y94863D01*
X179180Y95613D01*
X180867Y99736D02*
X183117Y94488D01*
X185366Y99736D02*
X183117Y94488D01*
X195075Y102360D02*
X193950Y101986D01*
X193201Y100861D01*
X192826Y98987D01*
Y97862D01*
X193201Y95988D01*
X193950Y94863D01*
X195075Y94488D01*
X195825D01*
X196949Y94863D01*
X197699Y95988D01*
X198074Y97862D01*
Y98987D01*
X197699Y100861D01*
X196949Y101986D01*
X195825Y102360D01*
X195075D01*
X212582Y100486D02*
Y100861D01*
X212957Y101611D01*
X213331Y101986D01*
X214081Y102360D01*
X215581D01*
X216330Y101986D01*
X216705Y101611D01*
X217080Y100861D01*
Y100111D01*
X216705Y99361D01*
X215955Y98237D01*
X212207Y94488D01*
X217455D01*
X221466Y102360D02*
X220341Y101986D01*
X219592Y100861D01*
X219217Y98987D01*
Y97862D01*
X219592Y95988D01*
X220341Y94863D01*
X221466Y94488D01*
X222216D01*
X223341Y94863D01*
X224090Y95988D01*
X224465Y97862D01*
Y98987D01*
X224090Y100861D01*
X223341Y101986D01*
X222216Y102360D01*
X221466D01*
X226227Y100861D02*
X226977Y101236D01*
X228101Y102360D01*
Y94488D01*
X236498Y102360D02*
X232750D01*
X232375Y98987D01*
X232750Y99361D01*
X233874Y99736D01*
X234999D01*
X236124Y99361D01*
X236873Y98612D01*
X237248Y97487D01*
Y96737D01*
X236873Y95613D01*
X236124Y94863D01*
X234999Y94488D01*
X233874D01*
X232750Y94863D01*
X232375Y95238D01*
X232000Y95988D01*
X239010Y97862D02*
X245758D01*
X248082Y100861D02*
X248832Y101236D01*
X249956Y102360D01*
Y94488D01*
X253855Y100861D02*
X254605Y101236D01*
X255730Y102360D01*
Y94488D01*
X259628Y97862D02*
X266376D01*
X269075Y100486D02*
Y100861D01*
X269450Y101611D01*
X269825Y101986D01*
X270574Y102360D01*
X272074D01*
X272824Y101986D01*
X273199Y101611D01*
X273573Y100861D01*
Y100111D01*
X273199Y99361D01*
X272449Y98237D01*
X268700Y94488D01*
X273948D01*
X276460Y102360D02*
X280584D01*
X278334Y99361D01*
X279459D01*
X280209Y98987D01*
X280584Y98612D01*
X280958Y97487D01*
Y96737D01*
X280584Y95613D01*
X279834Y94863D01*
X278709Y94488D01*
X277585D01*
X276460Y94863D01*
X276085Y95238D01*
X275710Y95988D01*
M02*
