G04 Layer_Color=2752767*
%FSLAX25Y25*%
%MOIN*%
G70*
G01*
G75*
%ADD75C,0.00200*%
%ADD76C,0.00267*%
D75*
X229869Y63885D02*
Y65485D01*
X231469D01*
Y63885D01*
X229869D01*
X122861D02*
Y65485D01*
X124461D01*
Y63885D01*
X122861D01*
X176365Y18885D02*
Y20485D01*
X177965D01*
Y18885D01*
X176365D01*
X54370Y148058D02*
X53570Y149658D01*
X55170D01*
X54370Y148058D01*
Y118058D02*
X53570Y119658D01*
X55170D01*
X54370Y118058D01*
Y128058D02*
X53570Y129658D01*
X55170D01*
X54370Y128058D01*
Y138058D02*
X53570Y139658D01*
X55170D01*
X54370Y138058D01*
X44370Y148058D02*
X43570Y149658D01*
X45170D01*
X44370Y148058D01*
Y118058D02*
X43570Y119658D01*
X45170D01*
X44370Y118058D01*
Y128058D02*
X43570Y129658D01*
X45170D01*
X44370Y128058D01*
Y138058D02*
X43570Y139658D01*
X45170D01*
X44370Y138058D01*
X34370D02*
X33570Y139658D01*
X35170D01*
X34370Y138058D01*
Y128058D02*
X33570Y129658D01*
X35170D01*
X34370Y128058D01*
Y118058D02*
X33570Y119658D01*
X35170D01*
X34370Y118058D01*
X24370D02*
X23570Y119658D01*
X25170D01*
X24370Y118058D01*
Y128058D02*
X23570Y129658D01*
X25170D01*
X24370Y128058D01*
Y138058D02*
X23570Y139658D01*
X25170D01*
X24370Y138058D01*
X34370Y148058D02*
X33570Y149658D01*
X35170D01*
X34370Y148058D01*
X24370D02*
X23570Y149658D01*
X25170D01*
X24370Y148058D01*
X192165Y277979D02*
X191365Y279579D01*
X192965D01*
X192165Y277979D01*
Y247979D02*
X191365Y249580D01*
X192965D01*
X192165Y247979D01*
Y257979D02*
X191365Y259579D01*
X192965D01*
X192165Y257979D01*
Y267980D02*
X191365Y269580D01*
X192965D01*
X192165Y267980D01*
X182165Y277979D02*
X181365Y279579D01*
X182965D01*
X182165Y277979D01*
Y247979D02*
X181365Y249580D01*
X182965D01*
X182165Y247979D01*
Y257979D02*
X181365Y259579D01*
X182965D01*
X182165Y257979D01*
Y267980D02*
X181365Y269580D01*
X182965D01*
X182165Y267980D01*
X172165D02*
X171365Y269580D01*
X172965D01*
X172165Y267980D01*
Y257979D02*
X171365Y259579D01*
X172965D01*
X172165Y257979D01*
Y247979D02*
X171365Y249580D01*
X172965D01*
X172165Y247979D01*
X162165D02*
X161365Y249580D01*
X162965D01*
X162165Y247979D01*
Y257979D02*
X161365Y259579D01*
X162965D01*
X162165Y257979D01*
Y267980D02*
X161365Y269580D01*
X162965D01*
X162165Y267980D01*
X172165Y277979D02*
X171365Y279579D01*
X172965D01*
X172165Y277979D01*
X162165D02*
X161365Y279579D01*
X162965D01*
X162165Y277979D01*
X19685Y294476D02*
X20085Y294876D01*
X20485D01*
X20085Y295276D01*
X20485Y295676D01*
X20085D01*
X19685Y296076D01*
X19285Y295676D01*
X18885D01*
X19285Y295276D01*
X18885Y294876D01*
X19285D01*
X19685Y294476D01*
X334646D02*
X335046Y294876D01*
X335446D01*
X335046Y295276D01*
X335446Y295676D01*
X335046D01*
X334646Y296076D01*
X334246Y295676D01*
X333846D01*
X334246Y295276D01*
X333846Y294876D01*
X334246D01*
X334646Y294476D01*
Y18885D02*
X335046Y19285D01*
X335446D01*
X335046Y19685D01*
X335446Y20085D01*
X335046D01*
X334646Y20485D01*
X334246Y20085D01*
X333846D01*
X334246Y19685D01*
X333846Y19285D01*
X334246D01*
X334646Y18885D01*
X19685D02*
X20085Y19285D01*
X20485D01*
X20085Y19685D01*
X20485Y20085D01*
X20085D01*
X19685Y20485D01*
X19285Y20085D01*
X18885D01*
X19285Y19685D01*
X18885Y19285D01*
X19285D01*
X19685Y18885D01*
X54633Y63334D02*
X55033Y64134D01*
X54633Y64934D01*
X55433Y64534D01*
X56233Y64934D01*
X55833Y64134D01*
X56233Y63334D01*
X55433Y63734D01*
X54633Y63334D01*
Y53334D02*
X55033Y54134D01*
X54633Y54934D01*
X55433Y54534D01*
X56233Y54934D01*
X55833Y54134D01*
X56233Y53334D01*
X55433Y53734D01*
X54633Y53334D01*
X44633Y63334D02*
X45033Y64134D01*
X44633Y64934D01*
X45433Y64534D01*
X46233Y64934D01*
X45833Y64134D01*
X46233Y63334D01*
X45433Y63734D01*
X44633Y63334D01*
Y53334D02*
X45033Y54134D01*
X44633Y54934D01*
X45433Y54534D01*
X46233Y54934D01*
X45833Y54134D01*
X46233Y53334D01*
X45433Y53734D01*
X44633Y53334D01*
X34633Y63334D02*
X35033Y64134D01*
X34633Y64934D01*
X35433Y64534D01*
X36233Y64934D01*
X35833Y64134D01*
X36233Y63334D01*
X35433Y63734D01*
X34633Y63334D01*
Y53334D02*
X35033Y54134D01*
X34633Y54934D01*
X35433Y54534D01*
X36233Y54934D01*
X35833Y54134D01*
X36233Y53334D01*
X35433Y53734D01*
X34633Y53334D01*
X294876Y294876D02*
Y294476D01*
X295676D01*
Y294876D01*
X296076D01*
Y295676D01*
X295676D01*
Y296076D01*
X294876D01*
Y295676D01*
X294476D01*
Y294876D01*
X294876D01*
Y255505D02*
Y255105D01*
X295676D01*
Y255505D01*
X296076D01*
Y256306D01*
X295676D01*
Y256705D01*
X294876D01*
Y256306D01*
X294476D01*
Y255505D01*
X294876D01*
X275191Y294876D02*
Y294476D01*
X275991D01*
Y294876D01*
X276391D01*
Y295676D01*
X275991D01*
Y296076D01*
X275191D01*
Y295676D01*
X274791D01*
Y294876D01*
X275191D01*
X285033Y275191D02*
Y274791D01*
X285833D01*
Y275191D01*
X286233D01*
Y275991D01*
X285833D01*
Y276391D01*
X285033D01*
Y275991D01*
X284633D01*
Y275191D01*
X285033D01*
X275191Y255505D02*
Y255105D01*
X275991D01*
Y255505D01*
X276391D01*
Y256306D01*
X275991D01*
Y256705D01*
X275191D01*
Y256306D01*
X274791D01*
Y255505D01*
X275191D01*
X255505Y294876D02*
Y294476D01*
X256306D01*
Y294876D01*
X256705D01*
Y295676D01*
X256306D01*
Y296076D01*
X255505D01*
Y295676D01*
X255105D01*
Y294876D01*
X255505D01*
X265348Y275191D02*
Y274791D01*
X266148D01*
Y275191D01*
X266548D01*
Y275991D01*
X266148D01*
Y276391D01*
X265348D01*
Y275991D01*
X264948D01*
Y275191D01*
X265348D01*
X255505Y255505D02*
Y255105D01*
X256306D01*
Y255505D01*
X256705D01*
Y256306D01*
X256306D01*
Y256705D01*
X255505D01*
Y256306D01*
X255105D01*
Y255505D01*
X255505D01*
X235821Y294876D02*
Y294476D01*
X236620D01*
Y294876D01*
X237020D01*
Y295676D01*
X236620D01*
Y296076D01*
X235821D01*
Y295676D01*
X235420D01*
Y294876D01*
X235821D01*
X245663Y275191D02*
Y274791D01*
X246463D01*
Y275191D01*
X246863D01*
Y275991D01*
X246463D01*
Y276391D01*
X245663D01*
Y275991D01*
X245263D01*
Y275191D01*
X245663D01*
X235821Y255505D02*
Y255105D01*
X236620D01*
Y255505D01*
X237020D01*
Y256306D01*
X236620D01*
Y256705D01*
X235821D01*
Y256306D01*
X235420D01*
Y255505D01*
X235821D01*
X216135Y294876D02*
Y294476D01*
X216935D01*
Y294876D01*
X217335D01*
Y295676D01*
X216935D01*
Y296076D01*
X216135D01*
Y295676D01*
X215735D01*
Y294876D01*
X216135D01*
X225978Y275191D02*
Y274791D01*
X226778D01*
Y275191D01*
X227178D01*
Y275991D01*
X226778D01*
Y276391D01*
X225978D01*
Y275991D01*
X225578D01*
Y275191D01*
X225978D01*
X216135Y255505D02*
Y255105D01*
X216935D01*
Y255505D01*
X217335D01*
Y256306D01*
X216935D01*
Y256705D01*
X216135D01*
Y256306D01*
X215735D01*
Y255505D01*
X216135D01*
X225978Y235821D02*
Y235420D01*
X226778D01*
Y235821D01*
X227178D01*
Y236620D01*
X226778D01*
Y237020D01*
X225978D01*
Y236620D01*
X225578D01*
Y235821D01*
X225978D01*
X206293Y275191D02*
Y274791D01*
X207093D01*
Y275191D01*
X207493D01*
Y275991D01*
X207093D01*
Y276391D01*
X206293D01*
Y275991D01*
X205893D01*
Y275191D01*
X206293D01*
Y235821D02*
Y235420D01*
X207093D01*
Y235821D01*
X207493D01*
Y236620D01*
X207093D01*
Y237020D01*
X206293D01*
Y236620D01*
X205893D01*
Y235821D01*
X206293D01*
X137395Y294876D02*
Y294476D01*
X138195D01*
Y294876D01*
X138595D01*
Y295676D01*
X138195D01*
Y296076D01*
X137395D01*
Y295676D01*
X136995D01*
Y294876D01*
X137395D01*
X147238Y275191D02*
Y274791D01*
X148038D01*
Y275191D01*
X148438D01*
Y275991D01*
X148038D01*
Y276391D01*
X147238D01*
Y275991D01*
X146838D01*
Y275191D01*
X147238D01*
X137395Y255505D02*
Y255105D01*
X138195D01*
Y255505D01*
X138595D01*
Y256306D01*
X138195D01*
Y256705D01*
X137395D01*
Y256306D01*
X136995D01*
Y255505D01*
X137395D01*
X147238Y235821D02*
Y235420D01*
X148038D01*
Y235821D01*
X148438D01*
Y236620D01*
X148038D01*
Y237020D01*
X147238D01*
Y236620D01*
X146838D01*
Y235821D01*
X147238D01*
X117710Y294876D02*
Y294476D01*
X118510D01*
Y294876D01*
X118910D01*
Y295676D01*
X118510D01*
Y296076D01*
X117710D01*
Y295676D01*
X117310D01*
Y294876D01*
X117710D01*
X127553Y275191D02*
Y274791D01*
X128353D01*
Y275191D01*
X128753D01*
Y275991D01*
X128353D01*
Y276391D01*
X127553D01*
Y275991D01*
X127153D01*
Y275191D01*
X127553D01*
X117710Y255505D02*
Y255105D01*
X118510D01*
Y255505D01*
X118910D01*
Y256306D01*
X118510D01*
Y256705D01*
X117710D01*
Y256306D01*
X117310D01*
Y255505D01*
X117710D01*
X127553Y235821D02*
Y235420D01*
X128353D01*
Y235821D01*
X128753D01*
Y236620D01*
X128353D01*
Y237020D01*
X127553D01*
Y236620D01*
X127153D01*
Y235821D01*
X127553D01*
X98025Y294876D02*
Y294476D01*
X98825D01*
Y294876D01*
X99225D01*
Y295676D01*
X98825D01*
Y296076D01*
X98025D01*
Y295676D01*
X97625D01*
Y294876D01*
X98025D01*
X107868Y275191D02*
Y274791D01*
X108668D01*
Y275191D01*
X109068D01*
Y275991D01*
X108668D01*
Y276391D01*
X107868D01*
Y275991D01*
X107468D01*
Y275191D01*
X107868D01*
X98025Y255505D02*
Y255105D01*
X98825D01*
Y255505D01*
X99225D01*
Y256306D01*
X98825D01*
Y256705D01*
X98025D01*
Y256306D01*
X97625D01*
Y255505D01*
X98025D01*
X78340Y294876D02*
Y294476D01*
X79140D01*
Y294876D01*
X79540D01*
Y295676D01*
X79140D01*
Y296076D01*
X78340D01*
Y295676D01*
X77940D01*
Y294876D01*
X78340D01*
X88183Y275191D02*
Y274791D01*
X88983D01*
Y275191D01*
X89383D01*
Y275991D01*
X88983D01*
Y276391D01*
X88183D01*
Y275991D01*
X87783D01*
Y275191D01*
X88183D01*
X78340Y255505D02*
Y255105D01*
X79140D01*
Y255505D01*
X79540D01*
Y256306D01*
X79140D01*
Y256705D01*
X78340D01*
Y256306D01*
X77940D01*
Y255505D01*
X78340D01*
X58655Y294876D02*
Y294476D01*
X59455D01*
Y294876D01*
X59855D01*
Y295676D01*
X59455D01*
Y296076D01*
X58655D01*
Y295676D01*
X58255D01*
Y294876D01*
X58655D01*
X68498Y275191D02*
Y274791D01*
X69298D01*
Y275191D01*
X69698D01*
Y275991D01*
X69298D01*
Y276391D01*
X68498D01*
Y275991D01*
X68098D01*
Y275191D01*
X68498D01*
X58655Y255505D02*
Y255105D01*
X59455D01*
Y255505D01*
X59855D01*
Y256306D01*
X59455D01*
Y256705D01*
X58655D01*
Y256306D01*
X58255D01*
Y255505D01*
X58655D01*
X298413Y180302D02*
X298813D01*
X299213Y180702D01*
X299613Y180302D01*
X300013D01*
Y180702D01*
X299613Y181102D01*
X300013Y181502D01*
Y181902D01*
X299613D01*
X299213Y181502D01*
X298813Y181902D01*
X298413D01*
Y181502D01*
X298813Y181102D01*
X298413Y180702D01*
Y180302D01*
X262980Y146838D02*
X263380D01*
X263779Y147238D01*
X264179Y146838D01*
X264580D01*
Y147238D01*
X264179Y147638D01*
X264580Y148038D01*
Y148438D01*
X264179D01*
X263779Y148038D01*
X263380Y148438D01*
X262980D01*
Y148038D01*
X263380Y147638D01*
X262980Y147238D01*
Y146838D01*
X255105D02*
X255505D01*
X255906Y147238D01*
X256306Y146838D01*
X256705D01*
Y147238D01*
X256306Y147638D01*
X256705Y148038D01*
Y148438D01*
X256306D01*
X255906Y148038D01*
X255505Y148438D01*
X255105D01*
Y148038D01*
X255505Y147638D01*
X255105Y147238D01*
Y146838D01*
X270853D02*
X271253D01*
X271654Y147238D01*
X272054Y146838D01*
X272453D01*
Y147238D01*
X272054Y147638D01*
X272453Y148038D01*
Y148438D01*
X272054D01*
X271654Y148038D01*
X271253Y148438D01*
X270853D01*
Y148038D01*
X271253Y147638D01*
X270853Y147238D01*
Y146838D01*
X176365D02*
X176765D01*
X177165Y147238D01*
X177565Y146838D01*
X177965D01*
Y147238D01*
X177565Y147638D01*
X177965Y148038D01*
Y148438D01*
X177565D01*
X177165Y148038D01*
X176765Y148438D01*
X176365D01*
Y148038D01*
X176765Y147638D01*
X176365Y147238D01*
Y146838D01*
X168491D02*
X168891D01*
X169291Y147238D01*
X169691Y146838D01*
X170091D01*
Y147238D01*
X169691Y147638D01*
X170091Y148038D01*
Y148438D01*
X169691D01*
X169291Y148038D01*
X168891Y148438D01*
X168491D01*
Y148038D01*
X168891Y147638D01*
X168491Y147238D01*
Y146838D01*
X184239D02*
X184639D01*
X185039Y147238D01*
X185439Y146838D01*
X185839D01*
Y147238D01*
X185439Y147638D01*
X185839Y148038D01*
Y148438D01*
X185439D01*
X185039Y148038D01*
X184639Y148438D01*
X184239D01*
Y148038D01*
X184639Y147638D01*
X184239Y147238D01*
Y146838D01*
X89751Y228531D02*
X90151D01*
X90551Y228931D01*
X90951Y228531D01*
X91351D01*
Y228931D01*
X90951Y229331D01*
X91351Y229731D01*
Y230131D01*
X90951D01*
X90551Y229731D01*
X90151Y230131D01*
X89751D01*
Y229731D01*
X90151Y229331D01*
X89751Y228931D01*
Y228531D01*
Y214751D02*
X90151D01*
X90551Y215151D01*
X90951Y214751D01*
X91351D01*
Y215151D01*
X90951Y215551D01*
X91351Y215951D01*
Y216351D01*
X90951D01*
X90551Y215951D01*
X90151Y216351D01*
X89751D01*
Y215951D01*
X90151Y215551D01*
X89751Y215151D01*
Y214751D01*
X77940D02*
X78340D01*
X78740Y215151D01*
X79140Y214751D01*
X79540D01*
Y215151D01*
X79140Y215551D01*
X79540Y215951D01*
Y216351D01*
X79140D01*
X78740Y215951D01*
X78340Y216351D01*
X77940D01*
Y215951D01*
X78340Y215551D01*
X77940Y215151D01*
Y214751D01*
Y228531D02*
X78340D01*
X78740Y228931D01*
X79140Y228531D01*
X79540D01*
Y228931D01*
X79140Y229331D01*
X79540Y229731D01*
Y230131D01*
X79140D01*
X78740Y229731D01*
X78340Y230131D01*
X77940D01*
Y229731D01*
X78340Y229331D01*
X77940Y228931D01*
Y228531D01*
X83846Y221641D02*
X84246D01*
X84646Y222041D01*
X85046Y221641D01*
X85446D01*
Y222041D01*
X85046Y222441D01*
X85446Y222841D01*
Y223241D01*
X85046D01*
X84646Y222841D01*
X84246Y223241D01*
X83846D01*
Y222841D01*
X84246Y222441D01*
X83846Y222041D01*
Y221641D01*
X95657D02*
X96057D01*
X96457Y222041D01*
X96857Y221641D01*
X97257D01*
Y222041D01*
X96857Y222441D01*
X97257Y222841D01*
Y223241D01*
X96857D01*
X96457Y222841D01*
X96057Y223241D01*
X95657D01*
Y222841D01*
X96057Y222441D01*
X95657Y222041D01*
Y221641D01*
X101562Y228531D02*
X101962D01*
X102362Y228931D01*
X102762Y228531D01*
X103162D01*
Y228931D01*
X102762Y229331D01*
X103162Y229731D01*
Y230131D01*
X102762D01*
X102362Y229731D01*
X101962Y230131D01*
X101562D01*
Y229731D01*
X101962Y229331D01*
X101562Y228931D01*
Y228531D01*
Y214751D02*
X101962D01*
X102362Y215151D01*
X102762Y214751D01*
X103162D01*
Y215151D01*
X102762Y215551D01*
X103162Y215951D01*
Y216351D01*
X102762D01*
X102362Y215951D01*
X101962Y216351D01*
X101562D01*
Y215951D01*
X101962Y215551D01*
X101562Y215151D01*
Y214751D01*
X188176D02*
X188576D01*
X188976Y215151D01*
X189376Y214751D01*
X189776D01*
Y215151D01*
X189376Y215551D01*
X189776Y215951D01*
Y216351D01*
X189376D01*
X188976Y215951D01*
X188576Y216351D01*
X188176D01*
Y215951D01*
X188576Y215551D01*
X188176Y215151D01*
Y214751D01*
Y228531D02*
X188576D01*
X188976Y228931D01*
X189376Y228531D01*
X189776D01*
Y228931D01*
X189376Y229331D01*
X189776Y229731D01*
Y230131D01*
X189376D01*
X188976Y229731D01*
X188576Y230131D01*
X188176D01*
Y229731D01*
X188576Y229331D01*
X188176Y228931D01*
Y228531D01*
X182271Y221641D02*
X182671D01*
X183071Y222041D01*
X183471Y221641D01*
X183871D01*
Y222041D01*
X183471Y222441D01*
X183871Y222841D01*
Y223241D01*
X183471D01*
X183071Y222841D01*
X182671Y223241D01*
X182271D01*
Y222841D01*
X182671Y222441D01*
X182271Y222041D01*
Y221641D01*
X170460D02*
X170860D01*
X171260Y222041D01*
X171660Y221641D01*
X172060D01*
Y222041D01*
X171660Y222441D01*
X172060Y222841D01*
Y223241D01*
X171660D01*
X171260Y222841D01*
X170860Y223241D01*
X170460D01*
Y222841D01*
X170860Y222441D01*
X170460Y222041D01*
Y221641D01*
X164554Y228531D02*
X164954D01*
X165354Y228931D01*
X165754Y228531D01*
X166154D01*
Y228931D01*
X165754Y229331D01*
X166154Y229731D01*
Y230131D01*
X165754D01*
X165354Y229731D01*
X164954Y230131D01*
X164554D01*
Y229731D01*
X164954Y229331D01*
X164554Y228931D01*
Y228531D01*
Y214751D02*
X164954D01*
X165354Y215151D01*
X165754Y214751D01*
X166154D01*
Y215151D01*
X165754Y215551D01*
X166154Y215951D01*
Y216351D01*
X165754D01*
X165354Y215951D01*
X164954Y216351D01*
X164554D01*
Y215951D01*
X164954Y215551D01*
X164554Y215151D01*
Y214751D01*
X176365D02*
X176765D01*
X177165Y215151D01*
X177565Y214751D01*
X177965D01*
Y215151D01*
X177565Y215551D01*
X177965Y215951D01*
Y216351D01*
X177565D01*
X177165Y215951D01*
X176765Y216351D01*
X176365D01*
Y215951D01*
X176765Y215551D01*
X176365Y215151D01*
Y214751D01*
Y228531D02*
X176765D01*
X177165Y228931D01*
X177565Y228531D01*
X177965D01*
Y228931D01*
X177565Y229331D01*
X177965Y229731D01*
Y230131D01*
X177565D01*
X177165Y229731D01*
X176765Y230131D01*
X176365D01*
Y229731D01*
X176765Y229331D01*
X176365Y228931D01*
Y228531D01*
X262980D02*
X263380D01*
X263779Y228931D01*
X264179Y228531D01*
X264580D01*
Y228931D01*
X264179Y229331D01*
X264580Y229731D01*
Y230131D01*
X264179D01*
X263779Y229731D01*
X263380Y230131D01*
X262980D01*
Y229731D01*
X263380Y229331D01*
X262980Y228931D01*
Y228531D01*
Y214751D02*
X263380D01*
X263779Y215151D01*
X264179Y214751D01*
X264580D01*
Y215151D01*
X264179Y215551D01*
X264580Y215951D01*
Y216351D01*
X264179D01*
X263779Y215951D01*
X263380Y216351D01*
X262980D01*
Y215951D01*
X263380Y215551D01*
X262980Y215151D01*
Y214751D01*
X251168D02*
X251569D01*
X251969Y215151D01*
X252368Y214751D01*
X252768D01*
Y215151D01*
X252368Y215551D01*
X252768Y215951D01*
Y216351D01*
X252368D01*
X251969Y215951D01*
X251569Y216351D01*
X251168D01*
Y215951D01*
X251569Y215551D01*
X251168Y215151D01*
Y214751D01*
Y228531D02*
X251569D01*
X251969Y228931D01*
X252368Y228531D01*
X252768D01*
Y228931D01*
X252368Y229331D01*
X252768Y229731D01*
Y230131D01*
X252368D01*
X251969Y229731D01*
X251569Y230131D01*
X251168D01*
Y229731D01*
X251569Y229331D01*
X251168Y228931D01*
Y228531D01*
X257074Y221641D02*
X257474D01*
X257874Y222041D01*
X258274Y221641D01*
X258674D01*
Y222041D01*
X258274Y222441D01*
X258674Y222841D01*
Y223241D01*
X258274D01*
X257874Y222841D01*
X257474Y223241D01*
X257074D01*
Y222841D01*
X257474Y222441D01*
X257074Y222041D01*
Y221641D01*
X268885D02*
X269285D01*
X269685Y222041D01*
X270085Y221641D01*
X270485D01*
Y222041D01*
X270085Y222441D01*
X270485Y222841D01*
Y223241D01*
X270085D01*
X269685Y222841D01*
X269285Y223241D01*
X268885D01*
Y222841D01*
X269285Y222441D01*
X268885Y222041D01*
Y221641D01*
X274791Y228531D02*
X275190D01*
X275590Y228931D01*
X275991Y228531D01*
X276391D01*
Y228931D01*
X275991Y229331D01*
X276391Y229731D01*
Y230131D01*
X275991D01*
X275590Y229731D01*
X275190Y230131D01*
X274791D01*
Y229731D01*
X275190Y229331D01*
X274791Y228931D01*
Y228531D01*
Y214751D02*
X275190D01*
X275590Y215151D01*
X275991Y214751D01*
X276391D01*
Y215151D01*
X275991Y215551D01*
X276391Y215951D01*
Y216351D01*
X275991D01*
X275590Y215951D01*
X275190Y216351D01*
X274791D01*
Y215951D01*
X275190Y215551D01*
X274791Y215151D01*
Y214751D01*
X19285Y305505D02*
Y305105D01*
X20085D01*
Y305505D01*
X20485D01*
Y306306D01*
X20085D01*
Y306705D01*
X19285D01*
Y306306D01*
X18885D01*
Y305505D01*
X19285D01*
X8655Y294876D02*
Y294476D01*
X9455D01*
Y294876D01*
X9855D01*
Y295676D01*
X9455D01*
Y296076D01*
X8655D01*
Y295676D01*
X8255D01*
Y294876D01*
X8655D01*
X29915D02*
Y294476D01*
X30715D01*
Y294876D01*
X31115D01*
Y295676D01*
X30715D01*
Y296076D01*
X29915D01*
Y295676D01*
X29515D01*
Y294876D01*
X29915D01*
X19285Y284246D02*
Y283846D01*
X20085D01*
Y284246D01*
X20485D01*
Y285046D01*
X20085D01*
Y285446D01*
X19285D01*
Y285046D01*
X18885D01*
Y284246D01*
X19285D01*
X26765Y287395D02*
Y286995D01*
X27565D01*
Y287395D01*
X27965D01*
Y288195D01*
X27565D01*
Y288595D01*
X26765D01*
Y288195D01*
X26365D01*
Y287395D01*
X26765D01*
X11805D02*
Y286995D01*
X12605D01*
Y287395D01*
X13005D01*
Y288195D01*
X12605D01*
Y288595D01*
X11805D01*
Y288195D01*
X11405D01*
Y287395D01*
X11805D01*
Y302356D02*
Y301956D01*
X12605D01*
Y302356D01*
X13005D01*
Y303156D01*
X12605D01*
Y303556D01*
X11805D01*
Y303156D01*
X11405D01*
Y302356D01*
X11805D01*
X26765D02*
Y301956D01*
X27565D01*
Y302356D01*
X27965D01*
Y303156D01*
X27565D01*
Y303556D01*
X26765D01*
Y303156D01*
X26365D01*
Y302356D01*
X26765D01*
X341726D02*
Y301956D01*
X342526D01*
Y302356D01*
X342926D01*
Y303156D01*
X342526D01*
Y303556D01*
X341726D01*
Y303156D01*
X341326D01*
Y302356D01*
X341726D01*
Y287395D02*
Y286995D01*
X342526D01*
Y287395D01*
X342926D01*
Y288195D01*
X342526D01*
Y288595D01*
X341726D01*
Y288195D01*
X341326D01*
Y287395D01*
X341726D01*
X326765D02*
Y286995D01*
X327565D01*
Y287395D01*
X327965D01*
Y288195D01*
X327565D01*
Y288595D01*
X326765D01*
Y288195D01*
X326365D01*
Y287395D01*
X326765D01*
Y302356D02*
Y301956D01*
X327565D01*
Y302356D01*
X327965D01*
Y303156D01*
X327565D01*
Y303556D01*
X326765D01*
Y303156D01*
X326365D01*
Y302356D01*
X326765D01*
X323616Y294876D02*
Y294476D01*
X324416D01*
Y294876D01*
X324816D01*
Y295676D01*
X324416D01*
Y296076D01*
X323616D01*
Y295676D01*
X323216D01*
Y294876D01*
X323616D01*
X334246Y305505D02*
Y305105D01*
X335046D01*
Y305505D01*
X335446D01*
Y306306D01*
X335046D01*
Y306705D01*
X334246D01*
Y306306D01*
X333846D01*
Y305505D01*
X334246D01*
Y284246D02*
Y283846D01*
X335046D01*
Y284246D01*
X335446D01*
Y285046D01*
X335046D01*
Y285446D01*
X334246D01*
Y285046D01*
X333846D01*
Y284246D01*
X334246D01*
X344876Y294876D02*
Y294476D01*
X345676D01*
Y294876D01*
X346076D01*
Y295676D01*
X345676D01*
Y296076D01*
X344876D01*
Y295676D01*
X344476D01*
Y294876D01*
X344876D01*
Y19285D02*
Y18885D01*
X345676D01*
Y19285D01*
X346076D01*
Y20085D01*
X345676D01*
Y20485D01*
X344876D01*
Y20085D01*
X344476D01*
Y19285D01*
X344876D01*
X334246Y8655D02*
Y8255D01*
X335046D01*
Y8655D01*
X335446D01*
Y9455D01*
X335046D01*
Y9855D01*
X334246D01*
Y9455D01*
X333846D01*
Y8655D01*
X334246D01*
Y29915D02*
Y29515D01*
X335046D01*
Y29915D01*
X335446D01*
Y30715D01*
X335046D01*
Y31115D01*
X334246D01*
Y30715D01*
X333846D01*
Y29915D01*
X334246D01*
X323616Y19285D02*
Y18885D01*
X324416D01*
Y19285D01*
X324816D01*
Y20085D01*
X324416D01*
Y20485D01*
X323616D01*
Y20085D01*
X323216D01*
Y19285D01*
X323616D01*
X326765Y26765D02*
Y26365D01*
X327565D01*
Y26765D01*
X327965D01*
Y27565D01*
X327565D01*
Y27965D01*
X326765D01*
Y27565D01*
X326365D01*
Y26765D01*
X326765D01*
Y11805D02*
Y11405D01*
X327565D01*
Y11805D01*
X327965D01*
Y12605D01*
X327565D01*
Y13005D01*
X326765D01*
Y12605D01*
X326365D01*
Y11805D01*
X326765D01*
X341726D02*
Y11405D01*
X342526D01*
Y11805D01*
X342926D01*
Y12605D01*
X342526D01*
Y13005D01*
X341726D01*
Y12605D01*
X341326D01*
Y11805D01*
X341726D01*
Y26765D02*
Y26365D01*
X342526D01*
Y26765D01*
X342926D01*
Y27565D01*
X342526D01*
Y27965D01*
X341726D01*
Y27565D01*
X341326D01*
Y26765D01*
X341726D01*
X26765D02*
Y26365D01*
X27565D01*
Y26765D01*
X27965D01*
Y27565D01*
X27565D01*
Y27965D01*
X26765D01*
Y27565D01*
X26365D01*
Y26765D01*
X26765D01*
Y11805D02*
Y11405D01*
X27565D01*
Y11805D01*
X27965D01*
Y12605D01*
X27565D01*
Y13005D01*
X26765D01*
Y12605D01*
X26365D01*
Y11805D01*
X26765D01*
X11805D02*
Y11405D01*
X12605D01*
Y11805D01*
X13005D01*
Y12605D01*
X12605D01*
Y13005D01*
X11805D01*
Y12605D01*
X11405D01*
Y11805D01*
X11805D01*
Y26765D02*
Y26365D01*
X12605D01*
Y26765D01*
X13005D01*
Y27565D01*
X12605D01*
Y27965D01*
X11805D01*
Y27565D01*
X11405D01*
Y26765D01*
X11805D01*
X8655Y19285D02*
Y18885D01*
X9455D01*
Y19285D01*
X9855D01*
Y20085D01*
X9455D01*
Y20485D01*
X8655D01*
Y20085D01*
X8255D01*
Y19285D01*
X8655D01*
X19285Y29915D02*
Y29515D01*
X20085D01*
Y29915D01*
X20485D01*
Y30715D01*
X20085D01*
Y31115D01*
X19285D01*
Y30715D01*
X18885D01*
Y29915D01*
X19285D01*
Y8655D02*
Y8255D01*
X20085D01*
Y8655D01*
X20485D01*
Y9455D01*
X20085D01*
Y9855D01*
X19285D01*
Y9455D01*
X18885D01*
Y8655D01*
X19285D01*
X29915Y19285D02*
Y18885D01*
X30715D01*
Y19285D01*
X31115D01*
Y20085D01*
X30715D01*
Y20485D01*
X29915D01*
Y20085D01*
X29515D01*
Y19285D01*
X29915D01*
X58255Y172428D02*
X58655D01*
X59055Y172828D01*
X59455Y172428D01*
X59855D01*
Y172828D01*
X59455Y173228D01*
X59855Y173628D01*
Y174028D01*
X59455D01*
X59055Y173628D01*
X58655Y174028D01*
X58255D01*
Y173628D01*
X58655Y173228D01*
X58255Y172828D01*
Y172428D01*
X231680Y160617D02*
X232080D01*
X232480Y161017D01*
X232880Y160617D01*
X233280D01*
Y161017D01*
X232880Y161417D01*
X233280Y161817D01*
Y162217D01*
X232880D01*
X232480Y161817D01*
X232080Y162217D01*
X231680D01*
Y161817D01*
X232080Y161417D01*
X231680Y161017D01*
Y160617D01*
X145066D02*
X145466D01*
X145866Y161017D01*
X146266Y160617D01*
X146666D01*
Y161017D01*
X146266Y161417D01*
X146666Y161817D01*
Y162217D01*
X146266D01*
X145866Y161817D01*
X145466Y162217D01*
X145066D01*
Y161817D01*
X145466Y161417D01*
X145066Y161017D01*
Y160617D01*
Y172428D02*
X145466D01*
X145866Y172828D01*
X146266Y172428D01*
X146666D01*
Y172828D01*
X146266Y173228D01*
X146666Y173628D01*
Y174028D01*
X146266D01*
X145866Y173628D01*
X145466Y174028D01*
X145066D01*
Y173628D01*
X145466Y173228D01*
X145066Y172828D01*
Y172428D01*
X231680D02*
X232080D01*
X232480Y172828D01*
X232880Y172428D01*
X233280D01*
Y172828D01*
X232880Y173228D01*
X233280Y173628D01*
Y174028D01*
X232880D01*
X232480Y173628D01*
X232080Y174028D01*
X231680D01*
Y173628D01*
X232080Y173228D01*
X231680Y172828D01*
Y172428D01*
X215735Y135027D02*
X216135D01*
X216535Y135427D01*
X216935Y135027D01*
X217335D01*
Y135427D01*
X216935Y135827D01*
X217335Y136227D01*
Y136627D01*
X216935D01*
X216535Y136227D01*
X216135Y136627D01*
X215735D01*
Y136227D01*
X216135Y135827D01*
X215735Y135427D01*
Y135027D01*
X288570Y57087D02*
X289370Y57887D01*
X290170Y57087D01*
X289370Y56287D01*
X288570Y57087D01*
X284633Y62992D02*
X285433Y63792D01*
X286233Y62992D01*
X285433Y62192D01*
X284633Y62992D01*
X314161Y70066D02*
X314561D01*
X314961Y70466D01*
X315361Y70066D01*
X315761D01*
Y70466D01*
X315361Y70866D01*
X315761Y71266D01*
Y71666D01*
X315361D01*
X314961Y71266D01*
X314561Y71666D01*
X314161D01*
Y71266D01*
X314561Y70866D01*
X314161Y70466D01*
Y70066D01*
X304318Y45276D02*
X305118Y46076D01*
X305918Y45276D01*
X305118Y44476D01*
X304318Y45276D01*
X278728Y39370D02*
X279528Y40170D01*
X280328Y39370D01*
X279528Y38570D01*
X278728Y39370D01*
X284633D02*
X285433Y40170D01*
X286233Y39370D01*
X285433Y38570D01*
X284633Y39370D01*
X300381Y90551D02*
X301181Y91351D01*
X301981Y90551D01*
X301181Y89751D01*
X300381Y90551D01*
X290539Y39370D02*
X291339Y40170D01*
X292139Y39370D01*
X291339Y38570D01*
X290539Y39370D01*
X183255Y34449D02*
X184055Y35249D01*
X184855Y34449D01*
X184055Y33649D01*
X183255Y34449D01*
X288570Y70866D02*
X289370Y71666D01*
X290170Y70866D01*
X289370Y70066D01*
X288570Y70866D01*
X294476Y66929D02*
X295276Y67729D01*
X296076Y66929D01*
X295276Y66129D01*
X294476Y66929D01*
X241326Y51181D02*
X242126Y51981D01*
X242926Y51181D01*
X242126Y50381D01*
X241326Y51181D01*
X231484Y53150D02*
X232283Y53950D01*
X233084Y53150D01*
X232283Y52350D01*
X231484Y53150D01*
X207861Y100578D02*
X208261D01*
X208661Y100978D01*
X209061Y100578D01*
X209461D01*
Y100978D01*
X209061Y101378D01*
X209461Y101778D01*
Y102178D01*
X209061D01*
X208661Y101778D01*
X208261Y102178D01*
X207861D01*
Y101778D01*
X208261Y101378D01*
X207861Y100978D01*
Y100578D01*
X206877Y201956D02*
X207277D01*
X207677Y202356D01*
X208077Y201956D01*
X208477D01*
Y202356D01*
X208077Y202756D01*
X208477Y203156D01*
Y203556D01*
X208077D01*
X207677Y203156D01*
X207277Y203556D01*
X206877D01*
Y203156D01*
X207277Y202756D01*
X206877Y202356D01*
Y201956D01*
X99987Y170854D02*
Y172454D01*
X101587D01*
Y170854D01*
X99987D01*
X100387Y171254D02*
Y172054D01*
X101187D01*
Y171254D01*
X100387D01*
X107074Y156680D02*
Y158280D01*
X108674D01*
Y156680D01*
X107074D01*
X107474Y157080D02*
Y157880D01*
X108274D01*
Y157080D01*
X107474D01*
X99987Y142507D02*
Y144107D01*
X101587D01*
Y142507D01*
X99987D01*
X100387Y142907D02*
Y143707D01*
X101187D01*
Y142907D01*
X100387D01*
X107074Y128334D02*
Y129934D01*
X108674D01*
Y128334D01*
X107074D01*
X107474Y128734D02*
Y129534D01*
X108274D01*
Y128734D01*
X107474D01*
X99987Y114161D02*
Y115761D01*
X101587D01*
Y114161D01*
X99987D01*
X100387Y114561D02*
Y115361D01*
X101187D01*
Y114561D01*
X100387D01*
X85814Y170854D02*
Y172454D01*
X87414D01*
Y170854D01*
X85814D01*
X86214Y171254D02*
Y172054D01*
X87014D01*
Y171254D01*
X86214D01*
X92901Y156680D02*
Y158280D01*
X94501D01*
Y156680D01*
X92901D01*
X93301Y157080D02*
Y157880D01*
X94101D01*
Y157080D01*
X93301D01*
X85814Y142507D02*
Y144107D01*
X87414D01*
Y142507D01*
X85814D01*
X86214Y142907D02*
Y143707D01*
X87014D01*
Y142907D01*
X86214D01*
X92901Y128334D02*
Y129934D01*
X94501D01*
Y128334D01*
X92901D01*
X93301Y128734D02*
Y129534D01*
X94101D01*
Y128734D01*
X93301D01*
X78728Y156680D02*
Y158280D01*
X80328D01*
Y156680D01*
X78728D01*
X79128Y157080D02*
Y157880D01*
X79928D01*
Y157080D01*
X79128D01*
X71641Y142507D02*
Y144107D01*
X73241D01*
Y142507D01*
X71641D01*
X72041Y142907D02*
Y143707D01*
X72841D01*
Y142907D01*
X72041D01*
X78728Y128334D02*
Y129934D01*
X80328D01*
Y128334D01*
X78728D01*
X79128Y128734D02*
Y129534D01*
X79928D01*
Y128734D01*
X79128D01*
X71641Y114161D02*
Y115761D01*
X73241D01*
Y114161D01*
X71641D01*
X72041Y114561D02*
Y115361D01*
X72841D01*
Y114561D01*
X72041D01*
D76*
X149717Y43701D02*
G03*
X149717Y43701I-800J0D01*
G01*
X206213D02*
G03*
X206213Y43701I-800J0D01*
G01*
X167217D02*
G03*
X167217Y43701I-800J0D01*
G01*
X188713D02*
G03*
X188713Y43701I-800J0D01*
G01*
Y68701D02*
G03*
X188713Y68701I-800J0D01*
G01*
X167217D02*
G03*
X167217Y68701I-800J0D01*
G01*
X206213D02*
G03*
X206213Y68701I-800J0D01*
G01*
X149717D02*
G03*
X149717Y68701I-800J0D01*
G01*
M02*
