G04 Layer_Physical_Order=2*
G04 Layer_Color=16711680*
%FSLAX25Y25*%
%MOIN*%
G70*
G01*
G75*
%ADD32C,0.13780*%
%ADD34C,0.00984*%
%ADD37C,0.03937*%
%ADD38C,0.07087*%
%ADD40C,0.47244*%
%ADD41C,0.11811*%
%ADD42C,0.27559*%
%ADD43C,0.06299*%
%ADD44C,0.05000*%
%ADD45C,0.03150*%
%ADD46R,0.23622X0.25591*%
%ADD47R,0.39370X0.34449*%
G36*
X392188Y312537D02*
Y41794D01*
X351907Y1513D01*
X41794D01*
X1513Y41794D01*
Y312537D01*
X41794Y352817D01*
X351907D01*
X392188Y312537D01*
D02*
G37*
%LPC*%
G36*
X305118Y337227D02*
X304450Y337139D01*
X303828Y336881D01*
X303293Y336471D01*
X303048Y336151D01*
X218504D01*
X217928Y336036D01*
X217440Y335710D01*
X196616Y314887D01*
X196172Y315227D01*
X195550Y315485D01*
X194882Y315573D01*
X194214Y315485D01*
X193591Y315227D01*
X193057Y314817D01*
X192647Y314283D01*
X192389Y313660D01*
X191852Y313418D01*
X191613Y313517D01*
X190945Y313605D01*
X190277Y313517D01*
X189654Y313259D01*
X189120Y312849D01*
X188710Y312314D01*
X188452Y311692D01*
X188364Y311024D01*
X188452Y310356D01*
X188710Y309733D01*
X189120Y309198D01*
X189654Y308788D01*
X190277Y308530D01*
X190945Y308442D01*
X191605Y308529D01*
X191849Y308286D01*
X192337Y307960D01*
X192913Y307845D01*
X196374D01*
X196950Y307960D01*
X197438Y308286D01*
X220324Y331172D01*
X240917D01*
X241086Y330672D01*
X240359Y330114D01*
X239696Y329250D01*
X239280Y328244D01*
X239138Y327165D01*
X239280Y326086D01*
X239696Y325081D01*
X240359Y324217D01*
X241222Y323554D01*
X242228Y323138D01*
X243307Y322996D01*
X244386Y323138D01*
X245392Y323554D01*
X246255Y324217D01*
X246918Y325081D01*
X247335Y326086D01*
X247477Y327165D01*
X247335Y328244D01*
X246918Y329250D01*
X246255Y330114D01*
X245528Y330672D01*
X245698Y331172D01*
X250917D01*
X251086Y330672D01*
X250359Y330114D01*
X249696Y329250D01*
X249280Y328244D01*
X249138Y327165D01*
X249280Y326086D01*
X249696Y325081D01*
X250359Y324217D01*
X251222Y323554D01*
X252228Y323138D01*
X253307Y322996D01*
X254386Y323138D01*
X255392Y323554D01*
X256255Y324217D01*
X256918Y325081D01*
X257334Y326086D01*
X257477Y327165D01*
X257334Y328244D01*
X256918Y329250D01*
X256255Y330114D01*
X255528Y330672D01*
X255698Y331172D01*
X288747D01*
X292243Y327676D01*
X292731Y327349D01*
X293307Y327235D01*
X303048D01*
X303293Y326915D01*
X303828Y326505D01*
X304450Y326247D01*
X305118Y326159D01*
X305786Y326247D01*
X306409Y326505D01*
X306943Y326915D01*
X307353Y327450D01*
X307611Y328072D01*
X307699Y328740D01*
X307611Y329408D01*
X307353Y330031D01*
X306943Y330565D01*
X306409Y330976D01*
X305786Y331233D01*
X305118Y331321D01*
X304450Y331233D01*
X303828Y330976D01*
X303293Y330565D01*
X303048Y330245D01*
X293931D01*
X291498Y332678D01*
X291689Y333140D01*
X303048D01*
X303293Y332821D01*
X303828Y332410D01*
X304450Y332153D01*
X305118Y332065D01*
X305786Y332153D01*
X306409Y332410D01*
X306943Y332821D01*
X307353Y333355D01*
X307611Y333978D01*
X307699Y334646D01*
X307611Y335314D01*
X307353Y335936D01*
X306943Y336471D01*
X306409Y336881D01*
X305786Y337139D01*
X305118Y337227D01*
D02*
G37*
G36*
X253307Y321335D02*
X252228Y321193D01*
X251222Y320776D01*
X250359Y320114D01*
X249696Y319250D01*
X249280Y318245D01*
X249138Y317165D01*
X249280Y316086D01*
X249696Y315081D01*
X250359Y314217D01*
X251222Y313554D01*
X252228Y313138D01*
X253307Y312996D01*
X254386Y313138D01*
X255392Y313554D01*
X256255Y314217D01*
X256918Y315081D01*
X257334Y316086D01*
X257477Y317165D01*
X257334Y318245D01*
X256918Y319250D01*
X256255Y320114D01*
X255392Y320776D01*
X254386Y321193D01*
X253307Y321335D01*
D02*
G37*
G36*
X238681Y323297D02*
X222185D01*
X221609Y323182D01*
X221121Y322856D01*
X204101Y305836D01*
X191441D01*
X191195Y306156D01*
X190661Y306566D01*
X190038Y306824D01*
X189370Y306912D01*
X188702Y306824D01*
X188080Y306566D01*
X187545Y306156D01*
X187135Y305621D01*
X186877Y304999D01*
X186789Y304331D01*
X186877Y303663D01*
X187135Y303040D01*
X187545Y302506D01*
X188080Y302095D01*
X188702Y301837D01*
X189370Y301750D01*
X190038Y301837D01*
X190661Y302095D01*
X191195Y302506D01*
X191441Y302825D01*
X204724D01*
X205300Y302940D01*
X205789Y303266D01*
X222809Y320286D01*
X229861D01*
X230107Y319786D01*
X229696Y319250D01*
X229280Y318245D01*
X229138Y317165D01*
X229280Y316086D01*
X229696Y315081D01*
X230359Y314217D01*
X231222Y313554D01*
X232228Y313138D01*
X233307Y312996D01*
X234386Y313138D01*
X235392Y313554D01*
X236255Y314217D01*
X236918Y315081D01*
X237334Y316086D01*
X237477Y317165D01*
X237334Y318245D01*
X236918Y319250D01*
X236507Y319786D01*
X236753Y320286D01*
X238058D01*
X239520Y318824D01*
X239280Y318245D01*
X239138Y317165D01*
X239280Y316086D01*
X239696Y315081D01*
X240359Y314217D01*
X241222Y313554D01*
X242228Y313138D01*
X243307Y312996D01*
X244386Y313138D01*
X245392Y313554D01*
X246255Y314217D01*
X246918Y315081D01*
X247335Y316086D01*
X247477Y317165D01*
X247335Y318245D01*
X246918Y319250D01*
X246255Y320114D01*
X245392Y320776D01*
X244386Y321193D01*
X243307Y321335D01*
X242228Y321193D01*
X241649Y320953D01*
X239745Y322856D01*
X239257Y323182D01*
X238681Y323297D01*
D02*
G37*
G36*
X223622Y316361D02*
X222954Y316273D01*
X222332Y316015D01*
X221797Y315605D01*
X221387Y315070D01*
X221129Y314448D01*
X221041Y313779D01*
X221129Y313111D01*
X221387Y312489D01*
X221797Y311954D01*
X222332Y311544D01*
X222954Y311286D01*
X223622Y311198D01*
X224022Y311251D01*
X234326Y300947D01*
X233985Y300503D01*
X233727Y299881D01*
X233639Y299213D01*
X233727Y298545D01*
X233985Y297922D01*
X234395Y297388D01*
X234930Y296977D01*
X235552Y296719D01*
X236221Y296632D01*
X236889Y296719D01*
X237511Y296977D01*
X238046Y297388D01*
X238456Y297922D01*
X238714Y298545D01*
X238802Y299213D01*
X238714Y299881D01*
X238456Y300503D01*
X238046Y301038D01*
X237702Y301302D01*
X237611Y301757D01*
X237285Y302245D01*
X226151Y313380D01*
X226203Y313779D01*
X226115Y314448D01*
X225857Y315070D01*
X225447Y315605D01*
X224913Y316015D01*
X224290Y316273D01*
X223622Y316361D01*
D02*
G37*
G36*
X207874Y297857D02*
X207206Y297769D01*
X206583Y297511D01*
X206049Y297101D01*
X205803Y296781D01*
X183071D01*
X182495Y296666D01*
X182007Y296340D01*
X175597Y289930D01*
X175197Y289983D01*
X174529Y289895D01*
X173906Y289637D01*
X173372Y289227D01*
X172961Y288692D01*
X172704Y288070D01*
X172616Y287402D01*
X172704Y286734D01*
X172961Y286111D01*
X173372Y285576D01*
X173906Y285166D01*
X174529Y284908D01*
X175197Y284820D01*
X175865Y284908D01*
X176487Y285166D01*
X177022Y285576D01*
X177432Y286111D01*
X177690Y286734D01*
X177778Y287402D01*
X177725Y287801D01*
X183694Y293770D01*
X205803D01*
X206049Y293450D01*
X206583Y293040D01*
X207206Y292782D01*
X207874Y292694D01*
X208542Y292782D01*
X209165Y293040D01*
X209699Y293450D01*
X210109Y293985D01*
X210367Y294607D01*
X210455Y295276D01*
X210367Y295944D01*
X210109Y296566D01*
X209699Y297101D01*
X209165Y297511D01*
X208542Y297769D01*
X207874Y297857D01*
D02*
G37*
G36*
X287402Y304695D02*
X286492Y304576D01*
X285644Y304225D01*
X284917Y303666D01*
X284358Y302938D01*
X284007Y302091D01*
X283993Y301984D01*
X242861Y260852D01*
X214441D01*
X214356Y260917D01*
X213508Y261269D01*
X212598Y261388D01*
X211689Y261269D01*
X210841Y260917D01*
X210113Y260359D01*
X209555Y259631D01*
X209204Y258784D01*
X209084Y257874D01*
X209204Y256964D01*
X209555Y256117D01*
X210113Y255389D01*
X210841Y254831D01*
X211689Y254479D01*
X212598Y254360D01*
X213508Y254479D01*
X214356Y254831D01*
X214441Y254896D01*
X244094D01*
X244865Y254997D01*
X245584Y255295D01*
X246200Y255768D01*
X288205Y297773D01*
X288311Y297786D01*
X289159Y298138D01*
X289887Y298696D01*
X290445Y299424D01*
X290796Y300272D01*
X290916Y301181D01*
X290796Y302091D01*
X290445Y302938D01*
X289887Y303666D01*
X289159Y304225D01*
X288311Y304576D01*
X287402Y304695D01*
D02*
G37*
G36*
X278346Y253779D02*
X277165Y253624D01*
X276063Y253167D01*
X275117Y252442D01*
X252205Y229529D01*
X229056Y252678D01*
X228731Y252896D01*
X228346Y252972D01*
X165354Y252972D01*
X164970Y252896D01*
X164645Y252678D01*
X117695Y205728D01*
X78740Y205728D01*
X78356Y205651D01*
X78031Y205434D01*
X62283Y189686D01*
X62065Y189360D01*
X61989Y188976D01*
X61989Y153543D01*
X62065Y153159D01*
X62283Y152834D01*
X62608Y152616D01*
X62992Y152540D01*
X125984Y152540D01*
X126368Y152616D01*
X126694Y152834D01*
X134274Y160414D01*
X208661Y160414D01*
X208661Y160414D01*
X248031D01*
X248032Y160414D01*
X259427D01*
X267007Y152834D01*
X267333Y152616D01*
X267717Y152540D01*
X330709Y152540D01*
X331093Y152616D01*
X331418Y152834D01*
X331636Y153159D01*
X331712Y153543D01*
X331712Y188976D01*
X331636Y189360D01*
X331418Y189686D01*
X315670Y205434D01*
X315345Y205652D01*
X314961Y205728D01*
X276006Y205728D01*
X258663Y223071D01*
X281576Y245984D01*
X282301Y246929D01*
X282757Y248031D01*
X282913Y249213D01*
X282757Y250395D01*
X282301Y251496D01*
X281576Y252442D01*
X280630Y253167D01*
X279528Y253624D01*
X278346Y253779D01*
D02*
G37*
G36*
X170079Y158093D02*
X169411Y158005D01*
X168788Y157747D01*
X168254Y157337D01*
X168008Y157017D01*
X157582D01*
X157337Y157337D01*
X156802Y157747D01*
X156180Y158005D01*
X155512Y158093D01*
X154844Y158005D01*
X154221Y157747D01*
X153687Y157337D01*
X153277Y156802D01*
X153019Y156180D01*
X152931Y155512D01*
X153019Y154844D01*
X153277Y154221D01*
X153687Y153687D01*
X153774Y153620D01*
X153605Y153120D01*
X143740D01*
X143164Y153005D01*
X142676Y152679D01*
X82054Y92057D01*
X67031D01*
X66786Y92376D01*
X66251Y92787D01*
X65629Y93044D01*
X64961Y93132D01*
X64293Y93044D01*
X63670Y92787D01*
X63135Y92376D01*
X62725Y91842D01*
X62467Y91219D01*
X62379Y90551D01*
X62467Y89883D01*
X62725Y89261D01*
X63135Y88726D01*
X63670Y88316D01*
X64293Y88058D01*
X64961Y87970D01*
X65629Y88058D01*
X66251Y88316D01*
X66786Y88726D01*
X67031Y89046D01*
X82677D01*
X83253Y89161D01*
X83742Y89487D01*
X136355Y142100D01*
X136816Y141854D01*
X136792Y141732D01*
X136792Y122047D01*
X136868Y121663D01*
X137086Y121338D01*
X148897Y109527D01*
X149222Y109309D01*
X149606Y109233D01*
X157065D01*
X180144Y86153D01*
Y68685D01*
X180296Y67141D01*
X180746Y65657D01*
X181478Y64289D01*
X182462Y63090D01*
X183661Y62106D01*
X185029Y61375D01*
X186513Y60925D01*
X188056Y60773D01*
X189600Y60925D01*
X191084Y61375D01*
X192452Y62106D01*
X193651Y63090D01*
X194635Y64289D01*
X195366Y65657D01*
X195816Y67141D01*
X195968Y68685D01*
Y113253D01*
X195885Y114096D01*
X195885Y143701D01*
X195809Y144085D01*
X195591Y144410D01*
X189686Y150316D01*
X189360Y150533D01*
X188976Y150610D01*
X173228Y150610D01*
X172844Y150533D01*
X172519Y150316D01*
X172301Y149990D01*
X172225Y149606D01*
Y134862D01*
X158484D01*
Y149194D01*
X158984Y149440D01*
X159064Y149379D01*
X159686Y149121D01*
X160354Y149033D01*
X161022Y149121D01*
X161645Y149379D01*
X162180Y149789D01*
X162590Y150324D01*
X162847Y150946D01*
X162935Y151614D01*
X162847Y152282D01*
X162590Y152905D01*
X162180Y153439D01*
X162092Y153507D01*
X162262Y154007D01*
X168008D01*
X168254Y153687D01*
X168788Y153277D01*
X169411Y153019D01*
X170079Y152931D01*
X170747Y153019D01*
X171369Y153277D01*
X171904Y153687D01*
X172314Y154221D01*
X172572Y154844D01*
X172660Y155512D01*
X172572Y156180D01*
X172314Y156802D01*
X171904Y157337D01*
X171369Y157747D01*
X170747Y158005D01*
X170079Y158093D01*
D02*
G37*
G36*
X233465D02*
X232797Y158005D01*
X232174Y157747D01*
X231639Y157337D01*
X231229Y156802D01*
X230971Y156180D01*
X230883Y155512D01*
X230971Y154844D01*
X231229Y154221D01*
X231639Y153687D01*
X231727Y153620D01*
X231557Y153120D01*
X225417D01*
X225172Y153439D01*
X224637Y153849D01*
X224014Y154107D01*
X223346Y154195D01*
X222678Y154107D01*
X222056Y153849D01*
X221521Y153439D01*
X221111Y152905D01*
X220853Y152282D01*
X220765Y151614D01*
X220842Y151029D01*
X220675Y150789D01*
X220457Y150595D01*
X220384Y150610D01*
X204636D01*
X204252Y150533D01*
X203927Y150316D01*
X198021Y144410D01*
X197804Y144085D01*
X197727Y143701D01*
Y114184D01*
X197644Y113341D01*
Y68685D01*
X197796Y67141D01*
X198247Y65657D01*
X198978Y64289D01*
X199962Y63090D01*
X201161Y62106D01*
X202529Y61375D01*
X204013Y60925D01*
X205556Y60773D01*
X207100Y60925D01*
X208584Y61375D01*
X209952Y62106D01*
X211151Y63090D01*
X212135Y64289D01*
X212866Y65657D01*
X213316Y67141D01*
X213468Y68685D01*
Y86153D01*
X236548Y109233D01*
X244006D01*
X244390Y109309D01*
X244716Y109527D01*
X256615Y121426D01*
X256833Y121751D01*
X256909Y122135D01*
X256909Y141732D01*
X256833Y142116D01*
X256615Y142442D01*
X249410Y149647D01*
X249601Y150109D01*
X253274D01*
X313896Y89487D01*
X314385Y89161D01*
X314961Y89046D01*
X326670D01*
X326915Y88726D01*
X327450Y88316D01*
X328072Y88058D01*
X328740Y87970D01*
X329408Y88058D01*
X330031Y88316D01*
X330565Y88726D01*
X330976Y89261D01*
X331233Y89883D01*
X331321Y90551D01*
X331233Y91219D01*
X330976Y91842D01*
X330565Y92376D01*
X330031Y92787D01*
X329408Y93044D01*
X328740Y93132D01*
X328072Y93044D01*
X327450Y92787D01*
X326915Y92376D01*
X326670Y92057D01*
X315584D01*
X254962Y152679D01*
X254474Y153005D01*
X253898Y153120D01*
X235372D01*
X235202Y153620D01*
X235290Y153687D01*
X235700Y154221D01*
X235958Y154844D01*
X236046Y155512D01*
X235958Y156180D01*
X235700Y156802D01*
X235290Y157337D01*
X234755Y157747D01*
X234133Y158005D01*
X233465Y158093D01*
D02*
G37*
G36*
X113976Y142148D02*
X113308Y142060D01*
X112686Y141802D01*
X112151Y141392D01*
X111741Y140858D01*
X111483Y140235D01*
X111395Y139567D01*
X111448Y139167D01*
X80085Y107805D01*
X67031D01*
X66786Y108124D01*
X66251Y108535D01*
X65629Y108792D01*
X64961Y108880D01*
X64293Y108792D01*
X63670Y108535D01*
X63135Y108124D01*
X62725Y107590D01*
X62467Y106967D01*
X62379Y106299D01*
X62467Y105631D01*
X62725Y105009D01*
X63135Y104474D01*
X63670Y104064D01*
X64293Y103806D01*
X64961Y103718D01*
X65629Y103806D01*
X66251Y104064D01*
X66786Y104474D01*
X67031Y104794D01*
X80709D01*
X81285Y104909D01*
X81773Y105235D01*
X113577Y137038D01*
X113976Y136986D01*
X114644Y137074D01*
X115267Y137332D01*
X115802Y137742D01*
X116212Y138276D01*
X116470Y138899D01*
X116558Y139567D01*
X116470Y140235D01*
X116212Y140858D01*
X115802Y141392D01*
X115267Y141802D01*
X114644Y142060D01*
X113976Y142148D01*
D02*
G37*
G36*
X78543Y142148D02*
X77875Y142060D01*
X77253Y141802D01*
X76718Y141392D01*
X76308Y140858D01*
X76050Y140235D01*
X75962Y139567D01*
X76050Y138899D01*
X76308Y138276D01*
X76718Y137742D01*
X77038Y137496D01*
Y132316D01*
X68274Y123553D01*
X67031D01*
X66786Y123872D01*
X66251Y124283D01*
X65629Y124540D01*
X64961Y124628D01*
X64293Y124540D01*
X63670Y124283D01*
X63135Y123872D01*
X62725Y123338D01*
X62467Y122715D01*
X62379Y122047D01*
X62467Y121379D01*
X62725Y120757D01*
X63135Y120222D01*
X63670Y119812D01*
X64293Y119554D01*
X64961Y119466D01*
X65629Y119554D01*
X66251Y119812D01*
X66786Y120222D01*
X67031Y120542D01*
X68898D01*
X69474Y120657D01*
X69962Y120983D01*
X79608Y130629D01*
X79934Y131117D01*
X80049Y131693D01*
Y137496D01*
X80368Y137742D01*
X80779Y138276D01*
X81037Y138899D01*
X81125Y139567D01*
X81037Y140235D01*
X80779Y140858D01*
X80368Y141392D01*
X79834Y141802D01*
X79211Y142060D01*
X78543Y142148D01*
D02*
G37*
G36*
X314764Y142148D02*
X314096Y142060D01*
X313473Y141802D01*
X312939Y141392D01*
X312528Y140858D01*
X312271Y140235D01*
X312183Y139567D01*
X312271Y138899D01*
X312528Y138276D01*
X312939Y137742D01*
X313259Y137496D01*
Y132087D01*
X313373Y131511D01*
X313699Y131022D01*
X323739Y120983D01*
X324227Y120657D01*
X324803Y120542D01*
X326670D01*
X326915Y120222D01*
X327450Y119812D01*
X328072Y119554D01*
X328740Y119466D01*
X329408Y119554D01*
X330031Y119812D01*
X330565Y120222D01*
X330976Y120757D01*
X331233Y121379D01*
X331321Y122047D01*
X331233Y122715D01*
X330976Y123338D01*
X330565Y123872D01*
X330031Y124283D01*
X329408Y124540D01*
X328740Y124628D01*
X328072Y124540D01*
X327450Y124283D01*
X326915Y123872D01*
X326670Y123553D01*
X325427D01*
X316269Y132710D01*
Y137496D01*
X316589Y137742D01*
X316999Y138276D01*
X317257Y138899D01*
X317345Y139567D01*
X317257Y140235D01*
X316999Y140858D01*
X316589Y141392D01*
X316054Y141802D01*
X315432Y142060D01*
X314764Y142148D01*
D02*
G37*
G36*
X279331D02*
X278663Y142060D01*
X278040Y141802D01*
X277506Y141392D01*
X277095Y140858D01*
X276837Y140235D01*
X276750Y139567D01*
X276837Y138899D01*
X277095Y138276D01*
X277506Y137742D01*
X278040Y137332D01*
X278663Y137074D01*
X279331Y136986D01*
X279730Y137038D01*
X311534Y105235D01*
X312022Y104909D01*
X312598Y104794D01*
X326670D01*
X326915Y104474D01*
X327450Y104064D01*
X328072Y103806D01*
X328740Y103718D01*
X329408Y103806D01*
X330031Y104064D01*
X330565Y104474D01*
X330976Y105009D01*
X331233Y105631D01*
X331321Y106299D01*
X331233Y106967D01*
X330976Y107590D01*
X330565Y108124D01*
X330031Y108535D01*
X329408Y108792D01*
X328740Y108880D01*
X328072Y108792D01*
X327450Y108535D01*
X326915Y108124D01*
X326670Y107805D01*
X313222D01*
X281859Y139167D01*
X281912Y139567D01*
X281824Y140235D01*
X281566Y140858D01*
X281156Y141392D01*
X280621Y141802D01*
X279999Y142060D01*
X279331Y142148D01*
D02*
G37*
G36*
X240556Y75608D02*
X239206Y75475D01*
X237907Y75081D01*
X236710Y74441D01*
X235661Y73580D01*
X234800Y72531D01*
X234160Y71334D01*
X233766Y70036D01*
X233633Y68685D01*
X233766Y67334D01*
X234160Y66036D01*
X234800Y64839D01*
X235661Y63790D01*
X236710Y62929D01*
X237907Y62289D01*
X239206Y61895D01*
X240556Y61762D01*
X241907Y61895D01*
X243206Y62289D01*
X244403Y62929D01*
X245452Y63790D01*
X246313Y64839D01*
X246952Y66036D01*
X247346Y67334D01*
X247479Y68685D01*
X247346Y70036D01*
X246952Y71334D01*
X246313Y72531D01*
X245452Y73580D01*
X244403Y74441D01*
X243206Y75081D01*
X241907Y75475D01*
X240556Y75608D01*
D02*
G37*
G36*
X223056D02*
X221706Y75475D01*
X220407Y75081D01*
X219210Y74441D01*
X218161Y73580D01*
X217300Y72531D01*
X216660Y71334D01*
X216266Y70036D01*
X216133Y68685D01*
X216266Y67334D01*
X216660Y66036D01*
X217300Y64839D01*
X218161Y63790D01*
X219210Y62929D01*
X220407Y62289D01*
X221706Y61895D01*
X223056Y61762D01*
X224407Y61895D01*
X225706Y62289D01*
X226903Y62929D01*
X227952Y63790D01*
X228813Y64839D01*
X229452Y66036D01*
X229846Y67334D01*
X229979Y68685D01*
X229846Y70036D01*
X229452Y71334D01*
X228813Y72531D01*
X227952Y73580D01*
X226903Y74441D01*
X225706Y75081D01*
X224407Y75475D01*
X223056Y75608D01*
D02*
G37*
G36*
X170556D02*
X169206Y75475D01*
X167907Y75081D01*
X166710Y74441D01*
X165661Y73580D01*
X164800Y72531D01*
X164160Y71334D01*
X163766Y70036D01*
X163633Y68685D01*
X163766Y67334D01*
X164160Y66036D01*
X164800Y64839D01*
X165661Y63790D01*
X166710Y62929D01*
X167907Y62289D01*
X169206Y61895D01*
X170556Y61762D01*
X171907Y61895D01*
X173206Y62289D01*
X174403Y62929D01*
X175452Y63790D01*
X176313Y64839D01*
X176952Y66036D01*
X177346Y67334D01*
X177479Y68685D01*
X177346Y70036D01*
X176952Y71334D01*
X176313Y72531D01*
X175452Y73580D01*
X174403Y74441D01*
X173206Y75081D01*
X171907Y75475D01*
X170556Y75608D01*
D02*
G37*
G36*
X153056D02*
X151706Y75475D01*
X150407Y75081D01*
X149210Y74441D01*
X148161Y73580D01*
X147300Y72531D01*
X146660Y71334D01*
X146266Y70036D01*
X146133Y68685D01*
X146266Y67334D01*
X146660Y66036D01*
X147300Y64839D01*
X148161Y63790D01*
X149210Y62929D01*
X150407Y62289D01*
X151706Y61895D01*
X153056Y61762D01*
X154407Y61895D01*
X155706Y62289D01*
X156903Y62929D01*
X157952Y63790D01*
X158813Y64839D01*
X159452Y66036D01*
X159846Y67334D01*
X159979Y68685D01*
X159846Y70036D01*
X159452Y71334D01*
X158813Y72531D01*
X157952Y73580D01*
X156903Y74441D01*
X155706Y75081D01*
X154407Y75475D01*
X153056Y75608D01*
D02*
G37*
G36*
X265900Y71410D02*
X264588Y71281D01*
X263327Y70898D01*
X262164Y70277D01*
X261145Y69441D01*
X260309Y68421D01*
X259687Y67259D01*
X259304Y65997D01*
X259175Y64685D01*
X259304Y63373D01*
X259687Y62111D01*
X260309Y60949D01*
X261145Y59930D01*
X262164Y59093D01*
X263327Y58472D01*
X264588Y58089D01*
X265900Y57960D01*
X267212Y58089D01*
X268474Y58472D01*
X269637Y59093D01*
X270656Y59930D01*
X271492Y60949D01*
X272114Y62111D01*
X272497Y63373D01*
X272626Y64685D01*
X272497Y65997D01*
X272114Y67259D01*
X271492Y68421D01*
X270656Y69441D01*
X269637Y70277D01*
X268474Y70898D01*
X267212Y71281D01*
X265900Y71410D01*
D02*
G37*
G36*
X127800D02*
X126488Y71281D01*
X125227Y70898D01*
X124064Y70277D01*
X123045Y69441D01*
X122208Y68421D01*
X121587Y67259D01*
X121204Y65997D01*
X121075Y64685D01*
X121204Y63373D01*
X121587Y62111D01*
X122208Y60949D01*
X123045Y59930D01*
X124064Y59093D01*
X125227Y58472D01*
X126488Y58089D01*
X127800Y57960D01*
X129112Y58089D01*
X130374Y58472D01*
X131537Y59093D01*
X132556Y59930D01*
X133392Y60949D01*
X134014Y62111D01*
X134397Y63373D01*
X134526Y64685D01*
X134397Y65997D01*
X134014Y67259D01*
X133392Y68421D01*
X132556Y69441D01*
X131537Y70277D01*
X130374Y70898D01*
X129112Y71281D01*
X127800Y71410D01*
D02*
G37*
G36*
X223056Y50608D02*
X221706Y50475D01*
X220407Y50081D01*
X219210Y49441D01*
X218161Y48580D01*
X217300Y47531D01*
X216660Y46334D01*
X216266Y45036D01*
X216133Y43685D01*
X216266Y42334D01*
X216660Y41036D01*
X217300Y39839D01*
X218161Y38790D01*
X219210Y37929D01*
X220407Y37289D01*
X221706Y36895D01*
X223056Y36762D01*
X224407Y36895D01*
X225706Y37289D01*
X226903Y37929D01*
X227952Y38790D01*
X228813Y39839D01*
X229452Y41036D01*
X229846Y42334D01*
X229979Y43685D01*
X229846Y45036D01*
X229452Y46334D01*
X228813Y47531D01*
X227952Y48580D01*
X226903Y49441D01*
X225706Y50081D01*
X224407Y50475D01*
X223056Y50608D01*
D02*
G37*
G36*
X205556D02*
X204206Y50475D01*
X202907Y50081D01*
X201710Y49441D01*
X200661Y48580D01*
X199800Y47531D01*
X199160Y46334D01*
X198766Y45036D01*
X198633Y43685D01*
X198766Y42334D01*
X199160Y41036D01*
X199800Y39839D01*
X200661Y38790D01*
X201710Y37929D01*
X202907Y37289D01*
X204206Y36895D01*
X205556Y36762D01*
X206907Y36895D01*
X208206Y37289D01*
X209403Y37929D01*
X210452Y38790D01*
X211313Y39839D01*
X211952Y41036D01*
X212346Y42334D01*
X212479Y43685D01*
X212346Y45036D01*
X211952Y46334D01*
X211313Y47531D01*
X210452Y48580D01*
X209403Y49441D01*
X208206Y50081D01*
X206907Y50475D01*
X205556Y50608D01*
D02*
G37*
G36*
X188056D02*
X186706Y50475D01*
X185407Y50081D01*
X184210Y49441D01*
X183161Y48580D01*
X182300Y47531D01*
X181660Y46334D01*
X181266Y45036D01*
X181133Y43685D01*
X181266Y42334D01*
X181660Y41036D01*
X182300Y39839D01*
X183161Y38790D01*
X184210Y37929D01*
X185407Y37289D01*
X186706Y36895D01*
X188056Y36762D01*
X189407Y36895D01*
X190706Y37289D01*
X191903Y37929D01*
X192952Y38790D01*
X193813Y39839D01*
X194452Y41036D01*
X194846Y42334D01*
X194979Y43685D01*
X194846Y45036D01*
X194452Y46334D01*
X193813Y47531D01*
X192952Y48580D01*
X191903Y49441D01*
X190706Y50081D01*
X189407Y50475D01*
X188056Y50608D01*
D02*
G37*
G36*
X170556D02*
X169206Y50475D01*
X167907Y50081D01*
X166710Y49441D01*
X165661Y48580D01*
X164800Y47531D01*
X164160Y46334D01*
X163766Y45036D01*
X163633Y43685D01*
X163766Y42334D01*
X164160Y41036D01*
X164800Y39839D01*
X165661Y38790D01*
X166710Y37929D01*
X167907Y37289D01*
X169206Y36895D01*
X170556Y36762D01*
X171907Y36895D01*
X173206Y37289D01*
X174403Y37929D01*
X175452Y38790D01*
X176313Y39839D01*
X176952Y41036D01*
X177346Y42334D01*
X177479Y43685D01*
X177346Y45036D01*
X176952Y46334D01*
X176313Y47531D01*
X175452Y48580D01*
X174403Y49441D01*
X173206Y50081D01*
X171907Y50475D01*
X170556Y50608D01*
D02*
G37*
G36*
X153056D02*
X151706Y50475D01*
X150407Y50081D01*
X149210Y49441D01*
X148161Y48580D01*
X147300Y47531D01*
X146660Y46334D01*
X146266Y45036D01*
X146133Y43685D01*
X146266Y42334D01*
X146660Y41036D01*
X147300Y39839D01*
X148161Y38790D01*
X149210Y37929D01*
X150407Y37289D01*
X151706Y36895D01*
X153056Y36762D01*
X154407Y36895D01*
X155706Y37289D01*
X156903Y37929D01*
X157952Y38790D01*
X158813Y39839D01*
X159452Y41036D01*
X159846Y42334D01*
X159979Y43685D01*
X159846Y45036D01*
X159452Y46334D01*
X158813Y47531D01*
X157952Y48580D01*
X156903Y49441D01*
X155706Y50081D01*
X154407Y50475D01*
X153056Y50608D01*
D02*
G37*
G36*
X196850Y26410D02*
X195538Y26281D01*
X194277Y25898D01*
X193114Y25277D01*
X192095Y24441D01*
X191259Y23421D01*
X190637Y22259D01*
X190254Y20997D01*
X190125Y19685D01*
X190254Y18373D01*
X190637Y17111D01*
X191259Y15949D01*
X192095Y14930D01*
X193114Y14093D01*
X194277Y13472D01*
X195538Y13089D01*
X196850Y12960D01*
X198162Y13089D01*
X199424Y13472D01*
X200587Y14093D01*
X201606Y14930D01*
X202442Y15949D01*
X203064Y17111D01*
X203447Y18373D01*
X203576Y19685D01*
X203447Y20997D01*
X203064Y22259D01*
X202442Y23421D01*
X201606Y24441D01*
X200587Y25277D01*
X199424Y25898D01*
X198162Y26281D01*
X196850Y26410D01*
D02*
G37*
%LPD*%
G36*
X275590Y204725D02*
X314961Y204725D01*
X330709Y188976D01*
X330709Y153543D01*
X267717Y153543D01*
X259842Y161417D01*
X133858Y161417D01*
X125984Y153543D01*
X62992Y153543D01*
X62992Y188976D01*
X78740Y204724D01*
X118110Y204724D01*
X165354Y251969D01*
X228346Y251969D01*
X275590Y204725D01*
D02*
G37*
G36*
X188976Y149606D02*
X194882Y143701D01*
X194882Y86614D01*
X181102Y86614D01*
X157480Y110236D01*
X149606D01*
X137795Y122047D01*
X137795Y141732D01*
X145669Y149606D01*
X157480D01*
Y133858D01*
X173228D01*
Y149606D01*
X188976Y149606D01*
D02*
G37*
G36*
X235129Y149609D02*
X235129Y149606D01*
Y134862D01*
X221388D01*
Y149261D01*
X221888Y149508D01*
X222056Y149379D01*
X222678Y149121D01*
X223346Y149033D01*
X224014Y149121D01*
X224637Y149379D01*
X225172Y149789D01*
X225417Y150109D01*
X234729D01*
X235129Y149609D01*
D02*
G37*
G36*
X255906Y141732D02*
X255906Y122135D01*
X244006Y110236D01*
X236132D01*
X212510Y86614D01*
X198731Y86614D01*
Y143701D01*
X204636Y149606D01*
X220384D01*
Y133858D01*
X236132D01*
Y149606D01*
X248031D01*
X255906Y141732D01*
D02*
G37*
D32*
X188056Y68685D02*
Y113253D01*
X205556Y68685D02*
Y113341D01*
D34*
X223346Y151614D02*
X253898D01*
X143740D02*
X160354D01*
X155512Y155512D02*
X170079D01*
X64961Y106299D02*
X80709D01*
X113976Y139567D01*
X64961Y90551D02*
X82677D01*
X143740Y151614D01*
X64961Y122047D02*
X68898D01*
X78543Y131693D01*
Y139567D01*
X312598Y106299D02*
X328740D01*
X279331Y139567D02*
X312598Y106299D01*
X314961Y90551D02*
X328740D01*
X253898Y151614D02*
X314961Y90551D01*
X314764Y132087D02*
Y139567D01*
Y132087D02*
X324803Y122047D01*
X328740D01*
X189370Y304331D02*
X204724D01*
X222185Y321791D01*
X238681D01*
X243307Y317165D01*
X223622Y313779D02*
X236221Y301181D01*
Y299213D02*
Y301181D01*
X175197Y287402D02*
X183071Y295276D01*
X207874D01*
X218504Y334646D02*
X305118D01*
X196850Y312992D02*
X218504Y334646D01*
X293307Y328740D02*
X305118D01*
X289370Y332677D02*
X293307Y328740D01*
X219701Y332677D02*
X289370D01*
X196374Y309350D02*
X219701Y332677D01*
X190945Y311024D02*
X190945Y311024D01*
X191240D01*
X192913Y309350D01*
X196374D01*
X194882Y312992D02*
X196850D01*
D37*
X212598Y257874D02*
X244094D01*
X287402Y301181D01*
D38*
X246063Y216929D02*
X278346Y249213D01*
D40*
X196850Y224410D02*
D03*
D41*
X153056Y43685D02*
D03*
X205556D02*
D03*
X170556D02*
D03*
X188056D02*
D03*
Y68685D02*
D03*
X170556D02*
D03*
X205556D02*
D03*
X153056D02*
D03*
X240556D02*
D03*
X223056D02*
D03*
Y43685D02*
D03*
X240556D02*
D03*
D42*
X354331Y314961D02*
D03*
Y39370D02*
D03*
X39370D02*
D03*
Y314961D02*
D03*
D43*
X233307Y317165D02*
D03*
X253307D02*
D03*
X243307D02*
D03*
Y327165D02*
D03*
X253307D02*
D03*
X233307D02*
D03*
D44*
X209842Y237402D02*
D03*
X215551Y224410D02*
D03*
X196850Y205709D02*
D03*
X178150Y224410D02*
D03*
X196850Y243110D02*
D03*
X183858Y237402D02*
D03*
Y211417D02*
D03*
X209842D02*
D03*
X254724Y111024D02*
D03*
X261024Y128740D02*
D03*
X132677D02*
D03*
X138976Y111024D02*
D03*
X143701Y139764D02*
D03*
Y131890D02*
D03*
X153543Y129921D02*
D03*
X177165D02*
D03*
X187008Y139764D02*
D03*
Y131890D02*
D03*
X206693D02*
D03*
Y139764D02*
D03*
X216535Y129921D02*
D03*
X240158D02*
D03*
X250000Y131890D02*
D03*
Y139764D02*
D03*
X278346Y249213D02*
D03*
X49213Y64961D02*
D03*
X68898Y55118D02*
D03*
X309055Y174016D02*
D03*
X314961Y167126D02*
D03*
X309055Y160236D02*
D03*
X320866D02*
D03*
Y174016D02*
D03*
X273622D02*
D03*
X279528Y167126D02*
D03*
X273622Y160236D02*
D03*
X285433D02*
D03*
Y174016D02*
D03*
X108268D02*
D03*
X114173Y167126D02*
D03*
X108268Y160236D02*
D03*
X120079D02*
D03*
Y174016D02*
D03*
X72835Y174016D02*
D03*
X78740Y167126D02*
D03*
X72835Y160236D02*
D03*
X84646D02*
D03*
Y174016D02*
D03*
X240158Y172244D02*
D03*
Y186024D02*
D03*
X234252Y179134D02*
D03*
X222441D02*
D03*
X216535Y186024D02*
D03*
Y172244D02*
D03*
X228346D02*
D03*
Y186024D02*
D03*
X177165Y172244D02*
D03*
Y186024D02*
D03*
X171260Y179134D02*
D03*
X159449D02*
D03*
X153543Y186024D02*
D03*
Y172244D02*
D03*
X165354D02*
D03*
Y186024D02*
D03*
X287402Y301181D02*
D03*
X212598Y257874D02*
D03*
X133858Y324803D02*
D03*
Y293307D02*
D03*
D45*
X53150Y153543D02*
D03*
X45276D02*
D03*
X37402D02*
D03*
X223346Y151614D02*
D03*
X233465Y155512D02*
D03*
X340551Y153543D02*
D03*
X348425D02*
D03*
X356299D02*
D03*
X155512Y155512D02*
D03*
X170079D02*
D03*
X160354Y151614D02*
D03*
X78543Y139567D02*
D03*
X113976Y139567D02*
D03*
X279331D02*
D03*
X314764D02*
D03*
X64961Y122047D02*
D03*
X64961Y106299D02*
D03*
X64961Y90551D02*
D03*
X328740Y122047D02*
D03*
Y106299D02*
D03*
Y90551D02*
D03*
X223622Y313779D02*
D03*
X189370Y304331D02*
D03*
X236221Y299213D02*
D03*
X175197Y287402D02*
D03*
X207874Y295276D02*
D03*
X305118Y328740D02*
D03*
Y334646D02*
D03*
X190945Y311024D02*
D03*
X194882Y312992D02*
D03*
D46*
X314961Y167126D02*
D03*
X279527D02*
D03*
X114173D02*
D03*
X78740Y167126D02*
D03*
D47*
X228346Y178642D02*
D03*
X165354Y178642D02*
D03*
M02*
