G04 Layer_Physical_Order=4*
G04 Layer_Color=16711680*
%FSLAX25Y25*%
%MOIN*%
G70*
G01*
G75*
%ADD48C,0.05905*%
%ADD49C,0.07874*%
%ADD54C,0.06299*%
%ADD55C,0.12992*%
%ADD56C,0.07874*%
%ADD57C,0.27559*%
%ADD58C,0.03150*%
%ADD59C,0.02756*%
%ADD60C,0.02362*%
%ADD68R,0.28347X0.18898*%
%ADD69R,0.28347X0.18898*%
%ADD70R,0.21260X0.29921*%
%ADD71R,0.21260X0.29921*%
G36*
X487722Y389536D02*
X489999Y389084D01*
X492220Y388410D01*
X494364Y387522D01*
X496411Y386427D01*
X498341Y385138D01*
X500135Y383666D01*
X501776Y382025D01*
X503248Y380230D01*
X504538Y378300D01*
X505632Y376254D01*
X506520Y374109D01*
X507194Y371888D01*
X507647Y369612D01*
X507874Y367302D01*
Y366142D01*
Y27559D01*
X507874D01*
Y26399D01*
X507647Y24089D01*
X507194Y21812D01*
X506520Y19591D01*
X505632Y17447D01*
X504538Y15400D01*
X503248Y13470D01*
X501776Y11676D01*
X500135Y10035D01*
X498341Y8563D01*
X496411Y7273D01*
X494364Y6179D01*
X492220Y5291D01*
X489999Y4617D01*
X487722Y4165D01*
X485412Y3937D01*
X484252D01*
X27559Y3937D01*
X26399D01*
X24089Y4165D01*
X21812Y4617D01*
X19591Y5291D01*
X17447Y6179D01*
X15400Y7273D01*
X13470Y8563D01*
X11676Y10035D01*
X10035Y11676D01*
X8563Y13470D01*
X7273Y15400D01*
X6179Y17447D01*
X5291Y19591D01*
X4617Y21812D01*
X4165Y24089D01*
X3937Y26399D01*
X3937Y27559D01*
X3937Y366142D01*
Y367302D01*
X4165Y369612D01*
X4617Y371888D01*
X5291Y374109D01*
X6179Y376254D01*
X7273Y378300D01*
X8563Y380230D01*
X10035Y382024D01*
X11676Y383666D01*
X13470Y385138D01*
X15400Y386427D01*
X17447Y387522D01*
X19591Y388410D01*
X21812Y389084D01*
X24089Y389536D01*
X26399Y389764D01*
X27559D01*
X484252Y389764D01*
X485412D01*
X487722Y389536D01*
D02*
G37*
%LPC*%
G36*
X234252Y139610D02*
X233558Y139472D01*
X232969Y139078D01*
X232576Y138490D01*
X232438Y137795D01*
X232576Y137101D01*
X232969Y136512D01*
X233558Y136119D01*
X234252Y135981D01*
X234946Y136119D01*
X235535Y136512D01*
X235928Y137101D01*
X236066Y137795D01*
X235928Y138490D01*
X235535Y139078D01*
X234946Y139472D01*
X234252Y139610D01*
D02*
G37*
G36*
X277559Y139610D02*
X276865Y139471D01*
X276276Y139078D01*
X275883Y138490D01*
X275745Y137795D01*
X275883Y137101D01*
X276276Y136512D01*
X276865Y136119D01*
X277559Y135981D01*
X278253Y136119D01*
X278842Y136512D01*
X279235Y137101D01*
X279374Y137795D01*
X279235Y138490D01*
X278842Y139078D01*
X278253Y139471D01*
X277559Y139610D01*
D02*
G37*
G36*
X246063Y139610D02*
X245369Y139472D01*
X244780Y139078D01*
X244387Y138490D01*
X244349Y138302D01*
X243840D01*
X243802Y138490D01*
X243409Y139078D01*
X242820Y139472D01*
X242126Y139610D01*
X241432Y139472D01*
X240843Y139078D01*
X240450Y138490D01*
X240312Y137795D01*
X240450Y137101D01*
X240843Y136512D01*
X241432Y136119D01*
X242126Y135981D01*
X242820Y136119D01*
X243409Y136512D01*
X243802Y137101D01*
X243840Y137289D01*
X244349D01*
X244387Y137101D01*
X244780Y136512D01*
X245369Y136119D01*
X246063Y135981D01*
X246757Y136119D01*
X247346Y136512D01*
X247739Y137101D01*
X247877Y137795D01*
X247739Y138490D01*
X247346Y139078D01*
X246757Y139472D01*
X246063Y139610D01*
D02*
G37*
G36*
X269685Y139610D02*
X268991Y139471D01*
X268402Y139078D01*
X268009Y138490D01*
X267971Y138302D01*
X267462D01*
X267424Y138490D01*
X267031Y139078D01*
X266442Y139471D01*
X265748Y139610D01*
X265054Y139471D01*
X264465Y139078D01*
X264072Y138490D01*
X263934Y137795D01*
X264072Y137101D01*
X264465Y136512D01*
X265054Y136119D01*
X265748Y135981D01*
X266442Y136119D01*
X267031Y136512D01*
X267424Y137101D01*
X267462Y137289D01*
X267971D01*
X268009Y137101D01*
X268402Y136512D01*
X268991Y136119D01*
X269685Y135981D01*
X270379Y136119D01*
X270968Y136512D01*
X271361Y137101D01*
X271499Y137795D01*
X271361Y138490D01*
X270968Y139078D01*
X270379Y139471D01*
X269685Y139610D01*
D02*
G37*
G36*
X388976Y143354D02*
X388205Y143200D01*
X387551Y142763D01*
X387115Y142110D01*
X386961Y141339D01*
X387115Y140567D01*
X387551Y139914D01*
X387696Y139817D01*
Y139317D01*
X387551Y139220D01*
X387115Y138566D01*
X386961Y137795D01*
X387115Y137024D01*
X387551Y136370D01*
X388205Y135934D01*
X388976Y135780D01*
X389748Y135934D01*
X390401Y136370D01*
X390838Y137024D01*
X390991Y137795D01*
X390838Y138566D01*
X390401Y139220D01*
X390256Y139317D01*
Y139817D01*
X390401Y139914D01*
X390838Y140567D01*
X390991Y141339D01*
X390838Y142110D01*
X390401Y142763D01*
X389748Y143200D01*
X388976Y143354D01*
D02*
G37*
G36*
X168504Y139810D02*
X167733Y139657D01*
X167079Y139220D01*
X166642Y138566D01*
X166489Y137795D01*
X166642Y137024D01*
X167079Y136370D01*
X167733Y135934D01*
X168504Y135780D01*
X169275Y135934D01*
X169929Y136370D01*
X170366Y137024D01*
X170519Y137795D01*
X170366Y138566D01*
X169929Y139220D01*
X169275Y139657D01*
X168504Y139810D01*
D02*
G37*
G36*
X253937Y139610D02*
X253243Y139472D01*
X252654Y139078D01*
X252261Y138490D01*
X252123Y137795D01*
X252261Y137101D01*
X252654Y136512D01*
X253243Y136119D01*
X253937Y135981D01*
X254631Y136119D01*
X255220Y136512D01*
X255613Y137101D01*
X255651Y137289D01*
X256160D01*
X256198Y137101D01*
X256591Y136512D01*
X257180Y136119D01*
X257874Y135981D01*
X258568Y136119D01*
X259157Y136512D01*
X259550Y137101D01*
X259688Y137795D01*
X259550Y138490D01*
X259157Y139078D01*
X258568Y139471D01*
X257874Y139610D01*
X257180Y139471D01*
X256591Y139078D01*
X256198Y138490D01*
X256160Y138302D01*
X255651D01*
X255613Y138490D01*
X255220Y139078D01*
X254631Y139472D01*
X253937Y139610D01*
D02*
G37*
G36*
X298425Y143747D02*
X297654Y143594D01*
X297000Y143157D01*
X296564Y142503D01*
X296410Y141732D01*
X296564Y140961D01*
X297000Y140307D01*
X297364Y140065D01*
Y139463D01*
X297000Y139220D01*
X296564Y138567D01*
X296410Y137795D01*
X296564Y137024D01*
X297000Y136371D01*
X297654Y135934D01*
X298425Y135780D01*
X299196Y135934D01*
X299850Y136371D01*
X300287Y137024D01*
X300440Y137795D01*
X300287Y138567D01*
X299850Y139220D01*
X299487Y139463D01*
Y140065D01*
X299850Y140307D01*
X300287Y140961D01*
X300440Y141732D01*
X300287Y142503D01*
X299850Y143157D01*
X299196Y143594D01*
X298425Y143747D01*
D02*
G37*
G36*
X287008Y143354D02*
X286236Y143201D01*
X285583Y142764D01*
X285146Y142110D01*
X284993Y141339D01*
X285146Y140568D01*
X285583Y139914D01*
X286236Y139477D01*
X287008Y139324D01*
X287779Y139477D01*
X288433Y139914D01*
X288869Y140568D01*
X289023Y141339D01*
X288869Y142110D01*
X288433Y142764D01*
X287779Y143201D01*
X287008Y143354D01*
D02*
G37*
G36*
X27559Y211273D02*
X25303Y211095D01*
X23102Y210567D01*
X21011Y209701D01*
X19082Y208518D01*
X17361Y207049D01*
X15891Y205328D01*
X14709Y203398D01*
X13842Y201307D01*
X13314Y199107D01*
X13137Y196850D01*
X13314Y194594D01*
X13842Y192394D01*
X14709Y190303D01*
X15891Y188373D01*
X17361Y186652D01*
X19082Y185182D01*
X21011Y184000D01*
X23102Y183134D01*
X25303Y182606D01*
X27559Y182428D01*
X29815Y182606D01*
X32016Y183134D01*
X34107Y184000D01*
X36036Y185182D01*
X37757Y186652D01*
X39227Y188373D01*
X40409Y190303D01*
X41276Y192394D01*
X41804Y194594D01*
X41982Y196850D01*
X41804Y199107D01*
X41276Y201307D01*
X40409Y203398D01*
X39227Y205328D01*
X37757Y207049D01*
X36036Y208518D01*
X34107Y209701D01*
X32016Y210567D01*
X29815Y211095D01*
X27559Y211273D01*
D02*
G37*
G36*
X253150Y164019D02*
X252455Y163881D01*
X251879Y163496D01*
X251755Y163425D01*
X251395D01*
X251271Y163496D01*
X250694Y163881D01*
X250000Y164019D01*
X249306Y163881D01*
X248729Y163496D01*
X248605Y163425D01*
X248245D01*
X248121Y163496D01*
X247545Y163881D01*
X246850Y164019D01*
X246156Y163881D01*
X245580Y163496D01*
X245456Y163425D01*
X245096D01*
X244971Y163496D01*
X244395Y163881D01*
X243701Y164019D01*
X243006Y163881D01*
X242430Y163496D01*
X242306Y163425D01*
X241946D01*
X241822Y163496D01*
X241246Y163881D01*
X240551Y164019D01*
X239857Y163881D01*
X239280Y163496D01*
X239156Y163425D01*
X238796D01*
X238672Y163496D01*
X238096Y163881D01*
X237402Y164019D01*
X236707Y163881D01*
X236131Y163496D01*
X236007Y163425D01*
X235647D01*
X235523Y163496D01*
X234946Y163881D01*
X234252Y164019D01*
X233558Y163881D01*
X232981Y163496D01*
X232857Y163425D01*
X232497D01*
X232373Y163496D01*
X231797Y163881D01*
X231102Y164019D01*
X230408Y163881D01*
X229819Y163488D01*
X229426Y162899D01*
X229288Y162205D01*
X229426Y161510D01*
X229819Y160922D01*
X230408Y160529D01*
X231102Y160390D01*
X231797Y160529D01*
X232373Y160914D01*
X232497Y160984D01*
X232857D01*
X232981Y160914D01*
X233558Y160529D01*
X234252Y160390D01*
X234946Y160529D01*
X235523Y160914D01*
X235647Y160984D01*
X236007D01*
X236131Y160914D01*
X236707Y160529D01*
X237402Y160390D01*
X238096Y160529D01*
X238672Y160914D01*
X238796Y160984D01*
X239156D01*
X239280Y160914D01*
X239857Y160529D01*
X240551Y160390D01*
X241246Y160529D01*
X241822Y160914D01*
X241946Y160984D01*
X242306D01*
X242430Y160914D01*
X243006Y160529D01*
X243701Y160390D01*
X244395Y160529D01*
X244971Y160914D01*
X245096Y160984D01*
X245456D01*
X245580Y160914D01*
X246156Y160529D01*
X246850Y160390D01*
X247545Y160529D01*
X248121Y160914D01*
X248245Y160984D01*
X248605D01*
X248729Y160914D01*
X249306Y160529D01*
X250000Y160390D01*
X250694Y160529D01*
X251271Y160914D01*
X251395Y160984D01*
X251755D01*
X251879Y160914D01*
X252455Y160529D01*
X253150Y160390D01*
X253844Y160529D01*
X254433Y160922D01*
X254826Y161510D01*
X254964Y162205D01*
X254826Y162899D01*
X254433Y163488D01*
X253844Y163881D01*
X253150Y164019D01*
D02*
G37*
G36*
X386555Y190598D02*
X385784Y190444D01*
X385130Y190007D01*
X384694Y189354D01*
X384540Y188583D01*
X384694Y187812D01*
X385130Y187158D01*
Y186858D01*
X384694Y186204D01*
X384540Y185433D01*
X384694Y184662D01*
X385130Y184008D01*
X385784Y183571D01*
X386555Y183418D01*
X387326Y183571D01*
X387980Y184008D01*
X388417Y184662D01*
X388570Y185433D01*
X388417Y186204D01*
X387980Y186858D01*
Y187158D01*
X388417Y187812D01*
X388570Y188583D01*
X388417Y189354D01*
X387980Y190007D01*
X387326Y190444D01*
X386555Y190598D01*
D02*
G37*
G36*
X484252Y211273D02*
X481996Y211095D01*
X479795Y210567D01*
X477704Y209701D01*
X475775Y208518D01*
X474054Y207049D01*
X472584Y205328D01*
X471402Y203398D01*
X470535Y201307D01*
X470007Y199107D01*
X469830Y196850D01*
X470007Y194594D01*
X470535Y192394D01*
X471402Y190303D01*
X472584Y188373D01*
X474054Y186652D01*
X475775Y185182D01*
X477704Y184000D01*
X479795Y183134D01*
X481996Y182606D01*
X484252Y182428D01*
X486508Y182606D01*
X488709Y183134D01*
X490800Y184000D01*
X492729Y185182D01*
X494450Y186652D01*
X495920Y188373D01*
X497102Y190303D01*
X497968Y192394D01*
X498497Y194594D01*
X498674Y196850D01*
X498497Y199107D01*
X497968Y201307D01*
X497102Y203398D01*
X495920Y205328D01*
X494450Y207049D01*
X492729Y208518D01*
X490800Y209701D01*
X488709Y210567D01*
X486508Y211095D01*
X484252Y211273D01*
D02*
G37*
G36*
X244094Y145716D02*
X243323Y145563D01*
X242670Y145126D01*
X242233Y144472D01*
X242079Y143701D01*
X242233Y142930D01*
X242670Y142276D01*
X243323Y141839D01*
X244094Y141686D01*
X244866Y141839D01*
X245519Y142276D01*
X245956Y142930D01*
X246110Y143701D01*
X245956Y144472D01*
X245519Y145126D01*
X244866Y145563D01*
X244094Y145716D01*
D02*
G37*
G36*
X267717Y145716D02*
X266945Y145563D01*
X266292Y145126D01*
X265855Y144472D01*
X265701Y143701D01*
X265855Y142930D01*
X266292Y142276D01*
X266945Y141839D01*
X267717Y141686D01*
X268488Y141839D01*
X269141Y142276D01*
X269578Y142930D01*
X269732Y143701D01*
X269578Y144472D01*
X269141Y145126D01*
X268488Y145563D01*
X267717Y145716D01*
D02*
G37*
G36*
X280709Y164019D02*
X280014Y163881D01*
X279438Y163496D01*
X279314Y163425D01*
X278954D01*
X278830Y163496D01*
X278253Y163881D01*
X277559Y164019D01*
X276865Y163881D01*
X276288Y163496D01*
X276164Y163425D01*
X275804D01*
X275680Y163496D01*
X275104Y163881D01*
X274409Y164019D01*
X273715Y163881D01*
X273139Y163496D01*
X273015Y163425D01*
X272655D01*
X272531Y163496D01*
X271954Y163881D01*
X271260Y164019D01*
X270566Y163881D01*
X269989Y163496D01*
X269865Y163425D01*
X269505D01*
X269381Y163496D01*
X268805Y163881D01*
X268110Y164019D01*
X267416Y163881D01*
X266840Y163496D01*
X266715Y163425D01*
X266355D01*
X266231Y163496D01*
X265655Y163881D01*
X264961Y164019D01*
X264266Y163881D01*
X263690Y163496D01*
X263566Y163425D01*
X263206D01*
X263082Y163496D01*
X262505Y163881D01*
X261811Y164019D01*
X261117Y163881D01*
X260540Y163496D01*
X260416Y163425D01*
X260056D01*
X259932Y163496D01*
X259356Y163881D01*
X258661Y164019D01*
X257967Y163881D01*
X257379Y163488D01*
X256985Y162899D01*
X256847Y162205D01*
X256985Y161510D01*
X257379Y160922D01*
X257967Y160528D01*
X258661Y160390D01*
X259356Y160528D01*
X259932Y160914D01*
X260056Y160984D01*
X260416D01*
X260540Y160914D01*
X261117Y160528D01*
X261811Y160390D01*
X262505Y160528D01*
X263082Y160914D01*
X263206Y160984D01*
X263566D01*
X263690Y160914D01*
X264266Y160528D01*
X264961Y160390D01*
X265655Y160528D01*
X266231Y160914D01*
X266355Y160984D01*
X266715D01*
X266840Y160914D01*
X267416Y160528D01*
X268110Y160390D01*
X268805Y160528D01*
X269381Y160914D01*
X269505Y160984D01*
X269865D01*
X269989Y160914D01*
X270566Y160528D01*
X271260Y160390D01*
X271954Y160528D01*
X272531Y160914D01*
X272655Y160984D01*
X273015D01*
X273139Y160914D01*
X273715Y160528D01*
X274409Y160390D01*
X275104Y160528D01*
X275680Y160914D01*
X275804Y160984D01*
X276164D01*
X276288Y160914D01*
X276865Y160528D01*
X277559Y160390D01*
X278253Y160528D01*
X278830Y160914D01*
X278954Y160984D01*
X279314D01*
X279438Y160914D01*
X280014Y160528D01*
X280709Y160390D01*
X281403Y160528D01*
X281992Y160922D01*
X282385Y161510D01*
X282523Y162205D01*
X282385Y162899D01*
X281992Y163488D01*
X281403Y163881D01*
X280709Y164019D01*
D02*
G37*
G36*
X255906Y152409D02*
X255134Y152255D01*
X254481Y151819D01*
X254044Y151165D01*
X253890Y150394D01*
X254044Y149623D01*
X254481Y148969D01*
X255134Y148532D01*
X255906Y148379D01*
X256677Y148532D01*
X257330Y148969D01*
X257767Y149623D01*
X257921Y150394D01*
X257767Y151165D01*
X257330Y151819D01*
X256677Y152255D01*
X255906Y152409D01*
D02*
G37*
G36*
X162008Y139810D02*
X161237Y139657D01*
X160583Y139220D01*
X160146Y138566D01*
X159993Y137795D01*
X160146Y137024D01*
X160583Y136370D01*
X161237Y135934D01*
X162008Y135780D01*
X162779Y135934D01*
X163433Y136370D01*
X163870Y137024D01*
X164023Y137795D01*
X163870Y138566D01*
X163433Y139220D01*
X162779Y139657D01*
X162008Y139810D01*
D02*
G37*
G36*
X441732Y136267D02*
X440961Y136114D01*
X440307Y135677D01*
X439871Y135023D01*
X439717Y134252D01*
X439871Y133481D01*
X440307Y132827D01*
X440961Y132390D01*
X441732Y132237D01*
X442503Y132390D01*
X443157Y132827D01*
X443594Y133481D01*
X443747Y134252D01*
X443594Y135023D01*
X443157Y135677D01*
X442503Y136114D01*
X441732Y136267D01*
D02*
G37*
G36*
X385827Y135873D02*
X385056Y135720D01*
X384402Y135283D01*
X383965Y134629D01*
X383812Y133858D01*
X383965Y133087D01*
X384402Y132433D01*
X385056Y131997D01*
X385827Y131843D01*
X386598Y131997D01*
X387252Y132433D01*
X387688Y133087D01*
X387842Y133858D01*
X387688Y134629D01*
X387252Y135283D01*
X386598Y135720D01*
X385827Y135873D01*
D02*
G37*
G36*
X275590Y133704D02*
X274896Y133566D01*
X274308Y133173D01*
X273914Y132584D01*
X273877Y132396D01*
X273367D01*
X273330Y132584D01*
X272937Y133173D01*
X272348Y133566D01*
X271654Y133704D01*
X270959Y133566D01*
X270371Y133173D01*
X269977Y132584D01*
X269839Y131890D01*
X269977Y131195D01*
X270371Y130607D01*
X270959Y130213D01*
X271654Y130075D01*
X272348Y130213D01*
X272937Y130607D01*
X273330Y131195D01*
X273367Y131383D01*
X273877D01*
X273914Y131195D01*
X274308Y130607D01*
X274896Y130213D01*
X275590Y130075D01*
X276285Y130213D01*
X276873Y130607D01*
X277267Y131195D01*
X277405Y131890D01*
X277267Y132584D01*
X276873Y133173D01*
X276285Y133566D01*
X275590Y133704D01*
D02*
G37*
G36*
X263779D02*
X263085Y133566D01*
X262497Y133173D01*
X262103Y132584D01*
X262066Y132396D01*
X261556D01*
X261519Y132584D01*
X261125Y133173D01*
X260537Y133566D01*
X259842Y133704D01*
X259148Y133566D01*
X258559Y133173D01*
X258166Y132584D01*
X258028Y131890D01*
X258166Y131195D01*
X258559Y130607D01*
X259148Y130213D01*
X259842Y130075D01*
X260537Y130213D01*
X261125Y130607D01*
X261519Y131195D01*
X261556Y131383D01*
X262066D01*
X262103Y131195D01*
X262497Y130607D01*
X263085Y130213D01*
X263779Y130075D01*
X264474Y130213D01*
X265062Y130607D01*
X265456Y131195D01*
X265594Y131890D01*
X265456Y132584D01*
X265062Y133173D01*
X264474Y133566D01*
X263779Y133704D01*
D02*
G37*
G36*
X74803Y135480D02*
X74032Y135326D01*
X73378Y134889D01*
X72941Y134236D01*
X72788Y133465D01*
X72941Y132693D01*
X73378Y132040D01*
X74032Y131603D01*
X74803Y131449D01*
X75574Y131603D01*
X76228Y132040D01*
X76665Y132693D01*
X76818Y133465D01*
X76665Y134236D01*
X76228Y134889D01*
X75574Y135326D01*
X74803Y135480D01*
D02*
G37*
G36*
X437795Y133117D02*
X437024Y132964D01*
X436370Y132527D01*
X435934Y131874D01*
X435780Y131102D01*
X435934Y130331D01*
X436370Y129677D01*
X437024Y129241D01*
X437795Y129087D01*
X438566Y129241D01*
X439220Y129677D01*
X439657Y130331D01*
X439810Y131102D01*
X439657Y131874D01*
X439220Y132527D01*
X438566Y132964D01*
X437795Y133117D01*
D02*
G37*
G36*
X295276Y135873D02*
X294504Y135720D01*
X293851Y135283D01*
X293414Y134629D01*
X293261Y133858D01*
X293414Y133087D01*
X293851Y132433D01*
X294504Y131997D01*
X295276Y131843D01*
X296047Y131997D01*
X296701Y132433D01*
X297137Y133087D01*
X297291Y133858D01*
X297137Y134629D01*
X296701Y135283D01*
X296047Y135720D01*
X295276Y135873D01*
D02*
G37*
G36*
X165354D02*
X164583Y135720D01*
X163929Y135283D01*
X163493Y134629D01*
X163339Y133858D01*
X163493Y133087D01*
X163929Y132433D01*
X164583Y131997D01*
X165354Y131843D01*
X166126Y131997D01*
X166779Y132433D01*
X167216Y133087D01*
X167369Y133858D01*
X167216Y134629D01*
X166779Y135283D01*
X166126Y135720D01*
X165354Y135873D01*
D02*
G37*
G36*
X240158Y133704D02*
X239463Y133566D01*
X238875Y133173D01*
X238481Y132584D01*
X238444Y132396D01*
X237934D01*
X237897Y132584D01*
X237503Y133173D01*
X236915Y133566D01*
X236221Y133704D01*
X235526Y133566D01*
X234938Y133173D01*
X234544Y132584D01*
X234406Y131890D01*
X234544Y131195D01*
X234938Y130607D01*
X235526Y130213D01*
X236221Y130075D01*
X236915Y130213D01*
X237503Y130607D01*
X237897Y131195D01*
X237934Y131383D01*
X238444D01*
X238481Y131195D01*
X238875Y130607D01*
X239463Y130213D01*
X240158Y130075D01*
X240852Y130213D01*
X241441Y130607D01*
X241834Y131195D01*
X241972Y131890D01*
X241834Y132584D01*
X241441Y133173D01*
X240852Y133566D01*
X240158Y133704D01*
D02*
G37*
G36*
X64961Y139810D02*
X64189Y139657D01*
X63536Y139220D01*
X63099Y138566D01*
X62945Y137795D01*
X63099Y137024D01*
X63536Y136370D01*
X64189Y135934D01*
X64961Y135780D01*
X65732Y135934D01*
X66386Y136370D01*
X66822Y137024D01*
X66976Y137795D01*
X66822Y138566D01*
X66386Y139220D01*
X65732Y139657D01*
X64961Y139810D01*
D02*
G37*
G36*
X375590Y139810D02*
X374819Y139657D01*
X374165Y139220D01*
X373728Y138566D01*
X373575Y137795D01*
X373728Y137024D01*
X374165Y136370D01*
X374819Y135933D01*
X375590Y135780D01*
X376361Y135933D01*
X377015Y136370D01*
X377451Y137024D01*
X377605Y137795D01*
X377451Y138566D01*
X377015Y139220D01*
X376361Y139657D01*
X375590Y139810D01*
D02*
G37*
G36*
X76772Y139810D02*
X76000Y139657D01*
X75347Y139220D01*
X74910Y138566D01*
X74757Y137795D01*
X74910Y137024D01*
X75347Y136370D01*
X76000Y135934D01*
X76772Y135780D01*
X77543Y135934D01*
X78197Y136370D01*
X78633Y137024D01*
X78787Y137795D01*
X78633Y138566D01*
X78197Y139220D01*
X77543Y139657D01*
X76772Y139810D01*
D02*
G37*
G36*
X71063D02*
X70292Y139657D01*
X69638Y139220D01*
X69201Y138566D01*
X69048Y137795D01*
X69201Y137024D01*
X69638Y136370D01*
X70292Y135934D01*
X71063Y135780D01*
X71834Y135934D01*
X72488Y136370D01*
X72925Y137024D01*
X73078Y137795D01*
X72925Y138566D01*
X72488Y139220D01*
X71834Y139657D01*
X71063Y139810D01*
D02*
G37*
G36*
X351969Y136267D02*
X351197Y136114D01*
X350544Y135677D01*
X350107Y135023D01*
X350058Y134778D01*
X349548D01*
X349500Y135023D01*
X349063Y135677D01*
X348409Y136114D01*
X347638Y136267D01*
X346867Y136114D01*
X346213Y135677D01*
X345776Y135023D01*
X345623Y134252D01*
X345776Y133481D01*
X346213Y132827D01*
X346867Y132390D01*
X347638Y132237D01*
X348409Y132390D01*
X349063Y132827D01*
X349500Y133481D01*
X349548Y133726D01*
X350058D01*
X350107Y133481D01*
X350544Y132827D01*
X351197Y132390D01*
X351969Y132237D01*
X352740Y132390D01*
X353393Y132827D01*
X353830Y133481D01*
X353984Y134252D01*
X353830Y135023D01*
X353393Y135677D01*
X352740Y136114D01*
X351969Y136267D01*
D02*
G37*
G36*
X251969Y133704D02*
X251274Y133566D01*
X250686Y133173D01*
X250292Y132584D01*
X250255Y132396D01*
X249745D01*
X249708Y132584D01*
X249314Y133173D01*
X248726Y133566D01*
X248031Y133704D01*
X247337Y133566D01*
X246748Y133173D01*
X246355Y132584D01*
X246217Y131890D01*
X246355Y131195D01*
X246748Y130607D01*
X247337Y130213D01*
X248031Y130075D01*
X248726Y130213D01*
X249314Y130607D01*
X249708Y131195D01*
X249745Y131383D01*
X250255D01*
X250292Y131195D01*
X250686Y130607D01*
X251274Y130213D01*
X251969Y130075D01*
X252663Y130213D01*
X253252Y130607D01*
X253645Y131195D01*
X253783Y131890D01*
X253645Y132584D01*
X253252Y133173D01*
X252663Y133566D01*
X251969Y133704D01*
D02*
G37*
G36*
X155905Y139810D02*
X155134Y139657D01*
X154480Y139220D01*
X154043Y138566D01*
X153890Y137795D01*
X154043Y137024D01*
X154480Y136370D01*
X155134Y135933D01*
X155905Y135780D01*
X156676Y135933D01*
X157330Y136370D01*
X157767Y137024D01*
X157920Y137795D01*
X157767Y138566D01*
X157330Y139220D01*
X156676Y139657D01*
X155905Y139810D01*
D02*
G37*
G36*
X129921Y135873D02*
X129150Y135720D01*
X128496Y135283D01*
X128253Y134920D01*
X127652D01*
X127409Y135283D01*
X126755Y135720D01*
X125984Y135873D01*
X125213Y135720D01*
X124559Y135283D01*
X124123Y134629D01*
X123969Y133858D01*
X124123Y133087D01*
X124559Y132433D01*
X125213Y131997D01*
X125984Y131843D01*
X126755Y131997D01*
X127409Y132433D01*
X127652Y132797D01*
X128253D01*
X128496Y132433D01*
X129150Y131997D01*
X129921Y131843D01*
X130692Y131997D01*
X131346Y132433D01*
X131783Y133087D01*
X131936Y133858D01*
X131783Y134629D01*
X131346Y135283D01*
X130692Y135720D01*
X129921Y135873D01*
D02*
G37*
G36*
X200059Y190598D02*
X199288Y190444D01*
X198634Y190008D01*
X198197Y189354D01*
X198044Y188583D01*
X198197Y187812D01*
X198634Y187158D01*
Y186858D01*
X198197Y186204D01*
X198044Y185433D01*
X198197Y184662D01*
X198634Y184008D01*
X199288Y183571D01*
X200059Y183418D01*
X200830Y183571D01*
X201484Y184008D01*
X201921Y184662D01*
X202074Y185433D01*
X201921Y186204D01*
X201484Y186858D01*
Y187158D01*
X201921Y187812D01*
X202074Y188583D01*
X201921Y189354D01*
X201484Y190008D01*
X200830Y190444D01*
X200059Y190598D01*
D02*
G37*
G36*
X70473Y215460D02*
X69701Y215306D01*
X69048Y214870D01*
X68748D01*
X68094Y215306D01*
X67323Y215460D01*
X66552Y215306D01*
X65898Y214870D01*
X65461Y214216D01*
X65308Y213445D01*
X65461Y212674D01*
X65898Y212020D01*
X66552Y211583D01*
X67323Y211430D01*
X68094Y211583D01*
X68748Y212020D01*
X69048D01*
X69701Y211583D01*
X70473Y211430D01*
X71244Y211583D01*
X71897Y212020D01*
X72334Y212674D01*
X72488Y213445D01*
X72334Y214216D01*
X71897Y214870D01*
X71244Y215306D01*
X70473Y215460D01*
D02*
G37*
G36*
X385433Y215460D02*
X384662Y215306D01*
X384008Y214870D01*
X383708D01*
X383054Y215306D01*
X382283Y215460D01*
X381512Y215306D01*
X380858Y214870D01*
X380422Y214216D01*
X380268Y213445D01*
X380422Y212674D01*
X380858Y212020D01*
X381512Y211583D01*
X382283Y211430D01*
X383054Y211583D01*
X383708Y212020D01*
X384008D01*
X384662Y211583D01*
X385433Y211430D01*
X386204Y211583D01*
X386858Y212020D01*
X387295Y212674D01*
X387448Y213445D01*
X387295Y214216D01*
X386858Y214870D01*
X386204Y215306D01*
X385433Y215460D01*
D02*
G37*
G36*
X145275Y215460D02*
X144504Y215306D01*
X143851Y214870D01*
X143551D01*
X142897Y215306D01*
X142126Y215460D01*
X141355Y215306D01*
X140701Y214870D01*
X140264Y214216D01*
X140111Y213445D01*
X140264Y212674D01*
X140701Y212020D01*
X141355Y211583D01*
X142126Y211430D01*
X142897Y211583D01*
X143551Y212020D01*
X143851D01*
X144504Y211583D01*
X145275Y211430D01*
X146047Y211583D01*
X146700Y212020D01*
X147137Y212674D01*
X147291Y213445D01*
X147137Y214216D01*
X146700Y214870D01*
X146047Y215306D01*
X145275Y215460D01*
D02*
G37*
G36*
X129528D02*
X128756Y215306D01*
X128103Y214870D01*
X127803D01*
X127149Y215306D01*
X126378Y215460D01*
X125607Y215306D01*
X124953Y214870D01*
X124516Y214216D01*
X124363Y213445D01*
X124516Y212674D01*
X124953Y212020D01*
X125607Y211583D01*
X126378Y211430D01*
X127149Y211583D01*
X127803Y212020D01*
X128103D01*
X128756Y211583D01*
X129528Y211430D01*
X130299Y211583D01*
X130953Y212020D01*
X131389Y212674D01*
X131543Y213445D01*
X131389Y214216D01*
X130953Y214870D01*
X130299Y215306D01*
X129528Y215460D01*
D02*
G37*
G36*
X299803Y190795D02*
X299032Y190641D01*
X298378Y190204D01*
X297941Y189551D01*
X297788Y188780D01*
X297941Y188008D01*
X298378Y187355D01*
X299032Y186918D01*
X299803Y186765D01*
X300574Y186918D01*
X301228Y187355D01*
X301665Y188008D01*
X301818Y188780D01*
X301665Y189551D01*
X301228Y190204D01*
X300574Y190641D01*
X299803Y190795D01*
D02*
G37*
G36*
X287992D02*
X287221Y190641D01*
X286567Y190204D01*
X286130Y189551D01*
X285977Y188780D01*
X286130Y188008D01*
X286567Y187355D01*
X287221Y186918D01*
X287992Y186765D01*
X288763Y186918D01*
X289417Y187355D01*
X289854Y188008D01*
X290007Y188780D01*
X289854Y189551D01*
X289417Y190204D01*
X288763Y190641D01*
X287992Y190795D01*
D02*
G37*
G36*
X112598Y200638D02*
X111414Y200482D01*
X110311Y200025D01*
X109364Y199298D01*
X108637Y198350D01*
X108180Y197247D01*
X108126Y196840D01*
X107622D01*
X107568Y197247D01*
X107111Y198350D01*
X106384Y199298D01*
X105437Y200025D01*
X104334Y200482D01*
X103150Y200638D01*
X101966Y200482D01*
X100862Y200025D01*
X99915Y199298D01*
X99188Y198350D01*
X98731Y197247D01*
X98677Y196840D01*
X98173D01*
X98119Y197247D01*
X97663Y198350D01*
X96935Y199298D01*
X95988Y200025D01*
X94885Y200482D01*
X93701Y200638D01*
X92517Y200482D01*
X91413Y200025D01*
X90466Y199298D01*
X89739Y198350D01*
X89282Y197247D01*
X89228Y196840D01*
X88724D01*
X88671Y197247D01*
X88214Y198350D01*
X87487Y199298D01*
X86539Y200025D01*
X85436Y200482D01*
X84252Y200638D01*
X83068Y200482D01*
X81965Y200025D01*
X81017Y199298D01*
X80290Y198350D01*
X79833Y197247D01*
X79677Y196063D01*
Y193996D01*
Y190059D01*
X79833Y188875D01*
X80290Y187772D01*
X80356Y187686D01*
X75772Y183101D01*
X72739D01*
X72680Y183184D01*
X72803Y183864D01*
X73019Y184008D01*
X73456Y184662D01*
X73610Y185433D01*
X73456Y186204D01*
X73019Y186858D01*
Y187158D01*
X73456Y187812D01*
X73610Y188583D01*
X73456Y189354D01*
X73019Y190008D01*
X72366Y190444D01*
X71595Y190598D01*
X70823Y190444D01*
X70170Y190008D01*
X69733Y189354D01*
X69579Y188583D01*
X69733Y187812D01*
X70170Y187158D01*
Y186858D01*
X69733Y186204D01*
X69579Y185433D01*
X69733Y184662D01*
X70170Y184008D01*
X70386Y183864D01*
X70509Y183184D01*
X70450Y183101D01*
X46055D01*
X45128Y182979D01*
X44264Y182622D01*
X43522Y182052D01*
X25814Y164344D01*
X25245Y163602D01*
X24887Y162738D01*
X24765Y161811D01*
Y87008D01*
X24887Y86081D01*
X25245Y85217D01*
X25814Y84475D01*
X82507Y27782D01*
X83249Y27213D01*
X84112Y26855D01*
X85039Y26733D01*
X128740D01*
X129667Y26855D01*
X130531Y27213D01*
X131273Y27782D01*
X146235Y42744D01*
X146853Y42825D01*
X147957Y43282D01*
X148904Y44009D01*
X149631Y44957D01*
X150088Y46060D01*
X150244Y47244D01*
X150088Y48428D01*
X149631Y49531D01*
X148904Y50479D01*
X147957Y51206D01*
X146853Y51663D01*
X145669Y51819D01*
X144485Y51663D01*
X143382Y51206D01*
X142435Y50479D01*
X141708Y49531D01*
X141251Y48428D01*
X141169Y47809D01*
X138393Y45033D01*
X137969Y45316D01*
X138277Y46060D01*
X138433Y47244D01*
X138277Y48428D01*
X137820Y49531D01*
X137093Y50479D01*
X136145Y51206D01*
X135042Y51663D01*
X133858Y51819D01*
X132674Y51663D01*
X131571Y51206D01*
X130623Y50479D01*
X129896Y49531D01*
X129439Y48428D01*
X129284Y47244D01*
X129439Y46060D01*
X129896Y44957D01*
X130623Y44009D01*
X131571Y43282D01*
X132674Y42825D01*
X133858Y42669D01*
X135042Y42825D01*
X135786Y43133D01*
X136069Y42709D01*
X127257Y33897D01*
X86523D01*
X85740Y34680D01*
X86004Y35087D01*
X86868Y34729D01*
X87795Y34607D01*
X112992D01*
X113919Y34729D01*
X114783Y35087D01*
X115525Y35656D01*
X122613Y42744D01*
X123231Y42825D01*
X124335Y43282D01*
X125282Y44009D01*
X126009Y44957D01*
X126466Y46060D01*
X126622Y47244D01*
X126466Y48428D01*
X126009Y49531D01*
X125282Y50479D01*
X124335Y51206D01*
X123231Y51663D01*
X122047Y51819D01*
X120863Y51663D01*
X119760Y51206D01*
X118813Y50479D01*
X118086Y49531D01*
X117629Y48428D01*
X117547Y47809D01*
X114771Y45033D01*
X114347Y45316D01*
X114655Y46060D01*
X114811Y47244D01*
X114655Y48428D01*
X114198Y49531D01*
X113471Y50479D01*
X112523Y51206D01*
X111420Y51663D01*
X110236Y51819D01*
X109052Y51663D01*
X107949Y51206D01*
X107001Y50479D01*
X106274Y49531D01*
X105817Y48428D01*
X105662Y47244D01*
X105817Y46060D01*
X106274Y44957D01*
X107001Y44009D01*
X107949Y43282D01*
X109052Y42825D01*
X110236Y42669D01*
X111420Y42825D01*
X112164Y43133D01*
X112447Y42709D01*
X111509Y41771D01*
X89279D01*
X87315Y43735D01*
X87579Y44142D01*
X88443Y43784D01*
X89370Y43662D01*
X95643D01*
X96138Y43282D01*
X97241Y42825D01*
X98425Y42669D01*
X99609Y42825D01*
X100713Y43282D01*
X101660Y44009D01*
X102387Y44957D01*
X102844Y46060D01*
X103000Y47244D01*
X102844Y48428D01*
X102387Y49531D01*
X101660Y50479D01*
X100713Y51206D01*
X99609Y51663D01*
X98425Y51819D01*
X97241Y51663D01*
X96138Y51206D01*
X95643Y50826D01*
X90854D01*
X76291Y65388D01*
X76556Y65796D01*
X77419Y65438D01*
X78347Y65316D01*
X101548D01*
X102043Y64936D01*
X103147Y64479D01*
X104331Y64323D01*
X105515Y64479D01*
X106618Y64936D01*
X107565Y65663D01*
X108292Y66610D01*
X108749Y67714D01*
X108905Y68898D01*
X108749Y70082D01*
X108292Y71185D01*
X107565Y72132D01*
X106618Y72859D01*
X105515Y73316D01*
X104331Y73472D01*
X103147Y73316D01*
X102043Y72859D01*
X101548Y72479D01*
X79830D01*
X53582Y98728D01*
Y152060D01*
X55421Y153899D01*
X86319D01*
X87246Y154021D01*
X88110Y154378D01*
X88851Y154948D01*
X115131Y181227D01*
X115700Y181969D01*
X116058Y182833D01*
X116180Y183760D01*
Y187277D01*
X116560Y187772D01*
X117017Y188875D01*
X117173Y190059D01*
Y193996D01*
Y196063D01*
X117017Y197247D01*
X116560Y198350D01*
X115833Y199298D01*
X114886Y200025D01*
X113782Y200482D01*
X112598Y200638D01*
D02*
G37*
G36*
X427165Y200638D02*
X425982Y200482D01*
X424878Y200025D01*
X423931Y199298D01*
X423204Y198350D01*
X422747Y197247D01*
X422693Y196840D01*
X422189D01*
X422135Y197247D01*
X421678Y198350D01*
X420951Y199298D01*
X420004Y200025D01*
X418901Y200482D01*
X417717Y200638D01*
X416533Y200482D01*
X415429Y200025D01*
X414482Y199298D01*
X413755Y198350D01*
X413298Y197247D01*
X413244Y196840D01*
X412740D01*
X412686Y197247D01*
X412229Y198350D01*
X411503Y199298D01*
X410555Y200025D01*
X409452Y200482D01*
X408268Y200638D01*
X407084Y200482D01*
X405980Y200025D01*
X405033Y199298D01*
X404306Y198350D01*
X403849Y197247D01*
X403796Y196840D01*
X403291D01*
X403238Y197247D01*
X402781Y198350D01*
X402054Y199298D01*
X401106Y200025D01*
X400003Y200482D01*
X398819Y200638D01*
X397635Y200482D01*
X396532Y200025D01*
X395584Y199298D01*
X394857Y198350D01*
X394400Y197247D01*
X394244Y196063D01*
Y193996D01*
Y190059D01*
X394400Y188875D01*
X394857Y187772D01*
X395237Y187277D01*
Y183760D01*
X395359Y182833D01*
X395717Y181969D01*
X396286Y181227D01*
X422566Y154948D01*
X423308Y154378D01*
X424172Y154021D01*
X425099Y153899D01*
X455997D01*
X457836Y152060D01*
Y98728D01*
X431587Y72479D01*
X410263D01*
X409768Y72859D01*
X408664Y73316D01*
X407480Y73472D01*
X406296Y73316D01*
X405193Y72859D01*
X404246Y72132D01*
X403519Y71185D01*
X403062Y70082D01*
X402906Y68898D01*
X403062Y67714D01*
X403519Y66610D01*
X404246Y65663D01*
X405193Y64936D01*
X406296Y64479D01*
X407480Y64323D01*
X408664Y64479D01*
X409768Y64936D01*
X410263Y65316D01*
X433071D01*
X433998Y65438D01*
X434862Y65796D01*
X435126Y65388D01*
X420564Y50826D01*
X416168D01*
X415673Y51206D01*
X414570Y51663D01*
X413386Y51819D01*
X412202Y51663D01*
X411098Y51206D01*
X410151Y50479D01*
X409424Y49531D01*
X408967Y48428D01*
X408811Y47244D01*
X408967Y46060D01*
X409424Y44957D01*
X410151Y44009D01*
X411098Y43282D01*
X412202Y42825D01*
X413386Y42669D01*
X414570Y42825D01*
X415673Y43282D01*
X416168Y43662D01*
X422047D01*
X422974Y43784D01*
X423838Y44142D01*
X424102Y43735D01*
X422139Y41771D01*
X399909D01*
X398170Y43509D01*
X398501Y43886D01*
X398567Y43835D01*
X399288Y43282D01*
X400391Y42825D01*
X401575Y42669D01*
X402759Y42825D01*
X403862Y43282D01*
X404810Y44009D01*
X405537Y44957D01*
X405994Y46060D01*
X406149Y47244D01*
X405994Y48428D01*
X405537Y49531D01*
X404810Y50479D01*
X403862Y51206D01*
X402759Y51663D01*
X401575Y51819D01*
X400391Y51663D01*
X399288Y51206D01*
X398340Y50479D01*
X397613Y49531D01*
X397156Y48428D01*
X397000Y47244D01*
X397156Y46060D01*
X397613Y44957D01*
X398166Y44236D01*
X398217Y44170D01*
X397840Y43840D01*
X394324Y47356D01*
X394182Y48428D01*
X393725Y49531D01*
X392999Y50479D01*
X392051Y51206D01*
X390948Y51663D01*
X389764Y51819D01*
X388580Y51663D01*
X387476Y51206D01*
X386529Y50479D01*
X385802Y49531D01*
X385345Y48428D01*
X385189Y47244D01*
X385345Y46060D01*
X385802Y44957D01*
X386529Y44009D01*
X387476Y43282D01*
X388580Y42825D01*
X388745Y42803D01*
X395893Y35656D01*
X396634Y35087D01*
X397498Y34729D01*
X398425Y34607D01*
X423622D01*
X424549Y34729D01*
X425413Y35087D01*
X425677Y34680D01*
X424894Y33897D01*
X384161D01*
X374549Y43509D01*
X374879Y43886D01*
X374945Y43835D01*
X375665Y43282D01*
X376769Y42825D01*
X377953Y42669D01*
X379137Y42825D01*
X380240Y43282D01*
X381188Y44009D01*
X381914Y44957D01*
X382371Y46060D01*
X382527Y47244D01*
X382371Y48428D01*
X381914Y49531D01*
X381188Y50479D01*
X380240Y51206D01*
X379137Y51663D01*
X377953Y51819D01*
X376769Y51663D01*
X375665Y51206D01*
X374718Y50479D01*
X373991Y49531D01*
X373534Y48428D01*
X373378Y47244D01*
X373534Y46060D01*
X373991Y44957D01*
X374544Y44236D01*
X374595Y44170D01*
X374218Y43840D01*
X370702Y47356D01*
X370561Y48428D01*
X370104Y49531D01*
X369376Y50479D01*
X368429Y51206D01*
X367326Y51663D01*
X366142Y51819D01*
X364958Y51663D01*
X363855Y51206D01*
X362907Y50479D01*
X362180Y49531D01*
X361723Y48428D01*
X361567Y47244D01*
X361723Y46060D01*
X362180Y44957D01*
X362907Y44009D01*
X363855Y43282D01*
X364958Y42825D01*
X365123Y42803D01*
X380145Y27782D01*
X380886Y27213D01*
X381750Y26855D01*
X382677Y26733D01*
X426378D01*
X427305Y26855D01*
X428169Y27213D01*
X428911Y27782D01*
X485604Y84475D01*
X486173Y85217D01*
X486531Y86081D01*
X486653Y87008D01*
Y161811D01*
X486531Y162738D01*
X486173Y163602D01*
X485604Y164344D01*
X467895Y182052D01*
X467153Y182622D01*
X466289Y182979D01*
X465362Y183101D01*
X441362D01*
X441303Y183184D01*
X441425Y183864D01*
X441641Y184008D01*
X442078Y184662D01*
X442232Y185433D01*
X442078Y186204D01*
X441641Y186858D01*
Y187158D01*
X442078Y187812D01*
X442232Y188583D01*
X442078Y189354D01*
X441641Y190007D01*
X440988Y190444D01*
X440216Y190598D01*
X439445Y190444D01*
X438792Y190007D01*
X438355Y189354D01*
X438201Y188583D01*
X438355Y187812D01*
X438792Y187158D01*
Y186858D01*
X438355Y186204D01*
X438201Y185433D01*
X438355Y184662D01*
X438792Y184008D01*
X439008Y183864D01*
X439130Y183184D01*
X439071Y183101D01*
X435645D01*
X431061Y187686D01*
X431127Y187772D01*
X431584Y188875D01*
X431740Y190059D01*
Y193996D01*
Y196063D01*
X431584Y197247D01*
X431127Y198350D01*
X430400Y199298D01*
X429453Y200025D01*
X428349Y200482D01*
X427165Y200638D01*
D02*
G37*
G36*
X204331Y215460D02*
X203560Y215306D01*
X202906Y214870D01*
X202606D01*
X201952Y215306D01*
X201181Y215460D01*
X200410Y215306D01*
X199756Y214870D01*
X199319Y214216D01*
X199166Y213445D01*
X199319Y212674D01*
X199756Y212020D01*
X200410Y211583D01*
X201181Y211430D01*
X201952Y211583D01*
X202606Y212020D01*
X202906D01*
X203560Y211583D01*
X204331Y211430D01*
X205102Y211583D01*
X205756Y212020D01*
X206192Y212674D01*
X206346Y213445D01*
X206192Y214216D01*
X205756Y214870D01*
X205102Y215306D01*
X204331Y215460D01*
D02*
G37*
G36*
X241732Y242566D02*
X240961Y242413D01*
X240307Y241976D01*
X239871Y241322D01*
X239717Y240551D01*
X239871Y239780D01*
X240307Y239126D01*
X240961Y238689D01*
X241732Y238536D01*
X242503Y238689D01*
X243157Y239126D01*
X243594Y239780D01*
X243747Y240551D01*
X243594Y241322D01*
X243157Y241976D01*
X242503Y242413D01*
X241732Y242566D01*
D02*
G37*
G36*
X221595Y230362D02*
X220823Y230208D01*
X220170Y229771D01*
X219733Y229118D01*
X219579Y228346D01*
X219733Y227575D01*
X220170Y226922D01*
X220823Y226485D01*
X221595Y226331D01*
X222366Y226485D01*
X223019Y226922D01*
X223456Y227575D01*
X223610Y228346D01*
X223456Y229118D01*
X223019Y229771D01*
X222366Y230208D01*
X221595Y230362D01*
D02*
G37*
G36*
X184252Y245122D02*
X183558Y244983D01*
X182969Y244590D01*
X182576Y244001D01*
X182438Y243307D01*
X182576Y242613D01*
X182969Y242024D01*
X183558Y241631D01*
X184252Y241493D01*
X184946Y241631D01*
X185523Y242016D01*
X185647Y242087D01*
X186077D01*
X186119Y242024D01*
X186707Y241631D01*
X187401Y241493D01*
X188096Y241631D01*
X188684Y242024D01*
X189078Y242613D01*
X189216Y243307D01*
X189078Y244001D01*
X188684Y244590D01*
X188096Y244983D01*
X187401Y245121D01*
X186707Y244983D01*
X186131Y244598D01*
X186007Y244527D01*
X185577D01*
X185535Y244590D01*
X184946Y244983D01*
X184252Y245122D01*
D02*
G37*
G36*
X424409D02*
X423715Y244983D01*
X423127Y244590D01*
X422733Y244001D01*
X422595Y243307D01*
X422733Y242613D01*
X423127Y242024D01*
X423715Y241631D01*
X424409Y241493D01*
X425104Y241631D01*
X425692Y242024D01*
X425734Y242087D01*
X426164D01*
X426288Y242016D01*
X426865Y241631D01*
X427559Y241493D01*
X428253Y241631D01*
X428842Y242024D01*
X429235Y242613D01*
X429373Y243307D01*
X429235Y244001D01*
X428842Y244590D01*
X428253Y244983D01*
X427559Y245121D01*
X426865Y244983D01*
X426276Y244590D01*
X426234Y244527D01*
X425804D01*
X425680Y244598D01*
X425104Y244983D01*
X424409Y245122D01*
D02*
G37*
G36*
X310630Y215460D02*
X309859Y215307D01*
X309205Y214870D01*
X308905D01*
X308251Y215307D01*
X307480Y215460D01*
X306709Y215307D01*
X306055Y214870D01*
X305619Y214216D01*
X305465Y213445D01*
X305619Y212674D01*
X306055Y212020D01*
X306709Y211583D01*
X307480Y211430D01*
X308251Y211583D01*
X308905Y212020D01*
X309205D01*
X309859Y211583D01*
X310630Y211430D01*
X311401Y211583D01*
X312055Y212020D01*
X312492Y212674D01*
X312645Y213445D01*
X312492Y214216D01*
X312055Y214870D01*
X311401Y215307D01*
X310630Y215460D01*
D02*
G37*
G36*
X444488Y215460D02*
X443717Y215306D01*
X443063Y214870D01*
X442763D01*
X442110Y215306D01*
X441338Y215460D01*
X440567Y215306D01*
X439914Y214870D01*
X439477Y214216D01*
X439323Y213445D01*
X439477Y212674D01*
X439914Y212020D01*
X440567Y211583D01*
X441338Y211430D01*
X442110Y211583D01*
X442763Y212020D01*
X443063D01*
X443717Y211583D01*
X444488Y211430D01*
X445259Y211583D01*
X445913Y212020D01*
X446350Y212674D01*
X446503Y213445D01*
X446350Y214216D01*
X445913Y214870D01*
X445259Y215306D01*
X444488Y215460D01*
D02*
G37*
G36*
X283465Y229968D02*
X282693Y229815D01*
X282040Y229378D01*
X281603Y228724D01*
X281450Y227953D01*
X281603Y227182D01*
X282040Y226528D01*
X282693Y226091D01*
X282939Y226042D01*
Y225533D01*
X282693Y225484D01*
X282040Y225047D01*
X281603Y224393D01*
X281450Y223622D01*
X281603Y222851D01*
X282040Y222197D01*
X282693Y221760D01*
X283465Y221607D01*
X284236Y221760D01*
X284890Y222197D01*
X285326Y222851D01*
X285480Y223622D01*
X285326Y224393D01*
X284890Y225047D01*
X284236Y225484D01*
X283991Y225533D01*
Y226042D01*
X284236Y226091D01*
X284890Y226528D01*
X285326Y227182D01*
X285480Y227953D01*
X285326Y228724D01*
X284890Y229378D01*
X284236Y229815D01*
X283465Y229968D01*
D02*
G37*
G36*
X369685Y215460D02*
X368914Y215307D01*
X368260Y214870D01*
X367960D01*
X367307Y215307D01*
X366535Y215460D01*
X365764Y215307D01*
X365110Y214870D01*
X364674Y214216D01*
X364520Y213445D01*
X364674Y212674D01*
X365110Y212020D01*
X365764Y211583D01*
X366535Y211430D01*
X367307Y211583D01*
X367960Y212020D01*
X368260D01*
X368914Y211583D01*
X369685Y211430D01*
X370456Y211583D01*
X371110Y212020D01*
X371547Y212674D01*
X371700Y213445D01*
X371547Y214216D01*
X371110Y214870D01*
X370456Y215307D01*
X369685Y215460D01*
D02*
G37*
G36*
X276181Y190795D02*
X275410Y190641D01*
X274756Y190204D01*
X274319Y189551D01*
X274166Y188780D01*
X274319Y188008D01*
X274756Y187355D01*
X275410Y186918D01*
X276181Y186765D01*
X276952Y186918D01*
X277606Y187355D01*
X278043Y188008D01*
X278196Y188780D01*
X278043Y189551D01*
X277606Y190204D01*
X276952Y190641D01*
X276181Y190795D01*
D02*
G37*
G36*
X223819Y188826D02*
X223048Y188673D01*
X222394Y188236D01*
X221957Y187582D01*
X221804Y186811D01*
X221957Y186040D01*
X222394Y185386D01*
X223048Y184949D01*
X223819Y184796D01*
X224590Y184949D01*
X225244Y185386D01*
X225681Y186040D01*
X225834Y186811D01*
X225681Y187582D01*
X225244Y188236D01*
X224590Y188673D01*
X223819Y188826D01*
D02*
G37*
G36*
X212008D02*
X211237Y188673D01*
X210583Y188236D01*
X210146Y187582D01*
X209993Y186811D01*
X210146Y186040D01*
X210583Y185386D01*
X211237Y184949D01*
X212008Y184796D01*
X212779Y184949D01*
X213433Y185386D01*
X213870Y186040D01*
X214023Y186811D01*
X213870Y187582D01*
X213433Y188236D01*
X212779Y188673D01*
X212008Y188826D01*
D02*
G37*
G36*
X247441D02*
X246670Y188673D01*
X246016Y188236D01*
X245579Y187582D01*
X245426Y186811D01*
X245579Y186040D01*
X246016Y185386D01*
X246670Y184949D01*
X247441Y184796D01*
X248212Y184949D01*
X248866Y185386D01*
X249303Y186040D01*
X249456Y186811D01*
X249303Y187582D01*
X248866Y188236D01*
X248212Y188673D01*
X247441Y188826D01*
D02*
G37*
G36*
X235630D02*
X234859Y188673D01*
X234205Y188236D01*
X233768Y187582D01*
X233615Y186811D01*
X233768Y186040D01*
X234205Y185386D01*
X234859Y184949D01*
X235630Y184796D01*
X236401Y184949D01*
X237055Y185386D01*
X237492Y186040D01*
X237645Y186811D01*
X237492Y187582D01*
X237055Y188236D01*
X236401Y188673D01*
X235630Y188826D01*
D02*
G37*
G36*
X365413Y190598D02*
X364642Y190444D01*
X363988Y190008D01*
X363552Y189354D01*
X363398Y188583D01*
X363552Y187812D01*
X363988Y187158D01*
Y186858D01*
X363552Y186204D01*
X363398Y185433D01*
X363552Y184662D01*
X363988Y184008D01*
X364642Y183571D01*
X365413Y183418D01*
X366184Y183571D01*
X366838Y184008D01*
X367275Y184662D01*
X367428Y185433D01*
X367275Y186204D01*
X366838Y186858D01*
Y187158D01*
X367275Y187812D01*
X367428Y188583D01*
X367275Y189354D01*
X366838Y190008D01*
X366184Y190444D01*
X365413Y190598D01*
D02*
G37*
G36*
X125256Y190598D02*
X124485Y190444D01*
X123831Y190008D01*
X123394Y189354D01*
X123241Y188583D01*
X123394Y187812D01*
X123831Y187158D01*
Y186858D01*
X123394Y186204D01*
X123241Y185433D01*
X123394Y184662D01*
X123831Y184008D01*
X124485Y183571D01*
X125256Y183418D01*
X126027Y183571D01*
X126681Y184008D01*
X127118Y184662D01*
X127271Y185433D01*
X127118Y186204D01*
X126681Y186858D01*
Y187158D01*
X127118Y187812D01*
X127271Y188583D01*
X127118Y189354D01*
X126681Y190008D01*
X126027Y190444D01*
X125256Y190598D01*
D02*
G37*
G36*
X311752Y190598D02*
X310981Y190445D01*
X310327Y190008D01*
X309890Y189354D01*
X309737Y188583D01*
X309890Y187812D01*
X310327Y187158D01*
Y186858D01*
X309890Y186204D01*
X309737Y185433D01*
X309890Y184662D01*
X310327Y184008D01*
X310981Y183572D01*
X311752Y183418D01*
X312523Y183572D01*
X313177Y184008D01*
X313614Y184662D01*
X313767Y185433D01*
X313614Y186204D01*
X313177Y186858D01*
Y187158D01*
X313614Y187812D01*
X313767Y188583D01*
X313614Y189354D01*
X313177Y190008D01*
X312523Y190445D01*
X311752Y190598D01*
D02*
G37*
G36*
X146398Y190598D02*
X145627Y190445D01*
X144973Y190008D01*
X144536Y189354D01*
X144383Y188583D01*
X144536Y187812D01*
X144973Y187158D01*
Y186858D01*
X144536Y186204D01*
X144383Y185433D01*
X144536Y184662D01*
X144973Y184008D01*
X145627Y183571D01*
X146398Y183418D01*
X147169Y183571D01*
X147823Y184008D01*
X148259Y184662D01*
X148413Y185433D01*
X148259Y186204D01*
X147823Y186858D01*
Y187158D01*
X148259Y187812D01*
X148413Y188583D01*
X148259Y189354D01*
X147823Y190008D01*
X147169Y190445D01*
X146398Y190598D01*
D02*
G37*
G36*
X259252Y188826D02*
X258481Y188673D01*
X257827Y188236D01*
X257390Y187582D01*
X257237Y186811D01*
X257390Y186040D01*
X257827Y185386D01*
X258481Y184949D01*
X259252Y184796D01*
X260023Y184949D01*
X260677Y185386D01*
X261114Y186040D01*
X261267Y186811D01*
X261114Y187582D01*
X260677Y188236D01*
X260023Y188673D01*
X259252Y188826D01*
D02*
G37*
G36*
X240748Y190795D02*
X239977Y190641D01*
X239323Y190204D01*
X238886Y189551D01*
X238733Y188780D01*
X238886Y188008D01*
X239323Y187355D01*
X239977Y186918D01*
X240748Y186765D01*
X241519Y186918D01*
X242173Y187355D01*
X242610Y188008D01*
X242763Y188780D01*
X242610Y189551D01*
X242173Y190204D01*
X241519Y190641D01*
X240748Y190795D01*
D02*
G37*
G36*
X228937D02*
X228166Y190641D01*
X227512Y190204D01*
X227075Y189551D01*
X226922Y188780D01*
X227075Y188008D01*
X227512Y187355D01*
X228166Y186918D01*
X228937Y186765D01*
X229708Y186918D01*
X230362Y187355D01*
X230799Y188008D01*
X230952Y188780D01*
X230799Y189551D01*
X230362Y190204D01*
X229708Y190641D01*
X228937Y190795D01*
D02*
G37*
G36*
X264370D02*
X263599Y190641D01*
X262945Y190204D01*
X262508Y189551D01*
X262355Y188780D01*
X262508Y188008D01*
X262945Y187355D01*
X263599Y186918D01*
X264370Y186765D01*
X265141Y186918D01*
X265795Y187355D01*
X266232Y188008D01*
X266385Y188780D01*
X266232Y189551D01*
X265795Y190204D01*
X265141Y190641D01*
X264370Y190795D01*
D02*
G37*
G36*
X252559D02*
X251788Y190641D01*
X251134Y190204D01*
X250697Y189551D01*
X250544Y188780D01*
X250697Y188008D01*
X251134Y187355D01*
X251788Y186918D01*
X252559Y186765D01*
X253330Y186918D01*
X253984Y187355D01*
X254421Y188008D01*
X254574Y188780D01*
X254421Y189551D01*
X253984Y190204D01*
X253330Y190641D01*
X252559Y190795D01*
D02*
G37*
G36*
X282874Y188826D02*
X282103Y188673D01*
X281449Y188236D01*
X281012Y187582D01*
X280859Y186811D01*
X281012Y186040D01*
X281449Y185386D01*
X282103Y184949D01*
X282874Y184796D01*
X283645Y184949D01*
X284299Y185386D01*
X284736Y186040D01*
X284889Y186811D01*
X284736Y187582D01*
X284299Y188236D01*
X283645Y188673D01*
X282874Y188826D01*
D02*
G37*
G36*
X271063D02*
X270292Y188673D01*
X269638Y188236D01*
X269201Y187582D01*
X269048Y186811D01*
X269201Y186040D01*
X269638Y185386D01*
X270292Y184949D01*
X271063Y184796D01*
X271834Y184949D01*
X272488Y185386D01*
X272925Y186040D01*
X273078Y186811D01*
X272925Y187582D01*
X272488Y188236D01*
X271834Y188673D01*
X271063Y188826D01*
D02*
G37*
G36*
X217126Y190795D02*
X216355Y190641D01*
X215701Y190204D01*
X215264Y189551D01*
X215111Y188780D01*
X215264Y188008D01*
X215701Y187355D01*
X216355Y186918D01*
X217126Y186765D01*
X217897Y186918D01*
X218551Y187355D01*
X218988Y188008D01*
X219141Y188780D01*
X218988Y189551D01*
X218551Y190204D01*
X217897Y190641D01*
X217126Y190795D01*
D02*
G37*
G36*
X294685Y188826D02*
X293914Y188673D01*
X293260Y188236D01*
X292823Y187582D01*
X292670Y186811D01*
X292823Y186040D01*
X293260Y185386D01*
X293914Y184949D01*
X294685Y184796D01*
X295456Y184949D01*
X296110Y185386D01*
X296547Y186040D01*
X296700Y186811D01*
X296547Y187582D01*
X296110Y188236D01*
X295456Y188673D01*
X294685Y188826D01*
D02*
G37*
G36*
X344291Y128984D02*
X343520Y128830D01*
X342867Y128393D01*
X342430Y127740D01*
X342276Y126969D01*
X342430Y126198D01*
X342867Y125544D01*
X343520Y125107D01*
X344291Y124953D01*
X345063Y125107D01*
X345716Y125544D01*
X346153Y126198D01*
X346307Y126969D01*
X346153Y127740D01*
X345716Y128393D01*
X345063Y128830D01*
X344291Y128984D01*
D02*
G37*
G36*
X229528Y63239D02*
X228680Y63071D01*
X227961Y62590D01*
X227480Y61872D01*
X227312Y61024D01*
X227480Y60176D01*
X227961Y59457D01*
X228680Y58977D01*
X229528Y58808D01*
X230376Y58977D01*
X231094Y59457D01*
X231575Y60176D01*
X231743Y61024D01*
X231575Y61872D01*
X231094Y62590D01*
X230376Y63071D01*
X229528Y63239D01*
D02*
G37*
G36*
X282283Y63239D02*
X281436Y63071D01*
X280717Y62590D01*
X280236Y61871D01*
X280068Y61024D01*
X280236Y60176D01*
X280717Y59457D01*
X281436Y58976D01*
X282283Y58808D01*
X283132Y58976D01*
X283850Y59457D01*
X284331Y60176D01*
X284499Y61024D01*
X284331Y61871D01*
X283850Y62590D01*
X283132Y63071D01*
X282283Y63239D01*
D02*
G37*
G36*
X127953Y73472D02*
X126769Y73316D01*
X125665Y72859D01*
X124718Y72132D01*
X123991Y71185D01*
X123534Y70082D01*
X123378Y68898D01*
X123534Y67714D01*
X123991Y66610D01*
X124718Y65663D01*
X125665Y64936D01*
X126769Y64479D01*
X127953Y64323D01*
X129137Y64479D01*
X130240Y64936D01*
X131187Y65663D01*
X131914Y66610D01*
X132371Y67714D01*
X132527Y68898D01*
X132371Y70082D01*
X131914Y71185D01*
X131187Y72132D01*
X130240Y72859D01*
X129137Y73316D01*
X127953Y73472D01*
D02*
G37*
G36*
X116142D02*
X114958Y73316D01*
X113855Y72859D01*
X112907Y72132D01*
X112180Y71185D01*
X111723Y70082D01*
X111567Y68898D01*
X111723Y67714D01*
X112180Y66610D01*
X112907Y65663D01*
X113855Y64936D01*
X114958Y64479D01*
X116142Y64323D01*
X117326Y64479D01*
X118429Y64936D01*
X119377Y65663D01*
X120104Y66610D01*
X120561Y67714D01*
X120716Y68898D01*
X120561Y70082D01*
X120104Y71185D01*
X119377Y72132D01*
X118429Y72859D01*
X117326Y73316D01*
X116142Y73472D01*
D02*
G37*
G36*
X383858Y61661D02*
X382674Y61505D01*
X381571Y61048D01*
X380624Y60321D01*
X379896Y59374D01*
X379439Y58271D01*
X379284Y57087D01*
X379439Y55903D01*
X379896Y54799D01*
X380624Y53852D01*
X381571Y53125D01*
X382674Y52668D01*
X383858Y52512D01*
X385042Y52668D01*
X386145Y53125D01*
X387093Y53852D01*
X387820Y54799D01*
X388277Y55903D01*
X388433Y57087D01*
X388277Y58271D01*
X387820Y59374D01*
X387093Y60321D01*
X386145Y61048D01*
X385042Y61505D01*
X383858Y61661D01*
D02*
G37*
G36*
X372047D02*
X370863Y61505D01*
X369760Y61048D01*
X368812Y60321D01*
X368086Y59374D01*
X367629Y58271D01*
X367473Y57087D01*
X367629Y55903D01*
X368086Y54799D01*
X368812Y53852D01*
X369760Y53125D01*
X370863Y52668D01*
X372047Y52512D01*
X373231Y52668D01*
X374335Y53125D01*
X375282Y53852D01*
X376009Y54799D01*
X376466Y55903D01*
X376622Y57087D01*
X376466Y58271D01*
X376009Y59374D01*
X375282Y60321D01*
X374335Y61048D01*
X373231Y61505D01*
X372047Y61661D01*
D02*
G37*
G36*
X407480D02*
X406296Y61505D01*
X405193Y61048D01*
X404246Y60321D01*
X403519Y59374D01*
X403062Y58271D01*
X402906Y57087D01*
X403062Y55903D01*
X403519Y54799D01*
X404246Y53852D01*
X405193Y53125D01*
X406296Y52668D01*
X407480Y52512D01*
X408664Y52668D01*
X409768Y53125D01*
X410715Y53852D01*
X411442Y54799D01*
X411899Y55903D01*
X412055Y57087D01*
X411899Y58271D01*
X411442Y59374D01*
X410715Y60321D01*
X409768Y61048D01*
X408664Y61505D01*
X407480Y61661D01*
D02*
G37*
G36*
X395669D02*
X394485Y61505D01*
X393382Y61048D01*
X392435Y60321D01*
X391708Y59374D01*
X391251Y58271D01*
X391095Y57087D01*
X391251Y55903D01*
X391708Y54799D01*
X392435Y53852D01*
X393382Y53125D01*
X394485Y52668D01*
X395669Y52512D01*
X396853Y52668D01*
X397957Y53125D01*
X398904Y53852D01*
X399631Y54799D01*
X400088Y55903D01*
X400244Y57087D01*
X400088Y58271D01*
X399631Y59374D01*
X398904Y60321D01*
X397957Y61048D01*
X396853Y61505D01*
X395669Y61661D01*
D02*
G37*
G36*
X139764Y73472D02*
X138580Y73316D01*
X137477Y72859D01*
X136529Y72132D01*
X135802Y71185D01*
X135345Y70082D01*
X135189Y68898D01*
X135345Y67714D01*
X135802Y66610D01*
X136529Y65663D01*
X137477Y64936D01*
X138580Y64479D01*
X139764Y64323D01*
X140948Y64479D01*
X142051Y64936D01*
X142999Y65663D01*
X143726Y66610D01*
X144183Y67714D01*
X144338Y68898D01*
X144183Y70082D01*
X143726Y71185D01*
X142999Y72132D01*
X142051Y72859D01*
X140948Y73316D01*
X139764Y73472D01*
D02*
G37*
G36*
X360236D02*
X359052Y73316D01*
X357949Y72859D01*
X357001Y72132D01*
X356275Y71185D01*
X355818Y70082D01*
X355662Y68898D01*
X355818Y67714D01*
X356275Y66610D01*
X357001Y65663D01*
X357949Y64936D01*
X359052Y64479D01*
X360236Y64323D01*
X361420Y64479D01*
X362524Y64936D01*
X363471Y65663D01*
X364198Y66610D01*
X364655Y67714D01*
X364811Y68898D01*
X364655Y70082D01*
X364198Y71185D01*
X363471Y72132D01*
X362524Y72859D01*
X361420Y73316D01*
X360236Y73472D01*
D02*
G37*
G36*
X348425D02*
X347241Y73316D01*
X346138Y72859D01*
X345191Y72132D01*
X344463Y71185D01*
X344006Y70082D01*
X343851Y68898D01*
X344006Y67714D01*
X344463Y66610D01*
X345191Y65663D01*
X346138Y64936D01*
X347241Y64479D01*
X348425Y64323D01*
X349609Y64479D01*
X350712Y64936D01*
X351660Y65663D01*
X352387Y66610D01*
X352844Y67714D01*
X353000Y68898D01*
X352844Y70082D01*
X352387Y71185D01*
X351660Y72132D01*
X350712Y72859D01*
X349609Y73316D01*
X348425Y73472D01*
D02*
G37*
G36*
X383858D02*
X382674Y73316D01*
X381571Y72859D01*
X380624Y72132D01*
X379896Y71185D01*
X379439Y70082D01*
X379284Y68898D01*
X379439Y67714D01*
X379896Y66610D01*
X380624Y65663D01*
X381571Y64936D01*
X382674Y64479D01*
X383858Y64323D01*
X385042Y64479D01*
X386145Y64936D01*
X387093Y65663D01*
X387820Y66610D01*
X388277Y67714D01*
X388433Y68898D01*
X388277Y70082D01*
X387820Y71185D01*
X387093Y72132D01*
X386145Y72859D01*
X385042Y73316D01*
X383858Y73472D01*
D02*
G37*
G36*
X372047D02*
X370863Y73316D01*
X369760Y72859D01*
X368812Y72132D01*
X368086Y71185D01*
X367629Y70082D01*
X367473Y68898D01*
X367629Y67714D01*
X368086Y66610D01*
X368812Y65663D01*
X369760Y64936D01*
X370863Y64479D01*
X372047Y64323D01*
X373231Y64479D01*
X374335Y64936D01*
X375282Y65663D01*
X376009Y66610D01*
X376466Y67714D01*
X376622Y68898D01*
X376466Y70082D01*
X376009Y71185D01*
X375282Y72132D01*
X374335Y72859D01*
X373231Y73316D01*
X372047Y73472D01*
D02*
G37*
G36*
X163386D02*
X162202Y73316D01*
X161099Y72859D01*
X160151Y72132D01*
X159424Y71185D01*
X158967Y70082D01*
X158811Y68898D01*
X158967Y67714D01*
X159424Y66610D01*
X160151Y65663D01*
X161099Y64936D01*
X162202Y64479D01*
X163386Y64323D01*
X164570Y64479D01*
X165673Y64936D01*
X166621Y65663D01*
X167348Y66610D01*
X167805Y67714D01*
X167960Y68898D01*
X167805Y70082D01*
X167348Y71185D01*
X166621Y72132D01*
X165673Y72859D01*
X164570Y73316D01*
X163386Y73472D01*
D02*
G37*
G36*
X151575D02*
X150391Y73316D01*
X149287Y72859D01*
X148340Y72132D01*
X147613Y71185D01*
X147156Y70082D01*
X147000Y68898D01*
X147156Y67714D01*
X147613Y66610D01*
X148340Y65663D01*
X149287Y64936D01*
X150391Y64479D01*
X151575Y64323D01*
X152759Y64479D01*
X153862Y64936D01*
X154809Y65663D01*
X155536Y66610D01*
X155993Y67714D01*
X156149Y68898D01*
X155993Y70082D01*
X155536Y71185D01*
X154809Y72132D01*
X153862Y72859D01*
X152759Y73316D01*
X151575Y73472D01*
D02*
G37*
G36*
X336614D02*
X335430Y73316D01*
X334327Y72859D01*
X333380Y72132D01*
X332652Y71185D01*
X332195Y70082D01*
X332040Y68898D01*
X332195Y67714D01*
X332652Y66610D01*
X333380Y65663D01*
X334327Y64936D01*
X335430Y64479D01*
X336614Y64323D01*
X337798Y64479D01*
X338901Y64936D01*
X339849Y65663D01*
X340576Y66610D01*
X341033Y67714D01*
X341189Y68898D01*
X341033Y70082D01*
X340576Y71185D01*
X339849Y72132D01*
X338901Y72859D01*
X337798Y73316D01*
X336614Y73472D01*
D02*
G37*
G36*
X175197D02*
X174013Y73316D01*
X172909Y72859D01*
X171962Y72132D01*
X171235Y71185D01*
X170778Y70082D01*
X170622Y68898D01*
X170778Y67714D01*
X171235Y66610D01*
X171962Y65663D01*
X172909Y64936D01*
X174013Y64479D01*
X175197Y64323D01*
X176381Y64479D01*
X177484Y64936D01*
X178431Y65663D01*
X179158Y66610D01*
X179615Y67714D01*
X179771Y68898D01*
X179615Y70082D01*
X179158Y71185D01*
X178431Y72132D01*
X177484Y72859D01*
X176381Y73316D01*
X175197Y73472D01*
D02*
G37*
G36*
X360236Y61661D02*
X359052Y61505D01*
X357949Y61048D01*
X357001Y60321D01*
X356275Y59374D01*
X355818Y58271D01*
X355662Y57087D01*
X355818Y55903D01*
X356275Y54799D01*
X357001Y53852D01*
X357949Y53125D01*
X359052Y52668D01*
X360236Y52512D01*
X361420Y52668D01*
X362524Y53125D01*
X363471Y53852D01*
X364198Y54799D01*
X364655Y55903D01*
X364811Y57087D01*
X364655Y58271D01*
X364198Y59374D01*
X363471Y60321D01*
X362524Y61048D01*
X361420Y61505D01*
X360236Y61661D01*
D02*
G37*
G36*
X290354Y28829D02*
X290323Y28816D01*
X290291Y28826D01*
X289017Y28700D01*
X288959Y28669D01*
X288893Y28675D01*
X287668Y28304D01*
X287617Y28262D01*
X287551Y28256D01*
X286423Y27652D01*
X286381Y27601D01*
X286317Y27582D01*
X285328Y26770D01*
X285297Y26711D01*
X285238Y26680D01*
X284426Y25691D01*
X284407Y25627D01*
X284356Y25585D01*
X283752Y24457D01*
X283746Y24391D01*
X283704Y24340D01*
X283332Y23115D01*
X283339Y23049D01*
X283308Y22990D01*
X283182Y21717D01*
X283202Y21654D01*
X283182Y21590D01*
X283308Y20317D01*
X283339Y20258D01*
X283332Y20192D01*
X283704Y18968D01*
X283746Y18916D01*
X283752Y18850D01*
X284356Y17722D01*
X284407Y17680D01*
X284426Y17616D01*
X285238Y16627D01*
X285297Y16596D01*
X285328Y16537D01*
X286317Y15725D01*
X286381Y15706D01*
X286423Y15655D01*
X287551Y15052D01*
X287617Y15045D01*
X287668Y15003D01*
X288893Y14632D01*
X288959Y14638D01*
X289017Y14607D01*
X290291Y14481D01*
X290323Y14491D01*
X290354Y14478D01*
X290386Y14491D01*
X290418Y14481D01*
X291691Y14607D01*
X291750Y14638D01*
X291816Y14632D01*
X293040Y15003D01*
X293092Y15045D01*
X293158Y15052D01*
X294286Y15655D01*
X294328Y15706D01*
X294392Y15725D01*
X295381Y16537D01*
X295412Y16596D01*
X295471Y16627D01*
X296283Y17616D01*
X296302Y17680D01*
X296353Y17722D01*
X296956Y18850D01*
X296963Y18916D01*
X297005Y18968D01*
X297376Y20192D01*
X297370Y20258D01*
X297401Y20317D01*
X297527Y21590D01*
X297507Y21654D01*
X297527Y21717D01*
X297401Y22990D01*
X297370Y23049D01*
X297376Y23115D01*
X297005Y24340D01*
X296963Y24391D01*
X296956Y24457D01*
X296353Y25585D01*
X296302Y25627D01*
X296283Y25691D01*
X295471Y26680D01*
X295412Y26711D01*
X295381Y26770D01*
X294392Y27582D01*
X294328Y27601D01*
X294286Y27652D01*
X293158Y28256D01*
X293092Y28262D01*
X293040Y28304D01*
X291816Y28675D01*
X291750Y28669D01*
X291691Y28700D01*
X290418Y28826D01*
X290386Y28816D01*
X290354Y28829D01*
D02*
G37*
G36*
X221457D02*
X221425Y28816D01*
X221393Y28826D01*
X220120Y28700D01*
X220061Y28669D01*
X219995Y28675D01*
X218771Y28304D01*
X218719Y28262D01*
X218653Y28256D01*
X217525Y27652D01*
X217483Y27601D01*
X217419Y27582D01*
X216430Y26770D01*
X216399Y26711D01*
X216340Y26680D01*
X215528Y25691D01*
X215509Y25627D01*
X215458Y25585D01*
X214855Y24457D01*
X214848Y24391D01*
X214806Y24340D01*
X214435Y23115D01*
X214441Y23049D01*
X214410Y22990D01*
X214284Y21717D01*
X214304Y21654D01*
X214284Y21590D01*
X214410Y20317D01*
X214441Y20258D01*
X214435Y20192D01*
X214806Y18968D01*
X214848Y18916D01*
X214855Y18850D01*
X215458Y17722D01*
X215509Y17680D01*
X215528Y17616D01*
X216340Y16627D01*
X216399Y16596D01*
X216430Y16537D01*
X217419Y15725D01*
X217483Y15706D01*
X217525Y15655D01*
X218653Y15052D01*
X218719Y15045D01*
X218771Y15003D01*
X219995Y14632D01*
X220061Y14638D01*
X220120Y14607D01*
X221393Y14481D01*
X221425Y14491D01*
X221457Y14478D01*
X221488Y14491D01*
X221520Y14481D01*
X222794Y14607D01*
X222852Y14638D01*
X222918Y14632D01*
X224143Y15003D01*
X224194Y15045D01*
X224260Y15052D01*
X225388Y15655D01*
X225430Y15706D01*
X225494Y15725D01*
X226483Y16537D01*
X226514Y16596D01*
X226573Y16627D01*
X227385Y17616D01*
X227404Y17680D01*
X227455Y17722D01*
X228059Y18850D01*
X228065Y18916D01*
X228107Y18968D01*
X228479Y20192D01*
X228472Y20258D01*
X228503Y20317D01*
X228629Y21590D01*
X228609Y21654D01*
X228629Y21717D01*
X228503Y22990D01*
X228472Y23049D01*
X228479Y23115D01*
X228107Y24340D01*
X228065Y24391D01*
X228059Y24457D01*
X227455Y25585D01*
X227404Y25627D01*
X227385Y25691D01*
X226573Y26680D01*
X226514Y26711D01*
X226483Y26770D01*
X225494Y27582D01*
X225430Y27601D01*
X225388Y27652D01*
X224260Y28256D01*
X224194Y28262D01*
X224143Y28304D01*
X222918Y28675D01*
X222852Y28669D01*
X222794Y28700D01*
X221520Y28826D01*
X221488Y28816D01*
X221457Y28829D01*
D02*
G37*
G36*
X462598Y44535D02*
X461827Y44381D01*
X461173Y43945D01*
X460737Y43291D01*
X460583Y42520D01*
X460737Y41749D01*
X461173Y41095D01*
X461827Y40658D01*
X462598Y40505D01*
X463370Y40658D01*
X464023Y41095D01*
X464460Y41749D01*
X464613Y42520D01*
X464460Y43291D01*
X464023Y43945D01*
X463370Y44381D01*
X462598Y44535D01*
D02*
G37*
G36*
X441929Y28829D02*
X441898Y28816D01*
X441866Y28826D01*
X440592Y28700D01*
X440534Y28669D01*
X440468Y28675D01*
X439243Y28304D01*
X439192Y28262D01*
X439126Y28256D01*
X437997Y27652D01*
X437955Y27601D01*
X437892Y27582D01*
X436903Y26770D01*
X436871Y26711D01*
X436813Y26680D01*
X436001Y25691D01*
X435982Y25627D01*
X435930Y25585D01*
X435327Y24457D01*
X435321Y24391D01*
X435279Y24340D01*
X434907Y23115D01*
X434914Y23049D01*
X434882Y22990D01*
X434757Y21717D01*
X434776Y21654D01*
X434757Y21590D01*
X434882Y20317D01*
X434914Y20258D01*
X434907Y20192D01*
X435279Y18968D01*
X435321Y18916D01*
X435327Y18850D01*
X435930Y17722D01*
X435982Y17680D01*
X436001Y17616D01*
X436813Y16627D01*
X436871Y16596D01*
X436903Y16537D01*
X437892Y15725D01*
X437955Y15706D01*
X437997Y15655D01*
X439126Y15052D01*
X439192Y15045D01*
X439243Y15003D01*
X440468Y14632D01*
X440534Y14638D01*
X440592Y14607D01*
X441866Y14481D01*
X441898Y14491D01*
X441929Y14478D01*
X441960Y14491D01*
X441993Y14481D01*
X443266Y14607D01*
X443325Y14638D01*
X443391Y14632D01*
X444615Y15003D01*
X444666Y15045D01*
X444733Y15052D01*
X445861Y15655D01*
X445903Y15706D01*
X445967Y15725D01*
X446956Y16537D01*
X446987Y16596D01*
X447046Y16627D01*
X447857Y17616D01*
X447877Y17680D01*
X447928Y17722D01*
X448531Y18850D01*
X448538Y18916D01*
X448580Y18968D01*
X448951Y20192D01*
X448945Y20258D01*
X448976Y20317D01*
X449101Y21590D01*
X449082Y21654D01*
X449101Y21717D01*
X448976Y22990D01*
X448945Y23049D01*
X448951Y23115D01*
X448580Y24340D01*
X448538Y24391D01*
X448531Y24457D01*
X447928Y25585D01*
X447877Y25627D01*
X447857Y25691D01*
X447046Y26680D01*
X446987Y26711D01*
X446956Y26770D01*
X445967Y27582D01*
X445903Y27601D01*
X445861Y27652D01*
X444733Y28256D01*
X444666Y28262D01*
X444615Y28304D01*
X443391Y28675D01*
X443325Y28669D01*
X443266Y28700D01*
X441993Y28826D01*
X441960Y28816D01*
X441929Y28829D01*
D02*
G37*
G36*
X484252Y41982D02*
X481996Y41804D01*
X479795Y41276D01*
X477704Y40409D01*
X475775Y39227D01*
X474054Y37757D01*
X472584Y36036D01*
X471402Y34107D01*
X470535Y32016D01*
X470007Y29815D01*
X469830Y27559D01*
X470007Y25303D01*
X470535Y23102D01*
X471402Y21011D01*
X472584Y19082D01*
X474054Y17361D01*
X475775Y15891D01*
X477704Y14709D01*
X479795Y13842D01*
X481996Y13314D01*
X484252Y13137D01*
X486508Y13314D01*
X488709Y13842D01*
X490800Y14709D01*
X492729Y15891D01*
X494450Y17361D01*
X495920Y19082D01*
X497102Y21011D01*
X497968Y23102D01*
X498497Y25303D01*
X498674Y27559D01*
X498497Y29815D01*
X497968Y32016D01*
X497102Y34107D01*
X495920Y36036D01*
X494450Y37757D01*
X492729Y39227D01*
X490800Y40409D01*
X488709Y41276D01*
X486508Y41804D01*
X484252Y41982D01*
D02*
G37*
G36*
X27559D02*
X25303Y41804D01*
X23102Y41276D01*
X21011Y40409D01*
X19082Y39227D01*
X17361Y37757D01*
X15891Y36036D01*
X14709Y34107D01*
X13842Y32016D01*
X13314Y29815D01*
X13137Y27559D01*
X13314Y25303D01*
X13842Y23102D01*
X14709Y21011D01*
X15891Y19082D01*
X17361Y17361D01*
X19082Y15891D01*
X21011Y14709D01*
X23102Y13842D01*
X25303Y13314D01*
X27559Y13137D01*
X29815Y13314D01*
X32016Y13842D01*
X34107Y14709D01*
X36036Y15891D01*
X37757Y17361D01*
X39227Y19082D01*
X40409Y21011D01*
X41276Y23102D01*
X41804Y25303D01*
X41982Y27559D01*
X41804Y29815D01*
X41276Y32016D01*
X40409Y34107D01*
X39227Y36036D01*
X37757Y37757D01*
X36036Y39227D01*
X34107Y40409D01*
X32016Y41276D01*
X29815Y41804D01*
X27559Y41982D01*
D02*
G37*
G36*
X69882Y28829D02*
X69851Y28816D01*
X69818Y28826D01*
X68545Y28700D01*
X68486Y28669D01*
X68420Y28675D01*
X67196Y28304D01*
X67145Y28262D01*
X67079Y28256D01*
X65950Y27652D01*
X65908Y27601D01*
X65844Y27582D01*
X64855Y26770D01*
X64824Y26711D01*
X64766Y26680D01*
X63954Y25691D01*
X63934Y25627D01*
X63883Y25585D01*
X63280Y24457D01*
X63273Y24391D01*
X63231Y24340D01*
X62860Y23115D01*
X62866Y23049D01*
X62835Y22990D01*
X62710Y21717D01*
X62729Y21654D01*
X62710Y21590D01*
X62835Y20317D01*
X62866Y20258D01*
X62860Y20192D01*
X63231Y18968D01*
X63273Y18916D01*
X63280Y18850D01*
X63883Y17722D01*
X63934Y17680D01*
X63954Y17616D01*
X64766Y16627D01*
X64824Y16596D01*
X64855Y16537D01*
X65844Y15725D01*
X65908Y15706D01*
X65950Y15655D01*
X67079Y15052D01*
X67145Y15045D01*
X67196Y15003D01*
X68420Y14632D01*
X68486Y14638D01*
X68545Y14607D01*
X69818Y14481D01*
X69851Y14491D01*
X69882Y14478D01*
X69913Y14491D01*
X69945Y14481D01*
X71219Y14607D01*
X71277Y14638D01*
X71343Y14632D01*
X72568Y15003D01*
X72619Y15045D01*
X72685Y15052D01*
X73814Y15655D01*
X73856Y15706D01*
X73919Y15725D01*
X74908Y16537D01*
X74940Y16596D01*
X74998Y16627D01*
X75810Y17616D01*
X75829Y17680D01*
X75880Y17722D01*
X76484Y18850D01*
X76490Y18916D01*
X76532Y18968D01*
X76904Y20192D01*
X76897Y20258D01*
X76929Y20317D01*
X77054Y21590D01*
X77035Y21654D01*
X77054Y21717D01*
X76929Y22990D01*
X76897Y23049D01*
X76904Y23115D01*
X76532Y24340D01*
X76490Y24391D01*
X76484Y24457D01*
X75880Y25585D01*
X75829Y25627D01*
X75810Y25691D01*
X74998Y26680D01*
X74940Y26711D01*
X74908Y26770D01*
X73919Y27582D01*
X73856Y27601D01*
X73814Y27652D01*
X72685Y28256D01*
X72619Y28262D01*
X72568Y28304D01*
X71343Y28675D01*
X71277Y28669D01*
X71219Y28700D01*
X69945Y28826D01*
X69913Y28816D01*
X69882Y28829D01*
D02*
G37*
G36*
X255906Y30956D02*
X255058Y30787D01*
X254339Y30307D01*
X253858Y29588D01*
X253690Y28740D01*
X253858Y27892D01*
X254339Y27173D01*
X255058Y26693D01*
X255906Y26524D01*
X256753Y26693D01*
X257472Y27173D01*
X257953Y27892D01*
X258121Y28740D01*
X257953Y29588D01*
X257472Y30307D01*
X256753Y30787D01*
X255906Y30956D01*
D02*
G37*
G36*
X157480Y51819D02*
X156296Y51663D01*
X155193Y51206D01*
X154246Y50479D01*
X153519Y49531D01*
X153062Y48428D01*
X152906Y47244D01*
X153062Y46060D01*
X153519Y44957D01*
X154246Y44009D01*
X155193Y43282D01*
X156296Y42825D01*
X157480Y42669D01*
X158664Y42825D01*
X159768Y43282D01*
X160715Y44009D01*
X161442Y44957D01*
X161899Y46060D01*
X162055Y47244D01*
X161899Y48428D01*
X161442Y49531D01*
X160715Y50479D01*
X159768Y51206D01*
X158664Y51663D01*
X157480Y51819D01*
D02*
G37*
G36*
X127953Y61661D02*
X126769Y61505D01*
X125665Y61048D01*
X124718Y60321D01*
X123991Y59374D01*
X123534Y58271D01*
X123378Y57087D01*
X123534Y55903D01*
X123991Y54799D01*
X124718Y53852D01*
X125665Y53125D01*
X126769Y52668D01*
X127953Y52512D01*
X129137Y52668D01*
X130240Y53125D01*
X131187Y53852D01*
X131914Y54799D01*
X132371Y55903D01*
X132527Y57087D01*
X132371Y58271D01*
X131914Y59374D01*
X131187Y60321D01*
X130240Y61048D01*
X129137Y61505D01*
X127953Y61661D01*
D02*
G37*
G36*
X116142D02*
X114958Y61505D01*
X113855Y61048D01*
X112907Y60321D01*
X112180Y59374D01*
X111723Y58271D01*
X111567Y57087D01*
X111723Y55903D01*
X112180Y54799D01*
X112907Y53852D01*
X113855Y53125D01*
X114958Y52668D01*
X116142Y52512D01*
X117326Y52668D01*
X118429Y53125D01*
X119377Y53852D01*
X120104Y54799D01*
X120561Y55903D01*
X120716Y57087D01*
X120561Y58271D01*
X120104Y59374D01*
X119377Y60321D01*
X118429Y61048D01*
X117326Y61505D01*
X116142Y61661D01*
D02*
G37*
G36*
X151575D02*
X150391Y61505D01*
X149287Y61048D01*
X148340Y60321D01*
X147613Y59374D01*
X147156Y58271D01*
X147000Y57087D01*
X147156Y55903D01*
X147613Y54799D01*
X148340Y53852D01*
X149287Y53125D01*
X150391Y52668D01*
X151575Y52512D01*
X152759Y52668D01*
X153862Y53125D01*
X154809Y53852D01*
X155536Y54799D01*
X155993Y55903D01*
X156149Y57087D01*
X155993Y58271D01*
X155536Y59374D01*
X154809Y60321D01*
X153862Y61048D01*
X152759Y61505D01*
X151575Y61661D01*
D02*
G37*
G36*
X139764D02*
X138580Y61505D01*
X137477Y61048D01*
X136529Y60321D01*
X135802Y59374D01*
X135345Y58271D01*
X135189Y57087D01*
X135345Y55903D01*
X135802Y54799D01*
X136529Y53852D01*
X137477Y53125D01*
X138580Y52668D01*
X139764Y52512D01*
X140948Y52668D01*
X142051Y53125D01*
X142999Y53852D01*
X143726Y54799D01*
X144183Y55903D01*
X144338Y57087D01*
X144183Y58271D01*
X143726Y59374D01*
X142999Y60321D01*
X142051Y61048D01*
X140948Y61505D01*
X139764Y61661D01*
D02*
G37*
G36*
X470374Y48672D02*
X469526Y48504D01*
X468807Y48023D01*
X468327Y47305D01*
X468158Y46457D01*
X468327Y45609D01*
X468807Y44890D01*
X469526Y44409D01*
X470374Y44241D01*
X471222Y44409D01*
X471941Y44890D01*
X472421Y45609D01*
X472590Y46457D01*
X472421Y47305D01*
X471941Y48023D01*
X471222Y48504D01*
X470374Y48672D01*
D02*
G37*
G36*
X354331Y51819D02*
X353147Y51663D01*
X352044Y51206D01*
X351096Y50479D01*
X350369Y49531D01*
X349912Y48428D01*
X349756Y47244D01*
X349912Y46060D01*
X350369Y44957D01*
X351096Y44009D01*
X352044Y43282D01*
X353147Y42825D01*
X354331Y42669D01*
X355515Y42825D01*
X356618Y43282D01*
X357565Y44009D01*
X358293Y44957D01*
X358750Y46060D01*
X358905Y47244D01*
X358750Y48428D01*
X358293Y49531D01*
X357565Y50479D01*
X356618Y51206D01*
X355515Y51663D01*
X354331Y51819D01*
D02*
G37*
G36*
X104331Y61661D02*
X103147Y61505D01*
X102043Y61048D01*
X101096Y60321D01*
X100369Y59374D01*
X99912Y58271D01*
X99756Y57087D01*
X99912Y55903D01*
X100369Y54799D01*
X101096Y53852D01*
X102043Y53125D01*
X103147Y52668D01*
X104331Y52512D01*
X105515Y52668D01*
X106618Y53125D01*
X107565Y53852D01*
X108292Y54799D01*
X108749Y55903D01*
X108905Y57087D01*
X108749Y58271D01*
X108292Y59374D01*
X107565Y60321D01*
X106618Y61048D01*
X105515Y61505D01*
X104331Y61661D01*
D02*
G37*
G36*
X462598Y52409D02*
X461827Y52255D01*
X461173Y51819D01*
X460737Y51165D01*
X460583Y50394D01*
X460737Y49623D01*
X461173Y48969D01*
X461827Y48532D01*
X462598Y48379D01*
X463370Y48532D01*
X464023Y48969D01*
X464460Y49623D01*
X464613Y50394D01*
X464460Y51165D01*
X464023Y51819D01*
X463370Y52255D01*
X462598Y52409D01*
D02*
G37*
G36*
X395669Y73472D02*
X394485Y73316D01*
X393382Y72859D01*
X392435Y72132D01*
X391708Y71185D01*
X391251Y70082D01*
X391095Y68898D01*
X391251Y67714D01*
X391708Y66610D01*
X392435Y65663D01*
X393382Y64936D01*
X394485Y64479D01*
X395669Y64323D01*
X396853Y64479D01*
X397957Y64936D01*
X398904Y65663D01*
X399631Y66610D01*
X400088Y67714D01*
X400244Y68898D01*
X400088Y70082D01*
X399631Y71185D01*
X398904Y72132D01*
X397957Y72859D01*
X396853Y73316D01*
X395669Y73472D01*
D02*
G37*
G36*
X295276Y129968D02*
X294504Y129815D01*
X293851Y129378D01*
X293414Y128724D01*
X293261Y127953D01*
X293414Y127182D01*
X293851Y126528D01*
X293995Y126431D01*
Y125931D01*
X293851Y125834D01*
X293414Y125181D01*
X293261Y124409D01*
X293414Y123638D01*
X293851Y122985D01*
X294504Y122548D01*
X295276Y122394D01*
X296047Y122548D01*
X296701Y122985D01*
X297137Y123638D01*
X297291Y124409D01*
X297137Y125181D01*
X296701Y125834D01*
X296556Y125931D01*
Y126431D01*
X296701Y126528D01*
X297137Y127182D01*
X297291Y127953D01*
X297137Y128724D01*
X296701Y129378D01*
X296047Y129815D01*
X295276Y129968D01*
D02*
G37*
G36*
X385827Y129968D02*
X385056Y129815D01*
X384402Y129378D01*
X383965Y128724D01*
X383812Y127953D01*
X383965Y127182D01*
X384402Y126528D01*
X384547Y126431D01*
Y125931D01*
X384402Y125834D01*
X383965Y125181D01*
X383812Y124409D01*
X383965Y123638D01*
X384402Y122985D01*
X385056Y122548D01*
X385827Y122394D01*
X386598Y122548D01*
X387252Y122985D01*
X387688Y123638D01*
X387842Y124409D01*
X387688Y125181D01*
X387252Y125834D01*
X387107Y125931D01*
Y126431D01*
X387252Y126528D01*
X387688Y127182D01*
X387842Y127953D01*
X387688Y128724D01*
X387252Y129378D01*
X386598Y129815D01*
X385827Y129968D01*
D02*
G37*
G36*
X228740Y123275D02*
X227969Y123122D01*
X227524Y122824D01*
X227165Y122726D01*
X226807Y122824D01*
X226362Y123122D01*
X225590Y123275D01*
X224819Y123122D01*
X224166Y122685D01*
X223866D01*
X223212Y123122D01*
X222441Y123275D01*
X221670Y123122D01*
X221016Y122685D01*
X220579Y122031D01*
X220426Y121260D01*
X220579Y120489D01*
X221016Y119835D01*
X221670Y119398D01*
X222441Y119245D01*
X223212Y119398D01*
X223866Y119835D01*
X224166D01*
X224819Y119398D01*
X225590Y119245D01*
X226362Y119398D01*
X226807Y119696D01*
X227165Y119794D01*
X227524Y119696D01*
X227969Y119398D01*
X228740Y119245D01*
X229511Y119398D01*
X230165Y119835D01*
X230602Y120489D01*
X230755Y121260D01*
X230602Y122031D01*
X230165Y122685D01*
X229511Y123122D01*
X228740Y123275D01*
D02*
G37*
G36*
X158661Y123275D02*
X157890Y123122D01*
X157237Y122685D01*
X156937D01*
X156283Y123122D01*
X155512Y123275D01*
X154741Y123122D01*
X154087Y122685D01*
X153787D01*
X153133Y123122D01*
X152362Y123275D01*
X151591Y123122D01*
X150937Y122685D01*
X150501Y122031D01*
X150347Y121260D01*
X150501Y120489D01*
X150937Y119835D01*
X151591Y119398D01*
X152362Y119245D01*
X153133Y119398D01*
X153787Y119835D01*
X154087D01*
X154741Y119398D01*
X155512Y119245D01*
X156283Y119398D01*
X156728Y119696D01*
X157087Y119794D01*
X157445Y119696D01*
X157890Y119398D01*
X158661Y119245D01*
X159433Y119398D01*
X160086Y119835D01*
X160523Y120489D01*
X160677Y121260D01*
X160523Y122031D01*
X160086Y122685D01*
X159433Y123122D01*
X158661Y123275D01*
D02*
G37*
G36*
X230709Y82924D02*
X229861Y82756D01*
X229142Y82275D01*
X228661Y81557D01*
X228493Y80709D01*
X228661Y79861D01*
X229142Y79142D01*
X229861Y78662D01*
X230709Y78493D01*
X231557Y78662D01*
X232276Y79142D01*
X232756Y79861D01*
X232925Y80709D01*
X232756Y81557D01*
X232276Y82275D01*
X231557Y82756D01*
X230709Y82924D01*
D02*
G37*
G36*
X281102Y82924D02*
X280254Y82756D01*
X279536Y82275D01*
X279055Y81557D01*
X278887Y80709D01*
X279055Y79861D01*
X279536Y79142D01*
X280254Y78662D01*
X281102Y78493D01*
X281950Y78662D01*
X282669Y79142D01*
X283150Y79861D01*
X283318Y80709D01*
X283150Y81557D01*
X282669Y82275D01*
X281950Y82756D01*
X281102Y82924D01*
D02*
G37*
G36*
X165354Y129968D02*
X164583Y129815D01*
X163929Y129378D01*
X163493Y128724D01*
X163339Y127953D01*
X163493Y127182D01*
X163929Y126528D01*
X164074Y126431D01*
Y125931D01*
X163929Y125834D01*
X163493Y125181D01*
X163339Y124409D01*
X163493Y123638D01*
X163929Y122985D01*
X164583Y122548D01*
X165354Y122394D01*
X166126Y122548D01*
X166779Y122985D01*
X167216Y123638D01*
X167369Y124409D01*
X167216Y125181D01*
X166779Y125834D01*
X166634Y125931D01*
Y126431D01*
X166779Y126528D01*
X167216Y127182D01*
X167369Y127953D01*
X167216Y128724D01*
X166779Y129378D01*
X166126Y129815D01*
X165354Y129968D01*
D02*
G37*
G36*
X74803D02*
X74032Y129815D01*
X73378Y129378D01*
X72941Y128724D01*
X72788Y127953D01*
X72941Y127182D01*
X73378Y126528D01*
X73523Y126431D01*
Y125931D01*
X73378Y125834D01*
X72941Y125181D01*
X72788Y124409D01*
X72941Y123638D01*
X73378Y122985D01*
X74032Y122548D01*
X74803Y122394D01*
X75574Y122548D01*
X76228Y122985D01*
X76665Y123638D01*
X76818Y124409D01*
X76665Y125181D01*
X76228Y125834D01*
X76083Y125931D01*
Y126431D01*
X76228Y126528D01*
X76665Y127182D01*
X76818Y127953D01*
X76665Y128724D01*
X76228Y129378D01*
X75574Y129815D01*
X74803Y129968D01*
D02*
G37*
G36*
X138976Y123275D02*
X138205Y123122D01*
X137760Y122824D01*
X137401Y122726D01*
X137043Y122824D01*
X136598Y123122D01*
X135827Y123275D01*
X135056Y123122D01*
X134402Y122685D01*
X134102D01*
X133448Y123122D01*
X132677Y123275D01*
X131906Y123122D01*
X131252Y122685D01*
X130815Y122031D01*
X130662Y121260D01*
X130815Y120489D01*
X131252Y119835D01*
X131906Y119398D01*
X132677Y119245D01*
X133448Y119398D01*
X134102Y119835D01*
X134402D01*
X135056Y119398D01*
X135827Y119245D01*
X136598Y119398D01*
X137252Y119835D01*
X137551D01*
X138205Y119398D01*
X138976Y119245D01*
X139748Y119398D01*
X140401Y119835D01*
X140838Y120489D01*
X140991Y121260D01*
X140838Y122031D01*
X140401Y122685D01*
X139748Y123122D01*
X138976Y123275D01*
D02*
G37*
G36*
X123819Y128984D02*
X123048Y128830D01*
X122394Y128393D01*
X121957Y127740D01*
X121804Y126969D01*
X121957Y126197D01*
X122394Y125544D01*
X123048Y125107D01*
X123819Y124953D01*
X124590Y125107D01*
X125244Y125544D01*
X125681Y126197D01*
X125834Y126969D01*
X125681Y127740D01*
X125244Y128393D01*
X124590Y128830D01*
X123819Y128984D01*
D02*
G37*
G36*
X379134Y123275D02*
X378363Y123122D01*
X377917Y122824D01*
X377559Y122726D01*
X377201Y122824D01*
X376755Y123122D01*
X375984Y123275D01*
X375213Y123122D01*
X374559Y122685D01*
X374259D01*
X373606Y123122D01*
X372835Y123275D01*
X372063Y123122D01*
X371410Y122685D01*
X370973Y122031D01*
X370819Y121260D01*
X370973Y120489D01*
X371410Y119835D01*
X372063Y119398D01*
X372835Y119245D01*
X373606Y119398D01*
X374259Y119835D01*
X374559D01*
X375213Y119398D01*
X375984Y119245D01*
X376755Y119398D01*
X377201Y119696D01*
X377559Y119794D01*
X377917Y119696D01*
X378363Y119398D01*
X379134Y119245D01*
X379905Y119398D01*
X380559Y119835D01*
X380996Y120489D01*
X381149Y121260D01*
X380996Y122031D01*
X380559Y122685D01*
X379905Y123122D01*
X379134Y123275D01*
D02*
G37*
G36*
X434842Y128984D02*
X434071Y128830D01*
X433418Y128393D01*
X432981Y127740D01*
X432827Y126969D01*
X432981Y126197D01*
X433418Y125544D01*
X434071Y125107D01*
X434842Y124953D01*
X435614Y125107D01*
X436267Y125544D01*
X436704Y126197D01*
X436858Y126969D01*
X436704Y127740D01*
X436267Y128393D01*
X435614Y128830D01*
X434842Y128984D01*
D02*
G37*
G36*
X216535Y135873D02*
X215764Y135720D01*
X215111Y135283D01*
X214674Y134629D01*
X214520Y133858D01*
X214674Y133087D01*
X215111Y132433D01*
X215474Y132190D01*
Y131589D01*
X215111Y131346D01*
X214674Y130692D01*
X214520Y129921D01*
X214615Y129445D01*
X214392Y129025D01*
X214241Y128958D01*
X213599Y128830D01*
X212945Y128393D01*
X212508Y127740D01*
X212355Y126969D01*
X212508Y126197D01*
X212945Y125544D01*
X213599Y125107D01*
X214370Y124953D01*
X215141Y125107D01*
X215795Y125544D01*
X216232Y126197D01*
X216385Y126969D01*
X216290Y127445D01*
X216513Y127865D01*
X216665Y127932D01*
X217307Y128059D01*
X217960Y128496D01*
X218397Y129150D01*
X218551Y129921D01*
X218397Y130692D01*
X217960Y131346D01*
X217597Y131589D01*
Y132190D01*
X217960Y132433D01*
X218397Y133087D01*
X218551Y133858D01*
X218397Y134629D01*
X217960Y135283D01*
X217307Y135720D01*
X216535Y135873D01*
D02*
G37*
G36*
X448032Y123275D02*
X447260Y123122D01*
X446815Y122824D01*
X446457Y122726D01*
X446098Y122824D01*
X445653Y123122D01*
X444882Y123275D01*
X444111Y123122D01*
X443457Y122685D01*
X443157D01*
X442503Y123122D01*
X441732Y123275D01*
X440961Y123122D01*
X440307Y122685D01*
X439871Y122031D01*
X439717Y121260D01*
X439871Y120489D01*
X440307Y119835D01*
X440961Y119398D01*
X441732Y119245D01*
X442503Y119398D01*
X443157Y119835D01*
X443457D01*
X444111Y119398D01*
X444882Y119245D01*
X445653Y119398D01*
X446098Y119696D01*
X446457Y119794D01*
X446815Y119696D01*
X447260Y119398D01*
X448032Y119245D01*
X448803Y119398D01*
X449456Y119835D01*
X449893Y120489D01*
X450047Y121260D01*
X449893Y122031D01*
X449456Y122685D01*
X448803Y123122D01*
X448032Y123275D01*
D02*
G37*
G36*
X68110Y123275D02*
X67339Y123122D01*
X66894Y122824D01*
X66536Y122726D01*
X66177Y122824D01*
X65732Y123122D01*
X64961Y123275D01*
X64189Y123122D01*
X63536Y122685D01*
X63236D01*
X62582Y123122D01*
X61811Y123275D01*
X61040Y123122D01*
X60386Y122685D01*
X59949Y122031D01*
X59796Y121260D01*
X59949Y120489D01*
X60386Y119835D01*
X61040Y119398D01*
X61811Y119245D01*
X62582Y119398D01*
X63236Y119835D01*
X63536D01*
X64189Y119398D01*
X64961Y119245D01*
X65732Y119398D01*
X66177Y119696D01*
X66536Y119794D01*
X66894Y119696D01*
X67339Y119398D01*
X68110Y119245D01*
X68881Y119398D01*
X69535Y119835D01*
X69972Y120489D01*
X70125Y121260D01*
X69972Y122031D01*
X69535Y122685D01*
X68881Y123122D01*
X68110Y123275D01*
D02*
G37*
G36*
X289370Y123275D02*
X288599Y123122D01*
X288154Y122824D01*
X287795Y122726D01*
X287437Y122824D01*
X286992Y123122D01*
X286221Y123275D01*
X285449Y123122D01*
X284796Y122685D01*
X284496D01*
X283842Y123122D01*
X283071Y123275D01*
X282300Y123122D01*
X281646Y122685D01*
X281209Y122031D01*
X281056Y121260D01*
X281209Y120489D01*
X281646Y119835D01*
X282300Y119398D01*
X283071Y119245D01*
X283842Y119398D01*
X284496Y119835D01*
X284796D01*
X285449Y119398D01*
X286221Y119245D01*
X286992Y119398D01*
X287437Y119696D01*
X287795Y119794D01*
X288154Y119696D01*
X288599Y119398D01*
X289370Y119245D01*
X290141Y119398D01*
X290795Y119835D01*
X291232Y120489D01*
X291385Y121260D01*
X291232Y122031D01*
X290795Y122685D01*
X290141Y123122D01*
X289370Y123275D01*
D02*
G37*
G36*
X359449Y123275D02*
X358678Y123122D01*
X358232Y122824D01*
X357874Y122726D01*
X357516Y122824D01*
X357070Y123122D01*
X356299Y123275D01*
X355528Y123122D01*
X354874Y122685D01*
X354574D01*
X353921Y123122D01*
X353150Y123275D01*
X352378Y123122D01*
X351725Y122685D01*
X351288Y122031D01*
X351134Y121260D01*
X351288Y120489D01*
X351725Y119835D01*
X352378Y119398D01*
X353150Y119245D01*
X353921Y119398D01*
X354574Y119835D01*
X354874D01*
X355528Y119398D01*
X356299Y119245D01*
X357070Y119398D01*
X357516Y119696D01*
X357874Y119794D01*
X358232Y119696D01*
X358678Y119398D01*
X359449Y119245D01*
X360220Y119398D01*
X360874Y119835D01*
X361311Y120489D01*
X361464Y121260D01*
X361311Y122031D01*
X360874Y122685D01*
X360220Y123122D01*
X359449Y123275D01*
D02*
G37*
G36*
X413386Y83315D02*
X412202Y83159D01*
X411098Y82702D01*
X410151Y81975D01*
X409424Y81028D01*
X408967Y79924D01*
X408811Y78740D01*
X408967Y77556D01*
X409424Y76453D01*
X410151Y75506D01*
X411098Y74778D01*
X412202Y74322D01*
X413386Y74166D01*
X414570Y74322D01*
X415673Y74778D01*
X416620Y75506D01*
X417347Y76453D01*
X417804Y77556D01*
X417960Y78740D01*
X417804Y79924D01*
X417347Y81028D01*
X416620Y81975D01*
X415673Y82702D01*
X414570Y83159D01*
X413386Y83315D01*
D02*
G37*
G36*
X157480D02*
X156296Y83159D01*
X155193Y82702D01*
X154246Y81975D01*
X153519Y81028D01*
X153062Y79924D01*
X152906Y78740D01*
X153062Y77556D01*
X153519Y76453D01*
X154246Y75506D01*
X155193Y74778D01*
X156296Y74322D01*
X157480Y74166D01*
X158664Y74322D01*
X159768Y74778D01*
X160715Y75506D01*
X161442Y76453D01*
X161899Y77556D01*
X162055Y78740D01*
X161899Y79924D01*
X161442Y81028D01*
X160715Y81975D01*
X159768Y82702D01*
X158664Y83159D01*
X157480Y83315D01*
D02*
G37*
G36*
X145669D02*
X144485Y83159D01*
X143382Y82702D01*
X142435Y81975D01*
X141708Y81028D01*
X141251Y79924D01*
X141095Y78740D01*
X141251Y77556D01*
X141708Y76453D01*
X142435Y75506D01*
X143382Y74778D01*
X144485Y74322D01*
X145669Y74166D01*
X146853Y74322D01*
X147957Y74778D01*
X148904Y75506D01*
X149631Y76453D01*
X150088Y77556D01*
X150244Y78740D01*
X150088Y79924D01*
X149631Y81028D01*
X148904Y81975D01*
X147957Y82702D01*
X146853Y83159D01*
X145669Y83315D01*
D02*
G37*
G36*
X181102D02*
X179918Y83159D01*
X178815Y82702D01*
X177868Y81975D01*
X177141Y81028D01*
X176684Y79924D01*
X176528Y78740D01*
X176684Y77556D01*
X177141Y76453D01*
X177868Y75506D01*
X178815Y74778D01*
X179918Y74322D01*
X181102Y74166D01*
X182286Y74322D01*
X183390Y74778D01*
X184337Y75506D01*
X185064Y76453D01*
X185521Y77556D01*
X185677Y78740D01*
X185521Y79924D01*
X185064Y81028D01*
X184337Y81975D01*
X183390Y82702D01*
X182286Y83159D01*
X181102Y83315D01*
D02*
G37*
G36*
X169291D02*
X168107Y83159D01*
X167004Y82702D01*
X166057Y81975D01*
X165330Y81028D01*
X164873Y79924D01*
X164717Y78740D01*
X164873Y77556D01*
X165330Y76453D01*
X166057Y75506D01*
X167004Y74778D01*
X168107Y74322D01*
X169291Y74166D01*
X170475Y74322D01*
X171579Y74778D01*
X172526Y75506D01*
X173253Y76453D01*
X173710Y77556D01*
X173866Y78740D01*
X173710Y79924D01*
X173253Y81028D01*
X172526Y81975D01*
X171579Y82702D01*
X170475Y83159D01*
X169291Y83315D01*
D02*
G37*
G36*
X110236D02*
X109052Y83159D01*
X107949Y82702D01*
X107001Y81975D01*
X106274Y81028D01*
X105817Y79924D01*
X105662Y78740D01*
X105817Y77556D01*
X106274Y76453D01*
X107001Y75506D01*
X107949Y74778D01*
X109052Y74322D01*
X110236Y74166D01*
X111420Y74322D01*
X112523Y74778D01*
X113471Y75506D01*
X114198Y76453D01*
X114655Y77556D01*
X114811Y78740D01*
X114655Y79924D01*
X114198Y81028D01*
X113471Y81975D01*
X112523Y82702D01*
X111420Y83159D01*
X110236Y83315D01*
D02*
G37*
G36*
X98425D02*
X97241Y83159D01*
X96138Y82702D01*
X95191Y81975D01*
X94463Y81028D01*
X94007Y79924D01*
X93851Y78740D01*
X94007Y77556D01*
X94463Y76453D01*
X95191Y75506D01*
X96138Y74778D01*
X97241Y74322D01*
X98425Y74166D01*
X99609Y74322D01*
X100713Y74778D01*
X101660Y75506D01*
X102387Y76453D01*
X102844Y77556D01*
X103000Y78740D01*
X102844Y79924D01*
X102387Y81028D01*
X101660Y81975D01*
X100713Y82702D01*
X99609Y83159D01*
X98425Y83315D01*
D02*
G37*
G36*
X133858D02*
X132674Y83159D01*
X131571Y82702D01*
X130623Y81975D01*
X129896Y81028D01*
X129439Y79924D01*
X129284Y78740D01*
X129439Y77556D01*
X129896Y76453D01*
X130623Y75506D01*
X131571Y74778D01*
X132674Y74322D01*
X133858Y74166D01*
X135042Y74322D01*
X136145Y74778D01*
X137093Y75506D01*
X137820Y76453D01*
X138277Y77556D01*
X138433Y78740D01*
X138277Y79924D01*
X137820Y81028D01*
X137093Y81975D01*
X136145Y82702D01*
X135042Y83159D01*
X133858Y83315D01*
D02*
G37*
G36*
X122047D02*
X120863Y83159D01*
X119760Y82702D01*
X118813Y81975D01*
X118086Y81028D01*
X117629Y79924D01*
X117473Y78740D01*
X117629Y77556D01*
X118086Y76453D01*
X118813Y75506D01*
X119760Y74778D01*
X120863Y74322D01*
X122047Y74166D01*
X123231Y74322D01*
X124335Y74778D01*
X125282Y75506D01*
X126009Y76453D01*
X126466Y77556D01*
X126622Y78740D01*
X126466Y79924D01*
X126009Y81028D01*
X125282Y81975D01*
X124335Y82702D01*
X123231Y83159D01*
X122047Y83315D01*
D02*
G37*
G36*
X192913D02*
X191729Y83159D01*
X190626Y82702D01*
X189679Y81975D01*
X188952Y81028D01*
X188495Y79924D01*
X188339Y78740D01*
X188495Y77556D01*
X188952Y76453D01*
X189679Y75506D01*
X190626Y74778D01*
X191729Y74322D01*
X192913Y74166D01*
X194097Y74322D01*
X195201Y74778D01*
X196148Y75506D01*
X196875Y76453D01*
X197332Y77556D01*
X197488Y78740D01*
X197332Y79924D01*
X196875Y81028D01*
X196148Y81975D01*
X195201Y82702D01*
X194097Y83159D01*
X192913Y83315D01*
D02*
G37*
G36*
X377953D02*
X376769Y83159D01*
X375665Y82702D01*
X374718Y81975D01*
X373991Y81028D01*
X373534Y79924D01*
X373378Y78740D01*
X373534Y77556D01*
X373991Y76453D01*
X374718Y75506D01*
X375665Y74778D01*
X376769Y74322D01*
X377953Y74166D01*
X379137Y74322D01*
X380240Y74778D01*
X381188Y75506D01*
X381914Y76453D01*
X382371Y77556D01*
X382527Y78740D01*
X382371Y79924D01*
X381914Y81028D01*
X381188Y81975D01*
X380240Y82702D01*
X379137Y83159D01*
X377953Y83315D01*
D02*
G37*
G36*
X366142D02*
X364958Y83159D01*
X363855Y82702D01*
X362907Y81975D01*
X362180Y81028D01*
X361723Y79924D01*
X361567Y78740D01*
X361723Y77556D01*
X362180Y76453D01*
X362907Y75506D01*
X363855Y74778D01*
X364958Y74322D01*
X366142Y74166D01*
X367326Y74322D01*
X368429Y74778D01*
X369376Y75506D01*
X370104Y76453D01*
X370561Y77556D01*
X370716Y78740D01*
X370561Y79924D01*
X370104Y81028D01*
X369376Y81975D01*
X368429Y82702D01*
X367326Y83159D01*
X366142Y83315D01*
D02*
G37*
G36*
X401575D02*
X400391Y83159D01*
X399288Y82702D01*
X398340Y81975D01*
X397613Y81028D01*
X397156Y79924D01*
X397000Y78740D01*
X397156Y77556D01*
X397613Y76453D01*
X398340Y75506D01*
X399288Y74778D01*
X400391Y74322D01*
X401575Y74166D01*
X402759Y74322D01*
X403862Y74778D01*
X404810Y75506D01*
X405537Y76453D01*
X405994Y77556D01*
X406149Y78740D01*
X405994Y79924D01*
X405537Y81028D01*
X404810Y81975D01*
X403862Y82702D01*
X402759Y83159D01*
X401575Y83315D01*
D02*
G37*
G36*
X389764D02*
X388580Y83159D01*
X387476Y82702D01*
X386529Y81975D01*
X385802Y81028D01*
X385345Y79924D01*
X385189Y78740D01*
X385345Y77556D01*
X385802Y76453D01*
X386529Y75506D01*
X387476Y74778D01*
X388580Y74322D01*
X389764Y74166D01*
X390948Y74322D01*
X392051Y74778D01*
X392999Y75506D01*
X393725Y76453D01*
X394182Y77556D01*
X394338Y78740D01*
X394182Y79924D01*
X393725Y81028D01*
X392999Y81975D01*
X392051Y82702D01*
X390948Y83159D01*
X389764Y83315D01*
D02*
G37*
G36*
X330709D02*
X329525Y83159D01*
X328421Y82702D01*
X327474Y81975D01*
X326747Y81028D01*
X326290Y79924D01*
X326134Y78740D01*
X326290Y77556D01*
X326747Y76453D01*
X327474Y75506D01*
X328421Y74778D01*
X329525Y74322D01*
X330709Y74166D01*
X331893Y74322D01*
X332996Y74778D01*
X333943Y75506D01*
X334670Y76453D01*
X335127Y77556D01*
X335283Y78740D01*
X335127Y79924D01*
X334670Y81028D01*
X333943Y81975D01*
X332996Y82702D01*
X331893Y83159D01*
X330709Y83315D01*
D02*
G37*
G36*
X318898D02*
X317714Y83159D01*
X316610Y82702D01*
X315663Y81975D01*
X314936Y81028D01*
X314479Y79924D01*
X314323Y78740D01*
X314479Y77556D01*
X314936Y76453D01*
X315663Y75506D01*
X316610Y74778D01*
X317714Y74322D01*
X318898Y74166D01*
X320082Y74322D01*
X321185Y74778D01*
X322132Y75506D01*
X322859Y76453D01*
X323316Y77556D01*
X323472Y78740D01*
X323316Y79924D01*
X322859Y81028D01*
X322132Y81975D01*
X321185Y82702D01*
X320082Y83159D01*
X318898Y83315D01*
D02*
G37*
G36*
X354331D02*
X353147Y83159D01*
X352044Y82702D01*
X351096Y81975D01*
X350369Y81028D01*
X349912Y79924D01*
X349756Y78740D01*
X349912Y77556D01*
X350369Y76453D01*
X351096Y75506D01*
X352044Y74778D01*
X353147Y74322D01*
X354331Y74166D01*
X355515Y74322D01*
X356618Y74778D01*
X357565Y75506D01*
X358293Y76453D01*
X358750Y77556D01*
X358905Y78740D01*
X358750Y79924D01*
X358293Y81028D01*
X357565Y81975D01*
X356618Y82702D01*
X355515Y83159D01*
X354331Y83315D01*
D02*
G37*
G36*
X342520D02*
X341336Y83159D01*
X340232Y82702D01*
X339285Y81975D01*
X338558Y81028D01*
X338101Y79924D01*
X337945Y78740D01*
X338101Y77556D01*
X338558Y76453D01*
X339285Y75506D01*
X340232Y74778D01*
X341336Y74322D01*
X342520Y74166D01*
X343704Y74322D01*
X344807Y74778D01*
X345755Y75506D01*
X346481Y76453D01*
X346938Y77556D01*
X347094Y78740D01*
X346938Y79924D01*
X346481Y81028D01*
X345755Y81975D01*
X344807Y82702D01*
X343704Y83159D01*
X342520Y83315D01*
D02*
G37*
G36*
X109449Y245122D02*
X108755Y244983D01*
X108166Y244590D01*
X107773Y244001D01*
X107634Y243307D01*
X107773Y242613D01*
X108166Y242024D01*
X108755Y241631D01*
X109449Y241493D01*
X110143Y241631D01*
X110732Y242024D01*
X110774Y242087D01*
X111274D01*
X111315Y242024D01*
X111904Y241631D01*
X112598Y241493D01*
X113293Y241631D01*
X113881Y242024D01*
X114275Y242613D01*
X114413Y243307D01*
X114275Y244001D01*
X113881Y244590D01*
X113293Y244983D01*
X112598Y245121D01*
X111904Y244983D01*
X111315Y244590D01*
X111274Y244528D01*
X110774D01*
X110732Y244590D01*
X110143Y244983D01*
X109449Y245122D01*
D02*
G37*
G36*
X93898Y303196D02*
X93126Y303043D01*
X92473Y302606D01*
X92036Y301952D01*
X91882Y301181D01*
X92036Y300410D01*
X92473Y299756D01*
X93126Y299319D01*
X93898Y299166D01*
X94669Y299319D01*
X95323Y299756D01*
X95759Y300410D01*
X95913Y301181D01*
X95759Y301952D01*
X95323Y302606D01*
X94669Y303043D01*
X93898Y303196D01*
D02*
G37*
G36*
X27953Y299259D02*
X27182Y299106D01*
X26528Y298669D01*
X26091Y298015D01*
X25938Y297244D01*
X26091Y296473D01*
X26528Y295819D01*
X27182Y295382D01*
X27953Y295229D01*
X28724Y295382D01*
X29378Y295819D01*
X29814Y296473D01*
X29968Y297244D01*
X29814Y298015D01*
X29378Y298669D01*
X28724Y299106D01*
X27953Y299259D01*
D02*
G37*
G36*
X304724Y306149D02*
X303953Y305996D01*
X303299Y305559D01*
X302863Y304905D01*
X302709Y304134D01*
X302863Y303363D01*
X303299Y302709D01*
X303953Y302272D01*
X304724Y302119D01*
X305496Y302272D01*
X306149Y302709D01*
X306586Y303363D01*
X306739Y304134D01*
X306586Y304905D01*
X306149Y305559D01*
X305496Y305996D01*
X304724Y306149D01*
D02*
G37*
G36*
X40551Y303196D02*
X39780Y303043D01*
X39126Y302606D01*
X38690Y301952D01*
X38536Y301181D01*
X38614Y300787D01*
X38189Y300362D01*
X37795Y300440D01*
X37024Y300287D01*
X36370Y299850D01*
X35934Y299196D01*
X35780Y298425D01*
X35934Y297654D01*
X36370Y297000D01*
X37024Y296564D01*
X37795Y296410D01*
X38566Y296564D01*
X39220Y297000D01*
X39657Y297654D01*
X39810Y298425D01*
X39732Y298819D01*
X40157Y299244D01*
X40551Y299166D01*
X41322Y299319D01*
X41976Y299756D01*
X42413Y300410D01*
X42566Y301181D01*
X42413Y301952D01*
X41976Y302606D01*
X41322Y303043D01*
X40551Y303196D01*
D02*
G37*
G36*
X174705Y297586D02*
X173934Y297433D01*
X173280Y296996D01*
X172843Y296342D01*
X172690Y295571D01*
X172843Y294800D01*
X173280Y294146D01*
X173934Y293709D01*
X174705Y293556D01*
X175476Y293709D01*
X176130Y294146D01*
X176566Y294800D01*
X176720Y295571D01*
X176566Y296342D01*
X176130Y296996D01*
X175476Y297433D01*
X174705Y297586D01*
D02*
G37*
G36*
X304724Y301621D02*
X303953Y301468D01*
X303299Y301031D01*
X302863Y300377D01*
X302709Y299606D01*
X302863Y298835D01*
X303299Y298181D01*
X303953Y297745D01*
X304198Y297696D01*
Y297186D01*
X303953Y297137D01*
X303299Y296701D01*
X302863Y296047D01*
X302709Y295276D01*
X302863Y294504D01*
X303299Y293851D01*
X303953Y293414D01*
X304724Y293261D01*
X305496Y293414D01*
X306149Y293851D01*
X306586Y294504D01*
X306739Y295276D01*
X306586Y296047D01*
X306149Y296701D01*
X305496Y297137D01*
X305251Y297186D01*
Y297696D01*
X305496Y297745D01*
X306149Y298181D01*
X306586Y298835D01*
X306739Y299606D01*
X306586Y300377D01*
X306149Y301031D01*
X305496Y301468D01*
X304724Y301621D01*
D02*
G37*
G36*
X241732Y301622D02*
X240961Y301469D01*
X240307Y301032D01*
X239870Y300378D01*
X239717Y299607D01*
X239870Y298836D01*
X240307Y298182D01*
X240961Y297745D01*
X241732Y297592D01*
X242379Y297721D01*
X242575Y297688D01*
X242911Y297417D01*
X243020Y296867D01*
X243457Y296213D01*
X244111Y295776D01*
X244882Y295623D01*
X245604Y295767D01*
X245810Y295642D01*
X246049Y295440D01*
X246016Y295276D01*
X246170Y294504D01*
X246607Y293851D01*
X247260Y293414D01*
X248031Y293261D01*
X248803Y293414D01*
X249456Y293851D01*
X249893Y294504D01*
X250047Y295276D01*
X249893Y296047D01*
X249456Y296701D01*
X248803Y297137D01*
X248031Y297291D01*
X247309Y297147D01*
X247103Y297271D01*
X246864Y297474D01*
X246897Y297638D01*
X246743Y298409D01*
X246307Y299063D01*
X245653Y299500D01*
X244882Y299653D01*
X244234Y299524D01*
X244039Y299557D01*
X243703Y299829D01*
X243593Y300378D01*
X243157Y301032D01*
X242503Y301469D01*
X241732Y301622D01*
D02*
G37*
G36*
X469685Y297291D02*
X468914Y297137D01*
X468260Y296701D01*
X467823Y296047D01*
X467670Y295276D01*
X467823Y294504D01*
X468260Y293851D01*
X468914Y293414D01*
X469685Y293261D01*
X470456Y293414D01*
X471110Y293851D01*
X471547Y294504D01*
X471700Y295276D01*
X471547Y296047D01*
X471110Y296701D01*
X470456Y297137D01*
X469685Y297291D01*
D02*
G37*
G36*
X441732D02*
X440961Y297137D01*
X440307Y296701D01*
X439871Y296047D01*
X439717Y295276D01*
X439871Y294504D01*
X440307Y293851D01*
X440961Y293414D01*
X441732Y293261D01*
X442503Y293414D01*
X443157Y293851D01*
X443594Y294504D01*
X443747Y295276D01*
X443594Y296047D01*
X443157Y296701D01*
X442503Y297137D01*
X441732Y297291D01*
D02*
G37*
G36*
X235433Y313039D02*
X234662Y312885D01*
X234008Y312449D01*
X233571Y311795D01*
X233418Y311024D01*
X233571Y310252D01*
X234008Y309599D01*
X234662Y309162D01*
X235433Y309009D01*
X236081Y309137D01*
X236276Y309104D01*
X236612Y308833D01*
X236721Y308283D01*
X237158Y307630D01*
X237812Y307193D01*
X238583Y307039D01*
X239354Y307193D01*
X240008Y307630D01*
X240445Y308283D01*
X240598Y309054D01*
X240445Y309826D01*
X240008Y310479D01*
X239354Y310916D01*
X238583Y311070D01*
X237936Y310941D01*
X237740Y310974D01*
X237404Y311245D01*
X237295Y311795D01*
X236858Y312449D01*
X236204Y312885D01*
X235433Y313039D01*
D02*
G37*
G36*
X304724Y310677D02*
X303953Y310523D01*
X303299Y310086D01*
X302863Y309433D01*
X302709Y308661D01*
X302863Y307890D01*
X303299Y307237D01*
X303953Y306800D01*
X304724Y306646D01*
X305496Y306800D01*
X306149Y307237D01*
X306586Y307890D01*
X306739Y308661D01*
X306586Y309433D01*
X306149Y310086D01*
X305496Y310523D01*
X304724Y310677D01*
D02*
G37*
G36*
X128347Y317369D02*
X127575Y317216D01*
X126922Y316779D01*
X126485Y316125D01*
X126331Y315354D01*
X126485Y314583D01*
X126922Y313929D01*
X127285Y313686D01*
Y313085D01*
X126922Y312842D01*
X126485Y312189D01*
X126331Y311417D01*
X126485Y310646D01*
X126922Y309992D01*
X127575Y309556D01*
X128347Y309402D01*
X129118Y309556D01*
X129771Y309992D01*
X130208Y310646D01*
X130362Y311417D01*
X130208Y312189D01*
X129771Y312842D01*
X129408Y313085D01*
Y313686D01*
X129771Y313929D01*
X130208Y314583D01*
X130362Y315354D01*
X130208Y316125D01*
X129771Y316779D01*
X129118Y317216D01*
X128347Y317369D01*
D02*
G37*
G36*
X263780Y313039D02*
X263008Y312885D01*
X262355Y312449D01*
X261918Y311795D01*
X261765Y311024D01*
X261918Y310252D01*
X262355Y309599D01*
X263008Y309162D01*
X263780Y309009D01*
X264551Y309162D01*
X265205Y309599D01*
X265641Y310252D01*
X265795Y311024D01*
X265641Y311795D01*
X265205Y312449D01*
X264551Y312885D01*
X263780Y313039D01*
D02*
G37*
G36*
X88779Y310677D02*
X88008Y310523D01*
X87355Y310086D01*
X86918Y309433D01*
X86764Y308661D01*
X86918Y307890D01*
X87355Y307237D01*
X88008Y306800D01*
X88779Y306646D01*
X89551Y306800D01*
X90204Y307237D01*
X90641Y307890D01*
X90795Y308661D01*
X90641Y309433D01*
X90204Y310086D01*
X89551Y310523D01*
X88779Y310677D01*
D02*
G37*
G36*
X70866Y318944D02*
X70095Y318791D01*
X69441Y318354D01*
X69004Y317700D01*
X68851Y316929D01*
X69004Y316158D01*
X69441Y315504D01*
X69805Y315261D01*
Y314660D01*
X69441Y314417D01*
X69004Y313763D01*
X68851Y312992D01*
X69004Y312221D01*
X69441Y311567D01*
X69805Y311324D01*
Y310723D01*
X69441Y310480D01*
X69004Y309826D01*
X68851Y309055D01*
X69004Y308284D01*
X69441Y307630D01*
X69805Y307387D01*
Y306786D01*
X69441Y306543D01*
X69004Y305889D01*
X68851Y305118D01*
X69004Y304347D01*
X69441Y303693D01*
X70095Y303256D01*
X70866Y303103D01*
X71637Y303256D01*
X72291Y303693D01*
X72728Y304347D01*
X72881Y305118D01*
X72728Y305889D01*
X72291Y306543D01*
X71927Y306786D01*
Y307387D01*
X72291Y307630D01*
X72728Y308284D01*
X72881Y309055D01*
X72728Y309826D01*
X72291Y310480D01*
X71927Y310723D01*
Y311324D01*
X72291Y311567D01*
X72728Y312221D01*
X72881Y312992D01*
X72728Y313763D01*
X72291Y314417D01*
X71927Y314660D01*
Y315261D01*
X72291Y315504D01*
X72728Y316158D01*
X72881Y316929D01*
X72728Y317700D01*
X72291Y318354D01*
X71637Y318791D01*
X70866Y318944D01*
D02*
G37*
G36*
X55118D02*
X54347Y318791D01*
X53693Y318354D01*
X53256Y317700D01*
X53103Y316929D01*
X53256Y316158D01*
X53693Y315504D01*
X54057Y315261D01*
Y314660D01*
X53693Y314417D01*
X53256Y313763D01*
X53103Y312992D01*
X53256Y312221D01*
X53693Y311567D01*
X54057Y311324D01*
Y310723D01*
X53693Y310480D01*
X53256Y309826D01*
X53103Y309055D01*
X53256Y308284D01*
X53693Y307630D01*
X54057Y307387D01*
Y306786D01*
X53693Y306543D01*
X53256Y305889D01*
X53103Y305118D01*
X53256Y304347D01*
X53693Y303693D01*
X54347Y303256D01*
X55118Y303103D01*
X55889Y303256D01*
X56543Y303693D01*
X56980Y304347D01*
X57133Y305118D01*
X56980Y305889D01*
X56543Y306543D01*
X56179Y306786D01*
Y307387D01*
X56543Y307630D01*
X56980Y308284D01*
X57133Y309055D01*
X56980Y309826D01*
X56543Y310480D01*
X56179Y310723D01*
Y311324D01*
X56543Y311567D01*
X56980Y312221D01*
X57133Y312992D01*
X56980Y313763D01*
X56543Y314417D01*
X56179Y314660D01*
Y315261D01*
X56543Y315504D01*
X56980Y316158D01*
X57133Y316929D01*
X56980Y317700D01*
X56543Y318354D01*
X55889Y318791D01*
X55118Y318944D01*
D02*
G37*
G36*
X456693D02*
X455922Y318791D01*
X455268Y318354D01*
X454831Y317700D01*
X454678Y316929D01*
X454831Y316158D01*
X455268Y315504D01*
X455632Y315261D01*
Y314660D01*
X455268Y314417D01*
X454831Y313763D01*
X454678Y312992D01*
X454831Y312221D01*
X455268Y311567D01*
X455632Y311324D01*
Y310723D01*
X455268Y310480D01*
X454831Y309826D01*
X454678Y309055D01*
X454831Y308284D01*
X455268Y307630D01*
X455632Y307387D01*
Y306786D01*
X455268Y306543D01*
X454831Y305889D01*
X454678Y305118D01*
X454831Y304347D01*
X455268Y303693D01*
X455922Y303256D01*
X456693Y303103D01*
X457464Y303256D01*
X458118Y303693D01*
X458555Y304347D01*
X458708Y305118D01*
X458555Y305889D01*
X458118Y306543D01*
X457754Y306786D01*
Y307387D01*
X458118Y307630D01*
X458555Y308284D01*
X458708Y309055D01*
X458555Y309826D01*
X458118Y310480D01*
X457754Y310723D01*
Y311324D01*
X458118Y311567D01*
X458555Y312221D01*
X458708Y312992D01*
X458555Y313763D01*
X458118Y314417D01*
X457754Y314660D01*
Y315261D01*
X458118Y315504D01*
X458555Y316158D01*
X458708Y316929D01*
X458555Y317700D01*
X458118Y318354D01*
X457464Y318791D01*
X456693Y318944D01*
D02*
G37*
G36*
X440945D02*
X440174Y318791D01*
X439520Y318354D01*
X439083Y317700D01*
X438930Y316929D01*
X439083Y316158D01*
X439520Y315504D01*
X439884Y315261D01*
Y314660D01*
X439520Y314417D01*
X439083Y313763D01*
X438930Y312992D01*
X439083Y312221D01*
X439520Y311567D01*
X439884Y311324D01*
Y310723D01*
X439520Y310480D01*
X439083Y309826D01*
X438930Y309055D01*
X439083Y308284D01*
X439520Y307630D01*
X439884Y307387D01*
Y306786D01*
X439520Y306543D01*
X439083Y305889D01*
X438930Y305118D01*
X439083Y304347D01*
X439520Y303693D01*
X440174Y303256D01*
X440945Y303103D01*
X441716Y303256D01*
X442370Y303693D01*
X442807Y304347D01*
X442960Y305118D01*
X442807Y305889D01*
X442370Y306543D01*
X442006Y306786D01*
Y307387D01*
X442370Y307630D01*
X442807Y308284D01*
X442960Y309055D01*
X442807Y309826D01*
X442370Y310480D01*
X442006Y310723D01*
Y311324D01*
X442370Y311567D01*
X442807Y312221D01*
X442960Y312992D01*
X442807Y313763D01*
X442370Y314417D01*
X442006Y314660D01*
Y315261D01*
X442370Y315504D01*
X442807Y316158D01*
X442960Y316929D01*
X442807Y317700D01*
X442370Y318354D01*
X441716Y318791D01*
X440945Y318944D01*
D02*
G37*
G36*
X241732Y289810D02*
X240961Y289657D01*
X240307Y289220D01*
X239871Y288566D01*
X239717Y287795D01*
X239871Y287024D01*
X240307Y286370D01*
X240961Y285934D01*
X241732Y285780D01*
X242503Y285934D01*
X243157Y286370D01*
X243594Y287024D01*
X243747Y287795D01*
X243594Y288566D01*
X243157Y289220D01*
X242503Y289657D01*
X241732Y289810D01*
D02*
G37*
G36*
X478346Y289417D02*
X477575Y289263D01*
X476922Y288826D01*
X476485Y288173D01*
X476331Y287402D01*
X476485Y286630D01*
X476922Y285977D01*
X477575Y285540D01*
X478346Y285386D01*
X479118Y285540D01*
X479771Y285977D01*
X480208Y286630D01*
X480362Y287402D01*
X480208Y288173D01*
X479771Y288826D01*
X479118Y289263D01*
X478346Y289417D01*
D02*
G37*
G36*
X124803Y290003D02*
X124109Y289865D01*
X123520Y289472D01*
X123127Y288883D01*
X122989Y288189D01*
X123127Y287495D01*
X123520Y286906D01*
X124109Y286513D01*
X124803Y286375D01*
X125497Y286513D01*
X126086Y286906D01*
X126479Y287495D01*
X126618Y288189D01*
X126479Y288883D01*
X126086Y289472D01*
X125497Y289865D01*
X124803Y290003D01*
D02*
G37*
G36*
X331988Y288728D02*
X331217Y288574D01*
X330563Y288138D01*
X330127Y287484D01*
X329973Y286713D01*
X330000Y286577D01*
X329646Y286224D01*
X329429Y286267D01*
X328658Y286114D01*
X328004Y285677D01*
X327567Y285023D01*
X327414Y284252D01*
X327567Y283481D01*
X328004Y282827D01*
X328658Y282390D01*
X329429Y282237D01*
X330200Y282390D01*
X330854Y282827D01*
X331291Y283481D01*
X331444Y284252D01*
X331417Y284387D01*
X331771Y284741D01*
X331988Y284698D01*
X332759Y284851D01*
X333413Y285288D01*
X333850Y285941D01*
X334003Y286713D01*
X333850Y287484D01*
X333413Y288138D01*
X332759Y288574D01*
X331988Y288728D01*
D02*
G37*
G36*
X441732Y289417D02*
X440961Y289263D01*
X440307Y288826D01*
X439871Y288173D01*
X439717Y287402D01*
X439871Y286630D01*
X440307Y285977D01*
X440961Y285540D01*
X441732Y285386D01*
X442503Y285540D01*
X443157Y285977D01*
X443594Y286630D01*
X443747Y287402D01*
X443594Y288173D01*
X443157Y288826D01*
X442503Y289263D01*
X441732Y289417D01*
D02*
G37*
G36*
X131890Y287641D02*
X131195Y287503D01*
X130607Y287110D01*
X130213Y286521D01*
X130075Y285827D01*
X130213Y285132D01*
X130607Y284544D01*
X131195Y284151D01*
X131890Y284012D01*
X132584Y284151D01*
X133173Y284544D01*
X133566Y285132D01*
X133704Y285827D01*
X133566Y286521D01*
X133173Y287110D01*
X132584Y287503D01*
X131890Y287641D01*
D02*
G37*
G36*
X70866Y299259D02*
X70095Y299106D01*
X69441Y298669D01*
X69004Y298015D01*
X68851Y297244D01*
X69004Y296473D01*
X69441Y295819D01*
X69805Y295576D01*
Y294975D01*
X69441Y294732D01*
X69004Y294078D01*
X68851Y293307D01*
X69004Y292536D01*
X69441Y291882D01*
X69805Y291639D01*
Y291038D01*
X69441Y290795D01*
X69004Y290141D01*
X68851Y289370D01*
X69004Y288599D01*
X69441Y287945D01*
X69805Y287702D01*
Y287101D01*
X69441Y286858D01*
X69004Y286204D01*
X68851Y285433D01*
X69004Y284662D01*
X69441Y284008D01*
X70095Y283571D01*
X70866Y283418D01*
X71637Y283571D01*
X72291Y284008D01*
X72728Y284662D01*
X72881Y285433D01*
X72728Y286204D01*
X72291Y286858D01*
X71927Y287101D01*
Y287702D01*
X72291Y287945D01*
X72728Y288599D01*
X72881Y289370D01*
X72728Y290141D01*
X72291Y290795D01*
X71927Y291038D01*
Y291639D01*
X72291Y291882D01*
X72728Y292536D01*
X72881Y293307D01*
X72728Y294078D01*
X72291Y294732D01*
X71927Y294975D01*
Y295576D01*
X72291Y295819D01*
X72728Y296473D01*
X72881Y297244D01*
X72728Y298015D01*
X72291Y298669D01*
X71637Y299106D01*
X70866Y299259D01*
D02*
G37*
G36*
X337106Y288728D02*
X336335Y288574D01*
X335681Y288138D01*
X335245Y287484D01*
X335091Y286713D01*
X335245Y285941D01*
X335681Y285288D01*
X336335Y284851D01*
X337106Y284698D01*
X337877Y284851D01*
X338531Y285288D01*
X338968Y285941D01*
X339121Y286713D01*
X338968Y287484D01*
X338531Y288138D01*
X337877Y288574D01*
X337106Y288728D01*
D02*
G37*
G36*
X379921Y287641D02*
X379227Y287503D01*
X378638Y287110D01*
X378245Y286521D01*
X378107Y285827D01*
X378245Y285132D01*
X378638Y284544D01*
X379227Y284151D01*
X379921Y284012D01*
X380616Y284151D01*
X381204Y284544D01*
X381597Y285132D01*
X381736Y285827D01*
X381597Y286521D01*
X381204Y287110D01*
X380616Y287503D01*
X379921Y287641D01*
D02*
G37*
G36*
X25000Y295125D02*
X24229Y294972D01*
X23575Y294535D01*
X23138Y293881D01*
X22985Y293110D01*
X23138Y292339D01*
X23575Y291685D01*
X24229Y291248D01*
X25000Y291095D01*
X25771Y291248D01*
X26425Y291685D01*
X26862Y292339D01*
X27015Y293110D01*
X26862Y293881D01*
X26425Y294535D01*
X25771Y294972D01*
X25000Y295125D01*
D02*
G37*
G36*
X431457Y293354D02*
X430686Y293200D01*
X430032Y292763D01*
X429595Y292110D01*
X429442Y291339D01*
X429595Y290567D01*
X430032Y289914D01*
X430686Y289477D01*
X431457Y289323D01*
X432228Y289477D01*
X432882Y289914D01*
X433318Y290567D01*
X433472Y291339D01*
X433318Y292110D01*
X432882Y292763D01*
X432228Y293200D01*
X431457Y293354D01*
D02*
G37*
G36*
X185039Y302408D02*
X184268Y302255D01*
X183614Y301818D01*
X183177Y301164D01*
X183024Y300393D01*
X183177Y299622D01*
X183614Y298968D01*
X184268Y298531D01*
X185039Y298378D01*
X185175Y298405D01*
X185528Y298051D01*
X185485Y297834D01*
X185638Y297063D01*
X186075Y296410D01*
X186729Y295973D01*
X187500Y295819D01*
X187771Y295873D01*
X188196Y295448D01*
X188142Y295177D01*
X188296Y294406D01*
X188733Y293752D01*
X189386Y293316D01*
X190157Y293162D01*
X190929Y293316D01*
X191582Y293752D01*
X192019Y294406D01*
X192173Y295177D01*
X192019Y295948D01*
X191582Y296602D01*
X190929Y297039D01*
X190157Y297192D01*
X189886Y297138D01*
X189461Y297564D01*
X189515Y297834D01*
X189362Y298606D01*
X188925Y299259D01*
X188271Y299696D01*
X187500Y299850D01*
X187364Y299823D01*
X187011Y300176D01*
X187054Y300393D01*
X186901Y301164D01*
X186464Y301818D01*
X185810Y302255D01*
X185039Y302408D01*
D02*
G37*
G36*
X334645Y296896D02*
X333874Y296743D01*
X333220Y296306D01*
X332783Y295652D01*
X332630Y294881D01*
X332783Y294110D01*
X333220Y293456D01*
X333874Y293020D01*
X334645Y292866D01*
X335416Y293020D01*
X336070Y293456D01*
X336507Y294110D01*
X336660Y294881D01*
X336507Y295652D01*
X336070Y296306D01*
X335416Y296743D01*
X334645Y296896D01*
D02*
G37*
G36*
X157894Y293354D02*
X157123Y293200D01*
X156469Y292763D01*
X156032Y292110D01*
X155879Y291339D01*
X156032Y290567D01*
X156469Y289914D01*
X157123Y289477D01*
X157894Y289323D01*
X158665Y289477D01*
X159319Y289914D01*
X159756Y290567D01*
X159909Y291339D01*
X159756Y292110D01*
X159319Y292763D01*
X158665Y293200D01*
X157894Y293354D01*
D02*
G37*
G36*
X346457Y291385D02*
X345686Y291232D01*
X345032Y290795D01*
X344595Y290141D01*
X344442Y289370D01*
X344595Y288599D01*
X345032Y287945D01*
X345686Y287508D01*
X346457Y287355D01*
X347228Y287508D01*
X347882Y287945D01*
X348318Y288599D01*
X348472Y289370D01*
X348318Y290141D01*
X347882Y290795D01*
X347228Y291232D01*
X346457Y291385D01*
D02*
G37*
G36*
X387008Y290003D02*
X386314Y289865D01*
X385725Y289472D01*
X385332Y288883D01*
X385193Y288189D01*
X385332Y287495D01*
X385725Y286906D01*
X386314Y286513D01*
X387008Y286375D01*
X387702Y286513D01*
X388291Y286906D01*
X388684Y287495D01*
X388822Y288189D01*
X388684Y288883D01*
X388291Y289472D01*
X387702Y289865D01*
X387008Y290003D01*
D02*
G37*
G36*
X318307Y293157D02*
X317536Y293003D01*
X316882Y292567D01*
X316445Y291913D01*
X316292Y291142D01*
X316445Y290371D01*
X316882Y289717D01*
X317536Y289280D01*
X318307Y289127D01*
X319078Y289280D01*
X319732Y289717D01*
X320169Y290371D01*
X320322Y291142D01*
X320169Y291913D01*
X319732Y292567D01*
X319078Y293003D01*
X318307Y293157D01*
D02*
G37*
G36*
X263779Y289417D02*
X263008Y289263D01*
X262355Y288826D01*
X262112Y288463D01*
X261510D01*
X261267Y288826D01*
X260614Y289263D01*
X259842Y289417D01*
X259071Y289263D01*
X258418Y288826D01*
X257981Y288173D01*
X257827Y287402D01*
X257981Y286630D01*
X258418Y285977D01*
X259071Y285540D01*
X259842Y285386D01*
X260614Y285540D01*
X261267Y285977D01*
X261510Y286340D01*
X262112D01*
X262355Y285977D01*
X263008Y285540D01*
X263779Y285386D01*
X264551Y285540D01*
X265204Y285977D01*
X265641Y286630D01*
X265795Y287402D01*
X265641Y288173D01*
X265204Y288826D01*
X264551Y289263D01*
X263779Y289417D01*
D02*
G37*
G36*
X314961Y352409D02*
X314190Y352255D01*
X313536Y351819D01*
X313099Y351165D01*
X312946Y350394D01*
X313099Y349623D01*
X313536Y348969D01*
X314190Y348532D01*
X314961Y348379D01*
X315732Y348532D01*
X316386Y348969D01*
X316822Y349623D01*
X316976Y350394D01*
X316822Y351165D01*
X316386Y351819D01*
X315732Y352255D01*
X314961Y352409D01*
D02*
G37*
G36*
X309055D02*
X308284Y352255D01*
X307630Y351819D01*
X307193Y351165D01*
X307040Y350394D01*
X307193Y349623D01*
X307630Y348969D01*
X308284Y348532D01*
X309055Y348379D01*
X309826Y348532D01*
X310480Y348969D01*
X310917Y349623D01*
X311070Y350394D01*
X310917Y351165D01*
X310480Y351819D01*
X309826Y352255D01*
X309055Y352409D01*
D02*
G37*
G36*
X278740Y357133D02*
X277969Y356980D01*
X277315Y356543D01*
X276878Y355889D01*
X276725Y355118D01*
X276878Y354347D01*
X277315Y353693D01*
X277969Y353256D01*
X278740Y353103D01*
X279358Y353226D01*
X279687Y352818D01*
X279634Y352740D01*
X279481Y351969D01*
X279634Y351197D01*
X280071Y350544D01*
X280725Y350107D01*
X281496Y349953D01*
X282267Y350107D01*
X282921Y350544D01*
X283358Y351197D01*
X283511Y351969D01*
X283358Y352740D01*
X282921Y353393D01*
X282267Y353830D01*
X281496Y353984D01*
X280878Y353861D01*
X280550Y354269D01*
X280602Y354347D01*
X280755Y355118D01*
X280602Y355889D01*
X280165Y356543D01*
X279511Y356980D01*
X278740Y357133D01*
D02*
G37*
G36*
X218897Y360282D02*
X218126Y360129D01*
X217472Y359692D01*
X217036Y359038D01*
X216882Y358267D01*
X217036Y357496D01*
X217472Y356842D01*
X218126Y356405D01*
X218675Y356296D01*
X218947Y355961D01*
X218980Y355765D01*
X218851Y355118D01*
X218980Y354471D01*
X218947Y354276D01*
X218676Y353939D01*
X218126Y353830D01*
X217472Y353393D01*
X217036Y352739D01*
X216882Y351968D01*
X217036Y351197D01*
X217472Y350543D01*
X218126Y350106D01*
X218897Y349953D01*
X219668Y350106D01*
X220322Y350543D01*
X220759Y351197D01*
X220912Y351968D01*
X220783Y352616D01*
X220817Y352811D01*
X221088Y353147D01*
X221637Y353257D01*
X222291Y353693D01*
X222728Y354347D01*
X222881Y355118D01*
X222728Y355889D01*
X222291Y356543D01*
X221637Y356980D01*
X221088Y357089D01*
X220817Y357424D01*
X220784Y357621D01*
X220912Y358267D01*
X220759Y359038D01*
X220322Y359692D01*
X219668Y360129D01*
X218897Y360282D01*
D02*
G37*
G36*
X303150Y352409D02*
X302379Y352255D01*
X301725Y351819D01*
X301288Y351165D01*
X301134Y350394D01*
X301288Y349623D01*
X301725Y348969D01*
X302379Y348532D01*
X303150Y348379D01*
X303921Y348532D01*
X304574Y348969D01*
X305011Y349623D01*
X305165Y350394D01*
X305011Y351165D01*
X304574Y351819D01*
X303921Y352255D01*
X303150Y352409D01*
D02*
G37*
G36*
X445827Y349292D02*
X444848Y349163D01*
X443937Y348786D01*
X443154Y348185D01*
X442553Y347402D01*
X442175Y346490D01*
X442046Y345512D01*
X442175Y344533D01*
X442553Y343622D01*
X443154Y342839D01*
X443937Y342238D01*
X444848Y341860D01*
X445827Y341731D01*
X446805Y341860D01*
X447717Y342238D01*
X448500Y342839D01*
X449101Y343622D01*
X449478Y344533D01*
X449607Y345512D01*
X449478Y346490D01*
X449101Y347402D01*
X448500Y348185D01*
X447717Y348786D01*
X446805Y349163D01*
X445827Y349292D01*
D02*
G37*
G36*
X435827D02*
X434848Y349163D01*
X433937Y348786D01*
X433154Y348185D01*
X432553Y347402D01*
X432175Y346490D01*
X432046Y345512D01*
X432175Y344533D01*
X432553Y343622D01*
X433154Y342839D01*
X433937Y342238D01*
X434848Y341860D01*
X435827Y341731D01*
X436805Y341860D01*
X437717Y342238D01*
X438500Y342839D01*
X439101Y343622D01*
X439478Y344533D01*
X439607Y345512D01*
X439478Y346490D01*
X439101Y347402D01*
X438500Y348185D01*
X437717Y348786D01*
X436805Y349163D01*
X435827Y349292D01*
D02*
G37*
G36*
X410906Y349450D02*
X409927Y349321D01*
X409015Y348943D01*
X408232Y348342D01*
X407632Y347559D01*
X407254Y346648D01*
X407125Y345669D01*
X407254Y344691D01*
X407632Y343779D01*
X408232Y342996D01*
X409015Y342395D01*
X409927Y342018D01*
X410906Y341889D01*
X411884Y342018D01*
X412796Y342395D01*
X413579Y342996D01*
X414179Y343779D01*
X414557Y344691D01*
X414686Y345669D01*
X414557Y346648D01*
X414179Y347559D01*
X413579Y348342D01*
X412796Y348943D01*
X411884Y349321D01*
X410906Y349450D01*
D02*
G37*
G36*
X400906D02*
X399927Y349321D01*
X399015Y348943D01*
X398232Y348342D01*
X397632Y347559D01*
X397254Y346648D01*
X397125Y345669D01*
X397254Y344691D01*
X397632Y343779D01*
X398232Y342996D01*
X399015Y342395D01*
X399927Y342018D01*
X400906Y341889D01*
X401884Y342018D01*
X402796Y342395D01*
X403579Y342996D01*
X404179Y343779D01*
X404557Y344691D01*
X404686Y345669D01*
X404557Y346648D01*
X404179Y347559D01*
X403579Y348342D01*
X402796Y348943D01*
X401884Y349321D01*
X400906Y349450D01*
D02*
G37*
G36*
X227165Y366582D02*
X226394Y366429D01*
X225741Y365992D01*
X225304Y365338D01*
X225150Y364567D01*
X225304Y363796D01*
X225741Y363142D01*
X226394Y362705D01*
X227165Y362552D01*
X227937Y362705D01*
X228590Y363142D01*
X229027Y363796D01*
X229181Y364567D01*
X229027Y365338D01*
X228590Y365992D01*
X227937Y366429D01*
X227165Y366582D01*
D02*
G37*
G36*
X303150Y363511D02*
X302379Y363358D01*
X301725Y362921D01*
X301288Y362267D01*
X301134Y361496D01*
X301288Y360725D01*
X301725Y360071D01*
X302379Y359634D01*
X303150Y359481D01*
X303921Y359634D01*
X304574Y360071D01*
X305011Y360725D01*
X305165Y361496D01*
X305011Y362267D01*
X304574Y362921D01*
X303921Y363358D01*
X303150Y363511D01*
D02*
G37*
G36*
X257480Y383118D02*
X256709Y382964D01*
X256055Y382527D01*
X255619Y381873D01*
X255465Y381102D01*
X255498Y380939D01*
X255259Y380736D01*
X255053Y380612D01*
X254331Y380755D01*
X253560Y380602D01*
X252906Y380165D01*
X252469Y379511D01*
X252316Y378740D01*
X252469Y377969D01*
X252906Y377315D01*
X253560Y376878D01*
X254331Y376725D01*
X255102Y376878D01*
X255756Y377315D01*
X256192Y377969D01*
X256346Y378740D01*
X256313Y378904D01*
X256552Y379106D01*
X256758Y379231D01*
X257480Y379087D01*
X258252Y379241D01*
X258905Y379678D01*
X259342Y380331D01*
X259495Y381102D01*
X259342Y381873D01*
X258905Y382527D01*
X258252Y382964D01*
X257480Y383118D01*
D02*
G37*
G36*
X235433Y377211D02*
X234662Y377058D01*
X234008Y376621D01*
X233571Y375967D01*
X233418Y375196D01*
X233571Y374425D01*
X234008Y373771D01*
X234662Y373334D01*
X235433Y373181D01*
X236080Y373310D01*
X236275Y373277D01*
X236611Y373005D01*
X236720Y372456D01*
X237157Y371803D01*
X237811Y371366D01*
X238582Y371213D01*
X239229Y371341D01*
X239425Y371308D01*
X239761Y371037D01*
X239870Y370488D01*
X240307Y369834D01*
X240961Y369397D01*
X241732Y369244D01*
X242380Y369373D01*
X242574Y369340D01*
X242911Y369069D01*
X243020Y368520D01*
X243457Y367866D01*
X244111Y367430D01*
X244882Y367276D01*
X245653Y367430D01*
X246307Y367866D01*
X246744Y368520D01*
X246897Y369291D01*
X246744Y370062D01*
X246307Y370716D01*
X245653Y371153D01*
X244882Y371306D01*
X244234Y371178D01*
X244040Y371210D01*
X243703Y371482D01*
X243594Y372030D01*
X243157Y372684D01*
X242503Y373121D01*
X241732Y373274D01*
X241085Y373146D01*
X240889Y373178D01*
X240553Y373450D01*
X240444Y373999D01*
X240007Y374653D01*
X239353Y375089D01*
X238582Y375243D01*
X237935Y375114D01*
X237740Y375147D01*
X237403Y375418D01*
X237294Y375967D01*
X236858Y376621D01*
X236204Y377058D01*
X235433Y377211D01*
D02*
G37*
G36*
X445827Y359292D02*
X444848Y359163D01*
X443937Y358786D01*
X443154Y358185D01*
X442553Y357402D01*
X442175Y356490D01*
X442046Y355512D01*
X442175Y354533D01*
X442553Y353622D01*
X443154Y352839D01*
X443937Y352238D01*
X444848Y351860D01*
X445827Y351731D01*
X446805Y351860D01*
X447717Y352238D01*
X448500Y352839D01*
X449101Y353622D01*
X449478Y354533D01*
X449607Y355512D01*
X449478Y356490D01*
X449101Y357402D01*
X448500Y358185D01*
X447717Y358786D01*
X446805Y359163D01*
X445827Y359292D01*
D02*
G37*
G36*
X484252Y380564D02*
X481996Y380387D01*
X479795Y379858D01*
X477704Y378992D01*
X475775Y377810D01*
X474054Y376340D01*
X472584Y374619D01*
X471402Y372689D01*
X470535Y370599D01*
X470007Y368398D01*
X469830Y366142D01*
X470007Y363886D01*
X470535Y361685D01*
X471402Y359594D01*
X472584Y357664D01*
X474054Y355943D01*
X475775Y354474D01*
X477704Y353291D01*
X479795Y352425D01*
X481996Y351897D01*
X484252Y351719D01*
X486508Y351897D01*
X488709Y352425D01*
X490800Y353291D01*
X492729Y354474D01*
X494450Y355943D01*
X495920Y357664D01*
X497102Y359594D01*
X497968Y361685D01*
X498497Y363886D01*
X498674Y366142D01*
X498497Y368398D01*
X497968Y370599D01*
X497102Y372689D01*
X495920Y374619D01*
X494450Y376340D01*
X492729Y377810D01*
X490800Y378992D01*
X488709Y379858D01*
X486508Y380387D01*
X484252Y380564D01*
D02*
G37*
G36*
X27559D02*
X25303Y380387D01*
X23102Y379858D01*
X21011Y378992D01*
X19082Y377810D01*
X17361Y376340D01*
X15891Y374619D01*
X14709Y372689D01*
X13842Y370599D01*
X13314Y368398D01*
X13137Y366142D01*
X13314Y363886D01*
X13842Y361685D01*
X14709Y359594D01*
X15891Y357664D01*
X17361Y355943D01*
X19082Y354474D01*
X21011Y353291D01*
X23102Y352425D01*
X25303Y351897D01*
X27559Y351719D01*
X29815Y351897D01*
X32016Y352425D01*
X34107Y353291D01*
X36036Y354474D01*
X37757Y355943D01*
X39227Y357664D01*
X40409Y359594D01*
X41276Y361685D01*
X41804Y363886D01*
X41982Y366142D01*
X41804Y368398D01*
X41276Y370599D01*
X40409Y372689D01*
X39227Y374619D01*
X37757Y376340D01*
X36036Y377810D01*
X34107Y378992D01*
X32016Y379858D01*
X29815Y380387D01*
X27559Y380564D01*
D02*
G37*
G36*
X435827Y359292D02*
X434848Y359163D01*
X433937Y358786D01*
X433154Y358185D01*
X432553Y357402D01*
X432175Y356490D01*
X432046Y355512D01*
X432175Y354533D01*
X432553Y353622D01*
X433154Y352839D01*
X433937Y352238D01*
X434848Y351860D01*
X435827Y351731D01*
X436805Y351860D01*
X437717Y352238D01*
X438500Y352839D01*
X439101Y353622D01*
X439478Y354533D01*
X439607Y355512D01*
X439478Y356490D01*
X439101Y357402D01*
X438500Y358185D01*
X437717Y358786D01*
X436805Y359163D01*
X435827Y359292D01*
D02*
G37*
G36*
X425827D02*
X424848Y359163D01*
X423937Y358786D01*
X423154Y358185D01*
X422553Y357402D01*
X422175Y356490D01*
X422046Y355512D01*
X422175Y354533D01*
X422553Y353622D01*
X423154Y352839D01*
X423937Y352238D01*
X424848Y351860D01*
X425827Y351731D01*
X426805Y351860D01*
X427717Y352238D01*
X428500Y352839D01*
X429101Y353622D01*
X429478Y354533D01*
X429607Y355512D01*
X429478Y356490D01*
X429101Y357402D01*
X428500Y358185D01*
X427717Y358786D01*
X426805Y359163D01*
X425827Y359292D01*
D02*
G37*
G36*
X279528Y322487D02*
X278756Y322334D01*
X278103Y321897D01*
X277666Y321244D01*
X277513Y320472D01*
X277666Y319701D01*
X278103Y319047D01*
X278756Y318611D01*
X279528Y318457D01*
X280299Y318611D01*
X280953Y319047D01*
X281389Y319701D01*
X281543Y320472D01*
X281389Y321244D01*
X280953Y321897D01*
X280299Y322334D01*
X279528Y322487D01*
D02*
G37*
G36*
X218897Y325637D02*
X218126Y325483D01*
X217472Y325046D01*
X217036Y324393D01*
X216882Y323621D01*
X217036Y322850D01*
X217472Y322197D01*
X218126Y321760D01*
X218675Y321651D01*
X218947Y321315D01*
X218980Y321119D01*
X218851Y320472D01*
X219005Y319701D01*
X219441Y319047D01*
X220095Y318611D01*
X220866Y318457D01*
X221637Y318611D01*
X222291Y319047D01*
X222728Y319701D01*
X222881Y320472D01*
X222728Y321243D01*
X222291Y321897D01*
X221637Y322334D01*
X221088Y322443D01*
X220817Y322779D01*
X220784Y322975D01*
X220912Y323621D01*
X220759Y324393D01*
X220322Y325046D01*
X219668Y325483D01*
X218897Y325637D01*
D02*
G37*
G36*
X334252Y327350D02*
X333481Y327196D01*
X332827Y326760D01*
X332390Y326106D01*
X332237Y325335D01*
X332390Y324563D01*
X332827Y323910D01*
X333481Y323473D01*
X334252Y323320D01*
X335023Y323473D01*
X335677Y323910D01*
X336114Y324563D01*
X336267Y325335D01*
X336114Y326106D01*
X335677Y326760D01*
X335023Y327196D01*
X334252Y327350D01*
D02*
G37*
G36*
X366929Y327212D02*
X366158Y327059D01*
X365504Y326622D01*
X365067Y325968D01*
X364914Y325197D01*
X365067Y324426D01*
X365504Y323772D01*
X366158Y323335D01*
X366929Y323182D01*
X367700Y323335D01*
X368354Y323772D01*
X368791Y324426D01*
X368944Y325197D01*
X368791Y325968D01*
X368354Y326622D01*
X367700Y327059D01*
X366929Y327212D01*
D02*
G37*
G36*
X366535Y322094D02*
X365764Y321940D01*
X365110Y321504D01*
X364674Y320850D01*
X364520Y320079D01*
X364674Y319308D01*
X365110Y318654D01*
X365764Y318217D01*
X366535Y318064D01*
X367307Y318217D01*
X367960Y318654D01*
X368397Y319308D01*
X368550Y320079D01*
X368397Y320850D01*
X367960Y321504D01*
X367307Y321940D01*
X366535Y322094D01*
D02*
G37*
G36*
X40157Y318944D02*
X39386Y318791D01*
X38733Y318354D01*
X38296Y317700D01*
X38142Y316929D01*
X38296Y316158D01*
X38733Y315504D01*
X39293Y315130D01*
X39363Y314757D01*
X39348Y314565D01*
X39126Y314417D01*
X38690Y313763D01*
X38536Y312992D01*
X38690Y312221D01*
X39126Y311567D01*
X39780Y311130D01*
X40551Y310977D01*
X41322Y311130D01*
X41976Y311567D01*
X42413Y312221D01*
X42566Y312992D01*
X42413Y313763D01*
X41976Y314417D01*
X41416Y314791D01*
X41346Y315164D01*
X41361Y315356D01*
X41582Y315504D01*
X42019Y316158D01*
X42173Y316929D01*
X42019Y317700D01*
X41582Y318354D01*
X40929Y318791D01*
X40157Y318944D01*
D02*
G37*
G36*
X96260Y313629D02*
X95489Y313476D01*
X94835Y313039D01*
X94398Y312385D01*
X94245Y311614D01*
X94398Y310843D01*
X94835Y310189D01*
X95489Y309752D01*
X96260Y309599D01*
X97031Y309752D01*
X97685Y310189D01*
X98122Y310843D01*
X98275Y311614D01*
X98122Y312385D01*
X97685Y313039D01*
X97031Y313476D01*
X96260Y313629D01*
D02*
G37*
G36*
X343996Y317350D02*
X343225Y317196D01*
X342571Y316759D01*
X342134Y316106D01*
X341981Y315335D01*
X342134Y314563D01*
X342571Y313910D01*
X343225Y313473D01*
X343996Y313319D01*
X344767Y313473D01*
X345421Y313910D01*
X345858Y314563D01*
X346011Y315335D01*
X345858Y316106D01*
X345421Y316759D01*
X344767Y317196D01*
X343996Y317350D01*
D02*
G37*
G36*
X218206Y316188D02*
X217435Y316035D01*
X216781Y315598D01*
X216344Y314944D01*
X216191Y314173D01*
X216344Y313402D01*
X216781Y312748D01*
X217435Y312312D01*
X218206Y312158D01*
X218977Y312312D01*
X219631Y312748D01*
X220068Y313402D01*
X220221Y314173D01*
X220068Y314944D01*
X219631Y315598D01*
X218977Y316035D01*
X218206Y316188D01*
D02*
G37*
G36*
X139764Y348078D02*
X138993Y347925D01*
X138339Y347488D01*
X137902Y346834D01*
X137749Y346063D01*
X137902Y345292D01*
X138339Y344638D01*
X138702Y344395D01*
Y343794D01*
X138339Y343551D01*
X137902Y342897D01*
X137749Y342126D01*
X137902Y341355D01*
X138339Y340701D01*
X138993Y340264D01*
X139764Y340111D01*
X140535Y340264D01*
X141189Y340701D01*
X141625Y341355D01*
X141779Y342126D01*
X141625Y342897D01*
X141189Y343551D01*
X140825Y343794D01*
Y344395D01*
X141189Y344638D01*
X141625Y345292D01*
X141779Y346063D01*
X141625Y346834D01*
X141189Y347488D01*
X140535Y347925D01*
X139764Y348078D01*
D02*
G37*
G36*
X303150Y337370D02*
X302379Y337216D01*
X301725Y336779D01*
X301288Y336126D01*
X301134Y335354D01*
X301288Y334583D01*
X301725Y333930D01*
X302379Y333493D01*
X303150Y333339D01*
X303921Y333493D01*
X304574Y333930D01*
X305011Y334583D01*
X305165Y335354D01*
X305011Y336126D01*
X304574Y336779D01*
X303921Y337216D01*
X303150Y337370D01*
D02*
G37*
G36*
X425827Y349292D02*
X424848Y349163D01*
X423937Y348786D01*
X423154Y348185D01*
X422553Y347402D01*
X422175Y346490D01*
X422046Y345512D01*
X422175Y344533D01*
X422553Y343622D01*
X423154Y342839D01*
X423937Y342238D01*
X424848Y341860D01*
X425827Y341731D01*
X426805Y341860D01*
X427717Y342238D01*
X428500Y342839D01*
X429101Y343622D01*
X429478Y344533D01*
X429607Y345512D01*
X429478Y346490D01*
X429101Y347402D01*
X428500Y348185D01*
X427717Y348786D01*
X426805Y349163D01*
X425827Y349292D01*
D02*
G37*
G36*
X152756Y348078D02*
X151985Y347925D01*
X151331Y347488D01*
X150894Y346834D01*
X150741Y346063D01*
X150894Y345292D01*
X151331Y344638D01*
X151695Y344395D01*
Y343794D01*
X151331Y343551D01*
X150894Y342897D01*
X150741Y342126D01*
X150894Y341355D01*
X151331Y340701D01*
X151985Y340264D01*
X152756Y340111D01*
X153527Y340264D01*
X154181Y340701D01*
X154618Y341355D01*
X154771Y342126D01*
X154618Y342897D01*
X154181Y343551D01*
X153817Y343794D01*
Y344395D01*
X154181Y344638D01*
X154618Y345292D01*
X154771Y346063D01*
X154618Y346834D01*
X154181Y347488D01*
X153527Y347925D01*
X152756Y348078D01*
D02*
G37*
G36*
X343996Y332350D02*
X343225Y332196D01*
X342571Y331760D01*
X342134Y331106D01*
X341981Y330335D01*
X342134Y329563D01*
X342571Y328910D01*
X343225Y328473D01*
X343996Y328320D01*
X344767Y328473D01*
X345421Y328910D01*
X345858Y329563D01*
X346011Y330335D01*
X345858Y331106D01*
X345421Y331760D01*
X344767Y332196D01*
X343996Y332350D01*
D02*
G37*
G36*
X293701Y328787D02*
X292930Y328633D01*
X292276Y328197D01*
X291839Y327543D01*
X291686Y326772D01*
X291839Y326000D01*
X292276Y325347D01*
X292930Y324910D01*
X293701Y324757D01*
X294472Y324910D01*
X295126Y325347D01*
X295563Y326000D01*
X295716Y326772D01*
X295563Y327543D01*
X295126Y328197D01*
X294472Y328633D01*
X293701Y328787D01*
D02*
G37*
G36*
X232283D02*
X231512Y328633D01*
X230859Y328197D01*
X230422Y327543D01*
X230268Y326772D01*
X230422Y326000D01*
X230859Y325347D01*
X231512Y324910D01*
X232283Y324757D01*
X233055Y324910D01*
X233708Y325347D01*
X234145Y326000D01*
X234299Y326772D01*
X234145Y327543D01*
X233708Y328197D01*
X233055Y328633D01*
X232283Y328787D01*
D02*
G37*
G36*
X218897Y347684D02*
X218126Y347531D01*
X217472Y347094D01*
X217036Y346440D01*
X216882Y345669D01*
X217036Y344898D01*
X217472Y344244D01*
X218126Y343807D01*
X218675Y343698D01*
X218947Y343363D01*
X218980Y343166D01*
X218851Y342520D01*
X218980Y341872D01*
X218947Y341677D01*
X218676Y341340D01*
X218126Y341231D01*
X217472Y340794D01*
X217036Y340141D01*
X216882Y339369D01*
X217036Y338598D01*
X217472Y337945D01*
X218126Y337508D01*
X218645Y337404D01*
X218899Y336884D01*
X218834Y336787D01*
X218681Y336016D01*
X218777Y335532D01*
X218834Y335244D01*
X218414Y334989D01*
X218126Y334932D01*
X217472Y334495D01*
X217036Y333841D01*
X216882Y333070D01*
X217036Y332299D01*
X217472Y331645D01*
X218126Y331208D01*
X218675Y331099D01*
X218947Y330764D01*
X218980Y330568D01*
X218851Y329921D01*
X219005Y329150D01*
X219441Y328496D01*
X220095Y328059D01*
X220866Y327906D01*
X221637Y328059D01*
X222291Y328496D01*
X222728Y329150D01*
X222881Y329921D01*
X222728Y330692D01*
X222291Y331346D01*
X221637Y331783D01*
X221088Y331892D01*
X220817Y332227D01*
X220784Y332424D01*
X220912Y333070D01*
X220816Y333554D01*
X220759Y333841D01*
X221179Y334097D01*
X221467Y334154D01*
X222120Y334591D01*
X222557Y335244D01*
X222711Y336016D01*
X222557Y336787D01*
X222120Y337440D01*
X221467Y337877D01*
X220948Y337981D01*
X220694Y338501D01*
X220759Y338598D01*
X220912Y339369D01*
X220783Y340017D01*
X220817Y340212D01*
X221088Y340549D01*
X221637Y340658D01*
X222291Y341095D01*
X222728Y341748D01*
X222881Y342520D01*
X222728Y343291D01*
X222291Y343945D01*
X221637Y344381D01*
X221088Y344491D01*
X220817Y344826D01*
X220784Y345022D01*
X220912Y345669D01*
X220759Y346440D01*
X220322Y347094D01*
X219668Y347531D01*
X218897Y347684D01*
D02*
G37*
G36*
X212598Y329181D02*
X211827Y329028D01*
X211173Y328591D01*
X210736Y327937D01*
X210583Y327166D01*
X210736Y326395D01*
X211173Y325741D01*
X211827Y325304D01*
X212598Y325151D01*
X213369Y325304D01*
X214023Y325741D01*
X214459Y326395D01*
X214613Y327166D01*
X214459Y327937D01*
X214023Y328591D01*
X213369Y329028D01*
X212598Y329181D01*
D02*
G37*
G36*
X405512Y257527D02*
X404741Y257373D01*
X404087Y256937D01*
X403650Y256283D01*
X403497Y255512D01*
X403650Y254741D01*
X404087Y254087D01*
X404741Y253650D01*
X405512Y253497D01*
X406283Y253650D01*
X406937Y254087D01*
X407374Y254741D01*
X407527Y255512D01*
X407374Y256283D01*
X406937Y256937D01*
X406283Y257373D01*
X405512Y257527D01*
D02*
G37*
G36*
X330709D02*
X329938Y257373D01*
X329284Y256937D01*
X328847Y256283D01*
X328694Y255512D01*
X328847Y254741D01*
X329284Y254087D01*
X329938Y253650D01*
X330709Y253497D01*
X331480Y253650D01*
X332134Y254087D01*
X332570Y254741D01*
X332724Y255512D01*
X332570Y256283D01*
X332134Y256937D01*
X331480Y257373D01*
X330709Y257527D01*
D02*
G37*
G36*
X287402Y257326D02*
X286707Y257188D01*
X286119Y256795D01*
X285725Y256206D01*
X285587Y255512D01*
X285725Y254818D01*
X286119Y254229D01*
X286707Y253836D01*
X287402Y253697D01*
X288096Y253836D01*
X288685Y254229D01*
X289078Y254818D01*
X289216Y255512D01*
X289078Y256206D01*
X288685Y256795D01*
X288096Y257188D01*
X287402Y257326D01*
D02*
G37*
G36*
X224410D02*
X223715Y257188D01*
X223127Y256795D01*
X222733Y256206D01*
X222595Y255512D01*
X222733Y254818D01*
X223127Y254229D01*
X223715Y253836D01*
X224410Y253697D01*
X225104Y253836D01*
X225692Y254229D01*
X226086Y254818D01*
X226224Y255512D01*
X226086Y256206D01*
X225692Y256795D01*
X225104Y257188D01*
X224410Y257326D01*
D02*
G37*
G36*
X163386Y257527D02*
X162615Y257373D01*
X161961Y256937D01*
X161524Y256283D01*
X161371Y255512D01*
X161524Y254741D01*
X161961Y254087D01*
X162615Y253650D01*
X163386Y253497D01*
X164157Y253650D01*
X164811Y254087D01*
X165247Y254741D01*
X165401Y255512D01*
X165247Y256283D01*
X164811Y256937D01*
X164157Y257373D01*
X163386Y257527D01*
D02*
G37*
G36*
X343307Y253783D02*
X342613Y253645D01*
X342024Y253252D01*
X341983Y253189D01*
X341482D01*
X341441Y253252D01*
X340852Y253645D01*
X340158Y253783D01*
X339463Y253645D01*
X338875Y253252D01*
X338833Y253189D01*
X338403D01*
X338279Y253260D01*
X337702Y253645D01*
X337008Y253783D01*
X336314Y253645D01*
X335725Y253252D01*
X335683Y253189D01*
X335183D01*
X335141Y253252D01*
X334553Y253645D01*
X333858Y253783D01*
X333164Y253645D01*
X332575Y253252D01*
X332182Y252663D01*
X332044Y251969D01*
X332182Y251274D01*
X332575Y250686D01*
X333164Y250292D01*
X333858Y250154D01*
X334553Y250292D01*
X335129Y250677D01*
X335253Y250748D01*
X335613D01*
X335737Y250677D01*
X336314Y250292D01*
X337008Y250154D01*
X337702Y250292D01*
X338291Y250686D01*
X338333Y250748D01*
X338763D01*
X338887Y250677D01*
X339463Y250292D01*
X340158Y250154D01*
X340852Y250292D01*
X341441Y250686D01*
X341482Y250748D01*
X341983D01*
X342024Y250686D01*
X342613Y250292D01*
X343307Y250154D01*
X344002Y250292D01*
X344590Y250686D01*
X344984Y251274D01*
X345122Y251969D01*
X344984Y252663D01*
X344590Y253252D01*
X344002Y253645D01*
X343307Y253783D01*
D02*
G37*
G36*
X418111Y253783D02*
X417416Y253645D01*
X416840Y253260D01*
X416716Y253189D01*
X416356D01*
X416232Y253260D01*
X415655Y253645D01*
X414961Y253783D01*
X414266Y253645D01*
X413678Y253251D01*
X413636Y253189D01*
X413136D01*
X413094Y253252D01*
X412506Y253645D01*
X411811Y253783D01*
X411117Y253645D01*
X410540Y253260D01*
X410416Y253189D01*
X410056D01*
X409932Y253260D01*
X409356Y253645D01*
X408662Y253783D01*
X407967Y253645D01*
X407379Y253252D01*
X406985Y252663D01*
X406847Y251969D01*
X406985Y251274D01*
X407379Y250686D01*
X407967Y250292D01*
X408662Y250154D01*
X409356Y250292D01*
X409932Y250677D01*
X410056Y250748D01*
X410416D01*
X410540Y250677D01*
X411117Y250292D01*
X411811Y250154D01*
X412506Y250292D01*
X413094Y250686D01*
X413136Y250748D01*
X413566D01*
X413690Y250677D01*
X414266Y250292D01*
X414961Y250154D01*
X415655Y250292D01*
X416232Y250677D01*
X416356Y250748D01*
X416786D01*
X416827Y250686D01*
X417416Y250292D01*
X418111Y250154D01*
X418805Y250292D01*
X419393Y250686D01*
X419787Y251274D01*
X419925Y251969D01*
X419787Y252663D01*
X419393Y253252D01*
X418805Y253645D01*
X418111Y253783D01*
D02*
G37*
G36*
X90551Y257527D02*
X89780Y257373D01*
X89126Y256937D01*
X88690Y256283D01*
X88536Y255512D01*
X88690Y254741D01*
X89126Y254087D01*
X89780Y253650D01*
X90551Y253497D01*
X91322Y253650D01*
X91976Y254087D01*
X92413Y254741D01*
X92566Y255512D01*
X92413Y256283D01*
X91976Y256937D01*
X91322Y257373D01*
X90551Y257527D01*
D02*
G37*
G36*
X177953Y253783D02*
X177259Y253645D01*
X176682Y253260D01*
X176558Y253189D01*
X176198D01*
X176074Y253260D01*
X175497Y253645D01*
X174803Y253783D01*
X174109Y253645D01*
X173520Y253252D01*
X173478Y253189D01*
X172978D01*
X172937Y253252D01*
X172348Y253645D01*
X171654Y253783D01*
X170959Y253645D01*
X170383Y253260D01*
X170259Y253189D01*
X169899D01*
X169775Y253260D01*
X169198Y253645D01*
X168504Y253783D01*
X167810Y253645D01*
X167221Y253252D01*
X166828Y252663D01*
X166690Y251969D01*
X166828Y251274D01*
X167221Y250686D01*
X167810Y250292D01*
X168504Y250154D01*
X169198Y250292D01*
X169775Y250677D01*
X169899Y250748D01*
X170259D01*
X170383Y250677D01*
X170959Y250292D01*
X171654Y250154D01*
X172348Y250292D01*
X172924Y250677D01*
X173048Y250748D01*
X173408D01*
X173532Y250677D01*
X174109Y250292D01*
X174803Y250154D01*
X175497Y250292D01*
X176074Y250677D01*
X176198Y250748D01*
X176558D01*
X176682Y250677D01*
X177259Y250292D01*
X177953Y250154D01*
X178647Y250292D01*
X179236Y250686D01*
X179629Y251274D01*
X179767Y251969D01*
X179629Y252663D01*
X179236Y253252D01*
X178647Y253645D01*
X177953Y253783D01*
D02*
G37*
G36*
X337106Y265499D02*
X336335Y265346D01*
X335681Y264909D01*
X335245Y264255D01*
X335091Y263484D01*
X335245Y262713D01*
X335681Y262059D01*
X336335Y261623D01*
X337106Y261469D01*
X337877Y261623D01*
X338531Y262059D01*
X338968Y262713D01*
X339121Y263484D01*
X338968Y264255D01*
X338531Y264909D01*
X337877Y265346D01*
X337106Y265499D01*
D02*
G37*
G36*
X294488Y264610D02*
X293794Y264472D01*
X293205Y264078D01*
X292812Y263490D01*
X292674Y262795D01*
X292812Y262101D01*
X293205Y261512D01*
X293794Y261119D01*
X294488Y260981D01*
X295182Y261119D01*
X295771Y261512D01*
X296164Y262101D01*
X296303Y262795D01*
X296164Y263490D01*
X295771Y264078D01*
X295182Y264472D01*
X294488Y264610D01*
D02*
G37*
G36*
X177264Y265499D02*
X176493Y265346D01*
X175839Y264909D01*
X175402Y264255D01*
X175249Y263484D01*
X175402Y262713D01*
X175839Y262059D01*
X176493Y261623D01*
X177264Y261469D01*
X178035Y261623D01*
X178689Y262059D01*
X179125Y262713D01*
X179279Y263484D01*
X179125Y264255D01*
X178689Y264909D01*
X178035Y265346D01*
X177264Y265499D01*
D02*
G37*
G36*
X172146D02*
X171374Y265346D01*
X170721Y264909D01*
X170284Y264255D01*
X170131Y263484D01*
X170284Y262713D01*
X170721Y262059D01*
X171374Y261623D01*
X172146Y261469D01*
X172917Y261623D01*
X173571Y262059D01*
X174007Y262713D01*
X174161Y263484D01*
X174007Y264255D01*
X173571Y264909D01*
X172917Y265346D01*
X172146Y265499D01*
D02*
G37*
G36*
X217323Y264610D02*
X216629Y264472D01*
X216040Y264078D01*
X215647Y263490D01*
X215508Y262795D01*
X215647Y262101D01*
X216040Y261512D01*
X216629Y261119D01*
X217323Y260981D01*
X218017Y261119D01*
X218606Y261512D01*
X218999Y262101D01*
X219137Y262795D01*
X218999Y263490D01*
X218606Y264078D01*
X218017Y264472D01*
X217323Y264610D01*
D02*
G37*
G36*
X294488Y259688D02*
X293794Y259550D01*
X293205Y259157D01*
X292812Y258569D01*
X292674Y257874D01*
X292812Y257180D01*
X293205Y256591D01*
X293794Y256198D01*
X294488Y256060D01*
X295182Y256198D01*
X295771Y256591D01*
X296164Y257180D01*
X296303Y257874D01*
X296164Y258569D01*
X295771Y259157D01*
X295182Y259550D01*
X294488Y259688D01*
D02*
G37*
G36*
X217323D02*
X216629Y259550D01*
X216040Y259157D01*
X215647Y258569D01*
X215508Y257874D01*
X215647Y257180D01*
X216040Y256591D01*
X216629Y256198D01*
X217323Y256060D01*
X218017Y256198D01*
X218606Y256591D01*
X218999Y257180D01*
X219137Y257874D01*
X218999Y258569D01*
X218606Y259157D01*
X218017Y259550D01*
X217323Y259688D01*
D02*
G37*
G36*
X287402Y262051D02*
X286707Y261912D01*
X286119Y261519D01*
X285725Y260931D01*
X285587Y260236D01*
X285725Y259542D01*
X286119Y258953D01*
X286707Y258560D01*
X287402Y258422D01*
X288096Y258560D01*
X288685Y258953D01*
X289078Y259542D01*
X289216Y260236D01*
X289078Y260931D01*
X288685Y261519D01*
X288096Y261912D01*
X287402Y262051D01*
D02*
G37*
G36*
X224410D02*
X223715Y261912D01*
X223127Y261519D01*
X222733Y260931D01*
X222595Y260236D01*
X222733Y259542D01*
X223127Y258953D01*
X223715Y258560D01*
X224410Y258422D01*
X225104Y258560D01*
X225692Y258953D01*
X226086Y259542D01*
X226224Y260236D01*
X226086Y260931D01*
X225692Y261519D01*
X225104Y261912D01*
X224410Y262051D01*
D02*
G37*
G36*
X330709Y245122D02*
X330014Y244983D01*
X329426Y244590D01*
X329032Y244001D01*
X328894Y243307D01*
X329032Y242613D01*
X329426Y242024D01*
X330014Y241631D01*
X330709Y241493D01*
X331403Y241631D01*
X331992Y242024D01*
X332385Y242613D01*
X332523Y243307D01*
X332385Y244001D01*
X331992Y244590D01*
X331403Y244983D01*
X330709Y245122D01*
D02*
G37*
G36*
X177953D02*
X177258Y244983D01*
X176670Y244590D01*
X176277Y244001D01*
X176138Y243307D01*
X176277Y242613D01*
X176670Y242024D01*
X177258Y241631D01*
X177953Y241493D01*
X178647Y241631D01*
X179236Y242024D01*
X179629Y242613D01*
X179767Y243307D01*
X179629Y244001D01*
X179236Y244590D01*
X178647Y244983D01*
X177953Y245122D01*
D02*
G37*
G36*
X343307D02*
X342613Y244983D01*
X342024Y244590D01*
X341631Y244001D01*
X341493Y243307D01*
X341631Y242613D01*
X342024Y242024D01*
X342613Y241631D01*
X343307Y241493D01*
X344001Y241631D01*
X344590Y242024D01*
X344983Y242613D01*
X345122Y243307D01*
X344983Y244001D01*
X344590Y244590D01*
X344001Y244983D01*
X343307Y245122D01*
D02*
G37*
G36*
X337008D02*
X336314Y244983D01*
X335725Y244590D01*
X335332Y244001D01*
X335193Y243307D01*
X335332Y242613D01*
X335725Y242024D01*
X336314Y241631D01*
X337008Y241493D01*
X337702Y241631D01*
X338291Y242024D01*
X338684Y242613D01*
X338822Y243307D01*
X338684Y244001D01*
X338291Y244590D01*
X337702Y244983D01*
X337008Y245122D01*
D02*
G37*
G36*
X171653D02*
X170959Y244983D01*
X170371Y244590D01*
X169977Y244001D01*
X169839Y243307D01*
X169977Y242613D01*
X170371Y242024D01*
X170959Y241631D01*
X171653Y241493D01*
X172348Y241631D01*
X172936Y242024D01*
X173330Y242613D01*
X173468Y243307D01*
X173330Y244001D01*
X172936Y244590D01*
X172348Y244983D01*
X171653Y245122D01*
D02*
G37*
G36*
X96850D02*
X96156Y244983D01*
X95567Y244590D01*
X95174Y244001D01*
X95036Y243307D01*
X95174Y242613D01*
X95567Y242024D01*
X96156Y241631D01*
X96850Y241493D01*
X97545Y241631D01*
X98133Y242024D01*
X98527Y242613D01*
X98665Y243307D01*
X98527Y244001D01*
X98133Y244590D01*
X97545Y244983D01*
X96850Y245122D01*
D02*
G37*
G36*
X90551D02*
X89857Y244983D01*
X89268Y244590D01*
X88875Y244001D01*
X88737Y243307D01*
X88875Y242613D01*
X89268Y242024D01*
X89857Y241631D01*
X90551Y241493D01*
X91246Y241631D01*
X91834Y242024D01*
X92228Y242613D01*
X92366Y243307D01*
X92228Y244001D01*
X91834Y244590D01*
X91246Y244983D01*
X90551Y245122D01*
D02*
G37*
G36*
X165354D02*
X164660Y244983D01*
X164071Y244590D01*
X163678Y244001D01*
X163540Y243307D01*
X163678Y242613D01*
X164071Y242024D01*
X164660Y241631D01*
X165354Y241493D01*
X166049Y241631D01*
X166637Y242024D01*
X167031Y242613D01*
X167169Y243307D01*
X167031Y244001D01*
X166637Y244590D01*
X166049Y244983D01*
X165354Y245122D01*
D02*
G37*
G36*
X103150D02*
X102455Y244983D01*
X101867Y244590D01*
X101473Y244001D01*
X101335Y243307D01*
X101473Y242613D01*
X101867Y242024D01*
X102455Y241631D01*
X103150Y241493D01*
X103844Y241631D01*
X104433Y242024D01*
X104826Y242613D01*
X104964Y243307D01*
X104826Y244001D01*
X104433Y244590D01*
X103844Y244983D01*
X103150Y245122D01*
D02*
G37*
G36*
X217323Y254964D02*
X216629Y254826D01*
X216040Y254433D01*
X215647Y253844D01*
X215508Y253150D01*
X215647Y252455D01*
X216040Y251867D01*
X216629Y251473D01*
X217323Y251335D01*
X218017Y251473D01*
X218606Y251867D01*
X218999Y252455D01*
X219137Y253150D01*
X218999Y253844D01*
X218606Y254433D01*
X218017Y254826D01*
X217323Y254964D01*
D02*
G37*
G36*
X287402Y252602D02*
X286707Y252464D01*
X286119Y252070D01*
X285725Y251482D01*
X285587Y250787D01*
X285725Y250093D01*
X286119Y249504D01*
X286707Y249111D01*
X287402Y248973D01*
X288096Y249111D01*
X288685Y249504D01*
X289078Y250093D01*
X289216Y250787D01*
X289078Y251482D01*
X288685Y252070D01*
X288096Y252464D01*
X287402Y252602D01*
D02*
G37*
G36*
X103150Y253783D02*
X102455Y253645D01*
X101879Y253260D01*
X101755Y253189D01*
X101395D01*
X101271Y253260D01*
X100694Y253645D01*
X100000Y253783D01*
X99306Y253645D01*
X98717Y253251D01*
X98675Y253189D01*
X98175D01*
X98133Y253252D01*
X97545Y253645D01*
X96850Y253783D01*
X96156Y253645D01*
X95580Y253260D01*
X95455Y253189D01*
X95096D01*
X94972Y253260D01*
X94395Y253645D01*
X93701Y253783D01*
X93006Y253645D01*
X92418Y253252D01*
X92024Y252663D01*
X91886Y251969D01*
X92024Y251274D01*
X92418Y250686D01*
X93006Y250292D01*
X93701Y250154D01*
X94395Y250292D01*
X94972Y250677D01*
X95096Y250748D01*
X95455D01*
X95580Y250677D01*
X96156Y250292D01*
X96850Y250154D01*
X97545Y250292D01*
X98133Y250686D01*
X98175Y250748D01*
X98675D01*
X98717Y250686D01*
X99306Y250292D01*
X100000Y250154D01*
X100694Y250292D01*
X101271Y250677D01*
X101395Y250748D01*
X101755D01*
X101879Y250677D01*
X102455Y250292D01*
X103150Y250154D01*
X103844Y250292D01*
X104433Y250686D01*
X104826Y251274D01*
X104964Y251969D01*
X104826Y252663D01*
X104433Y253252D01*
X103844Y253645D01*
X103150Y253783D01*
D02*
G37*
G36*
X294488Y254964D02*
X293794Y254826D01*
X293205Y254433D01*
X292812Y253844D01*
X292674Y253150D01*
X292812Y252455D01*
X293205Y251867D01*
X293794Y251473D01*
X294488Y251335D01*
X295182Y251473D01*
X295771Y251867D01*
X296164Y252455D01*
X296303Y253150D01*
X296164Y253844D01*
X295771Y254433D01*
X295182Y254826D01*
X294488Y254964D01*
D02*
G37*
G36*
X224410Y252602D02*
X223715Y252464D01*
X223127Y252070D01*
X222733Y251482D01*
X222595Y250787D01*
X222733Y250093D01*
X223127Y249504D01*
X223715Y249111D01*
X224410Y248973D01*
X225104Y249111D01*
X225692Y249504D01*
X226086Y250093D01*
X226224Y250787D01*
X226086Y251482D01*
X225692Y252070D01*
X225104Y252464D01*
X224410Y252602D01*
D02*
G37*
G36*
X411811Y245122D02*
X411117Y244983D01*
X410528Y244590D01*
X410135Y244001D01*
X409997Y243307D01*
X410135Y242613D01*
X410528Y242024D01*
X411117Y241631D01*
X411811Y241493D01*
X412505Y241631D01*
X413094Y242024D01*
X413487Y242613D01*
X413625Y243307D01*
X413487Y244001D01*
X413094Y244590D01*
X412505Y244983D01*
X411811Y245122D01*
D02*
G37*
G36*
X405512D02*
X404817Y244983D01*
X404229Y244590D01*
X403835Y244001D01*
X403697Y243307D01*
X403835Y242613D01*
X404229Y242024D01*
X404817Y241631D01*
X405512Y241493D01*
X406206Y241631D01*
X406795Y242024D01*
X407188Y242613D01*
X407326Y243307D01*
X407188Y244001D01*
X406795Y244590D01*
X406206Y244983D01*
X405512Y245122D01*
D02*
G37*
G36*
X352756D02*
X352062Y244983D01*
X351473Y244590D01*
X351431Y244528D01*
X350931D01*
X350889Y244590D01*
X350301Y244983D01*
X349606Y245122D01*
X348912Y244983D01*
X348323Y244590D01*
X347930Y244001D01*
X347792Y243307D01*
X347930Y242613D01*
X348323Y242024D01*
X348912Y241631D01*
X349606Y241493D01*
X350301Y241631D01*
X350889Y242024D01*
X350931Y242087D01*
X351431D01*
X351473Y242024D01*
X352062Y241631D01*
X352756Y241493D01*
X353450Y241631D01*
X354039Y242024D01*
X354432Y242613D01*
X354570Y243307D01*
X354432Y244001D01*
X354039Y244590D01*
X353450Y244983D01*
X352756Y245122D01*
D02*
G37*
G36*
X418110D02*
X417416Y244983D01*
X416827Y244590D01*
X416434Y244001D01*
X416296Y243307D01*
X416434Y242613D01*
X416827Y242024D01*
X417416Y241631D01*
X418110Y241493D01*
X418805Y241631D01*
X419393Y242024D01*
X419787Y242613D01*
X419925Y243307D01*
X419787Y244001D01*
X419393Y244590D01*
X418805Y244983D01*
X418110Y245122D01*
D02*
G37*
G36*
X379921Y278192D02*
X379227Y278054D01*
X378638Y277661D01*
X378245Y277072D01*
X378107Y276378D01*
X378245Y275684D01*
X378638Y275095D01*
X379227Y274702D01*
X379921Y274564D01*
X380616Y274702D01*
X381204Y275095D01*
X381597Y275684D01*
X381736Y276378D01*
X381597Y277072D01*
X381204Y277661D01*
X380616Y278054D01*
X379921Y278192D01*
D02*
G37*
G36*
X131890Y278192D02*
X131195Y278054D01*
X130607Y277661D01*
X130213Y277072D01*
X130075Y276378D01*
X130213Y275684D01*
X130607Y275095D01*
X131195Y274702D01*
X131890Y274564D01*
X132584Y274702D01*
X133173Y275095D01*
X133566Y275684D01*
X133704Y276378D01*
X133566Y277072D01*
X133173Y277661D01*
X132584Y278054D01*
X131890Y278192D01*
D02*
G37*
G36*
X124803Y280555D02*
X124109Y280416D01*
X123520Y280023D01*
X123127Y279434D01*
X122989Y278740D01*
X123127Y278046D01*
X123520Y277457D01*
X124109Y277064D01*
X124803Y276926D01*
X125497Y277064D01*
X126086Y277457D01*
X126479Y278046D01*
X126618Y278740D01*
X126479Y279434D01*
X126086Y280023D01*
X125497Y280416D01*
X124803Y280555D01*
D02*
G37*
G36*
X263779Y277606D02*
X263008Y277452D01*
X262355Y277015D01*
X262112Y276652D01*
X261510D01*
X261267Y277015D01*
X260614Y277452D01*
X259842Y277606D01*
X259071Y277452D01*
X258418Y277015D01*
X257981Y276362D01*
X257827Y275590D01*
X257981Y274819D01*
X258418Y274166D01*
X259071Y273729D01*
X259842Y273575D01*
X260614Y273729D01*
X261267Y274166D01*
X261510Y274529D01*
X262112D01*
X262355Y274166D01*
X263008Y273729D01*
X263779Y273575D01*
X264551Y273729D01*
X265204Y274166D01*
X265641Y274819D01*
X265795Y275590D01*
X265641Y276362D01*
X265204Y277015D01*
X264551Y277452D01*
X263779Y277606D01*
D02*
G37*
G36*
X315748Y286267D02*
X314977Y286114D01*
X314323Y285677D01*
X313886Y285023D01*
X313733Y284252D01*
X313886Y283481D01*
X314323Y282827D01*
X314687Y282584D01*
Y281983D01*
X314323Y281740D01*
X313886Y281086D01*
X313733Y280315D01*
X313886Y279544D01*
X314323Y278890D01*
X314687Y278647D01*
Y278046D01*
X314323Y277803D01*
X313886Y277149D01*
X313733Y276378D01*
X313886Y275607D01*
X314323Y274953D01*
X314977Y274516D01*
X315748Y274363D01*
X316519Y274516D01*
X317173Y274953D01*
X317610Y275607D01*
X317763Y276378D01*
X317610Y277149D01*
X317173Y277803D01*
X316809Y278046D01*
Y278647D01*
X317173Y278890D01*
X317610Y279544D01*
X317763Y280315D01*
X317610Y281086D01*
X317173Y281740D01*
X316809Y281983D01*
Y282584D01*
X317173Y282827D01*
X317610Y283481D01*
X317763Y284252D01*
X317610Y285023D01*
X317173Y285677D01*
X316519Y286114D01*
X315748Y286267D01*
D02*
G37*
G36*
X283465Y277212D02*
X282693Y277059D01*
X282040Y276622D01*
X281603Y275968D01*
X281450Y275197D01*
X281603Y274426D01*
X282040Y273772D01*
X282693Y273335D01*
X283465Y273182D01*
X284236Y273335D01*
X284890Y273772D01*
X285326Y274426D01*
X285480Y275197D01*
X285326Y275968D01*
X284890Y276622D01*
X284236Y277059D01*
X283465Y277212D01*
D02*
G37*
G36*
X478346Y276818D02*
X477575Y276665D01*
X476922Y276228D01*
X476485Y275574D01*
X476331Y274803D01*
X476485Y274032D01*
X476922Y273378D01*
X477575Y272941D01*
X478346Y272788D01*
X479118Y272941D01*
X479771Y273378D01*
X480208Y274032D01*
X480362Y274803D01*
X480208Y275574D01*
X479771Y276228D01*
X479118Y276665D01*
X478346Y276818D01*
D02*
G37*
G36*
X182382D02*
X181611Y276665D01*
X180957Y276228D01*
X180520Y275574D01*
X180367Y274803D01*
X180394Y274668D01*
X180040Y274314D01*
X179823Y274358D01*
X179052Y274204D01*
X178398Y273767D01*
X177961Y273114D01*
X177808Y272342D01*
X177961Y271571D01*
X178398Y270918D01*
X179052Y270481D01*
X179823Y270327D01*
X180594Y270481D01*
X181248Y270918D01*
X181685Y271571D01*
X181838Y272342D01*
X181811Y272478D01*
X182165Y272831D01*
X182382Y272788D01*
X183153Y272941D01*
X183807Y273378D01*
X184244Y274032D01*
X184397Y274803D01*
X184244Y275574D01*
X183807Y276228D01*
X183153Y276665D01*
X182382Y276818D01*
D02*
G37*
G36*
X221595Y277606D02*
X220823Y277452D01*
X220170Y277015D01*
X219733Y276362D01*
X219579Y275590D01*
X219733Y274819D01*
X220170Y274166D01*
X220823Y273729D01*
X221595Y273575D01*
X222366Y273729D01*
X223019Y274166D01*
X223456Y274819D01*
X223610Y275590D01*
X223456Y276362D01*
X223019Y277015D01*
X222366Y277452D01*
X221595Y277606D01*
D02*
G37*
G36*
X124803Y285279D02*
X124109Y285141D01*
X123520Y284748D01*
X123127Y284159D01*
X122989Y283465D01*
X123127Y282770D01*
X123520Y282182D01*
X124109Y281788D01*
X124803Y281650D01*
X125497Y281788D01*
X126086Y282182D01*
X126479Y282770D01*
X126618Y283465D01*
X126479Y284159D01*
X126086Y284748D01*
X125497Y285141D01*
X124803Y285279D01*
D02*
G37*
G36*
X86024Y285677D02*
X85252Y285523D01*
X84599Y285086D01*
X84162Y284433D01*
X84009Y283661D01*
X84162Y282890D01*
X84599Y282237D01*
X85252Y281800D01*
X86024Y281646D01*
X86795Y281800D01*
X87449Y282237D01*
X87885Y282890D01*
X88039Y283661D01*
X87885Y284433D01*
X87449Y285086D01*
X86795Y285523D01*
X86024Y285677D01*
D02*
G37*
G36*
X55118Y287448D02*
X54347Y287295D01*
X53693Y286858D01*
X53256Y286204D01*
X53103Y285433D01*
X53256Y284662D01*
X53693Y284008D01*
X54347Y283571D01*
X55118Y283418D01*
X55889Y283571D01*
X56543Y284008D01*
X56980Y284662D01*
X57133Y285433D01*
X56980Y286204D01*
X56543Y286858D01*
X55889Y287295D01*
X55118Y287448D01*
D02*
G37*
G36*
X387008Y285279D02*
X386314Y285141D01*
X385725Y284748D01*
X385332Y284159D01*
X385193Y283465D01*
X385332Y282770D01*
X385725Y282182D01*
X386314Y281788D01*
X387008Y281650D01*
X387702Y281788D01*
X388291Y282182D01*
X388684Y282770D01*
X388822Y283465D01*
X388684Y284159D01*
X388291Y284748D01*
X387702Y285141D01*
X387008Y285279D01*
D02*
G37*
G36*
X37605Y285492D02*
X36834Y285339D01*
X36180Y284902D01*
X35744Y284248D01*
X35590Y283477D01*
X35744Y282706D01*
X36180Y282052D01*
X36834Y281615D01*
X37605Y281462D01*
X38377Y281615D01*
X39030Y282052D01*
X39467Y282706D01*
X39621Y283477D01*
X39467Y284248D01*
X39030Y284902D01*
X38377Y285339D01*
X37605Y285492D01*
D02*
G37*
G36*
X131889Y282916D02*
X131195Y282778D01*
X130606Y282385D01*
X130213Y281796D01*
X130075Y281102D01*
X130213Y280408D01*
X130606Y279819D01*
X131195Y279426D01*
X131889Y279287D01*
X132584Y279426D01*
X133172Y279819D01*
X133566Y280408D01*
X133704Y281102D01*
X133566Y281796D01*
X133172Y282385D01*
X132584Y282778D01*
X131889Y282916D01*
D02*
G37*
G36*
X387008Y280555D02*
X386314Y280416D01*
X385725Y280023D01*
X385332Y279434D01*
X385193Y278740D01*
X385332Y278046D01*
X385725Y277457D01*
X386314Y277064D01*
X387008Y276926D01*
X387702Y277064D01*
X388291Y277457D01*
X388684Y278046D01*
X388822Y278740D01*
X388684Y279434D01*
X388291Y280023D01*
X387702Y280416D01*
X387008Y280555D01*
D02*
G37*
G36*
X177264Y288728D02*
X176493Y288574D01*
X175839Y288138D01*
X175402Y287484D01*
X175249Y286713D01*
X175402Y285941D01*
X175839Y285288D01*
X176493Y284851D01*
X177264Y284698D01*
X177481Y284741D01*
X177835Y284387D01*
X177808Y284252D01*
X177961Y283481D01*
X178398Y282827D01*
X179052Y282390D01*
X179823Y282237D01*
X180020Y282276D01*
X180302Y281994D01*
X180377Y281837D01*
X180520Y281119D01*
X180957Y280465D01*
X181611Y280028D01*
X182382Y279875D01*
X183153Y280028D01*
X183807Y280465D01*
X184244Y281119D01*
X184397Y281890D01*
X184244Y282661D01*
X183807Y283315D01*
X183153Y283752D01*
X182382Y283905D01*
X182185Y283866D01*
X181903Y284148D01*
X181827Y284304D01*
X181685Y285023D01*
X181248Y285677D01*
X180594Y286114D01*
X179823Y286267D01*
X179605Y286224D01*
X179252Y286577D01*
X179279Y286713D01*
X179125Y287484D01*
X178689Y288138D01*
X178035Y288574D01*
X177264Y288728D01*
D02*
G37*
G36*
X379922Y282916D02*
X379227Y282778D01*
X378639Y282385D01*
X378245Y281796D01*
X378107Y281102D01*
X378245Y280408D01*
X378639Y279819D01*
X379227Y279426D01*
X379922Y279287D01*
X380616Y279426D01*
X381205Y279819D01*
X381598Y280408D01*
X381736Y281102D01*
X381598Y281796D01*
X381205Y282385D01*
X380616Y282778D01*
X379922Y282916D01*
D02*
G37*
G36*
X354271Y269732D02*
X353500Y269578D01*
X352847Y269141D01*
X352410Y268488D01*
X352256Y267717D01*
X352410Y266945D01*
X352847Y266292D01*
X353500Y265855D01*
X354271Y265701D01*
X355043Y265855D01*
X355696Y266292D01*
X356133Y266945D01*
X356287Y267717D01*
X356133Y268488D01*
X355696Y269141D01*
X355043Y269578D01*
X354271Y269732D01*
D02*
G37*
G36*
X49606Y269338D02*
X48835Y269184D01*
X48181Y268748D01*
X47745Y268094D01*
X47591Y267323D01*
X47745Y266552D01*
X48181Y265898D01*
X48835Y265461D01*
X49606Y265308D01*
X50377Y265461D01*
X51031Y265898D01*
X51468Y266552D01*
X51621Y267323D01*
X51468Y268094D01*
X51031Y268748D01*
X50377Y269184D01*
X49606Y269338D01*
D02*
G37*
G36*
X217323Y269531D02*
X216629Y269393D01*
X216040Y269000D01*
X215647Y268411D01*
X215508Y267717D01*
X215647Y267022D01*
X216040Y266434D01*
X216629Y266040D01*
X217323Y265902D01*
X218017Y266040D01*
X218606Y266434D01*
X218999Y267022D01*
X219137Y267717D01*
X218999Y268411D01*
X218606Y269000D01*
X218017Y269393D01*
X217323Y269531D01*
D02*
G37*
G36*
X193504Y269929D02*
X192733Y269775D01*
X192079Y269338D01*
X191642Y268685D01*
X191489Y267913D01*
X191642Y267142D01*
X192079Y266489D01*
X192733Y266052D01*
X193504Y265898D01*
X194275Y266052D01*
X194929Y266489D01*
X195366Y267142D01*
X195519Y267913D01*
X195366Y268685D01*
X194929Y269338D01*
X194275Y269775D01*
X193504Y269929D01*
D02*
G37*
G36*
X31496Y269338D02*
X30725Y269184D01*
X30071Y268748D01*
X29634Y268094D01*
X29481Y267323D01*
X29634Y266552D01*
X30071Y265898D01*
X30725Y265461D01*
X31496Y265308D01*
X32267Y265461D01*
X32921Y265898D01*
X33358Y266552D01*
X33511Y267323D01*
X33358Y268094D01*
X32921Y268748D01*
X32267Y269184D01*
X31496Y269338D01*
D02*
G37*
G36*
X287402Y267169D02*
X286707Y267031D01*
X286119Y266637D01*
X285725Y266049D01*
X285587Y265354D01*
X285725Y264660D01*
X286119Y264071D01*
X286707Y263678D01*
X287402Y263540D01*
X288096Y263678D01*
X288685Y264071D01*
X289078Y264660D01*
X289216Y265354D01*
X289078Y266049D01*
X288685Y266637D01*
X288096Y267031D01*
X287402Y267169D01*
D02*
G37*
G36*
X224410D02*
X223715Y267031D01*
X223127Y266637D01*
X222733Y266049D01*
X222595Y265354D01*
X222733Y264660D01*
X223127Y264071D01*
X223715Y263678D01*
X224410Y263540D01*
X225104Y263678D01*
X225692Y264071D01*
X226086Y264660D01*
X226224Y265354D01*
X226086Y266049D01*
X225692Y266637D01*
X225104Y267031D01*
X224410Y267169D01*
D02*
G37*
G36*
X371260Y295322D02*
X370489Y295169D01*
X369835Y294732D01*
X369398Y294078D01*
X369245Y293307D01*
X369398Y292536D01*
X369835Y291882D01*
X370198Y291639D01*
Y291038D01*
X369835Y290795D01*
X369398Y290141D01*
X369245Y289370D01*
X369398Y288599D01*
X369835Y287945D01*
X370198Y287702D01*
Y287101D01*
X369835Y286858D01*
X369398Y286204D01*
X369245Y285433D01*
X369398Y284662D01*
X369835Y284008D01*
X370198Y283765D01*
Y283164D01*
X369835Y282921D01*
X369398Y282267D01*
X369245Y281496D01*
X369398Y280725D01*
X369835Y280071D01*
X370198Y279828D01*
Y279227D01*
X369835Y278984D01*
X369398Y278330D01*
X369245Y277559D01*
X369398Y276788D01*
X369835Y276134D01*
X370198Y275891D01*
Y275290D01*
X369835Y275047D01*
X369398Y274393D01*
X369245Y273622D01*
X369398Y272851D01*
X369835Y272197D01*
X370198Y271954D01*
Y271353D01*
X369835Y271110D01*
X369398Y270456D01*
X369245Y269685D01*
X369398Y268914D01*
X369835Y268260D01*
X370198Y268017D01*
Y267416D01*
X369835Y267173D01*
X369398Y266519D01*
X369245Y265748D01*
X369398Y264977D01*
X369835Y264323D01*
X370489Y263886D01*
X371260Y263733D01*
X372031Y263886D01*
X372685Y264323D01*
X373122Y264977D01*
X373275Y265748D01*
X373122Y266519D01*
X372685Y267173D01*
X372321Y267416D01*
Y268017D01*
X372685Y268260D01*
X373122Y268914D01*
X373275Y269685D01*
X373122Y270456D01*
X372685Y271110D01*
X372321Y271353D01*
Y271954D01*
X372685Y272197D01*
X373122Y272851D01*
X373275Y273622D01*
X373122Y274393D01*
X372685Y275047D01*
X372321Y275290D01*
Y275891D01*
X372685Y276134D01*
X373122Y276788D01*
X373275Y277559D01*
X373122Y278330D01*
X372685Y278984D01*
X372321Y279227D01*
Y279828D01*
X372685Y280071D01*
X373122Y280725D01*
X373275Y281496D01*
X373122Y282267D01*
X372685Y282921D01*
X372321Y283164D01*
Y283765D01*
X372685Y284008D01*
X373122Y284662D01*
X373275Y285433D01*
X373122Y286204D01*
X372685Y286858D01*
X372321Y287101D01*
Y287702D01*
X372685Y287945D01*
X373122Y288599D01*
X373275Y289370D01*
X373122Y290141D01*
X372685Y290795D01*
X372321Y291038D01*
Y291639D01*
X372685Y291882D01*
X373122Y292536D01*
X373275Y293307D01*
X373122Y294078D01*
X372685Y294732D01*
X372031Y295169D01*
X371260Y295322D01*
D02*
G37*
G36*
X140551D02*
X139780Y295169D01*
X139126Y294732D01*
X138689Y294078D01*
X138536Y293307D01*
X138689Y292536D01*
X139126Y291882D01*
X139490Y291639D01*
Y291038D01*
X139126Y290795D01*
X138689Y290141D01*
X138536Y289370D01*
X138689Y288599D01*
X139126Y287945D01*
X139490Y287702D01*
Y287101D01*
X139126Y286858D01*
X138689Y286204D01*
X138536Y285433D01*
X138689Y284662D01*
X139126Y284008D01*
X139490Y283765D01*
Y283164D01*
X139126Y282921D01*
X138689Y282267D01*
X138536Y281496D01*
X138689Y280725D01*
X139126Y280071D01*
X139490Y279828D01*
Y279227D01*
X139126Y278984D01*
X138689Y278330D01*
X138536Y277559D01*
X138689Y276788D01*
X139126Y276134D01*
X139490Y275891D01*
Y275290D01*
X139126Y275047D01*
X138689Y274393D01*
X138536Y273622D01*
X138689Y272851D01*
X139126Y272197D01*
X139490Y271954D01*
Y271353D01*
X139126Y271110D01*
X138689Y270456D01*
X138536Y269685D01*
X138689Y268914D01*
X139126Y268260D01*
X139490Y268017D01*
Y267416D01*
X139126Y267173D01*
X138689Y266519D01*
X138536Y265748D01*
X138689Y264977D01*
X139126Y264323D01*
X139780Y263886D01*
X140551Y263733D01*
X141322Y263886D01*
X141976Y264323D01*
X142413Y264977D01*
X142566Y265748D01*
X142413Y266519D01*
X141976Y267173D01*
X141613Y267416D01*
Y268017D01*
X141976Y268260D01*
X142413Y268914D01*
X142566Y269685D01*
X142413Y270456D01*
X141976Y271110D01*
X141613Y271353D01*
Y271954D01*
X141976Y272197D01*
X142413Y272851D01*
X142566Y273622D01*
X142413Y274393D01*
X141976Y275047D01*
X141613Y275290D01*
Y275891D01*
X141976Y276134D01*
X142413Y276788D01*
X142566Y277559D01*
X142413Y278330D01*
X141976Y278984D01*
X141613Y279227D01*
Y279828D01*
X141976Y280071D01*
X142413Y280725D01*
X142566Y281496D01*
X142413Y282267D01*
X141976Y282921D01*
X141613Y283164D01*
Y283765D01*
X141976Y284008D01*
X142413Y284662D01*
X142566Y285433D01*
X142413Y286204D01*
X141976Y286858D01*
X141613Y287101D01*
Y287702D01*
X141976Y287945D01*
X142413Y288599D01*
X142566Y289370D01*
X142413Y290141D01*
X141976Y290795D01*
X141613Y291038D01*
Y291639D01*
X141976Y291882D01*
X142413Y292536D01*
X142566Y293307D01*
X142413Y294078D01*
X141976Y294732D01*
X141322Y295169D01*
X140551Y295322D01*
D02*
G37*
G36*
X124803Y275830D02*
X124109Y275692D01*
X123520Y275299D01*
X123127Y274710D01*
X122989Y274016D01*
X123127Y273321D01*
X123520Y272733D01*
X124109Y272340D01*
X124803Y272201D01*
X125497Y272340D01*
X126086Y272733D01*
X126479Y273321D01*
X126618Y274016D01*
X126479Y274710D01*
X126086Y275299D01*
X125497Y275692D01*
X124803Y275830D01*
D02*
G37*
G36*
X174705Y274358D02*
X173934Y274204D01*
X173280Y273767D01*
X172843Y273114D01*
X172690Y272342D01*
X172843Y271571D01*
X173280Y270918D01*
X173934Y270481D01*
X174705Y270327D01*
X175476Y270481D01*
X176130Y270918D01*
X176566Y271571D01*
X176720Y272342D01*
X176566Y273114D01*
X176130Y273767D01*
X175476Y274204D01*
X174705Y274358D01*
D02*
G37*
G36*
X469685Y276818D02*
X468914Y276665D01*
X468260Y276228D01*
X467823Y275574D01*
X467670Y274803D01*
X467823Y274032D01*
X468260Y273378D01*
X468914Y272941D01*
X469685Y272788D01*
X470456Y272941D01*
X471110Y273378D01*
X471547Y274032D01*
X471700Y274803D01*
X471547Y275574D01*
X471110Y276228D01*
X470456Y276665D01*
X469685Y276818D01*
D02*
G37*
G36*
X387008Y275830D02*
X386314Y275692D01*
X385725Y275299D01*
X385332Y274710D01*
X385193Y274016D01*
X385332Y273321D01*
X385725Y272733D01*
X386314Y272340D01*
X387008Y272201D01*
X387702Y272340D01*
X388291Y272733D01*
X388684Y273321D01*
X388822Y274016D01*
X388684Y274710D01*
X388291Y275299D01*
X387702Y275692D01*
X387008Y275830D01*
D02*
G37*
G36*
X329429Y279181D02*
X328658Y279027D01*
X328004Y278590D01*
X327567Y277937D01*
X327414Y277165D01*
X327567Y276394D01*
X328004Y275741D01*
X328658Y275304D01*
X329429Y275150D01*
X329626Y275189D01*
X329908Y274907D01*
X329983Y274751D01*
X330127Y274032D01*
X330563Y273378D01*
X331217Y272941D01*
X331988Y272788D01*
X332206Y272831D01*
X332559Y272478D01*
X332532Y272342D01*
X332685Y271571D01*
X333122Y270918D01*
X333776Y270481D01*
X334547Y270327D01*
X335318Y270481D01*
X335972Y270918D01*
X336409Y271571D01*
X336562Y272342D01*
X336409Y273114D01*
X335972Y273767D01*
X335318Y274204D01*
X334547Y274358D01*
X334330Y274314D01*
X333976Y274668D01*
X334003Y274803D01*
X333850Y275574D01*
X333413Y276228D01*
X332759Y276665D01*
X331988Y276818D01*
X331791Y276779D01*
X331509Y277061D01*
X331434Y277218D01*
X331291Y277937D01*
X330854Y278590D01*
X330200Y279027D01*
X329429Y279181D01*
D02*
G37*
G36*
X283465Y272487D02*
X282693Y272334D01*
X282040Y271897D01*
X281603Y271244D01*
X281450Y270472D01*
X281603Y269701D01*
X282040Y269048D01*
X282693Y268611D01*
X283465Y268457D01*
X284236Y268611D01*
X284890Y269048D01*
X285326Y269701D01*
X285480Y270472D01*
X285326Y271244D01*
X284890Y271897D01*
X284236Y272334D01*
X283465Y272487D01*
D02*
G37*
G36*
X294488Y269531D02*
X293794Y269393D01*
X293205Y269000D01*
X292812Y268411D01*
X292674Y267717D01*
X292812Y267022D01*
X293205Y266434D01*
X293794Y266040D01*
X294488Y265902D01*
X295182Y266040D01*
X295771Y266434D01*
X296164Y267022D01*
X296303Y267717D01*
X296164Y268411D01*
X295771Y269000D01*
X295182Y269393D01*
X294488Y269531D01*
D02*
G37*
G36*
X379921Y273468D02*
X379227Y273330D01*
X378638Y272937D01*
X378245Y272348D01*
X378107Y271654D01*
X378245Y270959D01*
X378638Y270371D01*
X379227Y269977D01*
X379921Y269839D01*
X380616Y269977D01*
X381204Y270371D01*
X381597Y270959D01*
X381736Y271654D01*
X381597Y272348D01*
X381204Y272937D01*
X380616Y273330D01*
X379921Y273468D01*
D02*
G37*
G36*
X131890Y273468D02*
X131195Y273330D01*
X130607Y272937D01*
X130213Y272348D01*
X130075Y271654D01*
X130213Y270959D01*
X130607Y270371D01*
X131195Y269977D01*
X131890Y269839D01*
X132584Y269977D01*
X133173Y270371D01*
X133566Y270959D01*
X133704Y271654D01*
X133566Y272348D01*
X133173Y272937D01*
X132584Y273330D01*
X131890Y273468D01*
D02*
G37*
%LPD*%
D48*
X427165Y186516D02*
Y190059D01*
Y186516D02*
X434162Y179520D01*
X417323Y186122D02*
Y189331D01*
X408268Y184547D02*
Y189725D01*
Y184547D02*
X427461Y165354D01*
X398819Y183760D02*
Y190059D01*
Y183760D02*
X425099Y157480D01*
X434162Y179520D02*
X465362D01*
X483071Y161811D01*
Y87008D02*
Y161811D01*
X462205Y172441D02*
X475591Y159055D01*
X431004Y172441D02*
X462205D01*
X417323Y186122D02*
X431004Y172441D01*
X427461Y165354D02*
X459055D01*
X468504Y155905D01*
X426378Y30315D02*
X483071Y87008D01*
X475591Y90158D02*
Y159055D01*
X382677Y30315D02*
X426378D01*
X398425Y38189D02*
X423622D01*
X475591Y90158D01*
X468504Y93701D02*
Y155905D01*
X422047Y47244D02*
X468504Y93701D01*
X425099Y157480D02*
X457480D01*
X461417Y153543D01*
Y97244D02*
Y153543D01*
X433071Y68898D02*
X461417Y97244D01*
X78347Y68898D02*
X104331D01*
X50000Y97244D02*
X78347Y68898D01*
X50000Y97244D02*
Y153543D01*
X53937Y157480D01*
X86319D01*
X89370Y47244D02*
X98425D01*
X42913Y93701D02*
X89370Y47244D01*
X42913Y93701D02*
Y155905D01*
X35827Y90158D02*
X87795Y38189D01*
X112992D01*
X85039Y30315D02*
X128740D01*
X112992Y38189D02*
X122047Y47244D01*
X35827Y90158D02*
Y159055D01*
X28346Y87008D02*
X85039Y30315D01*
X128740D02*
X145669Y47244D01*
X42913Y155905D02*
X52362Y165354D01*
X83957D01*
X80413Y172441D02*
X94095Y186122D01*
X49213Y172441D02*
X80413D01*
X35827Y159055D02*
X49213Y172441D01*
X28346Y87008D02*
Y161811D01*
X46055Y179520D01*
X77256D01*
X86319Y157480D02*
X112598Y183760D01*
Y190059D01*
X83957Y165354D02*
X103150Y184547D01*
Y189725D01*
X94095Y186122D02*
Y189331D01*
X77256Y179520D02*
X84252Y186516D01*
Y190059D01*
X389370Y47244D02*
X398425Y38189D01*
X407087Y68898D02*
X433071D01*
X412992Y47244D02*
X422047D01*
X365748D02*
X382677Y30315D01*
D49*
X93701Y190059D02*
Y193996D01*
Y196063D01*
X417717Y190059D02*
Y193996D01*
Y196063D01*
X398819Y190059D02*
Y193996D01*
Y196063D01*
X112598Y193996D02*
Y196063D01*
Y190059D02*
Y193996D01*
X408268Y190059D02*
Y193996D01*
Y196063D01*
X84252Y190059D02*
Y193996D01*
Y196063D01*
X427165Y190059D02*
Y193996D01*
Y196063D01*
X103150Y193996D02*
Y196063D01*
Y190059D02*
Y193996D01*
D54*
X410906Y345669D02*
D03*
X400906D02*
D03*
X445827Y355512D02*
D03*
X425827D02*
D03*
X435827D02*
D03*
Y345512D02*
D03*
X425827D02*
D03*
X445827D02*
D03*
D55*
X221457Y21654D02*
D03*
X69882D02*
D03*
X441929D02*
D03*
X290354D02*
D03*
D56*
X145669Y47244D02*
D03*
X133858D02*
D03*
X157480D02*
D03*
X122047D02*
D03*
X169291D02*
D03*
X181102D02*
D03*
X110236D02*
D03*
X192913D02*
D03*
X98425D02*
D03*
X139764Y57087D02*
D03*
X151575D02*
D03*
X163386D02*
D03*
X175197D02*
D03*
X187008D02*
D03*
X127953D02*
D03*
X116142D02*
D03*
X104331D02*
D03*
Y68898D02*
D03*
X116142D02*
D03*
X127953D02*
D03*
X187008D02*
D03*
X175197D02*
D03*
X163386D02*
D03*
X151575D02*
D03*
X139764D02*
D03*
X98425Y78740D02*
D03*
X192913D02*
D03*
X110236D02*
D03*
X181102D02*
D03*
X169291D02*
D03*
X122047D02*
D03*
X157480D02*
D03*
X133858D02*
D03*
X145669D02*
D03*
X366142Y47244D02*
D03*
X354331D02*
D03*
X377953D02*
D03*
X342520D02*
D03*
X389764D02*
D03*
X401575D02*
D03*
X330709D02*
D03*
X413386D02*
D03*
X318898D02*
D03*
X360236Y57087D02*
D03*
X372047D02*
D03*
X383858D02*
D03*
X395669D02*
D03*
X407480D02*
D03*
X348425D02*
D03*
X336614D02*
D03*
X324803D02*
D03*
Y68898D02*
D03*
X336614D02*
D03*
X348425D02*
D03*
X407480D02*
D03*
X395669D02*
D03*
X383858D02*
D03*
X372047D02*
D03*
X360236D02*
D03*
X318898Y78740D02*
D03*
X413386D02*
D03*
X330709D02*
D03*
X401575D02*
D03*
X389764D02*
D03*
X342520D02*
D03*
X377953D02*
D03*
X354331D02*
D03*
X366142D02*
D03*
D57*
X27559Y27559D02*
D03*
Y366142D02*
D03*
X484252D02*
D03*
Y27559D02*
D03*
X27559Y196850D02*
D03*
X484252D02*
D03*
D58*
X470374Y46457D02*
D03*
X229528Y61024D02*
D03*
X450001Y231890D02*
D03*
X445670D02*
D03*
X441339D02*
D03*
X437008D02*
D03*
X432678D02*
D03*
X428347D02*
D03*
X424016D02*
D03*
X419685D02*
D03*
X415355D02*
D03*
X411024D02*
D03*
X406693D02*
D03*
X402362D02*
D03*
X398031D02*
D03*
X393701D02*
D03*
X389370D02*
D03*
X385039D02*
D03*
X380708D02*
D03*
X375591Y231890D02*
D03*
X370867D02*
D03*
X366536D02*
D03*
X362205D02*
D03*
X357874D02*
D03*
X353543D02*
D03*
X349213D02*
D03*
X344882D02*
D03*
X340551D02*
D03*
X336221D02*
D03*
X331890D02*
D03*
X327559D02*
D03*
X323228D02*
D03*
X318898D02*
D03*
X314567D02*
D03*
X310236D02*
D03*
X305905D02*
D03*
X301574D02*
D03*
X332677Y129921D02*
D03*
X309055D02*
D03*
X332677Y125197D02*
D03*
X309055D02*
D03*
X432678Y222835D02*
D03*
X428347D02*
D03*
X398031D02*
D03*
X393701D02*
D03*
X357874Y222835D02*
D03*
X353543D02*
D03*
X323228D02*
D03*
X318898D02*
D03*
X450001Y227559D02*
D03*
X399606Y106299D02*
D03*
Y101575D02*
D03*
Y111024D02*
D03*
X404331Y101575D02*
D03*
X65748Y227559D02*
D03*
X61417Y231890D02*
D03*
X65748D02*
D03*
Y236614D02*
D03*
X61417Y227559D02*
D03*
Y236614D02*
D03*
Y240945D02*
D03*
X113386Y222835D02*
D03*
X117717D02*
D03*
X202756Y125197D02*
D03*
X282283Y61024D02*
D03*
X255906Y28740D02*
D03*
X281102Y80709D02*
D03*
X230709Y80709D02*
D03*
X202756Y101575D02*
D03*
X198031D02*
D03*
X193307D02*
D03*
X188583D02*
D03*
X183858D02*
D03*
X179134D02*
D03*
X83071Y227559D02*
D03*
Y222835D02*
D03*
Y218110D02*
D03*
Y213386D02*
D03*
X78740D02*
D03*
Y218110D02*
D03*
Y222835D02*
D03*
Y227559D02*
D03*
X117717D02*
D03*
Y218110D02*
D03*
Y213386D02*
D03*
X113386D02*
D03*
Y218110D02*
D03*
Y227559D02*
D03*
X87402Y231890D02*
D03*
X91732D02*
D03*
X100394D02*
D03*
X96063D02*
D03*
X109055D02*
D03*
X104725D02*
D03*
X117717D02*
D03*
X113386D02*
D03*
X78740D02*
D03*
X83071D02*
D03*
Y209055D02*
D03*
X78740D02*
D03*
X113386D02*
D03*
X117717D02*
D03*
X104725D02*
D03*
X109055D02*
D03*
X96063D02*
D03*
X100394D02*
D03*
X91732D02*
D03*
X87402D02*
D03*
X74409Y231890D02*
D03*
X70078D02*
D03*
Y227559D02*
D03*
X74409D02*
D03*
X122048Y231890D02*
D03*
X126378D02*
D03*
Y227559D02*
D03*
X122048D02*
D03*
X74409Y236614D02*
D03*
X70078D02*
D03*
Y240945D02*
D03*
X74409D02*
D03*
X122048Y236614D02*
D03*
X126378D02*
D03*
Y240945D02*
D03*
X122048D02*
D03*
X65748D02*
D03*
X130709D02*
D03*
Y236614D02*
D03*
Y227559D02*
D03*
Y231890D02*
D03*
X205512Y231890D02*
D03*
X209843D02*
D03*
Y227559D02*
D03*
X205512D02*
D03*
Y236614D02*
D03*
X209843D02*
D03*
Y240945D02*
D03*
X205512D02*
D03*
X140551Y231890D02*
D03*
Y227559D02*
D03*
Y236614D02*
D03*
Y240945D02*
D03*
X196851D02*
D03*
X201182D02*
D03*
Y236614D02*
D03*
X196851D02*
D03*
X149212Y240945D02*
D03*
X144881D02*
D03*
Y236614D02*
D03*
X149212D02*
D03*
X196851Y227559D02*
D03*
X201182D02*
D03*
Y231890D02*
D03*
X196851D02*
D03*
X149212Y227559D02*
D03*
X144881D02*
D03*
Y231890D02*
D03*
X149212D02*
D03*
X162205Y209055D02*
D03*
X166535D02*
D03*
X175197D02*
D03*
X170866D02*
D03*
X183859D02*
D03*
X179528D02*
D03*
X192520D02*
D03*
X188189D02*
D03*
X153543D02*
D03*
X157874D02*
D03*
Y231890D02*
D03*
X153543D02*
D03*
X188189D02*
D03*
X192520D02*
D03*
X179528D02*
D03*
X183859D02*
D03*
X170866D02*
D03*
X175197D02*
D03*
X166535D02*
D03*
X162205D02*
D03*
X188189Y227559D02*
D03*
Y222835D02*
D03*
Y218110D02*
D03*
Y213386D02*
D03*
X192520D02*
D03*
Y218110D02*
D03*
Y222835D02*
D03*
Y227559D02*
D03*
X153543D02*
D03*
Y222835D02*
D03*
Y218110D02*
D03*
Y213386D02*
D03*
X157874D02*
D03*
Y218110D02*
D03*
Y222835D02*
D03*
Y227559D02*
D03*
X135433Y240945D02*
D03*
Y236614D02*
D03*
Y227559D02*
D03*
Y231890D02*
D03*
X375591Y227559D02*
D03*
Y236614D02*
D03*
Y240945D02*
D03*
X398031Y227559D02*
D03*
Y218110D02*
D03*
Y213386D02*
D03*
X393701D02*
D03*
Y218110D02*
D03*
Y227559D02*
D03*
X432678D02*
D03*
Y218110D02*
D03*
Y213386D02*
D03*
X428347D02*
D03*
Y218110D02*
D03*
Y227559D02*
D03*
X398031Y209055D02*
D03*
X393701D02*
D03*
X428347D02*
D03*
X432678D02*
D03*
X419685D02*
D03*
X424016D02*
D03*
X411024D02*
D03*
X415355D02*
D03*
X406693D02*
D03*
X402362D02*
D03*
X385039Y227559D02*
D03*
X389370D02*
D03*
X441339D02*
D03*
X437008D02*
D03*
X389370Y236614D02*
D03*
X385039D02*
D03*
Y240945D02*
D03*
X389370D02*
D03*
X437008Y236614D02*
D03*
X441339D02*
D03*
Y240945D02*
D03*
X437008D02*
D03*
X380708D02*
D03*
Y236614D02*
D03*
Y227559D02*
D03*
X445670Y240945D02*
D03*
X450001D02*
D03*
Y236614D02*
D03*
X445670D02*
D03*
Y227559D02*
D03*
X370867Y227559D02*
D03*
Y236614D02*
D03*
Y240945D02*
D03*
X301574Y227559D02*
D03*
X305905D02*
D03*
Y236614D02*
D03*
X301574D02*
D03*
Y240945D02*
D03*
X305905D02*
D03*
X362205D02*
D03*
X366536D02*
D03*
Y236614D02*
D03*
X362205D02*
D03*
X314567Y240945D02*
D03*
X310236D02*
D03*
Y236614D02*
D03*
X314567D02*
D03*
X362205Y227559D02*
D03*
X366536D02*
D03*
X314567D02*
D03*
X310236D02*
D03*
X327559Y209055D02*
D03*
X331890D02*
D03*
X340551D02*
D03*
X336221D02*
D03*
X349213D02*
D03*
X344882D02*
D03*
X357874D02*
D03*
X353543D02*
D03*
X318898D02*
D03*
X323228D02*
D03*
X353543Y227559D02*
D03*
Y218110D02*
D03*
Y213386D02*
D03*
X357874D02*
D03*
Y218110D02*
D03*
Y227559D02*
D03*
X318898D02*
D03*
Y218110D02*
D03*
Y213386D02*
D03*
X323228D02*
D03*
Y218110D02*
D03*
Y227559D02*
D03*
X88583Y129921D02*
D03*
Y125197D02*
D03*
Y115748D02*
D03*
Y120472D02*
D03*
Y106299D02*
D03*
Y111024D02*
D03*
X112205D02*
D03*
Y106299D02*
D03*
Y120472D02*
D03*
Y115748D02*
D03*
Y125197D02*
D03*
Y129921D02*
D03*
X88583Y134646D02*
D03*
X93307D02*
D03*
X102756D02*
D03*
X98032D02*
D03*
X112205D02*
D03*
X107480D02*
D03*
Y139370D02*
D03*
X112205D02*
D03*
X98032D02*
D03*
X102756D02*
D03*
X93307D02*
D03*
X88583D02*
D03*
X107480Y101575D02*
D03*
X112205D02*
D03*
X98032D02*
D03*
X102756D02*
D03*
X93307D02*
D03*
X88583D02*
D03*
X116929Y139370D02*
D03*
X121653D02*
D03*
X83858D02*
D03*
X207480D02*
D03*
X174409D02*
D03*
X202756D02*
D03*
X198031D02*
D03*
X188583D02*
D03*
X193307D02*
D03*
X179134D02*
D03*
X183858D02*
D03*
Y134646D02*
D03*
X179134D02*
D03*
X193307D02*
D03*
X188583D02*
D03*
X198031D02*
D03*
X202756D02*
D03*
X179134Y129921D02*
D03*
Y125197D02*
D03*
Y115748D02*
D03*
Y120472D02*
D03*
Y106299D02*
D03*
Y111024D02*
D03*
X202756D02*
D03*
Y106299D02*
D03*
Y120472D02*
D03*
Y115748D02*
D03*
Y129921D02*
D03*
X309055Y115748D02*
D03*
Y120472D02*
D03*
Y106299D02*
D03*
Y111024D02*
D03*
X332677D02*
D03*
Y106299D02*
D03*
Y120472D02*
D03*
Y115748D02*
D03*
X309055Y134646D02*
D03*
X313779D02*
D03*
X323228D02*
D03*
X318504D02*
D03*
X332677D02*
D03*
X327953D02*
D03*
Y139370D02*
D03*
X332677D02*
D03*
X318504D02*
D03*
X323228D02*
D03*
X313779D02*
D03*
X309055D02*
D03*
X337402D02*
D03*
X304331D02*
D03*
X427953D02*
D03*
X394882D02*
D03*
X423228D02*
D03*
X418504D02*
D03*
X409055D02*
D03*
X413780D02*
D03*
X399606D02*
D03*
X404331D02*
D03*
Y134646D02*
D03*
X399606D02*
D03*
X413780D02*
D03*
X409055D02*
D03*
X418504D02*
D03*
X423228D02*
D03*
X399606Y129921D02*
D03*
Y125197D02*
D03*
Y115748D02*
D03*
Y120472D02*
D03*
X423228Y111024D02*
D03*
Y106299D02*
D03*
Y120472D02*
D03*
Y115748D02*
D03*
Y125197D02*
D03*
Y129921D02*
D03*
X432677Y139370D02*
D03*
X309055Y101575D02*
D03*
X313779D02*
D03*
X323228D02*
D03*
X318504D02*
D03*
X332677D02*
D03*
X327953D02*
D03*
X423228D02*
D03*
X418504D02*
D03*
X409055D02*
D03*
X413780D02*
D03*
D59*
X259252Y186811D02*
D03*
X264370Y188780D02*
D03*
X271063Y186811D02*
D03*
X276181Y188780D02*
D03*
X282874Y186811D02*
D03*
X287992Y188780D02*
D03*
X294685Y186811D02*
D03*
X299803Y188780D02*
D03*
X247441Y186811D02*
D03*
X252559Y188780D02*
D03*
X235630Y186811D02*
D03*
X240748Y188780D02*
D03*
X223819Y186811D02*
D03*
X228937Y188780D02*
D03*
X217126D02*
D03*
X212008Y186811D02*
D03*
X255906Y150394D02*
D03*
X462598Y42520D02*
D03*
Y50394D02*
D03*
X429528Y192028D02*
D03*
X401181D02*
D03*
X398819Y193996D02*
D03*
X401181Y195965D02*
D03*
X427165Y190059D02*
D03*
X398819D02*
D03*
X429528Y195965D02*
D03*
X427165Y193996D02*
D03*
X396457Y192028D02*
D03*
Y195965D02*
D03*
X424803Y192028D02*
D03*
X415354D02*
D03*
X417717Y193996D02*
D03*
X424803Y195965D02*
D03*
X417717Y190059D02*
D03*
X415354Y195965D02*
D03*
X405906D02*
D03*
Y192028D02*
D03*
X408268Y190059D02*
D03*
X420079Y192028D02*
D03*
X410630D02*
D03*
Y195965D02*
D03*
X408268Y193996D02*
D03*
X420079Y195965D02*
D03*
X91338Y195965D02*
D03*
X103150Y193996D02*
D03*
X100787Y195965D02*
D03*
Y192028D02*
D03*
X91338D02*
D03*
X103150Y190059D02*
D03*
X105512Y192028D02*
D03*
Y195965D02*
D03*
X96063D02*
D03*
X93701Y190059D02*
D03*
X86614Y195965D02*
D03*
X93701Y193996D02*
D03*
X96063Y192028D02*
D03*
X86614D02*
D03*
X114961Y195965D02*
D03*
Y192028D02*
D03*
X84252Y193996D02*
D03*
X81890Y195965D02*
D03*
X125256Y185433D02*
D03*
X112598Y190059D02*
D03*
X84252D02*
D03*
X110236Y195965D02*
D03*
X112598Y193996D02*
D03*
X110236Y192028D02*
D03*
X81890D02*
D03*
X267717Y143701D02*
D03*
X244094Y143701D02*
D03*
X225590Y121260D02*
D03*
X431457Y291339D02*
D03*
X371260Y289370D02*
D03*
Y285433D02*
D03*
Y293307D02*
D03*
Y277559D02*
D03*
Y265748D02*
D03*
Y269685D02*
D03*
Y273622D02*
D03*
Y281496D02*
D03*
X315748Y284252D02*
D03*
X241732Y299607D02*
D03*
X185039Y300393D02*
D03*
X315748Y280315D02*
D03*
X244882Y297638D02*
D03*
X187500Y297834D02*
D03*
X315748Y276378D02*
D03*
X248031Y295276D02*
D03*
X190157Y295177D02*
D03*
X346457Y289370D02*
D03*
X405512Y255512D02*
D03*
X329429Y277165D02*
D03*
X337106Y263484D02*
D03*
Y286713D02*
D03*
X331988D02*
D03*
X329429Y284252D02*
D03*
X334547Y272342D02*
D03*
X331988Y274803D02*
D03*
X334645Y294881D02*
D03*
X140551Y281496D02*
D03*
X179823Y284252D02*
D03*
X177264Y286713D02*
D03*
X182382Y281890D02*
D03*
X177264Y263484D02*
D03*
X182382Y274803D02*
D03*
X163386Y255512D02*
D03*
X172146Y263484D02*
D03*
X179823Y272342D02*
D03*
X174705D02*
D03*
Y295571D02*
D03*
X140551Y273622D02*
D03*
Y269685D02*
D03*
Y265748D02*
D03*
Y277559D02*
D03*
Y293307D02*
D03*
Y285433D02*
D03*
Y289370D02*
D03*
X344291Y126969D02*
D03*
X283465Y227953D02*
D03*
X162008Y137795D02*
D03*
X214370Y126969D02*
D03*
X123819D02*
D03*
X71063Y137795D02*
D03*
X263779Y287402D02*
D03*
X259842D02*
D03*
X263779Y275590D02*
D03*
X259842D02*
D03*
X281496Y351969D02*
D03*
X278740Y355118D02*
D03*
X343996Y330335D02*
D03*
Y315335D02*
D03*
X303150Y350394D02*
D03*
X309055D02*
D03*
X314961D02*
D03*
X303150Y361496D02*
D03*
Y335354D02*
D03*
X31496Y267323D02*
D03*
X49606D02*
D03*
X469685Y274803D02*
D03*
X478346D02*
D03*
X70866Y316929D02*
D03*
Y312992D02*
D03*
Y309055D02*
D03*
Y305118D02*
D03*
X456693D02*
D03*
Y309055D02*
D03*
X441732Y295276D02*
D03*
Y287402D02*
D03*
X456693Y312992D02*
D03*
Y316929D02*
D03*
X469685Y295276D02*
D03*
X478346Y287402D02*
D03*
X218897Y351968D02*
D03*
X220866Y355118D02*
D03*
X218897Y358267D02*
D03*
Y339369D02*
D03*
X220866Y342520D02*
D03*
X440945Y305118D02*
D03*
Y309055D02*
D03*
Y312992D02*
D03*
Y316929D02*
D03*
X220866Y329921D02*
D03*
X218897Y345669D02*
D03*
X212598Y327166D02*
D03*
X139764Y342126D02*
D03*
Y346063D02*
D03*
X128347Y315354D02*
D03*
Y311417D02*
D03*
X152756Y346063D02*
D03*
Y342126D02*
D03*
X293701Y326772D02*
D03*
X334252Y325335D02*
D03*
X218206Y314173D02*
D03*
X61811Y121260D02*
D03*
X68110D02*
D03*
X64961D02*
D03*
X135827Y121260D02*
D03*
X138976D02*
D03*
X132677D02*
D03*
X155512Y121260D02*
D03*
X158661D02*
D03*
X152362D02*
D03*
X228740Y121260D02*
D03*
X222441D02*
D03*
X286221Y121260D02*
D03*
X289370D02*
D03*
X283071D02*
D03*
X356299Y121260D02*
D03*
X359449D02*
D03*
X353150D02*
D03*
X375984Y121260D02*
D03*
X379134D02*
D03*
X372835D02*
D03*
X444882Y121260D02*
D03*
X448032D02*
D03*
X441732D02*
D03*
X241732Y240551D02*
D03*
Y287795D02*
D03*
X193504Y267913D02*
D03*
X318307Y291142D02*
D03*
X55118Y316929D02*
D03*
Y312992D02*
D03*
Y305118D02*
D03*
Y309055D02*
D03*
X129921Y133858D02*
D03*
X125984Y133858D02*
D03*
X235433Y311024D02*
D03*
X238583Y309054D02*
D03*
X263780Y311024D02*
D03*
X279528Y320472D02*
D03*
X304724Y295276D02*
D03*
Y299606D02*
D03*
Y308661D02*
D03*
Y304134D02*
D03*
X354271Y267717D02*
D03*
X157894Y291339D02*
D03*
X64961Y137795D02*
D03*
X76772D02*
D03*
X155905Y137795D02*
D03*
X168504Y137795D02*
D03*
X287008Y141339D02*
D03*
X298425Y141732D02*
D03*
X375590Y137795D02*
D03*
X283465Y275197D02*
D03*
X227165Y364567D02*
D03*
X244882Y369291D02*
D03*
X241732Y371259D02*
D03*
X238582Y373228D02*
D03*
X235433Y375196D02*
D03*
X254331Y378740D02*
D03*
X257480Y381102D02*
D03*
X74803Y124409D02*
D03*
Y127953D02*
D03*
Y133465D02*
D03*
X165354Y127953D02*
D03*
Y124409D02*
D03*
X165354Y133858D02*
D03*
X295276Y127953D02*
D03*
Y124409D02*
D03*
Y133858D02*
D03*
X385827Y124409D02*
D03*
X388976Y141339D02*
D03*
X385827Y127953D02*
D03*
X385827Y133858D02*
D03*
X388976Y137795D02*
D03*
X298425Y137795D02*
D03*
X221595Y228346D02*
D03*
Y275590D02*
D03*
X90551Y255512D02*
D03*
X330709D02*
D03*
X216535Y129921D02*
D03*
Y133858D02*
D03*
X347638Y134252D02*
D03*
X351969D02*
D03*
X437795Y131102D02*
D03*
X441732Y134252D02*
D03*
X434842Y126969D02*
D03*
X67323Y213445D02*
D03*
X70473D02*
D03*
X126378D02*
D03*
X129528D02*
D03*
X71595Y188583D02*
D03*
Y185433D02*
D03*
X125256Y188583D02*
D03*
X146398Y188583D02*
D03*
Y185433D02*
D03*
X142126Y213445D02*
D03*
X145275D02*
D03*
X201181D02*
D03*
X204331D02*
D03*
X200059Y185433D02*
D03*
Y188583D02*
D03*
X307480Y213445D02*
D03*
X310630D02*
D03*
X311752Y188583D02*
D03*
Y185433D02*
D03*
X366535Y213445D02*
D03*
X369685D02*
D03*
X382283Y213445D02*
D03*
X385433D02*
D03*
X365413Y185433D02*
D03*
Y188583D02*
D03*
X386555Y188583D02*
D03*
Y185433D02*
D03*
X441338Y213445D02*
D03*
X444488D02*
D03*
X440216Y185433D02*
D03*
Y188583D02*
D03*
X283465Y223622D02*
D03*
Y270472D02*
D03*
X37605Y283477D02*
D03*
X366929Y325197D02*
D03*
X366535Y320079D02*
D03*
X232283Y326772D02*
D03*
X218897Y323621D02*
D03*
X220866Y320472D02*
D03*
X70866Y285433D02*
D03*
Y289370D02*
D03*
Y293307D02*
D03*
Y297244D02*
D03*
X55118Y285433D02*
D03*
X40157Y316929D02*
D03*
X40551Y301181D02*
D03*
X37795Y298425D02*
D03*
X40551Y312992D02*
D03*
X27953Y297244D02*
D03*
X25000Y293110D02*
D03*
X218897Y333070D02*
D03*
X220696Y336016D02*
D03*
X86024Y283661D02*
D03*
X96260Y311614D02*
D03*
X88779Y308661D02*
D03*
X93898Y301181D02*
D03*
D60*
X258661Y162205D02*
D03*
X261811D02*
D03*
X264961D02*
D03*
X268110D02*
D03*
X271260D02*
D03*
X274409D02*
D03*
X277559D02*
D03*
X280709D02*
D03*
X277559Y137795D02*
D03*
X275590Y131890D02*
D03*
X271654D02*
D03*
X269685Y137795D02*
D03*
X257874D02*
D03*
X259842Y131890D02*
D03*
X263779D02*
D03*
X265748Y137795D02*
D03*
X253150Y162205D02*
D03*
X250000D02*
D03*
X246850D02*
D03*
X243701D02*
D03*
X240551D02*
D03*
X237402D02*
D03*
X234252D02*
D03*
X231102D02*
D03*
X253937Y137795D02*
D03*
X251969Y131890D02*
D03*
X248031D02*
D03*
X246063Y137795D02*
D03*
X242126D02*
D03*
X240158Y131890D02*
D03*
X236221D02*
D03*
X234252Y137795D02*
D03*
X96063Y222835D02*
D03*
X100394D02*
D03*
X104724D02*
D03*
X109055D02*
D03*
X96063Y218110D02*
D03*
X100394D02*
D03*
Y213386D02*
D03*
X96063D02*
D03*
Y227559D02*
D03*
X100394D02*
D03*
X104724D02*
D03*
Y213386D02*
D03*
Y218110D02*
D03*
X109055Y227559D02*
D03*
Y213386D02*
D03*
Y218110D02*
D03*
X91732Y227559D02*
D03*
Y213386D02*
D03*
Y218110D02*
D03*
Y222835D02*
D03*
X87402Y227559D02*
D03*
Y213386D02*
D03*
Y218110D02*
D03*
Y222835D02*
D03*
X162205Y222835D02*
D03*
Y218110D02*
D03*
Y213386D02*
D03*
Y227559D02*
D03*
X166535Y222835D02*
D03*
Y218110D02*
D03*
Y213386D02*
D03*
Y227559D02*
D03*
X183858Y222835D02*
D03*
Y218110D02*
D03*
Y213386D02*
D03*
Y227559D02*
D03*
X179527Y222835D02*
D03*
Y218110D02*
D03*
Y213386D02*
D03*
Y227559D02*
D03*
X175197D02*
D03*
X170866D02*
D03*
Y213386D02*
D03*
X175197D02*
D03*
Y218110D02*
D03*
X170866D02*
D03*
Y222835D02*
D03*
X175197D02*
D03*
X340551D02*
D03*
X336221D02*
D03*
Y218110D02*
D03*
X340551D02*
D03*
Y213386D02*
D03*
X336221D02*
D03*
Y227559D02*
D03*
X340551D02*
D03*
X344882D02*
D03*
Y213386D02*
D03*
Y218110D02*
D03*
Y222835D02*
D03*
X349213Y227559D02*
D03*
Y213386D02*
D03*
Y218110D02*
D03*
Y222835D02*
D03*
X331890Y227559D02*
D03*
Y213386D02*
D03*
Y218110D02*
D03*
Y222835D02*
D03*
X327559Y227559D02*
D03*
Y213386D02*
D03*
Y218110D02*
D03*
Y222835D02*
D03*
X402362Y222835D02*
D03*
Y218110D02*
D03*
Y213386D02*
D03*
Y227559D02*
D03*
X406693Y222835D02*
D03*
Y218110D02*
D03*
Y213386D02*
D03*
Y227559D02*
D03*
X424016Y222835D02*
D03*
Y218110D02*
D03*
Y213386D02*
D03*
Y227559D02*
D03*
X419685Y222835D02*
D03*
Y218110D02*
D03*
Y213386D02*
D03*
Y227559D02*
D03*
X415354D02*
D03*
X411024D02*
D03*
Y213386D02*
D03*
X415354D02*
D03*
Y218110D02*
D03*
X411024D02*
D03*
Y222835D02*
D03*
X415354D02*
D03*
X327953Y129921D02*
D03*
X323228D02*
D03*
X318504D02*
D03*
X313779D02*
D03*
X318504Y115748D02*
D03*
X323228D02*
D03*
X327953D02*
D03*
X313779D02*
D03*
Y120472D02*
D03*
X327953D02*
D03*
X323228D02*
D03*
X318504D02*
D03*
Y111024D02*
D03*
X323228D02*
D03*
X327953D02*
D03*
X313779D02*
D03*
Y106299D02*
D03*
X327953D02*
D03*
X323228D02*
D03*
X318504D02*
D03*
X313779Y125197D02*
D03*
X323228D02*
D03*
X318504D02*
D03*
X327953D02*
D03*
X107480Y125197D02*
D03*
X98032D02*
D03*
X102756D02*
D03*
X93307D02*
D03*
X107480Y129921D02*
D03*
X98032Y106299D02*
D03*
X102756D02*
D03*
X107480D02*
D03*
X93307D02*
D03*
Y111024D02*
D03*
X107480D02*
D03*
X102756D02*
D03*
X98032D02*
D03*
Y120472D02*
D03*
X102756D02*
D03*
X107480D02*
D03*
X93307D02*
D03*
Y115748D02*
D03*
X107480D02*
D03*
X102756D02*
D03*
X98032D02*
D03*
X93307Y129921D02*
D03*
X98032D02*
D03*
X102756D02*
D03*
X404331Y106299D02*
D03*
X409055Y115748D02*
D03*
X413779D02*
D03*
X418504D02*
D03*
X404331D02*
D03*
Y120472D02*
D03*
X418504D02*
D03*
X413779D02*
D03*
X409055D02*
D03*
Y111024D02*
D03*
X413779D02*
D03*
X418504D02*
D03*
X404331D02*
D03*
X418504Y106299D02*
D03*
X413779D02*
D03*
X409055D02*
D03*
Y129921D02*
D03*
X413779D02*
D03*
X418504D02*
D03*
X404331D02*
D03*
Y125197D02*
D03*
X413779D02*
D03*
X409055D02*
D03*
X418504D02*
D03*
X198031D02*
D03*
X188583D02*
D03*
X193307D02*
D03*
X183858D02*
D03*
Y129921D02*
D03*
X198031D02*
D03*
X193307D02*
D03*
X188583D02*
D03*
Y106299D02*
D03*
X193307D02*
D03*
X198031D02*
D03*
X183858D02*
D03*
Y111024D02*
D03*
X198031D02*
D03*
X193307D02*
D03*
X188583D02*
D03*
Y120472D02*
D03*
X193307D02*
D03*
X198031D02*
D03*
X183858D02*
D03*
Y115748D02*
D03*
X198031D02*
D03*
X193307D02*
D03*
X188583D02*
D03*
X387008Y288189D02*
D03*
X379921Y285827D02*
D03*
X387008Y283465D02*
D03*
X379922Y281102D02*
D03*
X418111Y251969D02*
D03*
X414961Y251969D02*
D03*
X411811Y251969D02*
D03*
X124803Y288189D02*
D03*
X131890Y285827D02*
D03*
X124803Y283465D02*
D03*
X131889Y281102D02*
D03*
X100000Y251969D02*
D03*
X93701Y251969D02*
D03*
X96850D02*
D03*
X103150D02*
D03*
X174803Y251969D02*
D03*
X168504Y251969D02*
D03*
X165354Y243307D02*
D03*
X171654Y251969D02*
D03*
X171653Y243307D02*
D03*
X177953D02*
D03*
X177953Y251969D02*
D03*
X217323Y267717D02*
D03*
Y262795D02*
D03*
X224410Y265354D02*
D03*
X217323Y253150D02*
D03*
X224410Y260236D02*
D03*
Y255512D02*
D03*
Y250787D02*
D03*
X217323Y257874D02*
D03*
X131890Y271654D02*
D03*
Y276378D02*
D03*
X124803Y274016D02*
D03*
Y278740D02*
D03*
X387008Y278740D02*
D03*
Y274016D02*
D03*
X379921Y276378D02*
D03*
Y271654D02*
D03*
X408662Y251969D02*
D03*
X294488Y257874D02*
D03*
X287402Y250787D02*
D03*
Y255512D02*
D03*
Y260236D02*
D03*
X294488Y253150D02*
D03*
X287402Y265354D02*
D03*
X294488Y262795D02*
D03*
Y267717D02*
D03*
X184252Y243307D02*
D03*
X90551D02*
D03*
X96850D02*
D03*
X103150D02*
D03*
X109449D02*
D03*
X343307Y251969D02*
D03*
X340158Y251969D02*
D03*
X337008Y251969D02*
D03*
X333858D02*
D03*
X424409Y243307D02*
D03*
X418110D02*
D03*
X411811D02*
D03*
X405512D02*
D03*
X349606D02*
D03*
X343307D02*
D03*
X337008D02*
D03*
X330709D02*
D03*
X112598Y243307D02*
D03*
X352756Y243307D02*
D03*
X427559Y243307D02*
D03*
X187401Y243307D02*
D03*
D68*
X98425Y220473D02*
D03*
X413386Y220470D02*
D03*
D69*
X173226Y220473D02*
D03*
X338583Y220476D02*
D03*
D70*
X320866Y118110D02*
D03*
X411417Y118110D02*
D03*
X190945D02*
D03*
D71*
X100394D02*
D03*
M02*
