G04 Layer_Color=16711935*
%FSLAX25Y25*%
%MOIN*%
G70*
G01*
G75*
%ADD64C,0.06693*%
%ADD66C,0.02756*%
%ADD111C,0.13386*%
%ADD112C,0.08268*%
%ADD113C,0.27953*%
%ADD114R,0.27559X0.18110*%
%ADD115R,0.27559X0.18110*%
%ADD116R,0.20472X0.29134*%
%ADD117R,0.43307X0.51181*%
%ADD118R,0.43307X0.51181*%
%ADD119R,0.39370X0.51181*%
%ADD120R,0.43307X0.51181*%
%ADD121R,0.47244X0.39370*%
%ADD122R,0.47244X0.39370*%
%ADD123R,0.35433X0.23622*%
%ADD124R,0.21261X0.23622*%
%ADD125R,1.45669X0.27559*%
D64*
X410906Y345669D02*
D03*
X400906D02*
D03*
X445827Y355512D02*
D03*
X425827D02*
D03*
X435827D02*
D03*
Y345512D02*
D03*
X425827D02*
D03*
X445827D02*
D03*
D66*
X327953Y129921D02*
D03*
X323228D02*
D03*
X318504D02*
D03*
X313779D02*
D03*
X318504Y115748D02*
D03*
X323228D02*
D03*
X327953D02*
D03*
X313779D02*
D03*
Y120472D02*
D03*
X327953D02*
D03*
X323228D02*
D03*
X318504D02*
D03*
Y111024D02*
D03*
X323228D02*
D03*
X327953D02*
D03*
X313779D02*
D03*
Y106299D02*
D03*
X327953D02*
D03*
X323228D02*
D03*
X318504D02*
D03*
X313779Y125197D02*
D03*
X323228D02*
D03*
X318504D02*
D03*
X327953D02*
D03*
X107480Y125197D02*
D03*
X98032D02*
D03*
X102756D02*
D03*
X93307D02*
D03*
X107480Y129921D02*
D03*
X98032Y106299D02*
D03*
X102756D02*
D03*
X107480D02*
D03*
X93307D02*
D03*
Y111024D02*
D03*
X107480D02*
D03*
X102756D02*
D03*
X98032D02*
D03*
Y120472D02*
D03*
X102756D02*
D03*
X107480D02*
D03*
X93307D02*
D03*
Y115748D02*
D03*
X107480D02*
D03*
X102756D02*
D03*
X98032D02*
D03*
X93307Y129921D02*
D03*
X98032D02*
D03*
X102756D02*
D03*
X404331Y106299D02*
D03*
X409055Y115748D02*
D03*
X413779D02*
D03*
X418504D02*
D03*
X404331D02*
D03*
Y120472D02*
D03*
X418504D02*
D03*
X413779D02*
D03*
X409055D02*
D03*
Y111024D02*
D03*
X413779D02*
D03*
X418504D02*
D03*
X404331D02*
D03*
X418504Y106299D02*
D03*
X413779D02*
D03*
X409055D02*
D03*
Y129921D02*
D03*
X413779D02*
D03*
X418504D02*
D03*
X404331D02*
D03*
Y125197D02*
D03*
X413779D02*
D03*
X409055D02*
D03*
X418504D02*
D03*
X198031D02*
D03*
X188583D02*
D03*
X193307D02*
D03*
X183858D02*
D03*
Y129921D02*
D03*
X198031D02*
D03*
X193307D02*
D03*
X188583D02*
D03*
Y106299D02*
D03*
X193307D02*
D03*
X198031D02*
D03*
X183858D02*
D03*
Y111024D02*
D03*
X198031D02*
D03*
X193307D02*
D03*
X188583D02*
D03*
Y120472D02*
D03*
X193307D02*
D03*
X198031D02*
D03*
X183858D02*
D03*
Y115748D02*
D03*
X198031D02*
D03*
X193307D02*
D03*
X188583D02*
D03*
D111*
X221457Y21654D02*
D03*
X69882D02*
D03*
X441929D02*
D03*
X290354D02*
D03*
D112*
X145669Y47244D02*
D03*
X133858D02*
D03*
X157480D02*
D03*
X122047D02*
D03*
X169291D02*
D03*
X181102D02*
D03*
X110236D02*
D03*
X192913D02*
D03*
X98425D02*
D03*
X139764Y57087D02*
D03*
X151575D02*
D03*
X163386D02*
D03*
X175197D02*
D03*
X187008D02*
D03*
X127953D02*
D03*
X116142D02*
D03*
X104331D02*
D03*
Y68898D02*
D03*
X116142D02*
D03*
X127953D02*
D03*
X187008D02*
D03*
X175197D02*
D03*
X163386D02*
D03*
X151575D02*
D03*
X139764D02*
D03*
X98425Y78740D02*
D03*
X192913D02*
D03*
X110236D02*
D03*
X181102D02*
D03*
X169291D02*
D03*
X122047D02*
D03*
X157480D02*
D03*
X133858D02*
D03*
X145669D02*
D03*
X366142Y47244D02*
D03*
X354331D02*
D03*
X377953D02*
D03*
X342520D02*
D03*
X389764D02*
D03*
X401575D02*
D03*
X330709D02*
D03*
X413386D02*
D03*
X318898D02*
D03*
X360236Y57087D02*
D03*
X372047D02*
D03*
X383858D02*
D03*
X395669D02*
D03*
X407480D02*
D03*
X348425D02*
D03*
X336614D02*
D03*
X324803D02*
D03*
Y68898D02*
D03*
X336614D02*
D03*
X348425D02*
D03*
X407480D02*
D03*
X395669D02*
D03*
X383858D02*
D03*
X372047D02*
D03*
X360236D02*
D03*
X318898Y78740D02*
D03*
X413386D02*
D03*
X330709D02*
D03*
X401575D02*
D03*
X389764D02*
D03*
X342520D02*
D03*
X377953D02*
D03*
X354331D02*
D03*
X366142D02*
D03*
D113*
X27559Y27559D02*
D03*
Y366142D02*
D03*
X484252D02*
D03*
Y27559D02*
D03*
X27559Y196850D02*
D03*
X484252D02*
D03*
D114*
X98425Y220473D02*
D03*
X173226Y220473D02*
D03*
X338583Y220476D02*
D03*
D115*
X413386Y220470D02*
D03*
D116*
X320866Y118110D02*
D03*
X100394Y118110D02*
D03*
X411417D02*
D03*
X190945D02*
D03*
D117*
X100394Y116142D02*
D03*
D118*
X190945D02*
D03*
D119*
X413386Y116142D02*
D03*
D120*
X320866D02*
D03*
D121*
X98425Y220472D02*
D03*
X173228D02*
D03*
X338583D02*
D03*
D122*
X413386D02*
D03*
D123*
X135827Y232283D02*
D03*
X375591Y232284D02*
D03*
D124*
X68110Y232283D02*
D03*
X203544Y232283D02*
D03*
X307874Y232284D02*
D03*
X443308Y232284D02*
D03*
D125*
X139764Y104331D02*
D03*
X372047Y104331D02*
D03*
M02*
