G04 Layer_Color=8388736*
%FSLAX25Y25*%
%MOIN*%
G70*
G01*
G75*
%ADD64C,0.06693*%
%ADD66C,0.02756*%
%ADD75R,0.02047X0.02756*%
%ADD76R,0.01575X0.03543*%
%ADD77R,0.04331X0.02165*%
%ADD78R,0.02165X0.03543*%
%ADD79R,0.03543X0.01968*%
%ADD80O,0.02165X0.05905*%
%ADD81R,0.03543X0.01575*%
%ADD82R,0.01968X0.03543*%
%ADD83R,0.02441X0.02441*%
%ADD84R,0.05512X0.03543*%
%ADD85R,0.13976X0.07480*%
%ADD86R,0.07087X0.03740*%
%ADD87R,0.08976X0.06772*%
%ADD88R,0.06850X0.05905*%
%ADD89R,0.05905X0.06850*%
%ADD90R,0.05709X0.05118*%
%ADD91R,0.08858X0.04331*%
%ADD92R,0.08858X0.12992*%
%ADD93O,0.05905X0.02559*%
%ADD94O,0.02559X0.05905*%
%ADD95O,0.02756X0.07283*%
%ADD96R,0.28346X0.18898*%
%ADD97O,0.06496X0.01693*%
%ADD98R,0.20866X0.29921*%
%ADD99O,0.06890X0.02953*%
%ADD100R,0.09842X0.07480*%
%ADD101O,0.07283X0.02165*%
%ADD102R,0.03543X0.05512*%
%ADD103R,0.09842X0.07283*%
%ADD104R,0.07874X0.04331*%
%ADD105R,0.03543X0.02165*%
%ADD106R,0.02441X0.02441*%
%ADD107R,0.01575X0.02953*%
%ADD108R,0.01870X0.02953*%
%ADD109R,0.03543X0.02756*%
%ADD110R,0.06181X0.04842*%
%ADD111C,0.13386*%
%ADD112C,0.08268*%
%ADD113C,0.27953*%
D64*
X410906Y345669D02*
D03*
X400906D02*
D03*
X445827Y355512D02*
D03*
X425827D02*
D03*
X435827D02*
D03*
Y345512D02*
D03*
X425827D02*
D03*
X445827D02*
D03*
D66*
X327953Y129921D02*
D03*
X323228D02*
D03*
X318504D02*
D03*
X313779D02*
D03*
X318504Y115748D02*
D03*
X323228D02*
D03*
X327953D02*
D03*
X313779D02*
D03*
Y120472D02*
D03*
X327953D02*
D03*
X323228D02*
D03*
X318504D02*
D03*
Y111024D02*
D03*
X323228D02*
D03*
X327953D02*
D03*
X313779D02*
D03*
Y106299D02*
D03*
X327953D02*
D03*
X323228D02*
D03*
X318504D02*
D03*
X313779Y125197D02*
D03*
X323228D02*
D03*
X318504D02*
D03*
X327953D02*
D03*
X107480Y125197D02*
D03*
X98032D02*
D03*
X102756D02*
D03*
X93307D02*
D03*
X107480Y129921D02*
D03*
X98032Y106299D02*
D03*
X102756D02*
D03*
X107480D02*
D03*
X93307D02*
D03*
Y111024D02*
D03*
X107480D02*
D03*
X102756D02*
D03*
X98032D02*
D03*
Y120472D02*
D03*
X102756D02*
D03*
X107480D02*
D03*
X93307D02*
D03*
Y115748D02*
D03*
X107480D02*
D03*
X102756D02*
D03*
X98032D02*
D03*
X93307Y129921D02*
D03*
X98032D02*
D03*
X102756D02*
D03*
X404331Y106299D02*
D03*
X409055Y115748D02*
D03*
X413779D02*
D03*
X418504D02*
D03*
X404331D02*
D03*
Y120472D02*
D03*
X418504D02*
D03*
X413779D02*
D03*
X409055D02*
D03*
Y111024D02*
D03*
X413779D02*
D03*
X418504D02*
D03*
X404331D02*
D03*
X418504Y106299D02*
D03*
X413779D02*
D03*
X409055D02*
D03*
Y129921D02*
D03*
X413779D02*
D03*
X418504D02*
D03*
X404331D02*
D03*
Y125197D02*
D03*
X413779D02*
D03*
X409055D02*
D03*
X418504D02*
D03*
X198031D02*
D03*
X188583D02*
D03*
X193307D02*
D03*
X183858D02*
D03*
Y129921D02*
D03*
X198031D02*
D03*
X193307D02*
D03*
X188583D02*
D03*
Y106299D02*
D03*
X193307D02*
D03*
X198031D02*
D03*
X183858D02*
D03*
Y111024D02*
D03*
X198031D02*
D03*
X193307D02*
D03*
X188583D02*
D03*
Y120472D02*
D03*
X193307D02*
D03*
X198031D02*
D03*
X183858D02*
D03*
Y115748D02*
D03*
X198031D02*
D03*
X193307D02*
D03*
X188583D02*
D03*
D75*
X299803Y184055D02*
D03*
X297244D02*
D03*
X294685D02*
D03*
Y191535D02*
D03*
X297244D02*
D03*
X299803D02*
D03*
X287992Y184055D02*
D03*
X285433D02*
D03*
X282874D02*
D03*
Y191535D02*
D03*
X285433D02*
D03*
X287992D02*
D03*
X276181Y184055D02*
D03*
X273622D02*
D03*
X271063D02*
D03*
Y191535D02*
D03*
X273622D02*
D03*
X276181D02*
D03*
X264370Y184055D02*
D03*
X261811D02*
D03*
X259252D02*
D03*
Y191535D02*
D03*
X261811D02*
D03*
X264370D02*
D03*
X252559Y184055D02*
D03*
X250000D02*
D03*
X247441D02*
D03*
Y191535D02*
D03*
X250000D02*
D03*
X252559D02*
D03*
X240748Y184055D02*
D03*
X238189D02*
D03*
X235630D02*
D03*
Y191535D02*
D03*
X238189D02*
D03*
X240748D02*
D03*
X228937Y184055D02*
D03*
X226378D02*
D03*
X223819D02*
D03*
Y191535D02*
D03*
X226378D02*
D03*
X228937D02*
D03*
X217126Y184055D02*
D03*
X214567D02*
D03*
X212008D02*
D03*
Y191535D02*
D03*
X214567D02*
D03*
X217126D02*
D03*
X93898Y311614D02*
D03*
X91339D02*
D03*
X88779D02*
D03*
Y304134D02*
D03*
X91339D02*
D03*
X93898D02*
D03*
D76*
X276575Y174016D02*
D03*
X274606D02*
D03*
X272638D02*
D03*
X270669D02*
D03*
X268701D02*
D03*
X266732D02*
D03*
X264764D02*
D03*
X262795D02*
D03*
X276575Y166929D02*
D03*
X274606D02*
D03*
X272638D02*
D03*
X270669D02*
D03*
X268701D02*
D03*
X266732D02*
D03*
X264764D02*
D03*
X262795D02*
D03*
X249016Y174016D02*
D03*
X247047D02*
D03*
X245079D02*
D03*
X243110D02*
D03*
X241142D02*
D03*
X239173D02*
D03*
X237205D02*
D03*
X235236D02*
D03*
X249016Y166929D02*
D03*
X247047D02*
D03*
X245079D02*
D03*
X243110D02*
D03*
X241142D02*
D03*
X239173D02*
D03*
X237205D02*
D03*
X235236D02*
D03*
X276575Y157480D02*
D03*
X274606D02*
D03*
X272638D02*
D03*
X270669D02*
D03*
X268701D02*
D03*
X266732D02*
D03*
X264764D02*
D03*
X262795D02*
D03*
X276575Y150394D02*
D03*
X274606D02*
D03*
X272638D02*
D03*
X270669D02*
D03*
X268701D02*
D03*
X266732D02*
D03*
X264764D02*
D03*
X262795D02*
D03*
X249016Y157480D02*
D03*
X247047D02*
D03*
X245079D02*
D03*
X243110D02*
D03*
X241142D02*
D03*
X239173D02*
D03*
X237205D02*
D03*
X235236D02*
D03*
X249016Y150394D02*
D03*
X247047D02*
D03*
X245079D02*
D03*
X243110D02*
D03*
X241142D02*
D03*
X239173D02*
D03*
X237205D02*
D03*
X235236D02*
D03*
D77*
X367520Y266929D02*
D03*
Y270079D02*
D03*
Y273228D02*
D03*
Y276378D02*
D03*
X360827Y266929D02*
D03*
Y270079D02*
D03*
Y273228D02*
D03*
Y276378D02*
D03*
X360827Y292126D02*
D03*
Y288976D02*
D03*
Y285827D02*
D03*
Y282677D02*
D03*
X367520Y292126D02*
D03*
Y288976D02*
D03*
Y285827D02*
D03*
Y282677D02*
D03*
X150984D02*
D03*
Y285827D02*
D03*
Y288976D02*
D03*
Y292126D02*
D03*
X144291Y282677D02*
D03*
Y285827D02*
D03*
Y288976D02*
D03*
Y292126D02*
D03*
X150984Y266929D02*
D03*
Y270079D02*
D03*
Y273228D02*
D03*
Y276378D02*
D03*
X144291Y266929D02*
D03*
Y270079D02*
D03*
Y273228D02*
D03*
Y276378D02*
D03*
X79331Y296063D02*
D03*
Y292913D02*
D03*
Y289764D02*
D03*
Y286614D02*
D03*
X86024Y296063D02*
D03*
Y292913D02*
D03*
Y289764D02*
D03*
Y286614D02*
D03*
D78*
X451673Y287402D02*
D03*
X445965D02*
D03*
X451673Y295276D02*
D03*
X445965D02*
D03*
X378740Y137795D02*
D03*
X373031D02*
D03*
X159153D02*
D03*
X153445D02*
D03*
X68209D02*
D03*
X62500D02*
D03*
X286516Y301181D02*
D03*
X292224D02*
D03*
X231201Y228346D02*
D03*
X225492D02*
D03*
X231201Y275590D02*
D03*
X225492D02*
D03*
D79*
X445276Y315748D02*
D03*
Y312598D02*
D03*
Y309449D02*
D03*
Y306299D02*
D03*
X452362Y315748D02*
D03*
Y312598D02*
D03*
Y309449D02*
D03*
Y306299D02*
D03*
X66535D02*
D03*
Y309449D02*
D03*
Y312598D02*
D03*
Y315748D02*
D03*
X59449Y306299D02*
D03*
Y309449D02*
D03*
Y312598D02*
D03*
Y315748D02*
D03*
X66535Y286614D02*
D03*
Y289764D02*
D03*
Y292913D02*
D03*
Y296063D02*
D03*
X59449Y286614D02*
D03*
Y289764D02*
D03*
Y292913D02*
D03*
Y296063D02*
D03*
D80*
X339665Y291142D02*
D03*
X337106D02*
D03*
X334547D02*
D03*
X331988D02*
D03*
X329429D02*
D03*
X326870D02*
D03*
X324311D02*
D03*
X321752D02*
D03*
X339665Y267913D02*
D03*
X337106D02*
D03*
X334547D02*
D03*
X331988D02*
D03*
X329429D02*
D03*
X326870D02*
D03*
X324311D02*
D03*
X321752D02*
D03*
X172146Y267913D02*
D03*
X174705D02*
D03*
X177264D02*
D03*
X179823D02*
D03*
X182382D02*
D03*
X184941D02*
D03*
X187500D02*
D03*
X190059D02*
D03*
X172146Y291142D02*
D03*
X174705D02*
D03*
X177264D02*
D03*
X179823D02*
D03*
X182382D02*
D03*
X184941D02*
D03*
X187500D02*
D03*
X190059D02*
D03*
D81*
X383465Y272638D02*
D03*
Y274606D02*
D03*
Y276575D02*
D03*
Y278543D02*
D03*
Y280512D02*
D03*
Y282480D02*
D03*
Y284449D02*
D03*
Y286417D02*
D03*
X376378Y272638D02*
D03*
Y274606D02*
D03*
Y276575D02*
D03*
Y278543D02*
D03*
Y280512D02*
D03*
Y282480D02*
D03*
Y284449D02*
D03*
Y286417D02*
D03*
X128347Y286417D02*
D03*
Y284449D02*
D03*
Y282480D02*
D03*
Y280512D02*
D03*
Y278543D02*
D03*
Y276575D02*
D03*
Y274606D02*
D03*
Y272638D02*
D03*
X135433Y286417D02*
D03*
Y284449D02*
D03*
Y282480D02*
D03*
Y280512D02*
D03*
Y278543D02*
D03*
Y276575D02*
D03*
Y274606D02*
D03*
Y272638D02*
D03*
X227953Y252953D02*
D03*
Y254921D02*
D03*
Y256890D02*
D03*
Y258858D02*
D03*
Y260827D02*
D03*
Y262795D02*
D03*
Y264764D02*
D03*
Y266732D02*
D03*
X220866Y252953D02*
D03*
Y254921D02*
D03*
Y256890D02*
D03*
Y258858D02*
D03*
Y260827D02*
D03*
Y262795D02*
D03*
Y264764D02*
D03*
Y266732D02*
D03*
X283858D02*
D03*
Y264764D02*
D03*
Y262795D02*
D03*
Y260827D02*
D03*
Y258858D02*
D03*
Y256890D02*
D03*
Y254921D02*
D03*
Y252953D02*
D03*
X290945Y266732D02*
D03*
Y264764D02*
D03*
Y262795D02*
D03*
Y260827D02*
D03*
Y258858D02*
D03*
Y256890D02*
D03*
Y254921D02*
D03*
Y252953D02*
D03*
D82*
X418110Y255512D02*
D03*
X414961D02*
D03*
X411811D02*
D03*
X408661D02*
D03*
X418110Y248425D02*
D03*
X414961D02*
D03*
X411811D02*
D03*
X408661D02*
D03*
X177953Y255512D02*
D03*
X174803D02*
D03*
X171653D02*
D03*
X168504D02*
D03*
X177953Y248425D02*
D03*
X174803D02*
D03*
X171653D02*
D03*
X168504D02*
D03*
X343307Y255512D02*
D03*
X340158D02*
D03*
X337008D02*
D03*
X333858D02*
D03*
X343307Y248425D02*
D03*
X340158D02*
D03*
X337008D02*
D03*
X333858D02*
D03*
X103150Y255512D02*
D03*
X100000D02*
D03*
X96850D02*
D03*
X93701D02*
D03*
X103150Y248425D02*
D03*
X100000D02*
D03*
X96850D02*
D03*
X93701D02*
D03*
D83*
X212598Y321220D02*
D03*
Y324449D02*
D03*
Y309409D02*
D03*
Y312638D02*
D03*
X299213Y321220D02*
D03*
Y324449D02*
D03*
X212598Y348071D02*
D03*
Y344843D02*
D03*
X299213Y340906D02*
D03*
Y344134D02*
D03*
Y355945D02*
D03*
Y352717D02*
D03*
X330709Y321221D02*
D03*
Y324449D02*
D03*
X145669Y318898D02*
D03*
Y315669D02*
D03*
X279528Y224764D02*
D03*
Y227992D02*
D03*
Y272008D02*
D03*
Y275236D02*
D03*
D84*
X204724Y314272D02*
D03*
Y307776D02*
D03*
X307087Y326083D02*
D03*
Y319587D02*
D03*
X204724Y343209D02*
D03*
Y349705D02*
D03*
X322835Y326083D02*
D03*
Y319586D02*
D03*
D85*
X220276Y61024D02*
D03*
X240354D02*
D03*
X271457D02*
D03*
X291535D02*
D03*
D86*
X145669Y344193D02*
D03*
Y332972D02*
D03*
X133858Y313287D02*
D03*
Y324508D02*
D03*
X133858Y344193D02*
D03*
Y332972D02*
D03*
D87*
X356299Y126417D02*
D03*
Y109803D02*
D03*
X135827Y126417D02*
D03*
Y109803D02*
D03*
X286221Y126417D02*
D03*
Y109803D02*
D03*
X64961Y126417D02*
D03*
Y109803D02*
D03*
X444882Y126417D02*
D03*
Y109803D02*
D03*
X225590Y126417D02*
D03*
Y109803D02*
D03*
X375984Y126417D02*
D03*
Y109803D02*
D03*
X155512Y126417D02*
D03*
Y109803D02*
D03*
D88*
X127953Y202697D02*
D03*
Y218563D02*
D03*
X368110Y202697D02*
D03*
Y218563D02*
D03*
X68898Y202697D02*
D03*
Y218563D02*
D03*
X309055Y202697D02*
D03*
Y218563D02*
D03*
X202756Y202697D02*
D03*
Y218563D02*
D03*
X442913Y202697D02*
D03*
Y218563D02*
D03*
X143701Y202697D02*
D03*
Y218563D02*
D03*
X383858Y202697D02*
D03*
Y218563D02*
D03*
D89*
X104272Y187008D02*
D03*
X120138D02*
D03*
X344429Y187008D02*
D03*
X360295D02*
D03*
X92579Y187008D02*
D03*
X76713D02*
D03*
X332736Y187008D02*
D03*
X316870D02*
D03*
X179075Y187008D02*
D03*
X194941D02*
D03*
X419232Y187008D02*
D03*
X435098D02*
D03*
X167382Y187008D02*
D03*
X151516D02*
D03*
X407539Y187008D02*
D03*
X391673D02*
D03*
D90*
X122047Y324409D02*
D03*
Y313386D02*
D03*
D91*
X157776Y339764D02*
D03*
Y330709D02*
D03*
Y321654D02*
D03*
D92*
X180807Y330709D02*
D03*
D93*
X225591Y311024D02*
D03*
Y314173D02*
D03*
Y317323D02*
D03*
Y320472D02*
D03*
Y323622D02*
D03*
Y326772D02*
D03*
Y329921D02*
D03*
Y333071D02*
D03*
Y336220D02*
D03*
Y339370D02*
D03*
Y342520D02*
D03*
Y345669D02*
D03*
Y348819D02*
D03*
Y351969D02*
D03*
Y355118D02*
D03*
Y358268D02*
D03*
X286220D02*
D03*
Y355118D02*
D03*
Y351969D02*
D03*
Y348819D02*
D03*
Y345669D02*
D03*
Y342520D02*
D03*
Y339370D02*
D03*
Y336220D02*
D03*
Y333071D02*
D03*
Y329921D02*
D03*
Y326772D02*
D03*
Y323622D02*
D03*
Y320472D02*
D03*
Y317323D02*
D03*
Y314173D02*
D03*
Y311024D02*
D03*
D94*
X232283Y364961D02*
D03*
X235433D02*
D03*
X238583D02*
D03*
X241732D02*
D03*
X244882D02*
D03*
X248031D02*
D03*
X251181D02*
D03*
X254331D02*
D03*
X257480D02*
D03*
X260630D02*
D03*
X263780D02*
D03*
X266929D02*
D03*
X270079D02*
D03*
X273228D02*
D03*
X276378D02*
D03*
X279528D02*
D03*
Y304331D02*
D03*
X276378D02*
D03*
X273228D02*
D03*
X270079D02*
D03*
X266929D02*
D03*
X263780D02*
D03*
X260630D02*
D03*
X257480D02*
D03*
X254331D02*
D03*
X251181D02*
D03*
X248031D02*
D03*
X244882D02*
D03*
X241732D02*
D03*
X238583D02*
D03*
X235433D02*
D03*
X232283D02*
D03*
D95*
X115748Y239075D02*
D03*
X112598D02*
D03*
X109449D02*
D03*
X106299D02*
D03*
X103150D02*
D03*
X100000D02*
D03*
X96850D02*
D03*
X93701D02*
D03*
X90551D02*
D03*
X87402D02*
D03*
X84252D02*
D03*
X81102D02*
D03*
X115748Y201870D02*
D03*
X112598D02*
D03*
X109449D02*
D03*
X106299D02*
D03*
X103150D02*
D03*
X100000D02*
D03*
X96850D02*
D03*
X93701D02*
D03*
X90551D02*
D03*
X87402D02*
D03*
X84252D02*
D03*
X81102D02*
D03*
X155905Y201870D02*
D03*
X159055D02*
D03*
X162205D02*
D03*
X165354D02*
D03*
X168504D02*
D03*
X171653D02*
D03*
X174803D02*
D03*
X177953D02*
D03*
X181102D02*
D03*
X184252D02*
D03*
X187401D02*
D03*
X190551D02*
D03*
X155905Y239075D02*
D03*
X159055D02*
D03*
X162205D02*
D03*
X165354D02*
D03*
X168504D02*
D03*
X171653D02*
D03*
X174803D02*
D03*
X177953D02*
D03*
X181102D02*
D03*
X184252D02*
D03*
X187401D02*
D03*
X190551D02*
D03*
X355906D02*
D03*
X352756D02*
D03*
X349606D02*
D03*
X346457D02*
D03*
X343307D02*
D03*
X340158D02*
D03*
X337008D02*
D03*
X333858D02*
D03*
X330709D02*
D03*
X327559D02*
D03*
X324410D02*
D03*
X321260D02*
D03*
X355906Y201870D02*
D03*
X352756D02*
D03*
X349606D02*
D03*
X346457D02*
D03*
X343307D02*
D03*
X340158D02*
D03*
X337008D02*
D03*
X333858D02*
D03*
X330709D02*
D03*
X327559D02*
D03*
X324410D02*
D03*
X321260D02*
D03*
X396063Y201870D02*
D03*
X399213D02*
D03*
X402362D02*
D03*
X405512D02*
D03*
X408661D02*
D03*
X411811D02*
D03*
X414961D02*
D03*
X418110D02*
D03*
X421260D02*
D03*
X424409D02*
D03*
X427559D02*
D03*
X430709D02*
D03*
X396063Y239075D02*
D03*
X399213D02*
D03*
X402362D02*
D03*
X405512D02*
D03*
X408661D02*
D03*
X411811D02*
D03*
X414961D02*
D03*
X418110D02*
D03*
X421260D02*
D03*
X424409D02*
D03*
X427559D02*
D03*
X430709D02*
D03*
D96*
X98425Y220472D02*
D03*
X173228Y220472D02*
D03*
X338583D02*
D03*
X413386Y220472D02*
D03*
D97*
X339764Y101378D02*
D03*
Y103347D02*
D03*
Y105315D02*
D03*
Y107284D02*
D03*
Y109252D02*
D03*
Y111221D02*
D03*
Y113189D02*
D03*
Y115158D02*
D03*
Y117126D02*
D03*
Y119095D02*
D03*
Y121063D02*
D03*
Y123032D02*
D03*
Y125000D02*
D03*
Y126969D02*
D03*
Y128937D02*
D03*
Y130906D02*
D03*
Y132874D02*
D03*
Y134843D02*
D03*
X301969Y101378D02*
D03*
Y103347D02*
D03*
Y105315D02*
D03*
Y107284D02*
D03*
Y109252D02*
D03*
Y111221D02*
D03*
Y113189D02*
D03*
Y115158D02*
D03*
Y117126D02*
D03*
Y119095D02*
D03*
Y121063D02*
D03*
Y123032D02*
D03*
Y125000D02*
D03*
Y126969D02*
D03*
Y128937D02*
D03*
Y130906D02*
D03*
Y132874D02*
D03*
Y134843D02*
D03*
X81496Y134843D02*
D03*
Y132874D02*
D03*
Y130905D02*
D03*
Y128937D02*
D03*
Y126969D02*
D03*
Y125000D02*
D03*
Y123031D02*
D03*
Y121063D02*
D03*
Y119095D02*
D03*
Y117126D02*
D03*
Y115157D02*
D03*
Y113189D02*
D03*
Y111221D02*
D03*
Y109252D02*
D03*
Y107283D02*
D03*
Y105315D02*
D03*
Y103347D02*
D03*
Y101378D02*
D03*
X119291Y134843D02*
D03*
Y132874D02*
D03*
Y130905D02*
D03*
Y128937D02*
D03*
Y126969D02*
D03*
Y125000D02*
D03*
Y123031D02*
D03*
Y121063D02*
D03*
Y119095D02*
D03*
Y117126D02*
D03*
Y115157D02*
D03*
Y113189D02*
D03*
Y111221D02*
D03*
Y109252D02*
D03*
Y107283D02*
D03*
Y105315D02*
D03*
Y103347D02*
D03*
Y101378D02*
D03*
X430315D02*
D03*
Y103347D02*
D03*
Y105315D02*
D03*
Y107283D02*
D03*
Y109252D02*
D03*
Y111221D02*
D03*
Y113189D02*
D03*
Y115157D02*
D03*
Y117126D02*
D03*
Y119095D02*
D03*
Y121063D02*
D03*
Y123031D02*
D03*
Y125000D02*
D03*
Y126969D02*
D03*
Y128937D02*
D03*
Y130905D02*
D03*
Y132874D02*
D03*
Y134843D02*
D03*
X392520Y101378D02*
D03*
Y103347D02*
D03*
Y105315D02*
D03*
Y107283D02*
D03*
Y109252D02*
D03*
Y111221D02*
D03*
Y113189D02*
D03*
Y115157D02*
D03*
Y117126D02*
D03*
Y119095D02*
D03*
Y121063D02*
D03*
Y123031D02*
D03*
Y125000D02*
D03*
Y126969D02*
D03*
Y128937D02*
D03*
Y130905D02*
D03*
Y132874D02*
D03*
Y134843D02*
D03*
X172047D02*
D03*
Y132874D02*
D03*
Y130905D02*
D03*
Y128937D02*
D03*
Y126969D02*
D03*
Y125000D02*
D03*
Y123031D02*
D03*
Y121063D02*
D03*
Y119095D02*
D03*
Y117126D02*
D03*
Y115157D02*
D03*
Y113189D02*
D03*
Y111221D02*
D03*
Y109252D02*
D03*
Y107283D02*
D03*
Y105315D02*
D03*
Y103347D02*
D03*
Y101378D02*
D03*
X209842Y134843D02*
D03*
Y132874D02*
D03*
Y130905D02*
D03*
Y128937D02*
D03*
Y126969D02*
D03*
Y125000D02*
D03*
Y123031D02*
D03*
Y121063D02*
D03*
Y119095D02*
D03*
Y117126D02*
D03*
Y115157D02*
D03*
Y113189D02*
D03*
Y111221D02*
D03*
Y109252D02*
D03*
Y107283D02*
D03*
Y105315D02*
D03*
Y103347D02*
D03*
Y101378D02*
D03*
D98*
X320866Y118110D02*
D03*
X100394Y118110D02*
D03*
X411417D02*
D03*
X190945D02*
D03*
D99*
X339272Y330335D02*
D03*
Y325335D02*
D03*
Y320335D02*
D03*
Y315335D02*
D03*
X361516Y330335D02*
D03*
Y325335D02*
D03*
Y320335D02*
D03*
Y315335D02*
D03*
D100*
X311024Y342520D02*
D03*
Y358268D02*
D03*
D101*
X270079Y203838D02*
D03*
Y206398D02*
D03*
Y208957D02*
D03*
Y211516D02*
D03*
Y214075D02*
D03*
Y216634D02*
D03*
Y219193D02*
D03*
Y221752D02*
D03*
Y224311D02*
D03*
Y226870D02*
D03*
Y229429D02*
D03*
Y231988D02*
D03*
Y234547D02*
D03*
Y237106D02*
D03*
X241732Y203838D02*
D03*
Y206398D02*
D03*
Y208957D02*
D03*
Y211516D02*
D03*
Y214075D02*
D03*
Y216634D02*
D03*
Y219193D02*
D03*
Y221752D02*
D03*
Y224311D02*
D03*
Y226870D02*
D03*
Y229429D02*
D03*
Y231988D02*
D03*
Y234547D02*
D03*
Y237106D02*
D03*
X270079Y251083D02*
D03*
Y253642D02*
D03*
Y256201D02*
D03*
Y258760D02*
D03*
Y261319D02*
D03*
Y263878D02*
D03*
Y266437D02*
D03*
Y268996D02*
D03*
Y271555D02*
D03*
Y274114D02*
D03*
Y276673D02*
D03*
Y279232D02*
D03*
Y281791D02*
D03*
Y284350D02*
D03*
X241732Y251083D02*
D03*
Y253642D02*
D03*
Y256201D02*
D03*
Y258760D02*
D03*
Y261319D02*
D03*
Y263878D02*
D03*
Y266437D02*
D03*
Y268996D02*
D03*
Y271555D02*
D03*
Y274114D02*
D03*
Y276673D02*
D03*
Y279232D02*
D03*
Y281791D02*
D03*
Y284350D02*
D03*
D102*
X234941Y80709D02*
D03*
X241437D02*
D03*
X276870Y80709D02*
D03*
X270374D02*
D03*
D103*
X255906Y39351D02*
D03*
Y23642D02*
D03*
D104*
X110236Y312992D02*
D03*
Y324803D02*
D03*
D105*
X287008Y138091D02*
D03*
Y143799D02*
D03*
X82677Y249114D02*
D03*
Y254823D02*
D03*
X322835Y249114D02*
D03*
Y254823D02*
D03*
X157480Y249114D02*
D03*
Y254823D02*
D03*
X397638Y249114D02*
D03*
Y254823D02*
D03*
D106*
X165354Y291339D02*
D03*
X162126D02*
D03*
X346811Y267717D02*
D03*
X350039D02*
D03*
X434685Y295276D02*
D03*
X431457D02*
D03*
X434685Y287402D02*
D03*
X431457D02*
D03*
D107*
X240354Y140748D02*
D03*
X238189D02*
D03*
X236024D02*
D03*
X247835D02*
D03*
X250000D02*
D03*
X252165D02*
D03*
X263976Y140748D02*
D03*
X261811D02*
D03*
X259646D02*
D03*
X271457D02*
D03*
X273622D02*
D03*
X275787D02*
D03*
D108*
X236221Y134843D02*
D03*
X240158D02*
D03*
X251969D02*
D03*
X248031D02*
D03*
X259842Y134843D02*
D03*
X263779D02*
D03*
X275591D02*
D03*
X271654D02*
D03*
D109*
X466142Y46457D02*
D03*
X458268Y43898D02*
D03*
Y49016D02*
D03*
D110*
X192913Y314508D02*
D03*
Y307539D02*
D03*
D111*
X221457Y21654D02*
D03*
X69882D02*
D03*
X441929D02*
D03*
X290354D02*
D03*
D112*
X145669Y47244D02*
D03*
X133858D02*
D03*
X157480D02*
D03*
X122047D02*
D03*
X169291D02*
D03*
X181102D02*
D03*
X110236D02*
D03*
X192913D02*
D03*
X98425D02*
D03*
X139764Y57087D02*
D03*
X151575D02*
D03*
X163386D02*
D03*
X175197D02*
D03*
X187008D02*
D03*
X127953D02*
D03*
X116142D02*
D03*
X104331D02*
D03*
Y68898D02*
D03*
X116142D02*
D03*
X127953D02*
D03*
X187008D02*
D03*
X175197D02*
D03*
X163386D02*
D03*
X151575D02*
D03*
X139764D02*
D03*
X98425Y78740D02*
D03*
X192913D02*
D03*
X110236D02*
D03*
X181102D02*
D03*
X169291D02*
D03*
X122047D02*
D03*
X157480D02*
D03*
X133858D02*
D03*
X145669D02*
D03*
X366142Y47244D02*
D03*
X354331D02*
D03*
X377953D02*
D03*
X342520D02*
D03*
X389764D02*
D03*
X401575D02*
D03*
X330709D02*
D03*
X413386D02*
D03*
X318898D02*
D03*
X360236Y57087D02*
D03*
X372047D02*
D03*
X383858D02*
D03*
X395669D02*
D03*
X407480D02*
D03*
X348425D02*
D03*
X336614D02*
D03*
X324803D02*
D03*
Y68898D02*
D03*
X336614D02*
D03*
X348425D02*
D03*
X407480D02*
D03*
X395669D02*
D03*
X383858D02*
D03*
X372047D02*
D03*
X360236D02*
D03*
X318898Y78740D02*
D03*
X413386D02*
D03*
X330709D02*
D03*
X401575D02*
D03*
X389764D02*
D03*
X342520D02*
D03*
X377953D02*
D03*
X354331D02*
D03*
X366142D02*
D03*
D113*
X27559Y27559D02*
D03*
Y366142D02*
D03*
X484252D02*
D03*
Y27559D02*
D03*
X27559Y196850D02*
D03*
X484252D02*
D03*
M02*
