G04 Layer_Color=65535*
%FSLAX25Y25*%
%MOIN*%
G70*
G01*
G75*
%ADD47C,0.00787*%
%ADD50C,0.01968*%
%ADD72C,0.00984*%
%ADD73C,0.02362*%
%ADD74R,0.19685X0.68504*%
G36*
X416693Y325590D02*
X394488D01*
Y335433D01*
X416693D01*
Y325590D01*
D02*
G37*
G36*
X451732D02*
X419685D01*
Y335433D01*
X451732D01*
Y325590D01*
D02*
G37*
%LPC*%
G36*
X411060Y332434D02*
X410341D01*
Y329854D01*
X408755Y332434D01*
X408007D01*
Y328590D01*
X408726D01*
Y331111D01*
X410282Y328590D01*
X411060D01*
Y332434D01*
D02*
G37*
G36*
X401987Y332498D02*
X401917D01*
X401770Y332492D01*
X401630Y332474D01*
X401496Y332451D01*
X401373Y332416D01*
X401256Y332375D01*
X401150Y332328D01*
X401051Y332281D01*
X400963Y332235D01*
X400881Y332182D01*
X400811Y332135D01*
X400753Y332088D01*
X400700Y332047D01*
X400665Y332012D01*
X400636Y331989D01*
X400618Y331971D01*
X400612Y331965D01*
X400524Y331860D01*
X400448Y331749D01*
X400384Y331632D01*
X400326Y331509D01*
X400279Y331386D01*
X400244Y331258D01*
X400209Y331141D01*
X400185Y331018D01*
X400162Y330907D01*
X400144Y330807D01*
X400138Y330714D01*
X400127Y330632D01*
Y330567D01*
X400121Y330515D01*
Y330486D01*
Y330474D01*
X400127Y330310D01*
X400144Y330152D01*
X400168Y330006D01*
X400197Y329871D01*
X400238Y329743D01*
X400279Y329626D01*
X400320Y329514D01*
X400366Y329421D01*
X400413Y329333D01*
X400454Y329257D01*
X400501Y329193D01*
X400536Y329140D01*
X400565Y329099D01*
X400589Y329070D01*
X400606Y329052D01*
X400612Y329046D01*
X400706Y328953D01*
X400805Y328877D01*
X400911Y328806D01*
X401016Y328748D01*
X401121Y328695D01*
X401227Y328654D01*
X401326Y328619D01*
X401425Y328590D01*
X401519Y328567D01*
X401601Y328555D01*
X401677Y328543D01*
X401741Y328532D01*
X401794D01*
X401835Y328526D01*
X401870D01*
X401981Y328532D01*
X402092Y328537D01*
X402192Y328555D01*
X402291Y328573D01*
X402379Y328596D01*
X402461Y328619D01*
X402537Y328649D01*
X402607Y328678D01*
X402671Y328707D01*
X402730Y328736D01*
X402777Y328760D01*
X402818Y328783D01*
X402847Y328801D01*
X402870Y328818D01*
X402882Y328824D01*
X402888Y328830D01*
X402964Y328888D01*
X403028Y328959D01*
X403151Y329105D01*
X403251Y329263D01*
X403327Y329415D01*
X403362Y329485D01*
X403391Y329555D01*
X403414Y329614D01*
X403432Y329666D01*
X403449Y329713D01*
X403461Y329743D01*
X403467Y329766D01*
Y329772D01*
X402712Y330006D01*
X402671Y329854D01*
X402619Y329731D01*
X402566Y329620D01*
X402514Y329532D01*
X402467Y329468D01*
X402426Y329415D01*
X402402Y329392D01*
X402391Y329380D01*
X402303Y329315D01*
X402215Y329269D01*
X402127Y329234D01*
X402040Y329210D01*
X401969Y329199D01*
X401911Y329193D01*
X401888Y329187D01*
X401858D01*
X401782Y329193D01*
X401712Y329199D01*
X401577Y329234D01*
X401460Y329280D01*
X401361Y329339D01*
X401285Y329397D01*
X401227Y329444D01*
X401191Y329479D01*
X401186Y329485D01*
X401180Y329491D01*
X401133Y329555D01*
X401098Y329626D01*
X401063Y329702D01*
X401033Y329784D01*
X400987Y329959D01*
X400957Y330129D01*
X400946Y330210D01*
X400934Y330287D01*
X400928Y330351D01*
Y330415D01*
X400922Y330462D01*
Y330503D01*
Y330526D01*
Y330532D01*
X400928Y330655D01*
X400934Y330772D01*
X400946Y330883D01*
X400963Y330977D01*
X400981Y331070D01*
X401004Y331152D01*
X401028Y331223D01*
X401057Y331287D01*
X401080Y331345D01*
X401104Y331392D01*
X401127Y331433D01*
X401145Y331468D01*
X401162Y331492D01*
X401174Y331515D01*
X401186Y331521D01*
Y331527D01*
X401238Y331579D01*
X401291Y331632D01*
X401349Y331673D01*
X401402Y331708D01*
X401519Y331761D01*
X401630Y331796D01*
X401730Y331819D01*
X401770Y331825D01*
X401806Y331831D01*
X401835Y331837D01*
X401876D01*
X401987Y331831D01*
X402086Y331808D01*
X402180Y331784D01*
X402256Y331749D01*
X402320Y331720D01*
X402361Y331691D01*
X402391Y331667D01*
X402402Y331661D01*
X402478Y331591D01*
X402537Y331515D01*
X402590Y331439D01*
X402625Y331363D01*
X402654Y331293D01*
X402677Y331240D01*
X402683Y331205D01*
X402689Y331199D01*
Y331193D01*
X403455Y331375D01*
X403403Y331539D01*
X403338Y331679D01*
X403268Y331796D01*
X403204Y331895D01*
X403145Y331977D01*
X403098Y332030D01*
X403069Y332065D01*
X403063Y332077D01*
X403057D01*
X402970Y332153D01*
X402882Y332217D01*
X402788Y332270D01*
X402695Y332322D01*
X402601Y332363D01*
X402502Y332393D01*
X402414Y332422D01*
X402320Y332445D01*
X402239Y332463D01*
X402162Y332474D01*
X402092Y332486D01*
X402034Y332492D01*
X401987Y332498D01*
D02*
G37*
G36*
X406053Y332434D02*
X405234D01*
X403742Y328590D01*
X404561D01*
X404877Y329462D01*
X406427D01*
X406755Y328590D01*
X407597D01*
X406053Y332434D01*
D02*
G37*
%LPD*%
G36*
X406176Y330111D02*
X405117D01*
X405637Y331539D01*
X406176Y330111D01*
D02*
G37*
%LPC*%
G36*
X434661Y332436D02*
X432942D01*
Y328593D01*
X433720D01*
Y330196D01*
X433965D01*
X434047Y330190D01*
X434112Y330184D01*
X434164Y330172D01*
X434205Y330167D01*
X434235Y330155D01*
X434252Y330149D01*
X434258D01*
X434305Y330132D01*
X434346Y330108D01*
X434422Y330055D01*
X434451Y330032D01*
X434474Y330009D01*
X434486Y329997D01*
X434492Y329991D01*
X434515Y329968D01*
X434539Y329933D01*
X434603Y329851D01*
X434673Y329763D01*
X434738Y329664D01*
X434802Y329570D01*
X434831Y329535D01*
X434855Y329494D01*
X434872Y329465D01*
X434890Y329441D01*
X434896Y329430D01*
X434901Y329424D01*
X435451Y328593D01*
X436381D01*
X435913Y329342D01*
X435861Y329424D01*
X435814Y329494D01*
X435773Y329564D01*
X435726Y329628D01*
X435656Y329734D01*
X435592Y329821D01*
X435539Y329886D01*
X435504Y329927D01*
X435480Y329956D01*
X435475Y329962D01*
X435410Y330026D01*
X435340Y330085D01*
X435270Y330143D01*
X435206Y330190D01*
X435147Y330231D01*
X435100Y330260D01*
X435071Y330278D01*
X435065Y330284D01*
X435059D01*
X435153Y330301D01*
X435235Y330319D01*
X435317Y330342D01*
X435387Y330371D01*
X435457Y330401D01*
X435522Y330430D01*
X435574Y330459D01*
X435627Y330488D01*
X435668Y330518D01*
X435709Y330547D01*
X435738Y330576D01*
X435767Y330594D01*
X435785Y330617D01*
X435802Y330629D01*
X435814Y330635D01*
Y330641D01*
X435861Y330693D01*
X435902Y330752D01*
X435960Y330869D01*
X436007Y330992D01*
X436042Y331103D01*
X436060Y331202D01*
X436065Y331243D01*
Y331284D01*
X436071Y331313D01*
Y331337D01*
Y331348D01*
Y331354D01*
X436065Y331477D01*
X436048Y331594D01*
X436019Y331694D01*
X435990Y331781D01*
X435954Y331857D01*
X435931Y331910D01*
X435908Y331945D01*
X435902Y331957D01*
X435831Y332050D01*
X435761Y332126D01*
X435685Y332191D01*
X435615Y332243D01*
X435551Y332284D01*
X435498Y332314D01*
X435463Y332325D01*
X435457Y332331D01*
X435451D01*
X435399Y332349D01*
X435334Y332366D01*
X435194Y332390D01*
X435048Y332413D01*
X434901Y332425D01*
X434837Y332431D01*
X434714D01*
X434661Y332436D01*
D02*
G37*
G36*
X439061D02*
X438283D01*
Y328593D01*
X439061D01*
Y332436D01*
D02*
G37*
G36*
X444852D02*
X443378D01*
Y328593D01*
X444156D01*
Y330044D01*
X444846D01*
X444928Y330050D01*
X445004D01*
X445080Y330055D01*
X445145Y330061D01*
X445203Y330067D01*
X445256Y330073D01*
X445303D01*
X445344Y330079D01*
X445379Y330085D01*
X445408Y330091D01*
X445431D01*
X445449Y330097D01*
X445461D01*
X445537Y330120D01*
X445613Y330143D01*
X445677Y330172D01*
X445741Y330208D01*
X445788Y330231D01*
X445829Y330254D01*
X445858Y330272D01*
X445864Y330278D01*
X445934Y330336D01*
X445999Y330395D01*
X446057Y330459D01*
X446104Y330523D01*
X446139Y330576D01*
X446169Y330617D01*
X446186Y330646D01*
X446192Y330658D01*
X446233Y330752D01*
X446268Y330851D01*
X446291Y330951D01*
X446303Y331044D01*
X446315Y331126D01*
X446321Y331190D01*
Y331214D01*
Y331231D01*
Y331243D01*
Y331249D01*
X446309Y331413D01*
X446285Y331559D01*
X446250Y331688D01*
X446209Y331799D01*
X446163Y331881D01*
X446145Y331916D01*
X446128Y331945D01*
X446116Y331968D01*
X446104Y331986D01*
X446092Y331992D01*
Y331998D01*
X446005Y332097D01*
X445911Y332179D01*
X445823Y332249D01*
X445736Y332296D01*
X445659Y332337D01*
X445595Y332360D01*
X445572Y332366D01*
X445560Y332372D01*
X445548Y332378D01*
X445542D01*
X445496Y332390D01*
X445443Y332396D01*
X445379Y332407D01*
X445308Y332413D01*
X445156Y332425D01*
X444999Y332431D01*
X444922D01*
X444852Y332436D01*
D02*
G37*
G36*
X432550D02*
X431719D01*
X430783Y329593D01*
X429806Y332436D01*
X428969D01*
X430344Y328593D01*
X431181D01*
X432550Y332436D01*
D02*
G37*
G36*
X427408D02*
X426588D01*
X425097Y328593D01*
X425916D01*
X426232Y329465D01*
X427782D01*
X428110Y328593D01*
X428952D01*
X427408Y332436D01*
D02*
G37*
G36*
X441202Y332501D02*
X441132D01*
X440974Y332495D01*
X440827Y332477D01*
X440699Y332460D01*
X440588Y332436D01*
X440500Y332407D01*
X440465Y332396D01*
X440436Y332390D01*
X440412Y332378D01*
X440389Y332372D01*
X440383Y332366D01*
X440377D01*
X440266Y332314D01*
X440172Y332249D01*
X440090Y332185D01*
X440026Y332121D01*
X439973Y332062D01*
X439932Y332015D01*
X439909Y331986D01*
X439903Y331980D01*
Y331974D01*
X439851Y331875D01*
X439810Y331781D01*
X439780Y331688D01*
X439763Y331606D01*
X439751Y331530D01*
X439739Y331477D01*
Y331454D01*
Y331436D01*
Y331430D01*
Y331424D01*
X439745Y331343D01*
X439757Y331261D01*
X439774Y331185D01*
X439792Y331114D01*
X439851Y330980D01*
X439915Y330869D01*
X439950Y330822D01*
X439979Y330775D01*
X440008Y330740D01*
X440038Y330711D01*
X440055Y330687D01*
X440073Y330670D01*
X440085Y330658D01*
X440090Y330652D01*
X440143Y330611D01*
X440202Y330570D01*
X440330Y330494D01*
X440476Y330430D01*
X440623Y330377D01*
X440751Y330330D01*
X440810Y330313D01*
X440863Y330301D01*
X440904Y330290D01*
X440933Y330278D01*
X440956Y330272D01*
X440962D01*
X441050Y330249D01*
X441126Y330231D01*
X441196Y330213D01*
X441260Y330196D01*
X441319Y330178D01*
X441366Y330167D01*
X441412Y330155D01*
X441447Y330143D01*
X441506Y330126D01*
X441547Y330114D01*
X441570Y330102D01*
X441576D01*
X441646Y330073D01*
X441705Y330044D01*
X441752Y330020D01*
X441793Y329991D01*
X441822Y329968D01*
X441840Y329950D01*
X441851Y329939D01*
X441857Y329933D01*
X441886Y329898D01*
X441904Y329857D01*
X441927Y329786D01*
X441933Y329751D01*
X441939Y329728D01*
Y329710D01*
Y329704D01*
X441933Y329628D01*
X441910Y329558D01*
X441880Y329494D01*
X441845Y329441D01*
X441804Y329395D01*
X441775Y329365D01*
X441752Y329342D01*
X441746Y329336D01*
X441670Y329283D01*
X441582Y329242D01*
X441489Y329219D01*
X441395Y329196D01*
X441313Y329184D01*
X441249Y329178D01*
X441184D01*
X441056Y329184D01*
X440944Y329207D01*
X440851Y329237D01*
X440769Y329266D01*
X440705Y329301D01*
X440658Y329324D01*
X440628Y329348D01*
X440617Y329353D01*
X440547Y329430D01*
X440488Y329517D01*
X440441Y329611D01*
X440406Y329699D01*
X440377Y329786D01*
X440359Y329851D01*
X440354Y329880D01*
Y329898D01*
X440348Y329909D01*
Y329915D01*
X439593Y329839D01*
X439611Y329722D01*
X439634Y329611D01*
X439663Y329506D01*
X439692Y329412D01*
X439734Y329324D01*
X439769Y329242D01*
X439810Y329172D01*
X439851Y329102D01*
X439891Y329049D01*
X439926Y328997D01*
X439962Y328956D01*
X439991Y328921D01*
X440020Y328891D01*
X440038Y328874D01*
X440049Y328862D01*
X440055Y328856D01*
X440131Y328798D01*
X440219Y328745D01*
X440307Y328704D01*
X440394Y328663D01*
X440488Y328634D01*
X440582Y328605D01*
X440763Y328564D01*
X440851Y328552D01*
X440927Y328540D01*
X440997Y328535D01*
X441056Y328529D01*
X441108Y328523D01*
X441178D01*
X441360Y328529D01*
X441518Y328546D01*
X441658Y328564D01*
X441781Y328593D01*
X441834Y328605D01*
X441880Y328616D01*
X441916Y328628D01*
X441951Y328634D01*
X441974Y328646D01*
X441992Y328651D01*
X442003Y328657D01*
X442009D01*
X442132Y328716D01*
X442231Y328786D01*
X442325Y328856D01*
X442395Y328926D01*
X442454Y328985D01*
X442495Y329038D01*
X442524Y329073D01*
X442530Y329079D01*
Y329084D01*
X442594Y329196D01*
X442641Y329307D01*
X442670Y329412D01*
X442694Y329506D01*
X442705Y329588D01*
X442717Y329652D01*
Y329675D01*
Y329693D01*
Y329704D01*
Y329710D01*
X442711Y329839D01*
X442694Y329956D01*
X442664Y330061D01*
X442641Y330149D01*
X442612Y330219D01*
X442582Y330278D01*
X442565Y330307D01*
X442559Y330319D01*
X442495Y330406D01*
X442430Y330488D01*
X442360Y330553D01*
X442290Y330611D01*
X442231Y330652D01*
X442185Y330687D01*
X442149Y330705D01*
X442144Y330711D01*
X442138D01*
X442085Y330740D01*
X442027Y330763D01*
X441892Y330816D01*
X441758Y330857D01*
X441617Y330904D01*
X441494Y330933D01*
X441442Y330951D01*
X441395Y330962D01*
X441354Y330974D01*
X441325Y330980D01*
X441307Y330986D01*
X441301D01*
X441202Y331009D01*
X441108Y331038D01*
X441026Y331062D01*
X440956Y331085D01*
X440886Y331103D01*
X440833Y331126D01*
X440781Y331144D01*
X440740Y331167D01*
X440699Y331185D01*
X440669Y331196D01*
X440623Y331220D01*
X440599Y331237D01*
X440593Y331243D01*
X440558Y331284D01*
X440529Y331319D01*
X440512Y331360D01*
X440494Y331395D01*
X440488Y331430D01*
X440482Y331454D01*
Y331471D01*
Y331477D01*
X440488Y331530D01*
X440500Y331576D01*
X440517Y331617D01*
X440541Y331653D01*
X440564Y331682D01*
X440582Y331699D01*
X440593Y331711D01*
X440599Y331717D01*
X440675Y331764D01*
X440763Y331799D01*
X440851Y331822D01*
X440933Y331840D01*
X441009Y331852D01*
X441073Y331857D01*
X441126D01*
X441243Y331852D01*
X441342Y331834D01*
X441424Y331816D01*
X441494Y331793D01*
X441547Y331764D01*
X441582Y331746D01*
X441606Y331729D01*
X441611Y331723D01*
X441670Y331670D01*
X441717Y331606D01*
X441752Y331536D01*
X441781Y331465D01*
X441804Y331401D01*
X441816Y331348D01*
X441828Y331313D01*
Y331307D01*
Y331302D01*
X442606Y331331D01*
X442600Y331424D01*
X442582Y331518D01*
X442559Y331606D01*
X442536Y331688D01*
X442471Y331828D01*
X442442Y331892D01*
X442407Y331951D01*
X442372Y332004D01*
X442337Y332050D01*
X442308Y332091D01*
X442278Y332121D01*
X442255Y332144D01*
X442237Y332161D01*
X442226Y332173D01*
X442220Y332179D01*
X442149Y332238D01*
X442068Y332284D01*
X441986Y332331D01*
X441898Y332366D01*
X441717Y332425D01*
X441541Y332460D01*
X441459Y332472D01*
X441383Y332483D01*
X441313Y332489D01*
X441249Y332495D01*
X441202Y332501D01*
D02*
G37*
%LPD*%
G36*
X434656Y331781D02*
X434773D01*
X434825Y331775D01*
X434855D01*
X434872Y331770D01*
X434878D01*
X434942Y331752D01*
X435001Y331734D01*
X435048Y331711D01*
X435089Y331682D01*
X435124Y331658D01*
X435147Y331635D01*
X435159Y331623D01*
X435165Y331617D01*
X435200Y331571D01*
X435223Y331518D01*
X435247Y331465D01*
X435258Y331419D01*
X435264Y331378D01*
X435270Y331343D01*
Y331313D01*
Y331307D01*
X435264Y331243D01*
X435258Y331190D01*
X435247Y331138D01*
X435229Y331097D01*
X435211Y331062D01*
X435200Y331038D01*
X435194Y331021D01*
X435188Y331015D01*
X435159Y330974D01*
X435124Y330945D01*
X435053Y330892D01*
X435018Y330880D01*
X434995Y330869D01*
X434977Y330857D01*
X434972D01*
X434942Y330851D01*
X434901Y330839D01*
X434860Y330834D01*
X434808Y330828D01*
X434697Y330822D01*
X434580Y330816D01*
X434469Y330810D01*
X433720D01*
Y331787D01*
X434603D01*
X434656Y331781D01*
D02*
G37*
G36*
X444788D02*
X444887Y331775D01*
X444963D01*
X445016Y331770D01*
X445051Y331764D01*
X445075Y331758D01*
X445080D01*
X445151Y331740D01*
X445209Y331717D01*
X445268Y331688D01*
X445308Y331658D01*
X445350Y331629D01*
X445373Y331606D01*
X445390Y331588D01*
X445396Y331582D01*
X445437Y331530D01*
X445467Y331471D01*
X445490Y331413D01*
X445502Y331360D01*
X445513Y331313D01*
X445519Y331272D01*
Y331249D01*
Y331237D01*
X445513Y331179D01*
X445507Y331120D01*
X445490Y331068D01*
X445478Y331027D01*
X445461Y330992D01*
X445443Y330962D01*
X445437Y330945D01*
X445431Y330939D01*
X445396Y330892D01*
X445355Y330857D01*
X445314Y330822D01*
X445273Y330799D01*
X445238Y330775D01*
X445209Y330763D01*
X445191Y330757D01*
X445186Y330752D01*
X445156Y330740D01*
X445116Y330734D01*
X445028Y330717D01*
X444928Y330705D01*
X444823Y330699D01*
X444729D01*
X444688Y330693D01*
X444156D01*
Y331787D01*
X444735D01*
X444788Y331781D01*
D02*
G37*
G36*
X427530Y330114D02*
X426472D01*
X426992Y331541D01*
X427530Y330114D01*
D02*
G37*
D47*
X292913Y186614D02*
X301575D01*
X292913Y188976D02*
X301575D01*
X292913Y186614D02*
Y188976D01*
X301575Y186614D02*
Y188976D01*
X281102Y186614D02*
X289764D01*
X281102Y188976D02*
X289764D01*
X281102Y186614D02*
Y188976D01*
X289764Y186614D02*
Y188976D01*
X269291Y186614D02*
X277953D01*
X269291Y188976D02*
X277953D01*
X269291Y186614D02*
Y188976D01*
X277953Y186614D02*
Y188976D01*
X257480Y186614D02*
X266142D01*
X257480Y188976D02*
X266142D01*
X257480Y186614D02*
Y188976D01*
X266142Y186614D02*
Y188976D01*
X245669Y186614D02*
X254331D01*
X245669Y188976D02*
X254331D01*
X245669Y186614D02*
Y188976D01*
X254331Y186614D02*
Y188976D01*
X233858Y186614D02*
X242520D01*
X233858Y188976D02*
X242520D01*
X233858Y186614D02*
Y188976D01*
X242520Y186614D02*
Y188976D01*
X222047Y186614D02*
X230709D01*
X222047Y188976D02*
X230709D01*
X222047Y186614D02*
Y188976D01*
X230709Y186614D02*
Y188976D01*
X210236Y186614D02*
X218898D01*
X210236Y188976D02*
X218898D01*
X210236Y186614D02*
Y188976D01*
X218898Y186614D02*
Y188976D01*
X360630Y278346D02*
X367717D01*
X360630Y264961D02*
X367717D01*
X360630Y280709D02*
X367717D01*
X360630Y294094D02*
X367717D01*
X144095D02*
X151181D01*
X144095Y280709D02*
X151181D01*
X144095Y278346D02*
X151181D01*
X144095Y264961D02*
X151181D01*
X444095Y284646D02*
X453543D01*
X444095D02*
Y290158D01*
X453543D01*
Y284646D02*
Y290158D01*
X444095Y292520D02*
X453543D01*
X444095D02*
Y298031D01*
X453543D01*
Y292520D02*
Y298031D01*
X395000Y351575D02*
X417047D01*
Y339370D02*
Y351575D01*
X395000Y339370D02*
X417047D01*
X395000D02*
Y351575D01*
X419921Y339370D02*
Y361417D01*
Y339370D02*
X451968D01*
X419921Y361417D02*
X451968D01*
Y339370D02*
Y361417D01*
X320669Y286811D02*
X340748D01*
X320669Y272244D02*
X340748D01*
Y286811D01*
X320669Y272244D02*
Y286811D01*
X171063Y272244D02*
X191142D01*
X171063Y286811D02*
X191142D01*
X171063Y272244D02*
Y286811D01*
X191142Y272244D02*
Y286811D01*
X210630Y326772D02*
X214567D01*
X210630Y318898D02*
Y326772D01*
Y318898D02*
X214567D01*
Y326772D01*
X210630Y314961D02*
X214567D01*
X210630Y307087D02*
Y314961D01*
Y307087D02*
X214567D01*
Y314961D01*
X201181Y316929D02*
X208268D01*
X201181Y305118D02*
X208268D01*
Y316929D01*
X201181Y305118D02*
Y316929D01*
X297244Y326772D02*
X301181D01*
X297244Y318898D02*
Y326772D01*
Y318898D02*
X301181D01*
Y326772D01*
X210630Y342520D02*
X214567D01*
Y350394D01*
X210630D02*
X214567D01*
X210630Y342520D02*
Y350394D01*
X303543Y328740D02*
X310630D01*
X303543Y316929D02*
X310630D01*
Y328740D01*
X303543Y316929D02*
Y328740D01*
X201181Y340551D02*
X208268D01*
X201181Y352362D02*
X208268D01*
X201181Y340551D02*
Y352362D01*
X208268Y340551D02*
Y352362D01*
X297244Y346457D02*
X301181D01*
X297244Y338583D02*
Y346457D01*
Y338583D02*
X301181D01*
Y346457D01*
X297244Y350394D02*
X301181D01*
Y358268D01*
X297244D02*
X301181D01*
X297244Y350394D02*
Y358268D01*
X328740Y326772D02*
X332677D01*
X328740Y318898D02*
Y326772D01*
Y318898D02*
X332677D01*
Y326772D01*
X319291Y328740D02*
X326378D01*
X319291Y316929D02*
X326378D01*
Y328740D01*
X319291Y316929D02*
Y328740D01*
X216929Y65748D02*
Y69488D01*
X221850Y74409D01*
X216929Y52559D02*
X221850Y47638D01*
X216929Y52559D02*
Y56299D01*
X221850Y74409D02*
X243701D01*
Y65748D02*
Y74409D01*
Y47638D02*
Y56299D01*
X221850Y47638D02*
X243701D01*
X140945Y347244D02*
X150394D01*
X140945Y329921D02*
Y347244D01*
Y329921D02*
X150394D01*
Y347244D01*
X364173Y109055D02*
Y127165D01*
X348425Y109055D02*
Y127165D01*
X362165D02*
X364173D01*
X362165Y109055D02*
X364173D01*
X348425Y127165D02*
X350433D01*
X348425Y109055D02*
X350433D01*
X143701Y109055D02*
Y127165D01*
X127953Y109055D02*
Y127165D01*
X141693D02*
X143701D01*
X141693Y109055D02*
X143701D01*
X127953Y127165D02*
X129961D01*
X127953Y109055D02*
X129961D01*
X294094Y109055D02*
Y127165D01*
X278346Y109055D02*
Y127165D01*
X292087D02*
X294094D01*
X292087Y109055D02*
X294094D01*
X278346Y127165D02*
X280354D01*
X278346Y109055D02*
X280354D01*
X72835Y109055D02*
Y127165D01*
X57087Y109055D02*
Y127165D01*
X70827D02*
X72835D01*
X70827Y109055D02*
X72835D01*
X57087Y127165D02*
X59094D01*
X57087Y109055D02*
X59094D01*
X452756Y109055D02*
Y127165D01*
X437008Y109055D02*
Y127165D01*
X450748D02*
X452756D01*
X450748Y109055D02*
X452756D01*
X437008Y127165D02*
X439016D01*
X437008Y109055D02*
X439016D01*
X233465Y109055D02*
Y127165D01*
X217717Y109055D02*
Y127165D01*
X231457D02*
X233465D01*
X231457Y109055D02*
X233465D01*
X217717Y127165D02*
X219724D01*
X217717Y109055D02*
X219724D01*
X122244Y201575D02*
X123150D01*
X122244Y219685D02*
X123150D01*
X132756Y201575D02*
X133661D01*
X132756Y219685D02*
X133661D01*
X122244Y201575D02*
Y219685D01*
X133661Y201575D02*
Y219685D01*
X362402Y201575D02*
X363307D01*
X362402Y219685D02*
X363307D01*
X372914Y201575D02*
X373819D01*
X372914Y219685D02*
X373819D01*
X362402Y201575D02*
Y219685D01*
X373819Y201575D02*
Y219685D01*
X103149Y191811D02*
Y192717D01*
X121260Y191811D02*
Y192717D01*
X103149Y181299D02*
Y182205D01*
X121260Y181299D02*
Y182205D01*
X103149Y192717D02*
X121260D01*
X103149Y181299D02*
X121260D01*
X343307Y191811D02*
Y192717D01*
X361418Y191811D02*
Y192717D01*
X343307Y181299D02*
Y182205D01*
X361418Y181299D02*
Y182205D01*
X343307Y192717D02*
X361418D01*
X343307Y181299D02*
X361418D01*
X93701Y181299D02*
Y182205D01*
X75590Y181299D02*
Y182205D01*
X93701Y191811D02*
Y192717D01*
X75590Y191811D02*
Y192717D01*
Y181299D02*
X93701D01*
X75590Y192717D02*
X93701D01*
X333858Y181299D02*
Y182205D01*
X315748Y181299D02*
Y182205D01*
X333858Y191811D02*
Y192717D01*
X315748Y191811D02*
Y192717D01*
Y181299D02*
X333858D01*
X315748Y192717D02*
X333858D01*
X63189Y201575D02*
X64095D01*
X63189Y219685D02*
X64095D01*
X73701Y201575D02*
X74606D01*
X73701Y219685D02*
X74606D01*
X63189Y201575D02*
Y219685D01*
X74606Y201575D02*
Y219685D01*
X303346Y201575D02*
X304252D01*
X303346Y219685D02*
X304252D01*
X313858Y201575D02*
X314764D01*
X313858Y219685D02*
X314764D01*
X303346Y201575D02*
Y219685D01*
X314764Y201575D02*
Y219685D01*
X197047Y201575D02*
X197953D01*
X197047Y219685D02*
X197953D01*
X207559Y201575D02*
X208465D01*
X207559Y219685D02*
X208465D01*
X197047Y201575D02*
Y219685D01*
X208465Y201575D02*
Y219685D01*
X437205Y201575D02*
X438110D01*
X437205Y219685D02*
X438110D01*
X447717Y201575D02*
X448622D01*
X447717Y219685D02*
X448622D01*
X437205Y201575D02*
Y219685D01*
X448622Y201575D02*
Y219685D01*
X177953Y191811D02*
Y192717D01*
X196063Y191811D02*
Y192717D01*
X177953Y181299D02*
Y182205D01*
X196063Y181299D02*
Y182205D01*
X177953Y192717D02*
X196063D01*
X177953Y181299D02*
X196063D01*
X418110Y191811D02*
Y192717D01*
X436221Y191811D02*
Y192717D01*
X418110Y181299D02*
Y182205D01*
X436221Y181299D02*
Y182205D01*
X418110Y192717D02*
X436221D01*
X418110Y181299D02*
X436221D01*
X168504Y181299D02*
Y182205D01*
X150394Y181299D02*
Y182205D01*
X168504Y191811D02*
Y192717D01*
X150394Y191811D02*
Y192717D01*
Y181299D02*
X168504D01*
X150394Y192717D02*
X168504D01*
X408662Y181299D02*
Y182205D01*
X390551Y181299D02*
Y182205D01*
X408662Y191811D02*
Y192717D01*
X390551Y191811D02*
Y192717D01*
Y181299D02*
X408662D01*
X390551Y192717D02*
X408662D01*
X137992Y201575D02*
X138898D01*
X137992Y219685D02*
X138898D01*
X148504Y201575D02*
X149409D01*
X148504Y219685D02*
X149409D01*
X137992Y201575D02*
Y219685D01*
X149409Y201575D02*
Y219685D01*
X378150Y201575D02*
X379055D01*
X378150Y219685D02*
X379055D01*
X388661Y201575D02*
X389567D01*
X388661Y219685D02*
X389567D01*
X378150Y201575D02*
Y219685D01*
X389567Y201575D02*
Y219685D01*
X383858Y109055D02*
Y127165D01*
X368110Y109055D02*
Y127165D01*
X381851D02*
X383858D01*
X381851Y109055D02*
X383858D01*
X368110Y127165D02*
X370118D01*
X368110Y109055D02*
X370118D01*
X163386Y109055D02*
Y127165D01*
X147638Y109055D02*
Y127165D01*
X161378D02*
X163386D01*
X161378Y109055D02*
X163386D01*
X147638Y127165D02*
X149646D01*
X147638Y109055D02*
X149646D01*
X117323Y328346D02*
X126772D01*
X117323Y309449D02*
Y328346D01*
Y309449D02*
X126772D01*
Y328346D01*
X55118Y21654D02*
Y37402D01*
X236220Y21654D02*
Y37402D01*
X204724D02*
X236220D01*
X204724D02*
Y88583D01*
X86614D02*
X204724D01*
X86614Y37402D02*
Y88583D01*
X55118Y37402D02*
X86614D01*
X275591Y21654D02*
Y37402D01*
X456693Y21654D02*
Y37402D01*
X425197D02*
X456693D01*
X425197D02*
Y88583D01*
X307087D02*
X425197D01*
X307087Y37402D02*
Y88583D01*
X275591Y37402D02*
X307087D01*
X163189Y317520D02*
Y343898D01*
X175394Y317520D02*
Y343898D01*
X163189D02*
X175394D01*
X163189Y317520D02*
X175394D01*
X281890Y308661D02*
Y360630D01*
X229921Y308661D02*
Y360630D01*
X281890D01*
X229921Y308661D02*
X281890D01*
X77756Y234055D02*
X119095D01*
X77756Y206890D02*
X119095D01*
Y234055D01*
X77756Y206890D02*
Y234055D01*
X152559Y206890D02*
Y234055D01*
X193898Y206890D02*
Y234055D01*
X152559Y206890D02*
X193898D01*
X152559Y234055D02*
X193898D01*
X317914D02*
X359252D01*
X317914Y206890D02*
X359252D01*
Y234055D01*
X317914Y206890D02*
Y234055D01*
X392717Y206890D02*
Y234055D01*
X434055Y206890D02*
Y234055D01*
X392717Y206890D02*
X434055D01*
X392717Y234055D02*
X434055D01*
X335138Y97835D02*
Y138386D01*
X306594Y97835D02*
Y138386D01*
Y97835D02*
X335138D01*
X306594Y138386D02*
X335138D01*
X86122Y138386D02*
X114665D01*
X86122Y97835D02*
X114665D01*
X86122D02*
Y138386D01*
X114665Y97835D02*
Y138386D01*
X425689Y97835D02*
Y138386D01*
X397146Y97835D02*
Y138386D01*
Y97835D02*
X425689D01*
X397146Y138386D02*
X425689D01*
X176673D02*
X205217D01*
X176673Y97835D02*
X205217D01*
X176673D02*
Y138386D01*
X205217Y97835D02*
Y138386D01*
X344094Y312992D02*
Y332677D01*
X356693Y312992D02*
Y332677D01*
X344094D02*
X356693D01*
X344094Y312992D02*
X356693D01*
X304626Y339665D02*
X304724D01*
X303839Y340453D02*
Y348032D01*
Y360335D01*
X304626Y361122D02*
X304724D01*
X317323D02*
X317421D01*
X318209Y352756D02*
Y360335D01*
X317323Y339665D02*
X317421D01*
X318209Y340453D02*
Y352756D01*
X303839Y340453D02*
X304626Y339665D01*
X303839Y360335D02*
X304626Y361122D01*
X317421D02*
X318209Y360335D01*
X317421Y339665D02*
X318209Y340453D01*
X265354Y199803D02*
Y241142D01*
X246457Y199803D02*
Y241142D01*
Y199803D02*
X265354D01*
X246457Y241142D02*
X265354D01*
Y247047D02*
Y288386D01*
X246457Y247047D02*
Y288386D01*
Y247047D02*
X265354D01*
X246457Y288386D02*
X265354D01*
X232283Y77165D02*
Y84252D01*
X244094Y77165D02*
Y84252D01*
X232283D02*
X244094D01*
X232283Y77165D02*
X244094D01*
X129134Y310236D02*
X138583D01*
Y327559D01*
X129134D02*
X138583D01*
X129134Y310236D02*
Y327559D01*
X129134Y347244D02*
X138583D01*
X129134Y329921D02*
Y347244D01*
Y329921D02*
X138583D01*
Y347244D01*
X143701Y313346D02*
X147638D01*
Y321220D01*
X143701D02*
X147638D01*
X143701Y313346D02*
Y321220D01*
X268110Y74409D02*
X289961D01*
X268110Y65748D02*
Y74409D01*
Y47638D02*
Y56299D01*
Y47638D02*
X289961D01*
X294882Y65748D02*
Y69488D01*
X289961Y74409D02*
X294882Y69488D01*
X289961Y47638D02*
X294882Y52559D01*
Y56299D01*
X262205Y42224D02*
X263091D01*
X248720D02*
X249606D01*
X262205Y20768D02*
X263091D01*
X248720D02*
X249606D01*
X263091D02*
Y42224D01*
X248720Y20768D02*
Y42224D01*
X106890Y316535D02*
Y321260D01*
X113583Y316535D02*
Y321260D01*
X279528Y77165D02*
Y84252D01*
X267717Y77165D02*
Y84252D01*
Y77165D02*
X279528D01*
X267717Y84252D02*
X279528D01*
X371161Y135039D02*
Y140551D01*
Y135039D02*
X380610D01*
Y140551D01*
X371161D02*
X380610D01*
X284252Y145669D02*
X289764D01*
X284252Y136221D02*
Y145669D01*
Y136221D02*
X289764D01*
Y145669D01*
X151575Y135039D02*
Y140551D01*
Y135039D02*
X161024D01*
Y140551D01*
X151575D02*
X161024D01*
X60630Y135039D02*
Y140551D01*
Y135039D02*
X70079D01*
Y140551D01*
X60630D02*
X70079D01*
X294094Y298425D02*
Y303937D01*
X284646D02*
X294094D01*
X284646Y298425D02*
Y303937D01*
Y298425D02*
X294094D01*
X159803Y289370D02*
Y293307D01*
Y289370D02*
X167677D01*
Y293307D01*
X159803D02*
X167677D01*
X352362Y265748D02*
Y269685D01*
X344488D02*
X352362D01*
X344488Y265748D02*
Y269685D01*
Y265748D02*
X352362D01*
X277559Y230315D02*
X281496D01*
X277559Y222441D02*
Y230315D01*
Y222441D02*
X281496D01*
Y230315D01*
X277559Y277559D02*
X281496D01*
X277559Y269685D02*
Y277559D01*
Y269685D02*
X281496D01*
Y277559D01*
X223622Y225590D02*
Y231102D01*
Y225590D02*
X233071D01*
Y231102D01*
X223622D02*
X233071D01*
X223622Y272835D02*
Y278346D01*
Y272835D02*
X233071D01*
Y278346D01*
X223622D02*
X233071D01*
X79921Y256693D02*
X85433D01*
X79921Y247244D02*
Y256693D01*
Y247244D02*
X85433D01*
Y256693D01*
X320079D02*
X325591D01*
X320079Y247244D02*
Y256693D01*
Y247244D02*
X325591D01*
Y256693D01*
X154724D02*
X160236D01*
X154724Y247244D02*
Y256693D01*
Y247244D02*
X160236D01*
Y256693D01*
X394882D02*
X400394D01*
X394882Y247244D02*
Y256693D01*
Y247244D02*
X400394D01*
Y256693D01*
X241535Y137598D02*
Y137992D01*
X234842Y137598D02*
Y137992D01*
X241535D01*
X234842Y137598D02*
X241535D01*
X246654D02*
X253346D01*
X246654Y137992D02*
X253346D01*
X246654Y137598D02*
Y137992D01*
X253346Y137598D02*
Y137992D01*
X265158Y137598D02*
Y137992D01*
X258465Y137598D02*
Y137992D01*
X265158D01*
X258465Y137598D02*
X265158D01*
X270276D02*
X276969D01*
X270276Y137992D02*
X276969D01*
X270276Y137598D02*
Y137992D01*
X276969Y137598D02*
Y137992D01*
X464862Y42126D02*
Y43701D01*
X460925Y42126D02*
X464862D01*
Y49213D02*
Y50787D01*
X460925D02*
X464862D01*
X429134Y293307D02*
Y297244D01*
Y293307D02*
X437008D01*
Y297244D01*
X429134D02*
X437008D01*
X429134Y285433D02*
Y289370D01*
Y285433D02*
X437008D01*
Y289370D01*
X429134D02*
X437008D01*
X188583Y318110D02*
X197244D01*
X188583Y303937D02*
Y318110D01*
Y303937D02*
X197244D01*
Y318110D01*
X79134Y284646D02*
X86221D01*
X79134Y298031D02*
X86221D01*
X53150Y364173D02*
Y366929D01*
X49213Y364173D02*
X57087D01*
X50787Y361811D02*
X55512D01*
X52362Y359449D02*
X53937D01*
X95669Y306693D02*
Y309055D01*
X87008Y306693D02*
Y309055D01*
X95669D01*
X87008Y306693D02*
X95669D01*
X65616Y370626D02*
X63910Y369774D01*
X62205Y368068D01*
Y366363D01*
X63058Y365510D01*
X64763D01*
X65616Y366363D01*
Y367215D01*
X64763Y368068D01*
X62205D01*
X67321Y368921D02*
X70732Y365510D01*
X69027Y367215D01*
X70732Y368921D01*
X67321Y365510D01*
X63058Y357480D02*
Y362597D01*
X64763D02*
Y357480D01*
X62205Y360891D02*
X64763D01*
X65616D01*
X62205Y359186D02*
X65616D01*
X70732Y362597D02*
X69027Y361744D01*
X67321Y360038D01*
Y358333D01*
X68174Y357480D01*
X69879D01*
X70732Y358333D01*
Y359186D01*
X69879Y360038D01*
X67321D01*
X72438D02*
X75849D01*
X77554Y361744D02*
X78407Y362597D01*
X80112D01*
X80965Y361744D01*
Y360891D01*
X80112Y360038D01*
X79260D01*
X80112D01*
X80965Y359186D01*
Y358333D01*
X80112Y357480D01*
X78407D01*
X77554Y358333D01*
X86082Y357480D02*
X82671D01*
X86082Y360891D01*
Y361744D01*
X85229Y362597D01*
X83523D01*
X82671Y361744D01*
X282679Y166142D02*
X287402D01*
Y168503D01*
X286614Y169290D01*
X283466D01*
X282679Y168503D01*
Y166142D01*
X287402Y174013D02*
Y170865D01*
X284253Y174013D01*
X283466D01*
X282679Y173226D01*
Y171652D01*
X283466Y170865D01*
X287402Y178736D02*
Y175587D01*
X284253Y178736D01*
X283466D01*
X282679Y177949D01*
Y176375D01*
X283466Y175587D01*
X290553Y166142D02*
X295276D01*
Y168503D01*
X294488Y169290D01*
X291340D01*
X290553Y168503D01*
Y166142D01*
X295276Y174013D02*
Y170865D01*
X292127Y174013D01*
X291340D01*
X290553Y173226D01*
Y171652D01*
X291340Y170865D01*
X295276Y177949D02*
X290553D01*
X292914Y175587D01*
Y178736D01*
X298427Y166142D02*
X303150D01*
Y168503D01*
X302362Y169290D01*
X299214D01*
X298427Y168503D01*
Y166142D01*
X303150Y174013D02*
Y170865D01*
X300001Y174013D01*
X299214D01*
X298427Y173226D01*
Y171652D01*
X299214Y170865D01*
X298427Y175587D02*
Y178736D01*
X299214D01*
X302362Y175587D01*
X303150D01*
X306301Y166142D02*
X311024D01*
Y168503D01*
X310237Y169290D01*
X307088D01*
X306301Y168503D01*
Y166142D01*
X311024Y174013D02*
Y170865D01*
X307875Y174013D01*
X307088D01*
X306301Y173226D01*
Y171652D01*
X307088Y170865D01*
Y175587D02*
X306301Y176375D01*
Y177949D01*
X307088Y178736D01*
X307875D01*
X308662Y177949D01*
X309449Y178736D01*
X310237D01*
X311024Y177949D01*
Y176375D01*
X310237Y175587D01*
X309449D01*
X308662Y176375D01*
X307875Y175587D01*
X307088D01*
X308662Y176375D02*
Y177949D01*
X200002Y166142D02*
X204724D01*
Y168503D01*
X203937Y169290D01*
X200789D01*
X200002Y168503D01*
Y166142D01*
X204724Y170865D02*
Y172439D01*
Y171652D01*
X200002D01*
X200789Y170865D01*
X204724Y177162D02*
X200002D01*
X202363Y174800D01*
Y177949D01*
X207876Y166142D02*
X212598D01*
Y168503D01*
X211811Y169290D01*
X208663D01*
X207876Y168503D01*
Y166142D01*
X212598Y170865D02*
Y172439D01*
Y171652D01*
X207876D01*
X208663Y170865D01*
X207876Y177949D02*
X208663Y176375D01*
X210237Y174800D01*
X211811D01*
X212598Y175587D01*
Y177162D01*
X211811Y177949D01*
X211024D01*
X210237Y177162D01*
Y174800D01*
X215750Y166142D02*
X220472D01*
Y168503D01*
X219685Y169290D01*
X216537D01*
X215750Y168503D01*
Y166142D01*
X220472Y170865D02*
Y172439D01*
Y171652D01*
X215750D01*
X216537Y170865D01*
X215750Y174800D02*
Y177949D01*
X216537D01*
X219685Y174800D01*
X220472D01*
X223624Y166142D02*
X228346D01*
Y168503D01*
X227559Y169290D01*
X224411D01*
X223624Y168503D01*
Y166142D01*
X228346Y170865D02*
Y172439D01*
Y171652D01*
X223624D01*
X224411Y170865D01*
X227559Y174800D02*
X228346Y175587D01*
Y177162D01*
X227559Y177949D01*
X224411D01*
X223624Y177162D01*
Y175587D01*
X224411Y174800D01*
X225198D01*
X225985Y175587D01*
Y177949D01*
X285433Y157480D02*
Y162203D01*
X287794D01*
X288582Y161416D01*
Y159842D01*
X287794Y159055D01*
X285433D01*
X287007D02*
X288582Y157480D01*
X290156D02*
Y160629D01*
X291730Y162203D01*
X293304Y160629D01*
Y157480D01*
Y159842D01*
X290156D01*
X294879Y157480D02*
X296453D01*
X295666D01*
Y162203D01*
X294879Y161416D01*
X298815D02*
X299602Y162203D01*
X301176D01*
X301963Y161416D01*
Y158267D01*
X301176Y157480D01*
X299602D01*
X298815Y158267D01*
Y161416D01*
X210630Y157480D02*
Y162203D01*
X212991D01*
X213778Y161416D01*
Y159842D01*
X212991Y159055D01*
X210630D01*
X212204D02*
X213778Y157480D01*
X215353D02*
Y160629D01*
X216927Y162203D01*
X218501Y160629D01*
Y157480D01*
Y159842D01*
X215353D01*
X220076Y161416D02*
X220863Y162203D01*
X222437D01*
X223224Y161416D01*
Y160629D01*
X222437Y159842D01*
X223224Y159055D01*
Y158267D01*
X222437Y157480D01*
X220863D01*
X220076Y158267D01*
Y159055D01*
X220863Y159842D01*
X220076Y160629D01*
Y161416D01*
X220863Y159842D02*
X222437D01*
X285433Y149606D02*
Y154329D01*
X287794D01*
X288582Y153542D01*
Y151968D01*
X287794Y151181D01*
X285433D01*
X287007D02*
X288582Y149606D01*
X290156D02*
Y152755D01*
X291730Y154329D01*
X293304Y152755D01*
Y149606D01*
Y151968D01*
X290156D01*
X294879Y150393D02*
X295666Y149606D01*
X297240D01*
X298027Y150393D01*
Y153542D01*
X297240Y154329D01*
X295666D01*
X294879Y153542D01*
Y152755D01*
X295666Y151968D01*
X298027D01*
X210630Y149606D02*
Y154329D01*
X212991D01*
X213778Y153542D01*
Y151968D01*
X212991Y151181D01*
X210630D01*
X212204D02*
X213778Y149606D01*
X215353D02*
Y152755D01*
X216927Y154329D01*
X218501Y152755D01*
Y149606D01*
Y151968D01*
X215353D01*
X220076Y154329D02*
X223224D01*
Y153542D01*
X220076Y150393D01*
Y149606D01*
X370080Y251574D02*
X369293Y250787D01*
Y249212D01*
X370080Y248425D01*
X373229D01*
X374016Y249212D01*
Y250787D01*
X373229Y251574D01*
X374016Y253148D02*
X370867D01*
X369293Y254722D01*
X370867Y256297D01*
X374016D01*
X371654D01*
Y253148D01*
X369293Y261019D02*
Y257871D01*
X371654D01*
X370867Y259445D01*
Y260232D01*
X371654Y261019D01*
X373229D01*
X374016Y260232D01*
Y258658D01*
X373229Y257871D01*
X363385Y301180D02*
X362598Y301967D01*
X361023D01*
X360236Y301180D01*
Y298031D01*
X361023Y297244D01*
X362598D01*
X363385Y298031D01*
X364959Y297244D02*
Y300393D01*
X366533Y301967D01*
X368108Y300393D01*
Y297244D01*
Y299605D01*
X364959D01*
X372043Y297244D02*
Y301967D01*
X369682Y299605D01*
X372831D01*
X153545Y300393D02*
X152757Y299605D01*
Y298031D01*
X153545Y297244D01*
X156693D01*
X157480Y298031D01*
Y299605D01*
X156693Y300393D01*
X157480Y301967D02*
X154332D01*
X152757Y303541D01*
X154332Y305116D01*
X157480D01*
X155119D01*
Y301967D01*
X153545Y306690D02*
X152757Y307477D01*
Y309051D01*
X153545Y309838D01*
X154332D01*
X155119Y309051D01*
Y308264D01*
Y309051D01*
X155906Y309838D01*
X156693D01*
X157480Y309051D01*
Y307477D01*
X156693Y306690D01*
X142912Y259841D02*
X142125Y260628D01*
X140551D01*
X139764Y259841D01*
Y256693D01*
X140551Y255906D01*
X142125D01*
X142912Y256693D01*
X144487Y255906D02*
Y259054D01*
X146061Y260628D01*
X147635Y259054D01*
Y255906D01*
Y258267D01*
X144487D01*
X152358Y255906D02*
X149209D01*
X152358Y259054D01*
Y259841D01*
X151571Y260628D01*
X149997D01*
X149209Y259841D01*
X444882Y267717D02*
Y272439D01*
X447243D01*
X448031Y271652D01*
Y270078D01*
X447243Y269291D01*
X444882D01*
X446456D02*
X448031Y267717D01*
X449605D02*
X451179D01*
X450392D01*
Y272439D01*
X449605Y271652D01*
X456689Y267717D02*
X453541D01*
X456689Y270865D01*
Y271652D01*
X455902Y272439D01*
X454328D01*
X453541Y271652D01*
X444882Y275590D02*
Y280313D01*
X447243D01*
X448031Y279526D01*
Y277952D01*
X447243Y277165D01*
X444882D01*
X446456D02*
X448031Y275590D01*
X449605D02*
X451179D01*
X450392D01*
Y280313D01*
X449605Y279526D01*
X453541D02*
X454328Y280313D01*
X455902D01*
X456689Y279526D01*
Y278739D01*
X455902Y277952D01*
X455115D01*
X455902D01*
X456689Y277165D01*
Y276378D01*
X455902Y275590D01*
X454328D01*
X453541Y276378D01*
X467717Y302756D02*
X462994D01*
Y305117D01*
X463781Y305905D01*
X465355D01*
X466142Y305117D01*
Y302756D01*
Y304330D02*
X467717Y305905D01*
Y307479D02*
X464568D01*
X462994Y309053D01*
X464568Y310627D01*
X467717D01*
X465355D01*
Y307479D01*
X467717Y312202D02*
Y313776D01*
Y312989D01*
X462994D01*
X463781Y312202D01*
X462994Y319286D02*
Y316137D01*
X465355D01*
X464568Y317712D01*
Y318499D01*
X465355Y319286D01*
X466929D01*
X467717Y318499D01*
Y316925D01*
X466929Y316137D01*
X312206Y273622D02*
X316142D01*
X316929Y274409D01*
Y275984D01*
X316142Y276771D01*
X312206D01*
X316929Y278345D02*
Y279919D01*
Y279132D01*
X312206D01*
X312993Y278345D01*
X316929Y285429D02*
Y282281D01*
X313780Y285429D01*
X312993D01*
X312206Y284642D01*
Y283068D01*
X312993Y282281D01*
X194096Y275590D02*
X198032D01*
X198819Y276378D01*
Y277952D01*
X198032Y278739D01*
X194096D01*
Y283462D02*
X194883Y281888D01*
X196458Y280313D01*
X198032D01*
X198819Y281101D01*
Y282675D01*
X198032Y283462D01*
X197245D01*
X196458Y282675D01*
Y280313D01*
X395669Y273622D02*
X390946D01*
Y275984D01*
X391734Y276771D01*
X393308D01*
X394095Y275984D01*
Y273622D01*
Y275196D02*
X395669Y276771D01*
Y278345D02*
X392521D01*
X390946Y279919D01*
X392521Y281493D01*
X395669D01*
X393308D01*
Y278345D01*
X395669Y283068D02*
Y284642D01*
Y283855D01*
X390946D01*
X391734Y283068D01*
Y287003D02*
X390946Y287791D01*
Y289365D01*
X391734Y290152D01*
X392521D01*
X393308Y289365D01*
Y288578D01*
Y289365D01*
X394095Y290152D01*
X394882D01*
X395669Y289365D01*
Y287791D01*
X394882Y287003D01*
X120079Y273622D02*
X115356D01*
Y275984D01*
X116143Y276771D01*
X117717D01*
X118504Y275984D01*
Y273622D01*
Y275196D02*
X120079Y276771D01*
Y278345D02*
X116930D01*
X115356Y279919D01*
X116930Y281493D01*
X120079D01*
X117717D01*
Y278345D01*
X120079Y285429D02*
X115356D01*
X117717Y283068D01*
Y286216D01*
X423228Y255906D02*
Y260628D01*
X425590D01*
X426377Y259841D01*
Y258267D01*
X425590Y257480D01*
X423228D01*
X424803D02*
X426377Y255906D01*
X427951D02*
Y259054D01*
X429526Y260628D01*
X431100Y259054D01*
Y255906D01*
Y258267D01*
X427951D01*
X432674Y255906D02*
X434248D01*
X433461D01*
Y260628D01*
X432674Y259841D01*
X438971Y255906D02*
Y260628D01*
X436610Y258267D01*
X439758D01*
X183071Y255906D02*
Y260628D01*
X185432D01*
X186220Y259841D01*
Y258267D01*
X185432Y257480D01*
X183071D01*
X184645D02*
X186220Y255906D01*
X187794D02*
Y259054D01*
X189368Y260628D01*
X190942Y259054D01*
Y255906D01*
Y258267D01*
X187794D01*
X195665Y260628D02*
X192517D01*
Y258267D01*
X194091Y259054D01*
X194878D01*
X195665Y258267D01*
Y256693D01*
X194878Y255906D01*
X193304D01*
X192517Y256693D01*
X348425Y255906D02*
Y260628D01*
X350787D01*
X351574Y259841D01*
Y258267D01*
X350787Y257480D01*
X348425D01*
X349999D02*
X351574Y255906D01*
X353148D02*
Y259054D01*
X354722Y260628D01*
X356297Y259054D01*
Y255906D01*
Y258267D01*
X353148D01*
X357871Y255906D02*
X359445D01*
X358658D01*
Y260628D01*
X357871Y259841D01*
X364955Y255906D02*
X361807D01*
X364955Y259054D01*
Y259841D01*
X364168Y260628D01*
X362594D01*
X361807Y259841D01*
X110236Y255906D02*
Y260628D01*
X112598D01*
X113385Y259841D01*
Y258267D01*
X112598Y257480D01*
X110236D01*
X111811D02*
X113385Y255906D01*
X114959D02*
Y259054D01*
X116533Y260628D01*
X118108Y259054D01*
Y255906D01*
Y258267D01*
X114959D01*
X119682Y259841D02*
X120469Y260628D01*
X122043D01*
X122831Y259841D01*
Y259054D01*
X122043Y258267D01*
X121256D01*
X122043D01*
X122831Y257480D01*
Y256693D01*
X122043Y255906D01*
X120469D01*
X119682Y256693D01*
X210631Y333857D02*
X209844Y333070D01*
Y331496D01*
X210631Y330709D01*
X213780D01*
X214567Y331496D01*
Y333070D01*
X213780Y333857D01*
X214567Y335432D02*
Y337006D01*
Y336219D01*
X209844D01*
X210631Y335432D01*
Y339367D02*
X209844Y340154D01*
Y341729D01*
X210631Y342516D01*
X213780D01*
X214567Y341729D01*
Y340154D01*
X213780Y339367D01*
X210631D01*
Y294487D02*
X209844Y293700D01*
Y292126D01*
X210631Y291339D01*
X213780D01*
X214567Y292126D01*
Y293700D01*
X213780Y294487D01*
Y296061D02*
X214567Y296849D01*
Y298423D01*
X213780Y299210D01*
X210631D01*
X209844Y298423D01*
Y296849D01*
X210631Y296061D01*
X211418D01*
X212206Y296849D01*
Y299210D01*
X202757Y294487D02*
X201970Y293700D01*
Y292126D01*
X202757Y291339D01*
X205906D01*
X206693Y292126D01*
Y293700D01*
X205906Y294487D01*
X201970Y299210D02*
X202757Y297636D01*
X204331Y296061D01*
X205906D01*
X206693Y296849D01*
Y298423D01*
X205906Y299210D01*
X205119D01*
X204331Y298423D01*
Y296061D01*
X299214Y304330D02*
X298427Y303542D01*
Y301968D01*
X299214Y301181D01*
X302362D01*
X303150Y301968D01*
Y303542D01*
X302362Y304330D01*
X303150Y305904D02*
Y307478D01*
Y306691D01*
X298427D01*
X299214Y305904D01*
X302362Y309840D02*
X303150Y310627D01*
Y312201D01*
X302362Y312988D01*
X299214D01*
X298427Y312201D01*
Y310627D01*
X299214Y309840D01*
X300001D01*
X300788Y310627D01*
Y312988D01*
X210631Y359448D02*
X209844Y358661D01*
Y357086D01*
X210631Y356299D01*
X213780D01*
X214567Y357086D01*
Y358661D01*
X213780Y359448D01*
X214567Y361022D02*
Y362596D01*
Y361809D01*
X209844D01*
X210631Y361022D01*
X214567Y364958D02*
Y366532D01*
Y365745D01*
X209844D01*
X210631Y364958D01*
X307088Y304330D02*
X306301Y303542D01*
Y301968D01*
X307088Y301181D01*
X310237D01*
X311024Y301968D01*
Y303542D01*
X310237Y304330D01*
X311024Y309053D02*
Y305904D01*
X307875Y309053D01*
X307088D01*
X306301Y308265D01*
Y306691D01*
X307088Y305904D01*
Y310627D02*
X306301Y311414D01*
Y312988D01*
X307088Y313775D01*
X310237D01*
X311024Y312988D01*
Y311414D01*
X310237Y310627D01*
X307088D01*
X202757Y359448D02*
X201970Y358661D01*
Y357086D01*
X202757Y356299D01*
X205906D01*
X206693Y357086D01*
Y358661D01*
X205906Y359448D01*
X201970Y361022D02*
Y364171D01*
X202757D01*
X205906Y361022D01*
X206693D01*
X322836Y337794D02*
X322049Y337007D01*
Y335433D01*
X322836Y334646D01*
X325985D01*
X326772Y335433D01*
Y337007D01*
X325985Y337794D01*
X326772Y339369D02*
Y340943D01*
Y340156D01*
X322049D01*
X322836Y339369D01*
X322049Y343304D02*
Y346453D01*
X322836D01*
X325985Y343304D01*
X326772D01*
X322836Y357479D02*
X322049Y356692D01*
Y355118D01*
X322836Y354331D01*
X325985D01*
X326772Y355118D01*
Y356692D01*
X325985Y357479D01*
X326772Y359054D02*
Y360628D01*
Y359841D01*
X322049D01*
X322836Y359054D01*
Y362989D02*
X322049Y363776D01*
Y365351D01*
X322836Y366138D01*
X323623D01*
X324410Y365351D01*
X325197Y366138D01*
X325985D01*
X326772Y365351D01*
Y363776D01*
X325985Y362989D01*
X325197D01*
X324410Y363776D01*
X323623Y362989D01*
X322836D01*
X324410Y363776D02*
Y365351D01*
X328741Y304330D02*
X327954Y303542D01*
Y301968D01*
X328741Y301181D01*
X331890D01*
X332677Y301968D01*
Y303542D01*
X331890Y304330D01*
X332677Y309053D02*
Y305904D01*
X329529Y309053D01*
X328741D01*
X327954Y308265D01*
Y306691D01*
X328741Y305904D01*
X332677Y313775D02*
Y310627D01*
X329529Y313775D01*
X328741D01*
X327954Y312988D01*
Y311414D01*
X328741Y310627D01*
X320867Y304330D02*
X320080Y303542D01*
Y301968D01*
X320867Y301181D01*
X324016D01*
X324803Y301968D01*
Y303542D01*
X324016Y304330D01*
X324803Y309053D02*
Y305904D01*
X321655Y309053D01*
X320867D01*
X320080Y308265D01*
Y306691D01*
X320867Y305904D01*
X324803Y310627D02*
Y312201D01*
Y311414D01*
X320080D01*
X320867Y310627D01*
X215747Y82676D02*
X214960Y83463D01*
X213386D01*
X212598Y82676D01*
Y79527D01*
X213386Y78740D01*
X214960D01*
X215747Y79527D01*
X217321Y82676D02*
X218109Y83463D01*
X219683D01*
X220470Y82676D01*
Y81889D01*
X219683Y81102D01*
X220470Y80314D01*
Y79527D01*
X219683Y78740D01*
X218109D01*
X217321Y79527D01*
Y80314D01*
X218109Y81102D01*
X217321Y81889D01*
Y82676D01*
X218109Y81102D02*
X219683D01*
X143702Y355511D02*
X142915Y354724D01*
Y353149D01*
X143702Y352362D01*
X146851D01*
X147638Y353149D01*
Y354724D01*
X146851Y355511D01*
X143702Y357085D02*
X142915Y357872D01*
Y359447D01*
X143702Y360234D01*
X144489D01*
X145276Y359447D01*
Y358659D01*
Y359447D01*
X146063Y360234D01*
X146851D01*
X147638Y359447D01*
Y357872D01*
X146851Y357085D01*
X355513Y137795D02*
X360236D01*
Y140157D01*
X359449Y140944D01*
X356300D01*
X355513Y140157D01*
Y137795D01*
X356300Y142518D02*
X355513Y143305D01*
Y144880D01*
X356300Y145667D01*
X357088D01*
X357875Y144880D01*
Y144093D01*
Y144880D01*
X358662Y145667D01*
X359449D01*
X360236Y144880D01*
Y143305D01*
X359449Y142518D01*
X360236Y150390D02*
Y147241D01*
X357088Y150390D01*
X356300D01*
X355513Y149602D01*
Y148028D01*
X356300Y147241D01*
X136222Y137795D02*
X140945D01*
Y140157D01*
X140158Y140944D01*
X137009D01*
X136222Y140157D01*
Y137795D01*
X137009Y142518D02*
X136222Y143305D01*
Y144880D01*
X137009Y145667D01*
X137796D01*
X138583Y144880D01*
X139371Y145667D01*
X140158D01*
X140945Y144880D01*
Y143305D01*
X140158Y142518D01*
X139371D01*
X138583Y143305D01*
X137796Y142518D01*
X137009D01*
X138583Y143305D02*
Y144880D01*
X267717Y103148D02*
Y98425D01*
X270078D01*
X270865Y99212D01*
Y102361D01*
X270078Y103148D01*
X267717D01*
X275588Y98425D02*
X272439D01*
X275588Y101574D01*
Y102361D01*
X274801Y103148D01*
X273227D01*
X272439Y102361D01*
X280311Y103148D02*
X278737Y102361D01*
X277162Y100787D01*
Y99212D01*
X277949Y98425D01*
X279524D01*
X280311Y99212D01*
Y99999D01*
X279524Y100787D01*
X277162D01*
X52757Y137795D02*
X57480D01*
Y140157D01*
X56693Y140944D01*
X53545D01*
X52757Y140157D01*
Y137795D01*
X57480Y142518D02*
Y144093D01*
Y143305D01*
X52757D01*
X53545Y142518D01*
X444096Y137795D02*
X448819D01*
Y140157D01*
X448032Y140944D01*
X444883D01*
X444096Y140157D01*
Y137795D01*
X444883Y142518D02*
X444096Y143305D01*
Y144880D01*
X444883Y145667D01*
X445670D01*
X446457Y144880D01*
Y144093D01*
Y144880D01*
X447245Y145667D01*
X448032D01*
X448819Y144880D01*
Y143305D01*
X448032Y142518D01*
X444883Y147241D02*
X444096Y148028D01*
Y149602D01*
X444883Y150390D01*
X445670D01*
X446457Y149602D01*
X447245Y150390D01*
X448032D01*
X448819Y149602D01*
Y148028D01*
X448032Y147241D01*
X447245D01*
X446457Y148028D01*
X445670Y147241D01*
X444883D01*
X446457Y148028D02*
Y149602D01*
X232283Y103148D02*
Y98425D01*
X234645D01*
X235432Y99212D01*
Y102361D01*
X234645Y103148D01*
X232283D01*
X237006Y98425D02*
X238581D01*
X237793D01*
Y103148D01*
X237006Y102361D01*
X244091Y103148D02*
X240942D01*
Y100787D01*
X242516Y101574D01*
X243303D01*
X244091Y100787D01*
Y99212D01*
X243303Y98425D01*
X241729D01*
X240942Y99212D01*
X124016Y175983D02*
Y171260D01*
X126377D01*
X127164Y172047D01*
Y175196D01*
X126377Y175983D01*
X124016D01*
X128739D02*
X131887D01*
Y175196D01*
X128739Y172047D01*
Y171260D01*
X364173Y175983D02*
Y171260D01*
X366535D01*
X367322Y172047D01*
Y175196D01*
X366535Y175983D01*
X364173D01*
X368896Y175196D02*
X369683Y175983D01*
X371257D01*
X372045Y175196D01*
Y174408D01*
X371257Y173621D01*
X370470D01*
X371257D01*
X372045Y172834D01*
Y172047D01*
X371257Y171260D01*
X369683D01*
X368896Y172047D01*
X373619Y175196D02*
X374406Y175983D01*
X375980D01*
X376768Y175196D01*
Y174408D01*
X375980Y173621D01*
X375193D01*
X375980D01*
X376768Y172834D01*
Y172047D01*
X375980Y171260D01*
X374406D01*
X373619Y172047D01*
X102362Y175983D02*
Y171260D01*
X104724D01*
X105511Y172047D01*
Y175196D01*
X104724Y175983D01*
X102362D01*
X110234D02*
X107085D01*
Y173621D01*
X108659Y174408D01*
X109447D01*
X110234Y173621D01*
Y172047D01*
X109447Y171260D01*
X107872D01*
X107085Y172047D01*
X344488Y175983D02*
Y171260D01*
X346850D01*
X347637Y172047D01*
Y175196D01*
X346850Y175983D01*
X344488D01*
X349211Y175196D02*
X349998Y175983D01*
X351572D01*
X352360Y175196D01*
Y174408D01*
X351572Y173621D01*
X350785D01*
X351572D01*
X352360Y172834D01*
Y172047D01*
X351572Y171260D01*
X349998D01*
X349211Y172047D01*
X353934Y171260D02*
X355508D01*
X354721D01*
Y175983D01*
X353934Y175196D01*
X86614Y175983D02*
Y171260D01*
X88976D01*
X89763Y172047D01*
Y175196D01*
X88976Y175983D01*
X86614D01*
X91337Y175196D02*
X92124Y175983D01*
X93699D01*
X94486Y175196D01*
Y174408D01*
X93699Y173621D01*
X92911D01*
X93699D01*
X94486Y172834D01*
Y172047D01*
X93699Y171260D01*
X92124D01*
X91337Y172047D01*
X326772Y175983D02*
Y171260D01*
X329133D01*
X329920Y172047D01*
Y175196D01*
X329133Y175983D01*
X326772D01*
X331494Y175196D02*
X332282Y175983D01*
X333856D01*
X334643Y175196D01*
Y174408D01*
X333856Y173621D01*
X333069D01*
X333856D01*
X334643Y172834D01*
Y172047D01*
X333856Y171260D01*
X332282D01*
X331494Y172047D01*
X336217Y175196D02*
X337005Y175983D01*
X338579D01*
X339366Y175196D01*
Y172047D01*
X338579Y171260D01*
X337005D01*
X336217Y172047D01*
Y175196D01*
X64961Y175983D02*
Y171260D01*
X67322D01*
X68109Y172047D01*
Y175196D01*
X67322Y175983D01*
X64961D01*
X72832Y171260D02*
X69683D01*
X72832Y174408D01*
Y175196D01*
X72045Y175983D01*
X70471D01*
X69683Y175196D01*
X294490Y200787D02*
X299213D01*
Y203149D01*
X298426Y203936D01*
X295277D01*
X294490Y203149D01*
Y200787D01*
X299213Y208659D02*
Y205510D01*
X296064Y208659D01*
X295277D01*
X294490Y207872D01*
Y206297D01*
X295277Y205510D01*
X298426Y210233D02*
X299213Y211020D01*
Y212595D01*
X298426Y213382D01*
X295277D01*
X294490Y212595D01*
Y211020D01*
X295277Y210233D01*
X296064D01*
X296851Y211020D01*
Y213382D01*
X211813Y200787D02*
X216535D01*
Y203149D01*
X215748Y203936D01*
X212600D01*
X211813Y203149D01*
Y200787D01*
X216535Y205510D02*
Y207085D01*
Y206297D01*
X211813D01*
X212600Y205510D01*
Y209446D02*
X211813Y210233D01*
Y211807D01*
X212600Y212595D01*
X213387D01*
X214174Y211807D01*
Y211020D01*
Y211807D01*
X214961Y212595D01*
X215748D01*
X216535Y211807D01*
Y210233D01*
X215748Y209446D01*
X437008Y175983D02*
Y171260D01*
X439369D01*
X440157Y172047D01*
Y175196D01*
X439369Y175983D01*
X437008D01*
X441731Y175196D02*
X442518Y175983D01*
X444092D01*
X444879Y175196D01*
Y174408D01*
X444092Y173621D01*
X443305D01*
X444092D01*
X444879Y172834D01*
Y172047D01*
X444092Y171260D01*
X442518D01*
X441731Y172047D01*
X446454D02*
X447241Y171260D01*
X448815D01*
X449602Y172047D01*
Y175196D01*
X448815Y175983D01*
X447241D01*
X446454Y175196D01*
Y174408D01*
X447241Y173621D01*
X449602D01*
X179134Y175983D02*
Y171260D01*
X181495D01*
X182282Y172047D01*
Y175196D01*
X181495Y175983D01*
X179134D01*
X183857Y171260D02*
X185431D01*
X184644D01*
Y175983D01*
X183857Y175196D01*
X190941Y171260D02*
X187793D01*
X190941Y174408D01*
Y175196D01*
X190154Y175983D01*
X188580D01*
X187793Y175196D01*
X419291Y175983D02*
Y171260D01*
X421653D01*
X422440Y172047D01*
Y175196D01*
X421653Y175983D01*
X419291D01*
X424014Y175196D02*
X424801Y175983D01*
X426376D01*
X427163Y175196D01*
Y174408D01*
X426376Y173621D01*
X425589D01*
X426376D01*
X427163Y172834D01*
Y172047D01*
X426376Y171260D01*
X424801D01*
X424014Y172047D01*
X428737Y175983D02*
X431886D01*
Y175196D01*
X428737Y172047D01*
Y171260D01*
X157480Y175983D02*
Y171260D01*
X159842D01*
X160629Y172047D01*
Y175196D01*
X159842Y175983D01*
X157480D01*
X162203Y171260D02*
X163777D01*
X162990D01*
Y175983D01*
X162203Y175196D01*
X166139Y171260D02*
X167713D01*
X166926D01*
Y175983D01*
X166139Y175196D01*
X397638Y175983D02*
Y171260D01*
X399999D01*
X400786Y172047D01*
Y175196D01*
X399999Y175983D01*
X397638D01*
X402361Y175196D02*
X403148Y175983D01*
X404722D01*
X405509Y175196D01*
Y174408D01*
X404722Y173621D01*
X403935D01*
X404722D01*
X405509Y172834D01*
Y172047D01*
X404722Y171260D01*
X403148D01*
X402361Y172047D01*
X410232Y175983D02*
X408658Y175196D01*
X407084Y173621D01*
Y172047D01*
X407871Y171260D01*
X409445D01*
X410232Y172047D01*
Y172834D01*
X409445Y173621D01*
X407084D01*
X137795Y175983D02*
Y171260D01*
X140157D01*
X140944Y172047D01*
Y175196D01*
X140157Y175983D01*
X137795D01*
X142518Y172047D02*
X143305Y171260D01*
X144880D01*
X145667Y172047D01*
Y175196D01*
X144880Y175983D01*
X143305D01*
X142518Y175196D01*
Y174408D01*
X143305Y173621D01*
X145667D01*
X377953Y175983D02*
Y171260D01*
X380314D01*
X381101Y172047D01*
Y175196D01*
X380314Y175983D01*
X377953D01*
X382676Y175196D02*
X383463Y175983D01*
X385037D01*
X385824Y175196D01*
Y174408D01*
X385037Y173621D01*
X384250D01*
X385037D01*
X385824Y172834D01*
Y172047D01*
X385037Y171260D01*
X383463D01*
X382676Y172047D01*
X390547Y175983D02*
X387399D01*
Y173621D01*
X388973Y174408D01*
X389760D01*
X390547Y173621D01*
Y172047D01*
X389760Y171260D01*
X388186D01*
X387399Y172047D01*
X363387Y137795D02*
X368110D01*
Y140157D01*
X367323Y140944D01*
X364175D01*
X363387Y140157D01*
Y137795D01*
X364175Y142518D02*
X363387Y143305D01*
Y144880D01*
X364175Y145667D01*
X364962D01*
X365749Y144880D01*
Y144093D01*
Y144880D01*
X366536Y145667D01*
X367323D01*
X368110Y144880D01*
Y143305D01*
X367323Y142518D01*
X368110Y149602D02*
X363387D01*
X365749Y147241D01*
Y150390D01*
X143702Y137795D02*
X148425D01*
Y140157D01*
X147638Y140944D01*
X144490D01*
X143702Y140157D01*
Y137795D01*
X148425Y142518D02*
Y144093D01*
Y143305D01*
X143702D01*
X144490Y142518D01*
Y146454D02*
X143702Y147241D01*
Y148815D01*
X144490Y149602D01*
X147638D01*
X148425Y148815D01*
Y147241D01*
X147638Y146454D01*
X144490D01*
X119293Y297244D02*
X124016D01*
Y299605D01*
X123229Y300393D01*
X120080D01*
X119293Y299605D01*
Y297244D01*
Y305116D02*
X120080Y303541D01*
X121654Y301967D01*
X123229D01*
X124016Y302754D01*
Y304328D01*
X123229Y305116D01*
X122441D01*
X121654Y304328D01*
Y301967D01*
X212204Y46455D02*
X210629D01*
X211417D01*
Y42519D01*
X210629Y41732D01*
X209842D01*
X209055Y42519D01*
X213778Y41732D02*
X215352D01*
X214565D01*
Y46455D01*
X213778Y45668D01*
X297243Y46455D02*
X295669D01*
X296456D01*
Y42519D01*
X295669Y41732D01*
X294882D01*
X294094Y42519D01*
X301966Y41732D02*
X298817D01*
X301966Y44881D01*
Y45668D01*
X301179Y46455D01*
X299605D01*
X298817Y45668D01*
X161417Y355117D02*
Y351181D01*
X162205Y350394D01*
X163779D01*
X164566Y351181D01*
Y355117D01*
X168502Y350394D02*
Y355117D01*
X166140Y352755D01*
X169289D01*
X228346Y296061D02*
Y292126D01*
X229134Y291339D01*
X230708D01*
X231495Y292126D01*
Y296061D01*
X233069D02*
X236218D01*
Y295274D01*
X233069Y292126D01*
Y291339D01*
X110236Y252754D02*
Y248819D01*
X111023Y248031D01*
X112598D01*
X113385Y248819D01*
Y252754D01*
X114959Y248031D02*
X116533D01*
X115746D01*
Y252754D01*
X114959Y251967D01*
X183071Y252754D02*
Y248819D01*
X183858Y248031D01*
X185432D01*
X186220Y248819D01*
Y252754D01*
X187794Y251967D02*
X188581Y252754D01*
X190155D01*
X190942Y251967D01*
Y251180D01*
X190155Y250393D01*
X189368D01*
X190155D01*
X190942Y249606D01*
Y248819D01*
X190155Y248031D01*
X188581D01*
X187794Y248819D01*
X348425Y252754D02*
Y248819D01*
X349212Y248031D01*
X350787D01*
X351574Y248819D01*
Y252754D01*
X353148Y248031D02*
X354722D01*
X353935D01*
Y252754D01*
X353148Y251967D01*
X357084Y248031D02*
X358658D01*
X357871D01*
Y252754D01*
X357084Y251967D01*
X423228Y252754D02*
Y248819D01*
X424016Y248031D01*
X425590D01*
X426377Y248819D01*
Y252754D01*
X427951Y248031D02*
X429526D01*
X428738D01*
Y252754D01*
X427951Y251967D01*
X435036Y252754D02*
X431887D01*
Y250393D01*
X433461Y251180D01*
X434248D01*
X435036Y250393D01*
Y248819D01*
X434248Y248031D01*
X432674D01*
X431887Y248819D01*
X314961Y150392D02*
Y146456D01*
X315748Y145669D01*
X317322D01*
X318109Y146456D01*
Y150392D01*
X319684Y145669D02*
X321258D01*
X320471D01*
Y150392D01*
X319684Y149605D01*
X323619D02*
X324406Y150392D01*
X325981D01*
X326768Y149605D01*
Y146456D01*
X325981Y145669D01*
X324406D01*
X323619Y146456D01*
Y149605D01*
X94488Y150392D02*
Y146456D01*
X95275Y145669D01*
X96850D01*
X97637Y146456D01*
Y150392D01*
X102360Y145669D02*
X99211D01*
X102360Y148818D01*
Y149605D01*
X101573Y150392D01*
X99998D01*
X99211Y149605D01*
X401575Y150392D02*
Y146456D01*
X402362Y145669D01*
X403936D01*
X404723Y146456D01*
Y150392D01*
X406298Y145669D02*
X407872D01*
X407085D01*
Y150392D01*
X406298Y149605D01*
X412595Y145669D02*
Y150392D01*
X410233Y148031D01*
X413382D01*
X185039Y150392D02*
Y146456D01*
X185827Y145669D01*
X187401D01*
X188188Y146456D01*
Y150392D01*
X192911D02*
X189762D01*
Y148031D01*
X191337Y148818D01*
X192124D01*
X192911Y148031D01*
Y146456D01*
X192124Y145669D01*
X190549D01*
X189762Y146456D01*
X344488Y343305D02*
Y339370D01*
X345275Y338583D01*
X346850D01*
X347637Y339370D01*
Y343305D01*
X349211Y338583D02*
X350785D01*
X349998D01*
Y343305D01*
X349211Y342518D01*
X353147D02*
X353934Y343305D01*
X355508D01*
X356295Y342518D01*
Y341731D01*
X355508Y340944D01*
X354721D01*
X355508D01*
X356295Y340157D01*
Y339370D01*
X355508Y338583D01*
X353934D01*
X353147Y339370D01*
X329923Y346457D02*
X334646Y349605D01*
X329923D02*
X334646Y346457D01*
Y351180D02*
Y352754D01*
Y351967D01*
X329923D01*
X330710Y351180D01*
X229529Y206693D02*
X233465D01*
X234252Y207480D01*
Y209054D01*
X233465Y209841D01*
X229529D01*
X230316Y211416D02*
X229529Y212203D01*
Y213777D01*
X230316Y214564D01*
X231103D01*
X231891Y213777D01*
X232678Y214564D01*
X233465D01*
X234252Y213777D01*
Y212203D01*
X233465Y211416D01*
X232678D01*
X231891Y212203D01*
X231103Y211416D01*
X230316D01*
X231891Y212203D02*
Y213777D01*
X248031Y296061D02*
Y292126D01*
X248819Y291339D01*
X250393D01*
X251180Y292126D01*
Y296061D01*
X252754Y292126D02*
X253541Y291339D01*
X255116D01*
X255903Y292126D01*
Y295274D01*
X255116Y296061D01*
X253541D01*
X252754Y295274D01*
Y294487D01*
X253541Y293700D01*
X255903D01*
X216535Y244094D02*
Y248817D01*
X218897D01*
X219684Y248030D01*
Y246456D01*
X218897Y245669D01*
X216535D01*
X218110D02*
X219684Y244094D01*
X221258D02*
Y247243D01*
X222833Y248817D01*
X224407Y247243D01*
Y244094D01*
Y246456D01*
X221258D01*
X229130Y248817D02*
X227555Y248030D01*
X225981Y246456D01*
Y244882D01*
X226768Y244094D01*
X228343D01*
X229130Y244882D01*
Y245669D01*
X228343Y246456D01*
X225981D01*
X283465Y244094D02*
Y248817D01*
X285826D01*
X286613Y248030D01*
Y246456D01*
X285826Y245669D01*
X283465D01*
X285039D02*
X286613Y244094D01*
X288187D02*
Y247243D01*
X289762Y248817D01*
X291336Y247243D01*
Y244094D01*
Y246456D01*
X288187D01*
X292910Y244094D02*
X294485D01*
X293698D01*
Y248817D01*
X292910Y248030D01*
X296846Y244094D02*
X298420D01*
X297633D01*
Y248817D01*
X296846Y248030D01*
X235432Y94487D02*
X234645Y95274D01*
X233071D01*
X232283Y94487D01*
Y91338D01*
X233071Y90551D01*
X234645D01*
X235432Y91338D01*
X237006Y90551D02*
X238581D01*
X237793D01*
Y95274D01*
X237006Y94487D01*
X244091Y90551D02*
X240942D01*
X244091Y93700D01*
Y94487D01*
X243303Y95274D01*
X241729D01*
X240942Y94487D01*
X131891Y300393D02*
X131104Y299605D01*
Y298031D01*
X131891Y297244D01*
X135040D01*
X135827Y298031D01*
Y299605D01*
X135040Y300393D01*
X135827Y305116D02*
Y301967D01*
X132678Y305116D01*
X131891D01*
X131104Y304328D01*
Y302754D01*
X131891Y301967D01*
Y355511D02*
X131104Y354724D01*
Y353149D01*
X131891Y352362D01*
X135040D01*
X135827Y353149D01*
Y354724D01*
X135040Y355511D01*
X135827Y357085D02*
Y358659D01*
Y357872D01*
X131104D01*
X131891Y357085D01*
X143702Y300393D02*
X142915Y299605D01*
Y298031D01*
X143702Y297244D01*
X146851D01*
X147638Y298031D01*
Y299605D01*
X146851Y300393D01*
X147638Y304328D02*
X142915D01*
X145276Y301967D01*
Y305116D01*
X292519Y82676D02*
X291732Y83463D01*
X290157D01*
X289370Y82676D01*
Y79527D01*
X290157Y78740D01*
X291732D01*
X292519Y79527D01*
X294093Y78740D02*
X295667D01*
X294880D01*
Y83463D01*
X294093Y82676D01*
X298029D02*
X298816Y83463D01*
X300390D01*
X301177Y82676D01*
Y81889D01*
X300390Y81102D01*
X299603D01*
X300390D01*
X301177Y80314D01*
Y79527D01*
X300390Y78740D01*
X298816D01*
X298029Y79527D01*
X250000Y51967D02*
Y47244D01*
X252361D01*
X253149Y48031D01*
Y51180D01*
X252361Y51967D01*
X250000D01*
X257872Y47244D02*
X254723D01*
X257872Y50393D01*
Y51180D01*
X257084Y51967D01*
X255510D01*
X254723Y51180D01*
X259446Y47244D02*
X261020D01*
X260233D01*
Y51967D01*
X259446Y51180D01*
X109450Y298424D02*
Y295276D01*
X111812D01*
Y296850D01*
Y295276D01*
X114173D01*
Y299998D02*
Y301573D01*
Y300786D01*
X109450D01*
X110238Y299998D01*
X270865Y94487D02*
X270078Y95274D01*
X268504D01*
X267717Y94487D01*
Y91338D01*
X268504Y90551D01*
X270078D01*
X270865Y91338D01*
X272439Y90551D02*
X274014D01*
X273227D01*
Y95274D01*
X272439Y94487D01*
X278737Y90551D02*
Y95274D01*
X276375Y92913D01*
X279524D01*
X370866Y145669D02*
Y150392D01*
X373228D01*
X374015Y149605D01*
Y148031D01*
X373228Y147244D01*
X370866D01*
X372440D02*
X374015Y145669D01*
X375589D02*
X377163D01*
X376376D01*
Y150392D01*
X375589Y149605D01*
X379525D02*
X380312Y150392D01*
X381886D01*
X382673Y149605D01*
Y146456D01*
X381886Y145669D01*
X380312D01*
X379525Y146456D01*
Y149605D01*
X293307Y141732D02*
Y146455D01*
X295669D01*
X296456Y145668D01*
Y144094D01*
X295669Y143307D01*
X293307D01*
X294881D02*
X296456Y141732D01*
X298030Y146455D02*
X301179D01*
Y145668D01*
X298030Y142519D01*
Y141732D01*
X152362Y145669D02*
Y150392D01*
X154724D01*
X155511Y149605D01*
Y148031D01*
X154724Y147244D01*
X152362D01*
X153937D02*
X155511Y145669D01*
X157085Y149605D02*
X157872Y150392D01*
X159447D01*
X160234Y149605D01*
Y148818D01*
X159447Y148031D01*
X158659D01*
X159447D01*
X160234Y147244D01*
Y146456D01*
X159447Y145669D01*
X157872D01*
X157085Y146456D01*
X61417Y145669D02*
Y150392D01*
X63779D01*
X64566Y149605D01*
Y148031D01*
X63779Y147244D01*
X61417D01*
X62992D02*
X64566Y145669D01*
X66140D02*
X67715D01*
X66927D01*
Y150392D01*
X66140Y149605D01*
X285433Y291339D02*
Y296061D01*
X287794D01*
X288582Y295274D01*
Y293700D01*
X287794Y292913D01*
X285433D01*
X287007D02*
X288582Y291339D01*
X290156Y295274D02*
X290943Y296061D01*
X292517D01*
X293304Y295274D01*
Y294487D01*
X292517Y293700D01*
X293304Y292913D01*
Y292126D01*
X292517Y291339D01*
X290943D01*
X290156Y292126D01*
Y292913D01*
X290943Y293700D01*
X290156Y294487D01*
Y295274D01*
X290943Y293700D02*
X292517D01*
X163387Y276771D02*
X162600Y275984D01*
Y274409D01*
X163387Y273622D01*
X166536D01*
X167323Y274409D01*
Y275984D01*
X166536Y276771D01*
X162600Y281493D02*
Y278345D01*
X164961D01*
X164174Y279919D01*
Y280706D01*
X164961Y281493D01*
X166536D01*
X167323Y280706D01*
Y279132D01*
X166536Y278345D01*
X344490Y276771D02*
X343702Y275984D01*
Y274409D01*
X344490Y273622D01*
X347638D01*
X348425Y274409D01*
Y275984D01*
X347638Y276771D01*
X348425Y281493D02*
Y278345D01*
X345277Y281493D01*
X344490D01*
X343702Y280706D01*
Y279132D01*
X344490Y278345D01*
Y283068D02*
X343702Y283855D01*
Y285429D01*
X344490Y286216D01*
X345277D01*
X346064Y285429D01*
Y284642D01*
Y285429D01*
X346851Y286216D01*
X347638D01*
X348425Y285429D01*
Y283855D01*
X347638Y283068D01*
X279529Y209841D02*
X278742Y209054D01*
Y207480D01*
X279529Y206693D01*
X282677D01*
X283465Y207480D01*
Y209054D01*
X282677Y209841D01*
X283465Y211416D02*
Y212990D01*
Y212203D01*
X278742D01*
X279529Y211416D01*
X278742Y218500D02*
Y215352D01*
X281103D01*
X280316Y216926D01*
Y217713D01*
X281103Y218500D01*
X282677D01*
X283465Y217713D01*
Y216139D01*
X282677Y215352D01*
X277560Y282676D02*
X276773Y281889D01*
Y280315D01*
X277560Y279528D01*
X280709D01*
X281496Y280315D01*
Y281889D01*
X280709Y282676D01*
X281496Y284250D02*
Y285825D01*
Y285038D01*
X276773D01*
X277560Y284250D01*
X276773Y291335D02*
X277560Y289760D01*
X279135Y288186D01*
X280709D01*
X281496Y288973D01*
Y290548D01*
X280709Y291335D01*
X279922D01*
X279135Y290548D01*
Y288186D01*
X66929Y322835D02*
X62206D01*
Y325196D01*
X62993Y325983D01*
X64568D01*
X65355Y325196D01*
Y322835D01*
Y324409D02*
X66929Y325983D01*
Y327557D02*
X63780D01*
X62206Y329132D01*
X63780Y330706D01*
X66929D01*
X64568D01*
Y327557D01*
X66929Y335429D02*
Y332280D01*
X63780Y335429D01*
X62993D01*
X62206Y334642D01*
Y333068D01*
X62993Y332280D01*
X226378Y206693D02*
X221655D01*
Y209054D01*
X222442Y209841D01*
X224016D01*
X224804Y209054D01*
Y206693D01*
Y208267D02*
X226378Y209841D01*
X221655Y214564D02*
Y211416D01*
X224016D01*
X223229Y212990D01*
Y213777D01*
X224016Y214564D01*
X225591D01*
X226378Y213777D01*
Y212203D01*
X225591Y211416D01*
X223987Y281562D02*
Y286285D01*
X226349D01*
X227136Y285498D01*
Y283924D01*
X226349Y283137D01*
X223987D01*
X225562D02*
X227136Y281562D01*
X231859Y286285D02*
X230285Y285498D01*
X228710Y283924D01*
Y282349D01*
X229497Y281562D01*
X231072D01*
X231859Y282349D01*
Y283137D01*
X231072Y283924D01*
X228710D01*
X64961Y251969D02*
Y256691D01*
X67322D01*
X68109Y255904D01*
Y254330D01*
X67322Y253543D01*
X64961D01*
X66535D02*
X68109Y251969D01*
X72832D02*
X69683D01*
X72832Y255117D01*
Y255904D01*
X72045Y256691D01*
X70471D01*
X69683Y255904D01*
X305118Y255906D02*
Y260628D01*
X307480D01*
X308267Y259841D01*
Y258267D01*
X307480Y257480D01*
X305118D01*
X306692D02*
X308267Y255906D01*
X309841Y256693D02*
X310628Y255906D01*
X312202D01*
X312990Y256693D01*
Y259841D01*
X312202Y260628D01*
X310628D01*
X309841Y259841D01*
Y259054D01*
X310628Y258267D01*
X312990D01*
X139764Y248031D02*
Y252754D01*
X142125D01*
X142912Y251967D01*
Y250393D01*
X142125Y249606D01*
X139764D01*
X141338D02*
X142912Y248031D01*
X146848D02*
Y252754D01*
X144487Y250393D01*
X147635D01*
X379921Y255906D02*
Y260628D01*
X382283D01*
X383070Y259841D01*
Y258267D01*
X382283Y257480D01*
X379921D01*
X381496D02*
X383070Y255906D01*
X384644D02*
X386218D01*
X385431D01*
Y260628D01*
X384644Y259841D01*
X388580Y255906D02*
X390154D01*
X389367D01*
Y260628D01*
X388580Y259841D01*
X241340Y116142D02*
X246063D01*
Y118503D01*
X245276Y119290D01*
X242127D01*
X241340Y118503D01*
Y116142D01*
X246063Y120865D02*
Y122439D01*
Y121652D01*
X241340D01*
X242127Y120865D01*
Y124800D02*
X241340Y125587D01*
Y127162D01*
X242127Y127949D01*
X242914D01*
X243702Y127162D01*
X244489Y127949D01*
X245276D01*
X246063Y127162D01*
Y125587D01*
X245276Y124800D01*
X244489D01*
X243702Y125587D01*
X242914Y124800D01*
X242127D01*
X243702Y125587D02*
Y127162D01*
X249214Y116142D02*
X253937D01*
Y118503D01*
X253150Y119290D01*
X250001D01*
X249214Y118503D01*
Y116142D01*
X253937Y124013D02*
Y120865D01*
X250788Y124013D01*
X250001D01*
X249214Y123226D01*
Y121652D01*
X250001Y120865D01*
Y125587D02*
X249214Y126375D01*
Y127949D01*
X250001Y128736D01*
X253150D01*
X253937Y127949D01*
Y126375D01*
X253150Y125587D01*
X250001D01*
X257088Y116142D02*
X261811D01*
Y118503D01*
X261024Y119290D01*
X257875D01*
X257088Y118503D01*
Y116142D01*
X261811Y124013D02*
Y120865D01*
X258662Y124013D01*
X257875D01*
X257088Y123226D01*
Y121652D01*
X257875Y120865D01*
Y125587D02*
X257088Y126375D01*
Y127949D01*
X257875Y128736D01*
X258662D01*
X259450Y127949D01*
Y127162D01*
Y127949D01*
X260237Y128736D01*
X261024D01*
X261811Y127949D01*
Y126375D01*
X261024Y125587D01*
X264962Y116142D02*
X269685D01*
Y118503D01*
X268898Y119290D01*
X265749D01*
X264962Y118503D01*
Y116142D01*
X269685Y124013D02*
Y120865D01*
X266536Y124013D01*
X265749D01*
X264962Y123226D01*
Y121652D01*
X265749Y120865D01*
X264962Y128736D02*
Y125587D01*
X267324D01*
X266536Y127162D01*
Y127949D01*
X267324Y128736D01*
X268898D01*
X269685Y127949D01*
Y126375D01*
X268898Y125587D01*
X457087Y62991D02*
Y58268D01*
X459448D01*
X460235Y59055D01*
Y62204D01*
X459448Y62991D01*
X457087D01*
X464171Y58268D02*
Y62991D01*
X461809Y60629D01*
X464958D01*
X466532Y62204D02*
X467319Y62991D01*
X468894D01*
X469681Y62204D01*
Y59055D01*
X468894Y58268D01*
X467319D01*
X466532Y59055D01*
Y62204D01*
X426377Y279526D02*
X425590Y280313D01*
X424016D01*
X423228Y279526D01*
Y276378D01*
X424016Y275590D01*
X425590D01*
X426377Y276378D01*
X431100Y275590D02*
X427951D01*
X431100Y278739D01*
Y279526D01*
X430313Y280313D01*
X428738D01*
X427951Y279526D01*
X435823Y280313D02*
X432674D01*
Y277952D01*
X434248Y278739D01*
X435036D01*
X435823Y277952D01*
Y276378D01*
X435036Y275590D01*
X433461D01*
X432674Y276378D01*
X426377Y271652D02*
X425590Y272439D01*
X424016D01*
X423228Y271652D01*
Y268504D01*
X424016Y267717D01*
X425590D01*
X426377Y268504D01*
X431100Y267717D02*
X427951D01*
X431100Y270865D01*
Y271652D01*
X430313Y272439D01*
X428738D01*
X427951Y271652D01*
X435036Y267717D02*
Y272439D01*
X432674Y270078D01*
X435823D01*
X194096Y294487D02*
Y291339D01*
X196458D01*
Y292913D01*
Y291339D01*
X198819D01*
X194096Y296061D02*
X198819D01*
Y298423D01*
X198032Y299210D01*
X197245D01*
X196458Y298423D01*
Y296061D01*
Y298423D01*
X195670Y299210D01*
X194883D01*
X194096Y298423D01*
Y296061D01*
X198819Y300784D02*
Y302359D01*
Y301571D01*
X194096D01*
X194883Y300784D01*
X80710Y266928D02*
X79923Y266141D01*
Y264567D01*
X80710Y263779D01*
X83859D01*
X84646Y264567D01*
Y266141D01*
X83859Y266928D01*
X84646Y268502D02*
X81497D01*
X79923Y270077D01*
X81497Y271651D01*
X84646D01*
X82284D01*
Y268502D01*
X84646Y273225D02*
Y274800D01*
Y274012D01*
X79923D01*
X80710Y273225D01*
X66929Y263779D02*
X62206D01*
Y266141D01*
X62993Y266928D01*
X64568D01*
X65355Y266141D01*
Y263779D01*
Y265354D02*
X66929Y266928D01*
Y268502D02*
X63780D01*
X62206Y270077D01*
X63780Y271651D01*
X66929D01*
X64568D01*
Y268502D01*
X66929Y273225D02*
Y274800D01*
Y274012D01*
X62206D01*
X62993Y273225D01*
X88978Y318898D02*
X93701D01*
Y321259D01*
X92914Y322046D01*
X89765D01*
X88978Y321259D01*
Y318898D01*
X93701Y325982D02*
X88978D01*
X91339Y323621D01*
Y326769D01*
X49251Y338189D02*
X45287D01*
X44494Y337925D01*
X43965Y337396D01*
X43701Y336603D01*
Y336075D01*
X43965Y335282D01*
X44494Y334753D01*
X45287Y334489D01*
X49251D01*
Y332956D02*
X43701Y330842D01*
X49251Y328728D02*
X43701Y330842D01*
X49251Y328014D02*
X43701D01*
X47929Y322887D02*
X48458Y323151D01*
X48987Y323680D01*
X49251Y324208D01*
Y325265D01*
X48987Y325794D01*
X48458Y326323D01*
X47929Y326587D01*
X47137Y326851D01*
X45815D01*
X45022Y326587D01*
X44494Y326323D01*
X43965Y325794D01*
X43701Y325265D01*
Y324208D01*
X43965Y323680D01*
X44494Y323151D01*
X45022Y322887D01*
X49251Y316967D02*
X43701D01*
X49251D02*
Y313531D01*
X46608Y316967D02*
Y314853D01*
X49251Y311311D02*
X48987Y311840D01*
X48458Y312368D01*
X47929Y312633D01*
X47137Y312897D01*
X45815D01*
X45022Y312633D01*
X44494Y312368D01*
X43965Y311840D01*
X43701Y311311D01*
Y310254D01*
X43965Y309725D01*
X44494Y309197D01*
X45022Y308933D01*
X45815Y308668D01*
X47137D01*
X47929Y308933D01*
X48458Y309197D01*
X48987Y309725D01*
X49251Y310254D01*
Y311311D01*
Y307373D02*
X43701D01*
X49251D02*
Y304995D01*
X48987Y304202D01*
X48722Y303938D01*
X48194Y303673D01*
X47665D01*
X47137Y303938D01*
X46872Y304202D01*
X46608Y304995D01*
Y307373D01*
Y305523D02*
X43701Y303673D01*
X49251Y302431D02*
X43701D01*
X49251D02*
X43701Y300317D01*
X49251Y298203D02*
X43701Y300317D01*
X49251Y298203D02*
X43701D01*
X49251Y296617D02*
X45287D01*
X44494Y296353D01*
X43965Y295824D01*
X43701Y295031D01*
Y294503D01*
X43965Y293710D01*
X44494Y293181D01*
X45287Y292917D01*
X49251D01*
Y291384D02*
X43701D01*
Y288213D01*
Y283376D02*
X49251Y285490D01*
X43701Y287605D01*
X45551Y286812D02*
Y284169D01*
X49251Y277720D02*
X43701D01*
X49251D02*
X43701Y275606D01*
X49251Y273492D02*
X43701Y275606D01*
X49251Y273492D02*
X43701D01*
X49251Y270321D02*
X48987Y270849D01*
X48458Y271378D01*
X47929Y271642D01*
X47137Y271906D01*
X45815D01*
X45022Y271642D01*
X44494Y271378D01*
X43965Y270849D01*
X43701Y270321D01*
Y269263D01*
X43965Y268735D01*
X44494Y268206D01*
X45022Y267942D01*
X45815Y267678D01*
X47137D01*
X47929Y267942D01*
X48458Y268206D01*
X48987Y268735D01*
X49251Y269263D01*
Y270321D01*
Y264533D02*
X43701D01*
X49251Y266383D02*
Y262683D01*
Y260436D02*
X48987Y260965D01*
X48458Y261493D01*
X47929Y261758D01*
X47137Y262022D01*
X45815D01*
X45022Y261758D01*
X44494Y261493D01*
X43965Y260965D01*
X43701Y260436D01*
Y259379D01*
X43965Y258851D01*
X44494Y258322D01*
X45022Y258058D01*
X45815Y257793D01*
X47137D01*
X47929Y258058D01*
X48458Y258322D01*
X48987Y258851D01*
X49251Y259379D01*
Y260436D01*
Y256498D02*
X43701D01*
X49251D02*
Y254120D01*
X48987Y253327D01*
X48722Y253063D01*
X48194Y252798D01*
X47665D01*
X47137Y253063D01*
X46872Y253327D01*
X46608Y254120D01*
Y256498D01*
Y254648D02*
X43701Y252798D01*
X48458Y247856D02*
X48987Y248385D01*
X49251Y249178D01*
Y250235D01*
X48987Y251028D01*
X48458Y251556D01*
X47929D01*
X47401Y251292D01*
X47137Y251028D01*
X46872Y250499D01*
X46344Y248913D01*
X46079Y248385D01*
X45815Y248121D01*
X45287Y247856D01*
X44494D01*
X43965Y248385D01*
X43701Y249178D01*
Y250235D01*
X43965Y251028D01*
X44494Y251556D01*
X46344Y246614D02*
Y244236D01*
X46608Y243443D01*
X46872Y243178D01*
X47401Y242914D01*
X48194D01*
X48722Y243178D01*
X48987Y243443D01*
X49251Y244236D01*
Y246614D01*
X43701D01*
X49251Y240086D02*
X48987Y240615D01*
X48458Y241143D01*
X47929Y241408D01*
X47137Y241672D01*
X45815D01*
X45022Y241408D01*
X44494Y241143D01*
X43965Y240615D01*
X43701Y240086D01*
Y239029D01*
X43965Y238501D01*
X44494Y237972D01*
X45022Y237708D01*
X45815Y237443D01*
X47137D01*
X47929Y237708D01*
X48458Y237972D01*
X48987Y238501D01*
X49251Y239029D01*
Y240086D01*
Y236148D02*
X43701D01*
X49251D02*
Y233770D01*
X48987Y232977D01*
X48722Y232713D01*
X48194Y232449D01*
X47665D01*
X47137Y232713D01*
X46872Y232977D01*
X46608Y233770D01*
Y236148D01*
Y234298D02*
X43701Y232449D01*
X49251Y229356D02*
X43701D01*
X49251Y231206D02*
Y227506D01*
X15550Y338189D02*
X10236D01*
X15550D02*
Y335912D01*
X15297Y335153D01*
X15044Y334899D01*
X14538Y334646D01*
X14032D01*
X13526Y334899D01*
X13273Y335153D01*
X13020Y335912D01*
Y338189D01*
Y336418D02*
X10236Y334646D01*
X15550Y330168D02*
Y333457D01*
X10236D01*
Y330168D01*
X13020Y333457D02*
Y331433D01*
X15550Y329282D02*
X10236Y327258D01*
X15550Y325233D02*
X10236Y327258D01*
X15550Y320375D02*
X11754D01*
X10995Y320122D01*
X10489Y319616D01*
X10236Y318857D01*
Y318351D01*
X10489Y317592D01*
X10995Y317086D01*
X11754Y316832D01*
X15550D01*
Y315365D02*
X10236Y313340D01*
X15550Y311316D02*
X10236Y313340D01*
X14538Y310633D02*
X14791Y310127D01*
X15550Y309368D01*
X10236D01*
X15550Y303194D02*
X10236Y305724D01*
X15550Y306736D02*
Y303194D01*
X12514Y302004D02*
Y297450D01*
X10236Y291832D02*
X15550Y293857D01*
X10236Y295881D01*
X12008Y295122D02*
Y292591D01*
X14285Y273639D02*
X14538D01*
X15044Y273386D01*
X15297Y273133D01*
X15550Y272626D01*
Y271614D01*
X15297Y271108D01*
X15044Y270855D01*
X14538Y270602D01*
X14032D01*
X13526Y270855D01*
X12767Y271361D01*
X10236Y273892D01*
Y270349D01*
X15550Y267642D02*
X15297Y268401D01*
X14538Y268907D01*
X13273Y269160D01*
X12514D01*
X11248Y268907D01*
X10489Y268401D01*
X10236Y267642D01*
Y267136D01*
X10489Y266376D01*
X11248Y265870D01*
X12514Y265617D01*
X13273D01*
X14538Y265870D01*
X15297Y266376D01*
X15550Y267136D01*
Y267642D01*
X14538Y264428D02*
X14791Y263922D01*
X15550Y263163D01*
X10236D01*
X15550Y256989D02*
X10236Y259519D01*
X15550Y260531D02*
Y256989D01*
X12514Y255799D02*
Y251245D01*
X15550Y248158D02*
X15297Y248917D01*
X14538Y249423D01*
X13273Y249676D01*
X12514D01*
X11248Y249423D01*
X10489Y248917D01*
X10236Y248158D01*
Y247652D01*
X10489Y246892D01*
X11248Y246386D01*
X12514Y246133D01*
X13273D01*
X14538Y246386D01*
X15297Y246892D01*
X15550Y247652D01*
Y248158D01*
X14285Y244691D02*
X14538D01*
X15044Y244438D01*
X15297Y244185D01*
X15550Y243679D01*
Y242667D01*
X15297Y242161D01*
X15044Y241908D01*
X14538Y241654D01*
X14032D01*
X13526Y241908D01*
X12767Y242414D01*
X10236Y244944D01*
Y241402D01*
X12514Y240212D02*
Y235658D01*
X14538Y234089D02*
X14791Y233583D01*
X15550Y232823D01*
X10236D01*
X15550Y226649D02*
X10236Y229180D01*
X15550Y230192D02*
Y226649D01*
X399606Y356889D02*
X403017D01*
X401312Y358594D02*
Y355183D01*
X409839Y356889D02*
X413250D01*
D50*
X29545Y338189D02*
Y331441D01*
X30294Y329192D01*
X31044Y328442D01*
X32544Y327693D01*
X34793D01*
X36292Y328442D01*
X37042Y329192D01*
X37792Y331441D01*
Y338189D01*
X22047D01*
X37792Y324169D02*
X22047D01*
X37792D02*
Y318920D01*
X37042Y316671D01*
X35543Y315172D01*
X34043Y314422D01*
X31794Y313672D01*
X28045D01*
X25796Y314422D01*
X24296Y315172D01*
X22797Y316671D01*
X22047Y318920D01*
Y324169D01*
X37792Y310149D02*
X26546D01*
X24296Y309399D01*
X22797Y307899D01*
X22047Y305650D01*
Y304151D01*
X22797Y301901D01*
X24296Y300402D01*
X26546Y299652D01*
X37792D01*
D72*
X303287Y191535D02*
G03*
X303287Y191535I-492J0D01*
G01*
X291476D02*
G03*
X291476Y191535I-492J0D01*
G01*
X279665D02*
G03*
X279665Y191535I-492J0D01*
G01*
X267854D02*
G03*
X267854Y191535I-492J0D01*
G01*
X256043D02*
G03*
X256043Y191535I-492J0D01*
G01*
X244232D02*
G03*
X244232Y191535I-492J0D01*
G01*
X232421D02*
G03*
X232421Y191535I-492J0D01*
G01*
X220610D02*
G03*
X220610Y191535I-492J0D01*
G01*
X393681Y337165D02*
G03*
X393681Y337165I-492J0D01*
G01*
X418602Y337008D02*
G03*
X418602Y337008I-492J0D01*
G01*
X343209Y291142D02*
G03*
X343209Y291142I-492J0D01*
G01*
X169587Y267913D02*
G03*
X169587Y267913I-492J0D01*
G01*
X129232Y329921D02*
G03*
X129232Y329921I-492J0D01*
G01*
X158268Y343898D02*
G03*
X158268Y343898I-492J0D01*
G01*
X229528Y304331D02*
G03*
X229528Y304331I-492J0D01*
G01*
X119587Y239075D02*
G03*
X119587Y239075I-492J0D01*
G01*
X194390Y239075D02*
G03*
X194390Y239075I-492J0D01*
G01*
X359744D02*
G03*
X359744Y239075I-492J0D01*
G01*
X434547Y239075D02*
G03*
X434547Y239075I-492J0D01*
G01*
X340256Y98524D02*
G03*
X340256Y98524I-492J0D01*
G01*
X119783Y98524D02*
G03*
X119783Y98524I-492J0D01*
G01*
X430807D02*
G03*
X430807Y98524I-492J0D01*
G01*
X210335D02*
G03*
X210335Y98524I-492J0D01*
G01*
X339764Y333780D02*
G03*
X339764Y333780I-492J0D01*
G01*
X270571Y200787D02*
G03*
X270571Y200787I-492J0D01*
G01*
Y248031D02*
G03*
X270571Y248031I-492J0D01*
G01*
X243553Y140748D02*
G03*
X243553Y140748I-492J0D01*
G01*
X255364D02*
G03*
X255364Y140748I-492J0D01*
G01*
X267175Y140748D02*
G03*
X267175Y140748I-492J0D01*
G01*
X278986D02*
G03*
X278986Y140748I-492J0D01*
G01*
X458760Y52362D02*
G03*
X458760Y52362I-492J0D01*
G01*
X97382Y311614D02*
G03*
X97382Y311614I-492J0D01*
G01*
D73*
X337992Y282874D02*
G03*
X337992Y282874I-1181J0D01*
G01*
X176181Y276181D02*
G03*
X176181Y276181I-1181J0D01*
G01*
X235039Y312598D02*
G03*
X235039Y312598I-1181J0D01*
G01*
X349213Y328740D02*
G03*
X349213Y328740I-1181J0D01*
G01*
X262598Y203740D02*
G03*
X262598Y203740I-1181J0D01*
G01*
Y250984D02*
G03*
X262598Y250984I-1181J0D01*
G01*
D74*
X29921Y260630D02*
D03*
M02*
