M48
;Layer_Color=9474304
;FILE_FORMAT=2:5
INCH,LZ
;TYPE=PLATED
T2F00S00C0.01181
T3F00S00C0.01575
T4F00S00C0.01968
T5F00S00C0.04331
T6F00S00C0.05118
T7F00S00C0.13780
;TYPE=NON_PLATED
T1F00S00C0.12992
%
T02
X0419685Y0213386
X0424016
X0415354
X0411024
X0406693
X0402362
X0349213Y0213386
X0344882
X0340551
X0336221
X033189
X0327559
X0327953Y0129921
X0323228
X0318504
X0313779
Y0125197
X0318504
X0323228
X0327953
Y0120472
Y0115748
X0323228
X0318504
X0313779
Y0120472
X0318504
X0323228
Y0111024
X0318504
X0313779
Y0106299
X0318504
X0323228
X0327953
Y0111024
X027559Y013189
X0271654
X0269685Y0137795
X0265748
X0263779Y013189
X0277559Y0137795
X0277559Y0162205
X0280709
X0274409
X027126
X026811
X0264961
X0404331Y0129921
X0409055
X0413779
X0418504
Y0125197
X0413779
X0409055
X0404331
Y0120472
Y0115748
X0409055
X0413779
X0418504
Y0120472
X0413779
X0409055
Y0111024
X0413779
X0418504
Y0106299
X0413779
X0409055
X0404331
Y0111024
X0259842Y013189
X0257874Y0137795
X0253937Y0137795
X0251969Y013189
X0248031
X0246063Y0137795
X0242126
X0240158Y013189
X0236221
X0234252Y0137795
X0234252Y0162205
X0231102
X0237402
X0240551
X0243701
X024685
X025
X025315
X0258661Y0162205
X0261811
X0198031Y0129921
Y0125197
X0193307
X0188583
X0183858
Y0129921
X0188583
X0193307
Y0120472
X0188583
X0183858
Y0115748
Y0111024
Y0106299
X0188583
X0193307
X0198031
Y0111024
X0193307
X0188583
Y0115748
X0193307
X0198031
Y0120472
X010748
Y0115748
Y0111024
Y0106299
Y0125197
Y0129921
X0109055Y0213386
X0162205Y0213386
X0166535
X0170866
X0175197
X0179527
X0183858
X0104724Y0213386
X0100394
X0096063
X0091732
X0087402
X0093307Y0129921
Y0125197
X0098032
X0102756
Y0129921
X0098032
Y0120472
X0102756
Y0115748
Y0111024
Y0106299
X0098032
X0093307
Y0111024
X0098032
Y0115748
X0093307
Y0120472
X0091732Y021811
X0096063
X0100394
X0104724
Y0222835
X0100394
X0096063
X0091732
X0087402
Y0227559
X0091732
X0096063
X0100394
X0104724
X010315Y0243307
X009685
X0090551
X0093701Y0251969
X009685
X01Y0251969
X010315Y0251969
X0087402Y021811
X0109055
Y0222835
Y0227559
X0109449Y0243307
X0112598Y0243307
X0124803Y0274016
Y027874
Y0283465
Y0288189
X013189Y0285827
X0131889Y0281102
X013189Y0276378
Y0271654
X0168504Y0251969
X0171654
X0174803Y0251969
X0177953Y0251969
X0177953Y0243307
X0184252
X0187401Y0243307
X0171653Y0243307
X0165354
X0166535Y0227559
X0162205
Y0222835
X0166535
X0170866
X0175197
X0179527
X0183858
Y021811
X0179527
X0175197
X0170866
X0166535
X0162205
X0170866Y0227559
X0175197
X0179527
X0183858
X0217323Y025315
Y0257874
Y0262795
Y0267717
X022441Y0265354
Y0260236
Y0255512
Y0250787
X0287402
Y0255512
Y0260236
Y0265354
X0294488Y0267717
Y0262795
Y0257874
Y025315
X0333858Y0251969
X0337008
X0340158Y0251969
X0343307Y0251969
X0343307Y0243307
X0349606
X0352756
X0337008
X0330709
X033189Y0227559
X0336221
X0340551
X0344882
X0349213
Y0222835
X0344882
X0340551
X0336221
X033189
X0327559
Y0227559
Y021811
X033189
X0336221
X0340551
X0344882
X0349213
X0402362Y021811
X0406693
X0411024
X0415354
Y0222835
X0411024
X0406693
X0402362
Y0227559
X0406693
X0411024
X0415354
X041811Y0243307
X0411811
X0405512
X0408662Y0251969
X0411811
X0414961Y0251969
X0418111Y0251969
X0387008Y0274016
Y027874
Y0283465
Y0288189
X0379921Y0285827
X0379922Y0281102
X0379921Y0276378
Y0271654
X0424409Y0243307
X0427559Y0243307
X0424016Y0227559
X0419685
Y0222835
X0424016
Y021811
X0419685
T03
X0462598Y004252
Y0050394
X0448032Y012126
X0444882
X0441732
X0434842Y0126969
X0437795Y0131102
X0441732Y0134252
X0440216Y0185433
Y0188583
X0429528Y0192028
Y0195965
X0427165Y0193996
Y0190059
X0424803Y0192028
Y0195965
X0420079
Y0192028
X0441338Y0213445
X0444488
X0417717Y0193996
Y0190059
X0415354Y0192028
Y0195965
X041063
Y0192028
X0408268Y0190059
Y0193996
X0405906Y0195965
Y0192028
X0401181
Y0195965
X0398819Y0193996
Y0190059
X0396457Y0192028
Y0195965
X0386555Y0188583
Y0185433
X0365413Y0185433
Y0188583
X0366535Y0213445
X0369685
X0382283Y0213445
X0385433
X031063Y0213445
X030748
X0311752Y0188583
Y0185433
X0299803Y018878
X0294685Y0186811
X0287992Y018878
X0282874Y0186811
X0276181Y018878
X0271063Y0186811
X026437Y018878
X0267717Y0143701
X0287008Y0141339
X0298425Y0141732
X0298425Y0137795
X0295276Y0133858
Y0127953
Y0124409
X028937Y012126
X0286221
X0283071
X0344291Y0126969
X0347638Y0134252
X0351969
X035315Y012126
X0356299
X0359449
X0372835Y012126
X0375984
X0379134
X0385827Y0124409
Y0127953
X0385827Y0133858
X0388976Y0137795
X0388976Y0141339
X037559Y0137795
X0255906Y0150394
X0244094Y0143701
X0216535Y0133858
Y0129921
X021437Y0126969
X0222441Y012126
X022559
X022874
X0165354Y0124409
Y0127953
X0165354Y0133858
X0168504Y0137795
X0162008
X0155905Y0137795
X0155512Y012126
X0152362
X0158661
X0138976Y012126
X0135827
X0132677
X0123819Y0126969
X0125984Y0133858
X0129921Y0133858
X0125256Y0185433
Y0188583
X0114961Y0192028
Y0195965
X0112598Y0193996
Y0190059
X0110236Y0192028
Y0195965
X0126378Y0213445
X0129528
X0142126
X0145275
X0146398Y0188583
Y0185433
X0200059Y0185433
Y0188583
X0212008Y0186811
X0217126Y018878
X0223819Y0186811
X0228937Y018878
X023563Y0186811
X0240748Y018878
X0247441Y0186811
X0252559Y018878
X0259252Y0186811
X0204331Y0213445
X0201181
X0105512Y0195965
Y0192028
X010315Y0193996
Y0190059
X0100787Y0192028
Y0195965
X0096063
Y0192028
X0093701Y0190059
Y0193996
X0091338Y0195965
Y0192028
X0086614
Y0195965
X0084252Y0193996
Y0190059
X008189Y0192028
Y0195965
X0071595Y0188583
Y0185433
X0070473Y0213445
X0067323
X0064961Y0137795
X0071063
X0076772
X0074803Y0133465
Y0127953
Y0124409
X006811Y012126
X0064961
X0061811
X0049606Y0267323
X0031496
X0037605Y0283477
X0037795Y0298425
X0040551Y0301181
Y0312992
X0040157Y0316929
X0055118
Y0312992
Y0309055
Y0305118
X0070866
Y0309055
Y0312992
Y0316929
Y0297244
Y0293307
Y028937
Y0285433
X0055118
X0086024Y0283661
X0093898Y0301181
X0088779Y0308661
X009626Y0311614
X0090551Y0255512
X0025Y029311
X0027953Y0297244
X0128347Y0311417
Y0315354
X0140551Y0293307
Y028937
Y0285433
Y0281496
Y0277559
Y0273622
Y0269685
Y0265748
X0163386Y0255512
X0172146Y0263484
X0177264
X0174705Y0272342
X0179823
X0182382Y0274803
Y028189
X0179823Y0284252
X0177264Y0286713
X0174705Y0295571
X01875Y0297834
X0185039Y0300393
X0190157Y0295177
X0193504Y0267913
X0221595Y027559
X0241732Y0287795
X0241732Y0299607
X0244882Y0297638
X0248031Y0295276
X0259842Y0287402
Y027559
X0241732Y0240551
X0221595Y0228346
X0218206Y0314173
X0220866Y0320472
X0218897Y0323621
X0220866Y0329921
X0218897Y033307
X0220696Y0336016
X0218897Y0339369
X0220866Y034252
X0218897Y0345669
Y0351968
X0220866Y0355118
X0218897Y0358267
X0227165Y0364567
X0244882Y0369291
X0232283Y0326772
X0235433Y0311024
X0238583Y0309054
X0212598Y0327166
X0152756Y0342126
Y0346063
X0139764
Y0342126
X0157894Y0291339
X0263779Y0287402
Y027559
X0283465Y0275197
Y0270472
X0315748Y0276378
Y0280315
Y0284252
X0318307Y0291142
X0304724Y0295276
Y0299606
Y0304134
Y0308661
X030315Y0335354
Y0350394
X0309055
X0314961
X030315Y0361496
X027874Y0355118
X0281496Y0351969
X0279528Y0320472
X0293701Y0326772
X0334252Y0325335
X0343996Y0330335
Y0315335
X0366535Y0320079
X0366929Y0325197
X037126Y0293307
Y028937
Y0285433
Y0281496
Y0277559
Y0273622
Y0269685
Y0265748
X0354271Y0267717
X0337106Y0263484
X0334547Y0272342
X0331988Y0274803
X0329429Y0277165
Y0284252
X0331988Y0286713
X0337106
X0334645Y0294881
X0346457Y028937
X0330709Y0255512
X0405512
X0283465Y0227953
Y0223622
X026378Y0311024
X0440945Y0309055
Y0305118
Y0312992
Y0316929
X0456693
Y0312992
Y0309055
Y0305118
X0469685Y0295276
X0478346Y0287402
Y0274803
X0469685
X0441732Y0287402
Y0295276
X0431457Y0291339
X025748Y0381102
X0254331Y037874
X0241732Y0371259
X0238582Y0373228
X0235433Y0375196
T04
X0255906Y002874
X0470374Y0046457
X0423228Y0101575
Y0106299
Y0111024
Y0115748
Y0120472
Y0125197
Y0129921
Y0134646
Y013937
X0427953
X0432677
X0432678Y0209055
Y0213386
X0428347
Y0209055
X0424016
X0419685
X0415355
X0411024
X0406693
X0402362
X0398031
Y0213386
X0393701
Y0209055
X0357874Y0209055
X0353543
X0349213
X0344882
X0340551
X0336221
X033189
X0327559
X0323228
X0318898
Y0213386
X0323228
X0353543
X0357874
X0337402Y013937
X0332677
Y0134646
Y0129921
Y0125197
Y0120472
Y0115748
Y0111024
Y0106299
Y0101575
X0327953
X0323228
X0318504
X0313779
X0309055
Y0106299
Y0111024
Y0115748
Y0120472
Y0125197
Y0129921
Y0134646
X0313779
X0318504
X0323228
X0327953
Y013937
X0323228
X0318504
X0313779
X0309055
X0304331
X0281102Y0080709
X0282283Y0061024
X0399606Y0101575
Y0106299
Y0111024
Y0115748
Y0120472
Y0125197
Y0129921
Y0134646
Y013937
X0394882
X0404331
X0409055
X041378
X0418504
Y0134646
X041378
X0409055
X0404331
Y0101575
X0409055
X041378
X0418504
X0230709Y0080709
X0229528Y0061024
X0202756Y0101575
X0198031
X0193307
X0188583
X0183858
X0179134
Y0106299
Y0111024
Y0115748
Y0120472
Y0125197
Y0129921
Y0134646
Y013937
X0174409
X0183858
X0188583
X0193307
X0198031
X0202756
X020748
X0202756Y0134646
X0198031
X0193307
X0188583
X0183858
X0202756Y0129921
Y0125197
Y0120472
Y0115748
Y0111024
Y0106299
X0112205
X0112205Y0101575
X010748
X0112205Y0111024
Y0115748
Y0120472
Y0125197
Y0129921
Y0134646
X010748
Y013937
X0112205
X0116929
X0121653
X0117717Y0209055
Y0213386
X0113386
Y0209055
X0109055
X0153543Y0209055
X0157874
X0162205
X0166535
X0170866
X0175197
X0179528
X0183859
X0188189
X019252
Y0213386
X0188189
X0157874
X0153543
X0104725Y0209055
X0100394
X0096063
X0091732
X0087402
X0083071
Y0213386
X007874
Y0209055
X0083858Y013937
X0088583
Y0134646
Y0129921
Y0125197
Y0120472
Y0115748
Y0111024
Y0106299
X0088583Y0101575
X0093307
X0098032
X0102756
X0102756Y0134646
X0098032
X0093307
Y013937
X0098032
X0102756
X0104725Y023189
X0100394
X0096063
X0091732
X0087402
X0083071
Y0227559
X007874
Y023189
X0074409
X0070078
X0065748
Y0227559
X0061417
Y023189
Y0236614
X0065748
X0070078
X0074409
Y0240945
X0070078
X0065748
X0061417
X0070078Y0227559
X0074409
X007874Y0222835
X0083071
Y021811
X007874
X0113386
X0117717
Y0222835
X0113386
Y0227559
X0117717
Y023189
X0113386
X0109055
X0122048
X0126378
Y0227559
X0122048
X0130709
Y023189
X0135433
Y0227559
X0140551
Y023189
X0144881
Y0227559
X0149212
Y023189
X0153543
X0157874
X0162205
X0166535
X0170866
X0175197
X0179528
X0183859
X0188189
X019252
X0196851
Y0227559
X0201182
X0205512
Y023189
X0209843
Y0227559
Y0236614
X0205512
Y0240945
X0209843
X0201182
X0196851
Y0236614
X0201182
Y023189
X019252Y0227559
X0188189
Y0222835
X019252
Y021811
X0188189
X0157874
X0153543
Y0222835
X0157874
Y0227559
X0153543
X0149212Y0236614
Y0240945
X0144881
X0140551
Y0236614
X0144881
X0135433Y0236614
Y0240945
X0130709Y0240945
X0126378
Y0236614
X0122048
Y0240945
X0130709Y0236614
X0301574Y0236614
X0305905
Y0240945
X0301574
X0310236
X0314567
Y0236614
X0310236
Y023189
X0314567
X0318898
X0323228
X0327559
X033189
X0336221
X0340551
X0344882
X0349213
X0353543
X0357874
X0362205
X0366536
X0370867
Y0227559
X0366536
X0362205
X0357874
X0353543
Y0222835
X0357874
Y021811
X0353543
X0362205Y0236614
Y0240945
X0366536
X0370867
Y0236614
X0366536
X0375591Y0236614
Y0240945
X0380708Y0240945
X0385039
Y0236614
X038937
Y0240945
Y023189
X0393701
X0398031
X0402362
X0406693
X0411024
X0415355
X0398031Y0227559
X0393701
X038937
X0385039
Y023189
X0380708
Y0227559
X0375591
Y023189
X0380708Y0236614
X0393701Y0222835
X0398031
Y021811
X0393701
X0323228Y021811
X0318898
Y0222835
X0323228
Y0227559
X0318898
X0314567
X0310236
X0305905
Y023189
X0301574
Y0227559
X0419685Y023189
X0424016
X0428347
X0432678
X0437008
X0441339
X044567
X0450001
Y0227559
X044567
X0441339
X0437008
X0432678
X0428347
Y0222835
X0432678
Y021811
X0428347
X0437008Y0236614
X0441339
Y0240945
X0437008
X044567
X0450001
Y0236614
X044567
T05
X0400906Y0345669
X0410906
X0425827Y0345512
Y0355512
X0435827
X0445827
Y0345512
X0435827
T06
X0098425Y0047244
X0104331Y0057087
X0116142
X0127953
X0139764
X0151575
X0163386
X0175197
X0187008
X0181102Y0047244
X0169291
X015748
X0145669
X0133858
X0122047
X0110236
X0192913
X0318898
X0330709
X034252
X0354331
X0366142
X0377953
X0389764
X0401575
X0413386
X040748Y0057087
X0395669
X0383858
X0372047
X0360236
X0348425
X0336614
X0324803
Y0068898
X0336614
X0348425
X0360236
X0372047
X0383858
X0395669
X040748
X0413386Y007874
X0401575
X0389764
X0377953
X0366142
X0354331
X034252
X0330709
X0318898
X0192913
X0181102
X0169291
X015748
X0145669
X0133858
X0122047
X0110236
X0116142Y0068898
X0127953
X0139764
X0151575
X0163386
X0175197
X0187008
X0104331
X0098425Y007874
T07
X0027559Y0027559
X0484252
Y019685
X0027559
Y0366142
X0484252
T01
X0069882Y0021654
X0221457
X0290354
X0441929
M30
