G04 Layer_Color=8388736*
%FSLAX25Y25*%
%MOIN*%
G70*
G01*
G75*
%ADD62C,0.06693*%
%ADD68C,0.02756*%
%ADD79R,0.04331X0.02165*%
%ADD80R,0.03543X0.01968*%
%ADD81R,0.06181X0.04842*%
%ADD82R,0.02441X0.02441*%
%ADD83R,0.02756X0.03543*%
%ADD84R,0.01575X0.02953*%
%ADD85R,0.01870X0.02953*%
%ADD86R,0.03543X0.02165*%
%ADD87O,0.02165X0.05905*%
%ADD88R,0.02165X0.03543*%
%ADD89R,0.02441X0.02441*%
%ADD90R,0.05512X0.03543*%
%ADD91R,0.07874X0.04331*%
%ADD92R,0.09842X0.07283*%
%ADD93R,0.07480X0.13976*%
%ADD94R,0.07087X0.03740*%
%ADD95R,0.03543X0.01575*%
%ADD96R,0.01575X0.03543*%
%ADD97O,0.07283X0.02165*%
%ADD98R,0.09842X0.07480*%
%ADD99O,0.06890X0.02953*%
%ADD100O,0.06496X0.01693*%
%ADD101R,0.20866X0.29921*%
%ADD102O,0.02756X0.07283*%
%ADD103R,0.28346X0.18898*%
%ADD104O,0.02559X0.05905*%
%ADD105O,0.05905X0.02559*%
%ADD106R,0.08858X0.12992*%
%ADD107R,0.08858X0.04331*%
%ADD108R,0.05709X0.05118*%
%ADD109R,0.08976X0.06772*%
%ADD110R,0.06850X0.05905*%
%ADD111R,0.05905X0.06850*%
%ADD112R,0.01968X0.03543*%
%ADD113C,0.27953*%
%ADD114C,0.08268*%
%ADD115C,0.13386*%
D62*
X445827Y345512D02*
D03*
X425827D02*
D03*
X435827D02*
D03*
Y355512D02*
D03*
X425827D02*
D03*
X445827D02*
D03*
X400906Y345669D02*
D03*
X410906D02*
D03*
D68*
X188583Y115748D02*
D03*
X193307D02*
D03*
X198031D02*
D03*
X183858D02*
D03*
Y120472D02*
D03*
X198031D02*
D03*
X193307D02*
D03*
X188583D02*
D03*
Y111024D02*
D03*
X193307D02*
D03*
X198031D02*
D03*
X183858D02*
D03*
Y106299D02*
D03*
X198031D02*
D03*
X193307D02*
D03*
X188583D02*
D03*
Y129921D02*
D03*
X193307D02*
D03*
X198031D02*
D03*
X183858D02*
D03*
Y125197D02*
D03*
X193307D02*
D03*
X188583D02*
D03*
X198031D02*
D03*
X418504D02*
D03*
X409055D02*
D03*
X413779D02*
D03*
X404331D02*
D03*
Y129921D02*
D03*
X418504D02*
D03*
X413779D02*
D03*
X409055D02*
D03*
Y106299D02*
D03*
X413779D02*
D03*
X418504D02*
D03*
X404331Y111024D02*
D03*
X418504D02*
D03*
X413779D02*
D03*
X409055D02*
D03*
Y120472D02*
D03*
X413779D02*
D03*
X418504D02*
D03*
X404331D02*
D03*
Y115748D02*
D03*
X418504D02*
D03*
X413779D02*
D03*
X409055D02*
D03*
X404331Y106299D02*
D03*
X102756Y129921D02*
D03*
X98032D02*
D03*
X93307D02*
D03*
X98032Y115748D02*
D03*
X102756D02*
D03*
X107480D02*
D03*
X93307D02*
D03*
Y120472D02*
D03*
X107480D02*
D03*
X102756D02*
D03*
X98032D02*
D03*
Y111024D02*
D03*
X102756D02*
D03*
X107480D02*
D03*
X93307D02*
D03*
Y106299D02*
D03*
X107480D02*
D03*
X102756D02*
D03*
X98032D02*
D03*
X107480Y129921D02*
D03*
X93307Y125197D02*
D03*
X102756D02*
D03*
X98032D02*
D03*
X107480D02*
D03*
X327953Y125197D02*
D03*
X318504D02*
D03*
X323228D02*
D03*
X313779D02*
D03*
X318504Y106299D02*
D03*
X323228D02*
D03*
X327953D02*
D03*
X313779D02*
D03*
Y111024D02*
D03*
X327953D02*
D03*
X323228D02*
D03*
X318504D02*
D03*
Y120472D02*
D03*
X323228D02*
D03*
X327953D02*
D03*
X313779D02*
D03*
Y115748D02*
D03*
X327953D02*
D03*
X323228D02*
D03*
X318504D02*
D03*
X313779Y129921D02*
D03*
X318504D02*
D03*
X323228D02*
D03*
X327953D02*
D03*
D79*
X86024Y286614D02*
D03*
Y289764D02*
D03*
Y292913D02*
D03*
Y296063D02*
D03*
X79331Y286614D02*
D03*
Y289764D02*
D03*
Y292913D02*
D03*
Y296063D02*
D03*
X144291Y292126D02*
D03*
Y288976D02*
D03*
Y285827D02*
D03*
Y282677D02*
D03*
X150984Y292126D02*
D03*
Y288976D02*
D03*
Y285827D02*
D03*
Y282677D02*
D03*
X144291Y276378D02*
D03*
Y273228D02*
D03*
Y270079D02*
D03*
Y266929D02*
D03*
X150984Y276378D02*
D03*
Y273228D02*
D03*
Y270079D02*
D03*
Y266929D02*
D03*
X360827Y276378D02*
D03*
Y273228D02*
D03*
Y270079D02*
D03*
Y266929D02*
D03*
X367520Y276378D02*
D03*
Y273228D02*
D03*
Y270079D02*
D03*
Y266929D02*
D03*
X367520Y282677D02*
D03*
Y285827D02*
D03*
Y288976D02*
D03*
Y292126D02*
D03*
X360827Y282677D02*
D03*
Y285827D02*
D03*
Y288976D02*
D03*
Y292126D02*
D03*
D80*
X59449Y296063D02*
D03*
Y292913D02*
D03*
Y289764D02*
D03*
Y286614D02*
D03*
X66535Y296063D02*
D03*
Y292913D02*
D03*
Y289764D02*
D03*
Y286614D02*
D03*
X59449Y315748D02*
D03*
Y312598D02*
D03*
Y309449D02*
D03*
Y306299D02*
D03*
X66535Y315748D02*
D03*
Y312598D02*
D03*
Y309449D02*
D03*
Y306299D02*
D03*
X452362D02*
D03*
Y309449D02*
D03*
Y312598D02*
D03*
Y315748D02*
D03*
X445276Y306299D02*
D03*
Y309449D02*
D03*
Y312598D02*
D03*
Y315748D02*
D03*
D81*
X192913Y307539D02*
D03*
Y314508D02*
D03*
D82*
X431457Y287402D02*
D03*
X434685D02*
D03*
X431457Y295276D02*
D03*
X434685D02*
D03*
X350039Y267717D02*
D03*
X346811D02*
D03*
X162126Y291339D02*
D03*
X165354D02*
D03*
D83*
X253346Y124016D02*
D03*
X258465D02*
D03*
X255906Y131890D02*
D03*
D84*
X277756Y160433D02*
D03*
X275591D02*
D03*
X273425D02*
D03*
X261614D02*
D03*
X263779D02*
D03*
X265945D02*
D03*
X250197D02*
D03*
X248031D02*
D03*
X245866D02*
D03*
X234055D02*
D03*
X236221D02*
D03*
X238386D02*
D03*
D85*
X273622Y154528D02*
D03*
X277559D02*
D03*
X265748D02*
D03*
X261811D02*
D03*
X246063D02*
D03*
X250000D02*
D03*
X238189D02*
D03*
X234252D02*
D03*
D86*
X397638Y254823D02*
D03*
Y249114D02*
D03*
X322835Y254823D02*
D03*
Y249114D02*
D03*
X157480Y254823D02*
D03*
Y249114D02*
D03*
X82677Y254823D02*
D03*
Y249114D02*
D03*
D87*
X190059Y291142D02*
D03*
X187500D02*
D03*
X184941D02*
D03*
X182382D02*
D03*
X179823D02*
D03*
X177264D02*
D03*
X174705D02*
D03*
X172146D02*
D03*
X190059Y267913D02*
D03*
X187500D02*
D03*
X184941D02*
D03*
X182382D02*
D03*
X179823D02*
D03*
X177264D02*
D03*
X174705D02*
D03*
X172146D02*
D03*
X321752Y267913D02*
D03*
X324311D02*
D03*
X326870D02*
D03*
X329429D02*
D03*
X331988D02*
D03*
X334547D02*
D03*
X337106D02*
D03*
X339665D02*
D03*
X321752Y291142D02*
D03*
X324311D02*
D03*
X326870D02*
D03*
X329429D02*
D03*
X331988D02*
D03*
X334547D02*
D03*
X337106D02*
D03*
X339665D02*
D03*
D88*
X225492Y228346D02*
D03*
X231201D02*
D03*
X225492Y275590D02*
D03*
X231201D02*
D03*
X292224Y301181D02*
D03*
X286516D02*
D03*
X62500Y137795D02*
D03*
X68209D02*
D03*
X153445D02*
D03*
X159153D02*
D03*
X281398D02*
D03*
X287106D02*
D03*
X373031D02*
D03*
X378740D02*
D03*
X445965Y295276D02*
D03*
X451673D02*
D03*
X445965Y287402D02*
D03*
X451673D02*
D03*
D89*
X279528Y275236D02*
D03*
Y272008D02*
D03*
Y227992D02*
D03*
Y224764D02*
D03*
X145669Y315669D02*
D03*
Y318898D02*
D03*
X330709Y324449D02*
D03*
Y321221D02*
D03*
X299213Y352717D02*
D03*
Y355945D02*
D03*
Y344134D02*
D03*
Y340906D02*
D03*
X212598Y344843D02*
D03*
Y348071D02*
D03*
X299213Y324449D02*
D03*
Y321220D02*
D03*
X212598Y312638D02*
D03*
Y309409D02*
D03*
Y324449D02*
D03*
Y321220D02*
D03*
D90*
X269685Y48524D02*
D03*
Y42028D02*
D03*
X242126Y48524D02*
D03*
Y42028D02*
D03*
X322835Y319586D02*
D03*
Y326083D02*
D03*
X204724Y349705D02*
D03*
Y343209D02*
D03*
X307087Y319587D02*
D03*
Y326083D02*
D03*
X204724Y307776D02*
D03*
Y314272D02*
D03*
D91*
X110236Y324803D02*
D03*
Y312992D02*
D03*
D92*
X255906Y33484D02*
D03*
Y49193D02*
D03*
D93*
X273622Y84842D02*
D03*
Y64764D02*
D03*
X238189Y64764D02*
D03*
Y84842D02*
D03*
D94*
X133858Y332972D02*
D03*
Y344193D02*
D03*
X133858Y324508D02*
D03*
Y313287D02*
D03*
X145669Y332972D02*
D03*
Y344193D02*
D03*
D95*
X290945Y252953D02*
D03*
Y254921D02*
D03*
Y256890D02*
D03*
Y258858D02*
D03*
Y260827D02*
D03*
Y262795D02*
D03*
Y264764D02*
D03*
Y266732D02*
D03*
X283858Y252953D02*
D03*
Y254921D02*
D03*
Y256890D02*
D03*
Y258858D02*
D03*
Y260827D02*
D03*
Y262795D02*
D03*
Y264764D02*
D03*
Y266732D02*
D03*
X220866D02*
D03*
Y264764D02*
D03*
Y262795D02*
D03*
Y260827D02*
D03*
Y258858D02*
D03*
Y256890D02*
D03*
Y254921D02*
D03*
Y252953D02*
D03*
X227953Y266732D02*
D03*
Y264764D02*
D03*
Y262795D02*
D03*
Y260827D02*
D03*
Y258858D02*
D03*
Y256890D02*
D03*
Y254921D02*
D03*
Y252953D02*
D03*
X135433Y272638D02*
D03*
Y274606D02*
D03*
Y276575D02*
D03*
Y278543D02*
D03*
Y280512D02*
D03*
Y282480D02*
D03*
Y284449D02*
D03*
Y286417D02*
D03*
X128347Y272638D02*
D03*
Y274606D02*
D03*
Y276575D02*
D03*
Y278543D02*
D03*
Y280512D02*
D03*
Y282480D02*
D03*
Y284449D02*
D03*
Y286417D02*
D03*
X376378Y286417D02*
D03*
Y284449D02*
D03*
Y282480D02*
D03*
Y280512D02*
D03*
Y278543D02*
D03*
Y276575D02*
D03*
Y274606D02*
D03*
Y272638D02*
D03*
X383465Y286417D02*
D03*
Y284449D02*
D03*
Y282480D02*
D03*
Y280512D02*
D03*
Y278543D02*
D03*
Y276575D02*
D03*
Y274606D02*
D03*
Y272638D02*
D03*
D96*
X260827Y173622D02*
D03*
X262795D02*
D03*
X264764D02*
D03*
X266732D02*
D03*
X268701D02*
D03*
X270669D02*
D03*
X272638D02*
D03*
X274606D02*
D03*
X260827Y180709D02*
D03*
X262795D02*
D03*
X264764D02*
D03*
X266732D02*
D03*
X268701D02*
D03*
X270669D02*
D03*
X272638D02*
D03*
X274606D02*
D03*
X237205Y173622D02*
D03*
X239173D02*
D03*
X241142D02*
D03*
X243110D02*
D03*
X245079D02*
D03*
X247047D02*
D03*
X249016D02*
D03*
X250984D02*
D03*
X237205Y180709D02*
D03*
X239173D02*
D03*
X241142D02*
D03*
X243110D02*
D03*
X245079D02*
D03*
X247047D02*
D03*
X249016D02*
D03*
X250984D02*
D03*
D97*
X241732Y284350D02*
D03*
Y281791D02*
D03*
Y279232D02*
D03*
Y276673D02*
D03*
Y274114D02*
D03*
Y271555D02*
D03*
Y268996D02*
D03*
Y266437D02*
D03*
Y263878D02*
D03*
Y261319D02*
D03*
Y258760D02*
D03*
Y256201D02*
D03*
Y253642D02*
D03*
Y251083D02*
D03*
X270079Y284350D02*
D03*
Y281791D02*
D03*
Y279232D02*
D03*
Y276673D02*
D03*
Y274114D02*
D03*
Y271555D02*
D03*
Y268996D02*
D03*
Y266437D02*
D03*
Y263878D02*
D03*
Y261319D02*
D03*
Y258760D02*
D03*
Y256201D02*
D03*
Y253642D02*
D03*
Y251083D02*
D03*
X241732Y237106D02*
D03*
Y234547D02*
D03*
Y231988D02*
D03*
Y229429D02*
D03*
Y226870D02*
D03*
Y224311D02*
D03*
Y221752D02*
D03*
Y219193D02*
D03*
Y216634D02*
D03*
Y214075D02*
D03*
Y211516D02*
D03*
Y208957D02*
D03*
Y206398D02*
D03*
Y203838D02*
D03*
X270079Y237106D02*
D03*
Y234547D02*
D03*
Y231988D02*
D03*
Y229429D02*
D03*
Y226870D02*
D03*
Y224311D02*
D03*
Y221752D02*
D03*
Y219193D02*
D03*
Y216634D02*
D03*
Y214075D02*
D03*
Y211516D02*
D03*
Y208957D02*
D03*
Y206398D02*
D03*
Y203838D02*
D03*
D98*
X311024Y358268D02*
D03*
Y342520D02*
D03*
D99*
X361516Y315335D02*
D03*
Y320335D02*
D03*
Y325335D02*
D03*
Y330335D02*
D03*
X339272Y315335D02*
D03*
Y320335D02*
D03*
Y325335D02*
D03*
Y330335D02*
D03*
D100*
X209842Y101378D02*
D03*
Y103347D02*
D03*
Y105315D02*
D03*
Y107283D02*
D03*
Y109252D02*
D03*
Y111221D02*
D03*
Y113189D02*
D03*
Y115157D02*
D03*
Y117126D02*
D03*
Y119095D02*
D03*
Y121063D02*
D03*
Y123031D02*
D03*
Y125000D02*
D03*
Y126969D02*
D03*
Y128937D02*
D03*
Y130905D02*
D03*
Y132874D02*
D03*
Y134843D02*
D03*
X172047Y101378D02*
D03*
Y103347D02*
D03*
Y105315D02*
D03*
Y107283D02*
D03*
Y109252D02*
D03*
Y111221D02*
D03*
Y113189D02*
D03*
Y115157D02*
D03*
Y117126D02*
D03*
Y119095D02*
D03*
Y121063D02*
D03*
Y123031D02*
D03*
Y125000D02*
D03*
Y126969D02*
D03*
Y128937D02*
D03*
Y130905D02*
D03*
Y132874D02*
D03*
Y134843D02*
D03*
X392520D02*
D03*
Y132874D02*
D03*
Y130905D02*
D03*
Y128937D02*
D03*
Y126969D02*
D03*
Y125000D02*
D03*
Y123031D02*
D03*
Y121063D02*
D03*
Y119095D02*
D03*
Y117126D02*
D03*
Y115157D02*
D03*
Y113189D02*
D03*
Y111221D02*
D03*
Y109252D02*
D03*
Y107283D02*
D03*
Y105315D02*
D03*
Y103347D02*
D03*
Y101378D02*
D03*
X430315Y134843D02*
D03*
Y132874D02*
D03*
Y130905D02*
D03*
Y128937D02*
D03*
Y126969D02*
D03*
Y125000D02*
D03*
Y123031D02*
D03*
Y121063D02*
D03*
Y119095D02*
D03*
Y117126D02*
D03*
Y115157D02*
D03*
Y113189D02*
D03*
Y111221D02*
D03*
Y109252D02*
D03*
Y107283D02*
D03*
Y105315D02*
D03*
Y103347D02*
D03*
Y101378D02*
D03*
X119291D02*
D03*
Y103347D02*
D03*
Y105315D02*
D03*
Y107283D02*
D03*
Y109252D02*
D03*
Y111221D02*
D03*
Y113189D02*
D03*
Y115157D02*
D03*
Y117126D02*
D03*
Y119095D02*
D03*
Y121063D02*
D03*
Y123031D02*
D03*
Y125000D02*
D03*
Y126969D02*
D03*
Y128937D02*
D03*
Y130905D02*
D03*
Y132874D02*
D03*
Y134843D02*
D03*
X81496Y101378D02*
D03*
Y103347D02*
D03*
Y105315D02*
D03*
Y107283D02*
D03*
Y109252D02*
D03*
Y111221D02*
D03*
Y113189D02*
D03*
Y115157D02*
D03*
Y117126D02*
D03*
Y119095D02*
D03*
Y121063D02*
D03*
Y123031D02*
D03*
Y125000D02*
D03*
Y126969D02*
D03*
Y128937D02*
D03*
Y130905D02*
D03*
Y132874D02*
D03*
Y134843D02*
D03*
X301969Y134843D02*
D03*
Y132874D02*
D03*
Y130906D02*
D03*
Y128937D02*
D03*
Y126969D02*
D03*
Y125000D02*
D03*
Y123032D02*
D03*
Y121063D02*
D03*
Y119095D02*
D03*
Y117126D02*
D03*
Y115158D02*
D03*
Y113189D02*
D03*
Y111221D02*
D03*
Y109252D02*
D03*
Y107284D02*
D03*
Y105315D02*
D03*
Y103347D02*
D03*
Y101378D02*
D03*
X339764Y134843D02*
D03*
Y132874D02*
D03*
Y130906D02*
D03*
Y128937D02*
D03*
Y126969D02*
D03*
Y125000D02*
D03*
Y123032D02*
D03*
Y121063D02*
D03*
Y119095D02*
D03*
Y117126D02*
D03*
Y115158D02*
D03*
Y113189D02*
D03*
Y111221D02*
D03*
Y109252D02*
D03*
Y107284D02*
D03*
Y105315D02*
D03*
Y103347D02*
D03*
Y101378D02*
D03*
D101*
X190945Y118110D02*
D03*
X411417D02*
D03*
X100394D02*
D03*
X320866Y118110D02*
D03*
D102*
X430709Y239075D02*
D03*
X427559D02*
D03*
X424409D02*
D03*
X421260D02*
D03*
X418110D02*
D03*
X414961D02*
D03*
X411811D02*
D03*
X408661D02*
D03*
X405512D02*
D03*
X402362D02*
D03*
X399213D02*
D03*
X396063D02*
D03*
X430709Y201870D02*
D03*
X427559D02*
D03*
X424409D02*
D03*
X421260D02*
D03*
X418110D02*
D03*
X414961D02*
D03*
X411811D02*
D03*
X408661D02*
D03*
X405512D02*
D03*
X402362D02*
D03*
X399213D02*
D03*
X396063D02*
D03*
X321260Y201870D02*
D03*
X324410D02*
D03*
X327559D02*
D03*
X330709D02*
D03*
X333858D02*
D03*
X337008D02*
D03*
X340158D02*
D03*
X343307D02*
D03*
X346457D02*
D03*
X349606D02*
D03*
X352756D02*
D03*
X355906D02*
D03*
X321260Y239075D02*
D03*
X324410D02*
D03*
X327559D02*
D03*
X330709D02*
D03*
X333858D02*
D03*
X337008D02*
D03*
X340158D02*
D03*
X343307D02*
D03*
X346457D02*
D03*
X349606D02*
D03*
X352756D02*
D03*
X355906D02*
D03*
X190551D02*
D03*
X187401D02*
D03*
X184252D02*
D03*
X181102D02*
D03*
X177953D02*
D03*
X174803D02*
D03*
X171653D02*
D03*
X168504D02*
D03*
X165354D02*
D03*
X162205D02*
D03*
X159055D02*
D03*
X155905D02*
D03*
X190551Y201870D02*
D03*
X187401D02*
D03*
X184252D02*
D03*
X181102D02*
D03*
X177953D02*
D03*
X174803D02*
D03*
X171653D02*
D03*
X168504D02*
D03*
X165354D02*
D03*
X162205D02*
D03*
X159055D02*
D03*
X155905D02*
D03*
X81102Y201870D02*
D03*
X84252D02*
D03*
X87402D02*
D03*
X90551D02*
D03*
X93701D02*
D03*
X96850D02*
D03*
X100000D02*
D03*
X103150D02*
D03*
X106299D02*
D03*
X109449D02*
D03*
X112598D02*
D03*
X115748D02*
D03*
X81102Y239075D02*
D03*
X84252D02*
D03*
X87402D02*
D03*
X90551D02*
D03*
X93701D02*
D03*
X96850D02*
D03*
X100000D02*
D03*
X103150D02*
D03*
X106299D02*
D03*
X109449D02*
D03*
X112598D02*
D03*
X115748D02*
D03*
D103*
X413386Y220472D02*
D03*
X338583Y220472D02*
D03*
X173228D02*
D03*
X98425Y220472D02*
D03*
D104*
X232283Y304331D02*
D03*
X235433D02*
D03*
X238583D02*
D03*
X241732D02*
D03*
X244882D02*
D03*
X248031D02*
D03*
X251181D02*
D03*
X254331D02*
D03*
X257480D02*
D03*
X260630D02*
D03*
X263780D02*
D03*
X266929D02*
D03*
X270079D02*
D03*
X273228D02*
D03*
X276378D02*
D03*
X279528D02*
D03*
Y364961D02*
D03*
X276378D02*
D03*
X273228D02*
D03*
X270079D02*
D03*
X266929D02*
D03*
X263780D02*
D03*
X260630D02*
D03*
X257480D02*
D03*
X254331D02*
D03*
X251181D02*
D03*
X248031D02*
D03*
X244882D02*
D03*
X241732D02*
D03*
X238583D02*
D03*
X235433D02*
D03*
X232283D02*
D03*
D105*
X286220Y311024D02*
D03*
Y314173D02*
D03*
Y317323D02*
D03*
Y320472D02*
D03*
Y323622D02*
D03*
Y326772D02*
D03*
Y329921D02*
D03*
Y333071D02*
D03*
Y336220D02*
D03*
Y339370D02*
D03*
Y342520D02*
D03*
Y345669D02*
D03*
Y348819D02*
D03*
Y351969D02*
D03*
Y355118D02*
D03*
Y358268D02*
D03*
X225591D02*
D03*
Y355118D02*
D03*
Y351969D02*
D03*
Y348819D02*
D03*
Y345669D02*
D03*
Y342520D02*
D03*
Y339370D02*
D03*
Y336220D02*
D03*
Y333071D02*
D03*
Y329921D02*
D03*
Y326772D02*
D03*
Y323622D02*
D03*
Y320472D02*
D03*
Y317323D02*
D03*
Y314173D02*
D03*
Y311024D02*
D03*
D106*
X180807Y330709D02*
D03*
D107*
X157776Y321654D02*
D03*
Y330709D02*
D03*
Y339764D02*
D03*
D108*
X122047Y313386D02*
D03*
Y324409D02*
D03*
D109*
X155512Y109803D02*
D03*
Y126417D02*
D03*
X375984Y109803D02*
D03*
Y126417D02*
D03*
X226378Y109803D02*
D03*
Y126417D02*
D03*
X444882Y109803D02*
D03*
Y126417D02*
D03*
X64961Y109803D02*
D03*
Y126417D02*
D03*
X285433Y109803D02*
D03*
Y126417D02*
D03*
X135827Y109803D02*
D03*
Y126417D02*
D03*
X356299Y109803D02*
D03*
Y126417D02*
D03*
D110*
X383858Y218563D02*
D03*
Y202697D02*
D03*
X143701Y218563D02*
D03*
Y202697D02*
D03*
X442913Y218563D02*
D03*
Y202697D02*
D03*
X202756Y218563D02*
D03*
Y202697D02*
D03*
X309055Y218563D02*
D03*
Y202697D02*
D03*
X68898Y218563D02*
D03*
Y202697D02*
D03*
X368110Y218563D02*
D03*
Y202697D02*
D03*
X127953Y218563D02*
D03*
Y202697D02*
D03*
D111*
X391673Y187008D02*
D03*
X407539D02*
D03*
X151516Y187008D02*
D03*
X167382D02*
D03*
X435098Y187008D02*
D03*
X419232D02*
D03*
X194941Y187008D02*
D03*
X179075D02*
D03*
X316870Y187008D02*
D03*
X332736D02*
D03*
X76713Y187008D02*
D03*
X92579D02*
D03*
X360295Y187008D02*
D03*
X344429D02*
D03*
X120138Y187008D02*
D03*
X104272D02*
D03*
D112*
X93701Y248425D02*
D03*
X96850D02*
D03*
X100000D02*
D03*
X103150D02*
D03*
X93701Y255512D02*
D03*
X96850D02*
D03*
X100000D02*
D03*
X103150D02*
D03*
X333858Y248425D02*
D03*
X337008D02*
D03*
X340158D02*
D03*
X343307D02*
D03*
X333858Y255512D02*
D03*
X337008D02*
D03*
X340158D02*
D03*
X343307D02*
D03*
X168504Y248425D02*
D03*
X171653D02*
D03*
X174803D02*
D03*
X177953D02*
D03*
X168504Y255512D02*
D03*
X171653D02*
D03*
X174803D02*
D03*
X177953D02*
D03*
X408661Y248425D02*
D03*
X411811D02*
D03*
X414961D02*
D03*
X418110D02*
D03*
X408661Y255512D02*
D03*
X411811D02*
D03*
X414961D02*
D03*
X418110D02*
D03*
D113*
X27559Y27559D02*
D03*
Y366142D02*
D03*
X484252D02*
D03*
Y27559D02*
D03*
X27559Y196850D02*
D03*
X484252D02*
D03*
D114*
X366142Y78740D02*
D03*
X354331D02*
D03*
X377953D02*
D03*
X342520D02*
D03*
X389764D02*
D03*
X401575D02*
D03*
X330709D02*
D03*
X413386D02*
D03*
X318898D02*
D03*
X360236Y68898D02*
D03*
X372047D02*
D03*
X383858D02*
D03*
X395669D02*
D03*
X407480D02*
D03*
X348425D02*
D03*
X336614D02*
D03*
X324803D02*
D03*
Y57087D02*
D03*
X336614D02*
D03*
X348425D02*
D03*
X407480D02*
D03*
X395669D02*
D03*
X383858D02*
D03*
X372047D02*
D03*
X360236D02*
D03*
X318898Y47244D02*
D03*
X413386D02*
D03*
X330709D02*
D03*
X401575D02*
D03*
X389764D02*
D03*
X342520D02*
D03*
X377953D02*
D03*
X354331D02*
D03*
X366142D02*
D03*
X145669Y78740D02*
D03*
X133858D02*
D03*
X157480D02*
D03*
X122047D02*
D03*
X169291D02*
D03*
X181102D02*
D03*
X110236D02*
D03*
X192913D02*
D03*
X98425D02*
D03*
X139764Y68898D02*
D03*
X151575D02*
D03*
X163386D02*
D03*
X175197D02*
D03*
X187008D02*
D03*
X127953D02*
D03*
X116142D02*
D03*
X104331D02*
D03*
Y57087D02*
D03*
X116142D02*
D03*
X127953D02*
D03*
X187008D02*
D03*
X175197D02*
D03*
X163386D02*
D03*
X151575D02*
D03*
X139764D02*
D03*
X98425Y47244D02*
D03*
X192913D02*
D03*
X110236D02*
D03*
X181102D02*
D03*
X169291D02*
D03*
X122047D02*
D03*
X157480D02*
D03*
X133858D02*
D03*
X145669D02*
D03*
D115*
X290354Y21654D02*
D03*
X441929D02*
D03*
X69882D02*
D03*
X221457D02*
D03*
M02*
