G04 Layer_Color=65535*
%FSLAX25Y25*%
%MOIN*%
G70*
G01*
G75*
%ADD45C,0.00787*%
%ADD46C,0.01968*%
%ADD76C,0.00984*%
%ADD77C,0.02362*%
%ADD78R,0.19685X0.68504*%
G36*
X451732Y325590D02*
X419685D01*
Y335433D01*
X451732D01*
Y325590D01*
D02*
G37*
G36*
X416693D02*
X394488D01*
Y335433D01*
X416693D01*
Y325590D01*
D02*
G37*
%LPC*%
G36*
X427408Y332436D02*
X426588D01*
X425097Y328593D01*
X425916D01*
X426232Y329465D01*
X427782D01*
X428110Y328593D01*
X428952D01*
X427408Y332436D01*
D02*
G37*
G36*
X434661D02*
X432942D01*
Y328593D01*
X433720D01*
Y330196D01*
X433965D01*
X434047Y330190D01*
X434112Y330184D01*
X434164Y330172D01*
X434205Y330167D01*
X434235Y330155D01*
X434252Y330149D01*
X434258D01*
X434305Y330132D01*
X434346Y330108D01*
X434422Y330055D01*
X434451Y330032D01*
X434474Y330009D01*
X434486Y329997D01*
X434492Y329991D01*
X434515Y329968D01*
X434539Y329933D01*
X434603Y329851D01*
X434673Y329763D01*
X434738Y329664D01*
X434802Y329570D01*
X434831Y329535D01*
X434855Y329494D01*
X434872Y329465D01*
X434890Y329441D01*
X434896Y329430D01*
X434901Y329424D01*
X435451Y328593D01*
X436381D01*
X435913Y329342D01*
X435861Y329424D01*
X435814Y329494D01*
X435773Y329564D01*
X435726Y329628D01*
X435656Y329734D01*
X435592Y329821D01*
X435539Y329886D01*
X435504Y329927D01*
X435480Y329956D01*
X435475Y329962D01*
X435410Y330026D01*
X435340Y330085D01*
X435270Y330143D01*
X435206Y330190D01*
X435147Y330231D01*
X435100Y330260D01*
X435071Y330278D01*
X435065Y330284D01*
X435059D01*
X435153Y330301D01*
X435235Y330319D01*
X435317Y330342D01*
X435387Y330371D01*
X435457Y330401D01*
X435522Y330430D01*
X435574Y330459D01*
X435627Y330488D01*
X435668Y330518D01*
X435709Y330547D01*
X435738Y330576D01*
X435767Y330594D01*
X435785Y330617D01*
X435802Y330629D01*
X435814Y330635D01*
Y330641D01*
X435861Y330693D01*
X435902Y330752D01*
X435960Y330869D01*
X436007Y330992D01*
X436042Y331103D01*
X436060Y331202D01*
X436065Y331243D01*
Y331284D01*
X436071Y331313D01*
Y331337D01*
Y331348D01*
Y331354D01*
X436065Y331477D01*
X436048Y331594D01*
X436019Y331694D01*
X435990Y331781D01*
X435954Y331857D01*
X435931Y331910D01*
X435908Y331945D01*
X435902Y331957D01*
X435831Y332050D01*
X435761Y332126D01*
X435685Y332191D01*
X435615Y332243D01*
X435551Y332284D01*
X435498Y332314D01*
X435463Y332325D01*
X435457Y332331D01*
X435451D01*
X435399Y332349D01*
X435334Y332366D01*
X435194Y332390D01*
X435048Y332413D01*
X434901Y332425D01*
X434837Y332431D01*
X434714D01*
X434661Y332436D01*
D02*
G37*
G36*
X432550D02*
X431719D01*
X430783Y329593D01*
X429806Y332436D01*
X428969D01*
X430344Y328593D01*
X431181D01*
X432550Y332436D01*
D02*
G37*
G36*
X441202Y332501D02*
X441132D01*
X440974Y332495D01*
X440827Y332477D01*
X440699Y332460D01*
X440588Y332436D01*
X440500Y332407D01*
X440465Y332396D01*
X440436Y332390D01*
X440412Y332378D01*
X440389Y332372D01*
X440383Y332366D01*
X440377D01*
X440266Y332314D01*
X440172Y332249D01*
X440090Y332185D01*
X440026Y332121D01*
X439973Y332062D01*
X439932Y332015D01*
X439909Y331986D01*
X439903Y331980D01*
Y331974D01*
X439851Y331875D01*
X439810Y331781D01*
X439780Y331688D01*
X439763Y331606D01*
X439751Y331530D01*
X439739Y331477D01*
Y331454D01*
Y331436D01*
Y331430D01*
Y331424D01*
X439745Y331343D01*
X439757Y331261D01*
X439774Y331185D01*
X439792Y331114D01*
X439851Y330980D01*
X439915Y330869D01*
X439950Y330822D01*
X439979Y330775D01*
X440008Y330740D01*
X440038Y330711D01*
X440055Y330687D01*
X440073Y330670D01*
X440085Y330658D01*
X440090Y330652D01*
X440143Y330611D01*
X440202Y330570D01*
X440330Y330494D01*
X440476Y330430D01*
X440623Y330377D01*
X440751Y330330D01*
X440810Y330313D01*
X440863Y330301D01*
X440904Y330290D01*
X440933Y330278D01*
X440956Y330272D01*
X440962D01*
X441050Y330249D01*
X441126Y330231D01*
X441196Y330213D01*
X441260Y330196D01*
X441319Y330178D01*
X441366Y330167D01*
X441412Y330155D01*
X441447Y330143D01*
X441506Y330126D01*
X441547Y330114D01*
X441570Y330102D01*
X441576D01*
X441646Y330073D01*
X441705Y330044D01*
X441752Y330020D01*
X441793Y329991D01*
X441822Y329968D01*
X441840Y329950D01*
X441851Y329939D01*
X441857Y329933D01*
X441886Y329898D01*
X441904Y329857D01*
X441927Y329786D01*
X441933Y329751D01*
X441939Y329728D01*
Y329710D01*
Y329704D01*
X441933Y329628D01*
X441910Y329558D01*
X441880Y329494D01*
X441845Y329441D01*
X441804Y329395D01*
X441775Y329365D01*
X441752Y329342D01*
X441746Y329336D01*
X441670Y329283D01*
X441582Y329242D01*
X441489Y329219D01*
X441395Y329196D01*
X441313Y329184D01*
X441249Y329178D01*
X441184D01*
X441056Y329184D01*
X440944Y329207D01*
X440851Y329237D01*
X440769Y329266D01*
X440705Y329301D01*
X440658Y329324D01*
X440628Y329348D01*
X440617Y329353D01*
X440547Y329430D01*
X440488Y329517D01*
X440441Y329611D01*
X440406Y329699D01*
X440377Y329786D01*
X440359Y329851D01*
X440354Y329880D01*
Y329898D01*
X440348Y329909D01*
Y329915D01*
X439593Y329839D01*
X439611Y329722D01*
X439634Y329611D01*
X439663Y329506D01*
X439692Y329412D01*
X439734Y329324D01*
X439769Y329242D01*
X439810Y329172D01*
X439851Y329102D01*
X439891Y329049D01*
X439926Y328997D01*
X439962Y328956D01*
X439991Y328921D01*
X440020Y328891D01*
X440038Y328874D01*
X440049Y328862D01*
X440055Y328856D01*
X440131Y328798D01*
X440219Y328745D01*
X440307Y328704D01*
X440394Y328663D01*
X440488Y328634D01*
X440582Y328605D01*
X440763Y328564D01*
X440851Y328552D01*
X440927Y328540D01*
X440997Y328535D01*
X441056Y328529D01*
X441108Y328523D01*
X441178D01*
X441360Y328529D01*
X441518Y328546D01*
X441658Y328564D01*
X441781Y328593D01*
X441834Y328605D01*
X441880Y328616D01*
X441916Y328628D01*
X441951Y328634D01*
X441974Y328646D01*
X441992Y328651D01*
X442003Y328657D01*
X442009D01*
X442132Y328716D01*
X442231Y328786D01*
X442325Y328856D01*
X442395Y328926D01*
X442454Y328985D01*
X442495Y329038D01*
X442524Y329073D01*
X442530Y329079D01*
Y329084D01*
X442594Y329196D01*
X442641Y329307D01*
X442670Y329412D01*
X442694Y329506D01*
X442705Y329588D01*
X442717Y329652D01*
Y329675D01*
Y329693D01*
Y329704D01*
Y329710D01*
X442711Y329839D01*
X442694Y329956D01*
X442664Y330061D01*
X442641Y330149D01*
X442612Y330219D01*
X442582Y330278D01*
X442565Y330307D01*
X442559Y330319D01*
X442495Y330406D01*
X442430Y330488D01*
X442360Y330553D01*
X442290Y330611D01*
X442231Y330652D01*
X442185Y330687D01*
X442149Y330705D01*
X442144Y330711D01*
X442138D01*
X442085Y330740D01*
X442027Y330763D01*
X441892Y330816D01*
X441758Y330857D01*
X441617Y330904D01*
X441494Y330933D01*
X441442Y330951D01*
X441395Y330962D01*
X441354Y330974D01*
X441325Y330980D01*
X441307Y330986D01*
X441301D01*
X441202Y331009D01*
X441108Y331038D01*
X441026Y331062D01*
X440956Y331085D01*
X440886Y331103D01*
X440833Y331126D01*
X440781Y331144D01*
X440740Y331167D01*
X440699Y331185D01*
X440669Y331196D01*
X440623Y331220D01*
X440599Y331237D01*
X440593Y331243D01*
X440558Y331284D01*
X440529Y331319D01*
X440512Y331360D01*
X440494Y331395D01*
X440488Y331430D01*
X440482Y331454D01*
Y331471D01*
Y331477D01*
X440488Y331530D01*
X440500Y331576D01*
X440517Y331617D01*
X440541Y331653D01*
X440564Y331682D01*
X440582Y331699D01*
X440593Y331711D01*
X440599Y331717D01*
X440675Y331764D01*
X440763Y331799D01*
X440851Y331822D01*
X440933Y331840D01*
X441009Y331852D01*
X441073Y331857D01*
X441126D01*
X441243Y331852D01*
X441342Y331834D01*
X441424Y331816D01*
X441494Y331793D01*
X441547Y331764D01*
X441582Y331746D01*
X441606Y331729D01*
X441611Y331723D01*
X441670Y331670D01*
X441717Y331606D01*
X441752Y331536D01*
X441781Y331465D01*
X441804Y331401D01*
X441816Y331348D01*
X441828Y331313D01*
Y331307D01*
Y331302D01*
X442606Y331331D01*
X442600Y331424D01*
X442582Y331518D01*
X442559Y331606D01*
X442536Y331688D01*
X442471Y331828D01*
X442442Y331892D01*
X442407Y331951D01*
X442372Y332004D01*
X442337Y332050D01*
X442308Y332091D01*
X442278Y332121D01*
X442255Y332144D01*
X442237Y332161D01*
X442226Y332173D01*
X442220Y332179D01*
X442149Y332238D01*
X442068Y332284D01*
X441986Y332331D01*
X441898Y332366D01*
X441717Y332425D01*
X441541Y332460D01*
X441459Y332472D01*
X441383Y332483D01*
X441313Y332489D01*
X441249Y332495D01*
X441202Y332501D01*
D02*
G37*
G36*
X439061Y332436D02*
X438283D01*
Y328593D01*
X439061D01*
Y332436D01*
D02*
G37*
G36*
X444852D02*
X443378D01*
Y328593D01*
X444156D01*
Y330044D01*
X444846D01*
X444928Y330050D01*
X445004D01*
X445080Y330055D01*
X445145Y330061D01*
X445203Y330067D01*
X445256Y330073D01*
X445303D01*
X445344Y330079D01*
X445379Y330085D01*
X445408Y330091D01*
X445431D01*
X445449Y330097D01*
X445461D01*
X445537Y330120D01*
X445613Y330143D01*
X445677Y330172D01*
X445741Y330208D01*
X445788Y330231D01*
X445829Y330254D01*
X445858Y330272D01*
X445864Y330278D01*
X445934Y330336D01*
X445999Y330395D01*
X446057Y330459D01*
X446104Y330523D01*
X446139Y330576D01*
X446169Y330617D01*
X446186Y330646D01*
X446192Y330658D01*
X446233Y330752D01*
X446268Y330851D01*
X446291Y330951D01*
X446303Y331044D01*
X446315Y331126D01*
X446321Y331190D01*
Y331214D01*
Y331231D01*
Y331243D01*
Y331249D01*
X446309Y331413D01*
X446285Y331559D01*
X446250Y331688D01*
X446209Y331799D01*
X446163Y331881D01*
X446145Y331916D01*
X446128Y331945D01*
X446116Y331968D01*
X446104Y331986D01*
X446092Y331992D01*
Y331998D01*
X446005Y332097D01*
X445911Y332179D01*
X445823Y332249D01*
X445736Y332296D01*
X445659Y332337D01*
X445595Y332360D01*
X445572Y332366D01*
X445560Y332372D01*
X445548Y332378D01*
X445542D01*
X445496Y332390D01*
X445443Y332396D01*
X445379Y332407D01*
X445308Y332413D01*
X445156Y332425D01*
X444999Y332431D01*
X444922D01*
X444852Y332436D01*
D02*
G37*
%LPD*%
G36*
X427530Y330114D02*
X426472D01*
X426992Y331541D01*
X427530Y330114D01*
D02*
G37*
G36*
X434656Y331781D02*
X434773D01*
X434825Y331775D01*
X434855D01*
X434872Y331770D01*
X434878D01*
X434942Y331752D01*
X435001Y331734D01*
X435048Y331711D01*
X435089Y331682D01*
X435124Y331658D01*
X435147Y331635D01*
X435159Y331623D01*
X435165Y331617D01*
X435200Y331571D01*
X435223Y331518D01*
X435247Y331465D01*
X435258Y331419D01*
X435264Y331378D01*
X435270Y331343D01*
Y331313D01*
Y331307D01*
X435264Y331243D01*
X435258Y331190D01*
X435247Y331138D01*
X435229Y331097D01*
X435211Y331062D01*
X435200Y331038D01*
X435194Y331021D01*
X435188Y331015D01*
X435159Y330974D01*
X435124Y330945D01*
X435053Y330892D01*
X435018Y330880D01*
X434995Y330869D01*
X434977Y330857D01*
X434972D01*
X434942Y330851D01*
X434901Y330839D01*
X434860Y330834D01*
X434808Y330828D01*
X434697Y330822D01*
X434580Y330816D01*
X434469Y330810D01*
X433720D01*
Y331787D01*
X434603D01*
X434656Y331781D01*
D02*
G37*
G36*
X444788D02*
X444887Y331775D01*
X444963D01*
X445016Y331770D01*
X445051Y331764D01*
X445075Y331758D01*
X445080D01*
X445151Y331740D01*
X445209Y331717D01*
X445268Y331688D01*
X445308Y331658D01*
X445350Y331629D01*
X445373Y331606D01*
X445390Y331588D01*
X445396Y331582D01*
X445437Y331530D01*
X445467Y331471D01*
X445490Y331413D01*
X445502Y331360D01*
X445513Y331313D01*
X445519Y331272D01*
Y331249D01*
Y331237D01*
X445513Y331179D01*
X445507Y331120D01*
X445490Y331068D01*
X445478Y331027D01*
X445461Y330992D01*
X445443Y330962D01*
X445437Y330945D01*
X445431Y330939D01*
X445396Y330892D01*
X445355Y330857D01*
X445314Y330822D01*
X445273Y330799D01*
X445238Y330775D01*
X445209Y330763D01*
X445191Y330757D01*
X445186Y330752D01*
X445156Y330740D01*
X445116Y330734D01*
X445028Y330717D01*
X444928Y330705D01*
X444823Y330699D01*
X444729D01*
X444688Y330693D01*
X444156D01*
Y331787D01*
X444735D01*
X444788Y331781D01*
D02*
G37*
%LPC*%
G36*
X406053Y332434D02*
X405234D01*
X403742Y328590D01*
X404561D01*
X404877Y329462D01*
X406427D01*
X406755Y328590D01*
X407597D01*
X406053Y332434D01*
D02*
G37*
G36*
X411060D02*
X410341D01*
Y329854D01*
X408755Y332434D01*
X408007D01*
Y328590D01*
X408726D01*
Y331111D01*
X410282Y328590D01*
X411060D01*
Y332434D01*
D02*
G37*
G36*
X401987Y332498D02*
X401917D01*
X401770Y332492D01*
X401630Y332474D01*
X401496Y332451D01*
X401373Y332416D01*
X401256Y332375D01*
X401150Y332328D01*
X401051Y332281D01*
X400963Y332235D01*
X400881Y332182D01*
X400811Y332135D01*
X400753Y332088D01*
X400700Y332047D01*
X400665Y332012D01*
X400636Y331989D01*
X400618Y331971D01*
X400612Y331965D01*
X400524Y331860D01*
X400448Y331749D01*
X400384Y331632D01*
X400326Y331509D01*
X400279Y331386D01*
X400244Y331258D01*
X400209Y331141D01*
X400185Y331018D01*
X400162Y330907D01*
X400144Y330807D01*
X400138Y330714D01*
X400127Y330632D01*
Y330567D01*
X400121Y330515D01*
Y330486D01*
Y330474D01*
X400127Y330310D01*
X400144Y330152D01*
X400168Y330006D01*
X400197Y329871D01*
X400238Y329743D01*
X400279Y329626D01*
X400320Y329514D01*
X400366Y329421D01*
X400413Y329333D01*
X400454Y329257D01*
X400501Y329193D01*
X400536Y329140D01*
X400565Y329099D01*
X400589Y329070D01*
X400606Y329052D01*
X400612Y329046D01*
X400706Y328953D01*
X400805Y328877D01*
X400911Y328806D01*
X401016Y328748D01*
X401121Y328695D01*
X401227Y328654D01*
X401326Y328619D01*
X401425Y328590D01*
X401519Y328567D01*
X401601Y328555D01*
X401677Y328543D01*
X401741Y328532D01*
X401794D01*
X401835Y328526D01*
X401870D01*
X401981Y328532D01*
X402092Y328537D01*
X402192Y328555D01*
X402291Y328573D01*
X402379Y328596D01*
X402461Y328619D01*
X402537Y328649D01*
X402607Y328678D01*
X402671Y328707D01*
X402730Y328736D01*
X402777Y328760D01*
X402818Y328783D01*
X402847Y328801D01*
X402870Y328818D01*
X402882Y328824D01*
X402888Y328830D01*
X402964Y328888D01*
X403028Y328959D01*
X403151Y329105D01*
X403251Y329263D01*
X403327Y329415D01*
X403362Y329485D01*
X403391Y329555D01*
X403414Y329614D01*
X403432Y329666D01*
X403449Y329713D01*
X403461Y329743D01*
X403467Y329766D01*
Y329772D01*
X402712Y330006D01*
X402671Y329854D01*
X402619Y329731D01*
X402566Y329620D01*
X402514Y329532D01*
X402467Y329468D01*
X402426Y329415D01*
X402402Y329392D01*
X402391Y329380D01*
X402303Y329315D01*
X402215Y329269D01*
X402127Y329234D01*
X402040Y329210D01*
X401969Y329199D01*
X401911Y329193D01*
X401888Y329187D01*
X401858D01*
X401782Y329193D01*
X401712Y329199D01*
X401577Y329234D01*
X401460Y329280D01*
X401361Y329339D01*
X401285Y329397D01*
X401227Y329444D01*
X401191Y329479D01*
X401186Y329485D01*
X401180Y329491D01*
X401133Y329555D01*
X401098Y329626D01*
X401063Y329702D01*
X401033Y329784D01*
X400987Y329959D01*
X400957Y330129D01*
X400946Y330210D01*
X400934Y330287D01*
X400928Y330351D01*
Y330415D01*
X400922Y330462D01*
Y330503D01*
Y330526D01*
Y330532D01*
X400928Y330655D01*
X400934Y330772D01*
X400946Y330883D01*
X400963Y330977D01*
X400981Y331070D01*
X401004Y331152D01*
X401028Y331223D01*
X401057Y331287D01*
X401080Y331345D01*
X401104Y331392D01*
X401127Y331433D01*
X401145Y331468D01*
X401162Y331492D01*
X401174Y331515D01*
X401186Y331521D01*
Y331527D01*
X401238Y331579D01*
X401291Y331632D01*
X401349Y331673D01*
X401402Y331708D01*
X401519Y331761D01*
X401630Y331796D01*
X401730Y331819D01*
X401770Y331825D01*
X401806Y331831D01*
X401835Y331837D01*
X401876D01*
X401987Y331831D01*
X402086Y331808D01*
X402180Y331784D01*
X402256Y331749D01*
X402320Y331720D01*
X402361Y331691D01*
X402391Y331667D01*
X402402Y331661D01*
X402478Y331591D01*
X402537Y331515D01*
X402590Y331439D01*
X402625Y331363D01*
X402654Y331293D01*
X402677Y331240D01*
X402683Y331205D01*
X402689Y331199D01*
Y331193D01*
X403455Y331375D01*
X403403Y331539D01*
X403338Y331679D01*
X403268Y331796D01*
X403204Y331895D01*
X403145Y331977D01*
X403098Y332030D01*
X403069Y332065D01*
X403063Y332077D01*
X403057D01*
X402970Y332153D01*
X402882Y332217D01*
X402788Y332270D01*
X402695Y332322D01*
X402601Y332363D01*
X402502Y332393D01*
X402414Y332422D01*
X402320Y332445D01*
X402239Y332463D01*
X402162Y332474D01*
X402092Y332486D01*
X402034Y332492D01*
X401987Y332498D01*
D02*
G37*
%LPD*%
G36*
X406176Y330111D02*
X405117D01*
X405637Y331539D01*
X406176Y330111D01*
D02*
G37*
D45*
X79134Y298031D02*
X86221D01*
X79134Y284646D02*
X86221D01*
X197244Y303937D02*
Y318110D01*
X188583Y303937D02*
X197244D01*
X188583D02*
Y318110D01*
X197244D01*
X429134Y289370D02*
X437008D01*
Y285433D02*
Y289370D01*
X429134Y285433D02*
X437008D01*
X429134D02*
Y289370D01*
Y297244D02*
X437008D01*
Y293307D02*
Y297244D01*
X429134Y293307D02*
X437008D01*
X429134D02*
Y297244D01*
X251575Y126673D02*
Y130610D01*
X253150D01*
X260236Y126673D02*
Y130610D01*
X258661D02*
X260236D01*
X278937Y157283D02*
Y157677D01*
X272244Y157283D02*
Y157677D01*
X278937D01*
X272244Y157283D02*
X278937D01*
X260433D02*
X267126D01*
X260433Y157677D02*
X267126D01*
X260433Y157283D02*
Y157677D01*
X267126Y157283D02*
Y157677D01*
X251378Y157283D02*
Y157677D01*
X244685Y157283D02*
Y157677D01*
X251378D01*
X244685Y157283D02*
X251378D01*
X232874D02*
X239567D01*
X232874Y157677D02*
X239567D01*
X232874Y157283D02*
Y157677D01*
X239567Y157283D02*
Y157677D01*
X400394Y247244D02*
Y256693D01*
X394882Y247244D02*
X400394D01*
X394882D02*
Y256693D01*
X400394D01*
X191142Y272244D02*
Y286811D01*
X171063Y272244D02*
Y286811D01*
X191142D01*
X171063Y272244D02*
X191142D01*
X325591Y247244D02*
Y256693D01*
X320079Y247244D02*
X325591D01*
X320079D02*
Y256693D01*
X325591D01*
X160236Y247244D02*
Y256693D01*
X154724Y247244D02*
X160236D01*
X154724D02*
Y256693D01*
X160236D01*
X85433Y247244D02*
Y256693D01*
X79921Y247244D02*
X85433D01*
X79921D02*
Y256693D01*
X85433D01*
X223622Y231102D02*
X233071D01*
Y225590D02*
Y231102D01*
X223622Y225590D02*
X233071D01*
X223622D02*
Y231102D01*
Y278346D02*
X233071D01*
Y272835D02*
Y278346D01*
X223622Y272835D02*
X233071D01*
X223622D02*
Y278346D01*
X281496Y269685D02*
Y277559D01*
X277559Y269685D02*
X281496D01*
X277559D02*
Y277559D01*
X281496D01*
Y222441D02*
Y230315D01*
X277559Y222441D02*
X281496D01*
X277559D02*
Y230315D01*
X281496D01*
X344488Y265748D02*
X352362D01*
X344488D02*
Y269685D01*
X352362D01*
Y265748D02*
Y269685D01*
X159803Y293307D02*
X167677D01*
Y289370D02*
Y293307D01*
X159803Y289370D02*
X167677D01*
X159803D02*
Y293307D01*
X284646Y298425D02*
X294094D01*
X284646D02*
Y303937D01*
X294094D01*
Y298425D02*
Y303937D01*
X60630Y140551D02*
X70079D01*
Y135039D02*
Y140551D01*
X60630Y135039D02*
X70079D01*
X60630D02*
Y140551D01*
X151575D02*
X161024D01*
Y135039D02*
Y140551D01*
X151575Y135039D02*
X161024D01*
X151575D02*
Y140551D01*
X279528D02*
X288976D01*
Y135039D02*
Y140551D01*
X279528Y135039D02*
X288976D01*
X279528D02*
Y140551D01*
X371161D02*
X380610D01*
Y135039D02*
Y140551D01*
X371161Y135039D02*
X380610D01*
X371161D02*
Y140551D01*
X273228Y39370D02*
Y51181D01*
X266142Y39370D02*
Y51181D01*
X273228D01*
X266142Y39370D02*
X273228D01*
X113583Y316535D02*
Y321260D01*
X106890Y316535D02*
Y321260D01*
X248720Y30610D02*
Y52067D01*
X263091Y30610D02*
Y52067D01*
X248720Y30610D02*
X249606D01*
X262205D02*
X263091D01*
X248720Y52067D02*
X249606D01*
X262205D02*
X263091D01*
X278346Y88189D02*
X282087D01*
X287008Y83268D01*
X260236D02*
X265158Y88189D01*
X268898D01*
X287008Y61417D02*
Y83268D01*
X278346Y61417D02*
X287008D01*
X260236D02*
X268898D01*
X260236D02*
Y83268D01*
X143701Y313346D02*
Y321220D01*
X147638D01*
Y313346D02*
Y321220D01*
X143701Y313346D02*
X147638D01*
X138583Y329921D02*
Y347244D01*
X129134Y329921D02*
X138583D01*
X129134D02*
Y347244D01*
X138583D01*
X129134Y310236D02*
Y327559D01*
X138583D01*
Y310236D02*
Y327559D01*
X129134Y310236D02*
X138583D01*
X245669Y39370D02*
Y51181D01*
X238583Y39370D02*
Y51181D01*
X245669D01*
X238583Y39370D02*
X245669D01*
X246457Y288386D02*
X265354D01*
X246457Y247047D02*
X265354D01*
X246457D02*
Y288386D01*
X265354Y247047D02*
Y288386D01*
X246457Y241142D02*
X265354D01*
X246457Y199803D02*
X265354D01*
X246457D02*
Y241142D01*
X265354Y199803D02*
Y241142D01*
X317421Y339665D02*
X318209Y340453D01*
X317421Y361122D02*
X318209Y360335D01*
X303839D02*
X304626Y361122D01*
X303839Y340453D02*
X304626Y339665D01*
X318209Y340453D02*
Y352756D01*
X317323Y339665D02*
X317421D01*
X318209Y352756D02*
Y360335D01*
X317323Y361122D02*
X317421D01*
X304626D02*
X304724D01*
X303839Y348032D02*
Y360335D01*
Y340453D02*
Y348032D01*
X304626Y339665D02*
X304724D01*
X344094Y312992D02*
X356693D01*
X344094Y332677D02*
X356693D01*
Y312992D02*
Y332677D01*
X344094Y312992D02*
Y332677D01*
X205217Y97835D02*
Y138386D01*
X176673Y97835D02*
Y138386D01*
Y97835D02*
X205217D01*
X176673Y138386D02*
X205217D01*
X397146D02*
X425689D01*
X397146Y97835D02*
X425689D01*
X397146D02*
Y138386D01*
X425689Y97835D02*
Y138386D01*
X114665Y97835D02*
Y138386D01*
X86122Y97835D02*
Y138386D01*
Y97835D02*
X114665D01*
X86122Y138386D02*
X114665D01*
X306594Y138386D02*
X335138D01*
X306594Y97835D02*
X335138D01*
X306594D02*
Y138386D01*
X335138Y97835D02*
Y138386D01*
X392717Y234055D02*
X434055D01*
X392717Y206890D02*
X434055D01*
Y234055D01*
X392717Y206890D02*
Y234055D01*
X317914Y206890D02*
Y234055D01*
X359252Y206890D02*
Y234055D01*
X317914Y206890D02*
X359252D01*
X317914Y234055D02*
X359252D01*
X152559D02*
X193898D01*
X152559Y206890D02*
X193898D01*
Y234055D01*
X152559Y206890D02*
Y234055D01*
X77756Y206890D02*
Y234055D01*
X119095Y206890D02*
Y234055D01*
X77756Y206890D02*
X119095D01*
X77756Y234055D02*
X119095D01*
X229921Y308661D02*
X281890D01*
X229921Y360630D02*
X281890D01*
X229921Y308661D02*
Y360630D01*
X281890Y308661D02*
Y360630D01*
X163189Y317520D02*
X175394D01*
X163189Y343898D02*
X175394D01*
Y317520D02*
Y343898D01*
X163189Y317520D02*
Y343898D01*
X275591Y37402D02*
X307087D01*
Y88583D01*
X425197D01*
Y37402D02*
Y88583D01*
Y37402D02*
X456693D01*
Y21654D02*
Y37402D01*
X275591Y21654D02*
Y37402D01*
X55118D02*
X86614D01*
Y88583D01*
X204724D01*
Y37402D02*
Y88583D01*
Y37402D02*
X236220D01*
Y21654D02*
Y37402D01*
X55118Y21654D02*
Y37402D01*
X126772Y309449D02*
Y328346D01*
X117323Y309449D02*
X126772D01*
X117323D02*
Y328346D01*
X126772D01*
X147638Y109055D02*
X149646D01*
X147638Y127165D02*
X149646D01*
X161378Y109055D02*
X163386D01*
X161378Y127165D02*
X163386D01*
X147638Y109055D02*
Y127165D01*
X163386Y109055D02*
Y127165D01*
X368110Y109055D02*
X370118D01*
X368110Y127165D02*
X370118D01*
X381851Y109055D02*
X383858D01*
X381851Y127165D02*
X383858D01*
X368110Y109055D02*
Y127165D01*
X383858Y109055D02*
Y127165D01*
X389567Y201575D02*
Y219685D01*
X378150Y201575D02*
Y219685D01*
X388661D02*
X389567D01*
X388661Y201575D02*
X389567D01*
X378150Y219685D02*
X379055D01*
X378150Y201575D02*
X379055D01*
X149409Y201575D02*
Y219685D01*
X137992Y201575D02*
Y219685D01*
X148504D02*
X149409D01*
X148504Y201575D02*
X149409D01*
X137992Y219685D02*
X138898D01*
X137992Y201575D02*
X138898D01*
X390551Y192717D02*
X408662D01*
X390551Y181299D02*
X408662D01*
X390551Y191811D02*
Y192717D01*
X408662Y191811D02*
Y192717D01*
X390551Y181299D02*
Y182205D01*
X408662Y181299D02*
Y182205D01*
X150394Y192717D02*
X168504D01*
X150394Y181299D02*
X168504D01*
X150394Y191811D02*
Y192717D01*
X168504Y191811D02*
Y192717D01*
X150394Y181299D02*
Y182205D01*
X168504Y181299D02*
Y182205D01*
X418110Y181299D02*
X436221D01*
X418110Y192717D02*
X436221D01*
Y181299D02*
Y182205D01*
X418110Y181299D02*
Y182205D01*
X436221Y191811D02*
Y192717D01*
X418110Y191811D02*
Y192717D01*
X177953Y181299D02*
X196063D01*
X177953Y192717D02*
X196063D01*
Y181299D02*
Y182205D01*
X177953Y181299D02*
Y182205D01*
X196063Y191811D02*
Y192717D01*
X177953Y191811D02*
Y192717D01*
X448622Y201575D02*
Y219685D01*
X437205Y201575D02*
Y219685D01*
X447717D02*
X448622D01*
X447717Y201575D02*
X448622D01*
X437205Y219685D02*
X438110D01*
X437205Y201575D02*
X438110D01*
X208465Y201575D02*
Y219685D01*
X197047Y201575D02*
Y219685D01*
X207559D02*
X208465D01*
X207559Y201575D02*
X208465D01*
X197047Y219685D02*
X197953D01*
X197047Y201575D02*
X197953D01*
X314764Y201575D02*
Y219685D01*
X303346Y201575D02*
Y219685D01*
X313858D02*
X314764D01*
X313858Y201575D02*
X314764D01*
X303346Y219685D02*
X304252D01*
X303346Y201575D02*
X304252D01*
X74606Y201575D02*
Y219685D01*
X63189Y201575D02*
Y219685D01*
X73701D02*
X74606D01*
X73701Y201575D02*
X74606D01*
X63189Y219685D02*
X64095D01*
X63189Y201575D02*
X64095D01*
X315748Y192717D02*
X333858D01*
X315748Y181299D02*
X333858D01*
X315748Y191811D02*
Y192717D01*
X333858Y191811D02*
Y192717D01*
X315748Y181299D02*
Y182205D01*
X333858Y181299D02*
Y182205D01*
X75590Y192717D02*
X93701D01*
X75590Y181299D02*
X93701D01*
X75590Y191811D02*
Y192717D01*
X93701Y191811D02*
Y192717D01*
X75590Y181299D02*
Y182205D01*
X93701Y181299D02*
Y182205D01*
X343307Y181299D02*
X361418D01*
X343307Y192717D02*
X361418D01*
Y181299D02*
Y182205D01*
X343307Y181299D02*
Y182205D01*
X361418Y191811D02*
Y192717D01*
X343307Y191811D02*
Y192717D01*
X103149Y181299D02*
X121260D01*
X103149Y192717D02*
X121260D01*
Y181299D02*
Y182205D01*
X103149Y181299D02*
Y182205D01*
X121260Y191811D02*
Y192717D01*
X103149Y191811D02*
Y192717D01*
X373819Y201575D02*
Y219685D01*
X362402Y201575D02*
Y219685D01*
X372914D02*
X373819D01*
X372914Y201575D02*
X373819D01*
X362402Y219685D02*
X363307D01*
X362402Y201575D02*
X363307D01*
X133661Y201575D02*
Y219685D01*
X122244Y201575D02*
Y219685D01*
X132756D02*
X133661D01*
X132756Y201575D02*
X133661D01*
X122244Y219685D02*
X123150D01*
X122244Y201575D02*
X123150D01*
X218504Y109055D02*
X220512D01*
X218504Y127165D02*
X220512D01*
X232244Y109055D02*
X234252D01*
X232244Y127165D02*
X234252D01*
X218504Y109055D02*
Y127165D01*
X234252Y109055D02*
Y127165D01*
X437008Y109055D02*
X439016D01*
X437008Y127165D02*
X439016D01*
X450748Y109055D02*
X452756D01*
X450748Y127165D02*
X452756D01*
X437008Y109055D02*
Y127165D01*
X452756Y109055D02*
Y127165D01*
X57087Y109055D02*
X59094D01*
X57087Y127165D02*
X59094D01*
X70827Y109055D02*
X72835D01*
X70827Y127165D02*
X72835D01*
X57087Y109055D02*
Y127165D01*
X72835Y109055D02*
Y127165D01*
X277559Y109055D02*
X279567D01*
X277559Y127165D02*
X279567D01*
X291299Y109055D02*
X293307D01*
X291299Y127165D02*
X293307D01*
X277559Y109055D02*
Y127165D01*
X293307Y109055D02*
Y127165D01*
X127953Y109055D02*
X129961D01*
X127953Y127165D02*
X129961D01*
X141693Y109055D02*
X143701D01*
X141693Y127165D02*
X143701D01*
X127953Y109055D02*
Y127165D01*
X143701Y109055D02*
Y127165D01*
X348425Y109055D02*
X350433D01*
X348425Y127165D02*
X350433D01*
X362165Y109055D02*
X364173D01*
X362165Y127165D02*
X364173D01*
X348425Y109055D02*
Y127165D01*
X364173Y109055D02*
Y127165D01*
X150394Y329921D02*
Y347244D01*
X140945Y329921D02*
X150394D01*
X140945D02*
Y347244D01*
X150394D01*
X224803Y61417D02*
Y83268D01*
Y61417D02*
X233465D01*
X242913D02*
X251575D01*
Y83268D01*
X229724Y88189D02*
X233465D01*
X224803Y83268D02*
X229724Y88189D01*
X246654D02*
X251575Y83268D01*
X242913Y88189D02*
X246654D01*
X319291Y316929D02*
Y328740D01*
X326378Y316929D02*
Y328740D01*
X319291Y316929D02*
X326378D01*
X319291Y328740D02*
X326378D01*
X332677Y318898D02*
Y326772D01*
X328740Y318898D02*
X332677D01*
X328740D02*
Y326772D01*
X332677D01*
X297244Y350394D02*
Y358268D01*
X301181D01*
Y350394D02*
Y358268D01*
X297244Y350394D02*
X301181D01*
Y338583D02*
Y346457D01*
X297244Y338583D02*
X301181D01*
X297244D02*
Y346457D01*
X301181D01*
X208268Y340551D02*
Y352362D01*
X201181Y340551D02*
Y352362D01*
X208268D01*
X201181Y340551D02*
X208268D01*
X303543Y316929D02*
Y328740D01*
X310630Y316929D02*
Y328740D01*
X303543Y316929D02*
X310630D01*
X303543Y328740D02*
X310630D01*
X210630Y342520D02*
Y350394D01*
X214567D01*
Y342520D02*
Y350394D01*
X210630Y342520D02*
X214567D01*
X301181Y318898D02*
Y326772D01*
X297244Y318898D02*
X301181D01*
X297244D02*
Y326772D01*
X301181D01*
X201181Y305118D02*
Y316929D01*
X208268Y305118D02*
Y316929D01*
X201181Y305118D02*
X208268D01*
X201181Y316929D02*
X208268D01*
X214567Y307087D02*
Y314961D01*
X210630Y307087D02*
X214567D01*
X210630D02*
Y314961D01*
X214567D01*
Y318898D02*
Y326772D01*
X210630Y318898D02*
X214567D01*
X210630D02*
Y326772D01*
X214567D01*
X320669Y272244D02*
Y286811D01*
X340748Y272244D02*
Y286811D01*
X320669Y272244D02*
X340748D01*
X320669Y286811D02*
X340748D01*
X451968Y339370D02*
Y361417D01*
X419921D02*
X451968D01*
X419921Y339370D02*
X451968D01*
X419921D02*
Y361417D01*
X395000Y339370D02*
Y351575D01*
Y339370D02*
X417047D01*
Y351575D01*
X395000D02*
X417047D01*
X453543Y292520D02*
Y298031D01*
X444095D02*
X453543D01*
X444095Y292520D02*
Y298031D01*
Y292520D02*
X453543D01*
Y284646D02*
Y290158D01*
X444095D02*
X453543D01*
X444095Y284646D02*
Y290158D01*
Y284646D02*
X453543D01*
X52362Y359449D02*
X53937D01*
X50787Y361811D02*
X55512D01*
X49213Y364173D02*
X57087D01*
X53150D02*
Y366929D01*
X144095Y280709D02*
X151181D01*
X144095Y294094D02*
X151181D01*
X144095Y264961D02*
X151181D01*
X144095Y278346D02*
X151181D01*
X360630Y264961D02*
X367717D01*
X360630Y278346D02*
X367717D01*
X360630Y294094D02*
X367717D01*
X360630Y280709D02*
X367717D01*
X65616Y370626D02*
X63910Y369774D01*
X62205Y368068D01*
Y366363D01*
X63058Y365510D01*
X64763D01*
X65616Y366363D01*
Y367215D01*
X64763Y368068D01*
X62205D01*
X67321Y368921D02*
X70732Y365510D01*
X69027Y367215D01*
X70732Y368921D01*
X67321Y365510D01*
X63058Y357480D02*
Y362597D01*
X64763D02*
Y357480D01*
X62205Y360891D02*
X64763D01*
X65616D01*
X62205Y359186D02*
X65616D01*
X70732Y362597D02*
X69027Y361744D01*
X67321Y360038D01*
Y358333D01*
X68174Y357480D01*
X69879D01*
X70732Y358333D01*
Y359186D01*
X69879Y360038D01*
X67321D01*
X72438D02*
X75849D01*
X77554Y361744D02*
X78407Y362597D01*
X80112D01*
X80965Y361744D01*
Y360891D01*
X80112Y360038D01*
X79260D01*
X80112D01*
X80965Y359186D01*
Y358333D01*
X80112Y357480D01*
X78407D01*
X77554Y358333D01*
X86082Y357480D02*
X82671D01*
X86082Y360891D01*
Y361744D01*
X85229Y362597D01*
X83523D01*
X82671Y361744D01*
X66929Y263779D02*
X62206D01*
Y266141D01*
X62993Y266928D01*
X64568D01*
X65355Y266141D01*
Y263779D01*
Y265354D02*
X66929Y266928D01*
Y268502D02*
X63780D01*
X62206Y270077D01*
X63780Y271651D01*
X66929D01*
X64568D01*
Y268502D01*
X66929Y276374D02*
Y273225D01*
X63780Y276374D01*
X62993D01*
X62206Y275587D01*
Y274012D01*
X62993Y273225D01*
X80710Y266928D02*
X79923Y266141D01*
Y264567D01*
X80710Y263779D01*
X83859D01*
X84646Y264567D01*
Y266141D01*
X83859Y266928D01*
X84646Y268502D02*
X81497D01*
X79923Y270077D01*
X81497Y271651D01*
X84646D01*
X82284D01*
Y268502D01*
X84646Y273225D02*
Y274800D01*
Y274012D01*
X79923D01*
X80710Y273225D01*
X194096Y294487D02*
Y291339D01*
X196458D01*
Y292913D01*
Y291339D01*
X198819D01*
X194096Y296061D02*
X198819D01*
Y298423D01*
X198032Y299210D01*
X197245D01*
X196458Y298423D01*
Y296061D01*
Y298423D01*
X195670Y299210D01*
X194883D01*
X194096Y298423D01*
Y296061D01*
X198819Y300784D02*
Y302359D01*
Y301571D01*
X194096D01*
X194883Y300784D01*
X426377Y271652D02*
X425590Y272439D01*
X424016D01*
X423228Y271652D01*
Y268504D01*
X424016Y267717D01*
X425590D01*
X426377Y268504D01*
X431100Y267717D02*
X427951D01*
X431100Y270865D01*
Y271652D01*
X430313Y272439D01*
X428738D01*
X427951Y271652D01*
X435823Y272439D02*
X432674D01*
Y270078D01*
X434248Y270865D01*
X435036D01*
X435823Y270078D01*
Y268504D01*
X435036Y267717D01*
X433461D01*
X432674Y268504D01*
X426377Y279526D02*
X425590Y280313D01*
X424016D01*
X423228Y279526D01*
Y276378D01*
X424016Y275590D01*
X425590D01*
X426377Y276378D01*
X431100Y275590D02*
X427951D01*
X431100Y278739D01*
Y279526D01*
X430313Y280313D01*
X428738D01*
X427951Y279526D01*
X435036Y275590D02*
Y280313D01*
X432674Y277952D01*
X435823D01*
X249606Y118109D02*
Y113386D01*
X251968D01*
X252755Y114173D01*
Y117322D01*
X251968Y118109D01*
X249606D01*
X254329Y113386D02*
X255904D01*
X255116D01*
Y118109D01*
X254329Y117322D01*
X261414Y118109D02*
X258265D01*
Y115747D01*
X259839Y116534D01*
X260626D01*
X261414Y115747D01*
Y114173D01*
X260626Y113386D01*
X259052D01*
X258265Y114173D01*
X270868Y135827D02*
X274803D01*
X275590Y136614D01*
Y138188D01*
X274803Y138975D01*
X270868D01*
X275590Y140550D02*
Y142124D01*
Y141337D01*
X270868D01*
X271655Y140550D01*
Y144485D02*
X270868Y145273D01*
Y146847D01*
X271655Y147634D01*
X272442D01*
X273229Y146847D01*
Y146060D01*
Y146847D01*
X274016Y147634D01*
X274803D01*
X275590Y146847D01*
Y145273D01*
X274803Y144485D01*
X261025Y135827D02*
X264961D01*
X265748Y136614D01*
Y138188D01*
X264961Y138975D01*
X261025D01*
X265748Y140550D02*
Y142124D01*
Y141337D01*
X261025D01*
X261812Y140550D01*
X265748Y147634D02*
Y144485D01*
X262599Y147634D01*
X261812D01*
X261025Y146847D01*
Y145273D01*
X261812Y144485D01*
X245277Y135827D02*
X249213D01*
X250000Y136614D01*
Y138188D01*
X249213Y138975D01*
X245277D01*
X250000Y140550D02*
Y142124D01*
Y141337D01*
X245277D01*
X246064Y140550D01*
X250000Y144485D02*
Y146060D01*
Y145273D01*
X245277D01*
X246064Y144485D01*
X233466Y135827D02*
X237402D01*
X238189Y136614D01*
Y138188D01*
X237402Y138975D01*
X233466D01*
X234253Y140550D02*
X233466Y141337D01*
Y142911D01*
X234253Y143698D01*
X235040D01*
X235827Y142911D01*
X236615Y143698D01*
X237402D01*
X238189Y142911D01*
Y141337D01*
X237402Y140550D01*
X236615D01*
X235827Y141337D01*
X235040Y140550D01*
X234253D01*
X235827Y141337D02*
Y142911D01*
X379921Y255906D02*
Y260628D01*
X382283D01*
X383070Y259841D01*
Y258267D01*
X382283Y257480D01*
X379921D01*
X381496D02*
X383070Y255906D01*
X384644D02*
X386218D01*
X385431D01*
Y260628D01*
X384644Y259841D01*
X388580Y255906D02*
X390154D01*
X389367D01*
Y260628D01*
X388580Y259841D01*
X139764Y248031D02*
Y252754D01*
X142125D01*
X142912Y251967D01*
Y250393D01*
X142125Y249606D01*
X139764D01*
X141338D02*
X142912Y248031D01*
X146848D02*
Y252754D01*
X144487Y250393D01*
X147635D01*
X305118Y255906D02*
Y260628D01*
X307480D01*
X308267Y259841D01*
Y258267D01*
X307480Y257480D01*
X305118D01*
X306692D02*
X308267Y255906D01*
X309841Y256693D02*
X310628Y255906D01*
X312202D01*
X312990Y256693D01*
Y259841D01*
X312202Y260628D01*
X310628D01*
X309841Y259841D01*
Y259054D01*
X310628Y258267D01*
X312990D01*
X64961Y251969D02*
Y256691D01*
X67322D01*
X68109Y255904D01*
Y254330D01*
X67322Y253543D01*
X64961D01*
X66535D02*
X68109Y251969D01*
X72832D02*
X69683D01*
X72832Y255117D01*
Y255904D01*
X72045Y256691D01*
X70471D01*
X69683Y255904D01*
X223987Y281562D02*
Y286285D01*
X226349D01*
X227136Y285498D01*
Y283924D01*
X226349Y283137D01*
X223987D01*
X225562D02*
X227136Y281562D01*
X231859Y286285D02*
X228710D01*
Y283924D01*
X230285Y284711D01*
X231072D01*
X231859Y283924D01*
Y282349D01*
X231072Y281562D01*
X229497D01*
X228710Y282349D01*
X222441Y216535D02*
Y221258D01*
X224802D01*
X225589Y220471D01*
Y218897D01*
X224802Y218110D01*
X222441D01*
X224015D02*
X225589Y216535D01*
X230312Y221258D02*
X228738Y220471D01*
X227164Y218897D01*
Y217323D01*
X227951Y216535D01*
X229525D01*
X230312Y217323D01*
Y218110D01*
X229525Y218897D01*
X227164D01*
X66929Y322835D02*
X62206D01*
Y325196D01*
X62993Y325983D01*
X64568D01*
X65355Y325196D01*
Y322835D01*
Y324409D02*
X66929Y325983D01*
Y327557D02*
X63780D01*
X62206Y329132D01*
X63780Y330706D01*
X66929D01*
X64568D01*
Y327557D01*
X66929Y332280D02*
Y333855D01*
Y333068D01*
X62206D01*
X62993Y332280D01*
X277560Y282676D02*
X276773Y281889D01*
Y280315D01*
X277560Y279528D01*
X280709D01*
X281496Y280315D01*
Y281889D01*
X280709Y282676D01*
X281496Y284250D02*
Y285825D01*
Y285038D01*
X276773D01*
X277560Y284250D01*
X276773Y291335D02*
Y288186D01*
X279135D01*
X278347Y289760D01*
Y290548D01*
X279135Y291335D01*
X280709D01*
X281496Y290548D01*
Y288973D01*
X280709Y288186D01*
X280708Y216534D02*
X279921Y217321D01*
X278346D01*
X277559Y216534D01*
Y213386D01*
X278346Y212598D01*
X279921D01*
X280708Y213386D01*
X282282Y212598D02*
X283856D01*
X283069D01*
Y217321D01*
X282282Y216534D01*
X289366Y217321D02*
X287792Y216534D01*
X286218Y214960D01*
Y213386D01*
X287005Y212598D01*
X288579D01*
X289366Y213386D01*
Y214173D01*
X288579Y214960D01*
X286218D01*
X344490Y276771D02*
X343702Y275984D01*
Y274409D01*
X344490Y273622D01*
X347638D01*
X348425Y274409D01*
Y275984D01*
X347638Y276771D01*
X348425Y281493D02*
Y278345D01*
X345277Y281493D01*
X344490D01*
X343702Y280706D01*
Y279132D01*
X344490Y278345D01*
Y283068D02*
X343702Y283855D01*
Y285429D01*
X344490Y286216D01*
X345277D01*
X346064Y285429D01*
Y284642D01*
Y285429D01*
X346851Y286216D01*
X347638D01*
X348425Y285429D01*
Y283855D01*
X347638Y283068D01*
X163387Y276771D02*
X162600Y275984D01*
Y274409D01*
X163387Y273622D01*
X166536D01*
X167323Y274409D01*
Y275984D01*
X166536Y276771D01*
X162600Y281493D02*
Y278345D01*
X164961D01*
X164174Y279919D01*
Y280706D01*
X164961Y281493D01*
X166536D01*
X167323Y280706D01*
Y279132D01*
X166536Y278345D01*
X285433Y291339D02*
Y296061D01*
X287794D01*
X288582Y295274D01*
Y293700D01*
X287794Y292913D01*
X285433D01*
X287007D02*
X288582Y291339D01*
X290156Y295274D02*
X290943Y296061D01*
X292517D01*
X293304Y295274D01*
Y294487D01*
X292517Y293700D01*
X293304Y292913D01*
Y292126D01*
X292517Y291339D01*
X290943D01*
X290156Y292126D01*
Y292913D01*
X290943Y293700D01*
X290156Y294487D01*
Y295274D01*
X290943Y293700D02*
X292517D01*
X61417Y145669D02*
Y150392D01*
X63779D01*
X64566Y149605D01*
Y148031D01*
X63779Y147244D01*
X61417D01*
X62992D02*
X64566Y145669D01*
X66140D02*
X67715D01*
X66927D01*
Y150392D01*
X66140Y149605D01*
X152362Y145669D02*
Y150392D01*
X154724D01*
X155511Y149605D01*
Y148031D01*
X154724Y147244D01*
X152362D01*
X153937D02*
X155511Y145669D01*
X157085Y149605D02*
X157872Y150392D01*
X159447D01*
X160234Y149605D01*
Y148818D01*
X159447Y148031D01*
X158659D01*
X159447D01*
X160234Y147244D01*
Y146456D01*
X159447Y145669D01*
X157872D01*
X157085Y146456D01*
X280315Y145669D02*
Y150392D01*
X282676D01*
X283464Y149605D01*
Y148031D01*
X282676Y147244D01*
X280315D01*
X281889D02*
X283464Y145669D01*
X285038Y150392D02*
X288186D01*
Y149605D01*
X285038Y146456D01*
Y145669D01*
X370866D02*
Y150392D01*
X373228D01*
X374015Y149605D01*
Y148031D01*
X373228Y147244D01*
X370866D01*
X372440D02*
X374015Y145669D01*
X375589D02*
X377163D01*
X376376D01*
Y150392D01*
X375589Y149605D01*
X379525D02*
X380312Y150392D01*
X381886D01*
X382673Y149605D01*
Y146456D01*
X381886Y145669D01*
X380312D01*
X379525Y146456D01*
Y149605D01*
X267718Y24802D02*
X266931Y24015D01*
Y22441D01*
X267718Y21654D01*
X270866D01*
X271654Y22441D01*
Y24015D01*
X270866Y24802D01*
X271654Y26376D02*
Y27951D01*
Y27164D01*
X266931D01*
X267718Y26376D01*
X271654Y32674D02*
X266931D01*
X269292Y30312D01*
Y33461D01*
X109450Y298424D02*
Y295276D01*
X111812D01*
Y296850D01*
Y295276D01*
X114173D01*
Y299998D02*
Y301573D01*
Y300786D01*
X109450D01*
X110238Y299998D01*
X251969Y24408D02*
Y19685D01*
X254330D01*
X255117Y20472D01*
Y23621D01*
X254330Y24408D01*
X251969D01*
X256691Y19685D02*
X258266D01*
X257478D01*
Y24408D01*
X256691Y23621D01*
X262989Y19685D02*
Y24408D01*
X260627Y22047D01*
X263776D01*
X261023Y102361D02*
X260236Y103148D01*
X258661D01*
X257874Y102361D01*
Y99212D01*
X258661Y98425D01*
X260236D01*
X261023Y99212D01*
X262597Y98425D02*
X264171D01*
X263384D01*
Y103148D01*
X262597Y102361D01*
X266533D02*
X267320Y103148D01*
X268894D01*
X269681Y102361D01*
Y101574D01*
X268894Y100787D01*
X268107D01*
X268894D01*
X269681Y99999D01*
Y99212D01*
X268894Y98425D01*
X267320D01*
X266533Y99212D01*
X143702Y300393D02*
X142915Y299605D01*
Y298031D01*
X143702Y297244D01*
X146851D01*
X147638Y298031D01*
Y299605D01*
X146851Y300393D01*
X147638Y304328D02*
X142915D01*
X145276Y301967D01*
Y305116D01*
X131891Y355511D02*
X131104Y354724D01*
Y353149D01*
X131891Y352362D01*
X135040D01*
X135827Y353149D01*
Y354724D01*
X135040Y355511D01*
X135827Y357085D02*
Y358659D01*
Y357872D01*
X131104D01*
X131891Y357085D01*
Y300393D02*
X131104Y299605D01*
Y298031D01*
X131891Y297244D01*
X135040D01*
X135827Y298031D01*
Y299605D01*
X135040Y300393D01*
X135827Y305116D02*
Y301967D01*
X132678Y305116D01*
X131891D01*
X131104Y304328D01*
Y302754D01*
X131891Y301967D01*
X242127Y24802D02*
X241340Y24015D01*
Y22441D01*
X242127Y21654D01*
X245276D01*
X246063Y22441D01*
Y24015D01*
X245276Y24802D01*
X246063Y26376D02*
Y27951D01*
Y27164D01*
X241340D01*
X242127Y26376D01*
X246063Y33461D02*
Y30312D01*
X242914Y33461D01*
X242127D01*
X241340Y32674D01*
Y31099D01*
X242127Y30312D01*
X283465Y244094D02*
Y248817D01*
X285826D01*
X286613Y248030D01*
Y246456D01*
X285826Y245669D01*
X283465D01*
X285039D02*
X286613Y244094D01*
X288187D02*
Y247243D01*
X289762Y248817D01*
X291336Y247243D01*
Y244094D01*
Y246456D01*
X288187D01*
X292910Y244882D02*
X293698Y244094D01*
X295272D01*
X296059Y244882D01*
Y248030D01*
X295272Y248817D01*
X293698D01*
X292910Y248030D01*
Y247243D01*
X293698Y246456D01*
X296059D01*
X216535Y244094D02*
Y248817D01*
X218897D01*
X219684Y248030D01*
Y246456D01*
X218897Y245669D01*
X216535D01*
X218110D02*
X219684Y244094D01*
X221258D02*
Y247243D01*
X222833Y248817D01*
X224407Y247243D01*
Y244094D01*
Y246456D01*
X221258D01*
X229130Y248817D02*
X227555Y248030D01*
X225981Y246456D01*
Y244882D01*
X226768Y244094D01*
X228343D01*
X229130Y244882D01*
Y245669D01*
X228343Y246456D01*
X225981D01*
X218504Y171260D02*
Y175983D01*
X220865D01*
X221653Y175196D01*
Y173621D01*
X220865Y172834D01*
X218504D01*
X220078D02*
X221653Y171260D01*
X223227D02*
Y174408D01*
X224801Y175983D01*
X226375Y174408D01*
Y171260D01*
Y173621D01*
X223227D01*
X227950Y175196D02*
X228737Y175983D01*
X230311D01*
X231098Y175196D01*
Y174408D01*
X230311Y173621D01*
X231098Y172834D01*
Y172047D01*
X230311Y171260D01*
X228737D01*
X227950Y172047D01*
Y172834D01*
X228737Y173621D01*
X227950Y174408D01*
Y175196D01*
X228737Y173621D02*
X230311D01*
X281496Y171260D02*
Y175983D01*
X283857D01*
X284645Y175196D01*
Y173621D01*
X283857Y172834D01*
X281496D01*
X283070D02*
X284645Y171260D01*
X286219D02*
Y174408D01*
X287793Y175983D01*
X289368Y174408D01*
Y171260D01*
Y173621D01*
X286219D01*
X290942Y175983D02*
X294090D01*
Y175196D01*
X290942Y172047D01*
Y171260D01*
X248031Y296061D02*
Y292126D01*
X248819Y291339D01*
X250393D01*
X251180Y292126D01*
Y296061D01*
X252754Y292126D02*
X253541Y291339D01*
X255116D01*
X255903Y292126D01*
Y295274D01*
X255116Y296061D01*
X253541D01*
X252754Y295274D01*
Y294487D01*
X253541Y293700D01*
X255903D01*
X248031Y193699D02*
Y189763D01*
X248819Y188976D01*
X250393D01*
X251180Y189763D01*
Y193699D01*
X252754Y188976D02*
X254329D01*
X253541D01*
Y193699D01*
X252754Y192912D01*
X256690D02*
X257477Y193699D01*
X259052D01*
X259839Y192912D01*
Y189763D01*
X259052Y188976D01*
X257477D01*
X256690Y189763D01*
Y192912D01*
X329923Y346457D02*
X334646Y349605D01*
X329923D02*
X334646Y346457D01*
Y351180D02*
Y352754D01*
Y351967D01*
X329923D01*
X330710Y351180D01*
X344488Y343305D02*
Y339370D01*
X345275Y338583D01*
X346850D01*
X347637Y339370D01*
Y343305D01*
X349211Y338583D02*
X350785D01*
X349998D01*
Y343305D01*
X349211Y342518D01*
X353147Y343305D02*
X356295D01*
Y342518D01*
X353147Y339370D01*
Y338583D01*
X185039Y150392D02*
Y146456D01*
X185827Y145669D01*
X187401D01*
X188188Y146456D01*
Y150392D01*
X192911D02*
X189762D01*
Y148031D01*
X191337Y148818D01*
X192124D01*
X192911Y148031D01*
Y146456D01*
X192124Y145669D01*
X190549D01*
X189762Y146456D01*
X401575Y150392D02*
Y146456D01*
X402362Y145669D01*
X403936D01*
X404723Y146456D01*
Y150392D01*
X406298Y145669D02*
X407872D01*
X407085D01*
Y150392D01*
X406298Y149605D01*
X410233D02*
X411021Y150392D01*
X412595D01*
X413382Y149605D01*
Y148818D01*
X412595Y148031D01*
X413382Y147244D01*
Y146456D01*
X412595Y145669D01*
X411021D01*
X410233Y146456D01*
Y147244D01*
X411021Y148031D01*
X410233Y148818D01*
Y149605D01*
X411021Y148031D02*
X412595D01*
X94488Y150392D02*
Y146456D01*
X95275Y145669D01*
X96850D01*
X97637Y146456D01*
Y150392D01*
X102360Y145669D02*
X99211D01*
X102360Y148818D01*
Y149605D01*
X101573Y150392D01*
X99998D01*
X99211Y149605D01*
X314961Y150392D02*
Y146456D01*
X315748Y145669D01*
X317322D01*
X318109Y146456D01*
Y150392D01*
X319684Y145669D02*
X321258D01*
X320471D01*
Y150392D01*
X319684Y149605D01*
X325981Y145669D02*
Y150392D01*
X323619Y148031D01*
X326768D01*
X423228Y252754D02*
Y248819D01*
X424016Y248031D01*
X425590D01*
X426377Y248819D01*
Y252754D01*
X427951Y248031D02*
X429526D01*
X428738D01*
Y252754D01*
X427951Y251967D01*
X431887Y248819D02*
X432674Y248031D01*
X434248D01*
X435036Y248819D01*
Y251967D01*
X434248Y252754D01*
X432674D01*
X431887Y251967D01*
Y251180D01*
X432674Y250393D01*
X435036D01*
X348425Y252754D02*
Y248819D01*
X349212Y248031D01*
X350787D01*
X351574Y248819D01*
Y252754D01*
X353148Y248031D02*
X354722D01*
X353935D01*
Y252754D01*
X353148Y251967D01*
X360232Y252754D02*
X357084D01*
Y250393D01*
X358658Y251180D01*
X359445D01*
X360232Y250393D01*
Y248819D01*
X359445Y248031D01*
X357871D01*
X357084Y248819D01*
X183071Y252754D02*
Y248819D01*
X183858Y248031D01*
X185432D01*
X186220Y248819D01*
Y252754D01*
X187794Y251967D02*
X188581Y252754D01*
X190155D01*
X190942Y251967D01*
Y251180D01*
X190155Y250393D01*
X189368D01*
X190155D01*
X190942Y249606D01*
Y248819D01*
X190155Y248031D01*
X188581D01*
X187794Y248819D01*
X110236Y252754D02*
Y248819D01*
X111023Y248031D01*
X112598D01*
X113385Y248819D01*
Y252754D01*
X114959Y248031D02*
X116533D01*
X115746D01*
Y252754D01*
X114959Y251967D01*
X228346Y296061D02*
Y292126D01*
X229134Y291339D01*
X230708D01*
X231495Y292126D01*
Y296061D01*
X233069D02*
X236218D01*
Y295274D01*
X233069Y292126D01*
Y291339D01*
X161417Y355117D02*
Y351181D01*
X162205Y350394D01*
X163779D01*
X164566Y351181D01*
Y355117D01*
X168502Y350394D02*
Y355117D01*
X166140Y352755D01*
X169289D01*
X297243Y46455D02*
X295669D01*
X296456D01*
Y42519D01*
X295669Y41732D01*
X294882D01*
X294094Y42519D01*
X301966Y41732D02*
X298817D01*
X301966Y44881D01*
Y45668D01*
X301179Y46455D01*
X299605D01*
X298817Y45668D01*
X212204Y46455D02*
X210629D01*
X211417D01*
Y42519D01*
X210629Y41732D01*
X209842D01*
X209055Y42519D01*
X213778Y41732D02*
X215352D01*
X214565D01*
Y46455D01*
X213778Y45668D01*
X119293Y297244D02*
X124016D01*
Y299605D01*
X123229Y300393D01*
X120080D01*
X119293Y299605D01*
Y297244D01*
Y305116D02*
Y301967D01*
X121654D01*
X120867Y303541D01*
Y304328D01*
X121654Y305116D01*
X123229D01*
X124016Y304328D01*
Y302754D01*
X123229Y301967D01*
X143702Y137795D02*
X148425D01*
Y140157D01*
X147638Y140944D01*
X144490D01*
X143702Y140157D01*
Y137795D01*
X147638Y142518D02*
X148425Y143305D01*
Y144880D01*
X147638Y145667D01*
X144490D01*
X143702Y144880D01*
Y143305D01*
X144490Y142518D01*
X145277D01*
X146064Y143305D01*
Y145667D01*
X363387Y137795D02*
X368110D01*
Y140157D01*
X367323Y140944D01*
X364175D01*
X363387Y140157D01*
Y137795D01*
X368110Y145667D02*
Y142518D01*
X364962Y145667D01*
X364175D01*
X363387Y144880D01*
Y143305D01*
X364175Y142518D01*
X368110Y150390D02*
Y147241D01*
X364962Y150390D01*
X364175D01*
X363387Y149602D01*
Y148028D01*
X364175Y147241D01*
X377953Y175983D02*
Y171260D01*
X380314D01*
X381101Y172047D01*
Y175196D01*
X380314Y175983D01*
X377953D01*
X385824Y171260D02*
X382676D01*
X385824Y174408D01*
Y175196D01*
X385037Y175983D01*
X383463D01*
X382676Y175196D01*
X387399D02*
X388186Y175983D01*
X389760D01*
X390547Y175196D01*
Y174408D01*
X389760Y173621D01*
X388973D01*
X389760D01*
X390547Y172834D01*
Y172047D01*
X389760Y171260D01*
X388186D01*
X387399Y172047D01*
X137795Y175983D02*
Y171260D01*
X140157D01*
X140944Y172047D01*
Y175196D01*
X140157Y175983D01*
X137795D01*
X142518Y175196D02*
X143305Y175983D01*
X144880D01*
X145667Y175196D01*
Y174408D01*
X144880Y173621D01*
X145667Y172834D01*
Y172047D01*
X144880Y171260D01*
X143305D01*
X142518Y172047D01*
Y172834D01*
X143305Y173621D01*
X142518Y174408D01*
Y175196D01*
X143305Y173621D02*
X144880D01*
X397638Y175983D02*
Y171260D01*
X399999D01*
X400786Y172047D01*
Y175196D01*
X399999Y175983D01*
X397638D01*
X405509Y171260D02*
X402361D01*
X405509Y174408D01*
Y175196D01*
X404722Y175983D01*
X403148D01*
X402361Y175196D01*
X409445Y171260D02*
Y175983D01*
X407084Y173621D01*
X410232D01*
X157480Y175983D02*
Y171260D01*
X159842D01*
X160629Y172047D01*
Y175196D01*
X159842Y175983D01*
X157480D01*
X162203Y171260D02*
X163777D01*
X162990D01*
Y175983D01*
X162203Y175196D01*
X166139D02*
X166926Y175983D01*
X168500D01*
X169288Y175196D01*
Y172047D01*
X168500Y171260D01*
X166926D01*
X166139Y172047D01*
Y175196D01*
X419291Y175983D02*
Y171260D01*
X421653D01*
X422440Y172047D01*
Y175196D01*
X421653Y175983D01*
X419291D01*
X427163Y171260D02*
X424014D01*
X427163Y174408D01*
Y175196D01*
X426376Y175983D01*
X424801D01*
X424014Y175196D01*
X431886Y175983D02*
X428737D01*
Y173621D01*
X430311Y174408D01*
X431099D01*
X431886Y173621D01*
Y172047D01*
X431099Y171260D01*
X429524D01*
X428737Y172047D01*
X179134Y175983D02*
Y171260D01*
X181495D01*
X182282Y172047D01*
Y175196D01*
X181495Y175983D01*
X179134D01*
X183857Y171260D02*
X185431D01*
X184644D01*
Y175983D01*
X183857Y175196D01*
X187793Y171260D02*
X189367D01*
X188580D01*
Y175983D01*
X187793Y175196D01*
X437008Y175983D02*
Y171260D01*
X439369D01*
X440157Y172047D01*
Y175196D01*
X439369Y175983D01*
X437008D01*
X444879Y171260D02*
X441731D01*
X444879Y174408D01*
Y175196D01*
X444092Y175983D01*
X442518D01*
X441731Y175196D01*
X446454Y175983D02*
X449602D01*
Y175196D01*
X446454Y172047D01*
Y171260D01*
X196850Y175983D02*
Y171260D01*
X199212D01*
X199999Y172047D01*
Y175196D01*
X199212Y175983D01*
X196850D01*
X201573Y171260D02*
X203148D01*
X202360D01*
Y175983D01*
X201573Y175196D01*
X208658Y171260D02*
X205509D01*
X208658Y174408D01*
Y175196D01*
X207870Y175983D01*
X206296D01*
X205509Y175196D01*
X303150Y175983D02*
Y171260D01*
X305511D01*
X306298Y172047D01*
Y175196D01*
X305511Y175983D01*
X303150D01*
X307873Y171260D02*
X309447D01*
X308660D01*
Y175983D01*
X307873Y175196D01*
X311808Y175983D02*
X314957D01*
Y175196D01*
X311808Y172047D01*
Y171260D01*
X64961Y175983D02*
Y171260D01*
X67322D01*
X68109Y172047D01*
Y175196D01*
X67322Y175983D01*
X64961D01*
X72832Y171260D02*
X69683D01*
X72832Y174408D01*
Y175196D01*
X72045Y175983D01*
X70471D01*
X69683Y175196D01*
X326772Y175983D02*
Y171260D01*
X329133D01*
X329920Y172047D01*
Y175196D01*
X329133Y175983D01*
X326772D01*
X331494Y171260D02*
X333069D01*
X332282D01*
Y175983D01*
X331494Y175196D01*
X335430D02*
X336217Y175983D01*
X337792D01*
X338579Y175196D01*
Y174408D01*
X337792Y173621D01*
X338579Y172834D01*
Y172047D01*
X337792Y171260D01*
X336217D01*
X335430Y172047D01*
Y172834D01*
X336217Y173621D01*
X335430Y174408D01*
Y175196D01*
X336217Y173621D02*
X337792D01*
X86614Y175983D02*
Y171260D01*
X88976D01*
X89763Y172047D01*
Y175196D01*
X88976Y175983D01*
X86614D01*
X91337Y175196D02*
X92124Y175983D01*
X93699D01*
X94486Y175196D01*
Y174408D01*
X93699Y173621D01*
X92911D01*
X93699D01*
X94486Y172834D01*
Y172047D01*
X93699Y171260D01*
X92124D01*
X91337Y172047D01*
X344488Y175983D02*
Y171260D01*
X346850D01*
X347637Y172047D01*
Y175196D01*
X346850Y175983D01*
X344488D01*
X349211Y171260D02*
X350785D01*
X349998D01*
Y175983D01*
X349211Y175196D01*
X353147Y172047D02*
X353934Y171260D01*
X355508D01*
X356295Y172047D01*
Y175196D01*
X355508Y175983D01*
X353934D01*
X353147Y175196D01*
Y174408D01*
X353934Y173621D01*
X356295D01*
X102362Y175983D02*
Y171260D01*
X104724D01*
X105511Y172047D01*
Y175196D01*
X104724Y175983D01*
X102362D01*
X109447Y171260D02*
Y175983D01*
X107085Y173621D01*
X110234D01*
X364173Y175983D02*
Y171260D01*
X366535D01*
X367322Y172047D01*
Y175196D01*
X366535Y175983D01*
X364173D01*
X372045Y171260D02*
X368896D01*
X372045Y174408D01*
Y175196D01*
X371257Y175983D01*
X369683D01*
X368896Y175196D01*
X373619Y171260D02*
X375193D01*
X374406D01*
Y175983D01*
X373619Y175196D01*
X124016Y175983D02*
Y171260D01*
X126377D01*
X127164Y172047D01*
Y175196D01*
X126377Y175983D01*
X124016D01*
X131887D02*
X130313Y175196D01*
X128739Y173621D01*
Y172047D01*
X129526Y171260D01*
X131100D01*
X131887Y172047D01*
Y172834D01*
X131100Y173621D01*
X128739D01*
X238191Y112205D02*
X242913D01*
Y114566D01*
X242126Y115353D01*
X238978D01*
X238191Y114566D01*
Y112205D01*
X242913Y116928D02*
Y118502D01*
Y117715D01*
X238191D01*
X238978Y116928D01*
Y120863D02*
X238191Y121651D01*
Y123225D01*
X238978Y124012D01*
X239765D01*
X240552Y123225D01*
Y122438D01*
Y123225D01*
X241339Y124012D01*
X242126D01*
X242913Y123225D01*
Y121651D01*
X242126Y120863D01*
X444096Y137795D02*
X448819D01*
Y140157D01*
X448032Y140944D01*
X444883D01*
X444096Y140157D01*
Y137795D01*
X448819Y145667D02*
Y142518D01*
X445670Y145667D01*
X444883D01*
X444096Y144880D01*
Y143305D01*
X444883Y142518D01*
X444096Y150390D02*
X444883Y148815D01*
X446457Y147241D01*
X448032D01*
X448819Y148028D01*
Y149602D01*
X448032Y150390D01*
X447245D01*
X446457Y149602D01*
Y147241D01*
X52757Y137795D02*
X57480D01*
Y140157D01*
X56693Y140944D01*
X53545D01*
X52757Y140157D01*
Y137795D01*
X57480Y142518D02*
Y144093D01*
Y143305D01*
X52757D01*
X53545Y142518D01*
X268899Y112205D02*
X273622D01*
Y114566D01*
X272835Y115353D01*
X269686D01*
X268899Y114566D01*
Y112205D01*
X273622Y116928D02*
Y118502D01*
Y117715D01*
X268899D01*
X269686Y116928D01*
X268899Y124012D02*
X269686Y122438D01*
X271261Y120863D01*
X272835D01*
X273622Y121651D01*
Y123225D01*
X272835Y124012D01*
X272048D01*
X271261Y123225D01*
Y120863D01*
X136222Y137795D02*
X140945D01*
Y140157D01*
X140158Y140944D01*
X137009D01*
X136222Y140157D01*
Y137795D01*
Y142518D02*
Y145667D01*
X137009D01*
X140158Y142518D01*
X140945D01*
X355513Y137795D02*
X360236D01*
Y140157D01*
X359449Y140944D01*
X356300D01*
X355513Y140157D01*
Y137795D01*
X360236Y145667D02*
Y142518D01*
X357088Y145667D01*
X356300D01*
X355513Y144880D01*
Y143305D01*
X356300Y142518D01*
Y147241D02*
X355513Y148028D01*
Y149602D01*
X356300Y150390D01*
X359449D01*
X360236Y149602D01*
Y148028D01*
X359449Y147241D01*
X356300D01*
X143702Y355511D02*
X142915Y354724D01*
Y353149D01*
X143702Y352362D01*
X146851D01*
X147638Y353149D01*
Y354724D01*
X146851Y355511D01*
X143702Y357085D02*
X142915Y357872D01*
Y359447D01*
X143702Y360234D01*
X144489D01*
X145276Y359447D01*
Y358659D01*
Y359447D01*
X146063Y360234D01*
X146851D01*
X147638Y359447D01*
Y357872D01*
X146851Y357085D01*
X245275Y102361D02*
X244487Y103148D01*
X242913D01*
X242126Y102361D01*
Y99212D01*
X242913Y98425D01*
X244487D01*
X245275Y99212D01*
X246849Y98425D02*
X248423D01*
X247636D01*
Y103148D01*
X246849Y102361D01*
X250785Y98425D02*
X252359D01*
X251572D01*
Y103148D01*
X250785Y102361D01*
X320867Y304330D02*
X320080Y303542D01*
Y301968D01*
X320867Y301181D01*
X324016D01*
X324803Y301968D01*
Y303542D01*
X324016Y304330D01*
X324803Y309053D02*
Y305904D01*
X321655Y309053D01*
X320867D01*
X320080Y308265D01*
Y306691D01*
X320867Y305904D01*
X324803Y310627D02*
Y312201D01*
Y311414D01*
X320080D01*
X320867Y310627D01*
X328741Y304330D02*
X327954Y303542D01*
Y301968D01*
X328741Y301181D01*
X331890D01*
X332677Y301968D01*
Y303542D01*
X331890Y304330D01*
X332677Y309053D02*
Y305904D01*
X329529Y309053D01*
X328741D01*
X327954Y308265D01*
Y306691D01*
X328741Y305904D01*
X332677Y313775D02*
Y310627D01*
X329529Y313775D01*
X328741D01*
X327954Y312988D01*
Y311414D01*
X328741Y310627D01*
X322836Y357479D02*
X322049Y356692D01*
Y355118D01*
X322836Y354331D01*
X325985D01*
X326772Y355118D01*
Y356692D01*
X325985Y357479D01*
X326772Y359054D02*
Y360628D01*
Y359841D01*
X322049D01*
X322836Y359054D01*
X322049Y362989D02*
Y366138D01*
X322836D01*
X325985Y362989D01*
X326772D01*
X322836Y337794D02*
X322049Y337007D01*
Y335433D01*
X322836Y334646D01*
X325985D01*
X326772Y335433D01*
Y337007D01*
X325985Y337794D01*
X326772Y339369D02*
Y340943D01*
Y340156D01*
X322049D01*
X322836Y339369D01*
Y343304D02*
X322049Y344091D01*
Y345666D01*
X322836Y346453D01*
X323623D01*
X324410Y345666D01*
X325197Y346453D01*
X325985D01*
X326772Y345666D01*
Y344091D01*
X325985Y343304D01*
X325197D01*
X324410Y344091D01*
X323623Y343304D01*
X322836D01*
X324410Y344091D02*
Y345666D01*
X202757Y359448D02*
X201970Y358661D01*
Y357086D01*
X202757Y356299D01*
X205906D01*
X206693Y357086D01*
Y358661D01*
X205906Y359448D01*
X201970Y364171D02*
X202757Y362596D01*
X204331Y361022D01*
X205906D01*
X206693Y361809D01*
Y363384D01*
X205906Y364171D01*
X205119D01*
X204331Y363384D01*
Y361022D01*
X307088Y304330D02*
X306301Y303542D01*
Y301968D01*
X307088Y301181D01*
X310237D01*
X311024Y301968D01*
Y303542D01*
X310237Y304330D01*
X311024Y309053D02*
Y305904D01*
X307875Y309053D01*
X307088D01*
X306301Y308265D01*
Y306691D01*
X307088Y305904D01*
Y310627D02*
X306301Y311414D01*
Y312988D01*
X307088Y313775D01*
X310237D01*
X311024Y312988D01*
Y311414D01*
X310237Y310627D01*
X307088D01*
X210631Y359448D02*
X209844Y358661D01*
Y357086D01*
X210631Y356299D01*
X213780D01*
X214567Y357086D01*
Y358661D01*
X213780Y359448D01*
X210631Y361022D02*
X209844Y361809D01*
Y363384D01*
X210631Y364171D01*
X211418D01*
X212206Y363384D01*
X212993Y364171D01*
X213780D01*
X214567Y363384D01*
Y361809D01*
X213780Y361022D01*
X212993D01*
X212206Y361809D01*
X211418Y361022D01*
X210631D01*
X212206Y361809D02*
Y363384D01*
X299214Y304330D02*
X298427Y303542D01*
Y301968D01*
X299214Y301181D01*
X302362D01*
X303150Y301968D01*
Y303542D01*
X302362Y304330D01*
X303150Y305904D02*
Y307478D01*
Y306691D01*
X298427D01*
X299214Y305904D01*
X302362Y309840D02*
X303150Y310627D01*
Y312201D01*
X302362Y312988D01*
X299214D01*
X298427Y312201D01*
Y310627D01*
X299214Y309840D01*
X300001D01*
X300788Y310627D01*
Y312988D01*
X202757Y294487D02*
X201970Y293700D01*
Y292126D01*
X202757Y291339D01*
X205906D01*
X206693Y292126D01*
Y293700D01*
X205906Y294487D01*
X201970Y296061D02*
Y299210D01*
X202757D01*
X205906Y296061D01*
X206693D01*
X210631Y294487D02*
X209844Y293700D01*
Y292126D01*
X210631Y291339D01*
X213780D01*
X214567Y292126D01*
Y293700D01*
X213780Y294487D01*
X214567Y296061D02*
Y297636D01*
Y296849D01*
X209844D01*
X210631Y296061D01*
Y299997D02*
X209844Y300784D01*
Y302359D01*
X210631Y303146D01*
X213780D01*
X214567Y302359D01*
Y300784D01*
X213780Y299997D01*
X210631D01*
Y333857D02*
X209844Y333070D01*
Y331496D01*
X210631Y330709D01*
X213780D01*
X214567Y331496D01*
Y333070D01*
X213780Y333857D01*
Y335432D02*
X214567Y336219D01*
Y337793D01*
X213780Y338580D01*
X210631D01*
X209844Y337793D01*
Y336219D01*
X210631Y335432D01*
X211418D01*
X212206Y336219D01*
Y338580D01*
X110236Y255906D02*
Y260628D01*
X112598D01*
X113385Y259841D01*
Y258267D01*
X112598Y257480D01*
X110236D01*
X111811D02*
X113385Y255906D01*
X114959D02*
Y259054D01*
X116533Y260628D01*
X118108Y259054D01*
Y255906D01*
Y258267D01*
X114959D01*
X119682Y259841D02*
X120469Y260628D01*
X122043D01*
X122831Y259841D01*
Y259054D01*
X122043Y258267D01*
X121256D01*
X122043D01*
X122831Y257480D01*
Y256693D01*
X122043Y255906D01*
X120469D01*
X119682Y256693D01*
X348425Y255906D02*
Y260628D01*
X350787D01*
X351574Y259841D01*
Y258267D01*
X350787Y257480D01*
X348425D01*
X349999D02*
X351574Y255906D01*
X353148D02*
Y259054D01*
X354722Y260628D01*
X356297Y259054D01*
Y255906D01*
Y258267D01*
X353148D01*
X357871Y255906D02*
X359445D01*
X358658D01*
Y260628D01*
X357871Y259841D01*
X361807D02*
X362594Y260628D01*
X364168D01*
X364955Y259841D01*
Y256693D01*
X364168Y255906D01*
X362594D01*
X361807Y256693D01*
Y259841D01*
X183071Y255906D02*
Y260628D01*
X185432D01*
X186220Y259841D01*
Y258267D01*
X185432Y257480D01*
X183071D01*
X184645D02*
X186220Y255906D01*
X187794D02*
Y259054D01*
X189368Y260628D01*
X190942Y259054D01*
Y255906D01*
Y258267D01*
X187794D01*
X195665Y260628D02*
X192517D01*
Y258267D01*
X194091Y259054D01*
X194878D01*
X195665Y258267D01*
Y256693D01*
X194878Y255906D01*
X193304D01*
X192517Y256693D01*
X423228Y255906D02*
Y260628D01*
X425590D01*
X426377Y259841D01*
Y258267D01*
X425590Y257480D01*
X423228D01*
X424803D02*
X426377Y255906D01*
X427951D02*
Y259054D01*
X429526Y260628D01*
X431100Y259054D01*
Y255906D01*
Y258267D01*
X427951D01*
X432674Y255906D02*
X434248D01*
X433461D01*
Y260628D01*
X432674Y259841D01*
X439758Y255906D02*
X436610D01*
X439758Y259054D01*
Y259841D01*
X438971Y260628D01*
X437397D01*
X436610Y259841D01*
X120079Y273622D02*
X115356D01*
Y275984D01*
X116143Y276771D01*
X117717D01*
X118504Y275984D01*
Y273622D01*
Y275196D02*
X120079Y276771D01*
Y278345D02*
X116930D01*
X115356Y279919D01*
X116930Y281493D01*
X120079D01*
X117717D01*
Y278345D01*
X120079Y285429D02*
X115356D01*
X117717Y283068D01*
Y286216D01*
X395669Y273622D02*
X390946D01*
Y275984D01*
X391734Y276771D01*
X393308D01*
X394095Y275984D01*
Y273622D01*
Y275196D02*
X395669Y276771D01*
Y278345D02*
X392521D01*
X390946Y279919D01*
X392521Y281493D01*
X395669D01*
X393308D01*
Y278345D01*
X395669Y283068D02*
Y284642D01*
Y283855D01*
X390946D01*
X391734Y283068D01*
X395669Y287003D02*
Y288578D01*
Y287791D01*
X390946D01*
X391734Y287003D01*
X194096Y275590D02*
X198032D01*
X198819Y276378D01*
Y277952D01*
X198032Y278739D01*
X194096D01*
Y283462D02*
X194883Y281888D01*
X196458Y280313D01*
X198032D01*
X198819Y281101D01*
Y282675D01*
X198032Y283462D01*
X197245D01*
X196458Y282675D01*
Y280313D01*
X312206Y273622D02*
X316142D01*
X316929Y274409D01*
Y275984D01*
X316142Y276771D01*
X312206D01*
X316929Y278345D02*
Y279919D01*
Y279132D01*
X312206D01*
X312993Y278345D01*
X312206Y285429D02*
X312993Y283855D01*
X314568Y282281D01*
X316142D01*
X316929Y283068D01*
Y284642D01*
X316142Y285429D01*
X315355D01*
X314568Y284642D01*
Y282281D01*
X467717Y302756D02*
X462994D01*
Y305117D01*
X463781Y305905D01*
X465355D01*
X466142Y305117D01*
Y302756D01*
Y304330D02*
X467717Y305905D01*
Y307479D02*
X464568D01*
X462994Y309053D01*
X464568Y310627D01*
X467717D01*
X465355D01*
Y307479D01*
X467717Y312202D02*
Y313776D01*
Y312989D01*
X462994D01*
X463781Y312202D01*
Y316137D02*
X462994Y316925D01*
Y318499D01*
X463781Y319286D01*
X464568D01*
X465355Y318499D01*
Y317712D01*
Y318499D01*
X466142Y319286D01*
X466929D01*
X467717Y318499D01*
Y316925D01*
X466929Y316137D01*
X444882Y275590D02*
Y280313D01*
X447243D01*
X448031Y279526D01*
Y277952D01*
X447243Y277165D01*
X444882D01*
X446456D02*
X448031Y275590D01*
X449605D02*
X451179D01*
X450392D01*
Y280313D01*
X449605Y279526D01*
X456689Y275590D02*
X453541D01*
X456689Y278739D01*
Y279526D01*
X455902Y280313D01*
X454328D01*
X453541Y279526D01*
X444882Y267717D02*
Y272439D01*
X447243D01*
X448031Y271652D01*
Y270078D01*
X447243Y269291D01*
X444882D01*
X446456D02*
X448031Y267717D01*
X449605D02*
X451179D01*
X450392D01*
Y272439D01*
X449605Y271652D01*
X453541D02*
X454328Y272439D01*
X455902D01*
X456689Y271652D01*
Y270865D01*
X455902Y270078D01*
X455115D01*
X455902D01*
X456689Y269291D01*
Y268504D01*
X455902Y267717D01*
X454328D01*
X453541Y268504D01*
X142912Y259841D02*
X142125Y260628D01*
X140551D01*
X139764Y259841D01*
Y256693D01*
X140551Y255906D01*
X142125D01*
X142912Y256693D01*
X144487Y255906D02*
Y259054D01*
X146061Y260628D01*
X147635Y259054D01*
Y255906D01*
Y258267D01*
X144487D01*
X149209Y259841D02*
X149997Y260628D01*
X151571D01*
X152358Y259841D01*
Y259054D01*
X151571Y258267D01*
X150784D01*
X151571D01*
X152358Y257480D01*
Y256693D01*
X151571Y255906D01*
X149997D01*
X149209Y256693D01*
X153545Y300393D02*
X152757Y299605D01*
Y298031D01*
X153545Y297244D01*
X156693D01*
X157480Y298031D01*
Y299605D01*
X156693Y300393D01*
X157480Y301967D02*
X154332D01*
X152757Y303541D01*
X154332Y305116D01*
X157480D01*
X155119D01*
Y301967D01*
X157480Y309838D02*
Y306690D01*
X154332Y309838D01*
X153545D01*
X152757Y309051D01*
Y307477D01*
X153545Y306690D01*
X363385Y301180D02*
X362598Y301967D01*
X361023D01*
X360236Y301180D01*
Y298031D01*
X361023Y297244D01*
X362598D01*
X363385Y298031D01*
X364959Y297244D02*
Y300393D01*
X366533Y301967D01*
X368108Y300393D01*
Y297244D01*
Y299605D01*
X364959D01*
X372043Y297244D02*
Y301967D01*
X369682Y299605D01*
X372831D01*
X370080Y251574D02*
X369293Y250787D01*
Y249212D01*
X370080Y248425D01*
X373229D01*
X374016Y249212D01*
Y250787D01*
X373229Y251574D01*
X374016Y253148D02*
X370867D01*
X369293Y254722D01*
X370867Y256297D01*
X374016D01*
X371654D01*
Y253148D01*
X369293Y261019D02*
Y257871D01*
X371654D01*
X370867Y259445D01*
Y260232D01*
X371654Y261019D01*
X373229D01*
X374016Y260232D01*
Y258658D01*
X373229Y257871D01*
X399606Y356889D02*
X403017D01*
X401312Y358594D02*
Y355183D01*
X409839Y356889D02*
X413250D01*
X15550Y338189D02*
X10236D01*
X15550D02*
Y335912D01*
X15297Y335153D01*
X15044Y334899D01*
X14538Y334646D01*
X14032D01*
X13526Y334899D01*
X13273Y335153D01*
X13020Y335912D01*
Y338189D01*
Y336418D02*
X10236Y334646D01*
X15550Y330168D02*
Y333457D01*
X10236D01*
Y330168D01*
X13020Y333457D02*
Y331433D01*
X15550Y329282D02*
X10236Y327258D01*
X15550Y325233D02*
X10236Y327258D01*
X15550Y320375D02*
X11754D01*
X10995Y320122D01*
X10489Y319616D01*
X10236Y318857D01*
Y318351D01*
X10489Y317592D01*
X10995Y317086D01*
X11754Y316832D01*
X15550D01*
Y315365D02*
X10236Y313340D01*
X15550Y311316D02*
X10236Y313340D01*
X14538Y310633D02*
X14791Y310127D01*
X15550Y309368D01*
X10236D01*
X15550Y303194D02*
X10236Y305724D01*
X15550Y306736D02*
Y303194D01*
X12514Y302004D02*
Y297450D01*
X10236Y291832D02*
X15550Y293857D01*
X10236Y295881D01*
X12008Y295122D02*
Y292591D01*
X14285Y273639D02*
X14538D01*
X15044Y273386D01*
X15297Y273133D01*
X15550Y272626D01*
Y271614D01*
X15297Y271108D01*
X15044Y270855D01*
X14538Y270602D01*
X14032D01*
X13526Y270855D01*
X12767Y271361D01*
X10236Y273892D01*
Y270349D01*
X15550Y267642D02*
X15297Y268401D01*
X14538Y268907D01*
X13273Y269160D01*
X12514D01*
X11248Y268907D01*
X10489Y268401D01*
X10236Y267642D01*
Y267136D01*
X10489Y266376D01*
X11248Y265870D01*
X12514Y265617D01*
X13273D01*
X14538Y265870D01*
X15297Y266376D01*
X15550Y267136D01*
Y267642D01*
X14538Y264428D02*
X14791Y263922D01*
X15550Y263163D01*
X10236D01*
X15550Y256989D02*
X10236Y259519D01*
X15550Y260531D02*
Y256989D01*
X12514Y255799D02*
Y251245D01*
X15550Y248158D02*
X15297Y248917D01*
X14538Y249423D01*
X13273Y249676D01*
X12514D01*
X11248Y249423D01*
X10489Y248917D01*
X10236Y248158D01*
Y247652D01*
X10489Y246892D01*
X11248Y246386D01*
X12514Y246133D01*
X13273D01*
X14538Y246386D01*
X15297Y246892D01*
X15550Y247652D01*
Y248158D01*
X14285Y244691D02*
X14538D01*
X15044Y244438D01*
X15297Y244185D01*
X15550Y243679D01*
Y242667D01*
X15297Y242161D01*
X15044Y241908D01*
X14538Y241654D01*
X14032D01*
X13526Y241908D01*
X12767Y242414D01*
X10236Y244944D01*
Y241402D01*
X12514Y240212D02*
Y235658D01*
X14538Y234089D02*
X14791Y233583D01*
X15550Y232823D01*
X10236D01*
X15550Y226649D02*
X10236Y229180D01*
X15550Y230192D02*
Y226649D01*
X49251Y338189D02*
X45287D01*
X44494Y337925D01*
X43965Y337396D01*
X43701Y336603D01*
Y336075D01*
X43965Y335282D01*
X44494Y334753D01*
X45287Y334489D01*
X49251D01*
Y332956D02*
X43701Y330842D01*
X49251Y328728D02*
X43701Y330842D01*
X49251Y328014D02*
X43701D01*
X47929Y322887D02*
X48458Y323151D01*
X48987Y323680D01*
X49251Y324208D01*
Y325265D01*
X48987Y325794D01*
X48458Y326323D01*
X47929Y326587D01*
X47137Y326851D01*
X45815D01*
X45022Y326587D01*
X44494Y326323D01*
X43965Y325794D01*
X43701Y325265D01*
Y324208D01*
X43965Y323680D01*
X44494Y323151D01*
X45022Y322887D01*
X49251Y316967D02*
X43701D01*
X49251D02*
Y313531D01*
X46608Y316967D02*
Y314853D01*
X49251Y311311D02*
X48987Y311840D01*
X48458Y312368D01*
X47929Y312633D01*
X47137Y312897D01*
X45815D01*
X45022Y312633D01*
X44494Y312368D01*
X43965Y311840D01*
X43701Y311311D01*
Y310254D01*
X43965Y309725D01*
X44494Y309197D01*
X45022Y308933D01*
X45815Y308668D01*
X47137D01*
X47929Y308933D01*
X48458Y309197D01*
X48987Y309725D01*
X49251Y310254D01*
Y311311D01*
Y307373D02*
X43701D01*
X49251D02*
Y304995D01*
X48987Y304202D01*
X48722Y303938D01*
X48194Y303673D01*
X47665D01*
X47137Y303938D01*
X46872Y304202D01*
X46608Y304995D01*
Y307373D01*
Y305523D02*
X43701Y303673D01*
X49251Y302431D02*
X43701D01*
X49251D02*
X43701Y300317D01*
X49251Y298203D02*
X43701Y300317D01*
X49251Y298203D02*
X43701D01*
X49251Y296617D02*
X45287D01*
X44494Y296353D01*
X43965Y295824D01*
X43701Y295031D01*
Y294503D01*
X43965Y293710D01*
X44494Y293181D01*
X45287Y292917D01*
X49251D01*
Y291384D02*
X43701D01*
Y288213D01*
Y283376D02*
X49251Y285490D01*
X43701Y287605D01*
X45551Y286812D02*
Y284169D01*
X49251Y277720D02*
X43701D01*
X49251D02*
X43701Y275606D01*
X49251Y273492D02*
X43701Y275606D01*
X49251Y273492D02*
X43701D01*
X49251Y270321D02*
X48987Y270849D01*
X48458Y271378D01*
X47929Y271642D01*
X47137Y271906D01*
X45815D01*
X45022Y271642D01*
X44494Y271378D01*
X43965Y270849D01*
X43701Y270321D01*
Y269263D01*
X43965Y268735D01*
X44494Y268206D01*
X45022Y267942D01*
X45815Y267678D01*
X47137D01*
X47929Y267942D01*
X48458Y268206D01*
X48987Y268735D01*
X49251Y269263D01*
Y270321D01*
Y264533D02*
X43701D01*
X49251Y266383D02*
Y262683D01*
Y260436D02*
X48987Y260965D01*
X48458Y261493D01*
X47929Y261758D01*
X47137Y262022D01*
X45815D01*
X45022Y261758D01*
X44494Y261493D01*
X43965Y260965D01*
X43701Y260436D01*
Y259379D01*
X43965Y258851D01*
X44494Y258322D01*
X45022Y258058D01*
X45815Y257793D01*
X47137D01*
X47929Y258058D01*
X48458Y258322D01*
X48987Y258851D01*
X49251Y259379D01*
Y260436D01*
Y256498D02*
X43701D01*
X49251D02*
Y254120D01*
X48987Y253327D01*
X48722Y253063D01*
X48194Y252798D01*
X47665D01*
X47137Y253063D01*
X46872Y253327D01*
X46608Y254120D01*
Y256498D01*
Y254648D02*
X43701Y252798D01*
X48458Y247856D02*
X48987Y248385D01*
X49251Y249178D01*
Y250235D01*
X48987Y251028D01*
X48458Y251556D01*
X47929D01*
X47401Y251292D01*
X47137Y251028D01*
X46872Y250499D01*
X46344Y248913D01*
X46079Y248385D01*
X45815Y248121D01*
X45287Y247856D01*
X44494D01*
X43965Y248385D01*
X43701Y249178D01*
Y250235D01*
X43965Y251028D01*
X44494Y251556D01*
X46344Y246614D02*
Y244236D01*
X46608Y243443D01*
X46872Y243178D01*
X47401Y242914D01*
X48194D01*
X48722Y243178D01*
X48987Y243443D01*
X49251Y244236D01*
Y246614D01*
X43701D01*
X49251Y240086D02*
X48987Y240615D01*
X48458Y241143D01*
X47929Y241408D01*
X47137Y241672D01*
X45815D01*
X45022Y241408D01*
X44494Y241143D01*
X43965Y240615D01*
X43701Y240086D01*
Y239029D01*
X43965Y238501D01*
X44494Y237972D01*
X45022Y237708D01*
X45815Y237443D01*
X47137D01*
X47929Y237708D01*
X48458Y237972D01*
X48987Y238501D01*
X49251Y239029D01*
Y240086D01*
Y236148D02*
X43701D01*
X49251D02*
Y233770D01*
X48987Y232977D01*
X48722Y232713D01*
X48194Y232449D01*
X47665D01*
X47137Y232713D01*
X46872Y232977D01*
X46608Y233770D01*
Y236148D01*
Y234298D02*
X43701Y232449D01*
X49251Y229356D02*
X43701D01*
X49251Y231206D02*
Y227506D01*
D46*
X29545Y338189D02*
Y331441D01*
X30294Y329192D01*
X31044Y328442D01*
X32544Y327693D01*
X34793D01*
X36292Y328442D01*
X37042Y329192D01*
X37792Y331441D01*
Y338189D01*
X22047D01*
X37792Y324169D02*
X22047D01*
X37792D02*
Y318920D01*
X37042Y316671D01*
X35543Y315172D01*
X34043Y314422D01*
X31794Y313672D01*
X28045D01*
X25796Y314422D01*
X24296Y315172D01*
X22797Y316671D01*
X22047Y318920D01*
Y324169D01*
X37792Y310149D02*
X26546D01*
X24296Y309399D01*
X22797Y307899D01*
X22047Y305650D01*
Y304151D01*
X22797Y301901D01*
X24296Y300402D01*
X26546Y299652D01*
X37792D01*
D76*
X250492Y124016D02*
G03*
X250492Y124016I-492J0D01*
G01*
X280955Y160433D02*
G03*
X280955Y160433I-492J0D01*
G01*
X269144D02*
G03*
X269144Y160433I-492J0D01*
G01*
X253396D02*
G03*
X253396Y160433I-492J0D01*
G01*
X241585D02*
G03*
X241585Y160433I-492J0D01*
G01*
X169587Y267913D02*
G03*
X169587Y267913I-492J0D01*
G01*
X270571Y248031D02*
G03*
X270571Y248031I-492J0D01*
G01*
Y200787D02*
G03*
X270571Y200787I-492J0D01*
G01*
X339764Y333780D02*
G03*
X339764Y333780I-492J0D01*
G01*
X210335Y98524D02*
G03*
X210335Y98524I-492J0D01*
G01*
X430807D02*
G03*
X430807Y98524I-492J0D01*
G01*
X119783D02*
G03*
X119783Y98524I-492J0D01*
G01*
X340256Y98524D02*
G03*
X340256Y98524I-492J0D01*
G01*
X434547Y239075D02*
G03*
X434547Y239075I-492J0D01*
G01*
X359744Y239075D02*
G03*
X359744Y239075I-492J0D01*
G01*
X194390D02*
G03*
X194390Y239075I-492J0D01*
G01*
X119587Y239075D02*
G03*
X119587Y239075I-492J0D01*
G01*
X229528Y304331D02*
G03*
X229528Y304331I-492J0D01*
G01*
X158268Y343898D02*
G03*
X158268Y343898I-492J0D01*
G01*
X129232Y329921D02*
G03*
X129232Y329921I-492J0D01*
G01*
X343209Y291142D02*
G03*
X343209Y291142I-492J0D01*
G01*
X418602Y337008D02*
G03*
X418602Y337008I-492J0D01*
G01*
X393681Y337165D02*
G03*
X393681Y337165I-492J0D01*
G01*
D77*
X176181Y276181D02*
G03*
X176181Y276181I-1181J0D01*
G01*
X262598Y250984D02*
G03*
X262598Y250984I-1181J0D01*
G01*
Y203740D02*
G03*
X262598Y203740I-1181J0D01*
G01*
X349213Y328740D02*
G03*
X349213Y328740I-1181J0D01*
G01*
X235039Y312598D02*
G03*
X235039Y312598I-1181J0D01*
G01*
X337992Y282874D02*
G03*
X337992Y282874I-1181J0D01*
G01*
D78*
X29921Y260630D02*
D03*
M02*
