G04 Layer_Physical_Order=2*
G04 Layer_Color=32768*
%FSLAX25Y25*%
%MOIN*%
G70*
G01*
G75*
%ADD59C,0.04000*%
G04:AMPARAMS|DCode=60|XSize=197.795mil|YSize=197.795mil|CornerRadius=0mil|HoleSize=0mil|Usage=FLASHONLY|Rotation=0.000|XOffset=0mil|YOffset=0mil|HoleType=Round|Shape=Relief|Width=10mil|Gap=10mil|Entries=4|*
%AMTHD60*
7,0,0,0.19779,0.17779,0.01000,45*
%
%ADD60THD60*%
G04:AMPARAMS|DCode=61|XSize=111.181mil|YSize=111.181mil|CornerRadius=0mil|HoleSize=0mil|Usage=FLASHONLY|Rotation=0.000|XOffset=0mil|YOffset=0mil|HoleType=Round|Shape=Relief|Width=10mil|Gap=10mil|Entries=4|*
%AMTHD61*
7,0,0,0.11118,0.09118,0.01000,45*
%
%ADD61THD61*%
%ADD62C,0.06693*%
%ADD63C,0.14567*%
%ADD64C,0.05905*%
G04:AMPARAMS|DCode=65|XSize=103.307mil|YSize=103.307mil|CornerRadius=0mil|HoleSize=0mil|Usage=FLASHONLY|Rotation=0.000|XOffset=0mil|YOffset=0mil|HoleType=Round|Shape=Relief|Width=10mil|Gap=10mil|Entries=4|*
%AMTHD65*
7,0,0,0.10331,0.08331,0.01000,45*
%
%ADD65THD65*%
G04:AMPARAMS|DCode=66|XSize=75.748mil|YSize=75.748mil|CornerRadius=0mil|HoleSize=0mil|Usage=FLASHONLY|Rotation=0.000|XOffset=0mil|YOffset=0mil|HoleType=Round|Shape=Relief|Width=10mil|Gap=10mil|Entries=4|*
%AMTHD66*
7,0,0,0.07575,0.05575,0.01000,45*
%
%ADD66THD66*%
%ADD67C,0.03150*%
%ADD68C,0.02756*%
G04:AMPARAMS|DCode=69|XSize=71.811mil|YSize=71.811mil|CornerRadius=0mil|HoleSize=0mil|Usage=FLASHONLY|Rotation=0.000|XOffset=0mil|YOffset=0mil|HoleType=Round|Shape=Relief|Width=10mil|Gap=10mil|Entries=4|*
%AMTHD69*
7,0,0,0.07181,0.05181,0.01000,45*
%
%ADD69THD69*%
%ADD70C,0.03543*%
G04:AMPARAMS|DCode=71|XSize=79.685mil|YSize=79.685mil|CornerRadius=0mil|HoleSize=0mil|Usage=FLASHONLY|Rotation=0.000|XOffset=0mil|YOffset=0mil|HoleType=Round|Shape=Relief|Width=10mil|Gap=10mil|Entries=4|*
%AMTHD71*
7,0,0,0.07969,0.05969,0.01000,45*
%
%ADD71THD71*%
D59*
X0Y27559D02*
G03*
X27559Y0I27559J0D01*
G01*
X484252D02*
G03*
X511811Y27559I0J27559D01*
G01*
Y366142D02*
G03*
X484252Y393701I-27559J0D01*
G01*
X27559D02*
G03*
X0Y366142I0J-27559D01*
G01*
X27559Y0D02*
X484252D01*
X511811Y27559D02*
X511811D01*
X511811D02*
Y366142D01*
X511811D01*
X27559Y393701D02*
X484252D01*
X0Y27559D02*
Y366142D01*
D60*
X27559Y27559D02*
D03*
Y366142D02*
D03*
X484252D02*
D03*
Y27559D02*
D03*
X27559Y196850D02*
D03*
X484252D02*
D03*
D61*
X366142Y78740D02*
D03*
X145669D02*
D03*
D62*
X354331D02*
D03*
X377953D02*
D03*
X342520D02*
D03*
X389764D02*
D03*
X401575D02*
D03*
X330709D02*
D03*
X413386D02*
D03*
X318898D02*
D03*
X360236Y68898D02*
D03*
X372047D02*
D03*
X383858D02*
D03*
X395669D02*
D03*
X407480D02*
D03*
X348425D02*
D03*
X336614D02*
D03*
X324803D02*
D03*
Y57087D02*
D03*
X336614D02*
D03*
X348425D02*
D03*
X407480D02*
D03*
X395669D02*
D03*
X383858D02*
D03*
X372047D02*
D03*
X360236D02*
D03*
X318898Y47244D02*
D03*
X413386D02*
D03*
X330709D02*
D03*
X401575D02*
D03*
X389764D02*
D03*
X342520D02*
D03*
X377953D02*
D03*
X354331D02*
D03*
X366142D02*
D03*
X133858Y78740D02*
D03*
X157480D02*
D03*
X122047D02*
D03*
X169291D02*
D03*
X181102D02*
D03*
X110236D02*
D03*
X192913D02*
D03*
X98425D02*
D03*
X139764Y68898D02*
D03*
X151575D02*
D03*
X163386D02*
D03*
X175197D02*
D03*
X187008D02*
D03*
X127953D02*
D03*
X116142D02*
D03*
X104331D02*
D03*
Y57087D02*
D03*
X116142D02*
D03*
X127953D02*
D03*
X187008D02*
D03*
X175197D02*
D03*
X163386D02*
D03*
X151575D02*
D03*
X139764D02*
D03*
X98425Y47244D02*
D03*
X192913D02*
D03*
X110236D02*
D03*
X181102D02*
D03*
X169291D02*
D03*
X122047D02*
D03*
X157480D02*
D03*
X133858D02*
D03*
X145669D02*
D03*
D63*
X290354Y21654D02*
D03*
X441929D02*
D03*
X69882D02*
D03*
X221457D02*
D03*
D64*
X445827Y345512D02*
D03*
X425827D02*
D03*
X435827D02*
D03*
Y355512D02*
D03*
X425827D02*
D03*
X400906Y345669D02*
D03*
X410906D02*
D03*
D65*
X445827Y355512D02*
D03*
D66*
X86024Y283661D02*
D03*
X255906Y135039D02*
D03*
X440216Y188583D02*
D03*
Y185433D02*
D03*
X444488Y213445D02*
D03*
X441338D02*
D03*
X386555Y185433D02*
D03*
Y188583D02*
D03*
X365413Y188583D02*
D03*
Y185433D02*
D03*
X385433Y213445D02*
D03*
X382283D02*
D03*
X369685Y213445D02*
D03*
X366535D02*
D03*
X311752Y185433D02*
D03*
Y188583D02*
D03*
X310630Y213445D02*
D03*
X307480D02*
D03*
X200059Y188583D02*
D03*
Y185433D02*
D03*
X204331Y213445D02*
D03*
X201181D02*
D03*
X145275D02*
D03*
X142126D02*
D03*
X146398Y185433D02*
D03*
Y188583D02*
D03*
X125256Y188583D02*
D03*
Y185433D02*
D03*
X71595Y185433D02*
D03*
Y188583D02*
D03*
X129528Y213445D02*
D03*
X126378D02*
D03*
X70473D02*
D03*
X67323D02*
D03*
X330709Y255512D02*
D03*
X90551D02*
D03*
X385827Y133858D02*
D03*
X295276D02*
D03*
X165354D02*
D03*
X74803Y133465D02*
D03*
X283465Y275197D02*
D03*
X375590Y137795D02*
D03*
X283858D02*
D03*
X155905D02*
D03*
X64961Y137795D02*
D03*
X157894Y291339D02*
D03*
X354271Y267717D02*
D03*
X318307Y291142D02*
D03*
X193504Y267913D02*
D03*
X241732Y287795D02*
D03*
Y240551D02*
D03*
X441732Y121260D02*
D03*
X448032D02*
D03*
X444882D02*
D03*
X372835Y121260D02*
D03*
X379134D02*
D03*
X375984D02*
D03*
X353150Y121260D02*
D03*
X359449D02*
D03*
X356299D02*
D03*
X282283Y121260D02*
D03*
X288583D02*
D03*
X285433D02*
D03*
X223228Y121260D02*
D03*
X229528D02*
D03*
X226378D02*
D03*
X152362Y121260D02*
D03*
X158661D02*
D03*
X155512D02*
D03*
X132677Y121260D02*
D03*
X138976D02*
D03*
X135827D02*
D03*
X64961Y121260D02*
D03*
X68110D02*
D03*
X61811D02*
D03*
X218206Y314173D02*
D03*
X334252Y325335D02*
D03*
X293701Y326772D02*
D03*
X152756Y342126D02*
D03*
Y346063D02*
D03*
X128347Y311417D02*
D03*
Y315354D02*
D03*
X139764Y346063D02*
D03*
Y342126D02*
D03*
X212598Y327166D02*
D03*
X218897Y345669D02*
D03*
X303150Y335354D02*
D03*
Y361496D02*
D03*
X314961Y350394D02*
D03*
X309055D02*
D03*
X303150D02*
D03*
X283465Y227953D02*
D03*
X163386Y255512D02*
D03*
X405512D02*
D03*
X431457Y291339D02*
D03*
X229528Y163386D02*
D03*
X282283D02*
D03*
D67*
X220696Y336016D02*
D03*
X218897Y333070D02*
D03*
X25000Y293110D02*
D03*
X27953Y297244D02*
D03*
X40551Y312992D02*
D03*
X37795Y298425D02*
D03*
X40551Y301181D02*
D03*
X40157Y316929D02*
D03*
X55118Y285433D02*
D03*
X70866Y297244D02*
D03*
Y293307D02*
D03*
Y289370D02*
D03*
Y285433D02*
D03*
X220866Y320472D02*
D03*
X218897Y323621D02*
D03*
X232283Y326772D02*
D03*
X366535Y320079D02*
D03*
X366929Y325197D02*
D03*
X258465Y127165D02*
D03*
X253346D02*
D03*
X259842Y157480D02*
D03*
X261811Y151575D02*
D03*
X265748D02*
D03*
X267717Y157480D02*
D03*
X271654D02*
D03*
X273622Y151575D02*
D03*
X277559D02*
D03*
X279528Y157480D02*
D03*
X250000Y151575D02*
D03*
X246063D02*
D03*
X251969Y157480D02*
D03*
X244094D02*
D03*
X240158D02*
D03*
X232283D02*
D03*
X234252Y151575D02*
D03*
X238189D02*
D03*
X322047Y196457D02*
D03*
X326772D02*
D03*
X324410Y194488D02*
D03*
X322047Y192520D02*
D03*
X326772D02*
D03*
X336221D02*
D03*
X331496D02*
D03*
X333858Y194488D02*
D03*
X336221Y196457D02*
D03*
X331496D02*
D03*
X345669Y192520D02*
D03*
X340945D02*
D03*
X343307Y194488D02*
D03*
X345669Y196457D02*
D03*
X340945D02*
D03*
X355118Y192520D02*
D03*
X350394D02*
D03*
X352756Y194488D02*
D03*
X355118Y196457D02*
D03*
X350394D02*
D03*
X185039D02*
D03*
X189764D02*
D03*
X187402Y194488D02*
D03*
X185039Y192520D02*
D03*
X189764D02*
D03*
X175591Y196457D02*
D03*
X180315D02*
D03*
X177953Y194488D02*
D03*
X175591Y192520D02*
D03*
X180315D02*
D03*
X166142Y196457D02*
D03*
X170866D02*
D03*
X168504Y194488D02*
D03*
X166142Y192520D02*
D03*
X170866D02*
D03*
X161417D02*
D03*
X156693D02*
D03*
X159055Y194488D02*
D03*
X161417Y196457D02*
D03*
X156693D02*
D03*
X37605Y283477D02*
D03*
X283465Y270472D02*
D03*
Y223622D02*
D03*
X434842Y126969D02*
D03*
X441732Y134252D02*
D03*
X437795Y131102D02*
D03*
X351969Y134252D02*
D03*
X347638D02*
D03*
X216535Y133858D02*
D03*
Y129921D02*
D03*
X221595Y275590D02*
D03*
Y228346D02*
D03*
X298425Y137795D02*
D03*
X388976Y137795D02*
D03*
X385827Y127953D02*
D03*
X388976Y141339D02*
D03*
X385827Y124409D02*
D03*
X295276Y124409D02*
D03*
Y127953D02*
D03*
X165354Y124409D02*
D03*
Y127953D02*
D03*
X74803D02*
D03*
Y124409D02*
D03*
X257480Y381102D02*
D03*
X254331Y378740D02*
D03*
X235433Y375196D02*
D03*
X238582Y373228D02*
D03*
X241732Y371259D02*
D03*
X244882Y369291D02*
D03*
X227165Y364567D02*
D03*
X298425Y141732D02*
D03*
X168504Y137795D02*
D03*
X76772D02*
D03*
X304724Y304134D02*
D03*
Y308661D02*
D03*
Y299606D02*
D03*
Y295276D02*
D03*
X279528Y320472D02*
D03*
X263780Y311024D02*
D03*
X238583Y309054D02*
D03*
X235433Y311024D02*
D03*
X125984Y133858D02*
D03*
X129921Y133858D02*
D03*
X55118Y309055D02*
D03*
Y305118D02*
D03*
Y312992D02*
D03*
Y316929D02*
D03*
X220866Y329921D02*
D03*
X440945Y316929D02*
D03*
Y312992D02*
D03*
Y309055D02*
D03*
Y305118D02*
D03*
X220866Y342520D02*
D03*
X218897Y339369D02*
D03*
Y358267D02*
D03*
X220866Y355118D02*
D03*
X218897Y351968D02*
D03*
X478346Y287402D02*
D03*
X469685Y295276D02*
D03*
X456693Y316929D02*
D03*
Y312992D02*
D03*
X441732Y287402D02*
D03*
Y295276D02*
D03*
X456693Y309055D02*
D03*
Y305118D02*
D03*
X70866D02*
D03*
Y309055D02*
D03*
Y312992D02*
D03*
Y316929D02*
D03*
X478346Y274803D02*
D03*
X469685D02*
D03*
X49606Y267323D02*
D03*
X31496D02*
D03*
X343996Y315335D02*
D03*
Y330335D02*
D03*
X278740Y355118D02*
D03*
X281496Y351969D02*
D03*
X259842Y275590D02*
D03*
X263779D02*
D03*
X259842Y287402D02*
D03*
X263779D02*
D03*
X71063Y137795D02*
D03*
X123819Y126969D02*
D03*
X214370D02*
D03*
X162008Y137795D02*
D03*
X344291Y126969D02*
D03*
X140551Y289370D02*
D03*
Y285433D02*
D03*
Y293307D02*
D03*
Y277559D02*
D03*
Y265748D02*
D03*
Y269685D02*
D03*
Y273622D02*
D03*
X174705Y295571D02*
D03*
Y272342D02*
D03*
X179823D02*
D03*
X172146Y263484D02*
D03*
X182382Y274803D02*
D03*
X177264Y263484D02*
D03*
X182382Y281890D02*
D03*
X177264Y286713D02*
D03*
X179823Y284252D02*
D03*
X140551Y281496D02*
D03*
X334645Y294881D02*
D03*
X331988Y274803D02*
D03*
X334547Y272342D02*
D03*
X329429Y284252D02*
D03*
X331988Y286713D02*
D03*
X337106D02*
D03*
Y263484D02*
D03*
X329429Y277165D02*
D03*
X346457Y289370D02*
D03*
X190157Y295177D02*
D03*
X248031Y295276D02*
D03*
X315748Y276378D02*
D03*
X187500Y297834D02*
D03*
X244882Y297638D02*
D03*
X315748Y280315D02*
D03*
X185039Y300393D02*
D03*
X241732Y299607D02*
D03*
X315748Y284252D02*
D03*
X371260Y281496D02*
D03*
Y273622D02*
D03*
Y269685D02*
D03*
Y265748D02*
D03*
Y277559D02*
D03*
Y293307D02*
D03*
Y285433D02*
D03*
Y289370D02*
D03*
D68*
X259842Y170079D02*
D03*
X264764D02*
D03*
X262205Y177165D02*
D03*
X274409Y170079D02*
D03*
X267323Y177165D02*
D03*
X272047D02*
D03*
X276771D02*
D03*
X269685Y170079D02*
D03*
X251969D02*
D03*
X247047D02*
D03*
X249606Y177165D02*
D03*
X237402Y170079D02*
D03*
X244488Y177165D02*
D03*
X239764D02*
D03*
X235039D02*
D03*
X242126Y170079D02*
D03*
X188583Y115748D02*
D03*
X193307D02*
D03*
X198031D02*
D03*
X183858D02*
D03*
Y120472D02*
D03*
X198031D02*
D03*
X193307D02*
D03*
X188583D02*
D03*
Y111024D02*
D03*
X193307D02*
D03*
X198031D02*
D03*
X183858D02*
D03*
Y106299D02*
D03*
X198031D02*
D03*
X193307D02*
D03*
X188583D02*
D03*
Y129921D02*
D03*
X193307D02*
D03*
X198031D02*
D03*
X183858D02*
D03*
Y125197D02*
D03*
X193307D02*
D03*
X188583D02*
D03*
X198031D02*
D03*
X418504D02*
D03*
X409055D02*
D03*
X413779D02*
D03*
X404331D02*
D03*
Y129921D02*
D03*
X418504D02*
D03*
X413779D02*
D03*
X409055D02*
D03*
Y106299D02*
D03*
X413779D02*
D03*
X418504D02*
D03*
X404331Y111024D02*
D03*
X418504D02*
D03*
X413779D02*
D03*
X409055D02*
D03*
Y120472D02*
D03*
X413779D02*
D03*
X418504D02*
D03*
X404331D02*
D03*
Y115748D02*
D03*
X418504D02*
D03*
X413779D02*
D03*
X409055D02*
D03*
X404331Y106299D02*
D03*
X102756Y129921D02*
D03*
X98032D02*
D03*
X93307D02*
D03*
X98032Y115748D02*
D03*
X102756D02*
D03*
X107480D02*
D03*
X93307D02*
D03*
Y120472D02*
D03*
X107480D02*
D03*
X102756D02*
D03*
X98032D02*
D03*
Y111024D02*
D03*
X102756D02*
D03*
X107480D02*
D03*
X93307D02*
D03*
Y106299D02*
D03*
X107480D02*
D03*
X102756D02*
D03*
X98032D02*
D03*
X107480Y129921D02*
D03*
X93307Y125197D02*
D03*
X102756D02*
D03*
X98032D02*
D03*
X107480D02*
D03*
X327953Y125197D02*
D03*
X318504D02*
D03*
X323228D02*
D03*
X313779D02*
D03*
X318504Y106299D02*
D03*
X323228D02*
D03*
X327953D02*
D03*
X313779D02*
D03*
Y111024D02*
D03*
X327953D02*
D03*
X323228D02*
D03*
X318504D02*
D03*
Y120472D02*
D03*
X323228D02*
D03*
X327953D02*
D03*
X313779D02*
D03*
Y115748D02*
D03*
X327953D02*
D03*
X323228D02*
D03*
X318504D02*
D03*
X313779Y129921D02*
D03*
X318504D02*
D03*
X323228D02*
D03*
X327953D02*
D03*
X415354Y222835D02*
D03*
X411024D02*
D03*
Y218110D02*
D03*
X415354D02*
D03*
Y213386D02*
D03*
X411024D02*
D03*
Y227559D02*
D03*
X415354D02*
D03*
X419685D02*
D03*
Y213386D02*
D03*
Y218110D02*
D03*
Y222835D02*
D03*
X424016Y227559D02*
D03*
Y213386D02*
D03*
Y218110D02*
D03*
Y222835D02*
D03*
X406693Y227559D02*
D03*
Y213386D02*
D03*
Y218110D02*
D03*
Y222835D02*
D03*
X402362Y227559D02*
D03*
Y213386D02*
D03*
Y218110D02*
D03*
Y222835D02*
D03*
X327559Y222835D02*
D03*
Y218110D02*
D03*
Y213386D02*
D03*
Y227559D02*
D03*
X331890Y222835D02*
D03*
Y218110D02*
D03*
Y213386D02*
D03*
Y227559D02*
D03*
X349213Y222835D02*
D03*
Y218110D02*
D03*
Y213386D02*
D03*
Y227559D02*
D03*
X344882Y222835D02*
D03*
Y218110D02*
D03*
Y213386D02*
D03*
Y227559D02*
D03*
X340551D02*
D03*
X336221D02*
D03*
Y213386D02*
D03*
X340551D02*
D03*
Y218110D02*
D03*
X336221D02*
D03*
Y222835D02*
D03*
X340551D02*
D03*
X175197D02*
D03*
X170866D02*
D03*
Y218110D02*
D03*
X175197D02*
D03*
Y213386D02*
D03*
X170866D02*
D03*
Y227559D02*
D03*
X175197D02*
D03*
X179527D02*
D03*
Y213386D02*
D03*
Y218110D02*
D03*
Y222835D02*
D03*
X183858Y227559D02*
D03*
Y213386D02*
D03*
Y218110D02*
D03*
Y222835D02*
D03*
X166535Y227559D02*
D03*
Y213386D02*
D03*
Y218110D02*
D03*
Y222835D02*
D03*
X162205Y227559D02*
D03*
Y213386D02*
D03*
Y218110D02*
D03*
Y222835D02*
D03*
X87402Y222835D02*
D03*
Y218110D02*
D03*
Y213386D02*
D03*
Y227559D02*
D03*
X91732Y222835D02*
D03*
Y218110D02*
D03*
Y213386D02*
D03*
Y227559D02*
D03*
X109055Y218110D02*
D03*
Y213386D02*
D03*
Y227559D02*
D03*
X104724Y218110D02*
D03*
Y213386D02*
D03*
Y227559D02*
D03*
X100394D02*
D03*
X96063D02*
D03*
Y213386D02*
D03*
X100394D02*
D03*
Y218110D02*
D03*
X96063D02*
D03*
X109055Y222835D02*
D03*
X104724D02*
D03*
X100394D02*
D03*
X96063D02*
D03*
X330709Y243307D02*
D03*
X337008D02*
D03*
X343307D02*
D03*
X349606D02*
D03*
X405512D02*
D03*
X411811D02*
D03*
X418110D02*
D03*
X424409D02*
D03*
X333858Y251969D02*
D03*
X337008D02*
D03*
X340158Y251969D02*
D03*
X343307Y251969D02*
D03*
X109449Y243307D02*
D03*
X103150D02*
D03*
X96850D02*
D03*
X90551D02*
D03*
X184252D02*
D03*
X294488Y267717D02*
D03*
Y262795D02*
D03*
X287402Y265354D02*
D03*
X294488Y253150D02*
D03*
X287402Y260236D02*
D03*
Y255512D02*
D03*
Y250787D02*
D03*
X294488Y257874D02*
D03*
X408662Y251969D02*
D03*
X379921Y271654D02*
D03*
Y276378D02*
D03*
X387008Y274016D02*
D03*
Y278740D02*
D03*
X124803Y278740D02*
D03*
Y274016D02*
D03*
X131890Y276378D02*
D03*
Y271654D02*
D03*
X217323Y257874D02*
D03*
X224410Y250787D02*
D03*
Y255512D02*
D03*
Y260236D02*
D03*
X217323Y253150D02*
D03*
X224410Y265354D02*
D03*
X217323Y262795D02*
D03*
Y267717D02*
D03*
X177953Y251969D02*
D03*
X177953Y243307D02*
D03*
X171653D02*
D03*
X171654Y251969D02*
D03*
X165354Y243307D02*
D03*
X168504Y251969D02*
D03*
X174803Y251969D02*
D03*
X103150Y251969D02*
D03*
X96850D02*
D03*
X93701D02*
D03*
X100000Y251969D02*
D03*
X131889Y281102D02*
D03*
X124803Y283465D02*
D03*
X131890Y285827D02*
D03*
X124803Y288189D02*
D03*
X411811Y251969D02*
D03*
X414961Y251969D02*
D03*
X418111Y251969D02*
D03*
X379922Y281102D02*
D03*
X387008Y283465D02*
D03*
X379921Y285827D02*
D03*
X387008Y288189D02*
D03*
D69*
X187401Y243307D02*
D03*
X427559Y243307D02*
D03*
X352756Y243307D02*
D03*
X112598Y243307D02*
D03*
D70*
X413780Y101575D02*
D03*
X409055D02*
D03*
X418504D02*
D03*
X423228D02*
D03*
X327953D02*
D03*
X332677D02*
D03*
X318504D02*
D03*
X323228D02*
D03*
X313779D02*
D03*
X309055D02*
D03*
X432677Y139370D02*
D03*
X423228Y129921D02*
D03*
Y125197D02*
D03*
Y115748D02*
D03*
Y120472D02*
D03*
Y106299D02*
D03*
Y111024D02*
D03*
X399606Y120472D02*
D03*
Y115748D02*
D03*
Y125197D02*
D03*
Y129921D02*
D03*
X423228Y134646D02*
D03*
X418504D02*
D03*
X409055D02*
D03*
X413780D02*
D03*
X399606D02*
D03*
X404331D02*
D03*
Y139370D02*
D03*
X399606D02*
D03*
X413780D02*
D03*
X409055D02*
D03*
X418504D02*
D03*
X423228D02*
D03*
X394882D02*
D03*
X427953D02*
D03*
X304331D02*
D03*
X337402D02*
D03*
X309055D02*
D03*
X313779D02*
D03*
X323228D02*
D03*
X318504D02*
D03*
X332677D02*
D03*
X327953D02*
D03*
Y134646D02*
D03*
X332677D02*
D03*
X318504D02*
D03*
X323228D02*
D03*
X313779D02*
D03*
X309055D02*
D03*
X332677Y115748D02*
D03*
Y120472D02*
D03*
Y106299D02*
D03*
Y111024D02*
D03*
X309055D02*
D03*
Y106299D02*
D03*
Y120472D02*
D03*
Y115748D02*
D03*
X202756Y129921D02*
D03*
Y115748D02*
D03*
Y120472D02*
D03*
Y106299D02*
D03*
Y111024D02*
D03*
X179134D02*
D03*
Y106299D02*
D03*
Y120472D02*
D03*
Y115748D02*
D03*
Y125197D02*
D03*
Y129921D02*
D03*
X202756Y134646D02*
D03*
X198031D02*
D03*
X188583D02*
D03*
X193307D02*
D03*
X179134D02*
D03*
X183858D02*
D03*
Y139370D02*
D03*
X179134D02*
D03*
X193307D02*
D03*
X188583D02*
D03*
X198031D02*
D03*
X202756D02*
D03*
X174409D02*
D03*
X207480D02*
D03*
X83858D02*
D03*
X121653D02*
D03*
X116929D02*
D03*
X88583Y101575D02*
D03*
X93307D02*
D03*
X102756D02*
D03*
X98032D02*
D03*
X112205D02*
D03*
X107480D02*
D03*
X88583Y139370D02*
D03*
X93307D02*
D03*
X102756D02*
D03*
X98032D02*
D03*
X112205D02*
D03*
X107480D02*
D03*
Y134646D02*
D03*
X112205D02*
D03*
X98032D02*
D03*
X102756D02*
D03*
X93307D02*
D03*
X88583D02*
D03*
X112205Y129921D02*
D03*
Y125197D02*
D03*
Y115748D02*
D03*
Y120472D02*
D03*
Y106299D02*
D03*
Y111024D02*
D03*
X88583D02*
D03*
Y106299D02*
D03*
Y120472D02*
D03*
Y115748D02*
D03*
Y125197D02*
D03*
Y129921D02*
D03*
X323228Y227559D02*
D03*
Y218110D02*
D03*
Y213386D02*
D03*
X318898D02*
D03*
Y218110D02*
D03*
Y227559D02*
D03*
X357874D02*
D03*
Y218110D02*
D03*
Y213386D02*
D03*
X353543D02*
D03*
Y218110D02*
D03*
Y227559D02*
D03*
X323228Y209055D02*
D03*
X318898D02*
D03*
X353543D02*
D03*
X357874D02*
D03*
X344882D02*
D03*
X349213D02*
D03*
X336221D02*
D03*
X340551D02*
D03*
X331890D02*
D03*
X327559D02*
D03*
X310236Y227559D02*
D03*
X314567D02*
D03*
X366536D02*
D03*
X362205D02*
D03*
X314567Y236614D02*
D03*
X310236D02*
D03*
Y240945D02*
D03*
X314567D02*
D03*
X362205Y236614D02*
D03*
X366536D02*
D03*
Y240945D02*
D03*
X362205D02*
D03*
X305905D02*
D03*
X301574D02*
D03*
Y236614D02*
D03*
X305905D02*
D03*
Y227559D02*
D03*
X301574D02*
D03*
X370867Y240945D02*
D03*
Y236614D02*
D03*
Y227559D02*
D03*
X445670Y227559D02*
D03*
Y236614D02*
D03*
X450001D02*
D03*
Y240945D02*
D03*
X445670D02*
D03*
X380708Y227559D02*
D03*
Y236614D02*
D03*
Y240945D02*
D03*
X437008D02*
D03*
X441339D02*
D03*
Y236614D02*
D03*
X437008D02*
D03*
X389370Y240945D02*
D03*
X385039D02*
D03*
Y236614D02*
D03*
X389370D02*
D03*
X437008Y227559D02*
D03*
X441339D02*
D03*
X389370D02*
D03*
X385039D02*
D03*
X402362Y209055D02*
D03*
X406693D02*
D03*
X415355D02*
D03*
X411024D02*
D03*
X424016D02*
D03*
X419685D02*
D03*
X432678D02*
D03*
X428347D02*
D03*
X393701D02*
D03*
X398031D02*
D03*
X428347Y227559D02*
D03*
Y218110D02*
D03*
Y213386D02*
D03*
X432678D02*
D03*
Y218110D02*
D03*
Y227559D02*
D03*
X393701D02*
D03*
Y218110D02*
D03*
Y213386D02*
D03*
X398031D02*
D03*
Y218110D02*
D03*
Y227559D02*
D03*
X375591Y240945D02*
D03*
Y236614D02*
D03*
Y227559D02*
D03*
X135433Y231890D02*
D03*
Y227559D02*
D03*
Y236614D02*
D03*
Y240945D02*
D03*
X157874Y227559D02*
D03*
Y222835D02*
D03*
Y218110D02*
D03*
Y213386D02*
D03*
X153543D02*
D03*
Y218110D02*
D03*
Y222835D02*
D03*
Y227559D02*
D03*
X192520D02*
D03*
Y222835D02*
D03*
Y218110D02*
D03*
Y213386D02*
D03*
X188189D02*
D03*
Y218110D02*
D03*
Y222835D02*
D03*
Y227559D02*
D03*
X162205Y231890D02*
D03*
X166535D02*
D03*
X175197D02*
D03*
X170866D02*
D03*
X183859D02*
D03*
X179528D02*
D03*
X192520D02*
D03*
X188189D02*
D03*
X153543D02*
D03*
X157874D02*
D03*
Y209055D02*
D03*
X153543D02*
D03*
X188189D02*
D03*
X192520D02*
D03*
X179528D02*
D03*
X183859D02*
D03*
X170866D02*
D03*
X175197D02*
D03*
X166535D02*
D03*
X162205D02*
D03*
X149212Y231890D02*
D03*
X144881D02*
D03*
Y227559D02*
D03*
X149212D02*
D03*
X196851Y231890D02*
D03*
X201182D02*
D03*
Y227559D02*
D03*
X196851D02*
D03*
X149212Y236614D02*
D03*
X144881D02*
D03*
Y240945D02*
D03*
X149212D02*
D03*
X196851Y236614D02*
D03*
X201182D02*
D03*
Y240945D02*
D03*
X196851D02*
D03*
X140551D02*
D03*
Y236614D02*
D03*
Y227559D02*
D03*
Y231890D02*
D03*
X205512Y240945D02*
D03*
X209843D02*
D03*
Y236614D02*
D03*
X205512D02*
D03*
Y227559D02*
D03*
X209843D02*
D03*
Y231890D02*
D03*
X205512D02*
D03*
X130709Y231890D02*
D03*
Y227559D02*
D03*
Y236614D02*
D03*
Y240945D02*
D03*
X65748D02*
D03*
X122048D02*
D03*
X126378D02*
D03*
Y236614D02*
D03*
X122048D02*
D03*
X74409Y240945D02*
D03*
X70078D02*
D03*
Y236614D02*
D03*
X74409D02*
D03*
X122048Y227559D02*
D03*
X126378D02*
D03*
Y231890D02*
D03*
X122048D02*
D03*
X74409Y227559D02*
D03*
X70078D02*
D03*
Y231890D02*
D03*
X74409D02*
D03*
X87402Y209055D02*
D03*
X91732D02*
D03*
X100394D02*
D03*
X96063D02*
D03*
X109055D02*
D03*
X104725D02*
D03*
X117717D02*
D03*
X113386D02*
D03*
X78740D02*
D03*
X83071D02*
D03*
Y231890D02*
D03*
X78740D02*
D03*
X113386D02*
D03*
X117717D02*
D03*
X104725D02*
D03*
X109055D02*
D03*
X96063D02*
D03*
X100394D02*
D03*
X91732D02*
D03*
X87402D02*
D03*
X113386Y227559D02*
D03*
Y218110D02*
D03*
Y213386D02*
D03*
X117717D02*
D03*
Y218110D02*
D03*
Y227559D02*
D03*
X78740D02*
D03*
Y222835D02*
D03*
Y218110D02*
D03*
Y213386D02*
D03*
X83071D02*
D03*
Y218110D02*
D03*
Y222835D02*
D03*
Y227559D02*
D03*
X179134Y101575D02*
D03*
X183858D02*
D03*
X188583D02*
D03*
X193307D02*
D03*
X198031D02*
D03*
X202756D02*
D03*
Y125197D02*
D03*
X117717Y222835D02*
D03*
X113386D02*
D03*
X61417Y240945D02*
D03*
Y236614D02*
D03*
Y227559D02*
D03*
X65748Y236614D02*
D03*
Y231890D02*
D03*
X61417D02*
D03*
X65748Y227559D02*
D03*
X404331Y101575D02*
D03*
X399606Y111024D02*
D03*
Y101575D02*
D03*
Y106299D02*
D03*
X450001Y227559D02*
D03*
X318898Y222835D02*
D03*
X323228D02*
D03*
X353543D02*
D03*
X357874D02*
D03*
X393701Y222835D02*
D03*
X398031D02*
D03*
X428347D02*
D03*
X432678D02*
D03*
X309055Y125197D02*
D03*
X332677D02*
D03*
X309055Y129921D02*
D03*
X332677D02*
D03*
X301574Y231890D02*
D03*
X305905D02*
D03*
X310236D02*
D03*
X314567D02*
D03*
X318898D02*
D03*
X323228D02*
D03*
X327559D02*
D03*
X331890D02*
D03*
X336221D02*
D03*
X340551D02*
D03*
X344882D02*
D03*
X349213D02*
D03*
X353543D02*
D03*
X357874D02*
D03*
X362205D02*
D03*
X366536D02*
D03*
X370867D02*
D03*
X375591D02*
D03*
X380708Y231890D02*
D03*
X385039D02*
D03*
X389370D02*
D03*
X393701D02*
D03*
X398031D02*
D03*
X402362D02*
D03*
X406693D02*
D03*
X411024D02*
D03*
X415355D02*
D03*
X419685D02*
D03*
X424016D02*
D03*
X428347D02*
D03*
X432678D02*
D03*
X437008D02*
D03*
X441339D02*
D03*
X445670D02*
D03*
X450001D02*
D03*
D71*
X242126Y37795D02*
D03*
X269685D02*
D03*
X255906Y38583D02*
D03*
X238189Y75590D02*
D03*
X273622Y75591D02*
D03*
M02*
