M48
;Layer_Color=9474304
;FILE_FORMAT=2:5
INCH,LZ
;TYPE=PLATED
T2F00S00C0.01181
T3F00S00C0.01575
T4F00S00C0.01968
T5F00S00C0.04331
T6F00S00C0.05118
T7F00S00C0.13780
;TYPE=NON_PLATED
T1F00S00C0.12992
%
T02
X0419685Y0213386
X0424016
X0415354
X0411024
X0406693
X0402362
X0349213Y0213386
X0344882
X0340551
X0336221
X033189
X0327559
X0327953Y0129921
Y0125197
X0323228
X0318504
X0313779
Y0129921
X0318504
X0323228
Y0120472
X0318504
X0313779
Y0115748
Y0111024
Y0106299
X0318504
X0323228
X0327953
Y0111024
X0323228
X0318504
Y0115748
X0323228
X0327953
Y0120472
X0404331Y0120472
X0409055
X0413779
X0418504
Y0115748
Y0111024
Y0106299
X0413779
X0409055
Y0111024
X0404331
Y0115748
X0409055
X0413779
Y0111024
X0404331Y0106299
Y0125197
X0409055
X0413779
X0418504
Y0129921
X0413779
X0409055
X0404331
X0274409Y0170079
X0269685
X0264764
X0267323Y0177165
X0272047
X0276771
X0262205
X0259842Y0170079
X0251969
X0247047
X0242126
X0237402
X0239764Y0177165
X0244488
X0249606
X0235039
X0198031Y0129921
X0193307
X0188583
X0183858
Y0125197
X0188583
X0193307
X0198031
Y0120472
Y0115748
X0193307
X0188583
X0183858
Y0120472
X0188583
X0193307
Y0111024
X0188583
X0183858
Y0106299
X0188583
X0193307
X0198031
Y0111024
X010748
Y0115748
Y0120472
Y0125197
Y0129921
Y0106299
X0109055Y0213386
X0162205Y0213386
X0166535
X0170866
X0175197
X0179527
X0183858
X0104724Y0213386
X0100394
X0096063
X0091732
X0087402
X0093307Y0129921
X0098032
X0102756
Y0125197
X0098032
X0093307
Y0120472
Y0115748
X0098032
X0102756
Y0120472
X0098032
Y0111024
X0102756
Y0106299
X0098032
X0093307
Y0111024
X0091732Y021811
X0096063
X0100394
X0104724
Y0222835
X0100394
X0096063
X0091732
X0087402
Y021811
Y0227559
X0091732
X0096063
X0100394
X0104724
X010315Y0243307
X009685
X0090551
X0093701Y0251969
X009685
X01Y0251969
X010315Y0251969
X0109449Y0243307
X0112598Y0243307
X0109055Y0227559
Y0222835
Y021811
X0162205Y021811
X0166535
X0170866
X0175197
X0179527
X0183858
Y0222835
X0179527
X0175197
X0170866
X0166535
X0162205
Y0227559
X0166535
X0170866
X0175197
X0179527
X0183858
X0184252Y0243307
X0187401Y0243307
X0177953Y0243307
X0171653
X0165354
X0168504Y0251969
X0171654
X0174803Y0251969
X0177953Y0251969
X0217323Y025315
Y0257874
Y0262795
Y0267717
X022441Y0265354
Y0260236
Y0255512
Y0250787
X013189Y0271654
Y0276378
X0131889Y0281102
X013189Y0285827
X0124803Y0283465
Y027874
Y0274016
Y0288189
X0287402Y0265354
Y0260236
Y0255512
Y0250787
X0294488Y025315
Y0257874
Y0262795
Y0267717
X0333858Y0251969
X0337008
X0340158Y0251969
X0343307Y0251969
X0343307Y0243307
X0349606
X0352756
X0337008
X0330709
X033189Y0227559
X0336221
X0340551
X0344882
X0349213
Y0222835
X0344882
X0340551
X0336221
X033189
X0327559
Y021811
X033189
X0336221
X0340551
X0344882
X0349213
X0327559Y0227559
X0402362Y0227559
X0406693
X0411024
X0415354
Y0222835
X0411024
X0406693
X0402362
Y021811
X0406693
X0411024
X0415354
X041811Y0243307
X0411811
X0405512
X0408662Y0251969
X0411811
X0414961Y0251969
X0418111Y0251969
X0387008Y0274016
Y027874
Y0283465
Y0288189
X0379921Y0285827
X0379922Y0281102
X0379921Y0276378
Y0271654
X0424409Y0243307
X0427559Y0243307
X0424016Y0227559
X0419685
Y0222835
X0424016
Y021811
X0419685
T03
X0434842Y0126969
X0437795Y0131102
X0441732Y0134252
X0441732Y012126
X0444882
X0448032
X0440216Y0185433
Y0188583
X0441338Y0213445
X0444488
X0385433Y0213445
X0382283
X0369685Y0213445
X0366535
X0365413Y0188583
Y0185433
X0355118Y019252
Y0196457
X0352756Y0194488
X0350394Y019252
Y0196457
X0345669
Y019252
X0343307Y0194488
X0340945Y019252
Y0196457
X0336221
Y019252
X0333858Y0194488
X0331496Y019252
Y0196457
X0326772
Y019252
X032441Y0194488
X0322047Y0196457
Y019252
X0311752Y0188583
Y0185433
X031063Y0213445
X030748
X0282283Y0163386
X0279528Y015748
X0271654
X0267717
X0265748Y0151575
X0273622
X0277559
X0283858Y0137795
X0298425Y0137795
X0298425Y0141732
X0295276Y0133858
Y0127953
Y0124409
X0288583Y012126
X0285433
X0282283
X0344291Y0126969
X0347638Y0134252
X0351969
X035315Y012126
X0356299
X0359449
X0372835Y012126
X0375984
X0379134
X0385827Y0124409
Y0127953
X0385827Y0133858
X0388976Y0137795
X0388976Y0141339
X037559Y0137795
X0386555Y0185433
Y0188583
X0259842Y015748
X0261811Y0151575
X025
X0246063
X0244094Y015748
X0240158
X0232283
X0234252Y0151575
X0238189
X0251969Y015748
X0255906Y0135039
X0258465Y0127165
X0253346
X0229528Y012126
X0226378
X0223228
X021437Y0126969
X0216535Y0129921
Y0133858
X0229528Y0163386
X0200059Y0185433
Y0188583
X0189764Y019252
Y0196457
X0187402Y0194488
X0185039Y0196457
Y019252
X0180315
Y0196457
X0177953Y0194488
X0175591Y0196457
Y019252
X0170866
Y0196457
X0168504Y0194488
X0166142Y0196457
Y019252
X0161417
Y0196457
X0159055Y0194488
X0156693Y019252
Y0196457
X0146398Y0188583
Y0185433
X0125256Y0185433
Y0188583
X0126378Y0213445
X0129528
X0142126
X0145275
X0201181
X0204331
X0168504Y0137795
X0162008
X0155905Y0137795
X0165354Y0133858
X0165354Y0127953
Y0124409
X0158661Y012126
X0155512
X0152362
X0138976Y012126
X0135827
X0132677
X0123819Y0126969
X0125984Y0133858
X0129921Y0133858
X0074803Y0133465
Y0127953
Y0124409
X006811Y012126
X0064961
X0061811
X0064961Y0137795
X0071063
X0076772
X0071595Y0185433
Y0188583
X0070473Y0213445
X0067323
X0090551Y0255512
X0086024Y0283661
X0070866Y0285433
Y028937
Y0293307
Y0297244
Y0305118
Y0309055
Y0312992
Y0316929
X0055118
Y0312992
Y0309055
Y0305118
X0040551Y0301181
X0037795Y0298425
X0027953Y0297244
X0025Y029311
X0037605Y0283477
X0055118Y0285433
X0049606Y0267323
X0031496
X0040551Y0312992
X0040157Y0316929
X0128347Y0315354
Y0311417
X0140551Y0293307
Y028937
Y0285433
Y0281496
Y0277559
Y0273622
Y0269685
Y0265748
X0163386Y0255512
X0172146Y0263484
X0177264
X0174705Y0272342
X0179823
X0182382Y0274803
Y028189
X0179823Y0284252
X0177264Y0286713
X0174705Y0295571
X01875Y0297834
X0185039Y0300393
X0190157Y0295177
X0193504Y0267913
X0221595Y027559
X0241732Y0287795
X0241732Y0299607
X0244882Y0297638
X0248031Y0295276
X0259842Y0287402
Y027559
X0241732Y0240551
X0221595Y0228346
X0218206Y0314173
X0220866Y0320472
X0218897Y0323621
X0220866Y0329921
X0218897Y033307
X0220696Y0336016
X0218897Y0339369
X0220866Y034252
X0218897Y0345669
Y0351968
X0220866Y0355118
X0218897Y0358267
X0227165Y0364567
X0244882Y0369291
X0232283Y0326772
X0235433Y0311024
X0238583Y0309054
X0212598Y0327166
X0152756Y0342126
Y0346063
X0139764
Y0342126
X0157894Y0291339
X0263779Y0287402
Y027559
X0283465Y0275197
Y0270472
X0315748Y0276378
Y0280315
Y0284252
X0318307Y0291142
X0304724Y0295276
Y0299606
Y0304134
Y0308661
X030315Y0335354
Y0350394
X0309055
X0314961
X030315Y0361496
X027874Y0355118
X0281496Y0351969
X0279528Y0320472
X0293701Y0326772
X0334252Y0325335
X0343996Y0330335
Y0315335
X0366535Y0320079
X0366929Y0325197
X037126Y0293307
Y028937
Y0285433
Y0281496
Y0277559
Y0273622
Y0269685
Y0265748
X0354271Y0267717
X0337106Y0263484
X0334547Y0272342
X0331988Y0274803
X0329429Y0277165
Y0284252
X0331988Y0286713
X0337106
X0334645Y0294881
X0346457Y028937
X0330709Y0255512
X0283465Y0227953
Y0223622
X026378Y0311024
X0405512Y0255512
X0431457Y0291339
X0441732Y0287402
Y0295276
X0440945Y0305118
Y0309055
Y0312992
Y0316929
X0456693
Y0312992
Y0309055
Y0305118
X0469685Y0295276
X0478346Y0287402
Y0274803
X0469685
X025748Y0381102
X0254331Y037874
X0241732Y0371259
X0238582Y0373228
X0235433Y0375196
T04
X0242126Y0037795
X0255906Y0038583
X0269685Y0037795
X0423228Y0101575
Y0106299
Y0111024
Y0115748
Y0120472
Y0125197
Y0129921
Y0134646
Y013937
X0427953
X0432677
X0432678Y0209055
X0428347
X0424016
X0419685
X0428347Y0213386
X0432678
X0415355Y0209055
X0411024
X0406693
X0402362
X0398031
X0393701
Y0213386
X0398031
X0357874Y0213386
X0353543
Y0209055
X0349213
X0344882
X0340551
X0336221
X033189
X0327559
X0323228
Y0213386
X0318898
Y0209055
X0357874
X0337402Y013937
X0332677
X0327953
X0323228
X0318504
X0313779
X0309055
X0304331
X0309055Y0134646
X0313779
X0318504
X0323228
X0327953
X0332677
Y0129921
Y0125197
Y0120472
Y0115748
Y0111024
Y0106299
Y0101575
X0327953
X0323228
X0318504
X0313779
X0309055
Y0106299
Y0111024
Y0115748
Y0120472
Y0125197
Y0129921
X0273622Y0075591
X0399606Y0101575
X0404331
X0409055
X041378
X0418504
X0399606Y0106299
Y0111024
Y0115748
Y0120472
Y0125197
Y0129921
Y0134646
X0404331
X0409055
X041378
X0418504
Y013937
X041378
X0409055
X0404331
X0399606
X0394882
X020748Y013937
X0202756
Y0134646
Y0129921
Y0125197
Y0120472
Y0115748
Y0111024
Y0106299
Y0101575
X0198031
X0193307
X0188583
X0183858
X0179134
Y0106299
Y0111024
Y0115748
Y0120472
Y0125197
Y0129921
Y0134646
X0183858
X0188583
X0193307
X0198031
Y013937
X0193307
X0188583
X0183858
X0179134
X0174409
X0121653
X0116929
X0112205
X010748
Y0134646
X0112205
Y0129921
Y0125197
Y0120472
Y0115748
Y0111024
Y0106299
X0112205Y0101575
X010748
X0109055Y0209055
X0113386
X0117717
Y0213386
X0113386
X0153543Y0213386
X0157874
Y0209055
X0153543
X0162205
X0166535
X0170866
X0175197
X0179528
X0183859
X0188189
Y0213386
X019252
Y0209055
X0238189Y007559
X0102756Y0101575
X0098032
X0093307
X0088583
X0088583Y0106299
Y0111024
Y0115748
Y0120472
Y0125197
Y0129921
Y0134646
Y013937
X0083858
X0093307
X0098032
X0102756
Y0134646
X0098032
X0093307
X0091732Y0209055
X0087402
X0083071
X007874
Y0213386
X0083071
X0096063Y0209055
X0100394
X0104725
Y023189
X0100394
X0096063
X0091732
X0087402
X0083071
X007874
X0074409
Y0227559
X0070078
Y023189
X0065748
X0061417
Y0227559
X0065748
Y0236614
Y0240945
X0070078
X0074409
Y0236614
X0070078
X0061417
Y0240945
X007874Y0227559
X0083071
Y0222835
X007874
Y021811
X0083071
X0113386
X0117717
Y0222835
X0113386
Y0227559
Y023189
X0109055
X0117717
X0122048
Y0227559
X0126378
X0130709
Y023189
X0126378
Y0236614
X0130709
Y0240945
X0126378
X0122048
Y0236614
X0135433Y0236614
Y0240945
X0140551Y0240945
X0144881
Y0236614
X0149212
Y0240945
Y023189
X0153543
Y0227559
X0157874
Y023189
X0162205
X0166535
X0170866
X0175197
X0179528
X0183859
X0188189
Y0227559
X019252
Y023189
X0196851
X0201182
Y0227559
X0196851
X0205512
X0209843
Y023189
X0205512
Y0236614
X0201182
X0196851
Y0240945
X0201182
X0205512
X0209843
Y0236614
X019252Y0222835
X0188189
Y021811
X019252
X0157874
X0153543
Y0222835
X0157874
X0149212Y0227559
X0144881
Y023189
X0140551
Y0227559
X0135433
Y023189
X0140551Y0236614
X0117717Y0227559
X0301574Y0227559
X0305905
X0310236
X0314567
X0318898
X0323228
Y023189
X0318898
X0314567
X0310236
X0305905
X0301574
Y0236614
Y0240945
X0305905
X0310236
Y0236614
X0314567
Y0240945
X0305905Y0236614
X0327559Y023189
X033189
X0336221
X0340551
X0344882
X0349213
X0353543
Y0227559
X0357874
X0362205
X0366536
X0370867
Y023189
X0366536
X0362205
X0357874
X0362205Y0236614
X0366536
Y0240945
X0362205
X0370867
Y0236614
X0375591Y0236614
Y0240945
X0380708Y0240945
Y0236614
X0385039
Y0240945
X038937
Y0236614
Y023189
Y0227559
X0385039
X0380708
Y023189
X0385039
X0393701
Y0227559
X0398031
Y023189
X0402362
X0406693
X0411024
X0415355
X0398031Y0222835
X0393701
Y021811
X0398031
X0375591Y0227559
Y023189
X0357874Y0222835
X0353543
Y021811
X0357874
X0323228
X0318898
Y0222835
X0323228
X0428347Y0222835
X0432678
Y021811
X0428347
Y0227559
X0432678
X0437008
X0441339
X044567
X0450001
Y023189
X044567
X0441339
X0437008
X0432678
X0428347
X0424016
X0419685
X0437008Y0236614
Y0240945
X0441339
X044567
Y0236614
X0450001
Y0240945
X0441339Y0236614
T05
X0400906Y0345669
X0410906
X0425827Y0345512
X0435827
X0445827
Y0355512
X0435827
X0425827
T06
X0098425Y0047244
X0104331Y0057087
X0116142
X0127953
X0139764
X0151575
X0163386
X0175197
X0187008
X0181102Y0047244
X0192913
X0169291
X015748
X0145669
X0133858
X0122047
X0110236
X0318898
X0330709
X034252
X0354331
X0366142
X0377953
X0389764
X0401575
X0413386
X040748Y0057087
X0395669
X0383858
X0372047
X0360236
X0348425
X0336614
X0324803
Y0068898
X0336614
X0348425
X0360236
X0372047
X0383858
X0395669
X040748
X0413386Y007874
X0401575
X0389764
X0377953
X0366142
X0354331
X034252
X0330709
X0318898
X0192913
X0181102
X0169291
X015748
X0145669
X0133858
X0122047
X0110236
X0116142Y0068898
X0127953
X0139764
X0151575
X0163386
X0175197
X0187008
X0104331
X0098425Y007874
T07
X0027559Y0027559
X0484252
Y019685
X0027559
Y0366142
X0484252
T01
X0069882Y0021654
X0221457
X0290354
X0441929
M30
